<svg width="27" height="27" viewBox="0 0 27 27" fill="none" xmlns="http://www.w3.org/2000/svg">
<path d="M13.5861 18.4783C12.8998 17.8929 12.2636 17.2511 11.6843 16.5596C10.8149 15.5213 9.78247 13.9748 9.78247 12.5012C9.78209 11.7486 10.005 11.0128 10.4229 10.3869C10.8409 9.76108 11.4351 9.27327 12.1304 8.98525C12.8257 8.69723 13.5908 8.62194 14.3289 8.76893C15.067 8.91591 15.7449 9.27855 16.2769 9.81096C16.631 10.1635 16.9117 10.5828 17.1027 11.0446C17.2937 11.5064 17.3913 12.0015 17.3897 12.5012C17.3897 13.9748 16.3573 15.5213 15.4879 16.5596C14.9085 17.2511 14.2724 17.8929 13.5861 18.4783ZM13.5861 10.8711C13.1537 10.8711 12.7391 11.0428 12.4334 11.3485C12.1277 11.6542 11.956 12.0689 11.956 12.5012C11.956 12.9335 12.1277 13.3482 12.4334 13.6539C12.7391 13.9596 13.1537 14.1313 13.5861 14.1313C14.0184 14.1313 14.433 13.9596 14.7387 13.6539C15.0445 13.3482 15.2162 12.9335 15.2162 12.5012C15.2162 12.0689 15.0445 11.6542 14.7387 11.3485C14.433 11.0428 14.0184 10.8711 13.5861 10.8711Z" fill="#461952"/>
<rect x="0.271739" y="0.271739" width="25.5435" height="25.5435" rx="12.7717" stroke="#E3E3E3" stroke-width="0.543478"/>
</svg>
