<svg width="27" height="27" viewBox="0 0 27 27" fill="none" xmlns="http://www.w3.org/2000/svg">
<g clip-path="url(#clip0_603_8018)">
<path d="M17.2421 9.95988C17.1989 9.95543 17.1553 9.95543 17.1121 9.95988H8.23924C8.18237 9.96076 8.12588 9.96928 8.07129 9.98523L12.6503 14.5453L17.2421 9.95988Z" fill="#461952"/>
<path d="M17.7111 10.4003L13.0972 14.9952C12.9784 15.1133 12.8178 15.1795 12.6504 15.1795C12.4829 15.1795 12.3223 15.1133 12.2035 14.9952L7.63082 10.4352C7.61677 10.4869 7.60931 10.5401 7.60864 10.5936V16.9314C7.60864 17.0995 7.67542 17.2607 7.79427 17.3796C7.91313 17.4984 8.07433 17.5652 8.24242 17.5652H17.1153C17.2834 17.5652 17.4446 17.4984 17.5635 17.3796C17.6823 17.2607 17.7491 17.0995 17.7491 16.9314V10.5936C17.7466 10.5276 17.7337 10.4624 17.7111 10.4003ZM8.67656 16.9314H8.23608V16.4783L10.5399 14.1935L10.9867 14.6403L8.67656 16.9314ZM17.109 16.9314H16.6653L14.3552 14.6403L14.802 14.1935L17.1058 16.4783L17.109 16.9314Z" fill="#461952"/>
</g>
<rect x="0.271739" y="0.445628" width="25.5435" height="25.5435" rx="12.7717" stroke="#E3E3E3" stroke-width="0.543478"/>
<defs>
<clipPath id="clip0_603_8018">
<rect y="0.173889" width="26.087" height="26.087" rx="13.0435" fill="white"/>
</clipPath>
</defs>
</svg>
