<svg width="27" height="27" viewBox="0 0 27 27" fill="none" xmlns="http://www.w3.org/2000/svg">
<path d="M11.7639 8.83466C12.0315 8.75398 12.3187 8.76738 12.5776 8.87265C12.8365 8.97791 13.0516 9.16868 13.187 9.41321L13.2323 9.50433L13.6371 10.404C13.76 10.677 13.7999 10.9802 13.7518 11.2757C13.7038 11.5713 13.5699 11.8461 13.3668 12.0662L13.2855 12.1469L12.6476 12.742C12.5326 12.8508 12.6189 13.2722 13.0347 13.9927C13.409 14.6409 13.7136 14.9436 13.8634 14.9602H13.8897L13.9221 14.954L15.1758 14.5706C15.3443 14.5189 15.5241 14.5169 15.6938 14.5647C15.8634 14.6125 16.0156 14.7082 16.1323 14.8403L16.188 14.9106L17.0179 16.0604C17.1805 16.2857 17.2616 16.5598 17.2477 16.8373C17.2338 17.1149 17.1258 17.3795 16.9414 17.5875L16.8668 17.6645L16.5354 17.9789C16.2377 18.2608 15.8654 18.4512 15.4626 18.5277C15.0598 18.6041 14.6436 18.5633 14.2634 18.41C13.08 17.933 12.0048 16.8432 11.0282 15.1516C10.0496 13.4557 9.64295 11.9775 9.82459 10.7116C9.87955 10.3289 10.0371 9.96824 10.2806 9.66793C10.5241 9.36761 10.8443 9.13884 11.2074 9.0059L11.3254 8.96676L11.7639 8.83466Z" fill="#461952"/>
<rect x="0.271739" y="0.358714" width="25.5435" height="25.5435" rx="12.7717" stroke="#E3E3E3" stroke-width="0.543478"/>
</svg>
