<svg xmlns="http://www.w3.org/2000/svg" width="30" viewBox="0 0 30 30" height="30" version="1.0"><defs><clipPath id="a"><path d="M 10 3.949219 L 20 3.949219 L 20 24.996094 L 10 24.996094 Z M 10 3.949219"/></clipPath><clipPath id="b"><path d="M 18 8 L 25.480469 8 L 25.480469 20 L 18 20 Z M 18 8"/></clipPath><clipPath id="c"><path d="M 4.433594 8 L 12 8 L 12 20 L 4.433594 20 Z M 4.433594 8"/></clipPath></defs><g clip-path="url(#a)"><path fill="#C4456F" d="M 18.121094 18.523438 L 16.867188 19.246094 C 16.484375 18.726562 15.894531 18.367188 15.21875 18.292969 L 15.21875 16.851562 C 16.425781 16.933594 17.480469 17.574219 18.121094 18.523438 Z M 18.382812 22.328125 L 17.132812 21.605469 C 17.261719 21.3125 17.332031 20.992188 17.332031 20.652344 C 17.332031 20.3125 17.261719 19.992188 17.132812 19.699219 L 18.382812 18.980469 C 18.628906 19.484375 18.773438 20.050781 18.773438 20.652344 C 18.773438 21.253906 18.628906 21.820312 18.382812 22.328125 Z M 15.21875 24.457031 L 15.21875 23.015625 C 15.894531 22.941406 16.484375 22.582031 16.867188 22.0625 L 18.121094 22.785156 C 17.480469 23.730469 16.425781 24.375 15.21875 24.457031 Z M 11.789062 22.785156 L 13.042969 22.0625 C 13.429688 22.582031 14.019531 22.941406 14.691406 23.015625 L 14.691406 24.457031 C 13.488281 24.375 12.433594 23.730469 11.789062 22.785156 Z M 11.53125 18.980469 L 12.78125 19.699219 C 12.652344 19.992188 12.578125 20.3125 12.578125 20.652344 C 12.578125 20.992188 12.652344 21.3125 12.78125 21.605469 L 11.53125 22.328125 C 11.28125 21.820312 11.140625 21.253906 11.140625 20.652344 C 11.140625 20.050781 11.28125 19.484375 11.53125 18.980469 Z M 14.691406 16.851562 L 14.691406 18.292969 C 14.019531 18.367188 13.429688 18.726562 13.042969 19.246094 L 11.789062 18.523438 C 12.433594 17.574219 13.488281 16.933594 14.691406 16.851562 Z M 16.804688 20.652344 C 16.804688 21.675781 15.976562 22.507812 14.957031 22.507812 C 13.9375 22.507812 13.105469 21.675781 13.105469 20.652344 C 13.105469 19.632812 13.9375 18.800781 14.957031 18.800781 C 15.976562 18.800781 16.804688 19.632812 16.804688 20.652344 Z M 14.957031 4.476562 C 16.847656 4.476562 18.390625 6.242188 18.390625 8.414062 C 18.390625 11.90625 15.710938 15.292969 14.957031 16.171875 C 14.207031 15.28125 11.523438 11.84375 11.523438 8.414062 C 11.523438 6.242188 13.0625 4.476562 14.957031 4.476562 Z M 14.957031 3.949219 C 12.773438 3.949219 10.996094 5.953125 10.996094 8.414062 C 10.996094 11.875 13.480469 15.214844 14.417969 16.347656 C 12.277344 16.617188 10.613281 18.441406 10.613281 20.652344 C 10.613281 23.046875 12.5625 24.996094 14.957031 24.996094 C 17.351562 24.996094 19.300781 23.046875 19.300781 20.652344 C 19.300781 18.445312 17.640625 16.617188 15.503906 16.347656 C 16.441406 15.226562 18.917969 11.929688 18.917969 8.414062 C 18.917969 5.953125 17.140625 3.949219 14.957031 3.949219"/></g><g clip-path="url(#b)"><path fill="#C4456F" d="M 22.382812 19.3125 L 22.382812 18.339844 C 22.871094 18.269531 23.296875 18.015625 23.585938 17.644531 L 24.429688 18.128906 C 23.964844 18.785156 23.226562 19.234375 22.382812 19.3125 Z M 19.8125 18.128906 L 20.652344 17.644531 C 20.945312 18.015625 21.371094 18.269531 21.855469 18.339844 L 21.855469 19.3125 C 21.011719 19.234375 20.277344 18.785156 19.8125 18.128906 Z M 21.855469 13.671875 L 21.855469 14.644531 C 21.371094 14.714844 20.945312 14.96875 20.652344 15.339844 L 19.8125 14.855469 C 20.277344 14.199219 21.011719 13.75 21.855469 13.671875 Z M 19.285156 16.492188 C 19.285156 16.070312 19.382812 15.671875 19.546875 15.308594 L 20.386719 15.796875 C 20.300781 16.011719 20.253906 16.246094 20.253906 16.492188 C 20.253906 16.738281 20.300781 16.972656 20.386719 17.1875 L 19.546875 17.671875 C 19.382812 17.3125 19.285156 16.914062 19.285156 16.492188 Z M 22.117188 17.835938 C 21.378906 17.835938 20.777344 17.234375 20.777344 16.492188 C 20.777344 15.75 21.378906 15.148438 22.117188 15.148438 C 22.859375 15.148438 23.460938 15.75 23.460938 16.492188 C 23.460938 17.234375 22.859375 17.835938 22.117188 17.835938 Z M 24.957031 16.492188 C 24.957031 16.914062 24.859375 17.3125 24.691406 17.671875 L 23.851562 17.1875 C 23.9375 16.972656 23.988281 16.738281 23.988281 16.492188 C 23.988281 16.246094 23.9375 16.011719 23.851562 15.796875 L 24.691406 15.308594 C 24.859375 15.671875 24.957031 16.070312 24.957031 16.492188 Z M 24.429688 14.855469 L 23.585938 15.339844 C 23.296875 14.96875 22.871094 14.714844 22.382812 14.644531 L 22.382812 13.671875 C 23.226562 13.75 23.964844 14.199219 24.429688 14.855469 Z M 22.382812 13.144531 L 22.382812 11.886719 C 23.140625 11.761719 23.71875 11.105469 23.71875 10.3125 C 23.71875 9.429688 23 8.714844 22.117188 8.714844 C 21.238281 8.714844 20.519531 9.429688 20.519531 10.3125 C 20.519531 10.457031 20.640625 10.574219 20.785156 10.574219 C 20.929688 10.574219 21.046875 10.457031 21.046875 10.3125 C 21.046875 9.71875 21.527344 9.242188 22.117188 9.242188 C 22.710938 9.242188 23.195312 9.71875 23.195312 10.3125 C 23.195312 10.902344 22.710938 11.382812 22.117188 11.382812 C 21.976562 11.382812 21.855469 11.5 21.855469 11.648438 L 21.855469 13.144531 C 20.128906 13.28125 18.757812 14.726562 18.757812 16.492188 C 18.757812 18.34375 20.265625 19.851562 22.117188 19.851562 C 23.972656 19.851562 25.480469 18.34375 25.480469 16.492188 C 25.480469 14.726562 24.113281 13.28125 22.382812 13.144531"/></g><g clip-path="url(#c)"><path fill="#C4456F" d="M 7.53125 13.671875 L 7.53125 14.644531 C 7.042969 14.714844 6.613281 14.96875 6.324219 15.339844 L 5.484375 14.855469 C 5.949219 14.199219 6.6875 13.75 7.53125 13.671875 Z M 10.101562 14.855469 L 9.261719 15.339844 C 8.96875 14.96875 8.542969 14.714844 8.054688 14.644531 L 8.054688 13.671875 C 8.898438 13.75 9.636719 14.199219 10.101562 14.855469 Z M 8.054688 19.3125 L 8.054688 18.339844 C 8.542969 18.269531 8.96875 18.015625 9.261719 17.644531 L 10.101562 18.128906 C 9.636719 18.785156 8.898438 19.234375 8.054688 19.3125 Z M 10.625 16.492188 C 10.625 16.914062 10.53125 17.3125 10.363281 17.671875 L 9.523438 17.1875 C 9.613281 16.972656 9.660156 16.738281 9.660156 16.492188 C 9.660156 16.246094 9.613281 16.011719 9.523438 15.796875 L 10.363281 15.308594 C 10.53125 15.671875 10.625 16.070312 10.625 16.492188 Z M 7.792969 15.148438 C 8.53125 15.148438 9.136719 15.75 9.136719 16.492188 C 9.136719 17.234375 8.53125 17.835938 7.792969 17.835938 C 7.054688 17.835938 6.449219 17.234375 6.449219 16.492188 C 6.449219 15.75 7.054688 15.148438 7.792969 15.148438 Z M 4.960938 16.492188 C 4.960938 16.070312 5.054688 15.671875 5.21875 15.308594 L 6.0625 15.796875 C 5.972656 16.011719 5.925781 16.246094 5.925781 16.492188 C 5.925781 16.738281 5.972656 16.972656 6.0625 17.1875 L 5.21875 17.671875 C 5.054688 17.3125 4.960938 16.914062 4.960938 16.492188 Z M 5.484375 18.128906 L 6.324219 17.644531 C 6.613281 18.015625 7.042969 18.269531 7.53125 18.339844 L 7.53125 19.3125 C 6.6875 19.234375 5.949219 18.785156 5.484375 18.128906 Z M 7.792969 19.851562 C 9.644531 19.851562 11.152344 18.34375 11.152344 16.492188 C 11.152344 14.726562 9.785156 13.28125 8.054688 13.144531 L 8.054688 11.886719 C 8.8125 11.761719 9.390625 11.101562 9.390625 10.3125 C 9.390625 9.429688 8.675781 8.714844 7.792969 8.714844 C 6.910156 8.714844 6.195312 9.429688 6.195312 10.3125 C 6.195312 10.457031 6.3125 10.574219 6.457031 10.574219 C 6.605469 10.574219 6.722656 10.457031 6.722656 10.3125 C 6.722656 9.71875 7.203125 9.242188 7.792969 9.242188 C 8.382812 9.242188 8.863281 9.71875 8.863281 10.3125 C 8.863281 10.902344 8.382812 11.382812 7.792969 11.382812 C 7.648438 11.382812 7.53125 11.5 7.53125 11.648438 L 7.53125 13.144531 C 5.800781 13.28125 4.433594 14.726562 4.433594 16.492188 C 4.433594 18.34375 5.941406 19.851562 7.792969 19.851562"/></g></svg>