<svg xmlns="http://www.w3.org/2000/svg" width="30" viewBox="0 0 30 30" height="30" version="1.0"><defs><clipPath id="a"><path d="M 6 4.257812 L 24.582031 4.257812 L 24.582031 19 L 6 19 Z M 6 4.257812"/></clipPath><clipPath id="b"><path d="M 5.710938 18 L 14 18 L 14 24.582031 L 5.710938 24.582031 Z M 5.710938 18"/></clipPath><clipPath id="c"><path d="M 14 19 L 23 19 L 23 24.582031 L 14 24.582031 Z M 14 19"/></clipPath></defs><g clip-path="url(#a)"><path fill="#C4456F" d="M 24.304688 7.496094 C 24.207031 6.03125 22.660156 4.449219 20.601562 4.308594 C 19.683594 4.246094 18.667969 4.472656 17.632812 5.117188 C 15.734375 6.296875 15.300781 8.09375 15.058594 9.472656 C 14.960938 8.421875 14.613281 7.082031 13.371094 6.132812 C 12.355469 5.355469 11.417969 5.027344 10.617188 4.972656 C 9.265625 4.878906 8.300781 5.570312 7.996094 6.203125 C 6.625 9.042969 10.949219 8.890625 13.320312 9.824219 C 13.316406 9.828125 13.316406 9.828125 13.316406 9.832031 L 6.832031 9.394531 L 6.261719 9.351562 L 6.105469 11.554688 L 6.667969 11.59375 L 6.65625 11.738281 L 6.664062 11.738281 L 6.335938 16.34375 L 6.320312 16.601562 L 6.289062 17.019531 L 13.855469 17.519531 L 14.253906 11.785156 C 14.28125 11.398438 14.625 11.109375 15.019531 11.132812 C 15.414062 11.160156 15.710938 11.492188 15.683594 11.878906 L 15.285156 17.617188 L 22.980469 18.128906 L 23.007812 17.730469 L 23.027344 17.472656 L 23.332031 13.210938 L 23.367188 12.71875 L 23.925781 12.757812 L 24.082031 10.558594 L 23.523438 10.519531 L 16.894531 10.070312 C 16.886719 10.054688 16.875 10.039062 16.867188 10.027344 C 19.558594 8.6875 24.558594 11.238281 24.304688 7.496094 Z M 14.40625 9.488281 C 12.75 8.019531 8.925781 8.117188 9.820312 6.695312 C 9.832031 6.675781 9.859375 6.667969 9.878906 6.652344 C 10.121094 6.476562 10.421875 6.296875 10.886719 6.328125 C 11.378906 6.359375 12.046875 6.625 13.019531 7.371094 C 13.875 8.027344 14.226562 8.734375 14.507812 9.484375 C 14.472656 9.488281 14.4375 9.488281 14.40625 9.488281 Z M 15.84375 9.59375 C 15.796875 9.589844 15.75 9.585938 15.707031 9.582031 C 15.703125 9.582031 15.699219 9.582031 15.695312 9.582031 C 16.074219 8.566406 16.648438 7.519531 17.96875 6.546875 C 18.816406 5.925781 19.519531 5.738281 20.09375 5.773438 C 21.363281 5.859375 21.96875 7.070312 21.984375 7.089844 C 22.742188 9.785156 17.964844 7.410156 15.84375 9.59375 Z M 15.84375 9.59375"/></g><g clip-path="url(#b)"><path fill="#C4456F" d="M 6.175781 18.628906 L 6.167969 18.632812 L 6.148438 18.875 L 6.15625 18.875 L 6.152344 18.945312 L 5.75 24.570312 C 8.289062 24.554688 10.820312 24.523438 13.363281 24.519531 L 13.757812 18.914062 L 6.1875 18.414062 Z M 6.175781 18.628906"/></g><g clip-path="url(#c)"><path fill="#C4456F" d="M 14.804688 24.515625 C 17.371094 24.507812 19.953125 24.527344 22.527344 24.535156 L 22.84375 20.070312 L 22.847656 20.003906 L 22.863281 19.816406 L 22.882812 19.523438 L 15.1875 19.011719 Z M 14.804688 24.515625"/></g></svg>