<svg xmlns="http://www.w3.org/2000/svg" width="30" viewBox="0 0 30 30" height="30" version="1.0"><path fill="#C4456F" d="M 19.527344 13.640625 L 18.609375 10.9375 C 18.609375 10.9375 21.441406 6.941406 20.375 6.203125 C 19.308594 5.464844 16.199219 9.269531 16.199219 9.269531 L 13.21875 9.269531 C 13.21875 9.269531 10.105469 5.464844 9.039062 6.203125 C 7.972656 6.941406 10.808594 10.9375 10.808594 10.9375 L 9.886719 13.640625 C 9.886719 13.640625 5.128906 15.285156 5.535156 16.480469 C 5.945312 17.675781 10.808594 16.34375 10.808594 16.34375 L 13.21875 18.011719 C 13.21875 18.011719 13.390625 22.835938 14.707031 22.835938 C 16.027344 22.835938 16.199219 18.011719 16.199219 18.011719 L 18.609375 16.34375 C 18.609375 16.34375 23.472656 17.675781 23.878906 16.480469 C 24.285156 15.285156 19.53125 13.640625 19.53125 13.640625"/><path fill="#E84D88" d="M 17.960938 6.738281 C 17.960938 9.992188 16.492188 12.632812 14.683594 12.632812 C 12.875 12.632812 11.40625 9.996094 11.40625 6.738281 C 11.40625 3.480469 13.808594 5.363281 14.683594 5.363281 C 15.558594 5.363281 17.960938 3.480469 17.960938 6.738281"/><path fill="#E84D88" d="M 8.390625 8.875 C 11.636719 9.878906 13.816406 12.027344 13.257812 13.667969 C 12.699219 15.308594 9.613281 15.824219 6.367188 14.816406 C 3.121094 13.8125 5.738281 12.210938 6.007812 11.421875 C 6.277344 10.628906 5.144531 7.867188 8.390625 8.875"/><path fill="#E84D88" d="M 7.566406 18.214844 C 9.574219 15.578125 12.386719 14.265625 13.851562 15.28125 C 15.3125 16.296875 14.875 19.253906 12.867188 21.886719 C 10.859375 24.519531 10.074219 21.652344 9.367188 21.164062 C 8.660156 20.671875 5.558594 20.847656 7.566406 18.214844"/><path fill="#E84D88" d="M 16.625 21.84375 C 14.617188 19.210938 14.175781 16.253906 15.640625 15.242188 C 17.105469 14.226562 19.917969 15.539062 21.925781 18.171875 C 23.933594 20.804688 20.828125 20.632812 20.121094 21.121094 C 19.414062 21.609375 18.632812 24.476562 16.625 21.84375"/><path fill="#E84D88" d="M 23.046875 14.753906 C 19.800781 15.761719 16.714844 15.246094 16.15625 13.605469 C 15.597656 11.964844 17.777344 9.820312 21.023438 8.8125 C 24.269531 7.804688 23.136719 10.566406 23.40625 11.359375 C 23.675781 12.152344 26.296875 13.75 23.046875 14.753906"/><path fill="#FFF" d="M 15.96875 14.042969 C 15.96875 14.203125 15.9375 14.355469 15.871094 14.5 C 15.808594 14.648438 15.714844 14.777344 15.597656 14.890625 C 15.480469 15.003906 15.34375 15.089844 15.191406 15.152344 C 15.035156 15.214844 14.875 15.242188 14.707031 15.242188 C 14.539062 15.242188 14.378906 15.214844 14.226562 15.152344 C 14.070312 15.089844 13.933594 15.003906 13.816406 14.890625 C 13.699219 14.777344 13.605469 14.648438 13.542969 14.5 C 13.480469 14.355469 13.449219 14.203125 13.449219 14.042969 C 13.449219 13.882812 13.480469 13.730469 13.542969 13.582031 C 13.605469 13.433594 13.699219 13.304688 13.816406 13.191406 C 13.933594 13.082031 14.070312 12.992188 14.226562 12.933594 C 14.378906 12.871094 14.539062 12.839844 14.707031 12.839844 C 14.875 12.839844 15.035156 12.871094 15.191406 12.933594 C 15.34375 12.992188 15.480469 13.082031 15.597656 13.191406 C 15.714844 13.304688 15.808594 13.433594 15.871094 13.582031 C 15.9375 13.730469 15.96875 13.882812 15.96875 14.042969 Z M 15.96875 14.042969"/></svg>