<svg xmlns="http://www.w3.org/2000/svg" width="30" viewBox="0 0 30 30" height="30" version="1.0"><defs><clipPath id="a"><path d="M 3.386719 3.304688 L 25.886719 3.304688 L 25.886719 25.078125 L 3.386719 25.078125 Z M 3.386719 3.304688"/></clipPath></defs><g clip-path="url(#a)"><path fill="#C4456F" d="M 8.351562 8.226562 C 7.789062 7.953125 7.164062 7.808594 6.523438 7.808594 C 6.113281 7.808594 5.703125 7.871094 5.304688 7.992188 C 4.863281 7.894531 4.40625 7.839844 3.953125 7.839844 C 3.769531 7.839844 3.585938 7.847656 3.402344 7.863281 C 3.753906 8.128906 4.066406 8.390625 4.371094 8.65625 C 4.40625 9.015625 4.4375 9.382812 4.453125 9.753906 C 4.4375 10.050781 4.429688 10.359375 4.429688 10.664062 C 4.429688 10.839844 4.429688 11.007812 4.4375 11.183594 L 4.4375 11.273438 C 4.4375 11.9375 4.476562 12.601562 4.566406 13.257812 C 4.574219 13.320312 4.589844 13.378906 4.613281 13.433594 C 4.757812 13.730469 5.054688 13.914062 5.382812 13.914062 C 5.542969 13.914062 5.695312 13.875 5.832031 13.792969 C 5.921875 13.746094 6.03125 13.707031 6.136719 13.699219 C 6.152344 13.691406 6.167969 13.691406 6.183594 13.6875 C 6.273438 13.625 6.332031 13.519531 6.339844 13.402344 C 6.328125 13.289062 6.328125 13.167969 6.347656 13.035156 C 6.347656 12.753906 6.417969 12.480469 6.539062 12.226562 C 6.636719 11.960938 6.722656 11.703125 6.777344 11.425781 C 6.972656 11.34375 7.148438 11.257812 7.324219 11.167969 C 7.710938 11.769531 7.917969 12.472656 7.925781 13.191406 L 7.941406 14.019531 C 7.949219 14.371094 7.957031 14.722656 7.957031 15.074219 L 7.957031 15.089844 C 7.992188 15.570312 8.121094 16.035156 8.34375 16.457031 C 7.519531 16.59375 6.722656 16.84375 5.976562 17.210938 L 5.96875 17.210938 C 5.695312 17.332031 5.4375 17.492188 5.214844 17.683594 C 5.160156 17.730469 5.117188 17.777344 5.078125 17.828125 L 5.078125 17.84375 C 5.007812 17.960938 4.972656 18.089844 4.972656 18.21875 C 4.972656 18.289062 4.980469 18.347656 4.996094 18.410156 C 5.207031 19.3125 5.472656 20.171875 5.792969 21.011719 L 5.886719 21.257812 C 5.953125 21.449219 6.023438 21.617188 6.105469 21.785156 C 6.121094 21.828125 6.152344 21.875 6.175781 21.914062 C 6.59375 22.507812 7.246094 22.898438 7.96875 22.957031 L 7.96875 21.667969 L 7.4375 21.675781 C 7.332031 21.410156 7.109375 21.203125 6.84375 21.121094 C 6.820312 21.113281 6.804688 21.105469 6.789062 21.097656 C 6.730469 21.050781 6.691406 20.980469 6.675781 20.914062 L 6.675781 20.90625 C 6.609375 20.316406 6.507812 19.691406 6.378906 19.066406 L 6.355469 18.976562 C 6.332031 18.84375 6.417969 18.722656 6.546875 18.699219 C 6.921875 18.652344 7.269531 18.585938 7.628906 18.492188 C 8.113281 18.480469 8.601562 18.386719 9.074219 18.226562 C 9.226562 18.179688 9.371094 18.121094 9.515625 18.058594 C 9.621094 18.011719 9.722656 17.953125 9.828125 17.882812 C 9.941406 17.988281 10.070312 18.074219 10.199219 18.152344 C 10.207031 18.15625 10.222656 18.164062 10.238281 18.179688 C 10.34375 18.296875 10.4375 18.425781 10.503906 18.570312 L 10.503906 18.5625 C 10.648438 18.851562 10.792969 19.121094 10.945312 19.378906 L 10.945312 19.371094 C 11.699219 20.554688 12.316406 21.8125 12.78125 23.125 C 12.820312 23.203125 12.835938 23.292969 12.835938 23.378906 C 12.835938 23.507812 12.796875 23.636719 12.726562 23.746094 C 12.71875 23.761719 12.714844 23.769531 12.707031 23.777344 C 12.371094 24.140625 12.113281 24.578125 11.953125 25.042969 L 13.375 25.058594 L 13.398438 24.796875 C 13.398438 24.761719 13.40625 24.730469 13.40625 24.691406 C 13.40625 24.476562 13.480469 24.273438 13.617188 24.105469 C 13.648438 24.066406 13.6875 24.035156 13.726562 24.011719 C 13.878906 23.914062 13.960938 23.738281 13.960938 23.554688 C 13.960938 23.484375 13.953125 23.417969 13.921875 23.355469 C 13.921875 23.347656 13.921875 23.339844 13.914062 23.339844 C 13.808594 23.125 13.703125 22.90625 13.589844 22.667969 L 13.589844 22.660156 C 13.429688 22.316406 13.320312 21.9375 13.277344 21.546875 C 13.269531 21.507812 13.261719 21.476562 13.261719 21.441406 C 13.199219 21.148438 13.125 20.859375 13.039062 20.570312 C 12.996094 20.378906 12.933594 20.164062 12.871094 19.953125 C 12.789062 19.578125 12.714844 19.210938 12.644531 18.84375 C 12.589844 18.492188 12.53125 18.164062 12.460938 17.84375 C 13.101562 17.945312 13.742188 17.988281 14.378906 17.988281 C 15.117188 17.988281 15.847656 17.929688 16.574219 17.792969 C 16.808594 17.753906 17.035156 17.707031 17.273438 17.652344 C 17.402344 18.273438 17.515625 18.730469 17.636719 19.1875 L 17.621094 19.136719 C 17.746094 19.570312 17.882812 19.980469 18.050781 20.386719 C 18.078125 20.441406 18.085938 20.515625 18.085938 20.585938 C 18.085938 20.652344 18.078125 20.722656 18.050781 20.792969 C 17.925781 21.097656 17.773438 21.402344 17.601562 21.683594 C 17.339844 22.066406 17.066406 22.449219 16.769531 22.820312 C 16.503906 23.140625 16.277344 23.46875 16.070312 23.828125 C 16.0625 23.84375 16.054688 23.851562 16.046875 23.859375 C 15.757812 24.21875 15.515625 24.621094 15.332031 25.058594 L 16.832031 25.082031 L 16.875 24.53125 L 16.890625 24.394531 C 16.898438 24.378906 16.898438 24.371094 16.90625 24.363281 C 16.921875 24.347656 16.9375 24.332031 16.953125 24.324219 L 16.976562 24.324219 L 16.984375 24.316406 C 17.015625 24.308594 17.042969 24.292969 17.074219 24.277344 C 17.1875 24.195312 17.28125 24.089844 17.324219 23.949219 C 17.339844 23.914062 17.347656 23.890625 17.355469 23.867188 C 17.523438 23.460938 17.738281 23.074219 17.988281 22.707031 C 18.453125 22.066406 19.015625 21.507812 19.648438 21.042969 L 19.65625 21.035156 C 19.777344 20.953125 19.851562 20.804688 19.851562 20.652344 C 19.851562 20.625 19.851562 20.601562 19.84375 20.570312 C 19.808594 20.347656 19.761719 20.097656 19.714844 19.84375 L 19.707031 19.828125 C 19.691406 19.738281 19.679688 19.644531 19.664062 19.546875 C 19.609375 18.882812 19.90625 18.25 20.445312 17.859375 C 20.621094 18.121094 20.8125 18.347656 21.027344 18.570312 L 21.019531 18.570312 C 21.175781 18.730469 21.34375 18.882812 21.527344 19.027344 C 21.824219 19.234375 22.097656 19.449219 22.371094 19.675781 C 22.5625 19.84375 22.753906 20.019531 22.9375 20.203125 C 23.050781 20.308594 23.148438 20.417969 23.242188 20.515625 L 23.253906 20.53125 C 23.378906 20.691406 23.484375 20.867188 23.558594 21.042969 L 23.589844 21.113281 C 23.660156 21.25 23.710938 21.378906 23.765625 21.507812 C 23.84375 21.738281 23.910156 21.964844 23.980469 22.1875 L 24.039062 22.394531 C 24.152344 22.738281 24.253906 23.089844 24.34375 23.441406 C 24.351562 23.46875 24.359375 23.53125 24.359375 23.601562 C 24.359375 23.753906 24.320312 23.898438 24.238281 24.027344 C 24 24.332031 23.8125 24.675781 23.683594 25.042969 L 25.082031 25.058594 L 25.089844 24.433594 L 25.089844 24.402344 C 25.089844 24.363281 25.105469 24.316406 25.144531 24.292969 C 25.242188 24.242188 25.328125 24.164062 25.394531 24.082031 L 25.394531 24.074219 C 25.441406 24.003906 25.464844 23.921875 25.464844 23.835938 C 25.464844 23.789062 25.457031 23.746094 25.449219 23.691406 C 25.257812 23.082031 25.035156 22.347656 24.832031 21.601562 L 24.800781 21.5 L 24.601562 20.8125 L 24.59375 20.8125 C 24.496094 20.484375 24.464844 20.132812 24.511719 19.785156 C 24.511719 19.761719 24.519531 19.730469 24.519531 19.699219 C 24.519531 19.5625 24.472656 19.441406 24.382812 19.332031 C 24.214844 19.128906 24.039062 18.90625 23.871094 18.683594 C 23.84375 18.644531 23.835938 18.632812 23.828125 18.625 C 23.515625 18.171875 23.308594 17.648438 23.234375 17.105469 C 23.195312 16.730469 23.179688 16.347656 23.203125 15.96875 C 23.210938 15.824219 23.210938 15.675781 23.210938 15.539062 C 23.210938 15.167969 23.179688 14.800781 23.125 14.433594 C 23.105469 14.335938 23.082031 14.234375 23.058594 14.144531 C 22.875 13.539062 22.554688 13 22.136719 12.53125 C 22.433594 12.511719 22.730469 12.585938 22.988281 12.746094 C 23.027344 12.769531 23.058594 12.792969 23.089844 12.824219 C 23.171875 12.890625 23.242188 12.976562 23.292969 13.066406 C 23.546875 13.53125 23.710938 14.035156 23.796875 14.5625 C 23.933594 15.578125 24 16.578125 24 17.578125 L 24 17.890625 L 25.867188 17.867188 C 25.828125 16.929688 25.738281 15.984375 25.617188 15.035156 C 25.554688 14.304688 25.304688 13.617188 24.878906 13.035156 C 24.65625 12.707031 24.375 12.441406 24.023438 12.25 C 23.613281 12.042969 23.15625 11.9375 22.683594 11.9375 C 22.378906 11.9375 22.066406 11.992188 21.765625 12.082031 C 21.34375 11.945312 20.851562 11.800781 20.347656 11.65625 C 19.929688 11.527344 19.527344 11.472656 19.105469 11.472656 C 18.757812 11.472656 18.398438 11.511719 18.058594 11.601562 C 17.5625 11.707031 17.066406 11.792969 16.558594 11.855469 C 16.441406 11.378906 16.296875 10.808594 16.152344 10.25 C 16.078125 10.007812 16.03125 9.882812 15.980469 9.753906 C 15.878906 9.535156 15.8125 9.304688 15.773438 9.058594 C 15.742188 8.832031 15.710938 8.585938 15.695312 8.351562 C 15.660156 8.074219 15.589844 7.808594 15.507812 7.550781 C 15.390625 7.136719 15.242188 6.738281 15.050781 6.367188 C 14.882812 6.105469 14.828125 5.792969 14.898438 5.511719 C 15.003906 5.191406 15.058594 4.871094 15.066406 4.535156 C 15.058594 4.273438 15.003906 4.007812 14.898438 3.753906 C 14.84375 3.664062 14.785156 3.582031 14.707031 3.511719 C 14.515625 3.375 14.289062 3.304688 14.058594 3.304688 C 14 3.304688 13.9375 3.3125 13.878906 3.320312 C 13.71875 3.34375 13.558594 3.382812 13.40625 3.433594 C 13.140625 3.503906 12.957031 3.742188 12.957031 4.015625 L 12.957031 4.082031 C 12.957031 4.183594 12.972656 4.28125 13.003906 4.382812 C 13.011719 4.457031 13.015625 4.527344 13.03125 4.601562 C 13.003906 4.695312 12.988281 4.792969 12.988281 4.902344 C 12.988281 4.960938 12.996094 5.023438 13.003906 5.082031 C 13.015625 5.320312 13.078125 5.558594 13.183594 5.769531 C 13.238281 5.847656 13.320312 5.894531 13.414062 5.902344 C 13.488281 5.90625 13.566406 5.914062 13.640625 5.914062 L 13.710938 5.914062 C 13.71875 5.976562 13.726562 6.03125 13.726562 6.089844 C 13.726562 6.25 13.6875 6.417969 13.625 6.5625 C 13.285156 6.839844 13.046875 7.226562 12.964844 7.65625 C 12.820312 8.527344 12.691406 9.464844 12.605469 10.402344 C 12.140625 10.632812 11.699219 10.875 11.296875 11.160156 C 10.808594 10.746094 10.382812 10.265625 10.042969 9.738281 C 9.835938 9.433594 9.601562 9.160156 9.347656 8.914062 C 9.042969 8.648438 8.710938 8.425781 8.359375 8.234375 Z M 8.351562 8.226562"/></g></svg>