<svg xmlns="http://www.w3.org/2000/svg" width="30" viewBox="0 0 30 30" height="30" version="1.0"><defs><clipPath id="a"><path d="M 4.117188 7.007812 L 18 7.007812 L 18 21 L 4.117188 21 Z M 4.117188 7.007812"/></clipPath><clipPath id="b"><path d="M 10 16 L 25.890625 16 L 25.890625 22.25 L 10 22.25 Z M 10 16"/></clipPath><clipPath id="c"><path d="M 10 18 L 25.890625 18 L 25.890625 21 L 10 21 Z M 10 18"/></clipPath></defs><g clip-path="url(#a)"><path fill="#E84D88" d="M 15.335938 7.417969 C 14.929688 7 12.0625 8.960938 9.105469 11.964844 C 6.144531 14.96875 4.210938 17.871094 4.621094 18.289062 L 6.511719 20.207031 L 17.226562 9.332031 L 15.335938 7.417969"/></g><path fill="#C4456F" d="M 17.226562 9.332031 C 16.816406 8.917969 13.953125 10.878906 10.992188 13.882812 C 8.035156 16.882812 6.101562 19.789062 6.511719 20.207031 C 6.921875 20.621094 9.652344 18.523438 12.613281 15.523438 C 15.570312 12.519531 17.636719 9.75 17.226562 9.332031"/><path fill="#FFF" d="M 20.023438 11.816406 C 19.792969 11.570312 19.371094 11.707031 19.207031 12.003906 C 18.953125 12.46875 18.511719 13.042969 17.828125 13.289062 C 16.027344 13.929688 12.207031 13.324219 12.207031 14.953125 L 24.398438 14.953125 C 23.539062 12.792969 22.613281 14.605469 20.023438 11.816406"/><path fill="#C4456F" d="M 25 16.757812 L 11.480469 16.757812 L 11.480469 15.382812 C 11.480469 15.082031 11.71875 14.84375 12.011719 14.84375 L 24.46875 14.84375 C 24.761719 14.84375 25 15.082031 25 15.382812 L 25 16.757812"/><g clip-path="url(#b)"><path fill="#E84D88" d="M 25.003906 22.242188 L 11.476562 22.242188 C 11.027344 22.242188 10.664062 21.871094 10.664062 21.417969 L 10.664062 17.222656 C 10.664062 16.769531 11.027344 16.398438 11.476562 16.398438 L 25.003906 16.398438 C 25.453125 16.398438 25.816406 16.769531 25.816406 17.222656 L 25.816406 21.417969 C 25.816406 21.871094 25.453125 22.242188 25.003906 22.242188"/></g><g clip-path="url(#c)"><path fill="#FFF" d="M 25.816406 20.476562 L 10.664062 20.476562 L 10.664062 18.152344 L 25.816406 18.152344 L 25.816406 20.476562"/></g></svg>