<svg xmlns="http://www.w3.org/2000/svg" width="30" viewBox="0 0 30 30" height="30" version="1.0"><defs><clipPath id="a"><path d="M 4.929688 7.871094 L 25.253906 7.871094 L 25.253906 21.660156 L 4.929688 21.660156 Z M 4.929688 7.871094"/></clipPath></defs><g clip-path="url(#a)"><path fill="#C4456F" d="M 24.8125 14.679688 L 23.65625 13.171875 L 21.597656 9.011719 C 21.246094 8.308594 20.554688 7.871094 19.785156 7.871094 L 6.558594 7.871094 C 5.660156 7.871094 4.933594 8.621094 4.933594 9.542969 L 4.933594 18.316406 C 4.933594 19.242188 5.660156 19.988281 6.558594 19.988281 L 7.820312 19.988281 C 8.007812 20.941406 8.828125 21.660156 9.808594 21.660156 C 10.789062 21.660156 11.609375 20.941406 11.800781 19.988281 L 19.605469 19.988281 C 19.792969 20.941406 20.613281 21.660156 21.59375 21.660156 C 22.574219 21.660156 23.398438 20.941406 23.585938 19.988281 L 24.035156 19.988281 C 24.703125 19.988281 25.253906 19.425781 25.253906 18.734375 L 25.253906 15.972656 C 25.253906 15.503906 25.097656 15.042969 24.8125 14.679688 Z M 20.871094 9.390625 L 22.761719 13.207031 L 19.363281 12.933594 C 19.191406 12.917969 19.046875 12.792969 19.003906 12.621094 L 18.050781 8.707031 L 19.785156 8.707031 C 20.246094 8.707031 20.664062 8.96875 20.871094 9.390625 Z M 9.808594 20.824219 C 9.136719 20.824219 8.589844 20.261719 8.589844 19.570312 C 8.589844 18.882812 9.136719 18.316406 9.808594 18.316406 C 10.480469 18.316406 11.027344 18.882812 11.027344 19.570312 C 11.027344 20.261719 10.480469 20.824219 9.808594 20.824219 Z M 21.59375 20.824219 C 20.921875 20.824219 20.375 20.261719 20.375 19.570312 C 20.375 18.882812 20.921875 18.316406 21.59375 18.316406 C 22.265625 18.316406 22.8125 18.882812 22.8125 19.570312 C 22.8125 20.261719 22.265625 20.824219 21.59375 20.824219 Z M 21.59375 20.824219"/></g></svg>