<svg xmlns="http://www.w3.org/2000/svg" width="30" viewBox="0 0 30 30" height="30" version="1.0"><defs><clipPath id="a"><path d="M 6.257812 5 L 23.679688 5 L 23.679688 26.371094 L 6.257812 26.371094 Z M 6.257812 5"/></clipPath><clipPath id="b"><path d="M 9 2.417969 L 20 2.417969 L 20 8 L 9 8 Z M 9 2.417969"/></clipPath></defs><g clip-path="url(#a)"><path fill="#C4456F" d="M 22.339844 5.070312 L 20.667969 5.070312 L 20.667969 6.070312 L 22.339844 6.070312 C 22.433594 6.070312 22.511719 6.101562 22.578125 6.167969 C 22.644531 6.230469 22.675781 6.308594 22.675781 6.402344 L 22.675781 25.039062 C 22.675781 25.128906 22.644531 25.207031 22.578125 25.273438 C 22.511719 25.339844 22.433594 25.371094 22.339844 25.371094 L 7.601562 25.371094 C 7.507812 25.371094 7.429688 25.335938 7.363281 25.273438 C 7.300781 25.207031 7.265625 25.128906 7.265625 25.039062 L 7.265625 6.402344 C 7.265625 6.308594 7.300781 6.230469 7.363281 6.167969 C 7.429688 6.101562 7.507812 6.070312 7.601562 6.070312 L 9.277344 6.070312 L 9.277344 5.070312 L 7.601562 5.070312 C 7.421875 5.070312 7.253906 5.105469 7.089844 5.171875 C 6.925781 5.242188 6.78125 5.335938 6.652344 5.460938 C 6.527344 5.585938 6.429688 5.730469 6.363281 5.894531 C 6.296875 6.054688 6.261719 6.226562 6.261719 6.402344 L 6.261719 25.039062 C 6.261719 25.214844 6.296875 25.382812 6.363281 25.546875 C 6.429688 25.710938 6.527344 25.855469 6.652344 25.980469 C 6.78125 26.105469 6.925781 26.199219 7.089844 26.269531 C 7.253906 26.335938 7.421875 26.371094 7.601562 26.371094 L 22.339844 26.371094 C 22.519531 26.371094 22.691406 26.335938 22.855469 26.269531 C 23.019531 26.199219 23.164062 26.105469 23.289062 25.980469 C 23.414062 25.855469 23.511719 25.710938 23.578125 25.546875 C 23.648438 25.382812 23.679688 25.214844 23.679688 25.039062 L 23.679688 6.402344 C 23.679688 6.226562 23.648438 6.054688 23.578125 5.894531 C 23.511719 5.730469 23.414062 5.585938 23.289062 5.460938 C 23.164062 5.335938 23.019531 5.242188 22.855469 5.171875 C 22.691406 5.105469 22.519531 5.070312 22.339844 5.070312 Z M 22.339844 5.070312"/></g><g clip-path="url(#b)"><path fill="#C4456F" d="M 10.617188 7.066406 L 19.328125 7.066406 C 19.511719 7.066406 19.667969 7.003906 19.800781 6.871094 C 19.929688 6.742188 19.996094 6.585938 19.996094 6.402344 L 19.996094 4.738281 C 19.996094 4.554688 19.929688 4.398438 19.800781 4.269531 C 19.667969 4.136719 19.511719 4.074219 19.328125 4.074219 L 16.644531 4.074219 C 16.644531 3.851562 16.605469 3.640625 16.519531 3.4375 C 16.433594 3.230469 16.3125 3.050781 16.15625 2.894531 C 16 2.742188 15.816406 2.621094 15.613281 2.535156 C 15.40625 2.453125 15.195312 2.410156 14.972656 2.410156 C 14.75 2.410156 14.535156 2.453125 14.332031 2.535156 C 14.125 2.621094 13.945312 2.742188 13.785156 2.894531 C 13.628906 3.050781 13.507812 3.230469 13.425781 3.4375 C 13.339844 3.640625 13.296875 3.851562 13.296875 4.074219 L 10.617188 4.074219 C 10.429688 4.074219 10.273438 4.136719 10.140625 4.269531 C 10.011719 4.398438 9.945312 4.554688 9.945312 4.738281 L 9.945312 6.402344 C 9.945312 6.585938 10.011719 6.742188 10.140625 6.871094 C 10.273438 7.003906 10.429688 7.066406 10.617188 7.066406 Z M 10.617188 7.066406"/></g><path fill="#C4456F" d="M 7.9375 24.707031 L 22.007812 24.707031 L 22.007812 6.734375 L 20.617188 6.734375 C 20.542969 7.027344 20.382812 7.269531 20.144531 7.453125 C 19.902344 7.640625 19.632812 7.734375 19.328125 7.734375 L 10.617188 7.734375 C 10.3125 7.734375 10.039062 7.640625 9.796875 7.453125 C 9.558594 7.269531 9.398438 7.027344 9.324219 6.734375 L 7.9375 6.734375 Z M 15.640625 11.394531 L 17.984375 11.394531 C 18.082031 11.390625 18.164062 11.421875 18.230469 11.488281 C 18.300781 11.550781 18.335938 11.632812 18.335938 11.726562 C 18.335938 11.820312 18.300781 11.902344 18.230469 11.96875 C 18.164062 12.03125 18.082031 12.0625 17.984375 12.058594 L 15.640625 12.058594 C 15.550781 12.054688 15.476562 12.023438 15.414062 11.957031 C 15.351562 11.894531 15.320312 11.816406 15.320312 11.726562 C 15.320312 11.636719 15.351562 11.558594 15.414062 11.496094 C 15.476562 11.429688 15.550781 11.398438 15.640625 11.394531 Z M 15.640625 13.058594 L 20.332031 13.058594 C 20.425781 13.054688 20.507812 13.085938 20.578125 13.152344 C 20.644531 13.214844 20.679688 13.296875 20.679688 13.390625 C 20.679688 13.484375 20.644531 13.566406 20.578125 13.628906 C 20.507812 13.695312 20.425781 13.726562 20.332031 13.722656 L 15.640625 13.722656 C 15.550781 13.71875 15.476562 13.6875 15.414062 13.621094 C 15.351562 13.558594 15.320312 13.480469 15.320312 13.390625 C 15.320312 13.300781 15.351562 13.222656 15.414062 13.160156 C 15.476562 13.09375 15.550781 13.0625 15.640625 13.058594 Z M 15.640625 17.714844 L 17.984375 17.714844 C 18.082031 17.714844 18.164062 17.746094 18.230469 17.808594 C 18.300781 17.875 18.335938 17.957031 18.335938 18.050781 C 18.335938 18.144531 18.300781 18.222656 18.230469 18.289062 C 18.164062 18.355469 18.082031 18.386719 17.984375 18.382812 L 15.640625 18.382812 C 15.550781 18.378906 15.476562 18.34375 15.414062 18.28125 C 15.351562 18.214844 15.320312 18.140625 15.320312 18.050781 C 15.320312 17.960938 15.351562 17.882812 15.414062 17.820312 C 15.476562 17.753906 15.550781 17.71875 15.640625 17.714844 Z M 15.640625 19.382812 L 20.332031 19.382812 C 20.425781 19.378906 20.507812 19.410156 20.578125 19.472656 C 20.644531 19.539062 20.679688 19.621094 20.679688 19.714844 C 20.679688 19.808594 20.644531 19.886719 20.578125 19.953125 C 20.507812 20.019531 20.425781 20.050781 20.332031 20.046875 L 15.640625 20.046875 C 15.550781 20.042969 15.476562 20.007812 15.414062 19.945312 C 15.351562 19.878906 15.320312 19.804688 15.320312 19.714844 C 15.320312 19.625 15.351562 19.546875 15.414062 19.484375 C 15.476562 19.417969 15.550781 19.382812 15.640625 19.382812 Z M 9.953125 11.019531 C 10.066406 10.910156 10.191406 10.824219 10.335938 10.765625 C 10.480469 10.707031 10.628906 10.675781 10.785156 10.675781 C 10.941406 10.675781 11.09375 10.707031 11.238281 10.765625 C 11.382812 10.824219 11.507812 10.910156 11.621094 11.019531 C 11.730469 10.914062 11.859375 10.832031 12.003906 10.773438 C 12.144531 10.714844 12.296875 10.6875 12.449219 10.691406 C 12.605469 10.691406 12.753906 10.722656 12.898438 10.78125 C 13.039062 10.839844 13.164062 10.925781 13.273438 11.035156 C 13.382812 11.144531 13.46875 11.269531 13.527344 11.410156 C 13.589844 11.550781 13.617188 11.699219 13.621094 11.855469 C 13.621094 12.007812 13.589844 12.15625 13.535156 12.300781 C 13.476562 12.441406 13.390625 12.566406 13.285156 12.679688 L 11.621094 14.335938 L 9.953125 12.679688 C 9.84375 12.566406 9.757812 12.441406 9.699219 12.296875 C 9.640625 12.152344 9.609375 12.003906 9.609375 11.847656 C 9.609375 11.695312 9.640625 11.542969 9.699219 11.402344 C 9.757812 11.257812 9.84375 11.128906 9.953125 11.019531 Z M 9.953125 17.34375 C 10.066406 17.234375 10.191406 17.148438 10.335938 17.089844 C 10.480469 17.027344 10.628906 17 10.785156 17 C 10.941406 17 11.09375 17.027344 11.238281 17.089844 C 11.382812 17.148438 11.507812 17.234375 11.621094 17.34375 C 11.730469 17.234375 11.859375 17.152344 12.003906 17.097656 C 12.144531 17.039062 12.296875 17.011719 12.449219 17.011719 C 12.605469 17.011719 12.753906 17.042969 12.898438 17.101562 C 13.039062 17.164062 13.164062 17.246094 13.273438 17.355469 C 13.382812 17.464844 13.46875 17.589844 13.527344 17.734375 C 13.589844 17.875 13.617188 18.023438 13.621094 18.175781 C 13.621094 18.332031 13.589844 18.480469 13.535156 18.621094 C 13.476562 18.765625 13.390625 18.890625 13.285156 19 L 11.621094 20.660156 L 9.953125 19 C 9.84375 18.890625 9.757812 18.765625 9.699219 18.621094 C 9.640625 18.476562 9.609375 18.328125 9.609375 18.171875 C 9.609375 18.015625 9.640625 17.867188 9.699219 17.722656 C 9.757812 17.578125 9.84375 17.453125 9.953125 17.34375 Z M 9.953125 17.34375"/></svg>