<svg xmlns="http://www.w3.org/2000/svg" width="30" viewBox="0 0 30 30" height="30" version="1.0"><defs><clipPath id="a"><path d="M 10.820312 2.902344 L 19.527344 2.902344 L 19.527344 26.128906 L 10.820312 26.128906 Z M 10.820312 2.902344"/></clipPath></defs><g clip-path="url(#a)"><path fill="#C4456F" d="M 19.40625 15.84375 C 19.328125 15.199219 19.199219 14.515625 18.871094 13.941406 C 18.464844 13.238281 18.089844 12.667969 17.996094 11.847656 C 17.914062 11.121094 17.996094 10.375 18.121094 9.671875 C 18.277344 8.777344 18.699219 7.960938 18.992188 7.101562 C 19.109375 6.757812 19.121094 6.34375 19.050781 5.792969 C 18.972656 5.210938 18.058594 4.949219 17.582031 4.816406 C 16.691406 4.644531 16.109375 3.542969 16.023438 3.164062 C 16.003906 3.011719 15.644531 2.898438 15.175781 2.898438 C 14.703125 2.898438 14.375 3 14.324219 3.164062 C 14.238281 3.542969 13.78125 4.578125 12.765625 4.816406 C 12.289062 4.949219 11.378906 5.210938 11.296875 5.792969 C 11.226562 6.34375 11.238281 6.757812 11.355469 7.101562 C 11.648438 7.960938 12.070312 8.777344 12.230469 9.671875 C 12.351562 10.375 12.433594 11.121094 12.351562 11.847656 C 12.257812 12.667969 11.882812 13.238281 11.480469 13.941406 C 11.148438 14.515625 11.023438 15.199219 10.941406 15.84375 C 10.878906 16.335938 10.855469 16.828125 10.875 17.324219 C 10.882812 17.546875 10.859375 17.859375 10.964844 18.070312 C 11.152344 18.457031 12.300781 18.417969 12.695312 18.433594 C 13.378906 18.457031 14.0625 18.464844 14.742188 18.457031 L 14.742188 24.355469 C 12.980469 24.410156 11.609375 24.785156 11.609375 25.242188 C 11.609375 25.734375 13.207031 26.132812 15.175781 26.132812 C 17.140625 26.132812 18.738281 25.734375 18.738281 25.242188 C 18.738281 24.785156 17.367188 24.410156 15.605469 24.355469 L 15.605469 18.457031 C 16.285156 18.464844 16.96875 18.457031 17.652344 18.433594 C 18.046875 18.417969 19.195312 18.457031 19.386719 18.070312 C 19.488281 17.859375 19.464844 17.546875 19.476562 17.324219 C 19.492188 16.828125 19.46875 16.335938 19.40625 15.84375"/></g></svg>