<svg xmlns="http://www.w3.org/2000/svg" width="30" viewBox="0 0 30 30" height="30" version="1.0"><defs><clipPath id="a"><path d="M 4.839844 10.929688 L 26.078125 10.929688 L 26.078125 16.878906 L 4.839844 16.878906 Z M 4.839844 10.929688"/></clipPath><clipPath id="b"><path d="M 10.175781 17.910156 L 11.3125 17.910156 L 11.3125 18.1875 L 10.175781 18.1875 Z M 10.175781 17.910156"/></clipPath><clipPath id="c"><path d="M 11.546875 17.910156 L 12.679688 17.910156 L 12.679688 18.1875 L 11.546875 18.1875 Z M 11.546875 17.910156"/></clipPath><clipPath id="d"><path d="M 12.917969 17.910156 L 14.050781 17.910156 L 14.050781 18.1875 L 12.917969 18.1875 Z M 12.917969 17.910156"/></clipPath><clipPath id="e"><path d="M 4.335938 14 L 22 14 L 22 18 L 4.335938 18 Z M 4.335938 14"/></clipPath><clipPath id="f"><path d="M 4.335938 14 L 5 14 L 5 16 L 4.335938 16 Z M 4.335938 14"/></clipPath></defs><g clip-path="url(#a)"><path fill="#C4456F" d="M 7.273438 16.410156 L 7.273438 16.871094 C 7.273438 16.871094 4.585938 16.953125 4.886719 14.90625 C 5.183594 12.859375 7.039062 13.21875 7.039062 13.21875 C 7.039062 13.21875 21.824219 13.351562 23.382812 12.332031 C 23.511719 12.25 23.652344 12.042969 24 11.703125 C 24.625 11.082031 24.878906 10.894531 25.164062 10.933594 C 25.28125 10.949219 25.394531 11 25.488281 11.078125 C 25.746094 11.28125 25.859375 11.621094 25.933594 11.941406 C 26.171875 13.03125 26.113281 14.164062 25.753906 15.222656 C 25.640625 15.5625 25.394531 15.949219 25.039062 15.910156 C 24.707031 15.871094 24.550781 15.492188 24.449219 15.175781 C 24.027344 13.855469 21.484375 13.832031 20.335938 13.832031 L 18.246094 13.832031 C 17.410156 13.828125 16.578125 13.828125 15.742188 13.824219 C 13.78125 13.816406 11.820312 13.820312 9.855469 13.828125 C 8.863281 13.828125 7.871094 13.832031 6.878906 13.835938 C 6.257812 13.839844 5.335938 13.957031 5.316406 14.757812 C 5.292969 15.792969 5.226562 16.460938 7.273438 16.410156"/></g><path fill="#C4456F" d="M 18.066406 16.871094 L 8.132812 16.871094 C 7.96875 16.871094 7.835938 16.738281 7.835938 16.574219 C 7.835938 16.410156 7.96875 16.277344 8.132812 16.277344 L 18.066406 16.277344 C 18.230469 16.277344 18.363281 16.410156 18.363281 16.574219 C 18.363281 16.738281 18.230469 16.871094 18.066406 16.871094 Z M 18.191406 15.808594 L 8.007812 15.808594 C 7.679688 15.8125 7.414062 16.074219 7.410156 16.402344 L 7.410156 16.746094 C 7.414062 17.074219 7.679688 17.339844 8.007812 17.339844 L 18.191406 17.339844 C 18.519531 17.339844 18.785156 17.074219 18.785156 16.746094 L 18.785156 16.402344 C 18.785156 16.074219 18.519531 15.8125 18.191406 15.808594"/><path fill="#C4456F" d="M 10.363281 17.921875 L 11.160156 17.921875 L 11.160156 12.867188 L 10.363281 12.867188 Z M 10.363281 17.921875"/><g clip-path="url(#b)"><path fill="#C4456F" d="M 10.214844 17.921875 L 11.308594 17.921875 L 11.308594 18.1875 L 10.214844 18.1875 L 10.214844 17.921875"/></g><path fill="#C4456F" d="M 10.214844 12.734375 L 11.308594 12.734375 L 11.308594 13 L 10.214844 13 L 10.214844 12.734375"/><path fill="#C4456F" d="M 11.730469 17.921875 L 12.527344 17.921875 L 12.527344 12.867188 L 11.730469 12.867188 Z M 11.730469 17.921875"/><g clip-path="url(#c)"><path fill="#C4456F" d="M 11.582031 17.921875 L 12.675781 17.921875 L 12.675781 18.1875 L 11.582031 18.1875 L 11.582031 17.921875"/></g><path fill="#C4456F" d="M 11.582031 12.734375 L 12.675781 12.734375 L 12.675781 13 L 11.582031 13 L 11.582031 12.734375"/><path fill="#C4456F" d="M 13.097656 17.921875 L 13.894531 17.921875 L 13.894531 12.867188 L 13.097656 12.867188 Z M 13.097656 17.921875"/><g clip-path="url(#d)"><path fill="#C4456F" d="M 12.949219 17.921875 L 14.042969 17.921875 L 14.042969 18.1875 L 12.949219 18.1875 L 12.949219 17.921875"/></g><path fill="#C4456F" d="M 12.949219 12.734375 L 14.042969 12.734375 L 14.042969 13 L 12.949219 13 L 12.949219 12.734375"/><g clip-path="url(#e)"><path fill="#C4456F" d="M 19.367188 14.230469 L 4.679688 14.230469 L 4.679688 14.910156 L 19.050781 14.910156 C 19.742188 14.910156 20.300781 15.328125 20.300781 15.84375 C 20.300781 16.359375 19.742188 16.78125 19.050781 16.78125 L 8.957031 16.78125 L 8.957031 17.460938 L 19.367188 17.460938 C 20.5625 17.460938 21.53125 16.738281 21.53125 15.84375 C 21.53125 14.953125 20.5625 14.230469 19.367188 14.230469"/></g><g clip-path="url(#f)"><path fill="#C4456F" d="M 4.367188 14.019531 L 4.679688 14.019531 L 4.679688 15.152344 L 4.367188 15.152344 L 4.367188 14.019531"/></g><path fill="#C4456F" d="M 25.035156 11.539062 C 25.035156 11.539062 25.980469 11.960938 25.320312 14.863281"/><path fill="#C4456F" d="M 17.621094 13.203125 C 17.621094 13.203125 21.304688 13.132812 22.4375 13.410156"/><path fill="#C4456F" d="M 5.71875 13.832031 C 5.71875 13.832031 5.082031 13.273438 10.761719 13.410156"/><path fill="#C4456F" d="M 16.394531 14.675781 L 6.523438 14.675781 L 5.699219 14.398438 L 16.394531 14.675781"/><path fill="#C4456F" d="M 20.03125 14.585938 C 20.03125 14.585938 22.296875 15.191406 20.738281 16.574219"/></svg>