<svg xmlns="http://www.w3.org/2000/svg" width="30" viewBox="0 0 30 30" height="30" version="1.0"><defs><clipPath id="a"><path d="M 17 6.164062 L 21 6.164062 L 21 10 L 17 10 Z M 17 6.164062"/></clipPath><clipPath id="b"><path d="M 15 6.164062 L 23 6.164062 L 23 11 L 15 11 Z M 15 6.164062"/></clipPath><clipPath id="c"><path d="M 17 6.164062 L 21 6.164062 L 21 10 L 17 10 Z M 17 6.164062"/></clipPath><clipPath id="d"><path d="M 4.476562 13 L 25.523438 13 L 25.523438 22.855469 L 4.476562 22.855469 Z M 4.476562 13"/></clipPath></defs><path fill="#C4456F" d="M 8.140625 11.878906 L 8.027344 11.878906 L 8.027344 11.585938 L 8.140625 11.585938 Z M 8.195312 11.480469 L 8.027344 11.480469 L 8.027344 11.242188 C 8.027344 11.21875 7.851562 11.195312 7.632812 11.195312 C 7.417969 11.195312 7.242188 11.21875 7.242188 11.242188 L 7.242188 12.121094 C 7.246094 12.195312 7.3125 12.257812 7.394531 12.257812 L 7.886719 12.257812 C 7.964844 12.25 8.023438 12.191406 8.027344 12.121094 L 8.027344 11.984375 L 8.195312 11.984375 C 8.222656 11.984375 8.246094 11.960938 8.246094 11.933594 C 8.246094 11.933594 8.246094 11.929688 8.246094 11.929688 L 8.246094 11.53125 C 8.246094 11.503906 8.222656 11.480469 8.195312 11.480469"/><path fill="#C4456F" d="M 10.671875 10.078125 C 10.671875 10.003906 10.496094 9.945312 10.285156 9.945312 C 10.070312 9.945312 9.898438 10.003906 9.898438 10.078125 C 9.898438 10.082031 9.898438 10.085938 9.898438 10.085938 L 10.074219 11.914062 C 10.066406 12.039062 10.007812 12.0625 10.007812 12.0625 C 9.964844 12.082031 9.9375 12.109375 9.9375 12.136719 C 9.9375 12.203125 10.09375 12.257812 10.285156 12.257812 C 10.476562 12.257812 10.632812 12.203125 10.632812 12.136719 C 10.632812 12.109375 10.605469 12.082031 10.5625 12.0625 C 10.5625 12.0625 10.503906 12.039062 10.496094 11.914062 L 10.671875 10.078125"/><path fill="#C4456F" d="M 8.640625 10.054688 C 8.429688 10.054688 8.199219 10.117188 8.199219 10.191406 C 8.199219 10.191406 8.21875 10.550781 8.265625 10.949219 C 8.3125 11.320312 8.386719 11.726562 8.332031 11.894531 C 8.277344 12.074219 8.292969 12.136719 8.292969 12.136719 C 8.292969 12.203125 8.449219 12.257812 8.640625 12.257812 C 8.835938 12.257812 8.992188 12.203125 8.992188 12.136719 C 8.992188 12.136719 9.015625 12.109375 8.953125 11.890625 C 8.910156 11.742188 8.980469 11.34375 9.023438 10.972656 C 9.066406 10.566406 9.085938 10.191406 9.085938 10.191406 L 9.082031 10.191406 C 9.082031 10.117188 8.855469 10.054688 8.640625 10.054688"/><path fill="#C4456F" d="M 7.167969 11.355469 C 7.167969 11.355469 7.15625 11.078125 7.042969 10.789062 C 7 10.6875 6.976562 10.601562 6.964844 10.53125 C 6.960938 10.519531 6.9375 10.175781 6.9375 10.160156 C 6.9375 10.144531 6.941406 10.128906 6.941406 10.128906 C 6.941406 10.128906 6.945312 10.121094 6.945312 10.109375 C 6.945312 10.097656 6.945312 10.066406 6.945312 10.066406 C 6.945312 10.066406 6.9375 10.03125 6.9375 10.019531 C 6.933594 10.007812 6.9375 9.996094 6.914062 9.992188 C 6.890625 9.988281 6.769531 9.984375 6.734375 9.988281 C 6.699219 9.996094 6.707031 10.015625 6.707031 10.019531 C 6.707031 10.023438 6.703125 10.046875 6.699219 10.058594 C 6.695312 10.070312 6.691406 10.125 6.699219 10.128906 C 6.707031 10.136719 6.703125 10.164062 6.703125 10.164062 L 6.675781 10.519531 C 6.664062 10.601562 6.644531 10.695312 6.617188 10.761719 L 6.597656 10.8125 C 6.597656 10.8125 6.46875 11.082031 6.480469 11.339844 C 6.492188 11.582031 6.480469 12.03125 6.480469 12.03125 C 6.480469 12.03125 6.46875 12.207031 6.535156 12.230469 C 6.574219 12.246094 6.6875 12.257812 6.824219 12.257812 C 6.96875 12.257812 7.09375 12.246094 7.121094 12.226562 C 7.148438 12.214844 7.183594 12.171875 7.175781 12.03125 L 7.167969 11.355469"/><path fill="#C4456F" d="M 9.871094 11.382812 C 9.871094 11.308594 9.847656 11.238281 9.8125 11.179688 C 9.8125 11.179688 9.730469 11 9.714844 10.828125 C 9.714844 10.828125 9.714844 10.828125 9.714844 10.824219 C 9.714844 10.828125 9.714844 10.828125 9.710938 10.828125 C 9.714844 10.828125 9.714844 10.828125 9.714844 10.824219 C 9.714844 10.804688 9.609375 10.785156 9.476562 10.785156 C 9.347656 10.785156 9.242188 10.804688 9.242188 10.824219 C 9.242188 10.828125 9.242188 10.828125 9.242188 10.828125 C 9.242188 10.828125 9.199219 11.078125 9.132812 11.191406 C 9.101562 11.25 9.085938 11.3125 9.085938 11.382812 C 9.085938 11.527344 9.160156 11.652344 9.273438 11.71875 C 9.308594 11.75 9.335938 11.785156 9.359375 11.824219 C 9.363281 11.863281 9.359375 11.886719 9.355469 11.90625 C 9.355469 11.90625 9.351562 11.90625 9.351562 11.90625 C 9.324219 11.914062 9.277344 11.980469 9.257812 12.007812 C 9.152344 12.03125 9.085938 12.074219 9.085938 12.121094 C 9.085938 12.195312 9.261719 12.257812 9.476562 12.257812 C 9.695312 12.257812 9.871094 12.195312 9.871094 12.121094 C 9.871094 12.074219 9.800781 12.03125 9.695312 12.007812 C 9.695312 12.003906 9.695312 12.003906 9.695312 12.003906 C 9.671875 11.984375 9.640625 11.925781 9.59375 11.90625 C 9.589844 11.878906 9.59375 11.847656 9.601562 11.820312 C 9.625 11.785156 9.660156 11.746094 9.703125 11.710938 C 9.703125 11.710938 9.699219 11.710938 9.699219 11.707031 C 9.800781 11.636719 9.871094 11.519531 9.871094 11.382812"/><path fill="#C4456F" d="M 12.230469 10.84375 C 12.230469 10.84375 12.210938 10.371094 12.011719 9.878906 C 11.945312 9.710938 11.90625 9.566406 11.882812 9.449219 C 11.878906 9.421875 11.839844 8.84375 11.839844 8.816406 C 11.839844 8.789062 11.847656 8.765625 11.847656 8.765625 C 11.847656 8.765625 11.855469 8.753906 11.855469 8.730469 C 11.855469 8.710938 11.855469 8.660156 11.855469 8.660156 C 11.855469 8.660156 11.835938 8.601562 11.835938 8.578125 C 11.832031 8.558594 11.839844 8.539062 11.800781 8.53125 C 11.761719 8.523438 11.554688 8.519531 11.496094 8.527344 C 11.4375 8.539062 11.445312 8.570312 11.445312 8.578125 C 11.445312 8.589844 11.4375 8.628906 11.429688 8.644531 C 11.425781 8.660156 11.421875 8.753906 11.429688 8.765625 C 11.445312 8.777344 11.4375 8.824219 11.4375 8.824219 L 11.398438 9.429688 C 11.375 9.5625 11.34375 9.722656 11.296875 9.835938 L 11.265625 9.921875 C 11.265625 9.921875 11.046875 10.378906 11.0625 10.816406 C 11.078125 11.226562 11.0625 11.988281 11.0625 11.988281 C 11.0625 11.988281 11.042969 12.289062 11.15625 12.328125 C 11.21875 12.351562 11.414062 12.371094 11.644531 12.371094 C 11.894531 12.371094 12.101562 12.351562 12.148438 12.320312 C 12.191406 12.300781 12.257812 12.226562 12.242188 11.988281 L 12.230469 10.84375"/><path fill="#C4456F" d="M 13.484375 10.84375 C 13.484375 10.84375 13.464844 10.371094 13.269531 9.878906 C 13.199219 9.710938 13.160156 9.566406 13.136719 9.449219 C 13.136719 9.421875 13.097656 8.84375 13.097656 8.816406 C 13.097656 8.789062 13.101562 8.765625 13.101562 8.765625 C 13.101562 8.765625 13.109375 8.753906 13.109375 8.730469 C 13.109375 8.710938 13.109375 8.660156 13.109375 8.660156 C 13.109375 8.660156 13.09375 8.601562 13.089844 8.578125 C 13.089844 8.558594 13.09375 8.539062 13.054688 8.53125 C 13.015625 8.523438 12.8125 8.519531 12.75 8.527344 C 12.691406 8.539062 12.699219 8.570312 12.699219 8.578125 C 12.699219 8.589844 12.691406 8.628906 12.6875 8.644531 C 12.679688 8.660156 12.675781 8.753906 12.6875 8.765625 C 12.699219 8.777344 12.695312 8.824219 12.695312 8.824219 L 12.652344 9.429688 C 12.632812 9.5625 12.597656 9.722656 12.550781 9.835938 L 12.519531 9.921875 C 12.519531 9.921875 12.300781 10.378906 12.320312 10.816406 C 12.335938 11.226562 12.320312 11.988281 12.320312 11.988281 C 12.320312 11.988281 12.296875 12.289062 12.410156 12.328125 C 12.472656 12.351562 12.667969 12.371094 12.902344 12.371094 C 13.148438 12.371094 13.355469 12.351562 13.402344 12.320312 C 13.449219 12.300781 13.511719 12.226562 13.496094 11.988281 L 13.484375 10.84375"/><g clip-path="url(#a)"><path fill="#C4456F" d="M 20.261719 7.675781 C 20.261719 8.480469 19.613281 9.128906 18.808594 9.128906 C 18.003906 9.128906 17.355469 8.480469 17.355469 7.675781 C 17.355469 6.875 18.003906 6.222656 18.808594 6.222656 C 19.613281 6.222656 20.261719 6.875 20.261719 7.675781"/></g><g clip-path="url(#b)"><path transform="matrix(.00619 0 0 -.00618 1.84 27.685)" fill="none" d="M 2975.901733 3236.325048 C 2975.901733 3106.175593 2871.15169 3001.297878 2741.160674 3001.297878 C 2611.169658 3001.297878 2506.419616 3106.175593 2506.419616 3236.325048 C 2506.419616 3365.842709 2611.169658 3471.352218 2741.160674 3471.352218 C 2871.15169 3471.352218 2975.901733 3365.842709 2975.901733 3236.325048 Z M 2975.901733 3236.325048" stroke="#FFF" stroke-width="20" stroke-miterlimit="10"/></g><g clip-path="url(#c)" fill="#C4456F"><path d="M 20.261719 7.675781 C 20.261719 8.480469 19.613281 9.128906 18.808594 9.128906 C 18.003906 9.128906 17.355469 8.480469 17.355469 7.675781 C 17.355469 6.875 18.003906 6.222656 18.808594 6.222656 C 19.613281 6.222656 20.261719 6.875 20.261719 7.675781"/><path d="M 20.261719 7.675781 C 20.261719 8.480469 19.613281 9.128906 18.808594 9.128906 C 18.003906 9.128906 17.355469 8.480469 17.355469 7.675781 C 17.355469 6.875 18.003906 6.222656 18.808594 6.222656 C 19.613281 6.222656 20.261719 6.875 20.261719 7.675781"/></g><path fill="#C4456F" d="M 20.351562 12.585938 L 20.351562 10.699219 C 20.351562 10.132812 19.886719 9.675781 19.3125 9.675781 L 18.289062 9.675781 C 17.714844 9.675781 17.25 10.132812 17.25 10.699219 L 17.25 12.585938 L 20.351562 12.585938"/><path fill="#C4456F" d="M 20.902344 12.585938 L 21.878906 12.585938 L 21.074219 10.597656 C 20.980469 10.367188 20.71875 10.253906 20.484375 10.347656 C 20.253906 10.441406 20.140625 10.703125 20.234375 10.933594 L 20.902344 12.585938"/><path fill="#C4456F" d="M 19.320312 9.675781 L 19.890625 9.675781 C 19.890625 9.675781 20.832031 9.605469 21.164062 10.820312 L 20.742188 10.847656 L 20.445312 11.378906 L 19.996094 11.378906 L 19.320312 9.675781"/><path fill="#C4456F" d="M 16.699219 12.585938 L 17.363281 10.933594 C 17.457031 10.703125 17.347656 10.441406 17.113281 10.347656 C 16.882812 10.253906 16.621094 10.367188 16.527344 10.597656 L 15.722656 12.585938 L 16.699219 12.585938"/><path fill="#C4456F" d="M 18.277344 9.675781 L 17.710938 9.675781 C 17.710938 9.675781 16.769531 9.605469 16.433594 10.820312 L 16.859375 10.847656 L 17.15625 11.378906 L 17.605469 11.378906 L 18.277344 9.675781"/><path fill="#C4456F" d="M 18.390625 12.585938 L 19.226562 12.585938 L 19.070312 10.4375 C 19.351562 10.136719 19.332031 9.828125 19.332031 9.828125 C 19.332031 9.742188 19.265625 9.675781 19.179688 9.675781 L 18.4375 9.675781 C 18.351562 9.675781 18.285156 9.742188 18.285156 9.828125 C 18.285156 9.828125 18.308594 10.199219 18.542969 10.449219 L 18.390625 12.585938"/><g clip-path="url(#d)"><path fill="#C4456F" d="M 25.519531 13.015625 L 4.480469 13.015625 L 4.480469 22.859375 L 25.519531 22.859375 L 25.519531 13.015625"/></g></svg>