<svg xmlns="http://www.w3.org/2000/svg" width="30" viewBox="0 0 30 30" height="30" version="1.0"><defs><clipPath id="a"><path d="M 8 4 L 22.984375 4 L 22.984375 26.855469 L 8 26.855469 Z M 8 4"/></clipPath><clipPath id="b"><path d="M 8 3 L 22.984375 3 L 22.984375 23 L 8 23 Z M 8 3"/></clipPath><clipPath id="c"><path d="M 9 3 L 22.984375 3 L 22.984375 19 L 9 19 Z M 9 3"/></clipPath></defs><g clip-path="url(#a)"><path fill="#C4456F" d="M 19.792969 13.820312 C 20.070312 13.621094 20.570312 13.234375 21.019531 12.726562 C 21.90625 11.726562 22.167969 10.738281 21.769531 9.863281 C 21.292969 8.976562 20.5625 8.734375 20.03125 8.6875 C 19.105469 8.601562 18.191406 9.046875 17.820312 9.429688 L 17.804688 9.421875 C 17.664062 9.34375 17.53125 9.28125 17.398438 9.226562 C 17.476562 8.988281 17.625 8.46875 17.640625 7.882812 C 17.667969 6.816406 17.238281 6.050781 16.394531 5.664062 C 15.761719 5.414062 15.132812 5.441406 14.527344 5.742188 C 13.445312 6.289062 12.753906 7.558594 12.523438 8.347656 C 12.417969 8.3125 12.308594 8.277344 12.183594 8.25 L 12.167969 8.246094 C 12.105469 8.238281 12.042969 8.234375 11.984375 8.230469 C 12.417969 6.878906 13.367188 5.707031 14.445312 5.21875 C 15.195312 4.878906 15.957031 4.875 16.710938 5.21875 C 18.769531 6.164062 18.390625 7.855469 18.386719 7.871094 C 18.386719 7.871094 18.324219 7.992188 18.40625 8.0625 C 18.484375 8.128906 18.601562 8.054688 18.601562 8.054688 C 18.917969 7.9375 20.582031 7.4375 21.980469 9.003906 C 22.476562 9.554688 22.691406 10.179688 22.625 10.851562 C 22.46875 12.433594 20.816406 13.875 20.386719 14.226562 C 20.222656 14.09375 20.023438 13.945312 19.792969 13.820312 Z M 12.003906 24.449219 C 12.03125 24.351562 12.320312 22.070312 14.121094 19.800781 C 15.003906 18.660156 15.78125 18.433594 16.285156 18.917969 C 16.621094 19.304688 16.488281 19.921875 16.25 20.292969 C 15.738281 21.125 12.476562 23.265625 12.003906 24.449219 Z M 14.898438 18.328125 C 14.707031 18.722656 13.855469 19.511719 13.21875 20.390625 C 12.5 21.351562 11.675781 23.933594 11.625 23.9375 C 11.570312 23.945312 11.625 18.914062 12.792969 16.753906 C 13.246094 15.984375 14.175781 15.679688 14.703125 16.164062 C 15.332031 16.746094 15.226562 17.632812 14.898438 18.328125 Z M 11.867188 18.402344 C 11.011719 21.484375 11.257812 23.699219 11.277344 23.839844 C 11.285156 23.882812 9.550781 20.753906 9.300781 18.628906 C 9.050781 16.113281 10.34375 15.816406 10.839844 15.789062 C 11.191406 15.769531 12.566406 16.109375 11.867188 18.402344 Z M 11.882812 26.839844 C 12.089844 26.09375 12.109375 24.15625 16.257812 21.300781 C 16.679688 20.992188 18.449219 19.65625 17.542969 17.953125 C 17.132812 17.230469 16.292969 17.273438 15.949219 17.203125 C 15.878906 17.1875 15.84375 17.113281 15.878906 17.050781 C 16.605469 15.675781 16.132812 14.535156 15.410156 14.207031 C 13.796875 13.519531 13.054688 15.097656 12.722656 15.570312 C 12.660156 15.683594 12.5625 15.671875 12.527344 15.554688 C 12.390625 15.261719 11.433594 14.195312 10.441406 14.238281 C 9.488281 14.246094 7.746094 15.800781 8.417969 18.824219 C 9.882812 23.328125 11.789062 26.488281 11.882812 26.839844"/></g><g clip-path="url(#b)"><path fill="#C4456F" d="M 18.160156 18.757812 C 18.671875 18.617188 20.191406 17.949219 20.757812 16.863281 C 21.121094 16.160156 21 15.417969 20.390625 14.652344 C 20.007812 14.308594 19.582031 13.972656 19.058594 13.882812 C 18.820312 13.839844 18.613281 13.882812 18.378906 13.894531 C 18.328125 13.898438 18.277344 13.882812 18.242188 13.847656 C 18.199219 13.800781 18.199219 13.726562 18.222656 13.671875 C 18.332031 13.414062 18.503906 13.191406 18.605469 12.933594 C 18.699219 12.707031 18.761719 12.46875 18.800781 12.230469 C 18.871094 11.746094 18.824219 11.242188 18.613281 10.796875 C 18.417969 10.382812 18.050781 9.917969 17.640625 9.691406 C 17.410156 9.566406 17.167969 9.457031 16.917969 9.382812 C 16.207031 9.171875 15.476562 9.28125 14.878906 9.710938 C 14.441406 10.023438 14.082031 10.425781 13.820312 10.886719 C 13.765625 10.996094 13.652344 11.003906 13.625 10.992188 C 13.546875 10.953125 13.53125 10.835938 13.539062 10.765625 C 13.570312 10.535156 13.597656 10.300781 13.554688 10.070312 C 13.515625 9.828125 13.429688 9.59375 13.304688 9.382812 C 13.066406 8.992188 12.601562 8.609375 12.125 8.558594 C 10.464844 8.378906 9.609375 9.480469 9.179688 10.441406 C 8.84375 11.199219 8.65625 12.152344 8.664062 13.058594 C 8.671875 13.644531 8.765625 14.152344 8.914062 14.460938 C 9.035156 14.335938 9.167969 14.230469 9.308594 14.132812 C 8.742188 12.628906 9.230469 11.035156 9.945312 10.164062 C 10.460938 9.539062 11.113281 9.246094 11.738281 9.355469 C 12.785156 9.660156 13.28125 10.507812 13.21875 11.878906 C 13.164062 13.199219 12.496094 14.441406 12.320312 14.746094 C 12.511719 14.980469 12.632812 15.183594 12.660156 15.242188 C 12.914062 14.585938 13.261719 14.171875 13.632812 13.914062 C 13.429688 13.179688 13.683594 11.378906 14.652344 10.410156 C 15.296875 9.765625 16.136719 9.609375 17.082031 9.949219 C 17.738281 10.316406 18.136719 10.8125 18.285156 11.429688 C 18.464844 12.160156 18.257812 13.054688 17.742188 13.824219 C 17.34375 14.410156 16.851562 14.769531 16.574219 14.945312 C 16.585938 14.996094 16.601562 15.046875 16.609375 15.097656 C 17.191406 14.644531 18.175781 14.390625 18.976562 14.511719 C 19.589844 14.605469 20.039062 14.894531 20.273438 15.351562 C 20.542969 15.996094 20.410156 16.609375 19.878906 17.179688 C 19.507812 17.582031 19.007812 17.882812 18.648438 18.066406 C 18.445312 18.171875 18.269531 18.25 18.15625 18.292969 C 18.136719 18.300781 18.121094 18.308594 18.101562 18.316406 C 18.132812 18.449219 18.15625 18.59375 18.160156 18.757812 Z M 22.855469 5.519531 C 22.777344 4.75 22.332031 4.074219 21.539062 3.507812 C 20.816406 3.0625 20.097656 2.917969 19.40625 3.074219 C 18.28125 3.332031 17.453125 4.34375 17.007812 5.011719 C 17.144531 5.082031 17.261719 5.152344 17.375 5.222656 C 17.628906 4.601562 18.453125 3.832031 19.394531 3.601562 C 20.003906 3.453125 20.898438 3.464844 21.722656 4.378906 C 22.21875 4.960938 22.4375 5.582031 22.367188 6.214844 C 22.269531 7.117188 21.621094 7.792969 21.335938 8.050781 C 21.484375 8.140625 21.632812 8.242188 21.777344 8.367188 C 22.085938 7.996094 22.984375 6.792969 22.855469 5.519531 Z M 9.90625 19.238281 C 9.839844 19.332031 9.816406 19.453125 9.84375 19.566406 C 10.039062 20.402344 10.402344 21.460938 10.710938 22.171875 C 10.613281 21.554688 10.5 20.628906 10.445312 20.1875 C 10.429688 20.179688 10.414062 20.175781 10.402344 20.171875 C 10.242188 20.097656 10.175781 19.914062 10.246094 19.757812 C 10.320312 19.601562 10.507812 19.535156 10.667969 19.605469 C 10.828125 19.679688 10.894531 19.863281 10.820312 20.019531 C 10.789062 20.089844 10.726562 20.144531 10.660156 20.175781 C 10.714844 20.640625 10.835938 21.609375 10.933594 22.207031 C 10.964844 21.53125 11.046875 20.453125 11.1875 19.464844 C 11.207031 19.308594 11.144531 19.15625 11.019531 19.054688 C 10.523438 18.648438 10.109375 18.953125 9.90625 19.238281 Z M 14.003906 20.589844 C 13.441406 21.203125 13.03125 22.0625 12.804688 22.628906 C 13.160156 22.101562 13.65625 21.503906 13.816406 21.3125 C 13.78125 21.238281 13.777344 21.144531 13.816406 21.0625 C 13.882812 20.917969 14.058594 20.855469 14.207031 20.921875 C 14.355469 20.988281 14.417969 21.160156 14.351562 21.308594 C 14.285156 21.445312 14.121094 21.511719 13.976562 21.453125 C 13.800781 21.664062 13.257812 22.320312 12.914062 22.84375 C 13.472656 22.28125 14.464844 21.453125 14.753906 21.214844 C 14.8125 21.164062 14.855469 21.09375 14.867188 21.015625 C 14.910156 20.75 14.761719 20.566406 14.578125 20.480469 C 14.382812 20.386719 14.148438 20.433594 14.003906 20.589844 Z M 13.28125 19.449219 C 13.355469 19.59375 13.335938 19.765625 13.234375 19.894531 C 12.660156 20.640625 12.265625 21.53125 12.039062 22.117188 C 12.203125 21.492188 12.484375 20.683594 12.613281 20.3125 C 12.734375 20.316406 12.851562 20.25 12.90625 20.132812 C 12.980469 19.976562 12.910156 19.792969 12.753906 19.722656 C 12.59375 19.648438 12.40625 19.714844 12.332031 19.871094 C 12.273438 20 12.308594 20.148438 12.414062 20.238281 C 12.304688 20.542969 12.09375 21.148438 11.929688 21.710938 C 12 21.058594 12.109375 20.171875 12.265625 19.46875 C 12.304688 19.277344 12.464844 19.136719 12.660156 19.121094 C 12.886719 19.101562 13.148438 19.191406 13.28125 19.449219"/></g><g clip-path="url(#c)"><path fill="#C4456F" d="M 9.523438 14 C 9.65625 13.929688 9.796875 13.867188 9.941406 13.828125 C 9.820312 13.417969 9.78125 12.921875 9.851562 12.394531 C 10.015625 11.136719 10.738281 10.191406 11.460938 10.28125 C 12.1875 10.375 12.640625 11.46875 12.472656 12.726562 C 12.390625 13.355469 12.167969 13.902344 11.878906 14.285156 C 11.976562 14.367188 12.066406 14.457031 12.148438 14.546875 C 12.363281 14.15625 12.921875 13.027344 12.972656 11.867188 C 13.027344 10.609375 12.605469 9.863281 11.6875 9.597656 C 11.148438 9.503906 10.601562 9.757812 10.140625 10.320312 C 9.472656 11.125 9.019531 12.601562 9.523438 14 Z M 12.757812 8.445312 C 12.898438 8.519531 13.027344 8.597656 13.136719 8.6875 C 13.207031 8.480469 13.296875 8.269531 13.410156 8.0625 C 14.125 6.726562 15.398438 6.003906 16.25 6.441406 C 16.96875 6.8125 17.160156 7.894531 16.777344 9.019531 C 16.902344 9.046875 17.035156 9.089844 17.167969 9.136719 C 17.242188 8.90625 17.378906 8.414062 17.390625 7.871094 C 17.414062 6.898438 17.046875 6.234375 16.296875 5.890625 C 15.734375 5.667969 15.179688 5.691406 14.644531 5.960938 C 13.726562 6.421875 13 7.570312 12.757812 8.445312 Z M 18.375 9.910156 C 19.363281 9.375 20.382812 9.34375 20.867188 9.902344 C 21.472656 10.601562 21.011719 11.960938 19.839844 12.9375 C 19.535156 13.191406 19.214844 13.394531 18.894531 13.542969 C 19.125 13.558594 19.339844 13.617188 19.539062 13.699219 C 20.035156 13.355469 22.3125 11.667969 21.550781 9.976562 C 21.207031 9.34375 20.6875 8.992188 20.007812 8.929688 C 19.171875 8.851562 18.355469 9.242188 18.015625 9.585938 C 18.148438 9.691406 18.273438 9.796875 18.375 9.910156 Z M 17.585938 5.371094 C 17.703125 5.453125 17.808594 5.542969 17.898438 5.628906 C 17.953125 5.519531 18.015625 5.410156 18.089844 5.300781 C 18.769531 4.304688 20.015625 3.953125 20.875 4.515625 C 21.734375 5.082031 21.878906 6.347656 21.199219 7.34375 C 21.085938 7.511719 20.953125 7.664062 20.8125 7.792969 C 20.910156 7.828125 21.007812 7.875 21.105469 7.925781 C 21.3125 7.746094 22.023438 7.074219 22.121094 6.1875 C 22.179688 5.621094 21.984375 5.066406 21.53125 4.539062 C 20.792969 3.71875 19.996094 3.707031 19.457031 3.839844 C 18.515625 4.070312 17.765625 4.855469 17.585938 5.371094 Z M 13.855469 13.78125 C 13.984375 13.714844 14.113281 13.664062 14.246094 13.628906 C 14.136719 13.148438 14.203125 12.558594 14.472656 11.996094 C 14.976562 10.921875 16.011719 10.335938 16.777344 10.683594 C 17.546875 11.035156 17.757812 12.1875 17.25 13.261719 C 17.023438 13.742188 16.691406 14.125 16.324219 14.367188 C 16.386719 14.476562 16.441406 14.589844 16.488281 14.703125 C 16.753906 14.535156 17.183594 14.203125 17.535156 13.6875 C 18.015625 12.976562 18.207031 12.152344 18.042969 11.484375 C 17.914062 10.941406 17.558594 10.5 16.984375 10.175781 C 16.128906 9.871094 15.40625 10.007812 14.832031 10.578125 C 13.964844 11.445312 13.699219 13.078125 13.855469 13.78125 Z M 16.625 15.828125 C 16.652344 15.679688 16.664062 15.539062 16.652344 15.414062 C 16.652344 15.40625 16.652344 15.394531 16.652344 15.386719 C 17.152344 14.910156 18.140625 14.632812 18.9375 14.753906 C 19.304688 14.808594 19.796875 14.976562 20.046875 15.457031 C 20.203125 15.828125 20.195312 16.191406 20.03125 16.539062 C 19.632812 17.371094 18.460938 17.90625 18.035156 18.078125 C 18 17.976562 17.960938 17.878906 17.921875 17.804688 C 18.066406 17.757812 18.214844 17.699219 18.359375 17.628906 C 19.351562 17.136719 19.902344 16.246094 19.589844 15.640625 C 19.277344 15.035156 18.222656 14.945312 17.230469 15.4375 C 17.003906 15.550781 16.800781 15.683594 16.625 15.828125"/></g><path fill="#C4456F" d="M 15.476562 7.441406 L 15.066406 9.113281 C 15.121094 9.085938 15.175781 9.0625 15.230469 9.039062 L 15.894531 7.632812 C 15.785156 7.542969 15.648438 7.476562 15.476562 7.441406 Z M 10.386719 13.757812 C 10.402344 13.753906 10.417969 13.753906 10.433594 13.75 L 10.386719 12.546875 C 10.3125 13.117188 10.386719 13.757812 10.386719 13.757812 Z M 19.128906 12.527344 L 19.382812 12.644531 C 19.5 12.542969 19.628906 12.425781 19.753906 12.289062 L 19.1875 12.304688 C 19.167969 12.382812 19.148438 12.457031 19.128906 12.527344 Z M 19.203125 12.792969 L 19.0625 12.726562 C 19.023438 12.824219 18.984375 12.910156 18.949219 12.976562 C 18.949219 12.976562 19.050781 12.910156 19.203125 12.792969 Z M 10.648438 13.738281 C 10.65625 13.742188 10.664062 13.742188 10.671875 13.742188 L 10.835938 11.472656 C 10.722656 11.570312 10.636719 11.703125 10.570312 11.835938 Z M 15.644531 13.84375 C 15.660156 13.851562 15.675781 13.859375 15.6875 13.867188 L 16.746094 12.972656 C 16.816406 12.710938 16.808594 12.472656 16.773438 12.3125 Z M 11.941406 12.335938 C 11.9375 12.304688 11.933594 12.265625 11.925781 12.226562 L 11.402344 13.964844 C 11.449219 13.988281 11.480469 14.003906 11.480469 14.003906 C 11.796875 13.355469 11.976562 12.738281 11.941406 12.335938 Z M 16.382812 11.773438 L 15.449219 13.75 L 16.679688 12.085938 C 16.609375 11.972656 16.515625 11.855469 16.382812 11.773438 Z M 15.921875 14.019531 C 16.222656 13.84375 16.429688 13.628906 16.5625 13.402344 L 15.875 13.984375 C 15.90625 14.003906 15.921875 14.019531 15.921875 14.019531 Z M 14.488281 9.503906 C 14.5 8.988281 14.527344 8.328125 14.574219 7.683594 C 14.441406 7.777344 14.316406 7.886719 14.199219 8.003906 L 14.441406 9.542969 C 14.457031 9.53125 14.472656 9.515625 14.488281 9.503906 Z M 14.726562 13.597656 C 14.753906 13.597656 14.78125 13.597656 14.808594 13.601562 L 14.886719 12.425781 C 14.695312 12.851562 14.679688 13.34375 14.726562 13.597656 Z M 18.84375 10.324219 C 18.871094 10.359375 18.894531 10.394531 18.917969 10.429688 L 19.050781 10.242188 C 18.964844 10.269531 18.894531 10.296875 18.84375 10.324219 Z M 11.148438 13.851562 C 11.167969 13.859375 11.1875 13.867188 11.207031 13.875 L 11.820312 11.84375 C 11.777344 11.730469 11.71875 11.625 11.644531 11.535156 Z M 10.882812 13.773438 C 10.90625 13.777344 10.925781 13.78125 10.945312 13.789062 L 11.457031 11.378906 C 11.382812 11.34375 11.300781 11.320312 11.203125 11.328125 C 11.152344 11.328125 11.105469 11.335938 11.058594 11.351562 Z M 15.125 12.046875 L 15.023438 13.621094 C 15.035156 13.625 15.542969 11.738281 15.542969 11.738281 C 15.375 11.8125 15.238281 11.917969 15.125 12.046875 Z M 19.226562 12.09375 L 19.9375 12.078125 C 20.089844 11.886719 20.222656 11.675781 20.308594 11.449219 L 19.25 11.863281 C 19.246094 11.941406 19.238281 12.019531 19.226562 12.09375 Z M 16.230469 8.898438 C 16.257812 8.792969 16.273438 8.644531 16.265625 8.476562 L 16.007812 8.882812 C 16.082031 8.882812 16.15625 8.890625 16.230469 8.898438 Z M 19.1875 11.039062 C 19.199219 11.089844 19.210938 11.144531 19.222656 11.199219 L 20.269531 10.476562 C 20.175781 10.351562 20.039062 10.273438 19.890625 10.226562 Z M 14.796875 7.550781 C 14.75 8.164062 14.722656 8.804688 14.707031 9.332031 C 14.742188 9.308594 14.773438 9.285156 14.808594 9.261719 L 15.261719 7.421875 C 15.105469 7.429688 14.949219 7.476562 14.796875 7.550781 Z M 13.726562 8.613281 L 14.167969 9.820312 C 14.195312 9.789062 14.222656 9.757812 14.253906 9.726562 L 14.015625 8.210938 C 13.902344 8.34375 13.808594 8.480469 13.726562 8.613281 Z M 14.007812 10.007812 L 13.59375 8.871094 C 13.5625 8.941406 13.539062 9.003906 13.519531 9.066406 C 13.835938 9.480469 13.894531 10.160156 13.894531 10.160156 C 13.925781 10.117188 13.964844 10.0625 14.007812 10.007812 Z M 20.917969 6.621094 L 19.980469 7.578125 C 20.238281 7.605469 20.394531 7.652344 20.394531 7.652344 C 20.699219 7.25 20.859375 6.910156 20.917969 6.621094 Z M 19.484375 7.5625 C 19.5625 7.558594 19.632812 7.558594 19.703125 7.5625 L 20.941406 6.292969 C 20.929688 6.105469 20.875 5.945312 20.792969 5.804688 Z M 19.03125 5.171875 C 18.929688 5.429688 18.714844 6.003906 18.542969 6.460938 C 18.609375 6.59375 18.660156 6.722656 18.695312 6.839844 L 19.527344 5.074219 C 19.367188 5.078125 19.195312 5.109375 19.03125 5.171875 Z M 20.378906 11.195312 C 20.414062 11.023438 20.414062 10.84375 20.367188 10.664062 L 19.25 11.433594 C 19.257812 11.503906 19.261719 11.570312 19.261719 11.636719 Z M 18.179688 5.898438 C 18.265625 6.007812 18.339844 6.113281 18.40625 6.21875 C 18.527344 5.886719 18.652344 5.5625 18.742188 5.320312 C 18.542969 5.453125 18.347656 5.640625 18.179688 5.898438 Z M 19.035156 10.628906 C 19.0625 10.6875 19.085938 10.742188 19.109375 10.800781 L 19.648438 10.183594 C 19.546875 10.175781 19.449219 10.175781 19.351562 10.1875 Z M 18.929688 7.617188 C 19.023438 7.601562 19.117188 7.589844 19.207031 7.578125 L 20.664062 5.621094 C 20.582031 5.523438 20.484375 5.4375 20.390625 5.359375 Z M 18.769531 7.179688 C 18.78125 7.285156 18.785156 7.375 18.785156 7.449219 L 20.214844 5.242188 C 20.078125 5.167969 19.925781 5.113281 19.757812 5.089844 Z M 15.78125 11.675781 L 15.242188 13.675781 C 15.246094 13.675781 16.1875 11.6875 16.1875 11.6875 C 16.074219 11.660156 15.941406 11.652344 15.78125 11.675781 Z M 12.730469 17.734375 L 12.777344 17.359375 C 12.703125 17.535156 12.628906 17.730469 12.585938 17.851562 C 12.621094 17.816406 12.671875 17.773438 12.730469 17.734375 Z M 13.425781 17.511719 C 13.511719 17.515625 13.601562 17.535156 13.679688 17.570312 C 13.6875 17.574219 13.695312 17.578125 13.703125 17.582031 L 14.335938 16.242188 C 14.25 16.207031 14.15625 16.1875 14.054688 16.183594 C 13.996094 16.183594 13.9375 16.1875 13.878906 16.203125 Z M 14.523438 16.347656 L 13.886719 17.695312 C 13.945312 17.738281 13.992188 17.78125 14.035156 17.828125 L 14.804688 16.691406 C 14.738281 16.558594 14.640625 16.4375 14.523438 16.347656 Z M 10.59375 17.351562 L 10.859375 16.128906 C 10.734375 16.125 10.550781 16.152344 10.367188 16.246094 L 10.410156 17.375 C 10.472656 17.363281 10.53125 17.355469 10.59375 17.351562 Z M 10.808594 17.367188 C 10.882812 17.378906 10.953125 17.398438 11.015625 17.425781 L 11.394531 16.355469 C 11.296875 16.265625 11.179688 16.210938 11.070312 16.167969 Z M 11.554688 16.542969 L 11.207031 17.523438 C 11.257812 17.554688 11.300781 17.589844 11.34375 17.625 L 11.714844 17.035156 C 11.6875 16.824219 11.628906 16.664062 11.554688 16.542969 Z M 11.730469 17.414062 L 11.503906 17.777344 C 11.566406 17.84375 11.621094 17.917969 11.667969 17.984375 C 11.707031 17.769531 11.722656 17.578125 11.730469 17.414062 Z M 14.894531 16.9375 L 14.171875 18.003906 C 14.210938 18.074219 14.238281 18.148438 14.257812 18.222656 L 14.90625 17.554688 C 14.941406 17.351562 14.945312 17.144531 14.894531 16.9375 Z M 15.382812 19.746094 L 15.996094 19.097656 C 15.886719 19.023438 15.761719 19.007812 15.625 19.027344 L 15.265625 19.660156 C 15.296875 19.675781 15.332031 19.695312 15.382812 19.746094 Z M 15.066406 19.582031 L 15.328125 19.117188 C 15.046875 19.246094 14.769531 19.46875 14.582031 19.636719 C 14.726562 19.554688 14.90625 19.542969 15.066406 19.582031 Z M 15.515625 19.914062 C 15.53125 19.949219 15.550781 19.984375 15.566406 20.019531 L 16.1875 19.636719 C 16.207031 19.5 16.195312 19.371094 16.136719 19.257812 Z M 14.285156 18.496094 C 14.285156 18.585938 14.277344 18.671875 14.265625 18.761719 C 14.4375 18.570312 14.582031 18.394531 14.6875 18.175781 C 14.71875 18.117188 14.742188 18.058594 14.769531 17.996094 Z M 13.195312 17.53125 L 13.617188 16.3125 C 13.402344 16.433594 13.207031 16.625 13.066406 16.808594 L 12.960938 17.605469 C 13.035156 17.574219 13.113281 17.546875 13.195312 17.53125 Z M 15.628906 20.230469 C 15.648438 20.328125 15.652344 20.433594 15.636719 20.539062 C 15.804688 20.410156 15.984375 20.183594 16.09375 19.941406 Z M 9.804688 17.683594 L 9.679688 17.191406 C 9.625 17.394531 9.589844 17.628906 9.578125 17.90625 C 9.648438 17.824219 9.726562 17.75 9.804688 17.683594 Z M 18.320312 17.15625 L 17.53125 17.367188 C 17.609375 17.417969 17.65625 17.453125 17.65625 17.453125 C 17.921875 17.371094 18.144531 17.273438 18.320312 17.15625 Z M 16.519531 16.375 C 16.503906 16.421875 16.488281 16.46875 16.476562 16.511719 L 17.351562 15.890625 C 16.992188 16.035156 16.675781 16.234375 16.519531 16.375 Z M 16.3125 16.902344 C 16.335938 16.902344 16.355469 16.902344 16.375 16.902344 L 18.5 15.789062 C 18.410156 15.75 18.300781 15.722656 18.171875 15.714844 C 18.097656 15.714844 18.023438 15.71875 17.945312 15.730469 L 16.320312 16.878906 C 16.320312 16.886719 16.316406 16.894531 16.3125 16.902344 Z M 18.691406 15.925781 L 16.707031 16.96875 C 16.742188 16.976562 16.777344 16.988281 16.8125 17 L 18.847656 16.25 C 18.828125 16.136719 18.78125 16.023438 18.691406 15.925781 Z M 10.15625 16.382812 C 10.03125 16.488281 9.910156 16.636719 9.8125 16.835938 L 9.988281 17.546875 C 10.058594 17.503906 10.128906 17.46875 10.199219 17.441406 Z M 18.820312 16.523438 C 18.828125 16.507812 18.832031 16.492188 18.835938 16.476562 L 17.09375 17.121094 C 17.160156 17.152344 17.222656 17.183594 17.28125 17.21875 L 18.65625 16.851562 C 18.730469 16.75 18.785156 16.644531 18.820312 16.523438 Z M 16.21875 8.152344 L 15.746094 8.902344 C 15.664062 8.910156 15.585938 8.925781 15.507812 8.945312 L 16.050781 7.796875 C 16.132812 7.90625 16.183594 8.027344 16.21875 8.152344"/></svg>