<svg xmlns="http://www.w3.org/2000/svg" width="30" viewBox="0 0 30 30" height="30" version="1.0"><defs><clipPath id="a"><path d="M 3.8125 3.535156 L 26 3.535156 L 26 25.3125 L 3.8125 25.3125 Z M 3.8125 3.535156"/></clipPath></defs><path fill="#C4456F" d="M 13.824219 21.015625 C 13.671875 20.957031 13.507812 20.964844 13.363281 21.035156 C 13.21875 21.109375 13.117188 21.238281 13.074219 21.394531 L 12.945312 21.90625 C 12.914062 22.03125 12.820312 22.132812 12.695312 22.179688 C 12.570312 22.222656 12.433594 22.199219 12.328125 22.121094 L 11.742188 21.691406 C 11.644531 21.617188 11.527344 21.582031 11.410156 21.582031 C 11.359375 21.582031 11.308594 21.585938 11.257812 21.601562 C 11.089844 21.648438 10.957031 21.765625 10.890625 21.925781 C 10.78125 22.195312 10.898438 22.5 11.15625 22.628906 L 13.175781 23.621094 L 14.113281 21.769531 C 14.183594 21.632812 14.191406 21.476562 14.136719 21.332031 C 14.082031 21.1875 13.96875 21.074219 13.824219 21.015625 Z M 13.824219 21.015625"/><path fill="#C4456F" d="M 23.582031 8.21875 C 23.546875 8.042969 23.445312 7.898438 23.289062 7.8125 C 23.136719 7.722656 22.957031 7.703125 22.789062 7.761719 L 21.503906 8.183594 C 21.363281 8.230469 21.207031 8.191406 21.101562 8.089844 L 20.347656 7.34375 C 20.230469 7.226562 20.078125 7.167969 19.914062 7.167969 C 19.898438 7.167969 19.886719 7.167969 19.871094 7.167969 C 19.691406 7.179688 19.53125 7.265625 19.421875 7.410156 C 19.246094 7.636719 19.257812 7.949219 19.445312 8.164062 L 21.085938 10.050781 L 23.273438 8.972656 C 23.523438 8.851562 23.65625 8.578125 23.601562 8.3125 Z M 23.582031 8.21875"/><path fill="#C4456F" d="M 16.539062 12.089844 L 14.171875 12.089844 L 14.171875 14.421875 L 16.539062 14.421875 C 17.191406 14.421875 17.722656 13.898438 17.722656 13.257812 C 17.722656 12.613281 17.191406 12.089844 16.539062 12.089844 Z M 16.539062 12.089844"/><g clip-path="url(#a)"><path fill="#C4456F" d="M 22.394531 4.761719 C 21.4375 4.605469 20.480469 4.757812 19.632812 5.203125 C 19.488281 5.277344 19.308594 5.257812 19.183594 5.148438 C 18.019531 4.109375 16.519531 3.535156 14.960938 3.535156 C 11.484375 3.535156 8.652344 6.328125 8.652344 9.757812 C 8.652344 9.851562 8.660156 9.949219 8.667969 10.042969 L 8.675781 10.140625 C 8.6875 10.355469 8.523438 10.539062 8.308594 10.554688 C 5.851562 10.726562 3.921875 12.769531 3.921875 15.203125 C 3.921875 17.050781 5.03125 18.726562 6.75 19.46875 C 7.199219 19.664062 7.519531 20.050781 7.632812 20.527344 C 7.746094 21.011719 7.625 21.503906 7.300781 21.886719 L 4.6875 24.945312 L 8.75 23.726562 C 8.898438 23.683594 9.050781 23.660156 9.199219 23.660156 C 9.640625 23.660156 10.070312 23.84375 10.375 24.171875 C 11.046875 24.894531 12 25.3125 12.992188 25.3125 C 14.027344 25.3125 15.007812 24.863281 15.683594 24.085938 C 15.796875 23.957031 15.976562 23.914062 16.136719 23.980469 C 17.214844 24.433594 18.363281 24.609375 19.550781 24.503906 C 22.839844 24.21875 25.527344 21.671875 25.941406 18.449219 C 26.203125 16.421875 25.601562 14.464844 24.242188 12.933594 C 24.171875 12.855469 24.136719 12.746094 24.148438 12.640625 C 24.160156 12.535156 24.214844 12.4375 24.300781 12.371094 C 25.558594 11.417969 26.179688 9.917969 25.957031 8.359375 C 25.699219 6.539062 24.234375 5.058594 22.394531 4.761719 Z M 16.972656 4.527344 L 18.042969 6.035156 L 17.398438 6.480469 L 16.328125 4.976562 Z M 15.59375 5.558594 L 17.167969 6.726562 L 16.695312 7.347656 L 15.121094 6.179688 Z M 9.539062 14.675781 L 7.867188 12.753906 L 7.867188 19.089844 L 7.078125 19.089844 L 7.078125 11.703125 C 7.078125 11.539062 7.179688 11.394531 7.335938 11.335938 C 7.488281 11.28125 7.664062 11.324219 7.769531 11.449219 L 9.835938 13.824219 L 11.902344 11.449219 C 12.011719 11.324219 12.183594 11.28125 12.339844 11.335938 C 12.492188 11.394531 12.597656 11.539062 12.597656 11.703125 L 12.597656 19.089844 L 11.808594 19.089844 L 11.808594 12.753906 L 10.136719 14.675781 C 9.988281 14.847656 9.6875 14.847656 9.539062 14.675781 Z M 14.820312 22.121094 L 13.707031 24.316406 C 13.660156 24.410156 13.578125 24.480469 13.476562 24.511719 C 13.4375 24.527344 13.394531 24.53125 13.351562 24.53125 C 13.292969 24.53125 13.230469 24.519531 13.175781 24.492188 L 10.804688 23.324219 C 10.183594 23.015625 9.898438 22.277344 10.15625 21.644531 C 10.316406 21.25 10.640625 20.964844 11.046875 20.851562 C 11.449219 20.738281 11.878906 20.820312 12.214844 21.070312 L 12.328125 21.148438 C 12.429688 20.800781 12.675781 20.511719 13.003906 20.34375 C 13.351562 20.171875 13.753906 20.152344 14.117188 20.296875 C 14.464844 20.433594 14.742188 20.710938 14.875 21.054688 C 15.007812 21.398438 14.988281 21.789062 14.820312 22.121094 Z M 18.511719 19.089844 L 17.722656 19.089844 C 17.722656 17.636719 17.261719 15.203125 14.171875 15.203125 L 14.171875 19.089844 L 13.386719 19.089844 L 13.386719 11.703125 C 13.386719 11.488281 13.5625 11.3125 13.78125 11.3125 L 16.539062 11.3125 C 17.625 11.3125 18.511719 12.183594 18.511719 13.257812 C 18.511719 14.238281 17.773438 15.050781 16.816406 15.183594 C 17.90625 15.960938 18.511719 17.304688 18.511719 19.089844 Z M 23.636719 13.644531 L 22.847656 13.644531 L 22.847656 13.453125 C 22.847656 12.703125 22.226562 12.089844 21.46875 12.089844 C 20.707031 12.089844 20.085938 12.703125 20.085938 13.453125 C 20.085938 14.203125 20.707031 14.8125 21.46875 14.8125 C 22.664062 14.8125 23.636719 15.773438 23.636719 16.949219 C 23.636719 18.128906 22.664062 19.089844 21.46875 19.089844 C 20.273438 19.089844 19.300781 18.128906 19.300781 16.949219 L 19.300781 16.757812 L 20.085938 16.757812 L 20.085938 16.949219 C 20.085938 17.703125 20.707031 18.3125 21.46875 18.3125 C 22.226562 18.3125 22.847656 17.703125 22.847656 16.949219 C 22.847656 16.199219 22.226562 15.589844 21.46875 15.589844 C 20.273438 15.589844 19.300781 14.632812 19.300781 13.453125 C 19.300781 12.273438 20.273438 11.3125 21.46875 11.3125 C 22.664062 11.3125 23.636719 12.273438 23.636719 13.453125 Z M 23.628906 9.667969 L 21.164062 10.882812 C 21.105469 10.910156 21.046875 10.925781 20.984375 10.925781 C 20.875 10.925781 20.765625 10.875 20.6875 10.789062 L 18.847656 8.671875 C 18.417969 8.175781 18.394531 7.464844 18.789062 6.941406 C 19.035156 6.621094 19.40625 6.421875 19.8125 6.390625 C 20.222656 6.363281 20.617188 6.511719 20.902344 6.792969 L 21.488281 7.367188 L 22.539062 7.023438 C 22.917969 6.898438 23.335938 6.941406 23.683594 7.140625 C 24.035156 7.339844 24.277344 7.675781 24.355469 8.0625 L 24.375 8.160156 C 24.5 8.769531 24.191406 9.390625 23.628906 9.667969 Z M 23.628906 9.667969"/></g></svg>