<svg xmlns="http://www.w3.org/2000/svg" width="30" viewBox="0 0 30 30" height="30" version="1.0"><defs><clipPath id="a"><path d="M 6.824219 3.863281 L 23.515625 3.863281 L 23.515625 26.363281 L 6.824219 26.363281 Z M 6.824219 3.863281"/></clipPath></defs><g clip-path="url(#a)"><path fill="#C4456F" d="M 14.589844 5.601562 C 14.652344 5.613281 14.710938 5.621094 14.753906 5.621094 C 14.773438 5.621094 14.792969 5.621094 14.808594 5.617188 L 14.949219 5.957031 C 14.984375 6.042969 15.007812 6.121094 15.023438 6.191406 C 15.03125 6.242188 15.039062 6.289062 15.039062 6.335938 C 15.042969 6.347656 15.03125 6.441406 15.007812 6.621094 C 15.003906 6.660156 15.011719 6.695312 15.023438 6.730469 C 15.027344 6.742188 15.035156 6.757812 15.042969 6.773438 C 14.96875 6.734375 14.910156 6.710938 14.875 6.699219 C 14.859375 6.691406 14.839844 6.683594 14.824219 6.679688 C 14.742188 6.476562 14.6875 6.324219 14.660156 6.230469 C 14.609375 6.082031 14.582031 5.949219 14.578125 5.835938 C 14.574219 5.773438 14.578125 5.695312 14.589844 5.601562 Z M 8.347656 3.867188 C 8.285156 3.867188 8.25 3.882812 8.242188 3.910156 C 8.234375 3.972656 8.285156 4.039062 8.390625 4.113281 C 8.617188 4.171875 8.785156 4.238281 8.890625 4.3125 C 8.6875 4.3125 8.550781 4.367188 8.476562 4.472656 C 8.289062 4.679688 8.25 4.816406 8.351562 4.882812 C 8.390625 4.90625 8.425781 4.917969 8.457031 4.917969 C 8.515625 4.917969 8.558594 4.871094 8.582031 4.777344 L 8.949219 4.9375 C 8.96875 4.992188 9 5.03125 9.042969 5.050781 C 9.054688 5.0625 9.121094 5.070312 9.238281 5.074219 C 9.316406 5.171875 9.386719 5.234375 9.457031 5.265625 C 9.5 5.292969 9.582031 5.320312 9.710938 5.355469 L 10.15625 5.816406 C 10.59375 6.199219 10.960938 6.554688 11.257812 6.875 C 11.386719 6.996094 11.535156 7.101562 11.699219 7.1875 C 11.804688 7.246094 11.929688 7.296875 12.0625 7.347656 C 12.683594 7.546875 13.050781 7.675781 13.160156 7.734375 C 13.230469 7.761719 13.550781 7.828125 14.125 7.941406 C 14.144531 8.375 14.222656 8.960938 14.359375 9.691406 C 14.378906 9.882812 14.378906 10.097656 14.367188 10.339844 C 14.316406 10.515625 14.265625 10.710938 14.21875 10.929688 C 14.09375 11.195312 13.984375 11.417969 13.886719 11.601562 L 12.808594 13.414062 C 12.671875 13.683594 12.566406 13.949219 12.492188 14.207031 C 12.390625 14.542969 12.332031 14.902344 12.3125 15.285156 L 12.304688 17.722656 C 12.292969 18.121094 12.265625 18.46875 12.214844 18.765625 C 12.113281 19.445312 11.867188 20.050781 11.484375 20.589844 C 10.894531 21.386719 10.207031 21.824219 9.429688 21.90625 C 9.375 21.914062 9.316406 21.914062 9.257812 21.914062 C 8.664062 21.914062 7.859375 21.566406 6.839844 20.867188 C 7.980469 21.730469 8.886719 22.226562 9.554688 22.363281 C 9.78125 22.414062 10.007812 22.441406 10.230469 22.441406 C 10.757812 22.441406 11.273438 22.296875 11.785156 22.011719 C 12.46875 21.648438 13.277344 21.007812 14.214844 20.085938 L 14.121094 20.484375 C 14.089844 20.65625 14.074219 20.835938 14.082031 21.015625 C 14.085938 21.183594 14.113281 21.386719 14.160156 21.625 C 14.164062 21.667969 14.253906 22.019531 14.421875 22.679688 C 14.460938 22.839844 14.492188 22.984375 14.511719 23.113281 C 14.5625 23.394531 14.585938 23.625 14.582031 23.808594 C 14.578125 23.964844 14.558594 24.09375 14.527344 24.199219 C 14.507812 24.28125 14.429688 24.449219 14.292969 24.703125 C 14.269531 24.761719 14.261719 24.808594 14.269531 24.847656 C 14.277344 24.894531 14.3125 24.941406 14.371094 25 C 14.722656 25.230469 14.902344 25.371094 14.917969 25.417969 C 14.960938 25.445312 15.074219 25.636719 15.269531 25.988281 C 15.320312 26.070312 15.375 26.132812 15.429688 26.179688 C 15.558594 26.304688 15.71875 26.363281 15.902344 26.363281 C 15.90625 26.363281 15.90625 26.363281 15.910156 26.363281 C 15.917969 26.363281 15.921875 26.363281 15.929688 26.363281 C 16.085938 26.363281 16.277344 26.335938 16.507812 26.28125 C 16.503906 26.28125 16.503906 26.28125 16.5 26.28125 C 16.472656 26.28125 16.480469 26.230469 16.523438 26.125 C 16.519531 26.09375 16.511719 26.082031 16.496094 26.078125 C 16.304688 26.054688 16.167969 26.015625 16.09375 25.972656 C 16.015625 25.929688 15.960938 25.867188 15.929688 25.789062 C 15.914062 25.753906 15.898438 25.691406 15.882812 25.609375 C 15.847656 25.242188 15.816406 25.023438 15.792969 24.941406 C 15.789062 24.902344 15.710938 24.644531 15.550781 24.167969 C 15.523438 24.070312 15.496094 23.976562 15.476562 23.886719 C 15.441406 23.722656 15.417969 23.523438 15.402344 23.292969 C 15.378906 22.453125 15.402344 21.53125 15.480469 20.523438 C 15.496094 20.324219 15.519531 20.164062 15.546875 20.046875 L 15.734375 19.460938 C 15.765625 19.335938 15.796875 19.183594 15.824219 19.003906 C 15.859375 18.777344 15.890625 18.539062 15.914062 18.289062 C 16.640625 17.492188 17.523438 16.496094 18.570312 15.300781 C 18.796875 15.09375 19.070312 14.847656 19.390625 14.558594 L 19.839844 14.125 C 20.125 13.835938 20.316406 13.589844 20.414062 13.386719 C 20.753906 12.800781 20.175781 12.429688 18.679688 12.273438 L 18.675781 12.273438 C 18.375 12.238281 18.050781 12.222656 17.703125 12.222656 C 17.632812 12.222656 17.5625 12.222656 17.492188 12.222656 L 16.746094 11.636719 C 16.789062 11.515625 16.824219 11.414062 16.851562 11.328125 C 16.90625 11.175781 16.960938 11.027344 17.019531 10.886719 L 17.296875 10.222656 C 17.335938 10.117188 17.367188 10.015625 17.390625 9.917969 C 17.398438 9.882812 17.40625 9.847656 17.410156 9.8125 L 17.414062 9.8125 C 18.058594 9.867188 18.5 9.898438 18.738281 9.898438 C 18.75 9.898438 18.761719 9.898438 18.769531 9.894531 C 18.78125 9.898438 18.796875 9.898438 18.8125 9.898438 C 18.941406 9.898438 19.183594 9.886719 19.542969 9.863281 C 19.648438 9.855469 19.738281 9.835938 19.816406 9.800781 C 19.902344 9.769531 20.011719 9.667969 20.140625 9.496094 L 21.558594 7.558594 L 21.886719 7.585938 C 21.890625 7.585938 21.898438 7.585938 21.910156 7.585938 C 21.953125 7.585938 22.03125 7.578125 22.144531 7.566406 C 22.148438 7.566406 22.152344 7.566406 22.15625 7.566406 C 22.175781 7.566406 22.199219 7.570312 22.230469 7.574219 C 22.261719 7.582031 22.289062 7.59375 22.3125 7.605469 C 22.496094 7.710938 22.605469 7.765625 22.636719 7.769531 C 22.660156 7.777344 22.6875 7.78125 22.714844 7.78125 C 22.761719 7.78125 22.8125 7.765625 22.859375 7.738281 C 22.921875 7.832031 22.972656 7.878906 23.011719 7.886719 C 23.015625 7.886719 23.023438 7.886719 23.027344 7.886719 C 23.070312 7.886719 23.125 7.855469 23.191406 7.796875 C 23.246094 7.820312 23.28125 7.828125 23.308594 7.828125 C 23.316406 7.828125 23.320312 7.828125 23.324219 7.824219 C 23.371094 7.808594 23.316406 7.695312 23.164062 7.484375 C 23.046875 7.332031 22.945312 7.242188 22.855469 7.214844 C 23.066406 7.195312 23.230469 7.167969 23.351562 7.125 C 23.449219 7.082031 23.453125 7.046875 23.367188 7.011719 L 23.367188 7.007812 C 23.335938 7 23.289062 6.996094 23.230469 6.996094 C 23.214844 6.996094 23.203125 6.996094 23.1875 6.996094 C 22.769531 7.03125 22.53125 7.050781 22.480469 7.050781 C 22.480469 7.050781 22.476562 7.050781 22.476562 7.050781 L 21.566406 7.066406 C 21.472656 7.070312 21.398438 7.082031 21.34375 7.109375 C 21.304688 7.125 21.253906 7.164062 21.195312 7.222656 C 20.773438 7.679688 20.480469 7.980469 20.316406 8.125 C 20.121094 8.304688 19.820312 8.554688 19.417969 8.867188 L 16.90625 8.417969 C 16.882812 8.375 16.855469 8.328125 16.828125 8.285156 C 16.777344 8.179688 16.738281 8.074219 16.710938 7.96875 C 16.65625 7.789062 16.65625 7.539062 16.703125 7.214844 C 16.703125 7.214844 16.699219 7.214844 16.699219 7.214844 C 16.738281 7.03125 16.816406 6.894531 16.933594 6.808594 C 17 6.757812 17.070312 6.714844 17.152344 6.679688 C 17.195312 6.660156 17.234375 6.648438 17.273438 6.640625 C 17.460938 6.605469 17.558594 6.585938 17.558594 6.582031 C 17.609375 6.5625 17.644531 6.539062 17.664062 6.503906 C 17.707031 6.445312 17.714844 6.300781 17.683594 6.070312 L 17.5625 5.957031 L 17.664062 5.789062 L 17.597656 5.695312 C 17.78125 5.539062 17.867188 5.441406 17.859375 5.40625 C 17.859375 5.394531 17.851562 5.382812 17.832031 5.375 C 17.71875 5.339844 17.636719 5.308594 17.59375 5.28125 C 17.542969 5.25 17.488281 5.210938 17.441406 5.160156 C 17.402344 5.121094 17.363281 5.070312 17.320312 5.011719 L 17.035156 4.582031 C 16.980469 4.511719 16.933594 4.460938 16.894531 4.429688 C 16.886719 4.421875 16.878906 4.414062 16.867188 4.410156 C 16.863281 4.375 16.855469 4.34375 16.84375 4.316406 C 16.769531 4.113281 16.585938 4.011719 16.300781 4.011719 C 16.261719 4.011719 16.226562 4.011719 16.183594 4.015625 C 15.78125 4.066406 15.429688 4.21875 15.128906 4.476562 C 14.960938 4.632812 14.839844 4.792969 14.773438 4.953125 C 14.695312 4.980469 14.597656 5.046875 14.476562 5.15625 C 14.289062 5.335938 14.160156 5.492188 14.089844 5.632812 C 13.988281 5.804688 13.933594 6.105469 13.925781 6.546875 C 13.375 6.53125 13.035156 6.515625 12.914062 6.488281 C 12.617188 6.449219 12.339844 6.371094 12.078125 6.253906 C 11.757812 6.113281 11.390625 5.886719 10.972656 5.570312 C 10.761719 5.414062 10.453125 5.160156 10.039062 4.8125 C 9.828125 4.574219 9.640625 4.398438 9.476562 4.289062 C 9.277344 4.152344 9.019531 4.035156 8.699219 3.9375 C 8.539062 3.890625 8.421875 3.867188 8.347656 3.867188 Z M 8.347656 3.867188"/></g></svg>