<svg xmlns="http://www.w3.org/2000/svg" width="30" viewBox="0 0 30 30" height="30" version="1.0"><defs><clipPath id="a"><path d="M 10 4 L 15 4 L 15 25.796875 L 10 25.796875 Z M 10 4"/></clipPath><clipPath id="b"><path d="M 17 2.570312 L 20.101562 2.570312 L 20.101562 25.796875 L 17 25.796875 Z M 17 2.570312"/></clipPath></defs><g clip-path="url(#a)"><path fill="#C4456F" d="M 14.046875 24.472656 C 14.097656 25.804688 10.121094 25.5625 10.085938 24.617188 C 9.960938 21.34375 10.109375 12.707031 10.207031 7.5625 C 10.222656 6.863281 10.511719 6.460938 10.847656 6.234375 L 10.832031 5.691406 L 10.660156 5.691406 L 10.660156 5.453125 L 10.824219 5.453125 L 10.816406 5.101562 L 10.660156 5.101562 L 10.660156 4.863281 L 10.808594 4.863281 L 10.792969 4.324219 L 12.996094 4.308594 L 12.992188 4.863281 L 13.128906 4.863281 L 13.128906 5.101562 L 12.992188 5.101562 L 12.988281 5.453125 L 13.128906 5.453125 L 13.128906 5.691406 L 12.984375 5.691406 L 12.980469 6.207031 C 13.304688 6.429688 13.519531 6.796875 13.539062 7.34375 C 13.691406 12.507812 13.929688 21.488281 14.046875 24.472656 Z M 14.046875 24.472656" fill-rule="evenodd"/></g><g clip-path="url(#b)"><path fill="#C4456F" d="M 20.050781 16.660156 C 20.046875 16.390625 19.363281 16.296875 18.777344 16.292969 L 18.777344 6.8125 C 18.871094 6.804688 18.964844 6.800781 19.058594 6.789062 C 19.085938 6.785156 19.105469 6.761719 19.105469 6.734375 C 19.101562 6.707031 19.078125 6.6875 19.050781 6.691406 C 18.957031 6.695312 18.867188 6.695312 18.777344 6.695312 L 18.777344 6.542969 C 18.792969 6.542969 18.808594 6.542969 18.824219 6.542969 C 18.886719 6.542969 18.949219 6.542969 19.007812 6.550781 C 19.035156 6.554688 19.0625 6.535156 19.066406 6.511719 C 19.070312 6.484375 19.050781 6.457031 19.023438 6.453125 C 18.945312 6.4375 18.859375 6.429688 18.777344 6.425781 L 18.777344 6.257812 C 18.859375 6.261719 18.941406 6.265625 19.019531 6.273438 C 19.046875 6.277344 19.074219 6.257812 19.078125 6.230469 C 19.082031 6.203125 19.058594 6.179688 19.03125 6.175781 C 18.949219 6.164062 18.863281 6.152344 18.777344 6.144531 L 18.777344 6.039062 C 18.824219 6.035156 18.871094 6.035156 18.921875 6.03125 C 18.949219 6.03125 18.972656 6.007812 18.96875 5.980469 C 18.96875 5.953125 18.945312 5.929688 18.917969 5.933594 L 18.777344 5.933594 L 18.777344 5.835938 C 18.839844 5.832031 18.90625 5.832031 18.96875 5.828125 C 18.996094 5.828125 19.019531 5.804688 19.019531 5.777344 C 19.015625 5.75 18.992188 5.730469 18.964844 5.730469 C 18.902344 5.730469 18.839844 5.726562 18.777344 5.722656 L 18.777344 5.570312 C 18.851562 5.570312 18.929688 5.566406 19.003906 5.566406 C 19.03125 5.566406 19.054688 5.542969 19.054688 5.515625 C 19.054688 5.488281 19.03125 5.464844 19.003906 5.464844 C 18.929688 5.464844 18.851562 5.457031 18.777344 5.453125 L 18.777344 5.34375 C 18.851562 5.34375 18.925781 5.34375 18.996094 5.339844 C 19.023438 5.335938 19.046875 5.3125 19.042969 5.285156 C 19.042969 5.257812 19.019531 5.238281 18.988281 5.238281 C 18.921875 5.242188 18.847656 5.238281 18.777344 5.230469 L 18.777344 5.15625 C 18.851562 5.15625 18.925781 5.15625 19.003906 5.15625 C 19.03125 5.15625 19.054688 5.132812 19.054688 5.105469 C 19.054688 5.078125 19.035156 5.058594 19.003906 5.054688 C 18.929688 5.054688 18.851562 5.046875 18.777344 5.042969 L 18.777344 4.917969 C 18.859375 4.921875 18.945312 4.925781 19.03125 4.929688 C 19.0625 4.933594 19.085938 4.910156 19.089844 4.882812 C 19.089844 4.855469 19.070312 4.832031 19.042969 4.832031 C 18.953125 4.820312 18.863281 4.8125 18.777344 4.804688 L 18.777344 4.625 C 18.886719 4.621094 18.996094 4.613281 19.105469 4.617188 C 19.136719 4.617188 19.160156 4.597656 19.160156 4.570312 C 19.164062 4.542969 19.140625 4.519531 19.113281 4.519531 C 19.003906 4.507812 18.894531 4.503906 18.785156 4.503906 C 18.78125 4.503906 18.777344 4.503906 18.777344 4.503906 L 18.777344 4.460938 C 18.855469 4.457031 18.9375 4.457031 19.019531 4.453125 C 19.046875 4.453125 19.070312 4.429688 19.070312 4.402344 C 19.070312 4.375 19.046875 4.355469 19.019531 4.355469 C 18.9375 4.351562 18.855469 4.347656 18.777344 4.34375 L 18.777344 4.175781 C 18.859375 4.171875 18.941406 4.171875 19.027344 4.160156 C 19.054688 4.15625 19.074219 4.132812 19.074219 4.105469 C 19.070312 4.078125 19.046875 4.058594 19.019531 4.0625 C 18.957031 4.0625 18.894531 4.0625 18.835938 4.0625 C 18.816406 4.0625 18.796875 4.058594 18.777344 4.058594 L 18.777344 3.835938 C 18.847656 3.839844 18.921875 3.84375 18.992188 3.84375 C 19.019531 3.847656 19.046875 3.828125 19.046875 3.800781 C 19.050781 3.773438 19.027344 3.746094 19 3.746094 C 18.925781 3.738281 18.851562 3.726562 18.777344 3.71875 L 18.777344 3.65625 C 18.78125 3.65625 18.785156 3.65625 18.789062 3.65625 C 18.882812 3.652344 18.972656 3.644531 19.0625 3.628906 C 19.089844 3.625 19.109375 3.601562 19.105469 3.574219 C 19.101562 3.546875 19.074219 3.527344 19.046875 3.53125 C 18.984375 3.539062 18.917969 3.539062 18.855469 3.539062 C 18.828125 3.539062 18.804688 3.535156 18.78125 3.535156 C 18.855469 3.535156 18.929688 3.53125 19.007812 3.527344 C 19.035156 3.53125 19.058594 3.507812 19.058594 3.480469 C 19.058594 3.453125 19.039062 3.429688 19.011719 3.429688 C 18.949219 3.425781 18.886719 3.421875 18.824219 3.417969 C 18.808594 3.417969 18.792969 3.417969 18.777344 3.417969 L 18.777344 3.269531 C 18.882812 3.269531 18.992188 3.265625 19.101562 3.261719 C 19.128906 3.261719 19.152344 3.238281 19.152344 3.210938 C 19.152344 3.183594 19.128906 3.160156 19.101562 3.160156 C 19.003906 3.160156 18.90625 3.15625 18.808594 3.152344 C 18.796875 3.152344 18.785156 3.152344 18.777344 3.152344 L 18.777344 3.0625 C 18.867188 3.066406 18.953125 3.066406 19.042969 3.066406 C 19.074219 3.066406 19.097656 3.042969 19.097656 3.015625 C 19.097656 2.988281 19.074219 2.964844 19.046875 2.964844 C 18.957031 2.960938 18.867188 2.953125 18.777344 2.949219 L 18.777344 2.882812 C 18.851562 2.882812 18.921875 2.875 18.996094 2.871094 C 19.023438 2.867188 19.046875 2.84375 19.042969 2.816406 C 19.042969 2.789062 19.019531 2.769531 18.988281 2.769531 C 18.917969 2.769531 18.847656 2.769531 18.777344 2.765625 L 18.777344 2.699219 C 18.839844 2.699219 18.90625 2.695312 18.964844 2.683594 C 18.992188 2.679688 19.011719 2.65625 19.007812 2.628906 C 19.003906 2.601562 18.980469 2.582031 18.953125 2.585938 C 18.875 2.59375 18.796875 2.585938 18.71875 2.578125 C 18.664062 2.578125 18.609375 2.570312 18.554688 2.570312 C 18.519531 2.570312 18.484375 2.570312 18.449219 2.574219 L 18.304688 2.582031 L 18.253906 2.585938 C 18.246094 2.585938 18.230469 2.582031 18.226562 2.582031 C 18.207031 2.582031 18.195312 2.585938 18.191406 2.59375 C 18.183594 2.601562 18.175781 2.613281 18.179688 2.628906 C 18.183594 2.632812 18.183594 2.644531 18.199219 2.652344 C 18.203125 2.65625 18.210938 2.660156 18.214844 2.660156 C 18.21875 2.65625 18.222656 2.65625 18.226562 2.660156 L 18.230469 2.660156 C 18.234375 2.664062 18.242188 2.667969 18.246094 2.667969 L 18.300781 2.675781 L 18.375 2.683594 L 18.375 2.761719 C 18.324219 2.761719 18.273438 2.765625 18.222656 2.765625 C 18.199219 2.761719 18.179688 2.78125 18.179688 2.800781 C 18.175781 2.824219 18.191406 2.839844 18.214844 2.84375 C 18.269531 2.851562 18.324219 2.859375 18.375 2.863281 L 18.375 2.929688 C 18.324219 2.933594 18.269531 2.933594 18.21875 2.9375 L 18.023438 2.953125 C 18.023438 2.953125 17.980469 2.960938 17.960938 2.964844 C 17.925781 2.976562 17.921875 3.003906 17.925781 3.011719 C 17.925781 3.03125 17.949219 3.046875 17.96875 3.046875 C 17.972656 3.042969 17.976562 3.042969 17.980469 3.042969 C 17.980469 3.046875 17.988281 3.039062 17.992188 3.035156 C 18.003906 3.035156 18.03125 3.039062 18.03125 3.039062 L 18.21875 3.042969 C 18.273438 3.046875 18.324219 3.050781 18.375 3.050781 L 18.375 3.144531 L 18.167969 3.144531 L 18.070312 3.148438 C 18.058594 3.148438 18.023438 3.152344 18.015625 3.15625 C 18.003906 3.160156 17.996094 3.167969 17.996094 3.171875 C 17.984375 3.1875 17.980469 3.203125 17.996094 3.21875 C 17.996094 3.222656 18.003906 3.230469 18.019531 3.234375 C 18.027344 3.234375 18.03125 3.234375 18.039062 3.234375 C 18.039062 3.230469 18.042969 3.226562 18.046875 3.230469 C 18.046875 3.230469 18.042969 3.230469 18.042969 3.234375 L 18.042969 3.230469 C 18.046875 3.230469 18.046875 3.230469 18.046875 3.230469 L 18.050781 3.230469 C 18.058594 3.230469 18.066406 3.234375 18.070312 3.234375 L 18.164062 3.238281 L 18.375 3.261719 L 18.375 3.40625 L 18.191406 3.398438 C 18.183594 3.398438 18.105469 3.394531 18.09375 3.398438 C 18.0625 3.40625 18.058594 3.425781 18.058594 3.4375 C 18.058594 3.445312 18.0625 3.453125 18.066406 3.460938 C 18.070312 3.464844 18.078125 3.472656 18.09375 3.480469 C 18.101562 3.480469 18.113281 3.480469 18.121094 3.480469 C 18.140625 3.480469 18.175781 3.488281 18.179688 3.488281 L 18.371094 3.519531 C 18.296875 3.523438 18.21875 3.527344 18.140625 3.523438 C 18.105469 3.523438 18.074219 3.523438 18.039062 3.515625 C 18.019531 3.511719 17.996094 3.527344 17.992188 3.546875 C 17.984375 3.566406 18 3.589844 18.019531 3.59375 C 18.058594 3.605469 18.09375 3.613281 18.132812 3.617188 C 18.214844 3.628906 18.300781 3.632812 18.375 3.640625 L 18.375 3.699219 C 18.359375 3.699219 18.34375 3.699219 18.328125 3.699219 L 18.15625 3.710938 C 18.152344 3.710938 18.136719 3.71875 18.121094 3.722656 C 18.117188 3.71875 18.117188 3.71875 18.113281 3.71875 C 18.101562 3.714844 18.09375 3.71875 18.082031 3.722656 C 18.066406 3.734375 18.058594 3.757812 18.070312 3.777344 C 18.074219 3.78125 18.085938 3.792969 18.109375 3.796875 C 18.121094 3.796875 18.15625 3.796875 18.15625 3.796875 L 18.328125 3.808594 C 18.34375 3.808594 18.359375 3.8125 18.375 3.8125 L 18.375 4.046875 C 18.34375 4.046875 18.308594 4.046875 18.273438 4.050781 C 18.230469 4.050781 18.1875 4.054688 18.144531 4.054688 C 18.140625 4.054688 18.097656 4.058594 18.082031 4.0625 C 18.046875 4.066406 18.039062 4.097656 18.039062 4.101562 C 18.039062 4.125 18.058594 4.140625 18.078125 4.140625 C 18.082031 4.140625 18.085938 4.140625 18.089844 4.140625 C 18.089844 4.136719 18.09375 4.132812 18.101562 4.132812 C 18.109375 4.128906 18.117188 4.121094 18.121094 4.109375 C 18.117188 4.117188 18.113281 4.128906 18.101562 4.132812 C 18.117188 4.136719 18.140625 4.144531 18.144531 4.144531 L 18.375 4.164062 L 18.375 4.332031 C 18.332031 4.332031 18.285156 4.332031 18.238281 4.332031 L 18.042969 4.335938 C 18.039062 4.335938 17.996094 4.335938 17.980469 4.339844 C 17.957031 4.347656 17.945312 4.359375 17.941406 4.371094 C 17.9375 4.390625 17.949219 4.410156 17.96875 4.417969 C 17.976562 4.421875 17.988281 4.421875 17.996094 4.417969 C 17.996094 4.414062 18 4.414062 18.003906 4.414062 C 18.007812 4.410156 18.011719 4.40625 18.011719 4.40625 C 18.011719 4.410156 18.011719 4.410156 18.007812 4.410156 L 18.007812 4.414062 C 18.019531 4.414062 18.039062 4.421875 18.042969 4.421875 L 18.234375 4.441406 C 18.28125 4.445312 18.328125 4.449219 18.375 4.449219 L 18.375 4.515625 C 18.351562 4.519531 18.324219 4.519531 18.300781 4.519531 C 18.285156 4.519531 18.132812 4.539062 18.074219 4.527344 C 18.074219 4.53125 18.078125 4.539062 18.078125 4.542969 C 18.078125 4.535156 18.074219 4.53125 18.070312 4.527344 C 18.066406 4.527344 18.066406 4.527344 18.066406 4.527344 C 18.058594 4.519531 18.042969 4.515625 18.03125 4.519531 C 18.007812 4.523438 17.996094 4.546875 18.003906 4.566406 C 18.003906 4.582031 18.019531 4.597656 18.054688 4.609375 C 18.117188 4.625 18.28125 4.628906 18.296875 4.628906 C 18.324219 4.632812 18.351562 4.632812 18.375 4.632812 L 18.375 4.78125 C 18.332031 4.78125 18.289062 4.785156 18.246094 4.785156 C 18.222656 4.785156 18.066406 4.8125 18 4.804688 C 18 4.804688 17.996094 4.804688 17.996094 4.804688 C 17.996094 4.808594 18 4.8125 18 4.8125 C 18 4.808594 17.996094 4.808594 17.992188 4.804688 C 17.980469 4.792969 17.960938 4.792969 17.945312 4.800781 C 17.925781 4.8125 17.921875 4.835938 17.933594 4.855469 C 17.941406 4.871094 17.972656 4.886719 18.015625 4.890625 C 18.09375 4.898438 18.222656 4.894531 18.246094 4.894531 C 18.289062 4.898438 18.332031 4.902344 18.375 4.902344 L 18.375 5.019531 C 18.328125 5.015625 18.28125 5.015625 18.230469 5.015625 C 18.148438 5.011719 18.066406 5.011719 17.984375 5.011719 C 17.960938 5.011719 17.941406 5.027344 17.941406 5.050781 C 17.941406 5.070312 17.957031 5.089844 17.980469 5.089844 C 18.082031 5.105469 18.183594 5.121094 18.285156 5.128906 C 18.316406 5.132812 18.347656 5.136719 18.375 5.140625 L 18.375 5.195312 C 18.34375 5.195312 18.308594 5.191406 18.273438 5.195312 C 18.164062 5.199219 18.058594 5.210938 17.957031 5.246094 C 17.9375 5.25 17.921875 5.273438 17.929688 5.292969 C 17.933594 5.3125 17.957031 5.328125 17.980469 5.320312 C 18.042969 5.308594 18.109375 5.304688 18.175781 5.304688 C 18.226562 5.304688 18.28125 5.308594 18.332031 5.3125 C 18.347656 5.3125 18.363281 5.316406 18.375 5.316406 L 18.375 5.445312 C 18.324219 5.445312 18.277344 5.449219 18.226562 5.457031 C 18.140625 5.464844 18.058594 5.480469 17.980469 5.5 C 17.957031 5.503906 17.941406 5.527344 17.949219 5.546875 C 17.953125 5.566406 17.972656 5.582031 17.996094 5.578125 C 18.058594 5.570312 18.125 5.566406 18.191406 5.566406 C 18.246094 5.5625 18.300781 5.566406 18.351562 5.566406 C 18.359375 5.566406 18.367188 5.566406 18.375 5.566406 L 18.375 5.710938 C 18.332031 5.710938 18.289062 5.710938 18.246094 5.710938 C 18.230469 5.710938 18.089844 5.722656 18.03125 5.726562 C 18.03125 5.726562 18.03125 5.726562 18.027344 5.726562 C 18.03125 5.730469 18.035156 5.734375 18.039062 5.738281 C 18.035156 5.734375 18.027344 5.730469 18.019531 5.726562 C 18.019531 5.726562 18.015625 5.726562 18.015625 5.726562 C 18.007812 5.726562 18 5.726562 17.996094 5.726562 C 17.972656 5.734375 17.960938 5.757812 17.96875 5.777344 C 17.972656 5.78125 17.980469 5.800781 18.003906 5.804688 C 18.007812 5.804688 18.019531 5.804688 18.03125 5.808594 C 18.085938 5.8125 18.226562 5.820312 18.238281 5.820312 C 18.285156 5.824219 18.332031 5.828125 18.375 5.832031 L 18.375 5.933594 L 18.285156 5.933594 L 18.070312 5.9375 L 17.988281 5.941406 C 17.976562 5.941406 17.949219 5.945312 17.941406 5.949219 C 17.917969 5.953125 17.910156 5.960938 17.910156 5.964844 C 17.90625 5.964844 17.890625 6.03125 17.945312 6.027344 C 17.945312 6.027344 17.949219 6.027344 17.949219 6.027344 C 17.949219 6.023438 17.953125 6.023438 17.960938 6.023438 C 17.960938 6.023438 17.964844 6.023438 17.964844 6.019531 C 17.964844 6.023438 17.964844 6.023438 17.964844 6.023438 C 17.972656 6.023438 17.984375 6.027344 17.988281 6.027344 L 18.066406 6.035156 L 18.28125 6.050781 C 18.3125 6.054688 18.34375 6.054688 18.375 6.054688 L 18.375 6.121094 C 18.359375 6.121094 18.34375 6.121094 18.324219 6.125 C 18.261719 6.128906 18.195312 6.132812 18.132812 6.144531 C 18.035156 6.15625 17.941406 6.179688 17.851562 6.210938 C 17.832031 6.214844 17.820312 6.238281 17.824219 6.257812 C 17.832031 6.277344 17.855469 6.289062 17.875 6.285156 C 17.960938 6.265625 18.050781 6.257812 18.144531 6.25 C 18.207031 6.246094 18.265625 6.246094 18.328125 6.246094 C 18.34375 6.246094 18.359375 6.246094 18.375 6.246094 L 18.375 6.433594 L 18.152344 6.441406 C 18.140625 6.441406 18.085938 6.441406 18.0625 6.441406 C 18.050781 6.445312 18.042969 6.445312 18.039062 6.449219 C 18.019531 6.457031 18.015625 6.472656 18.015625 6.484375 C 18.015625 6.492188 18.015625 6.507812 18.035156 6.519531 C 18.042969 6.523438 18.054688 6.523438 18.0625 6.523438 C 18.0625 6.523438 18.066406 6.523438 18.066406 6.523438 C 18.089844 6.523438 18.136719 6.53125 18.148438 6.53125 L 18.375 6.550781 L 18.375 6.703125 C 18.347656 6.703125 18.316406 6.707031 18.285156 6.707031 L 18.042969 6.722656 L 17.972656 6.730469 C 17.964844 6.730469 17.953125 6.734375 17.941406 6.738281 C 17.929688 6.734375 17.917969 6.738281 17.90625 6.75 C 17.886719 6.765625 17.890625 6.785156 17.894531 6.792969 C 17.898438 6.804688 17.90625 6.8125 17.925781 6.820312 C 17.933594 6.820312 17.964844 6.8125 17.980469 6.8125 L 18.042969 6.816406 L 18.289062 6.824219 C 18.316406 6.824219 18.347656 6.824219 18.375 6.824219 L 18.375 16.296875 C 17.761719 16.308594 17.070312 16.347656 17.074219 16.660156 C 17.097656 18.226562 17.074219 24.917969 17.074219 24.917969 C 17.074219 24.917969 17.859375 25.402344 18.492188 25.355469 C 19.257812 25.296875 20.050781 24.917969 20.050781 24.917969 C 20.050781 24.917969 20.070312 18.113281 20.050781 16.660156 Z M 17.949219 5.949219 C 17.945312 5.949219 17.945312 5.949219 17.945312 5.949219 C 17.945312 5.949219 17.949219 5.949219 17.949219 5.949219 Z M 18.089844 6.507812 C 18.089844 6.507812 18.085938 6.511719 18.082031 6.515625 C 18.085938 6.511719 18.089844 6.507812 18.089844 6.503906 C 18.089844 6.503906 18.089844 6.503906 18.089844 6.507812 Z M 18.09375 6.46875 L 18.09375 6.472656 Z M 18.042969 3.234375 C 18.039062 3.234375 18.039062 3.234375 18.039062 3.234375 Z M 18.121094 3.722656 C 18.117188 3.722656 18.113281 3.722656 18.113281 3.71875 C 18.109375 3.710938 18.121094 3.71875 18.121094 3.722656 Z M 18.089844 4.140625 C 18.09375 4.140625 18.09375 4.136719 18.097656 4.136719 C 18.09375 4.140625 18.089844 4.144531 18.089844 4.140625 Z M 18.101562 4.132812 L 18.101562 4.136719 Z M 18.097656 4.136719 L 18.101562 4.136719 Z M 18.003906 4.414062 L 18.007812 4.414062 C 18.003906 4.421875 17.996094 4.425781 17.996094 4.417969 C 18 4.417969 18 4.414062 18.003906 4.414062 Z M 18.066406 4.527344 C 18.070312 4.523438 18.070312 4.527344 18.074219 4.527344 Z M 17.992188 4.804688 C 17.992188 4.800781 17.996094 4.804688 17.996094 4.804688 Z M 18.019531 5.726562 L 18.015625 5.726562 C 18.015625 5.714844 18.023438 5.71875 18.027344 5.726562 C 18.027344 5.726562 18.023438 5.726562 18.019531 5.726562 Z M 17.960938 6.023438 L 17.964844 6.023438 C 17.957031 6.03125 17.949219 6.035156 17.949219 6.027344 C 17.953125 6.027344 17.957031 6.027344 17.960938 6.023438 Z M 18.066406 6.523438 C 18.066406 6.523438 18.0625 6.523438 18.0625 6.523438 Z M 18.066406 6.523438" fill-rule="evenodd"/></g><path fill="#F8D7D6" d="M 10.773438 17.140625 C 10.777344 17.144531 10.777344 17.148438 10.777344 17.148438 C 10.773438 17.148438 10.773438 17.144531 10.773438 17.140625 Z M 10.914062 17.703125 C 10.886719 17.683594 10.832031 17.660156 10.789062 17.628906 C 10.761719 17.609375 10.738281 17.585938 10.726562 17.5625 C 10.71875 17.542969 10.71875 17.523438 10.730469 17.507812 C 10.734375 17.496094 10.75 17.480469 10.777344 17.476562 C 10.78125 17.476562 10.789062 17.476562 10.800781 17.480469 C 10.816406 17.484375 10.855469 17.496094 10.855469 17.496094 L 10.953125 17.535156 C 11.027344 17.5625 11.105469 17.59375 11.179688 17.621094 C 11.230469 17.640625 11.28125 17.65625 11.332031 17.667969 C 11.339844 17.667969 11.359375 17.679688 11.375 17.679688 C 11.375 17.679688 11.371094 17.675781 11.371094 17.671875 C 11.363281 17.660156 11.355469 17.644531 11.34375 17.628906 C 11.3125 17.589844 11.273438 17.558594 11.257812 17.542969 C 11.203125 17.480469 11.144531 17.425781 11.085938 17.371094 C 11.027344 17.316406 10.964844 17.261719 10.902344 17.210938 C 10.894531 17.207031 10.867188 17.183594 10.84375 17.164062 C 10.835938 17.167969 10.832031 17.171875 10.824219 17.171875 C 10.804688 17.175781 10.785156 17.164062 10.777344 17.148438 C 10.777344 17.148438 10.78125 17.148438 10.78125 17.148438 C 10.785156 17.144531 10.78125 17.140625 10.773438 17.136719 L 10.773438 17.140625 L 10.773438 17.136719 C 10.769531 17.132812 10.765625 17.128906 10.765625 17.128906 C 10.757812 17.117188 10.753906 17.105469 10.753906 17.101562 C 10.753906 17.082031 10.761719 17.070312 10.78125 17.0625 C 10.796875 17.054688 10.820312 17.054688 10.847656 17.066406 C 10.886719 17.085938 10.941406 17.132812 10.957031 17.144531 C 11.023438 17.195312 11.089844 17.246094 11.152344 17.304688 C 11.214844 17.359375 11.273438 17.414062 11.332031 17.476562 C 11.355469 17.496094 11.421875 17.554688 11.457031 17.609375 C 11.484375 17.652344 11.492188 17.695312 11.480469 17.726562 C 11.46875 17.753906 11.445312 17.773438 11.414062 17.78125 C 11.378906 17.785156 11.328125 17.777344 11.304688 17.773438 C 11.265625 17.761719 11.222656 17.75 11.179688 17.738281 L 11.203125 17.757812 C 11.273438 17.8125 11.34375 17.871094 11.40625 17.929688 C 11.417969 17.941406 11.464844 17.984375 11.5 18.03125 C 11.527344 18.0625 11.546875 18.097656 11.554688 18.128906 C 11.5625 18.175781 11.550781 18.214844 11.5 18.242188 C 11.453125 18.265625 11.398438 18.269531 11.347656 18.261719 C 11.328125 18.257812 11.304688 18.253906 11.285156 18.246094 C 11.34375 18.289062 11.402344 18.34375 11.445312 18.394531 C 11.496094 18.457031 11.523438 18.523438 11.519531 18.585938 C 11.515625 18.632812 11.488281 18.664062 11.453125 18.679688 C 11.417969 18.699219 11.367188 18.699219 11.335938 18.699219 C 11.285156 18.699219 11.238281 18.695312 11.1875 18.683594 C 11.082031 18.664062 10.976562 18.628906 10.871094 18.613281 C 10.84375 18.609375 10.824219 18.582031 10.832031 18.554688 C 10.835938 18.527344 10.863281 18.511719 10.890625 18.515625 C 10.996094 18.53125 11.101562 18.5625 11.207031 18.582031 C 11.25 18.589844 11.292969 18.59375 11.335938 18.59375 C 11.347656 18.59375 11.367188 18.59375 11.386719 18.589844 C 11.394531 18.585938 11.398438 18.585938 11.402344 18.582031 C 11.402344 18.582031 11.40625 18.582031 11.40625 18.578125 C 11.410156 18.527344 11.367188 18.476562 11.316406 18.425781 C 11.230469 18.339844 11.105469 18.265625 11.050781 18.222656 L 10.953125 18.152344 C 10.9375 18.144531 10.898438 18.125 10.882812 18.113281 C 10.871094 18.105469 10.863281 18.09375 10.859375 18.085938 C 10.851562 18.066406 10.851562 18.050781 10.859375 18.035156 C 10.863281 18.023438 10.875 18.003906 10.90625 17.996094 C 10.972656 17.980469 11.050781 18 11.128906 18.035156 C 11.207031 18.074219 11.289062 18.125 11.367188 18.136719 C 11.386719 18.140625 11.40625 18.140625 11.421875 18.136719 C 11.414062 18.125 11.402344 18.113281 11.398438 18.105469 C 11.367188 18.066406 11.324219 18.03125 11.316406 18.023438 C 11.253906 17.960938 11.1875 17.90625 11.121094 17.855469 C 11.054688 17.800781 10.984375 17.75 10.914062 17.703125 Z M 10.839844 17.097656 C 10.839844 17.089844 10.839844 17.082031 10.832031 17.085938 C 10.828125 17.085938 10.832031 17.09375 10.839844 17.097656 Z M 11.382812 17.683594 C 11.386719 17.683594 11.390625 17.679688 11.390625 17.675781 C 11.386719 17.671875 11.382812 17.675781 11.382812 17.683594 Z M 10.792969 17.597656 C 10.785156 17.59375 10.777344 17.59375 10.773438 17.597656 C 10.769531 17.625 10.777344 17.617188 10.792969 17.597656 Z M 11.511719 19.914062 C 11.535156 19.949219 11.539062 19.980469 11.535156 20.003906 C 11.527344 20.027344 11.507812 20.046875 11.484375 20.0625 C 11.441406 20.082031 11.363281 20.082031 11.339844 20.085938 C 11.273438 20.089844 11.171875 20.089844 11.078125 20.066406 L 11.074219 20.074219 C 11.050781 20.117188 11.027344 20.15625 11.015625 20.191406 C 11.007812 20.214844 10.980469 20.230469 10.953125 20.226562 C 10.925781 20.21875 10.910156 20.191406 10.917969 20.164062 C 10.925781 20.125 10.953125 20.078125 10.980469 20.03125 C 10.925781 20 10.878906 19.957031 10.855469 19.890625 C 10.84375 19.855469 10.847656 19.820312 10.855469 19.796875 C 10.871094 19.761719 10.898438 19.734375 10.9375 19.722656 C 10.996094 19.707031 11.070312 19.722656 11.109375 19.777344 C 11.144531 19.828125 11.152344 19.878906 11.136719 19.933594 C 11.136719 19.945312 11.132812 19.953125 11.132812 19.960938 C 11.203125 19.972656 11.28125 19.96875 11.332031 19.964844 C 11.339844 19.964844 11.363281 19.964844 11.390625 19.964844 C 11.386719 19.960938 11.382812 19.957031 11.378906 19.953125 C 11.34375 19.921875 11.300781 19.890625 11.289062 19.882812 C 11.199219 19.800781 11.085938 19.710938 10.996094 19.605469 C 10.933594 19.535156 10.878906 19.457031 10.84375 19.371094 C 10.820312 19.316406 10.824219 19.277344 10.835938 19.25 C 10.847656 19.226562 10.867188 19.207031 10.890625 19.199219 C 10.914062 19.1875 10.941406 19.183594 10.976562 19.183594 C 10.941406 19.15625 10.910156 19.121094 10.878906 19.085938 C 10.859375 19.058594 10.816406 19.007812 10.804688 18.957031 C 10.796875 18.921875 10.800781 18.890625 10.820312 18.863281 C 10.875 18.785156 10.960938 18.777344 11.054688 18.820312 C 11.195312 18.882812 11.359375 19.054688 11.402344 19.125 C 11.421875 19.160156 11.441406 19.207031 11.453125 19.25 C 11.460938 19.296875 11.460938 19.347656 11.449219 19.390625 C 11.445312 19.40625 11.433594 19.421875 11.417969 19.433594 C 11.40625 19.441406 11.390625 19.445312 11.375 19.449219 C 11.375 19.457031 11.375 19.460938 11.371094 19.46875 C 11.359375 19.484375 11.332031 19.492188 11.316406 19.480469 C 11.285156 19.464844 11.285156 19.441406 11.292969 19.425781 C 11.292969 19.417969 11.300781 19.414062 11.304688 19.40625 C 11.296875 19.410156 11.285156 19.410156 11.273438 19.40625 C 11.265625 19.402344 11.242188 19.390625 11.230469 19.386719 L 11.144531 19.347656 C 11.121094 19.339844 11.050781 19.316406 10.992188 19.308594 C 10.980469 19.308594 10.96875 19.308594 10.957031 19.308594 C 10.960938 19.316406 10.964844 19.320312 10.964844 19.324219 C 10.992188 19.398438 11.039062 19.464844 11.09375 19.527344 C 11.183594 19.625 11.289062 19.714844 11.375 19.792969 C 11.390625 19.808594 11.476562 19.867188 11.511719 19.914062 Z M 11.371094 19.453125 C 11.363281 19.457031 11.359375 19.460938 11.363281 19.464844 C 11.367188 19.46875 11.367188 19.460938 11.371094 19.453125 Z M 11.0625 19.105469 C 11.152344 19.171875 11.253906 19.222656 11.335938 19.300781 C 11.351562 19.316406 11.355469 19.332031 11.355469 19.335938 C 11.359375 19.351562 11.355469 19.367188 11.351562 19.378906 C 11.359375 19.375 11.363281 19.367188 11.367188 19.367188 C 11.375 19.335938 11.371094 19.300781 11.363281 19.269531 C 11.355469 19.234375 11.339844 19.199219 11.320312 19.167969 C 11.289062 19.117188 11.175781 19 11.0625 18.9375 C 11.03125 18.917969 10.996094 18.90625 10.96875 18.902344 C 10.945312 18.898438 10.925781 18.902344 10.910156 18.921875 C 10.910156 18.925781 10.914062 18.929688 10.914062 18.929688 C 10.917969 18.941406 10.925781 18.953125 10.929688 18.964844 C 10.945312 18.984375 10.960938 19.003906 10.96875 19.015625 C 11 19.050781 11.03125 19.078125 11.0625 19.105469 Z M 10.957031 19.300781 C 10.957031 19.300781 10.957031 19.296875 10.957031 19.296875 C 10.957031 19.296875 10.957031 19.300781 10.957031 19.304688 C 10.957031 19.300781 10.957031 19.300781 10.957031 19.300781 Z M 11.019531 19.839844 C 11.011719 19.824219 10.988281 19.820312 10.972656 19.828125 C 10.960938 19.832031 10.960938 19.84375 10.964844 19.855469 C 10.976562 19.890625 11 19.910156 11.027344 19.925781 C 11.039062 19.898438 11.042969 19.867188 11.019531 19.839844 Z M 11.316406 20.359375 C 11.253906 20.324219 11.1875 20.300781 11.128906 20.296875 C 11.070312 20.289062 11.019531 20.296875 10.976562 20.316406 C 10.890625 20.359375 10.863281 20.4375 10.878906 20.53125 C 10.890625 20.585938 10.914062 20.644531 10.945312 20.703125 C 10.996094 20.792969 11.0625 20.875 11.097656 20.914062 C 11.117188 20.933594 11.148438 20.9375 11.171875 20.917969 C 11.191406 20.902344 11.195312 20.871094 11.175781 20.847656 C 11.136719 20.800781 11.050781 20.675781 11.015625 20.5625 C 11.007812 20.535156 11 20.511719 11 20.488281 C 11 20.460938 11.007812 20.441406 11.035156 20.429688 C 11.054688 20.421875 11.085938 20.417969 11.113281 20.421875 C 11.160156 20.425781 11.210938 20.4375 11.257812 20.460938 C 11.332031 20.5 11.402344 20.554688 11.417969 20.628906 C 11.417969 20.636719 11.410156 20.648438 11.402344 20.652344 C 11.402344 20.65625 11.394531 20.660156 11.390625 20.664062 C 11.382812 20.652344 11.371094 20.648438 11.355469 20.648438 C 11.332031 20.652344 11.316406 20.671875 11.320312 20.691406 C 11.324219 20.742188 11.375 20.761719 11.433594 20.734375 C 11.480469 20.71875 11.515625 20.667969 11.511719 20.617188 C 11.503906 20.511719 11.421875 20.417969 11.316406 20.359375 Z M 11.011719 21.4375 C 11 21.441406 10.988281 21.441406 10.988281 21.449219 C 10.988281 21.46875 11 21.488281 11.011719 21.507812 C 11.027344 21.535156 11.050781 21.558594 11.066406 21.574219 C 11.105469 21.621094 11.148438 21.65625 11.191406 21.691406 C 11.261719 21.742188 11.335938 21.789062 11.410156 21.835938 C 11.417969 21.839844 11.449219 21.863281 11.4375 21.90625 C 11.433594 21.914062 11.429688 21.933594 11.425781 21.941406 C 11.425781 21.949219 11.425781 21.960938 11.425781 21.972656 C 11.425781 21.984375 11.425781 21.996094 11.425781 22.007812 C 11.429688 22.058594 11.453125 22.117188 11.46875 22.171875 C 11.476562 22.203125 11.476562 22.234375 11.476562 22.265625 C 11.476562 22.289062 11.460938 22.308594 11.441406 22.316406 C 11.429688 22.320312 11.417969 22.328125 11.394531 22.320312 C 11.390625 22.320312 11.378906 22.316406 11.367188 22.308594 C 11.335938 22.292969 11.265625 22.242188 11.257812 22.238281 C 11.230469 22.21875 11.167969 22.175781 11.105469 22.148438 C 11.082031 22.136719 11.058594 22.128906 11.039062 22.128906 C 11.027344 22.128906 11.019531 22.125 11.015625 22.132812 C 11.011719 22.136719 11.015625 22.140625 11.015625 22.144531 C 11.015625 22.15625 11.019531 22.167969 11.027344 22.179688 C 11.035156 22.207031 11.046875 22.226562 11.058594 22.242188 C 11.089844 22.308594 11.128906 22.371094 11.167969 22.433594 C 11.179688 22.445312 11.1875 22.460938 11.195312 22.472656 C 11.265625 22.515625 11.324219 22.570312 11.359375 22.601562 C 11.371094 22.617188 11.433594 22.683594 11.453125 22.726562 C 11.46875 22.765625 11.460938 22.800781 11.441406 22.820312 C 11.429688 22.835938 11.414062 22.84375 11.394531 22.847656 C 11.394531 22.859375 11.394531 22.867188 11.390625 22.878906 C 11.378906 22.902344 11.355469 22.921875 11.3125 22.917969 C 11.28125 22.917969 11.238281 22.898438 11.214844 22.890625 C 11.191406 22.890625 11.164062 22.898438 11.140625 22.90625 C 11.113281 22.917969 11.089844 22.9375 11.070312 22.960938 C 11.035156 23.007812 11.03125 23.066406 11.035156 23.128906 C 11.046875 23.234375 11.089844 23.339844 11.132812 23.414062 C 11.144531 23.4375 11.136719 23.46875 11.109375 23.480469 C 11.085938 23.496094 11.054688 23.484375 11.039062 23.460938 C 10.996094 23.378906 10.941406 23.257812 10.929688 23.140625 C 10.917969 23.050781 10.933594 22.964844 10.980469 22.898438 C 11.007812 22.863281 11.042969 22.835938 11.078125 22.816406 C 11.070312 22.8125 11.0625 22.804688 11.054688 22.796875 C 11.011719 22.761719 10.972656 22.71875 10.941406 22.667969 C 10.925781 22.640625 10.90625 22.597656 10.90625 22.5625 C 10.902344 22.523438 10.914062 22.488281 10.945312 22.464844 C 10.964844 22.445312 10.988281 22.433594 11.015625 22.425781 C 10.988281 22.386719 10.964844 22.34375 10.941406 22.300781 C 10.921875 22.269531 10.890625 22.210938 10.886719 22.15625 C 10.882812 22.121094 10.886719 22.085938 10.90625 22.0625 C 10.945312 22.007812 11.003906 21.992188 11.074219 22.003906 C 11.164062 22.023438 11.269531 22.09375 11.320312 22.125 C 11.3125 22.089844 11.300781 22.050781 11.296875 22.019531 C 11.296875 22.003906 11.296875 21.988281 11.296875 21.96875 C 11.296875 21.953125 11.296875 21.9375 11.300781 21.917969 C 11.300781 21.917969 11.300781 21.917969 11.300781 21.914062 C 11.238281 21.871094 11.171875 21.832031 11.113281 21.78125 C 11.0625 21.746094 11.019531 21.703125 10.972656 21.652344 C 10.953125 21.625 10.917969 21.589844 10.898438 21.546875 C 10.878906 21.515625 10.867188 21.476562 10.871094 21.445312 C 10.875 21.371094 10.925781 21.335938 10.996094 21.328125 C 10.964844 21.296875 10.9375 21.265625 10.917969 21.238281 C 10.878906 21.175781 10.871094 21.109375 10.90625 21.058594 C 10.925781 21.027344 10.957031 21.007812 10.996094 21 C 11.035156 20.992188 11.085938 21 11.117188 21.007812 C 11.1875 21.023438 11.257812 21.054688 11.316406 21.101562 C 11.375 21.144531 11.421875 21.203125 11.453125 21.269531 C 11.472656 21.308594 11.488281 21.363281 11.484375 21.414062 C 11.480469 21.453125 11.46875 21.488281 11.441406 21.515625 C 11.429688 21.53125 11.40625 21.535156 11.390625 21.523438 C 11.375 21.542969 11.351562 21.558594 11.3125 21.542969 C 11.273438 21.53125 11.175781 21.472656 11.171875 21.46875 L 11.167969 21.464844 C 11.136719 21.457031 11.101562 21.445312 11.066406 21.441406 C 11.046875 21.4375 11.027344 21.4375 11.011719 21.4375 Z M 11.023438 22.558594 C 11.027344 22.5625 11.027344 22.566406 11.027344 22.570312 C 11.03125 22.585938 11.039062 22.601562 11.046875 22.613281 C 11.066406 22.652344 11.097656 22.683594 11.128906 22.710938 C 11.164062 22.738281 11.203125 22.761719 11.242188 22.78125 C 11.25 22.78125 11.261719 22.78125 11.273438 22.78125 C 11.238281 22.742188 11.203125 22.695312 11.195312 22.6875 C 11.164062 22.644531 11.128906 22.601562 11.097656 22.558594 C 11.085938 22.550781 11.074219 22.546875 11.0625 22.542969 C 11.050781 22.539062 11.035156 22.539062 11.027344 22.546875 C 11.023438 22.550781 11.023438 22.554688 11.023438 22.558594 Z M 11.347656 21.441406 C 11.351562 21.433594 11.332031 21.441406 11.328125 21.441406 C 11.324219 21.445312 11.324219 21.445312 11.320312 21.445312 C 11.335938 21.449219 11.34375 21.449219 11.347656 21.441406 Z M 11.03125 21.21875 C 11.078125 21.273438 11.152344 21.328125 11.199219 21.359375 C 11.234375 21.371094 11.261719 21.382812 11.273438 21.390625 C 11.285156 21.394531 11.359375 21.425781 11.378906 21.445312 C 11.382812 21.449219 11.386719 21.453125 11.386719 21.457031 C 11.398438 21.4375 11.402344 21.414062 11.402344 21.390625 C 11.398438 21.359375 11.390625 21.328125 11.378906 21.304688 C 11.347656 21.25 11.308594 21.203125 11.261719 21.171875 C 11.210938 21.132812 11.15625 21.109375 11.097656 21.097656 C 11.078125 21.09375 11.050781 21.089844 11.027344 21.089844 C 11.011719 21.09375 10.996094 21.09375 10.988281 21.105469 C 10.980469 21.121094 10.984375 21.136719 10.988281 21.152344 C 10.996094 21.175781 11.011719 21.195312 11.03125 21.21875 Z M 11.03125 21.21875" fill-rule="evenodd"/><path fill="#F8D7D6" d="M 19.90625 16.75 C 19.855469 16.789062 19.785156 16.816406 19.714844 16.835938 C 19.613281 16.863281 19.507812 16.878906 19.417969 16.894531 C 19.199219 16.933594 18.976562 16.957031 18.753906 16.960938 C 18.667969 16.964844 18.578125 16.960938 18.488281 16.957031 C 18.355469 16.945312 18.222656 16.929688 18.089844 16.902344 C 17.976562 16.878906 17.863281 16.855469 17.753906 16.828125 C 17.640625 16.800781 17.53125 16.769531 17.421875 16.738281 C 17.40625 16.730469 17.285156 16.703125 17.25 16.664062 C 17.230469 16.648438 17.222656 16.628906 17.226562 16.613281 C 17.226562 16.601562 17.230469 16.585938 17.242188 16.574219 C 17.257812 16.558594 17.28125 16.554688 17.300781 16.570312 C 17.3125 16.578125 17.316406 16.597656 17.3125 16.609375 C 17.320312 16.613281 17.339844 16.625 17.351562 16.628906 C 17.390625 16.640625 17.4375 16.648438 17.445312 16.652344 C 17.535156 16.675781 17.621094 16.695312 17.710938 16.714844 C 17.84375 16.742188 17.976562 16.765625 18.109375 16.789062 C 18.238281 16.808594 18.367188 16.824219 18.496094 16.828125 C 18.582031 16.835938 18.667969 16.835938 18.753906 16.835938 C 18.96875 16.835938 19.183594 16.816406 19.398438 16.78125 C 19.484375 16.769531 19.589844 16.757812 19.683594 16.734375 C 19.746094 16.71875 19.800781 16.699219 19.847656 16.667969 C 19.871094 16.652344 19.902344 16.65625 19.917969 16.679688 C 19.933594 16.703125 19.929688 16.734375 19.90625 16.75 Z M 18.742188 16.597656 C 18.746094 16.640625 18.753906 16.679688 18.753906 16.71875 C 18.75 16.742188 18.765625 16.761719 18.785156 16.765625 C 18.808594 16.769531 18.828125 16.753906 18.832031 16.734375 C 18.84375 16.703125 18.851562 16.675781 18.859375 16.644531 C 18.863281 16.621094 18.863281 16.601562 18.867188 16.582031 C 18.867188 16.570312 18.867188 16.558594 18.867188 16.546875 C 18.867188 16.527344 18.867188 16.511719 18.863281 16.492188 C 18.859375 16.449219 18.851562 16.410156 18.851562 16.367188 C 18.851562 16.339844 18.828125 16.316406 18.800781 16.316406 C 18.773438 16.316406 18.75 16.335938 18.746094 16.363281 C 18.742188 16.410156 18.738281 16.460938 18.738281 16.511719 C 18.734375 16.527344 18.738281 16.542969 18.738281 16.554688 C 18.738281 16.570312 18.738281 16.582031 18.742188 16.597656 Z M 18.335938 16.71875 C 18.339844 16.742188 18.359375 16.757812 18.382812 16.753906 C 18.402344 16.75 18.417969 16.726562 18.414062 16.707031 C 18.414062 16.671875 18.421875 16.636719 18.425781 16.601562 C 18.429688 16.574219 18.429688 16.550781 18.433594 16.527344 C 18.433594 16.503906 18.433594 16.476562 18.4375 16.453125 C 18.4375 16.414062 18.433594 16.375 18.433594 16.335938 C 18.433594 16.308594 18.410156 16.285156 18.382812 16.285156 C 18.355469 16.285156 18.332031 16.304688 18.328125 16.332031 C 18.324219 16.375 18.316406 16.421875 18.308594 16.464844 C 18.304688 16.484375 18.304688 16.503906 18.304688 16.523438 C 18.300781 16.535156 18.300781 16.546875 18.304688 16.558594 C 18.304688 16.582031 18.304688 16.601562 18.308594 16.625 C 18.316406 16.65625 18.324219 16.6875 18.335938 16.71875 Z M 18.335938 16.71875" fill-rule="evenodd"/><path fill="#F8D7D6" d="M 10.839844 4.910156 C 10.804688 4.898438 10.808594 4.867188 10.8125 4.859375 C 10.816406 4.851562 10.824219 4.839844 10.839844 4.832031 C 10.851562 4.828125 10.90625 4.824219 10.929688 4.824219 L 11.070312 4.8125 L 11.472656 4.785156 C 11.554688 4.78125 11.636719 4.777344 11.714844 4.773438 C 11.796875 4.769531 11.878906 4.769531 11.960938 4.769531 C 12.207031 4.769531 12.449219 4.777344 12.691406 4.777344 C 12.722656 4.777344 12.746094 4.800781 12.746094 4.828125 C 12.746094 4.855469 12.722656 4.878906 12.695312 4.878906 C 12.523438 4.882812 12.351562 4.886719 12.179688 4.890625 C 12.066406 4.894531 11.953125 4.894531 11.839844 4.898438 C 11.71875 4.898438 11.597656 4.898438 11.476562 4.902344 L 11.074219 4.90625 L 10.933594 4.910156 C 10.921875 4.910156 10.894531 4.90625 10.878906 4.90625 C 10.867188 4.914062 10.851562 4.914062 10.839844 4.910156 Z M 12.714844 5.410156 C 12.46875 5.402344 12.21875 5.390625 11.972656 5.390625 C 11.90625 5.390625 11.839844 5.390625 11.773438 5.390625 C 11.675781 5.394531 11.574219 5.398438 11.476562 5.402344 L 11.066406 5.433594 L 10.9375 5.441406 C 10.925781 5.441406 10.890625 5.4375 10.878906 5.441406 C 10.867188 5.441406 10.855469 5.445312 10.851562 5.445312 C 10.839844 5.457031 10.832031 5.464844 10.832031 5.480469 C 10.832031 5.488281 10.832031 5.5 10.847656 5.515625 C 10.859375 5.523438 10.871094 5.527344 10.886719 5.519531 C 10.886719 5.519531 10.882812 5.523438 10.882812 5.519531 C 10.882812 5.511719 10.890625 5.511719 10.898438 5.515625 C 10.894531 5.515625 10.894531 5.515625 10.894531 5.519531 C 10.894531 5.515625 10.898438 5.519531 10.902344 5.515625 C 10.917969 5.519531 10.933594 5.523438 10.941406 5.523438 L 11.070312 5.527344 L 11.480469 5.523438 C 11.582031 5.519531 11.683594 5.519531 11.789062 5.515625 C 11.890625 5.515625 11.992188 5.515625 12.097656 5.511719 C 12.300781 5.511719 12.507812 5.511719 12.714844 5.511719 C 12.742188 5.511719 12.765625 5.488281 12.765625 5.460938 C 12.765625 5.433594 12.746094 5.410156 12.714844 5.410156 Z M 12.714844 5.410156"/><path fill="#C4456F" d="M 10.996094 16.257812 C 10.996094 16.253906 10.996094 16.253906 11 16.257812 Z M 12.027344 17.15625 C 12.03125 17.160156 12.035156 17.152344 12.039062 17.148438 C 12.035156 17.152344 12.03125 17.152344 12.027344 17.15625 Z M 12.511719 16.960938 C 12.457031 16.992188 12.402344 17.019531 12.347656 17.046875 C 12.320312 17.058594 12.292969 17.070312 12.261719 17.082031 C 12.234375 17.09375 12.207031 17.101562 12.179688 17.109375 L 12.074219 17.140625 C 12.066406 17.140625 12.046875 17.144531 12.039062 17.148438 C 12.03125 17.152344 12.027344 17.152344 12.027344 17.15625 C 12.054688 17.253906 12.074219 17.355469 12.089844 17.464844 C 12.097656 17.464844 12.101562 17.460938 12.109375 17.464844 L 12.105469 17.460938 C 12.113281 17.460938 12.128906 17.445312 12.144531 17.4375 C 12.15625 17.433594 12.164062 17.429688 12.175781 17.425781 C 12.183594 17.421875 12.1875 17.421875 12.195312 17.421875 C 12.238281 17.417969 12.273438 17.417969 12.28125 17.417969 C 12.308594 17.414062 12.335938 17.429688 12.339844 17.457031 C 12.34375 17.484375 12.324219 17.511719 12.296875 17.515625 C 12.292969 17.515625 12.265625 17.53125 12.234375 17.539062 C 12.226562 17.542969 12.214844 17.546875 12.207031 17.546875 C 12.199219 17.546875 12.195312 17.550781 12.1875 17.550781 C 12.152344 17.550781 12.125 17.546875 12.113281 17.542969 C 12.105469 17.542969 12.101562 17.542969 12.097656 17.539062 C 12.101562 17.570312 12.105469 17.601562 12.105469 17.628906 C 12.109375 17.65625 12.089844 17.683594 12.058594 17.683594 C 12.03125 17.6875 12.007812 17.667969 12.003906 17.640625 C 11.988281 17.492188 11.960938 17.351562 11.921875 17.222656 C 11.820312 17.273438 11.828125 17.234375 11.902344 17.160156 C 11.886719 17.121094 11.871094 17.078125 11.851562 17.039062 C 11.808594 16.949219 11.753906 16.863281 11.6875 16.78125 C 11.625 16.707031 11.550781 16.636719 11.460938 16.574219 C 11.410156 16.535156 11.355469 16.5 11.296875 16.464844 C 11.238281 16.433594 11.179688 16.402344 11.121094 16.378906 C 11.101562 16.371094 11.03125 16.355469 10.988281 16.339844 C 10.960938 16.328125 10.941406 16.316406 10.9375 16.308594 C 10.921875 16.289062 10.925781 16.265625 10.945312 16.253906 C 10.960938 16.242188 10.980469 16.242188 10.996094 16.257812 C 11 16.257812 11 16.257812 11 16.261719 C 11 16.261719 11 16.257812 11 16.257812 C 11.039062 16.273438 11.125 16.285156 11.152344 16.292969 C 11.152344 16.257812 11.148438 16.226562 11.152344 16.191406 C 11.15625 16.160156 11.164062 16.125 11.171875 16.09375 C 11.175781 16.074219 11.179688 16.054688 11.183594 16.035156 C 11.195312 16.003906 11.203125 15.976562 11.214844 15.949219 C 11.242188 15.878906 11.277344 15.8125 11.304688 15.746094 C 11.3125 15.722656 11.34375 15.707031 11.371094 15.71875 C 11.394531 15.726562 11.410156 15.753906 11.402344 15.78125 C 11.382812 15.835938 11.367188 15.890625 11.347656 15.949219 C 11.335938 15.984375 11.328125 16.019531 11.316406 16.058594 C 11.304688 16.085938 11.292969 16.117188 11.285156 16.148438 C 11.273438 16.175781 11.265625 16.207031 11.257812 16.234375 C 11.25 16.265625 11.242188 16.296875 11.238281 16.328125 C 11.273438 16.34375 11.3125 16.355469 11.347656 16.375 C 11.410156 16.40625 11.472656 16.441406 11.53125 16.480469 C 11.542969 16.488281 11.554688 16.5 11.570312 16.507812 C 11.578125 16.484375 11.585938 16.460938 11.597656 16.4375 C 11.613281 16.40625 11.628906 16.375 11.648438 16.34375 C 11.660156 16.324219 11.671875 16.304688 11.683594 16.289062 C 11.703125 16.261719 11.722656 16.238281 11.746094 16.214844 C 11.796875 16.152344 11.851562 16.09375 11.898438 16.035156 C 11.914062 16.015625 11.945312 16.007812 11.96875 16.023438 C 11.992188 16.039062 11.996094 16.070312 11.980469 16.09375 C 11.949219 16.144531 11.914062 16.195312 11.875 16.25 C 11.851562 16.285156 11.824219 16.316406 11.800781 16.351562 C 11.78125 16.378906 11.757812 16.40625 11.738281 16.429688 C 11.71875 16.457031 11.699219 16.484375 11.679688 16.511719 C 11.667969 16.53125 11.65625 16.546875 11.644531 16.566406 C 11.699219 16.609375 11.746094 16.652344 11.789062 16.703125 C 11.8125 16.730469 11.832031 16.761719 11.851562 16.792969 C 11.863281 16.777344 11.875 16.761719 11.886719 16.746094 C 11.925781 16.707031 11.984375 16.667969 12.015625 16.644531 C 12.054688 16.617188 12.09375 16.585938 12.132812 16.558594 C 12.171875 16.53125 12.210938 16.507812 12.246094 16.484375 C 12.304688 16.449219 12.359375 16.410156 12.414062 16.371094 C 12.433594 16.351562 12.46875 16.355469 12.484375 16.375 C 12.503906 16.398438 12.503906 16.429688 12.480469 16.445312 C 12.421875 16.503906 12.355469 16.554688 12.289062 16.605469 C 12.253906 16.628906 12.222656 16.652344 12.1875 16.675781 C 12.152344 16.699219 12.117188 16.71875 12.085938 16.738281 C 12.058594 16.757812 12.007812 16.777344 11.96875 16.804688 C 11.945312 16.816406 11.925781 16.828125 11.917969 16.84375 C 11.914062 16.851562 11.90625 16.855469 11.902344 16.863281 C 11.925781 16.902344 11.949219 16.945312 11.96875 16.988281 C 11.980469 17.019531 11.988281 17.046875 12 17.078125 C 12.011719 17.070312 12.027344 17.058594 12.035156 17.054688 L 12.132812 17.003906 C 12.164062 16.988281 12.199219 16.972656 12.230469 16.957031 C 12.261719 16.945312 12.292969 16.9375 12.324219 16.925781 C 12.371094 16.90625 12.417969 16.894531 12.460938 16.871094 C 12.484375 16.859375 12.515625 16.867188 12.53125 16.890625 C 12.542969 16.914062 12.535156 16.945312 12.511719 16.960938 Z M 12.121094 17.46875 C 12.125 17.46875 12.128906 17.472656 12.132812 17.476562 C 12.128906 17.472656 12.125 17.46875 12.121094 17.46875 Z M 12.109375 17.464844 L 12.113281 17.464844 C 12.113281 17.464844 12.113281 17.464844 12.117188 17.464844 C 12.117188 17.464844 12.113281 17.464844 12.113281 17.464844 C 12.109375 17.464844 12.109375 17.464844 12.109375 17.464844 Z M 12.101562 17.460938 C 12.101562 17.460938 12.105469 17.460938 12.105469 17.460938 C 12.105469 17.460938 12.105469 17.460938 12.101562 17.460938 Z M 12.101562 17.460938"/></svg>