<svg xmlns="http://www.w3.org/2000/svg" width="30" viewBox="0 0 30 30" height="30" version="1.0"><defs><clipPath id="a"><path d="M 4.21875 4 L 12 4 L 12 10 L 4.21875 10 Z M 4.21875 4"/></clipPath><clipPath id="b"><path d="M 7 4 L 23 4 L 23 24.246094 L 7 24.246094 Z M 7 4"/></clipPath><clipPath id="c"><path d="M 24 11 L 25.269531 11 L 25.269531 13 L 24 13 Z M 24 11"/></clipPath><clipPath id="d"><path d="M 4.21875 10 L 6 10 L 6 12 L 4.21875 12 Z M 4.21875 10"/></clipPath><clipPath id="e"><path d="M 4.21875 12 L 6 12 L 6 13 L 4.21875 13 Z M 4.21875 12"/></clipPath><clipPath id="f"><path d="M 4.21875 11 L 5 11 L 5 13 L 4.21875 13 Z M 4.21875 11"/></clipPath></defs><path fill="#C4456F" d="M 21.46875 4.957031 C 20.707031 4.285156 19.375 3.941406 18.609375 4.613281 C 17.84375 5.285156 17.84375 6.699219 18.609375 7.371094 L 21.46875 9.789062 L 24.332031 7.371094 C 25.097656 6.699219 25.097656 5.285156 24.332031 4.613281 C 23.566406 3.941406 22.234375 4.285156 21.46875 4.957031"/><g clip-path="url(#a)"><path fill="#C4456F" d="M 7.949219 4.949219 C 7.199219 4.277344 5.894531 3.933594 5.148438 4.605469 C 4.398438 5.277344 4.398438 6.6875 5.148438 7.359375 L 7.949219 9.78125 L 10.753906 7.359375 C 11.5 6.6875 11.5 5.277344 10.753906 4.605469 C 10.003906 3.933594 8.699219 4.277344 7.949219 4.949219"/></g><g clip-path="url(#b)"><path fill="#C4456F" d="M 22.453125 17.109375 L 22.453125 14.828125 L 16.496094 10.738281 L 16.496094 7.359375 C 16.496094 6.40625 15.613281 4.957031 14.746094 4.957031 C 13.875 4.957031 12.992188 6.40625 12.992188 7.359375 L 12.992188 10.738281 L 7.039062 14.828125 L 7.039062 17.109375 L 12.992188 14.164062 L 12.992188 19.4375 L 9.839844 21.855469 L 9.839844 24.246094 L 14.746094 21.492188 L 19.648438 24.246094 L 19.648438 21.855469 L 16.496094 19.4375 L 16.496094 14.164062 L 22.453125 17.109375"/></g><path fill="#C4456F" d="M 24.554688 11.847656 L 23.851562 11.847656 L 23.851562 11.160156 L 24.554688 11.160156 L 24.554688 11.847656"/><path fill="#C4456F" d="M 24.554688 13.226562 L 23.851562 13.226562 L 23.851562 12.535156 L 24.554688 12.535156 L 24.554688 13.226562"/><path fill="#C4456F" d="M 23.851562 12.535156 L 23.152344 12.535156 L 23.152344 11.847656 L 23.851562 11.847656 L 23.851562 12.535156"/><g clip-path="url(#c)"><path fill="#C4456F" d="M 25.253906 12.535156 L 24.554688 12.535156 L 24.554688 11.847656 L 25.253906 11.847656 L 25.253906 12.535156"/></g><g clip-path="url(#d)"><path fill="#C4456F" d="M 5.636719 11.503906 L 4.933594 11.503906 L 4.933594 10.8125 L 5.636719 10.8125 L 5.636719 11.503906"/></g><g clip-path="url(#e)"><path fill="#C4456F" d="M 5.636719 12.878906 L 4.933594 12.878906 L 4.933594 12.191406 L 5.636719 12.191406 L 5.636719 12.878906"/></g><g clip-path="url(#f)"><path fill="#C4456F" d="M 4.933594 12.191406 L 4.234375 12.191406 L 4.234375 11.503906 L 4.933594 11.503906 L 4.933594 12.191406"/></g><path fill="#C4456F" d="M 6.335938 12.191406 L 5.636719 12.191406 L 5.636719 11.503906 L 6.335938 11.503906 L 6.335938 12.191406"/><path fill="#C4456F" d="M 10.191406 19.082031 L 9.488281 19.082031 L 9.488281 17.015625 L 10.191406 17.015625 L 10.191406 19.082031"/><path fill="#C4456F" d="M 11.589844 18.390625 L 10.890625 18.390625 L 10.890625 16.324219 L 11.589844 16.324219 L 11.589844 18.390625"/><path fill="#C4456F" d="M 8.789062 20.113281 L 8.089844 20.113281 L 8.089844 18.046875 L 8.789062 18.046875 L 8.789062 20.113281"/><path fill="#C4456F" d="M 20 19.082031 L 19.296875 19.082031 L 19.296875 17.015625 L 20 17.015625 L 20 19.082031"/><path fill="#C4456F" d="M 18.597656 18.390625 L 17.898438 18.390625 L 17.898438 16.324219 L 18.597656 16.324219 L 18.597656 18.390625"/><path fill="#C4456F" d="M 21.402344 20.113281 L 20.699219 20.113281 L 20.699219 18.046875 L 21.402344 18.046875 L 21.402344 20.113281"/></svg>