<svg xmlns="http://www.w3.org/2000/svg" width="30" viewBox="0 0 30 30" height="30" version="1.0"><defs><clipPath id="a"><path d="M 12 2.902344 L 16 2.902344 L 16 19 L 12 19 Z M 12 2.902344"/></clipPath><clipPath id="b"><path d="M 14 5 L 21.457031 5 L 21.457031 13 L 14 13 Z M 14 5"/></clipPath><clipPath id="c"><path d="M 8.390625 20 L 19 20 L 19 26.128906 L 8.390625 26.128906 Z M 8.390625 20"/></clipPath></defs><g clip-path="url(#a)"><path fill="#C4456F" d="M 12.382812 18.058594 C 12.316406 18.058594 12.300781 18.007812 12.300781 17.972656 C 12.066406 17.003906 12.199219 16.117188 12.84375 15.328125 C 13.011719 15.128906 13.242188 15.011719 13.492188 14.941406 C 13.605469 14.910156 13.640625 14.859375 13.625 14.757812 C 13.625 14.707031 13.625 14.660156 13.625 14.589844 C 13.625 10.773438 13.625 6.957031 13.625 3.121094 C 13.605469 3.039062 13.558594 2.902344 13.722656 2.902344 C 13.804688 2.902344 13.855469 2.921875 13.855469 3.019531 C 13.855469 3.085938 13.855469 3.136719 13.855469 3.203125 C 13.855469 7.003906 13.855469 10.789062 13.855469 14.589844 C 13.855469 14.808594 13.90625 14.941406 14.136719 14.992188 C 14.484375 15.09375 14.714844 15.363281 14.882812 15.664062 C 15.113281 16.066406 15.246094 16.515625 15.230469 17.003906 C 15.214844 17.355469 15.246094 17.707031 15.148438 18.058594 C 14.234375 18.042969 13.308594 18.058594 12.382812 18.058594 Z M 12.382812 18.058594"/></g><g clip-path="url(#b)"><path fill="#C4456F" d="M 21.390625 12.683594 C 21.207031 11.460938 20.296875 10.4375 19.105469 10.136719 C 18.988281 10.105469 18.921875 10.070312 18.890625 9.96875 C 18.804688 9.785156 18.675781 9.652344 18.492188 9.601562 C 18.308594 9.550781 18.292969 9.449219 18.292969 9.300781 C 18.292969 8.195312 18.292969 7.105469 18.292969 6 C 18.292969 5.917969 18.308594 5.816406 18.195312 5.816406 C 18.078125 5.816406 18.09375 5.917969 18.09375 6 C 18.09375 6.035156 18.09375 6.085938 18.09375 6.117188 C 18.09375 7.191406 18.09375 8.277344 18.09375 9.351562 C 18.09375 9.484375 18.078125 9.550781 17.929688 9.585938 C 17.746094 9.636719 17.597656 9.734375 17.515625 9.917969 C 17.464844 10.054688 17.382812 10.105469 17.234375 10.152344 C 16.671875 10.304688 16.171875 10.589844 15.792969 11.023438 C 15.34375 11.511719 15.0625 12.078125 14.980469 12.75 C 14.964844 12.933594 14.996094 12.96875 15.164062 12.96875 C 16.171875 12.96875 17.183594 12.96875 18.175781 12.96875 C 19.171875 12.96875 20.179688 12.96875 21.175781 12.96875 C 21.40625 12.949219 21.421875 12.917969 21.390625 12.683594 Z M 17.183594 10.875 C 16.519531 11.125 16.089844 11.59375 15.824219 12.246094 C 15.777344 12.363281 15.695312 12.398438 15.59375 12.363281 C 15.476562 12.332031 15.460938 12.230469 15.496094 12.128906 C 15.792969 11.375 16.289062 10.839844 17.050781 10.539062 C 17.21875 10.472656 17.332031 10.539062 17.347656 10.65625 C 17.347656 10.789062 17.28125 10.839844 17.183594 10.875 Z M 17.78125 10.003906 C 17.761719 9.988281 17.730469 9.96875 17.730469 9.953125 C 17.730469 9.871094 17.78125 9.800781 17.847656 9.753906 C 17.914062 9.703125 17.976562 9.667969 18.0625 9.71875 C 18.078125 9.734375 18.09375 9.753906 18.09375 9.769531 C 18.078125 9.820312 17.796875 10.019531 17.78125 10.003906 Z M 17.78125 10.003906"/></g><path fill="#C4456F" d="M 12.382812 18.058594 C 12.363281 18.089844 12.363281 18.125 12.347656 18.160156 C 12.066406 18.660156 11.835938 19.195312 11.570312 19.714844 C 11.472656 19.917969 11.320312 20.101562 11.273438 20.320312 C 11.320312 20.4375 11.4375 20.402344 11.519531 20.402344 C 12.929688 20.402344 14.335938 20.402344 15.757812 20.402344 C 15.859375 20.402344 15.957031 20.386719 16.058594 20.351562 C 15.757812 19.582031 15.476562 18.828125 15.179688 18.058594 C 14.234375 18.042969 13.308594 18.058594 12.382812 18.058594 Z M 12.382812 18.058594"/><g clip-path="url(#c)"><path fill="#C4456F" d="M 18.128906 25.910156 C 18.09375 25.726562 18.042969 25.542969 17.976562 25.375 C 17.597656 24.386719 17.21875 23.382812 16.835938 22.394531 C 16.570312 21.707031 16.304688 21.023438 16.042969 20.351562 C 15.941406 20.386719 15.84375 20.402344 15.742188 20.402344 C 14.335938 20.402344 12.929688 20.402344 11.503906 20.402344 C 11.421875 20.402344 11.304688 20.4375 11.253906 20.320312 C 11.023438 20.769531 10.777344 21.222656 10.542969 21.675781 C 9.929688 22.878906 9.335938 24.101562 8.722656 25.308594 C 8.621094 25.492188 8.558594 25.695312 8.492188 25.878906 C 8.425781 26.0625 8.472656 26.128906 8.65625 26.128906 C 11.753906 26.128906 14.847656 26.128906 17.945312 26.128906 C 18.144531 26.128906 18.160156 26.046875 18.128906 25.910156 Z M 18.128906 25.910156"/></g><path fill="#C4456F" d="M 15.59375 12.382812 C 15.695312 12.414062 15.792969 12.382812 15.824219 12.265625 C 16.074219 11.609375 16.519531 11.140625 17.183594 10.890625 C 17.265625 10.855469 17.347656 10.808594 17.347656 10.691406 C 17.347656 10.554688 17.234375 10.503906 17.050781 10.574219 C 16.289062 10.855469 15.792969 11.410156 15.496094 12.164062 C 15.460938 12.246094 15.476562 12.332031 15.59375 12.382812 Z M 15.59375 12.382812"/><path fill="#C4456F" d="M 17.78125 10.003906 C 17.8125 10.019531 18.09375 9.820312 18.09375 9.769531 C 18.09375 9.753906 18.078125 9.734375 18.0625 9.71875 C 17.976562 9.667969 17.914062 9.71875 17.847656 9.753906 C 17.78125 9.800781 17.730469 9.871094 17.730469 9.953125 C 17.714844 9.96875 17.746094 9.988281 17.78125 10.003906 Z M 17.78125 10.003906"/></svg>