<svg xmlns="http://www.w3.org/2000/svg" width="30" viewBox="0 0 30 30" height="30" version="1.0"><defs><clipPath id="a"><path d="M 3.921875 4.546875 L 24.972656 4.546875 L 24.972656 23.417969 L 3.921875 23.417969 Z M 3.921875 4.546875"/></clipPath></defs><path fill="#C4456F" d="M 17.816406 15.03125 C 17.816406 15.476562 17.730469 15.902344 17.558594 16.3125 C 17.386719 16.726562 17.144531 17.085938 16.828125 17.402344 C 16.511719 17.714844 16.148438 17.960938 15.734375 18.128906 C 15.324219 18.300781 14.894531 18.382812 14.445312 18.382812 C 14 18.382812 13.570312 18.300781 13.160156 18.128906 C 12.746094 17.960938 12.382812 17.714844 12.066406 17.402344 C 11.75 17.085938 11.507812 16.726562 11.335938 16.3125 C 11.164062 15.902344 11.078125 15.476562 11.078125 15.03125 C 11.078125 14.585938 11.164062 14.15625 11.335938 13.746094 C 11.507812 13.335938 11.75 12.972656 12.066406 12.660156 C 12.382812 12.34375 12.746094 12.101562 13.160156 11.929688 C 13.570312 11.761719 14 11.675781 14.445312 11.675781 C 14.894531 11.675781 15.324219 11.761719 15.734375 11.929688 C 16.148438 12.101562 16.511719 12.34375 16.828125 12.660156 C 17.144531 12.972656 17.386719 13.335938 17.558594 13.746094 C 17.730469 14.15625 17.816406 14.585938 17.816406 15.03125 Z M 17.816406 15.03125"/><g clip-path="url(#a)"><path fill="#C4456F" d="M 11.289062 4.546875 L 9.363281 6.644531 L 6.027344 6.644531 C 4.863281 6.644531 3.921875 7.582031 3.921875 8.742188 L 3.921875 21.320312 C 3.921875 22.476562 4.863281 23.414062 6.027344 23.414062 L 22.867188 23.414062 C 24.03125 23.414062 24.972656 22.476562 24.972656 21.320312 L 24.972656 8.742188 C 24.972656 7.582031 24.03125 6.644531 22.867188 6.644531 L 19.53125 6.644531 L 17.605469 4.546875 Z M 14.445312 20.269531 C 11.542969 20.269531 9.183594 17.921875 9.183594 15.03125 C 9.183594 12.136719 11.542969 9.789062 14.445312 9.789062 C 17.351562 9.789062 19.710938 12.136719 19.710938 15.03125 C 19.710938 17.921875 17.351562 20.269531 14.445312 20.269531 Z M 14.445312 20.269531"/></g></svg>