<svg xmlns="http://www.w3.org/2000/svg" width="30" viewBox="0 0 30 30" height="30" version="1.0"><defs><clipPath id="a"><path d="M 5.824219 2.902344 L 23.972656 2.902344 L 23.972656 26.128906 L 5.824219 26.128906 Z M 5.824219 2.902344"/></clipPath></defs><g clip-path="url(#a)"><path fill="#C4456F" d="M 5.828125 12.070312 C 5.828125 18.246094 14.757812 26.128906 14.898438 26.128906 C 14.925781 26.128906 23.96875 18.535156 23.96875 12.070312 C 23.96875 7.015625 19.902344 2.902344 14.898438 2.902344 C 9.894531 2.902344 5.828125 7.015625 5.828125 12.070312 Z M 15.101562 11.625 C 15.101562 9.816406 16.355469 8.992188 17.519531 8.992188 C 18.683594 8.992188 19.9375 9.816406 19.9375 11.625 C 19.9375 14.277344 15.589844 17.449219 14.898438 17.9375 C 14.207031 17.449219 9.859375 14.277344 9.859375 11.625 C 9.859375 9.867188 11.066406 8.992188 12.277344 8.992188 C 13.488281 8.992188 14.695312 9.867188 14.695312 11.625 C 14.695312 11.761719 14.765625 11.828125 14.898438 11.828125 C 15.03125 11.828125 15.101562 11.761719 15.101562 11.625 Z M 15.101562 11.625"/></g></svg>