<svg width="13" height="13" viewBox="0 0 13 13" fill="none" xmlns="http://www.w3.org/2000/svg">
<g clip-path="url(#clip0_1710_9712)">
<path d="M1.625 12.5938C1.62495 12.6643 1.64327 12.7336 1.67816 12.795C1.71305 12.8563 1.7633 12.9074 1.82397 12.9434C1.88465 12.9794 1.95365 12.999 2.02419 13.0002C2.09472 13.0015 2.16436 12.9843 2.22625 12.9504L6.5 10.6186L10.7738 12.9504C10.8356 12.9843 10.9053 13.0015 10.9758 13.0002C11.0464 12.999 11.1154 12.9794 11.176 12.9434C11.2367 12.9074 11.287 12.8563 11.3218 12.795C11.3567 12.7336 11.3751 12.6643 11.375 12.5938V1.625C11.375 1.19402 11.2038 0.780698 10.899 0.475951C10.5943 0.171205 10.181 0 9.75 0L3.25 0C2.81902 0 2.4057 0.171205 2.10095 0.475951C1.7962 0.780698 1.625 1.19402 1.625 1.625V12.5938ZM6.5 3.58312C7.62694 2.42531 10.4439 4.4525 6.5 7.05819C2.55612 4.4525 5.37306 2.42613 6.5 3.58475V3.58312Z" fill="black"/>
</g>
<defs>
<clipPath id="clip0_1710_9712">
<rect width="13" height="13" fill="white"/>
</clipPath>
</defs>
</svg>
