<svg width="18" height="17" viewBox="0 0 18 17" fill="none" xmlns="http://www.w3.org/2000/svg">
<path d="M6.74989 13.5417C6.74989 14.6928 5.48989 15.6251 3.93739 15.6251C2.38489 15.6251 1.12489 14.6928 1.12489 13.5417C1.12489 12.3917 2.38489 11.4584 3.93739 11.4584C5.48989 11.4584 6.74989 12.3917 6.74989 13.5417ZM16.8749 11.4584C16.8749 12.6094 15.6149 13.5417 14.0624 13.5417C12.5099 13.5417 11.2499 12.6094 11.2499 11.4584C11.2499 10.3074 12.5099 9.37506 14.0624 9.37506C15.6149 9.37506 16.8749 10.3074 16.8749 11.4584Z" fill="#EFDEE4"/>
<path fill-rule="evenodd" clip-rule="evenodd" d="M15.7499 11.4584V2.08337H16.8749V11.4584H15.7499ZM6.74995 3.12504V13.5417H5.62495V3.12504H6.74995Z" fill="#EFDEE4"/>
<path d="M5.62495 3.02608C5.62494 2.76784 5.72853 2.51881 5.91562 2.3273C6.10271 2.13578 6.35995 2.01544 6.63745 1.98962L15.6374 1.15628C15.7939 1.14173 15.9519 1.15769 16.1012 1.20315C16.2506 1.24861 16.388 1.32255 16.5046 1.42021C16.6212 1.51787 16.7144 1.63708 16.7782 1.77014C16.842 1.9032 16.8749 2.04716 16.8749 2.19274V3.12503L5.62495 4.1667V3.02608Z" fill="#EFDEE4"/>
</svg>
