<svg width="18" height="20" viewBox="0 0 18 20" fill="none" xmlns="http://www.w3.org/2000/svg">
<path d="M1.09232 10.891C0.996902 10.9659 0.929605 11.0779 0.903474 11.2054C0.877344 11.3329 0.894241 11.4667 0.950891 11.581L2.10369 13.825C2.222 14.055 2.4933 14.15 2.70589 14.033L6.22657 12.116V19H8.00559V11.146L11.6268 9.17298L9.29626 4.63298L1.09232 10.891ZM16.4177 3.03698C15.9383 2.10503 15.1494 1.42521 14.2243 1.14694C13.2993 0.868661 12.3138 1.01471 11.4845 1.55298C10.675 2.07798 10.1431 2.91198 9.88245 3.84198L12.5296 8.99798C13.3756 9.20998 14.2846 9.10798 15.0959 8.58298C15.9253 8.04458 16.5306 7.15781 16.7784 6.11774C17.0263 5.07766 16.8966 3.96949 16.4177 3.03698Z" fill="#EFDEE4"/>
</svg>
