<svg width="12" height="13" viewBox="0 0 12 13" fill="none" xmlns="http://www.w3.org/2000/svg">
<path d="M5.95804 1.4502C7.11481 1.4502 8.2242 1.90972 9.04216 2.72768C9.86012 3.54564 10.3196 4.65503 10.3196 5.8118C10.3196 7.89592 8.91302 9.81429 6.15286 11.5706C6.09461 11.6075 6.02703 11.6272 5.95804 11.6272C5.88904 11.6272 5.82147 11.6075 5.76322 11.5706C3.00305 9.81429 1.59644 7.89592 1.59644 5.8118C1.59644 4.65503 2.05596 3.54564 2.87392 2.72768C3.69188 1.90972 4.80127 1.4502 5.95804 1.4502ZM5.95804 2.17713C4.99406 2.17713 4.06957 2.56007 3.38794 3.2417C2.70631 3.92333 2.32337 4.84782 2.32337 5.8118C2.32337 7.50192 3.44285 9.12516 5.72542 10.6764L5.95804 10.8313L6.19066 10.6764C8.47323 9.12516 9.59271 7.50192 9.59271 5.8118C9.59271 4.84782 9.20977 3.92333 8.52814 3.2417C7.8465 2.56007 6.92201 2.17713 5.95804 2.17713ZM5.95804 4.7214C6.10123 4.7214 6.24302 4.7496 6.37532 4.8044C6.50761 4.8592 6.62781 4.93951 6.72907 5.04077C6.83032 5.14202 6.91064 5.26223 6.96544 5.39452C7.02023 5.52681 7.04844 5.6686 7.04844 5.8118C7.04844 5.95499 7.02023 6.09678 6.96544 6.22907C6.91064 6.36137 6.83032 6.48157 6.72907 6.58283C6.62781 6.68408 6.50761 6.7644 6.37532 6.8192C6.24302 6.87399 6.10123 6.9022 5.95804 6.9022C5.66885 6.9022 5.3915 6.78732 5.18701 6.58283C4.98252 6.37834 4.86764 6.10099 4.86764 5.8118C4.86764 5.5226 4.98252 5.24526 5.18701 5.04077C5.3915 4.83628 5.66885 4.7214 5.95804 4.7214Z" fill="#C4456F"/>
</svg>
