<svg width="15" height="14" viewBox="0 0 15 14" fill="none" xmlns="http://www.w3.org/2000/svg">
<path d="M7.08248 0.487934C6.50888 0.478574 5.93891 0.573653 5.40514 0.767737C4.87138 0.961821 4.38428 1.2511 3.97169 1.61905C3.55911 1.987 3.22913 2.42639 3.00061 2.91212C2.77209 3.39785 2.64952 3.92039 2.63989 4.44988C2.63989 7.42292 7.08248 11.8094 7.08248 11.8094C7.08248 11.8094 11.5251 7.42292 11.5251 4.44988C11.5154 3.92039 11.3929 3.39785 11.1643 2.91212C10.9358 2.42639 10.6058 1.987 10.1933 1.61905C9.78067 1.2511 9.29358 0.961821 8.75981 0.767737C8.22604 0.573653 7.65607 0.478574 7.08248 0.487934ZM7.08248 5.86524C6.78133 5.85614 6.48976 5.76538 6.24415 5.60427C5.99854 5.44316 5.80978 5.21885 5.70142 4.95933C5.59306 4.69981 5.56991 4.41658 5.63485 4.14498C5.69979 3.87339 5.84995 3.62547 6.06659 3.43217C6.28322 3.23886 6.55674 3.10873 6.85299 3.05803C7.14925 3.00732 7.45512 3.03828 7.73243 3.14704C8.00975 3.2558 8.24622 3.43754 8.41233 3.66959C8.57844 3.90163 8.66683 4.1737 8.66647 4.45183C8.65856 4.83288 8.48746 5.19552 8.1906 5.4604C7.89374 5.72529 7.49531 5.87085 7.08248 5.86524Z" fill="white"/>
</svg>
