<svg width="10" height="10" viewBox="0 0 10 10" fill="none" xmlns="http://www.w3.org/2000/svg">
<path d="M5.29238 2.60217C5.18952 2.60218 5.0877 2.62281 4.99295 2.66284C4.8982 2.70287 4.81243 2.76148 4.74071 2.83522L4.62708 2.95232L4.51229 2.83522C4.44057 2.76149 4.3548 2.7029 4.26004 2.66288C4.16529 2.62287 4.06348 2.60225 3.96062 2.60225C3.85777 2.60225 3.75595 2.62287 3.6612 2.66288C3.56645 2.7029 3.48068 2.76149 3.40895 2.83522C3.26269 2.98623 3.18091 3.18822 3.18091 3.39845C3.18091 3.60869 3.26269 3.81067 3.40895 3.96169L4.62708 5.20439L5.84405 3.96169C5.99031 3.81067 6.07209 3.60869 6.07209 3.39845C6.07209 3.18822 5.99031 2.98623 5.84405 2.83522C5.77233 2.76148 5.68656 2.70287 5.59181 2.66284C5.49706 2.62281 5.39524 2.60218 5.29238 2.60217Z" fill="black"/>
<path d="M4.62617 8.67404L2.18703 5.79743C2.15313 5.75424 2.11959 5.71077 2.08641 5.66703C1.66976 5.11819 1.44467 4.44781 1.44568 3.75874C1.44568 2.91522 1.78077 2.10625 2.37723 1.50979C2.97368 0.913334 3.78265 0.578247 4.62617 0.578247C5.46969 0.578247 6.27866 0.913334 6.87512 1.50979C7.47158 2.10625 7.80666 2.91522 7.80666 3.75874C7.80767 4.4475 7.58269 5.11757 7.16623 5.66616L7.16594 5.66703C7.16594 5.66703 7.0792 5.78095 7.06619 5.79628L4.62617 8.67404ZM2.54787 5.31862C2.54845 5.31862 2.61552 5.40768 2.63085 5.42676L4.62617 7.78004L6.6241 5.42358C6.63682 5.40768 6.70448 5.31805 6.70477 5.31776C7.04512 4.86934 7.22906 4.32169 7.22839 3.75874C7.22839 3.06859 6.95423 2.4067 6.46622 1.91869C5.97821 1.43068 5.31632 1.15652 4.62617 1.15652C3.93602 1.15652 3.27414 1.43068 2.78613 1.91869C2.29811 2.4067 2.02395 3.06859 2.02395 3.75874C2.02335 4.32204 2.2072 4.87 2.54787 5.31862Z" fill="black"/>
</svg>
