<svg width="19" height="18" viewBox="0 0 19 18" fill="none" xmlns="http://www.w3.org/2000/svg">
<g clip-path="url(#clip0_1829_5807)">
<path d="M6.7972 1.63636C6.7972 1.31272 6.89687 0.996348 7.08359 0.727249C7.27031 0.458151 7.5357 0.248414 7.84621 0.124561C8.15672 0.000709005 8.49839 -0.0316964 8.82802 0.031443C9.15765 0.0945825 9.46044 0.250431 9.69809 0.479281C9.93574 0.70813 10.0976 0.999702 10.1632 1.31713C10.2287 1.63455 10.1951 1.96357 10.0665 2.26257C9.93784 2.56158 9.72003 2.81715 9.44058 2.99695C9.16114 3.17676 8.83259 3.27273 8.4965 3.27273C8.04582 3.27273 7.6136 3.10033 7.29492 2.79345C6.97624 2.48657 6.7972 2.07035 6.7972 1.63636ZM18.4884 7.36364L15.2937 4.90909V4.09091L11.8951 8.18182H10.1958L11.8951 9.81818V11.4775C11.8951 11.6945 11.8056 11.9026 11.6462 12.056C11.4869 12.2094 11.2708 12.2956 11.0455 12.2956C10.8201 12.2956 10.604 12.2094 10.4447 12.056C10.2853 11.9026 10.1958 11.6945 10.1958 11.4775V10.6364L6.7972 8.18182H5.0979C4.82732 8.19039 4.56278 8.26109 4.32631 8.38804C4.08985 8.51499 3.8883 8.6945 3.73846 8.91164C3.54478 8.67849 3.29797 8.49139 3.01714 8.36484C2.73632 8.23828 2.42902 8.17566 2.11903 8.18182C1.86789 8.1423 1.61095 8.15369 1.36465 8.21527C1.11834 8.27685 0.8881 8.38726 0.688647 8.53943C0.489193 8.6916 0.324921 8.8822 0.20634 9.09901C0.0877587 9.31582 0.0174801 9.55408 0 9.79855C0 11.9455 1.07906 12.2253 1.07906 12.2253C1.14134 12.249 1.20752 12.2617 1.27448 12.2629C1.38501 12.2617 1.49083 12.2196 1.56994 12.1452C1.64905 12.0709 1.69538 11.97 1.6993 11.8636V9.81818C1.69705 9.71288 1.71636 9.60818 1.75613 9.51007C1.79591 9.41196 1.85537 9.32235 1.93111 9.24637C2.00686 9.17039 2.09741 9.10953 2.19759 9.06725C2.29777 9.02498 2.40561 9.00213 2.51497 9H2.54895C2.77429 9 2.9904 9.0862 3.14974 9.23964C3.30909 9.39308 3.3986 9.60119 3.3986 9.81818V13.1138L2.88881 14.0956C2.70919 14.398 2.59367 14.7318 2.54895 15.0775V17.6007C2.54895 17.7066 2.59264 17.8082 2.67039 17.8831C2.74815 17.9579 2.85361 18 2.96358 18C3.07563 18.0005 3.18354 17.9592 3.26465 17.8848C3.34576 17.8103 3.39377 17.7085 3.3986 17.6007V15.5684C3.38713 15.4795 3.39644 15.3893 3.42584 15.3044C3.45524 15.2194 3.504 15.1419 3.56853 15.0775L5.0979 13.1138V14.7273L5.89148 17.6989C5.91761 17.7848 5.97165 17.8604 6.04565 17.9146C6.11966 17.9688 6.20975 17.9987 6.30271 18C6.41538 18 6.52343 17.9569 6.6031 17.8802C6.68277 17.8035 6.72753 17.6994 6.72753 17.5909V17.5647L6.3163 14.9302C6.30362 14.8 6.31806 14.6687 6.35878 14.544L6.45734 14.2593L6.7972 13.0909H10.1958V14.7273L10.9877 17.6989C11.0139 17.7851 11.0682 17.8609 11.1425 17.9151C11.2169 17.9693 11.3074 17.9991 11.4006 18C11.5133 18 11.6213 17.9569 11.701 17.8802C11.7807 17.8035 11.8254 17.6994 11.8254 17.5909L11.4159 14.9302C11.4032 14.8 11.4177 14.6687 11.4584 14.544L11.8951 13.0909C12.2503 13.1234 12.6058 13.0322 12.8971 12.8337C13.1883 12.6352 13.396 12.3427 13.4823 12.0093L14.4441 7.36364C14.5034 7.61531 14.6633 7.83437 14.8891 7.9734C15.1149 8.11244 15.3884 8.16027 15.6506 8.10655C15.7368 8.07966 15.8186 8.04109 15.8936 7.992L17.4229 8.18182C17.6242 8.29646 17.8553 8.35324 18.0891 8.34546C18.1642 8.35078 18.2396 8.34152 18.311 8.31823C18.3823 8.29493 18.4481 8.25808 18.5043 8.20985C18.5606 8.16162 18.6062 8.10301 18.6385 8.03747C18.6708 7.97194 18.6891 7.90083 18.6923 7.82836C18.6904 7.65366 18.6172 7.4867 18.4884 7.36364ZM10.1958 5.72727C10.1915 5.51159 10.1005 5.30591 9.94213 5.15337C9.78373 5.00083 9.57013 4.91328 9.34615 4.90909H7.64685C7.53412 4.90496 7.42172 4.92329 7.31669 4.96294C7.21167 5.0026 7.11628 5.06272 7.03651 5.13953C6.95674 5.21635 6.89431 5.3082 6.85313 5.40934C6.81195 5.51048 6.79291 5.61872 6.7972 5.72727V8.18182H10.1958V5.72727Z" fill="#EFDEE4"/>
</g>
<defs>
<clipPath id="clip0_1829_5807">
<rect width="18.6923" height="18" fill="white"/>
</clipPath>
</defs>
</svg>
