<svg width="76" height="14" viewBox="0 0 76 14" fill="none" xmlns="http://www.w3.org/2000/svg">
<path d="M7.0486 0C6.74821 0 6.44782 0.155464 6.29236 0.469027L4.57171 3.95775L0.721998 4.51636C0.0316324 4.61649 -0.245041 5.46759 0.255606 5.95507L3.04079 8.6691L2.38204 12.503C2.26346 13.1907 2.98809 13.7151 3.60467 13.391L7.0486 11.5834V0Z" fill="#FED21E"/>
<path d="M7.00462 0C7.30501 0 7.6054 0.155464 7.76087 0.469027L9.48151 3.95775L13.3312 4.51636C14.0216 4.61649 14.2983 5.46759 13.7976 5.95507L11.0124 8.6691L11.6712 12.503C11.7898 13.1907 11.0651 13.7151 10.4486 13.391L7.00462 11.5834V0Z" fill="#FED21E"/>
<path d="M22.5296 0C22.2292 0 21.9288 0.155464 21.7733 0.469027L20.0527 3.95775L16.203 4.51636C15.5126 4.61649 15.2359 5.46759 15.7366 5.95507L18.5217 8.6691L17.863 12.503C17.7444 13.1907 18.469 13.7151 19.0856 13.391L22.5296 11.5834V0Z" fill="#FED21E"/>
<path d="M22.4856 0C22.786 0 23.0864 0.155464 23.2418 0.469027L24.9625 3.95775L28.8122 4.51636C29.5025 4.61649 29.7792 5.46759 29.2786 5.95507L26.4934 8.6691L27.1521 12.503C27.2707 13.1907 26.5461 13.7151 25.9295 13.391L22.4856 11.5834V0Z" fill="#FED21E"/>
<path d="M38.0108 0C37.7104 0 37.41 0.155464 37.2545 0.469027L35.5339 3.95775L31.6842 4.51636C30.9938 4.61649 30.7171 5.46759 31.2178 5.95507L34.0029 8.6691L33.3442 12.503C33.2256 13.1907 33.9502 13.7151 34.5668 13.391L38.0108 11.5834V0Z" fill="#FED21E"/>
<path d="M37.9668 0C38.2672 0 38.5676 0.155464 38.723 0.469027L40.4437 3.95775L44.2934 4.51636C44.9837 4.61649 45.2604 5.46759 44.7598 5.95507L41.9746 8.6691L42.6333 12.503C42.7519 13.1907 42.0273 13.7151 41.4107 13.391L37.9668 11.5834V0Z" fill="#FED21E"/>
<path d="M53.4918 0C53.1914 0 52.8911 0.155464 52.7356 0.469027L51.0149 3.95775L47.1652 4.51636C46.4749 4.61649 46.1982 5.46759 46.6988 5.95507L49.484 8.6691L48.8253 12.503C48.7067 13.1907 49.4313 13.7151 50.0479 13.391L53.4918 11.5834V0Z" fill="#FED21E"/>
<path d="M53.4481 0C53.7485 0 54.0489 0.155464 54.2043 0.469027L55.925 3.95775L59.7747 4.51636C60.4651 4.61649 60.7417 5.46759 60.2411 5.95507L57.4559 8.6691L58.1147 12.503C58.2332 13.1907 57.5086 13.7151 56.892 13.391L53.4481 11.5834V0Z" fill="#FED21E"/>
<path d="M68.9729 0C68.6725 0 68.3721 0.155464 68.2167 0.469027L66.496 3.95775L62.6463 4.51636C61.9559 4.61649 61.6793 5.46759 62.1799 5.95507L64.9651 8.6691L64.3064 12.503C64.1878 13.1907 64.9124 13.7151 65.529 13.391L68.9729 11.5834V0Z" fill="#FED21E"/>
<path d="M68.9289 0C69.2293 0 69.5297 0.155464 69.6852 0.469027L71.4058 3.95775L75.2555 4.51636C75.9459 4.61649 76.2226 5.46759 75.7219 5.95507L72.9368 8.6691L73.5955 12.503C73.7141 13.1907 72.9895 13.7151 72.3729 13.391L68.9289 11.5834V0Z" fill="#FED21E"/>
</svg>
