<svg width="30" height="30" viewBox="0 0 30 30" fill="none" xmlns="http://www.w3.org/2000/svg">
<path d="M13.1766 26.1547C13.0485 26.1547 12.9376 26.0609 12.9172 25.9328C12.1688 21.3812 14.5985 16.7218 18.9657 14.3359C19.0938 14.2656 19.2547 14.3125 19.3251 14.4406C19.3938 14.5687 19.3469 14.7297 19.2188 14.8C15.9485 16.5859 13.8141 19.7031 13.3891 23.0515C14.3563 20.1531 16.7251 17.6453 19.7907 16.489C19.9282 16.439 20.0797 16.5078 20.1313 16.6437C20.1829 16.7812 20.1126 16.9328 19.9766 16.9843C16.1422 18.4297 13.4547 22.0922 13.4407 25.8906C13.4407 26.0281 13.3344 26.1422 13.1985 26.1531C13.1907 26.1547 13.1844 26.1547 13.1766 26.1547Z" fill="#84888C"/>
<path d="M22.3437 15.3921C22.3859 15.3921 22.4281 15.403 22.4672 15.4233L23.1125 15.7624L22.9891 15.0421C22.975 14.9562 23.0031 14.8687 23.0656 14.8093L23.5875 14.2983L22.8656 14.1937C22.7797 14.1812 22.7047 14.1265 22.6672 14.0483L22.3437 13.3937L22.0203 14.0483C21.9828 14.1265 21.9078 14.1812 21.8219 14.1937L21.1 14.2983L21.6234 14.8093C21.6844 14.8687 21.7141 14.9562 21.6984 15.0421L21.575 15.7624L22.2203 15.4233C22.2594 15.403 22.3016 15.3921 22.3437 15.3921ZM23.4625 16.5108C23.4203 16.5108 23.3781 16.4999 23.3406 16.4796L22.3437 15.9546L21.3484 16.4796C21.2578 16.5265 21.15 16.5187 21.0703 16.4593C20.9875 16.4015 20.9484 16.2999 20.9641 16.2015L21.1547 15.0905L20.3484 14.303C20.2766 14.2327 20.25 14.128 20.2812 14.0327C20.3125 13.9374 20.3953 13.8671 20.4937 13.853L21.6094 13.6905L22.1078 12.6796C22.1516 12.589 22.2437 12.5327 22.3437 12.5327C22.4437 12.5327 22.5359 12.589 22.5812 12.6796L23.0797 13.6905L24.1922 13.853C24.2922 13.8671 24.375 13.9374 24.4062 14.0327C24.4375 14.128 24.4109 14.2327 24.3391 14.303L23.5328 15.0905L23.7172 16.1655C23.725 16.1905 23.7297 16.2171 23.7297 16.2468C23.7297 16.3921 23.6109 16.5108 23.4656 16.5108C23.4641 16.5108 23.4641 16.5108 23.4625 16.5108Z" fill="#84888C"/>
<path d="M22.3438 16.7484C22.386 16.7484 22.4282 16.7578 22.4672 16.7797L24.7047 17.9578L24.2766 15.4609C24.2625 15.3766 24.2907 15.2875 24.3532 15.2281L26.1641 13.4609L23.661 13.0953C23.575 13.0844 23.5 13.0297 23.4625 12.9516L22.3438 10.6813L21.225 12.9516C21.186 13.0297 21.1125 13.0844 21.0266 13.0953L18.525 13.4609L20.3344 15.2281C20.3969 15.2875 20.425 15.3766 20.411 15.4609L19.9828 17.9578L22.2203 16.7797C22.2594 16.7578 22.3016 16.7484 22.3438 16.7484ZM25.0547 18.7047C25.0125 18.7047 24.9703 18.6938 24.9328 18.675L22.3438 17.3109L19.7563 18.675C19.6672 18.7203 19.5594 18.7125 19.4782 18.6547C19.3969 18.5953 19.3563 18.4938 19.3719 18.3953L19.8672 15.5094L17.7735 13.4656C17.7016 13.3953 17.675 13.2906 17.7063 13.1938C17.7375 13.0984 17.8203 13.0281 17.9188 13.0141L20.8141 12.5938L22.1078 9.96719C22.1516 9.87656 22.2438 9.82031 22.3438 9.82031C22.4438 9.82031 22.536 9.87656 22.5813 9.96719L23.875 12.5938L26.7688 13.0141C26.8688 13.0281 26.95 13.0984 26.9813 13.1938C27.0125 13.2906 26.9875 13.3953 26.9157 13.4656L24.8203 15.5094L25.3157 18.3953C25.3328 18.4938 25.2907 18.5953 25.211 18.6547C25.1641 18.6875 25.1094 18.7047 25.0547 18.7047Z" fill="#84888C"/>
<path d="M11.0657 23.8376C10.9282 23.8376 10.8126 23.7329 10.8016 23.5939C10.6876 22.1173 9.70475 20.7939 8.236 20.1423C8.10318 20.0829 8.04225 19.9267 8.10162 19.7939C8.161 19.661 8.31725 19.6001 8.45006 19.6595C10.0954 20.3907 11.1985 21.8829 11.3282 23.5517C11.3407 23.6985 11.2313 23.8251 11.086 23.836C11.0797 23.836 11.0719 23.8376 11.0657 23.8376Z" fill="#84888C"/>
<path d="M7.26088 20.1158C7.30307 20.1158 7.34526 20.1252 7.38432 20.1455L7.95307 20.4455L7.84526 19.8096C7.82963 19.7252 7.85932 19.6361 7.92026 19.5768L8.38276 19.1268L7.74526 19.033C7.65932 19.0205 7.58432 18.9674 7.54682 18.8893L7.26088 18.3111L6.97651 18.8893C6.93744 18.9674 6.86401 19.0205 6.77807 19.033L6.14057 19.1268L6.60151 19.5768C6.66401 19.6361 6.69213 19.7252 6.67807 19.8096L6.56869 20.4455L7.13744 20.1455C7.17651 20.1252 7.21869 20.1158 7.26088 20.1158ZM8.30463 21.1924C8.26244 21.1924 8.22026 21.183 8.18119 21.1627L7.26088 20.6783L6.34057 21.1627C6.25307 21.2096 6.14526 21.2018 6.06244 21.1424C5.98276 21.083 5.94057 20.983 5.95776 20.8846L6.13432 19.858L5.38901 19.1314C5.31713 19.0611 5.29213 18.9564 5.32182 18.8596C5.35307 18.7643 5.43588 18.6939 5.53588 18.6799L6.56401 18.5299L7.02494 17.5971C7.06869 17.5064 7.16088 17.4502 7.26088 17.4502C7.36244 17.4502 7.45307 17.5064 7.49838 17.5971L7.95776 18.5299L8.98744 18.6799C9.08588 18.6939 9.16869 18.7643 9.19994 18.8596C9.23119 18.9564 9.20463 19.0611 9.13276 19.1314L8.38901 19.858L8.56401 20.8846C8.58119 20.983 8.54057 21.083 8.45932 21.1424C8.41401 21.1768 8.35932 21.1924 8.30463 21.1924Z" fill="#84888C"/>
<path d="M13.6077 10.8767C13.503 10.8767 13.403 10.8142 13.3624 10.7095C13.0077 9.80791 12.3171 9.03447 11.4155 8.52822C11.2874 8.45791 11.2436 8.29697 11.314 8.16885C11.3843 8.04229 11.5468 7.99697 11.6733 8.06729C12.6796 8.63291 13.4546 9.50166 13.853 10.5157C13.9077 10.6517 13.8405 10.8048 13.7046 10.8579C13.6733 10.8704 13.6405 10.8767 13.6077 10.8767Z" fill="#84888C"/>
<path d="M10.4046 8.49355C10.4468 8.49355 10.489 8.50449 10.5265 8.5248L11.0874 8.81855L10.9796 8.19512C10.9656 8.10918 10.9937 8.02168 11.0562 7.96074L11.5078 7.51855L10.8828 7.42793C10.7968 7.41543 10.7234 7.36074 10.6843 7.28262L10.4046 6.71543L10.1249 7.28262C10.0859 7.36074 10.0109 7.41543 9.92494 7.42793L9.29994 7.51855L9.75306 7.96074C9.81556 8.02168 9.84369 8.10918 9.82806 8.19512L9.72181 8.81855L10.2812 8.5248C10.3203 8.50449 10.3624 8.49355 10.4046 8.49355ZM9.37181 9.56543C9.31713 9.56543 9.26244 9.5498 9.21556 9.51543C9.13588 9.45605 9.09369 9.35605 9.11088 9.25762L9.28588 8.24199L8.54838 7.52324C8.4765 7.45293 8.44994 7.34824 8.48119 7.25293C8.51244 7.15762 8.59525 7.0873 8.69525 7.07324L9.71244 6.9248L10.1671 6.00137C10.2124 5.91074 10.3031 5.85449 10.4046 5.85449C10.5046 5.85449 10.5968 5.91074 10.6406 6.00137L11.0968 6.9248L12.114 7.07324C12.2124 7.0873 12.2953 7.15762 12.3265 7.25293C12.3578 7.34824 12.3328 7.45293 12.2593 7.52324L11.5234 8.24199L11.6968 9.25762C11.714 9.35605 11.6734 9.45605 11.5921 9.51543C11.5109 9.57481 11.4031 9.58262 11.314 9.53574L10.4046 9.05762L9.49369 9.53574C9.45619 9.55605 9.414 9.56543 9.37181 9.56543Z" fill="#84888C"/>
<path d="M15.5796 6.57822C15.6203 6.57822 15.664 6.5876 15.7015 6.60791L16.3265 6.9376L16.2062 6.24072C16.1921 6.15478 16.2203 6.06729 16.2828 6.00635L16.7874 5.5126L16.0906 5.4126C16.0046 5.39854 15.9296 5.34541 15.8906 5.26728L15.5796 4.63447L15.2671 5.26728C15.2281 5.34541 15.1546 5.39854 15.0671 5.4126L14.3703 5.5126L14.8749 6.00635C14.9374 6.06729 14.9656 6.15478 14.9515 6.24072L14.8312 6.93604L15.4562 6.60791C15.4953 6.5876 15.5359 6.57822 15.5796 6.57822ZM14.4812 7.68447C14.4265 7.68447 14.3718 7.66728 14.3265 7.63447C14.2453 7.5751 14.2046 7.4751 14.2203 7.3751L14.4078 6.2876L13.6187 5.51885C13.5468 5.44854 13.5203 5.34229 13.5515 5.24697C13.5828 5.15166 13.6656 5.08135 13.764 5.06728L14.8546 4.90791L15.3421 3.91885C15.3859 3.82822 15.4781 3.77197 15.5796 3.77197C15.6796 3.77197 15.7718 3.82822 15.8156 3.91885L16.3031 4.90791L17.3937 5.06728C17.4921 5.08135 17.5749 5.15166 17.6062 5.24697C17.6374 5.34229 17.6109 5.44854 17.539 5.51885L16.7499 6.2876L16.9359 7.3751C16.9531 7.4751 16.9124 7.5751 16.8312 7.63447C16.7499 7.69229 16.6421 7.7001 16.5546 7.65322L15.5796 7.14072L14.6046 7.65322C14.5656 7.6751 14.5234 7.68447 14.4812 7.68447Z" fill="#84888C"/>
<path d="M14.7282 26.258C14.7048 26.258 14.6798 26.2533 14.6548 26.2471C14.5157 26.2064 14.4344 26.0596 14.4751 25.9205C14.9391 24.2971 16.3282 23.0471 18.1001 22.6596C18.2423 22.6283 18.3829 22.7174 18.4141 22.8611C18.4454 23.0033 18.3563 23.1439 18.2126 23.1752C16.6313 23.5221 15.3923 24.6299 14.9813 26.0658C14.9485 26.1814 14.8423 26.258 14.7282 26.258Z" fill="#84888C"/>
<path d="M18.3141 22.1562L18.7828 22.614C18.8437 22.6733 18.8719 22.7608 18.8578 22.8468L18.7469 23.4921L19.325 23.1874C19.4031 23.1468 19.4937 23.1468 19.5719 23.1874L20.1484 23.4921L20.0391 22.8468C20.0234 22.7608 20.0516 22.6733 20.1141 22.614L20.5828 22.1562L19.9359 22.0624C19.85 22.0499 19.775 21.9968 19.7375 21.9187L19.4484 21.3327L19.1594 21.9187C19.1219 21.9968 19.0469 22.0499 18.9609 22.0624L18.3141 22.1562ZM18.3969 24.239C18.3422 24.239 18.2875 24.2218 18.2422 24.189C18.1609 24.1296 18.1203 24.0296 18.1375 23.9296L18.3141 22.8952L17.5625 22.1608C17.4906 22.0905 17.4656 21.9858 17.4969 21.8905C17.5266 21.7952 17.6094 21.7249 17.7094 21.7108L18.7469 21.5593L19.2109 20.6171C19.2562 20.528 19.3484 20.4702 19.4484 20.4702C19.5484 20.4702 19.6406 20.528 19.6844 20.6171L20.15 21.5593L21.1875 21.7108C21.2875 21.7249 21.3687 21.7952 21.4 21.8905C21.4312 21.9858 21.4062 22.0905 21.3328 22.1608L20.5828 22.8952L20.7531 23.8937C20.7609 23.9187 20.7656 23.9468 20.7656 23.9749C20.7656 24.1218 20.6484 24.239 20.5016 24.239H20.5C20.4578 24.239 20.4156 24.2296 20.3766 24.2093L19.4484 23.7202L18.5203 24.2093C18.4812 24.2296 18.4391 24.239 18.3969 24.239Z" fill="#84888C"/>
<path d="M13.7109 13.9405C13.6874 13.9405 13.6624 13.9374 13.639 13.9311C13.4984 13.8905 13.4171 13.7436 13.4577 13.6046C13.9171 11.9968 15.2937 10.7593 17.0484 10.3749C17.1905 10.3421 17.3327 10.4327 17.3624 10.5764C17.3937 10.7186 17.3046 10.8593 17.1624 10.8905C15.5968 11.2343 14.3718 12.3296 13.9655 13.7499C13.9312 13.8655 13.8265 13.9405 13.7109 13.9405Z" fill="#84888C"/>
<path d="M17.2673 9.88145L17.7267 10.3299C17.7876 10.3908 17.8173 10.4783 17.8017 10.5643L17.6938 11.1971L18.261 10.8986C18.3376 10.858 18.4298 10.858 18.5063 10.8986L19.0735 11.1971L18.9657 10.5643C18.9501 10.4783 18.9798 10.3908 19.0407 10.3299L19.5001 9.88145L18.8673 9.78926C18.7798 9.77676 18.7063 9.72363 18.6673 9.64551L18.3845 9.07051L18.1001 9.64551C18.0626 9.72363 17.9876 9.77676 17.9017 9.78926L17.2673 9.88145ZM17.3438 11.9439C17.2892 11.9439 17.2345 11.9268 17.1876 11.8939C17.1063 11.8346 17.0657 11.7346 17.0829 11.6346L17.2579 10.6111L16.5157 9.88613C16.4438 9.81582 16.4188 9.71113 16.4485 9.61582C16.4798 9.52051 16.5626 9.4502 16.6626 9.43613L17.6892 9.28613L18.147 8.35488C18.1923 8.26582 18.2829 8.20801 18.3845 8.20801C18.4845 8.20801 18.5767 8.26582 18.6204 8.35488L19.0798 9.28613L20.1063 9.43613C20.2048 9.4502 20.2876 9.52051 20.3188 9.61582C20.3501 9.71113 20.3235 9.81582 20.2517 9.88613L19.5095 10.6111L19.6782 11.5986C19.686 11.6236 19.6907 11.6518 19.6907 11.6799C19.6907 11.8252 19.5735 11.9439 19.4267 11.9439H19.4251C19.3829 11.9439 19.3407 11.9346 19.3017 11.9143L18.3845 11.4299L17.4657 11.9143C17.4282 11.9346 17.386 11.9439 17.3438 11.9439Z" fill="#84888C"/>
<path d="M12.4297 20.1517C12.4234 20.1517 12.4156 20.1502 12.4078 20.1502C12.2719 20.1392 12.1656 20.0252 12.1656 19.8877C12.1562 17.3283 10.3609 14.9345 7.69842 13.9314C7.56092 13.8799 7.49217 13.7267 7.54373 13.5908C7.59529 13.4533 7.74686 13.3845 7.88436 13.4361C9.78748 14.1533 11.2797 15.5377 12.0703 17.2002C11.5906 15.1861 10.2062 13.3611 8.19998 12.2658C8.07186 12.1955 8.02498 12.0345 8.09529 11.9064C8.16404 11.7783 8.32498 11.7314 8.45311 11.8017C11.5125 13.4736 13.2156 16.7392 12.689 19.9299C12.6687 20.058 12.5578 20.1517 12.4297 20.1517Z" fill="#84888C"/>
<path d="M6.12347 13.5173C6.16722 13.5173 6.20785 13.5282 6.24691 13.5485L7.53285 14.2251L7.28754 12.7923C7.27191 12.7048 7.30004 12.6188 7.36254 12.5579L8.40316 11.5423L6.96566 11.3329C6.87972 11.3204 6.80472 11.2657 6.76722 11.1892L6.12347 9.88447L5.48129 11.1892C5.44222 11.2657 5.36879 11.3204 5.28285 11.3329L3.84535 11.5423L4.88441 12.5579C4.94847 12.6188 4.9766 12.7048 4.96097 12.7923L4.71566 14.2251L6.0016 13.5485C6.0391 13.5282 6.08129 13.5173 6.12347 13.5173ZM4.36566 14.9735C4.31097 14.9735 4.25629 14.9548 4.20941 14.922C4.12816 14.8626 4.08754 14.7626 4.10472 14.6642L4.41722 12.8392L3.09379 11.547C3.02191 11.4767 2.99535 11.372 3.0266 11.2751C3.05785 11.1798 3.14066 11.111 3.2391 11.0954L5.07035 10.8298L5.88754 9.16885C5.93129 9.07979 6.02347 9.02197 6.12347 9.02197C6.22347 9.02197 6.31566 9.07979 6.36097 9.16885L7.17816 10.8298L9.00785 11.0954C9.10785 11.111 9.19066 11.1798 9.22191 11.2751C9.2516 11.372 9.2266 11.4767 9.15472 11.547L7.82972 12.8392L8.14379 14.6642C8.15941 14.7626 8.11879 14.8626 8.03754 14.922C7.95629 14.9813 7.84847 14.9892 7.76097 14.9423L6.12347 14.0813L4.48754 14.9423C4.45004 14.9626 4.40785 14.9735 4.36566 14.9735Z" fill="#84888C"/>
</svg>
