<svg width="30" height="30" viewBox="0 0 30 30" fill="none" xmlns="http://www.w3.org/2000/svg">
<path d="M11.1172 24.3795C10.9782 24.3795 10.8391 24.3717 10.7 24.3545C9.02192 24.1499 8.27348 23.1952 8.27504 22.3374C8.27504 22.3249 8.2766 22.3124 8.27817 22.2983L8.4016 21.4467C8.46098 20.6905 8.19692 19.9686 7.71098 19.5639C7.30004 19.2202 6.7641 19.1202 6.16098 19.2749C5.64067 19.442 4.68129 19.7483 3.9391 19.3327C2.71567 18.6499 2.98598 17.653 3.13129 17.1186C3.13285 17.1124 3.13442 17.1061 3.13598 17.0999L6.33754 7.76704C6.38754 7.62173 6.54535 7.5436 6.69223 7.5936C6.8391 7.6436 6.91567 7.80141 6.86567 7.94673L3.66879 17.2717C3.49848 17.8983 3.43442 18.4139 4.21254 18.8483C4.68129 19.1108 5.34692 18.953 5.99692 18.7436C6.0016 18.742 6.00785 18.7405 6.01254 18.7389C6.79067 18.5374 7.52035 18.6795 8.07035 19.1374C8.70317 19.667 9.03442 20.5499 8.95785 21.4999C8.95785 21.5061 8.95785 21.5124 8.95629 21.5186L8.83442 22.3577C8.84535 22.9452 9.4516 23.642 10.7672 23.803C11.475 23.8889 12.2266 23.703 12.6375 23.3436C12.8188 23.1827 12.911 23.0092 12.9125 22.8249V22.7858C12.9407 21.7983 13.7875 21.0311 14.8391 21.0311C15.8844 21.0311 16.7407 21.8014 16.7766 22.7624C16.7813 22.7827 16.7844 22.803 16.7844 22.8249C16.7844 23.0092 16.8782 23.1827 17.0594 23.3436C17.4704 23.703 18.2219 23.8889 18.9297 23.803C20.2454 23.642 20.8516 22.9452 20.8625 22.3577L20.7407 21.5186C20.7391 21.5124 20.7391 21.5061 20.7375 21.4999C20.6594 20.5233 21.0172 19.592 21.6719 19.0686C22.2219 18.628 22.9407 18.5124 23.6954 18.742C23.7032 18.7452 23.711 18.7467 23.7188 18.7514C24.2375 18.9624 25.0094 19.1139 25.4844 18.8483C26.2625 18.4139 26.1985 17.8983 26.0282 17.2717L22.8157 7.93579C22.7657 7.79047 22.8438 7.63266 22.9891 7.58266C23.136 7.53266 23.2938 7.60923 23.3438 7.7561L26.561 17.0999C26.5625 17.1061 26.5641 17.1124 26.5657 17.1186C26.711 17.653 26.9813 18.6499 25.7579 19.3327C24.9532 19.7842 23.8563 19.4061 23.5204 19.2702C22.9438 19.0983 22.4266 19.178 22.0219 19.5014C21.511 19.9092 21.2329 20.6545 21.2938 21.4467L21.4188 22.2983C21.4204 22.3124 21.4219 22.3249 21.4219 22.3374C21.4235 23.1952 20.675 24.1499 18.9969 24.3545C18.1266 24.4592 17.2219 24.2264 16.6891 23.7608C16.4063 23.5108 16.2485 23.2124 16.2266 22.892C16.2219 22.8702 16.2188 22.8483 16.2188 22.8249C16.2188 22.142 15.6 21.5874 14.8391 21.5874C14.0922 21.5874 13.4907 22.117 13.4719 22.7936V22.8249C13.4704 23.1717 13.3094 23.4952 13.0063 23.7608C12.561 24.1514 11.85 24.3795 11.1172 24.3795Z" fill="#84888C"/>
<path d="M14.839 6.06699C9.91397 6.06699 6.88896 7.1248 6.88896 7.88262C6.88896 8.64043 9.91397 9.69824 14.839 9.69824C19.764 9.69824 22.789 8.64043 22.789 7.88262C22.789 7.1248 19.764 6.06699 14.839 6.06699ZM14.839 10.2545C10.6108 10.2545 6.32959 9.43887 6.32959 7.88262C6.32959 6.3248 10.6108 5.51074 14.839 5.51074C19.0671 5.51074 23.3468 6.3248 23.3468 7.88262C23.3468 9.43887 19.0671 10.2545 14.839 10.2545Z" fill="#84888C"/>
<path d="M16.4984 23.103C16.3437 23.103 16.2187 22.9796 16.2187 22.8249L16.2078 13.0233C16.1265 12.3999 15.5406 11.9327 14.839 11.9327C14.1375 11.9327 13.5515 12.3999 13.4687 13.0233V22.8249C13.4687 22.9796 13.3437 23.103 13.1906 23.103C13.0359 23.103 12.9109 22.9796 12.9109 22.8249V13.0062C12.9109 12.9952 12.9109 12.9843 12.9125 12.9733C13.0203 12.0624 13.8484 11.3765 14.839 11.3765C15.8296 11.3765 16.6578 12.0624 16.7656 12.9733C16.7656 12.9843 16.7671 12.9952 16.7671 13.0062L16.7765 22.8249C16.7781 22.978 16.6531 23.103 16.4984 23.103Z" fill="#84888C"/>
<path d="M21.0157 21.7565C20.8798 21.7565 20.761 21.658 20.7407 21.519L19.3892 12.3174C19.3876 12.308 19.3876 12.2986 19.386 12.2893C19.3485 11.4768 19.9142 10.7424 20.672 10.6174C21.4345 10.4908 22.1579 11.0002 22.3579 11.8002L23.886 18.9502C23.9189 19.1002 23.822 19.2486 23.672 19.2799C23.5204 19.3127 23.372 19.2174 23.3407 19.0658L21.8126 11.9252C21.6876 11.419 21.2345 11.0877 20.7626 11.1658C20.2829 11.2455 19.9251 11.7205 19.9439 12.2502L21.2939 21.4377C21.3157 21.5908 21.2095 21.7315 21.0579 21.7533C21.0439 21.7565 21.0298 21.7565 21.0157 21.7565Z" fill="#84888C"/>
<path d="M8.67966 21.7564C8.67028 21.7564 8.65934 21.7564 8.64841 21.7549C8.49997 21.7377 8.39059 21.6064 8.40153 21.4564L8.40466 21.4143C8.40622 21.3908 8.40934 21.3674 8.41716 21.3471L9.75309 12.2502C9.77028 11.7205 9.41247 11.2455 8.93278 11.1658C8.46091 11.0877 8.00934 11.4189 7.88122 11.9346L6.35622 19.0658C6.32341 19.2174 6.17653 19.3127 6.02497 19.2799C5.87341 19.2486 5.77809 19.1002 5.81091 18.9502L7.33747 11.8096C7.53747 11.0002 8.26403 10.4908 9.02341 10.6174C9.78278 10.7424 10.3484 11.4768 10.3109 12.2893C10.3093 12.2986 10.3093 12.308 10.3078 12.3174L8.95622 21.5189C8.93591 21.6564 8.81716 21.7564 8.67966 21.7564Z" fill="#84888C"/>
<path d="M5.0937 23.1751H3.88744C3.79994 23.1751 3.71713 23.1345 3.66401 23.0642C3.61245 22.9954 3.59526 22.9048 3.61869 22.8204L4.40307 20.072C4.44526 19.9251 4.59995 19.8392 4.74682 19.8813C4.89526 19.9235 4.98276 20.0767 4.94057 20.2251L4.25776 22.6188H4.87651L5.51869 20.111C5.55776 19.9626 5.70932 19.872 5.85932 19.911C6.00776 19.9485 6.09838 20.1001 6.06088 20.2485L5.36557 22.9657C5.33276 23.0892 5.22182 23.1751 5.0937 23.1751Z" fill="#84888C"/>
<path d="M25.4702 23.1748H24.264C24.1359 23.1748 24.0249 23.0889 23.9937 22.967L23.2343 20.1233C23.1952 19.9748 23.2843 19.8217 23.4327 19.7826C23.5827 19.7436 23.7359 19.8326 23.7749 19.9811L24.478 22.6186H25.0999L24.4702 20.4295C24.428 20.2826 24.514 20.1279 24.6624 20.0858C24.8109 20.0436 24.9655 20.1295 25.0077 20.2764L25.739 22.8201C25.7624 22.9045 25.7452 22.9936 25.6921 23.0639C25.6405 23.1326 25.5577 23.1748 25.4702 23.1748Z" fill="#84888C"/>
</svg>
