<svg width="30" height="30" viewBox="0 0 30 30" fill="none" xmlns="http://www.w3.org/2000/svg">
<path d="M6.39382 23.5579H3.48132C3.31413 23.5579 3.17507 23.4329 3.15788 23.2688C3.15163 23.2063 3.01101 21.7032 3.82038 20.8157C4.20163 20.397 4.72038 20.1845 5.36101 20.1845H11.3704V5.83447C11.3704 5.65791 11.5157 5.51416 11.6938 5.51416C11.8735 5.51416 12.0188 5.65791 12.0188 5.83447V20.5063C12.0188 20.6829 11.8735 20.8282 11.6938 20.8282H5.36101C4.90476 20.8282 4.55788 20.9642 4.30007 21.2454C3.89069 21.6954 3.79538 22.4501 3.79069 22.9157H6.39382C6.57351 22.9157 6.71726 23.0595 6.71726 23.2376C6.71726 23.4142 6.57351 23.5579 6.39382 23.5579Z" fill="#84888C"/>
<path d="M23.3594 25.0158H9.6125C9.43438 25.0158 9.28906 24.8705 9.28906 24.6939C9.28906 24.5158 9.43438 24.3736 9.6125 24.3736H23.3594C24.3438 24.3736 25.1453 23.5768 25.1453 22.6002V5.83457C25.1453 4.85801 24.3438 4.0627 23.3594 4.0627H9.58281C8.70781 4.0627 7.97812 4.68926 7.825 5.51426H10.4062C10.5859 5.51426 10.7297 5.65801 10.7297 5.83457C10.7297 6.0127 10.5859 6.15645 10.4062 6.15645H7.47188C7.29375 6.15645 7.14844 6.0127 7.14844 5.83457C7.14844 4.50332 8.24062 3.41895 9.58281 3.41895H23.3594C24.7016 3.41895 25.7938 4.50332 25.7938 5.83457V22.6002C25.7938 23.9314 24.7016 25.0158 23.3594 25.0158Z" fill="#84888C"/>
<path d="M11.6937 6.15645C11.5155 6.15645 11.3702 6.0127 11.3702 5.83457C11.3702 4.85801 10.5687 4.0627 9.58271 4.0627C9.40459 4.0627 9.25928 3.91895 9.25928 3.74082C9.25928 3.5627 9.40459 3.41895 9.58271 3.41895C10.9265 3.41895 12.0187 4.50332 12.0187 5.83457C12.0187 6.0127 11.8733 6.15645 11.6937 6.15645Z" fill="#84888C"/>
<path d="M9.58291 25.0158C9.5626 25.0158 9.54385 25.0143 9.52354 25.0127C8.18604 24.9721 7.14854 23.9127 7.14854 22.6002C7.14854 21.6221 6.34697 20.8283 5.36104 20.8283C5.18291 20.8283 5.0376 20.683 5.0376 20.5064C5.0376 20.3283 5.18291 20.1846 5.36104 20.1846C6.70479 20.1846 7.79541 21.2674 7.79541 22.6002C7.79541 23.5643 8.55635 24.3408 9.52979 24.3689C9.54229 24.3689 9.55635 24.3705 9.57197 24.3721C10.5704 24.3721 11.3704 23.5768 11.3704 22.6002V20.6768C11.3392 20.6283 11.3204 20.5689 11.3204 20.5064C11.3204 20.3283 11.4657 20.1846 11.6454 20.1846H11.6938C11.8735 20.1846 12.0188 20.3283 12.0188 20.5064V22.6002C12.0188 23.9314 10.9267 25.0158 9.58291 25.0158Z" fill="#84888C"/>
<path d="M22.8233 7.28916H14.1999C14.0218 7.28916 13.8765 7.14541 13.8765 6.96729C13.8765 6.79072 14.0218 6.64697 14.1999 6.64697H22.8233C23.0015 6.64697 23.1483 6.79072 23.1483 6.96729C23.1483 7.14541 23.0015 7.28916 22.8233 7.28916Z" fill="#84888C"/>
<path d="M22.8233 9.775H14.1999C14.0218 9.775 13.8765 9.63125 13.8765 9.45312C13.8765 9.27656 14.0218 9.13281 14.1999 9.13281H22.8233C23.0015 9.13281 23.1483 9.27656 23.1483 9.45312C23.1483 9.63125 23.0015 9.775 22.8233 9.775Z" fill="#84888C"/>
<path d="M22.8233 12.2594H14.1999C14.0218 12.2594 13.8765 12.1156 13.8765 11.9391C13.8765 11.7609 14.0218 11.6172 14.1999 11.6172H22.8233C23.0015 11.6172 23.1483 11.7609 23.1483 11.9391C23.1483 12.1156 23.0015 12.2594 22.8233 12.2594Z" fill="#84888C"/>
<path d="M22.8233 14.7437H14.1999C14.0218 14.7437 13.8765 14.6 13.8765 14.4234C13.8765 14.2453 14.0218 14.1016 14.1999 14.1016H22.8233C23.0015 14.1016 23.1483 14.2453 23.1483 14.4234C23.1483 14.6 23.0015 14.7437 22.8233 14.7437Z" fill="#84888C"/>
<path d="M22.8233 17.2296H14.1999C14.0218 17.2296 13.8765 17.0858 13.8765 16.9093C13.8765 16.7312 14.0218 16.5874 14.1999 16.5874H22.8233C23.0015 16.5874 23.1483 16.7312 23.1483 16.9093C23.1483 17.0858 23.0015 17.2296 22.8233 17.2296Z" fill="#84888C"/>
<path d="M22.8233 19.714H14.1999C14.0218 19.714 13.8765 19.5718 13.8765 19.3937C13.8765 19.2155 14.0218 19.0718 14.1999 19.0718H22.8233C23.0015 19.0718 23.1483 19.2155 23.1483 19.3937C23.1483 19.5718 23.0015 19.714 22.8233 19.714Z" fill="#84888C"/>
<path d="M22.8233 22.1998H14.1999C14.0218 22.1998 13.8765 22.0561 13.8765 21.8779C13.8765 21.7014 14.0218 21.5576 14.1999 21.5576H22.8233C23.0015 21.5576 23.1483 21.7014 23.1483 21.8779C23.1483 22.0561 23.0015 22.1998 22.8233 22.1998Z" fill="#84888C"/>
</svg>
