<svg width="30" height="30" viewBox="0 0 30 30" fill="none" xmlns="http://www.w3.org/2000/svg">
<path d="M21.2641 11.5862C21.2438 11.5862 21.2234 11.5847 21.2031 11.58C18.9969 11.1362 16.6469 9.57684 15.6141 7.87215L15.6063 7.86277C15.5938 7.85027 15.5828 7.83777 15.5719 7.82371C15.4656 7.68934 15.4859 7.49402 15.6188 7.38621C15.7531 7.27996 15.9484 7.30027 16.0547 7.43465L16.0672 7.45027C16.0891 7.47215 16.1172 7.50496 16.1438 7.54871C17.0781 9.09246 19.3063 10.5643 21.325 10.9706C21.4922 11.0034 21.6 11.1675 21.5672 11.3346C21.5375 11.4831 21.4078 11.5862 21.2641 11.5862Z" fill="#461952"/>
<path d="M24.0235 8.60623C23.9 8.60623 23.7828 8.53123 23.7344 8.40936C22.8094 6.06248 20.5922 4.15467 17.8047 3.30311C17.6422 3.25311 17.55 3.07967 17.6 2.91561C17.6485 2.75154 17.8219 2.65779 17.986 2.70779C20.9516 3.61248 23.3157 5.65936 24.3094 8.17967C24.3735 8.33904 24.2953 8.52029 24.136 8.58436C24.1 8.59842 24.061 8.60623 24.0235 8.60623Z" fill="#461952"/>
<path d="M8.78898 11.5358C8.6546 11.5358 8.5296 11.4468 8.4921 11.3093C8.44523 11.1452 8.54054 10.9733 8.7046 10.9265C12.1062 9.95303 14.753 7.34209 15.7843 3.94365C15.8765 3.63897 15.9562 3.32178 16.0218 2.99521C15.6171 2.94053 15.214 2.9124 14.8171 2.9124C11.1468 2.9124 7.9796 4.98271 6.54835 8.31396C6.48116 8.47178 6.29835 8.54365 6.1421 8.47646C5.98585 8.40928 5.91241 8.2249 5.98116 8.06865C7.48741 4.55771 10.9562 2.29053 14.8171 2.29053C15.3499 2.29053 15.8952 2.3374 16.4374 2.43115C16.5187 2.44521 16.5905 2.49053 16.6374 2.55771C16.6843 2.6249 16.7046 2.70928 16.6905 2.79053C16.6109 3.2499 16.5046 3.6999 16.3765 4.1249C15.2827 7.72647 12.478 10.4921 8.87335 11.5233C8.84523 11.5327 8.8171 11.5358 8.78898 11.5358Z" fill="#461952"/>
<path d="M4.40319 19.947C4.35163 19.947 4.30007 19.9345 4.25163 19.9079L2.74225 19.0548C2.61725 18.9829 2.55632 18.8345 2.5985 18.6954L3.85475 14.4766C3.90319 14.311 4.07507 14.2188 4.23913 14.2673C4.40319 14.3157 4.49538 14.4891 4.44694 14.6548L3.261 18.6345L4.55632 19.3657C4.70475 19.4501 4.75788 19.6391 4.6735 19.7891C4.61725 19.8907 4.511 19.947 4.40319 19.947Z" fill="#461952"/>
<path d="M7.73288 25.4596C7.66882 25.4596 7.60632 25.4393 7.55319 25.4018L3.836 22.7143C3.73757 22.644 3.69069 22.5221 3.71257 22.4034L5.08444 15.1299C5.11569 14.9612 5.27663 14.8487 5.44538 14.8815C5.61413 14.9127 5.7235 15.0768 5.69225 15.244L4.35788 22.3252L7.39069 24.5174L6.87194 14.5362C6.86257 14.3643 6.99382 14.2174 7.16413 14.2096C7.33132 14.1987 7.47975 14.3315 7.48913 14.5034L8.04225 25.1315C8.0485 25.2518 7.986 25.3643 7.88132 25.4221C7.83444 25.4471 7.78444 25.4596 7.73288 25.4596Z" fill="#461952"/>
<path d="M5.30776 12.6108C5.30776 12.6624 5.2937 12.7171 5.26558 12.7655C5.04683 13.1452 4.99058 13.4655 5.1062 13.6687C5.20308 13.8374 5.40464 13.8968 5.56245 13.8968C5.7187 13.8968 5.92183 13.8374 6.0187 13.6687C6.13433 13.4655 6.07808 13.1452 5.85933 12.7655C5.8312 12.7171 5.8187 12.6624 5.8187 12.6108C5.8187 12.503 5.87339 12.3983 5.97183 12.3405C6.12183 12.2546 6.30933 12.3062 6.39526 12.4546C6.61401 12.8343 6.86089 13.0452 7.0937 13.0452C7.37964 13.0452 7.60308 12.7312 7.60308 12.4608C7.60308 12.128 7.27183 11.9374 6.69214 11.9374C6.52183 11.9374 6.38276 11.7983 6.38276 11.6265C6.38276 11.4546 6.52183 11.3155 6.69214 11.3155C7.02808 11.3155 7.28745 11.2499 7.4437 11.1249C7.54995 11.039 7.60308 10.928 7.60308 10.7921C7.60308 10.5233 7.3812 10.2093 7.0937 10.2093C6.86089 10.2093 6.61401 10.4187 6.39526 10.7983C6.30933 10.9483 6.12026 10.9983 5.97183 10.914C5.87339 10.8562 5.8187 10.7515 5.8187 10.6437C5.8187 10.5905 5.8312 10.5374 5.85933 10.489C6.07808 10.1077 6.13433 9.7874 6.0187 9.58584C5.92183 9.41709 5.7187 9.35771 5.56245 9.35771C5.40464 9.35771 5.20308 9.41709 5.1062 9.58584C4.99058 9.7874 5.04683 10.1077 5.26558 10.489C5.2937 10.5374 5.30776 10.5905 5.30776 10.6437C5.30776 10.7515 5.25151 10.8562 5.15151 10.914C5.00464 10.9983 4.81558 10.9483 4.72964 10.7983C4.51089 10.4187 4.26245 10.2093 4.0312 10.2093C3.7437 10.2093 3.52183 10.5233 3.52183 10.7921C3.52183 10.928 3.57651 11.039 3.68276 11.1249C3.83745 11.2499 4.09683 11.3155 4.43276 11.3155C4.60464 11.3155 4.74214 11.4546 4.74214 11.6265C4.74214 11.7983 4.60464 11.9374 4.43276 11.9374C3.99683 11.9374 3.69058 12.0483 3.57651 12.2499C3.47964 12.4187 3.52808 12.6249 3.6062 12.7624C3.68433 12.8983 3.83745 13.0452 4.0312 13.0452C4.26245 13.0452 4.51089 12.8343 4.72964 12.4546C4.81558 12.3062 5.00464 12.2546 5.15151 12.3405C5.25151 12.3983 5.30776 12.503 5.30776 12.6108ZM5.56245 14.5187C5.14214 14.5187 4.76245 14.3124 4.57026 13.9796C4.51089 13.8765 4.45933 13.7452 4.43901 13.5843C4.28901 13.6452 4.14995 13.6655 4.0312 13.6655C3.64995 13.6655 3.2812 13.439 3.07026 13.0733C2.86089 12.7062 2.84839 12.2718 3.03901 11.939C3.09995 11.8358 3.18745 11.7249 3.31558 11.6265C3.30933 11.6202 3.30151 11.6155 3.29526 11.6108C3.04214 11.4062 2.90308 11.1171 2.90308 10.7921C2.90308 10.1515 3.4312 9.5874 4.0312 9.5874C4.14995 9.5874 4.28901 9.60928 4.43901 9.67021C4.45933 9.50928 4.51089 9.37803 4.57026 9.2749C4.76245 8.94209 5.14214 8.73584 5.56245 8.73584C5.98276 8.73584 6.36401 8.94209 6.55464 9.2749C6.61401 9.37803 6.66558 9.50928 6.68745 9.67021C6.83589 9.60928 6.97495 9.5874 7.0937 9.5874C7.69526 9.5874 8.22183 10.1515 8.22183 10.7921C8.22183 11.1171 8.08276 11.4077 7.82964 11.6108C7.82183 11.6171 7.81401 11.6233 7.80776 11.628C8.10151 11.8546 8.22183 12.1718 8.22183 12.4608C8.22183 13.103 7.69526 13.6655 7.0937 13.6655C6.97495 13.6655 6.83589 13.6452 6.68745 13.5843C6.66558 13.7452 6.61401 13.8765 6.55464 13.9796C6.36401 14.3124 5.98276 14.5187 5.56245 14.5187Z" fill="#461952"/>
<path d="M11.8546 25.3705C11.4343 25.3705 11.0436 25.2298 10.7265 24.9611C10.0796 24.4173 9.99364 23.4486 10.5343 22.7986C10.7608 22.5267 11.078 22.3611 11.428 22.3298C11.778 22.2986 12.1186 22.4048 12.389 22.6314C12.6233 22.8283 12.7686 23.1064 12.7952 23.4142C12.8108 23.5845 12.6858 23.7361 12.5155 23.7517C12.3452 23.7658 12.1952 23.6408 12.1796 23.4705C12.1671 23.3283 12.0999 23.2002 11.9921 23.1095C11.8483 22.9892 11.6686 22.9314 11.4827 22.9486C11.2968 22.9658 11.128 23.0533 11.0093 23.197C10.6874 23.5845 10.739 24.1611 11.1233 24.4845C11.364 24.6877 11.6718 24.7783 11.9952 24.7408C12.3655 24.6986 12.7108 24.4861 12.9671 24.1439C13.6796 23.1955 13.828 21.5408 13.3733 19.6048C13.3343 19.4377 13.4374 19.2705 13.6046 19.2314C13.7702 19.1923 13.9374 19.2955 13.9765 19.4627C14.4718 21.5783 14.2843 23.422 13.4608 24.5189C13.1015 24.9986 12.6061 25.2955 12.0655 25.358C11.9952 25.3658 11.9233 25.3705 11.8546 25.3705Z" fill="#461952"/>
<path d="M18.1046 25.3705C18.0358 25.3705 17.9639 25.3658 17.8936 25.3595C17.353 25.2955 16.8577 24.9986 16.4983 24.5189C15.6749 23.422 15.4874 21.5783 15.9827 19.4627C16.0218 19.2955 16.1889 19.1923 16.3546 19.2314C16.5218 19.2705 16.6249 19.4377 16.5858 19.6048C16.1327 21.5408 16.2811 23.1955 16.9921 24.1439C17.2483 24.4861 17.5936 24.6986 17.9639 24.7408C18.2874 24.7767 18.5952 24.6877 18.8358 24.4845C19.2202 24.1611 19.2718 23.5845 18.9499 23.197C18.8311 23.0533 18.6624 22.9658 18.478 22.9486C18.2905 22.9314 18.1108 22.9892 17.9671 23.1095C17.8593 23.2002 17.7921 23.3283 17.7796 23.4705C17.7655 23.6408 17.6155 23.7658 17.4436 23.7517C17.2733 23.7361 17.1483 23.5845 17.1639 23.4142C17.1905 23.1064 17.3358 22.8298 17.5718 22.6314C17.8405 22.4048 18.1811 22.2986 18.5327 22.3298C18.8811 22.3611 19.1983 22.5267 19.4249 22.7986C19.9655 23.4486 19.8796 24.4189 19.2327 24.9611C18.9155 25.2298 18.5249 25.3705 18.1046 25.3705Z" fill="#461952"/>
<path d="M9.78448 9.21718C9.67667 9.21718 9.57042 9.15937 9.51417 9.0578C9.43136 8.9078 9.48448 8.71874 9.63292 8.63437C12.0501 7.27655 13.8798 4.68749 14.272 3.89687C14.3485 3.74374 14.5329 3.68124 14.6876 3.7578C14.8392 3.83437 14.9017 4.02187 14.8251 4.17499C14.3376 5.15468 12.4298 7.77499 9.93604 9.17812C9.88761 9.20468 9.83604 9.21718 9.78448 9.21718Z" fill="#461952"/>
<path d="M6.74536 27.7892H5.26567C5.09536 27.7892 4.9563 27.6501 4.9563 27.4782V23.5985C4.9563 23.4267 5.09536 23.2876 5.26567 23.2876C5.43755 23.2876 5.57505 23.4267 5.57505 23.5985V27.1673H6.43599V24.4657C6.43599 24.2938 6.57349 24.1548 6.74536 24.1548C6.91567 24.1548 7.05474 24.2938 7.05474 24.4657V27.4782C7.05474 27.6501 6.91567 27.7892 6.74536 27.7892Z" fill="#461952"/>
<path d="M25.5829 19.9469C25.4751 19.9469 25.3704 19.8907 25.3126 19.7891C25.2298 19.6391 25.2813 19.45 25.4313 19.3657L26.7204 18.6375L25.4626 14.7782C25.4095 14.6157 25.4985 14.4391 25.661 14.386C25.822 14.3328 25.9985 14.4219 26.0501 14.5844L27.3876 18.6875C27.4329 18.8282 27.3735 18.9828 27.2438 19.0547L25.7345 19.9078C25.686 19.9344 25.6345 19.9469 25.5829 19.9469Z" fill="#461952"/>
<path d="M22.2532 25.4596C22.2032 25.4596 22.1517 25.4471 22.1048 25.4221C22.0017 25.3643 21.9392 25.2518 21.9438 25.1315L22.497 14.5034C22.5063 14.3315 22.6485 14.1987 22.8235 14.2096C22.9938 14.2174 23.1251 14.3643 23.1157 14.5362L22.597 24.5174L25.6298 22.3252L24.3126 15.3627C24.2798 15.1924 24.3907 15.0299 24.5579 14.9987C24.7267 14.9659 24.8876 15.0768 24.9204 15.2456L26.2751 22.4034C26.297 22.5221 26.2485 22.644 26.1517 22.7143L22.4345 25.4018C22.3813 25.4393 22.3173 25.4596 22.2532 25.4596Z" fill="#461952"/>
<path d="M24.1688 12.6108C24.1688 12.6624 24.1548 12.7171 24.1282 12.7655C23.9079 13.1452 23.8532 13.4655 23.9688 13.6687C24.0657 13.8374 24.2673 13.8968 24.4251 13.8968C24.5813 13.8968 24.7845 13.8374 24.8798 13.6687C24.997 13.4655 24.9392 13.1452 24.722 12.7655C24.6938 12.7171 24.6798 12.6624 24.6798 12.6108C24.6798 12.503 24.736 12.3983 24.8345 12.3405C24.9829 12.2546 25.172 12.3062 25.2579 12.4546C25.4751 12.8343 25.7235 13.0452 25.9548 13.0452C26.2423 13.0452 26.4642 12.7312 26.4642 12.4608C26.4642 12.3265 26.411 12.214 26.3048 12.128C26.1501 12.003 25.8907 11.9374 25.5532 11.9374C25.3829 11.9374 25.2438 11.7983 25.2438 11.6265C25.2438 11.4546 25.3829 11.3155 25.5532 11.3155C25.8907 11.3155 26.1501 11.2499 26.3048 11.1249C26.411 11.039 26.4642 10.928 26.4642 10.7921C26.4642 10.5233 26.2423 10.2093 25.9563 10.2093C25.7235 10.2093 25.4751 10.4187 25.2579 10.7983C25.172 10.9483 24.9813 10.9983 24.8345 10.914C24.736 10.8562 24.6798 10.7515 24.6798 10.6437C24.6798 10.5905 24.6938 10.5374 24.722 10.489C24.9392 10.1077 24.997 9.7874 24.8798 9.58584C24.7845 9.41709 24.5813 9.35771 24.4251 9.35771C24.2673 9.35771 24.0657 9.41709 23.9688 9.58584C23.8532 9.7874 23.9095 10.1077 24.1282 10.489C24.1548 10.5374 24.1688 10.5905 24.1688 10.6437C24.1688 10.7515 24.1142 10.8562 24.0142 10.914C23.8673 10.9983 23.6767 10.9483 23.5923 10.7983C23.3735 10.4187 23.1251 10.2093 22.8938 10.2093C22.6063 10.2093 22.3829 10.5233 22.3829 10.7921C22.3829 10.928 22.4376 11.039 22.5438 11.1249C22.6985 11.2499 22.9579 11.3155 23.2938 11.3155C23.4657 11.3155 23.6032 11.4546 23.6032 11.6265C23.6032 11.7983 23.4657 11.9374 23.2938 11.9374C22.9579 11.9374 22.6985 12.003 22.5438 12.128C22.4376 12.214 22.3829 12.3249 22.3829 12.4608C22.3829 12.7312 22.6063 13.0452 22.8938 13.0452C23.1251 13.0452 23.3735 12.8343 23.5923 12.4546C23.6767 12.3062 23.8657 12.2546 24.0142 12.3405C24.1142 12.3983 24.1688 12.503 24.1688 12.6108ZM24.4251 14.5187C24.0032 14.5187 23.6235 14.3124 23.4329 13.9796C23.3735 13.8765 23.3204 13.7452 23.3001 13.5843C23.1501 13.6452 23.011 13.6655 22.8938 13.6655C22.2923 13.6655 21.7642 13.103 21.7642 12.4608C21.7642 12.1374 21.9048 11.8452 22.1563 11.6421C22.1642 11.6374 22.1704 11.6312 22.1782 11.6265C22.1704 11.6218 22.1642 11.6155 22.1563 11.6108C21.9048 11.4077 21.7642 11.1171 21.7642 10.7921C21.7642 10.1515 22.2923 9.5874 22.8938 9.5874C23.011 9.5874 23.1501 9.60928 23.3001 9.67021C23.3204 9.50928 23.3735 9.37803 23.4329 9.2749C23.6235 8.94209 24.0032 8.73584 24.4251 8.73584C24.8454 8.73584 25.2251 8.94209 25.4157 9.2749C25.4751 9.37803 25.5267 9.50928 25.5485 9.67021C25.697 9.60928 25.8376 9.5874 25.9563 9.5874C26.5563 9.5874 27.0829 10.1515 27.0829 10.7921C27.0829 11.1171 26.9438 11.4062 26.6907 11.6108C26.6845 11.6155 26.6782 11.6218 26.6704 11.6265C26.6782 11.6312 26.6845 11.6374 26.6907 11.6421C26.9438 11.8468 27.0829 12.1374 27.0829 12.4608C27.0829 13.103 26.5563 13.6655 25.9548 13.6655C25.836 13.6655 25.697 13.6452 25.5485 13.5843C25.5267 13.7452 25.4751 13.8765 25.4157 13.9796C25.2251 14.3124 24.8454 14.5187 24.4251 14.5187Z" fill="#461952"/>
<path d="M24.7202 27.7892H23.2405C23.0702 27.7892 22.9312 27.6501 22.9312 27.4782V24.4657C22.9312 24.2938 23.0702 24.1548 23.2405 24.1548C23.4124 24.1548 23.5515 24.2938 23.5515 24.4657V27.1673H24.4108V23.5985C24.4108 23.4267 24.5499 23.2876 24.7202 23.2876C24.8905 23.2876 25.0296 23.4267 25.0296 23.5985V27.4782C25.0296 27.6501 24.8905 27.7892 24.7202 27.7892Z" fill="#461952"/>
<path d="M15.0548 15.7234C12.7563 15.7234 11.5157 16.2938 11.5157 16.5281C11.5157 16.7609 12.7563 17.3313 15.0548 17.3313C17.3517 17.3313 18.5923 16.7609 18.5923 16.5281C18.5923 16.2938 17.3517 15.7234 15.0548 15.7234ZM15.0548 17.9531C13.0532 17.9531 10.897 17.5063 10.897 16.5281C10.897 15.5484 13.0532 15.1016 15.0548 15.1016C17.0563 15.1016 19.211 15.5484 19.211 16.5281C19.211 17.5063 17.0563 17.9531 15.0548 17.9531Z" fill="#461952"/>
<path d="M15.0547 19.0249C13.4172 19.0249 11.9984 18.753 11.0547 18.2608C10.9031 18.1811 10.8453 17.9936 10.9234 17.8405C11.0015 17.689 11.189 17.6296 11.3406 17.7093C12.1969 18.1577 13.5156 18.403 15.0547 18.403C16.5906 18.403 17.9781 18.1483 18.7672 17.7218C18.9172 17.639 19.1047 17.6968 19.1859 17.8468C19.2672 17.9983 19.2109 18.1858 19.0609 18.2686C18.1734 18.7499 16.7125 19.0249 15.0547 19.0249Z" fill="#461952"/>
<path d="M14.9798 25.3268C14.8095 25.3268 14.6704 25.1877 14.6704 25.0158V19.5658C14.6704 19.3939 14.8095 19.2549 14.9798 19.2549C15.1501 19.2549 15.2892 19.3939 15.2892 19.5658V25.0158C15.2892 25.1877 15.1501 25.3268 14.9798 25.3268Z" fill="#461952"/>
</svg>
