<svg width="30" height="30" viewBox="0 0 30 30" fill="none" xmlns="http://www.w3.org/2000/svg">
<path d="M12.0876 6.70176C12.0001 6.70176 11.911 6.66895 11.8439 6.6002C11.711 6.46738 11.711 6.25176 11.847 6.11895L14.8173 3.18926C14.9517 3.05801 15.1673 3.05801 15.3017 3.18926L18.2001 6.04863C18.3345 6.17988 18.336 6.39551 18.2032 6.52988C18.0689 6.66426 17.8517 6.66426 17.7173 6.53145L15.0595 3.9127L12.3298 6.60332C12.2626 6.66895 12.1751 6.70176 12.0876 6.70176Z" fill="#84888C"/>
<path d="M23.6626 26.9484H6.45635C5.49385 26.9484 4.70947 26.1703 4.70947 25.2141V13.8719C4.70947 13.4094 4.89228 12.9734 5.22353 12.6453L5.60635 12.2688C5.74072 12.1359 5.95791 12.1375 6.09072 12.2703C6.2251 12.4047 6.22353 12.6203 6.08916 12.7531L5.70791 13.1297C5.50791 13.3281 5.39697 13.5922 5.39697 13.8719V25.2141C5.39697 25.7938 5.87197 26.2672 6.45635 26.2672H23.6626C24.247 26.2672 24.722 25.7938 24.722 25.2141V13.8719C24.722 13.5922 24.6126 13.3281 24.411 13.1281L24.1173 12.8406C23.9829 12.7078 23.9813 12.4906 24.1157 12.3578C24.2501 12.2234 24.4673 12.2219 24.6017 12.3547L24.8938 12.6438C25.2267 12.9734 25.4095 13.4094 25.4095 13.8719V25.2141C25.4095 26.1703 24.6251 26.9484 23.6626 26.9484Z" fill="#84888C"/>
<path d="M23.2938 15.4471C23.1048 15.4471 22.9501 15.2939 22.9501 15.1064V8.64863C22.9501 8.26113 22.6329 7.94551 22.2423 7.94551H7.87666C7.48604 7.94551 7.16885 8.26113 7.16885 8.64863V15.0658C7.16885 15.2549 7.01416 15.4064 6.8251 15.4064C6.63604 15.4064 6.48291 15.2549 6.48291 15.0658V8.64863C6.48291 7.88457 7.10791 7.2627 7.87666 7.2627H22.2423C23.011 7.2627 23.636 7.88457 23.636 8.64863V15.1064C23.636 15.2939 23.4829 15.4471 23.2938 15.4471Z" fill="#84888C"/>
<path d="M25.0625 25.6639C25.0515 25.6639 25.0437 25.6639 25.0343 25.6639C24.875 25.6498 24.75 25.5311 24.7234 25.3826L15.0609 17.9936L5.26246 25.4842C5.11246 25.5982 4.89683 25.5701 4.78121 25.4217C4.66558 25.2717 4.69371 25.0576 4.84371 24.9436L14.8515 17.292C14.9734 17.1982 15.1453 17.1982 15.2687 17.292L25.275 24.9436C25.3593 25.0076 25.4093 25.1076 25.4093 25.2139C25.4093 25.2592 25.4078 25.3045 25.4031 25.3514C25.389 25.5295 25.239 25.6639 25.0625 25.6639Z" fill="#84888C"/>
<path d="M17.6485 19.8842C17.547 19.8842 17.4439 19.8373 17.3767 19.7498C17.261 19.6014 17.2892 19.3873 17.4392 19.2717L24.8564 13.6014C25.0064 13.4873 25.222 13.5154 25.3376 13.6639C25.4532 13.8139 25.4251 14.0279 25.2751 14.142L17.8579 19.8123C17.7954 19.8607 17.722 19.8842 17.6485 19.8842Z" fill="#84888C"/>
<path d="M12.4704 19.8843C12.397 19.8843 12.3235 19.8609 12.261 19.8125L5.11572 14.3515C5.09697 14.3546 5.0751 14.3562 5.05322 14.3562C4.86416 14.3562 4.70947 14.2046 4.70947 14.0156V13.8718C4.70947 13.7421 4.78447 13.6234 4.90166 13.5671C5.01885 13.5093 5.15947 13.5234 5.2626 13.6015L12.6798 19.2718C12.8298 19.3875 12.8579 19.6015 12.7423 19.75C12.6751 19.8375 12.572 19.8843 12.4704 19.8843Z" fill="#84888C"/>
<path d="M16.2344 16.5686C16.1703 16.5686 16.1047 16.5499 16.0485 16.514C16.0156 16.4936 15.2578 16.0046 14.4313 15.2421C14.2922 15.1124 14.2844 14.8968 14.4141 14.7593C14.5438 14.6218 14.761 14.614 14.8985 14.7421C15.4438 15.2436 15.9656 15.6265 16.2328 15.814C16.7656 15.4405 18.3 14.2858 19.0281 12.9405C19.4735 12.1155 19.4078 11.3155 18.8531 10.8515C18.3469 10.4265 17.4 10.3327 16.4313 11.0858C16.3078 11.1811 16.1344 11.1811 16.011 11.0874C15.3188 10.5561 14.5453 10.3952 13.9406 10.653C13.4844 10.8468 13.1938 11.2468 13.1438 11.7468C13.1235 11.9343 12.9563 12.0702 12.7672 12.0515C12.5781 12.0327 12.4422 11.8655 12.461 11.678C12.5375 10.9343 12.9891 10.3171 13.6688 10.0265C14.4422 9.69677 15.3781 9.83584 16.2188 10.3952C17.4219 9.57959 18.6172 9.75927 19.2969 10.3296C20.1 11.003 20.2328 12.1546 19.6328 13.264C18.6641 15.0546 16.5125 16.4546 16.4203 16.5124C16.3641 16.5499 16.2985 16.5686 16.2344 16.5686Z" fill="#84888C"/>
<path d="M11.6515 12.2232C11.3281 12.2232 11.0578 12.3639 10.9109 12.6107C10.7375 12.8998 10.7656 13.2982 10.9859 13.7029C11.4468 14.5467 12.3906 15.2732 12.7906 15.5576C13.1906 15.2717 14.1312 14.5373 14.589 13.6936C14.8062 13.2889 14.8312 12.892 14.6578 12.6029C14.5093 12.3576 14.2406 12.217 13.9172 12.217C13.6156 12.217 13.2953 12.3404 12.9937 12.5748C12.8687 12.6717 12.6968 12.6717 12.5718 12.5764C12.2703 12.3451 11.9531 12.2232 11.6515 12.2232ZM12.7922 16.3139C12.7265 16.3139 12.6625 16.2951 12.6062 16.2592C12.5437 16.2201 11.0593 15.2639 10.3843 14.0279C10.0437 13.4076 10.0218 12.7639 10.3218 12.2623C10.5922 11.8107 11.089 11.5404 11.6515 11.5404C12.0312 11.5404 12.4172 11.6607 12.7812 11.8904C13.1468 11.6561 13.5359 11.5342 13.9172 11.5342C14.4797 11.5342 14.9765 11.8029 15.2468 12.2529C15.5484 12.7529 15.5281 13.3951 15.1937 14.0154C14.5218 15.2561 13.0406 16.2186 12.9781 16.2592C12.9218 16.2951 12.8562 16.3139 12.7922 16.3139Z" fill="#84888C"/>
</svg>
