<svg width="30" height="30" viewBox="0 0 30 30" fill="none" xmlns="http://www.w3.org/2000/svg">
<path d="M17.1641 14.2812C17.1062 14.2812 17.05 14.2656 17 14.2328C16.9578 14.2046 15.9234 13.5374 14.7187 12.4671C14.5953 12.3578 14.5828 12.1671 14.6937 12.0421C14.8047 11.9187 14.9953 11.9078 15.1187 12.0187C16.0125 12.8124 16.8266 13.3874 17.1625 13.6187C17.8672 13.1328 20.6687 11.1078 21.9641 8.70463C22.9094 6.94838 22.4047 5.61557 21.6172 4.95307C20.7062 4.18588 19.0266 4.00619 17.325 5.33119C17.2172 5.41557 17.0656 5.41557 16.9562 5.33119C15.8094 4.44838 14.5437 4.15151 13.4828 4.51869C12.6875 4.79526 12.1156 5.41401 11.9141 6.22026C11.875 6.38119 11.7109 6.47963 11.55 6.43901C11.3875 6.39838 11.2906 6.23588 11.3297 6.07338C11.5812 5.06713 12.2937 4.29369 13.2844 3.95151C14.4828 3.53588 15.8766 3.81557 17.1391 4.71869C19.0453 3.34057 20.9437 3.59838 22.0047 4.49213C23.2219 5.51713 23.4141 7.28119 22.4953 8.98901C20.9406 11.8749 17.4734 14.1374 17.3281 14.2328C17.2781 14.2656 17.2203 14.2812 17.1641 14.2812Z" fill="#84888C"/>
<path d="M9.66877 7.14365C9.05471 7.14365 8.51877 7.42959 8.23283 7.90771C7.90158 8.46396 7.94377 9.21084 8.35002 9.95771C9.19533 11.5093 10.9828 12.8202 11.5313 13.1999C12.0781 12.8171 13.8625 11.4952 14.7016 9.94209C15.1016 9.19678 15.1406 8.4499 14.8078 7.89521C14.5219 7.41865 13.986 7.13428 13.375 7.13428C12.8219 7.13428 12.2438 7.35615 11.7016 7.77803C11.5938 7.8624 11.4422 7.8624 11.3328 7.77803C10.7938 7.36396 10.2188 7.14365 9.66877 7.14365ZM11.5328 13.864C11.475 13.864 11.4188 13.8468 11.3688 13.8155C11.2688 13.7515 8.89533 12.2171 7.8219 10.2452C7.31096 9.30771 7.2719 8.34365 7.71565 7.5999C8.1094 6.9374 8.84065 6.54209 9.66877 6.54209C10.2875 6.54209 10.9219 6.75771 11.5156 7.16709C12.1125 6.75146 12.75 6.53271 13.375 6.53271C14.2016 6.53271 14.9297 6.92646 15.325 7.58584C15.7688 8.32646 15.7344 9.28896 15.2313 10.2265C14.1656 12.203 11.7953 13.7499 11.6953 13.8155C11.6469 13.8468 11.5891 13.864 11.5328 13.864Z" fill="#84888C"/>
<path d="M21.3064 16.7033C21.2954 16.7033 21.2829 16.7033 21.2704 16.7018C21.1048 16.6814 20.9876 16.5314 21.0064 16.3674C21.1626 15.0689 21.6173 14.5705 22.1142 14.2752C22.2142 13.0018 22.8657 12.5283 23.247 12.3596C23.3767 11.7096 23.7517 11.2455 24.0798 11.0189C24.3329 10.8439 24.5986 10.7783 24.8251 10.8346C24.9861 10.8736 25.0845 11.0361 25.0454 11.1971C25.0048 11.3596 24.8423 11.458 24.6798 11.4189C24.6501 11.4111 24.5579 11.4221 24.422 11.5143C24.1829 11.6799 23.8814 12.0674 23.8142 12.6174C23.8001 12.7377 23.7142 12.8377 23.597 12.8705C23.3439 12.9408 22.7517 13.2393 22.7048 14.4689C22.7017 14.5783 22.6392 14.6768 22.5423 14.7252C22.1657 14.9205 21.7501 15.2299 21.6048 16.4377C21.5876 16.5908 21.4564 16.7033 21.3064 16.7033Z" fill="#84888C"/>
<path d="M16.7953 26.6315C16.5765 26.6315 16.3859 26.6002 16.239 26.5268C16.0109 26.4159 15.8812 26.208 15.8797 25.9596L15.8781 24.8002C15.8765 23.8721 15.8734 22.8237 15.8687 21.6643C15.8609 20.0549 16.5234 18.4596 17.5562 17.5971C17.6828 17.4909 17.8734 17.508 17.9797 17.6346C18.0875 17.7627 18.0703 17.9518 17.9422 18.058C17.0547 18.7987 16.464 20.2455 16.4703 21.6612C16.4765 22.8221 16.4781 23.8705 16.4797 24.7987L16.4828 25.958C16.4828 25.9705 16.4843 25.9768 16.4843 25.9768C16.4859 25.9768 16.6125 26.0846 17.1593 25.9971C18.2078 25.833 19.5203 25.1799 19.6906 24.8955C19.1515 22.0909 19.5656 21.4393 19.925 21.1924C21.6875 19.983 23.7172 18.5049 24.0656 18.1268C24.6187 17.5268 25.7328 15.008 25.7843 14.7252C25.8359 14.4221 25.7812 11.5487 25.664 10.5721C25.15 10.6768 24.9234 11.0862 24.8547 13.844C24.8515 14.0096 24.7125 14.1409 24.5468 14.1362C24.3797 14.133 24.2484 13.9955 24.2531 13.8284C24.3343 10.5268 24.6547 10.0565 25.8828 9.93773C26.0281 9.92211 26.164 10.0159 26.2015 10.158C26.3703 10.7705 26.45 14.4205 26.3765 14.8299C26.3031 15.2502 25.1343 17.8565 24.5093 18.5346C24.0328 19.0518 21.5265 20.8237 20.2656 21.6877C20.1797 21.7455 19.7765 22.1752 20.2906 24.8237C20.3578 25.1737 19.9984 25.4471 19.8797 25.5377C19.275 25.9971 17.7672 26.6315 16.7953 26.6315Z" fill="#84888C"/>
<path d="M20.0844 20.0779C19.9531 20.0779 19.8313 19.992 19.7938 19.8592C19.7484 19.6998 19.8422 19.5342 20.0016 19.4889C21.2 19.1498 21.9625 18.2717 22.4656 17.6904C22.6891 17.4357 22.8641 17.2326 23.0375 17.1139C23.0906 17.0764 23.1734 17.0232 23.2766 16.9576C23.8219 16.606 25.4859 15.5373 25.5844 14.7514C25.6031 14.6045 25.5578 14.4779 25.4438 14.3545C25.1984 14.092 24.7391 14.1967 24.0813 14.6701C23.6453 14.981 23.2078 15.4029 22.8219 15.7732C22.4797 16.1029 22.1844 16.3873 21.9516 16.5357C21.6125 16.7514 21.1656 16.8201 20.65 16.9014C19.7875 17.0342 18.8109 17.1857 17.9641 18.0389C17.8453 18.1576 17.6547 18.1576 17.5375 18.0404C17.4188 17.9248 17.4188 17.7326 17.5359 17.6154C18.5219 16.6217 19.6984 16.4389 20.5563 16.306C21.0063 16.2373 21.3953 16.1764 21.6281 16.0279C21.8094 15.9123 22.0984 15.6342 22.4047 15.3404C22.8047 14.956 23.2594 14.5185 23.7297 14.181C24.6734 13.5045 25.3984 13.4248 25.8859 13.9451C26.1203 14.1967 26.2219 14.5014 26.1828 14.8264C26.0641 15.7654 24.8125 16.6857 23.6016 17.4623C23.5078 17.5248 23.4297 17.5732 23.3797 17.6076C23.2703 17.6842 23.1078 17.8701 22.9219 18.0842C22.3703 18.7201 21.5391 19.6795 20.1656 20.067C20.1391 20.0748 20.1109 20.0779 20.0844 20.0779Z" fill="#84888C"/>
<path d="M8.70945 16.7033C8.55945 16.7033 8.42976 16.5908 8.41101 16.4377C8.26726 15.2299 7.85164 14.9205 7.47351 14.7252C7.3782 14.6768 7.3157 14.5783 7.31101 14.4689C7.26414 13.2393 6.67195 12.9408 6.42039 12.8705C6.3032 12.8377 6.21726 12.7377 6.20164 12.6174C6.13601 12.0674 5.83445 11.6799 5.59539 11.5143C5.45945 11.4221 5.36726 11.4111 5.33601 11.4189C5.17507 11.458 5.01101 11.3596 4.97195 11.1971C4.93132 11.0361 5.03132 10.8736 5.19226 10.8346C5.41882 10.7783 5.68289 10.8439 5.93757 11.0189C6.2657 11.2455 6.6407 11.7096 6.77039 12.3596C7.15007 12.5283 7.8032 13.0018 7.9032 14.2752C8.40007 14.5705 8.85476 15.0689 9.00945 16.3674C9.02976 16.5314 8.91257 16.6814 8.74695 16.7002C8.73445 16.7033 8.72195 16.7033 8.70945 16.7033Z" fill="#84888C"/>
<path d="M13.2218 26.6315C12.2483 26.6315 10.7421 25.9971 10.1374 25.5377C10.0187 25.4471 9.65928 25.1737 9.72647 24.8237C10.239 22.1752 9.83584 21.7455 9.7499 21.6877C8.49053 20.8237 5.98272 19.0518 5.50615 18.533C4.88272 17.8565 3.7124 15.2502 3.63897 14.8284C3.56553 14.4205 3.64678 10.7705 3.81397 10.158C3.85303 10.0159 3.9874 9.92211 4.13428 9.93773C5.3624 10.0565 5.68272 10.5268 5.76397 13.8284C5.76709 13.9955 5.63584 14.133 5.47022 14.1362C5.30303 14.1409 5.16553 14.0096 5.1624 13.844C5.09209 11.0862 4.86553 10.6768 4.35303 10.5721C4.23428 11.5487 4.17959 14.4221 4.23272 14.7237C4.28428 15.008 5.39678 17.5268 5.9499 18.1268C6.29834 18.5049 8.32959 19.983 10.0921 21.1924C10.4515 21.4393 10.864 22.0909 10.3265 24.8955C10.4968 25.1799 11.8077 25.833 12.8577 25.9971C13.3858 26.0815 13.5218 25.983 13.5327 25.9737C13.5327 25.9737 13.5343 25.9674 13.5343 25.958L13.5358 24.7987C13.5374 23.8705 13.5405 22.8221 13.5452 21.6612C13.553 20.2455 12.9608 18.7987 12.0749 18.058C11.9468 17.9518 11.9296 17.7627 12.0358 17.6346C12.1437 17.508 12.3327 17.4909 12.4608 17.5971C13.4937 18.4596 14.1562 20.0549 14.1483 21.6643C14.1421 22.8237 14.1405 23.8721 14.139 24.8002L14.1358 25.9596C14.1358 26.208 14.0046 26.4159 13.778 26.5268C13.6296 26.6002 13.439 26.6315 13.2218 26.6315Z" fill="#84888C"/>
<path d="M9.93277 20.0779C9.9062 20.0779 9.87808 20.0748 9.84995 20.067C8.47808 19.6795 7.64527 18.7201 7.0937 18.0842C6.90777 17.8701 6.74683 17.6842 6.63745 17.6076C6.58589 17.5732 6.50933 17.5248 6.41402 17.4623C5.20464 16.6857 3.95308 15.7654 3.83433 14.8264C3.7937 14.5014 3.89683 14.1967 4.1312 13.9451C4.61714 13.4248 5.3437 13.5045 6.28745 14.181C6.75777 14.5185 7.21245 14.956 7.61245 15.3404C7.9187 15.6342 8.2062 15.9123 8.38902 16.0279C8.62183 16.1764 9.00933 16.2373 9.45933 16.306C10.3187 16.4389 11.4937 16.6217 12.4812 17.6154C12.5984 17.7326 12.5984 17.9248 12.4796 18.0404C12.3625 18.1576 12.1703 18.1576 12.0531 18.0389C11.2062 17.1857 10.2296 17.0342 9.36714 16.9014C8.84995 16.8201 8.40464 16.7514 8.06558 16.5357C7.8312 16.3873 7.53589 16.1029 7.1937 15.7732C6.80777 15.4029 6.37027 14.981 5.93589 14.6685C5.27652 14.1967 4.8187 14.092 4.57183 14.3545C4.45933 14.4779 4.41402 14.6045 4.43277 14.7514C4.5312 15.5373 6.1937 16.606 6.74058 16.9576C6.8437 17.0232 6.92495 17.0764 6.97964 17.1139C7.15152 17.2326 7.32808 17.4357 7.54995 17.6904C8.05464 18.2717 8.81558 19.1498 10.014 19.4889C10.175 19.5342 10.2671 19.6998 10.2218 19.8592C10.1843 19.992 10.064 20.0779 9.93277 20.0779Z" fill="#84888C"/>
</svg>
