<svg width="30" height="30" viewBox="0 0 30 30" fill="none" xmlns="http://www.w3.org/2000/svg">
<path d="M22.6124 25.2H5.93428C5.76865 25.2 5.63428 25.0656 5.63428 24.9V15.8234C5.63428 15.6578 5.76865 15.5234 5.93428 15.5234C6.0999 15.5234 6.23428 15.6578 6.23428 15.8234V24.5984H22.3124V17.8594C22.3124 17.6937 22.4468 17.5594 22.6124 17.5594C22.778 17.5594 22.9124 17.6937 22.9124 17.8594V24.9C22.9124 25.0656 22.778 25.2 22.6124 25.2Z" fill="#84888C"/>
<path d="M12.4344 12.9735H3.3C3.13438 12.9735 3 12.8392 3 12.672V9.19072C3 8.26416 3.50938 7.41104 4.32812 6.96416C4.64062 6.79385 4.97969 6.69541 5.3375 6.66729C5.35625 6.66572 5.37656 6.66416 9.44844 6.6626C9.61406 6.6626 9.75 6.79854 9.75 6.96416C9.75 7.12979 9.61406 7.26416 9.44844 7.26416C6.97812 7.26416 5.50156 7.26572 5.375 7.26729C5.10469 7.28916 4.84844 7.36416 4.61406 7.49229C3.98906 7.83447 3.6 8.48447 3.6 9.19072V12.372H12.4344C12.6 12.372 12.7344 12.5063 12.7344 12.672C12.7344 12.8392 12.6 12.9735 12.4344 12.9735Z" fill="#84888C"/>
<path d="M19.3532 7.26572C18.336 7.26416 16.7688 7.26416 15.0485 7.26416H11.5532C11.3875 7.26416 11.2532 7.12979 11.2532 6.96416C11.2532 6.79854 11.3875 6.6626 11.5532 6.6626H15.0485C16.7704 6.6626 18.336 6.66416 19.3532 6.66572C19.5188 6.66572 19.6532 6.8001 19.6532 6.96572C19.6532 7.13135 19.5188 7.26572 19.3532 7.26572Z" fill="#84888C"/>
<path d="M22.6126 9.49222C22.447 9.49222 22.3126 9.35784 22.3126 9.19065C22.3126 8.48597 21.9251 7.83597 21.3001 7.49378C21.1548 7.41409 21.1017 7.23128 21.1798 7.08597C21.261 6.94065 21.4423 6.88753 21.5876 6.96722C22.4048 7.41409 22.9126 8.26565 22.9126 9.19065C22.9126 9.35784 22.7782 9.49222 22.6126 9.49222Z" fill="#84888C"/>
<path d="M9.81882 16.7612C7.95476 16.7612 6.33288 15.2471 5.661 12.8127C5.61725 12.6533 5.70944 12.4877 5.87038 12.444C6.02976 12.4002 6.19538 12.4924 6.23913 12.6533C6.83757 14.819 8.23288 16.1612 9.81882 16.1612C9.98444 16.1612 10.1188 16.2955 10.1188 16.4612C10.1188 16.6268 9.98444 16.7612 9.81882 16.7612Z" fill="#84888C"/>
<path d="M11.7204 16.1608L22.5297 16.1593C22.5547 16.1562 22.5782 16.1546 22.6016 16.1546C24.6204 16.0921 26.2797 13.7062 26.3875 10.7733H14.2922C14.2688 11.4483 14.1672 12.1124 13.9907 12.753C13.5688 14.2827 12.7438 15.4874 11.7204 16.1608ZM22.5125 16.7608H10.0141C9.84849 16.7608 9.71411 16.6265 9.71411 16.4608C9.71411 16.303 9.83599 16.1577 9.9938 16.1468C11.5032 16.0468 12.8438 14.6515 13.4125 12.5937C13.6016 11.9093 13.6969 11.1968 13.6969 10.4733C13.6969 10.3077 13.8313 10.1733 13.9969 10.1733H26.6922C26.8579 10.1733 26.9922 10.3077 26.9922 10.4733C26.9922 13.9202 25.0688 16.6796 22.6141 16.7562H22.5875C22.5625 16.7593 22.5375 16.7608 22.5125 16.7608Z" fill="#84888C"/>
<path d="M3.3 25.2002C3.13438 25.2002 3 25.0658 3 24.9002V12.6721C3 12.5064 3.13438 12.3721 3.3 12.3721C3.46562 12.3721 3.6 12.5064 3.6 12.6721V24.9002C3.6 25.0658 3.46562 25.2002 3.3 25.2002Z" fill="#84888C"/>
<path d="M4.66401 25.1999C4.49839 25.1999 4.36401 25.0655 4.36401 24.8999V12.7468C4.36401 12.5812 4.49839 12.4468 4.66401 12.4468C4.8312 12.4468 4.96401 12.5812 4.96401 12.7468V24.8999C4.96401 25.0655 4.8312 25.1999 4.66401 25.1999Z" fill="#84888C"/>
<path d="M8.45006 9.72188C8.28443 9.72188 8.15006 9.5875 8.15006 9.42188C8.15006 9.25625 8.28443 9.12031 8.45006 9.12031C9.46568 9.12031 10.2922 8.29219 10.2922 7.275C10.2922 6.25625 9.46568 5.42813 8.45006 5.42813C7.57818 5.42813 6.81881 6.04844 6.64381 6.90313C6.611 7.06563 6.45318 7.17031 6.29068 7.1375C6.12818 7.10313 6.0235 6.94531 6.05631 6.78125C6.28756 5.65 7.29381 4.82812 8.45006 4.82812C9.79693 4.82812 10.8922 5.925 10.8922 7.275C10.8922 8.62344 9.79693 9.72188 8.45006 9.72188Z" fill="#84888C"/>
<path d="M8.35928 10.947C7.52021 10.947 6.8374 10.2626 6.8374 9.42197C6.8374 8.58135 7.52021 7.89697 8.35928 7.89697C8.49209 7.89697 8.6249 7.91416 8.75303 7.94854C8.9124 7.99072 9.00772 8.15479 8.96553 8.31572C8.92178 8.47666 8.75771 8.57197 8.59834 8.52822C8.52021 8.50791 8.44053 8.49854 8.35928 8.49854C7.85146 8.49854 7.4374 8.9126 7.4374 9.42197C7.4374 9.93135 7.85146 10.3454 8.35928 10.3454C8.59053 10.3454 8.8124 10.2595 8.98115 10.1032C9.10459 9.99072 9.29365 10.0001 9.40615 10.122C9.51865 10.2438 9.50928 10.4345 9.3874 10.547C9.10615 10.8048 8.74053 10.947 8.35928 10.947Z" fill="#84888C"/>
<path d="M18.3312 9.72188C18.1655 9.72188 18.0312 9.5875 18.0312 9.42188C18.0312 9.25625 18.1655 9.12031 18.3312 9.12031C19.3468 9.12031 20.1749 8.29219 20.1749 7.275C20.1749 6.25625 19.3468 5.42813 18.3312 5.42813C17.4593 5.42813 16.6999 6.04844 16.5249 6.90313C16.4921 7.06563 16.3343 7.17031 16.1718 7.1375C16.0093 7.10313 15.9046 6.94531 15.9374 6.78125C16.1687 5.65 17.1749 4.82812 18.3312 4.82812C19.678 4.82812 20.7733 5.925 20.7733 7.275C20.7733 8.62344 19.678 9.72188 18.3312 9.72188Z" fill="#84888C"/>
<path d="M17.0188 9.72197C16.8531 9.72197 16.7188 9.5876 16.7188 9.42197C16.7188 8.58135 17.4016 7.89697 18.2406 7.89697C18.4188 7.89697 18.5938 7.92666 18.7594 7.9876C18.9141 8.04385 18.9953 8.21572 18.9391 8.37197C18.8828 8.52822 18.7109 8.60947 18.5547 8.55166C18.4547 8.51572 18.3484 8.49854 18.2406 8.49854C17.7328 8.49854 17.3188 8.9126 17.3188 9.42197C17.3188 9.5876 17.1844 9.72197 17.0188 9.72197Z" fill="#84888C"/>
</svg>
