<svg width="20" height="19" viewBox="0 0 20 19" fill="none" xmlns="http://www.w3.org/2000/svg">
<path d="M5 0.59375C5 0.436278 4.93415 0.285255 4.81694 0.173905C4.69973 0.0625556 4.54076 0 4.375 0C4.20924 0 4.05027 0.0625556 3.93306 0.173905C3.81585 0.285255 3.75 0.436278 3.75 0.59375V1.1875H2.5C1.83696 1.1875 1.20107 1.43772 0.732233 1.88312C0.263392 2.32852 0 2.93261 0 3.5625L0 4.75H20V3.5625C20 2.93261 19.7366 2.32852 19.2678 1.88312C18.7989 1.43772 18.163 1.1875 17.5 1.1875H16.25V0.59375C16.25 0.436278 16.1842 0.285255 16.0669 0.173905C15.9497 0.0625556 15.7908 0 15.625 0C15.4592 0 15.3003 0.0625556 15.1831 0.173905C15.0658 0.285255 15 0.436278 15 0.59375V1.1875H5V0.59375ZM20 16.625V5.9375H0V16.625C0 17.2549 0.263392 17.859 0.732233 18.3044C1.20107 18.7498 1.83696 19 2.5 19H17.5C18.163 19 18.7989 18.7498 19.2678 18.3044C19.7366 17.859 20 17.2549 20 16.625ZM13.5675 10.5141L9.8175 14.0766C9.75944 14.1319 9.69047 14.1758 9.61454 14.2057C9.53861 14.2357 9.45721 14.2511 9.375 14.2511C9.29279 14.2511 9.21139 14.2357 9.13546 14.2057C9.05953 14.1758 8.99056 14.1319 8.9325 14.0766L7.0575 12.2954C6.94014 12.1839 6.87421 12.0327 6.87421 11.875C6.87421 11.7173 6.94014 11.5661 7.0575 11.4546C7.17486 11.3431 7.33403 11.2805 7.5 11.2805C7.66597 11.2805 7.82514 11.3431 7.9425 11.4546L9.375 12.8167L12.6825 9.67338C12.7999 9.56188 12.959 9.49925 13.125 9.49925C13.291 9.49925 13.4501 9.56188 13.5675 9.67338C13.6849 9.78487 13.7508 9.93608 13.7508 10.0938C13.7508 10.2514 13.6849 10.4026 13.5675 10.5141Z" fill="#FF5BFF"/>
</svg>
