<svg width="27" height="25" viewBox="0 0 27 25" fill="none" xmlns="http://www.w3.org/2000/svg">
<path d="M10.125 20.3125C10.125 22.0391 8.235 23.4375 5.90625 23.4375C3.5775 23.4375 1.6875 22.0391 1.6875 20.3125C1.6875 18.5875 3.5775 17.1875 5.90625 17.1875C8.235 17.1875 10.125 18.5875 10.125 20.3125ZM25.3125 17.1875C25.3125 18.9141 23.4225 20.3125 21.0938 20.3125C18.765 20.3125 16.875 18.9141 16.875 17.1875C16.875 15.4609 18.765 14.0625 21.0938 14.0625C23.4225 14.0625 25.3125 15.4609 25.3125 17.1875Z" fill="#FF5BFF"/>
<path fill-rule="evenodd" clip-rule="evenodd" d="M23.625 17.1875V3.125H25.3125V17.1875H23.625ZM10.125 4.6875V20.3125H8.4375V4.6875H10.125Z" fill="#FF5BFF"/>
<path d="M8.4375 4.53908C8.43749 4.15173 8.59288 3.77818 8.87351 3.49091C9.15414 3.20364 9.54001 3.02313 9.95625 2.98439L23.4562 1.73439C23.6909 1.71256 23.9279 1.73651 24.1519 1.8047C24.376 1.87288 24.5821 1.9838 24.757 2.13029C24.9319 2.27678 25.0717 2.45558 25.1674 2.65518C25.2631 2.85477 25.3125 3.07071 25.3125 3.28908V4.68752L8.4375 6.25002V4.53908Z" fill="#FF5BFF"/>
</svg>
