<svg width="29" height="33" viewBox="0 0 29 33" fill="none" xmlns="http://www.w3.org/2000/svg">
<path d="M21.1364 17.8609L16.8014 21.7586H10.9841V20.4507H15.7135C15.8188 20.4506 15.922 20.4185 16.0123 20.3577C16.1025 20.2968 16.1764 20.2097 16.2261 20.1054C16.2758 20.0011 16.2993 19.8836 16.2943 19.7654C16.2893 19.6473 16.2558 19.5328 16.1975 19.4344L15.1644 17.6921C14.9524 17.3335 14.6649 17.0394 14.3273 16.8361C13.9897 16.6327 13.6126 16.5264 13.2296 16.5267H4.00331C3.69474 16.5267 3.39881 16.6645 3.18061 16.9098C2.96242 17.1551 2.83984 17.4878 2.83984 17.8347V25.6826C2.83984 26.3764 3.085 27.0418 3.52138 27.5324C3.95777 28.0229 4.54963 28.2986 5.16677 28.2986H16.3814C16.8789 28.2987 17.3707 28.1792 17.8238 27.9482C18.2768 27.7172 18.6808 27.38 19.0085 26.9592L26.1091 17.8347L24.4197 17.2016C23.867 16.9945 23.277 16.9463 22.7035 17.0615C22.1299 17.1766 21.5912 17.4515 21.1364 17.8609ZM22.9189 10.4969C23.4436 9.88871 23.7682 9.04768 23.7682 8.11901C23.7682 7.19035 23.4436 6.34931 22.9189 5.7411C22.6535 5.42977 22.3349 5.18193 21.9822 5.01246C21.6296 4.84299 21.2501 4.75538 20.8665 4.75488C20.8665 4.75488 19.4192 4.75096 17.9648 6.43695C16.5105 4.75096 15.0632 4.75488 15.0632 4.75488C14.6797 4.75543 14.3003 4.84294 13.9477 5.01217C13.5951 5.18141 13.2764 5.42888 13.0108 5.73979C12.4861 6.34931 12.1615 7.18904 12.1615 8.1177C12.1615 9.04637 12.4861 9.88871 13.0108 10.4956L17.9648 16.5267L22.9189 10.4969Z" fill="#FF5BFF"/>
</svg>
