<svg width="21" height="21" viewBox="0 0 21 21" fill="none" xmlns="http://www.w3.org/2000/svg">
<path d="M10.5 1.3125C8.58617 1.31476 6.75136 2.07603 5.39807 3.42932C4.04479 4.78261 3.28352 6.61741 3.28126 8.53125C3.27897 10.0952 3.78984 11.6168 4.73551 12.8625C4.73551 12.8625 4.93238 13.1217 4.96454 13.1591L10.5 19.6875L16.0381 13.1558C16.067 13.1211 16.2645 12.8625 16.2645 12.8625L16.2652 12.8605C17.2104 11.6154 17.721 10.0945 17.7188 8.53125C17.7165 6.61741 16.9552 4.78261 15.6019 3.42932C14.2487 2.07603 12.4138 1.31476 10.5 1.3125ZM13.2628 8.99194L10.502 11.8125L7.7372 8.99194C7.40523 8.64918 7.21961 8.19073 7.21961 7.71356C7.21961 7.2364 7.40523 6.77794 7.7372 6.43519C7.89999 6.26786 8.09467 6.13486 8.30973 6.04404C8.52479 5.95323 8.75587 5.90643 8.98932 5.90643C9.22277 5.90643 9.45385 5.95323 9.66892 6.04404C9.88398 6.13486 10.0787 6.26786 10.2414 6.43519L10.502 6.70097L10.7599 6.43519C10.9227 6.26786 11.1174 6.13486 11.3324 6.04404C11.5475 5.95323 11.7786 5.90643 12.012 5.90643C12.2455 5.90643 12.4765 5.95323 12.6916 6.04404C12.9067 6.13486 13.1013 6.26786 13.2641 6.43519C13.5961 6.77794 13.7817 7.2364 13.7817 7.71356C13.7817 8.19073 13.5961 8.64918 13.2641 8.99194H13.2628Z" fill="#FF5BFF"/>
</svg>
