<svg width="20" height="20" viewBox="0 0 20 20" fill="none" xmlns="http://www.w3.org/2000/svg">
<path d="M15.8223 2.85594C15.8989 2.85594 16.1339 2.86844 16.306 2.87812C16.2707 2.63656 16.157 2.40719 15.9564 2.19563C14.9032 1.08594 11.5848 0.625 10.042 0.625C6.09792 0.625 2.85792 2.73719 1.37636 6.27437C0.229483 9.01188 0.412608 11.9444 1.80323 13.4934L1.92261 12.8944C3.31948 4.38406 9.38448 2.85594 15.8223 2.85594Z" fill="#FF5BFF"/>
<path d="M17.2957 4.04639C17.2233 4.20143 17.1372 4.34972 17.0385 4.48951C16.6713 5.01576 15.8972 5.55545 14.9429 6.09389C16.9307 8.2817 18.0426 11.2754 18.2732 13.2926C19.906 11.6426 19.8382 7.29107 17.2957 4.04639Z" fill="#FF5BFF"/>
<path d="M8.35645 9.29053H12.7158C12.3699 9.07928 11.1724 8.34615 10.8527 8.11865C10.3552 8.31584 9.12363 8.91334 8.35645 9.29053Z" fill="#FF5BFF"/>
<path d="M14.5118 6.32998C13.5196 6.85686 12.4687 7.43561 11.3378 7.89561C14.0078 9.43248 16.3215 11.0484 17.6181 14.6137C16.9893 17.2072 11.4981 18.75 9.99994 18.75C8.80307 18.75 3.28276 17.6644 2.49338 14.82C2.84619 13.7653 4.13901 10.3875 7.29713 9.29061C13.4709 6.48498 16.5931 4.71092 16.8278 3.80717C16.8949 3.54842 16.3668 3.31592 16.0649 3.31592C9.26495 3.31592 4.63682 5.11529 2.75057 11.3053C2.27557 12.7181 1.86494 14.9506 1.97369 15.2394C3.11244 18.265 8.69744 19.375 9.99994 19.375C11.4743 19.375 17.3846 17.8612 18.2056 14.8359C18.0468 13.7278 17.8306 12.8547 17.6421 12.2297C17.1846 10.6172 16.2818 8.38498 14.5118 6.32998Z" fill="#FF5BFF"/>
<path d="M6.4577 13.5464C6.83066 13.5464 7.18834 13.3982 7.45206 13.1345C7.71579 12.8708 7.86395 12.5131 7.86395 12.1401C7.86272 11.9733 7.8315 11.8081 7.77176 11.6523C8.09363 11.8858 8.35269 12.2001 8.48895 12.6089C8.48895 10.1089 4.11426 10.1089 4.11426 12.2964C4.31801 11.7864 4.7902 11.4461 5.35269 11.2801C5.15878 11.5249 5.05279 11.8278 5.05176 12.1401C5.05176 12.917 5.68082 13.5464 6.4577 13.5464Z" fill="#FF5BFF"/>
<path d="M15.9893 12.2964C15.9893 10.1089 11.6143 10.1089 11.6143 12.6089C11.7505 12.2001 12.0096 11.8861 12.3314 11.6523C12.2717 11.8081 12.2405 11.9733 12.2393 12.1401C12.2393 12.5131 12.3874 12.8708 12.6511 13.1345C12.9149 13.3982 13.2725 13.5464 13.6455 13.5464C14.0185 13.5464 14.3762 13.3982 14.6399 13.1345C14.9036 12.8708 15.0518 12.5131 15.0518 12.1401C15.0508 11.8278 14.9447 11.5248 14.7505 11.2801C15.3133 11.4461 15.7855 11.7864 15.9893 12.2964Z" fill="#FF5BFF"/>
<path d="M10.0514 17.5C11.458 17.5 12.8643 16.9641 12.8643 15.8928C12.8643 15.8928 12.8643 15.625 12.583 15.625H7.52051C7.23926 15.625 7.23926 15.8928 7.23926 15.8928C7.23895 16.9641 8.6452 17.5 10.0514 17.5Z" fill="#FF5BFF"/>
</svg>
