<svg width="29" height="33" viewBox="0 0 29 33" fill="none" xmlns="http://www.w3.org/2000/svg">
<path d="M2.45831 17.9252C2.30854 18.0428 2.20291 18.2186 2.16189 18.4187C2.12088 18.6188 2.1474 18.8289 2.23632 19.0082L4.04573 22.5304C4.23142 22.8914 4.65725 23.0405 4.99093 22.8568L10.5169 19.848V30.6529H13.3092V18.3255L18.993 15.2287L15.335 8.10281L2.45831 17.9252ZM26.5126 5.59777C25.7602 4.135 24.5219 3.06796 23.07 2.63119C21.618 2.19442 20.0712 2.42365 18.7696 3.26851C17.4991 4.09254 16.6642 5.40157 16.2551 6.86128L20.4101 14.954C21.7378 15.2868 23.1647 15.1267 24.438 14.3026C25.7399 13.4576 26.6898 12.0657 27.0789 10.4333C27.468 8.80078 27.2643 7.0614 26.5126 5.59777Z" fill="#FF5BFF"/>
</svg>
