<svg width="29" height="33" viewBox="0 0 29 33" fill="none" xmlns="http://www.w3.org/2000/svg">
<g clip-path="url(#clip0_1_17141)">
<path d="M23.652 8.31392L27.6622 5.40652C27.7575 5.33508 27.8394 5.24321 27.9032 5.13616C27.967 5.02912 28.0114 4.909 28.0339 4.78266C28.0564 4.65632 28.0565 4.52624 28.0343 4.39985C28.012 4.27345 27.9679 4.15322 27.9043 4.04602L27.4206 3.22996C27.357 3.12274 27.2753 3.03065 27.1801 2.95894C27.0849 2.88723 26.978 2.83731 26.8656 2.81204C26.7532 2.78676 26.6375 2.78661 26.5251 2.81161C26.4127 2.83661 26.3057 2.88627 26.2104 2.95774L20.208 7.31086C17.4942 6.77255 14.9195 6.71675 14.0895 6.71675C12.1016 6.71675 0.12793 6.99572 0.12793 13.5929V23.4168C0.12793 25.2727 1.6277 26.9533 4.05461 28.1905V21.9429C4.05461 21.5526 4.19251 21.1784 4.43798 20.9024C4.68344 20.6264 5.01637 20.4714 5.36351 20.4714C5.71065 20.4714 6.04357 20.6264 6.28903 20.9024C6.5345 21.1784 6.6724 21.5526 6.6724 21.9429V29.2347C8.47486 29.7932 10.5484 30.158 12.7806 30.2604V23.9079C12.7806 23.5177 12.9185 23.1434 13.1639 22.8674C13.4094 22.5915 13.7423 22.4364 14.0895 22.4364C14.4366 22.4364 14.7695 22.5915 15.015 22.8674C15.2605 23.1434 15.3984 23.5177 15.3984 23.9079V30.2604C17.6306 30.158 19.7041 29.7932 21.5065 29.2347V21.9429C21.5065 21.5526 21.6444 21.1784 21.8899 20.9024C22.1354 20.6264 22.4683 20.4714 22.8154 20.4714C23.1626 20.4714 23.4955 20.6264 23.741 20.9024C23.9864 21.1784 24.1243 21.5526 24.1243 21.9429V28.1905C26.5512 26.9533 28.051 25.2727 28.051 23.4168V13.5929C28.051 10.9368 26.1008 9.31575 23.652 8.31392ZM14.0895 17.5223C7.82423 17.5223 2.74572 15.7633 2.74572 13.5929C2.74572 11.4224 7.82423 9.66401 14.0895 9.66401C15.0248 9.66401 15.929 9.70754 16.7989 9.78111L12.828 12.6628C12.7327 12.7343 12.6508 12.8262 12.5871 12.9332C12.5234 13.0403 12.479 13.1604 12.4566 13.2868C12.4341 13.4131 12.4341 13.5432 12.4563 13.6695C12.4786 13.7959 12.5228 13.9161 12.5864 14.0233L13.0702 14.8393C13.1337 14.9465 13.2154 15.0386 13.3107 15.1103C13.4059 15.182 13.5127 15.232 13.6251 15.2572C13.7375 15.2825 13.8532 15.2827 13.9656 15.2577C14.078 15.2327 14.185 15.183 14.2803 15.1115L20.7507 10.42C23.5839 11.1312 25.4332 12.2863 25.4332 13.5929C25.4332 15.7633 20.3542 17.5223 14.0895 17.5223Z" fill="#FF5BFF"/>
</g>
<defs>
<clipPath id="clip0_1_17141">
<rect width="27.9231" height="31.3916" fill="white" transform="translate(0.12793 0.831055)"/>
</clipPath>
</defs>
</svg>
