<svg width="25" height="25" viewBox="0 0 25 25" fill="none" xmlns="http://www.w3.org/2000/svg">
<path d="M2.5 6.25C2.5 5.58696 2.76339 4.95107 3.23223 4.48223C3.70107 4.01339 4.33696 3.75 5 3.75H15C15.663 3.75 16.2989 4.01339 16.7678 4.48223C17.2366 4.95107 17.5 5.58696 17.5 6.25V13.75C17.5 14.413 17.2366 15.0489 16.7678 15.5178C16.2989 15.9866 15.663 16.25 15 16.25H5C4.33696 16.25 3.70107 15.9866 3.23223 15.5178C2.76339 15.0489 2.5 14.413 2.5 13.75V6.25Z" fill="#FF5BFF"/>
<path d="M18.75 13.3302V6.66523L21.5687 5.07773C21.6639 5.02427 21.7713 4.99663 21.8804 4.99758C21.9895 4.99853 22.0965 5.02803 22.1907 5.08314C22.2849 5.13826 22.363 5.21707 22.4172 5.31173C22.4715 5.40639 22.5 5.51362 22.5 5.62273V14.3752C22.4999 14.4844 22.4713 14.5917 22.4168 14.6864C22.3624 14.781 22.2842 14.8598 22.1898 14.9148C22.0955 14.9698 21.9884 14.9991 21.8792 14.9998C21.77 15.0006 21.6626 14.9727 21.5675 14.919L18.75 13.3315V13.3302Z" fill="#FF5BFF"/>
<path d="M8.75 17.1875H12.5V17.8125C12.5 19.0557 12.0061 20.248 11.1271 21.1271C10.248 22.0061 9.0557 22.5 7.8125 22.5H4.375C4.20924 22.5 4.05027 22.4342 3.93306 22.3169C3.81585 22.1997 3.75 22.0408 3.75 21.875V19.6875C3.75 19.5217 3.81585 19.3628 3.93306 19.2456C4.05027 19.1283 4.20924 19.0625 4.375 19.0625H7.8125C8.06114 19.0625 8.2996 18.9637 8.47541 18.7879C8.65123 18.6121 8.75 18.3736 8.75 18.125V17.1875Z" fill="#FF5BFF"/>
</svg>
