<svg width="20" height="18" viewBox="0 0 20 18" fill="none" xmlns="http://www.w3.org/2000/svg">
<path d="M18.57 7.66C18.43 7.26 18.05 7 17.6 7H10.41C9.95 7 9.58 7.26 9.43 7.66L8 11.77L8.01 17.28C8.01 17.66 8.32 18 8.7 18H9.32C9.7 18 10 17.62 10 17.24V16H18V17.24C18 17.62 18.31 18 18.69 18H19.3C19.68 18 19.99 17.66 19.99 17.28L20 15.91V11.77L18.57 7.66ZM10.41 8H17.6L18.63 11H9.38L10.41 8ZM10 14C9.45 14 9 13.55 9 13C9 12.45 9.45 12 10 12C10.55 12 11 12.45 11 13C11 13.55 10.55 14 10 14ZM18 14C17.45 14 17 13.55 17 13C17 12.45 17.45 12 18 12C18.55 12 19 12.45 19 13C19 13.55 18.55 14 18 14Z" fill="#FF5BFF"/>
<path d="M12 6H13V0H5V5H0V18H1V6H6V1H12V6Z" fill="#FF5BFF"/>
<path d="M3 8H5V10H3V8ZM8 2H10V4H8V2ZM3 12H5V14H3V12ZM3 16H5V18H3V16Z" fill="#FF5BFF"/>
</svg>
