<svg width="29" height="33" viewBox="0 0 29 33" fill="none" xmlns="http://www.w3.org/2000/svg">
<g clip-path="url(#clip0_1_17143)">
<path d="M4.43172 6.53857C3.42185 6.53857 2.45335 6.98957 1.73927 7.79235C1.02519 8.59513 0.624023 9.68394 0.624023 10.8192L0.624023 13.673C0.624023 15.0999 1.89325 15.0999 1.89325 15.0999H4.43172C8.23941 15.0999 10.7779 16.5268 10.7779 16.5268C10.7779 16.5268 8.23941 17.9537 4.43172 17.9537H1.89325C1.89325 17.9537 0.624023 17.9537 0.624023 19.3806V22.2344C0.624023 23.3697 1.02519 24.4585 1.73927 25.2612C2.45335 26.064 3.42185 26.515 4.43172 26.515C5.44158 26.515 6.41008 26.064 7.12416 25.2612C7.83824 24.4585 8.23941 23.3697 8.23941 22.2344V20.4793C10.2905 20.0284 12.2679 19.1865 13.8875 18.3618L22.2009 23.6612C26.0086 25.8016 28.5471 23.6612 28.5471 23.6612L17.124 16.5268L28.5471 9.39235C28.5471 9.39235 26.0086 7.25202 22.2009 9.39235L13.8875 14.6918C12.2679 13.8671 10.2905 13.0252 8.23941 12.5743V10.8307V10.8192C8.23941 9.68394 7.83824 8.59513 7.12416 7.79235C6.41008 6.98957 5.44158 6.53857 4.43172 6.53857ZM4.43172 9.39235C4.76834 9.39235 5.09117 9.54269 5.3292 9.81028C5.56722 10.0779 5.70095 10.4408 5.70095 10.8192C5.70095 11.1977 5.56722 11.5606 5.3292 11.8282C5.09117 12.0958 4.76834 12.2461 4.43172 12.2461C4.09509 12.2461 3.77226 12.0958 3.53423 11.8282C3.29621 11.5606 3.16248 11.1977 3.16248 10.8192C3.16248 10.4408 3.29621 10.0779 3.53423 9.81028C3.77226 9.54269 4.09509 9.39235 4.43172 9.39235ZM13.9053 15.8134H13.9509C14.1172 15.8201 14.2744 15.8999 14.3888 16.0357C14.5032 16.1714 14.5656 16.3522 14.5626 16.5392C14.5596 16.7261 14.4915 16.9043 14.3728 17.0353C14.2541 17.1664 14.0944 17.2398 13.9281 17.2398C13.7618 17.2398 13.6021 17.1664 13.4834 17.0353C13.3647 16.9043 13.2966 16.7261 13.2936 16.5392C13.2906 16.3522 13.353 16.1714 13.4674 16.0357C13.5818 15.8999 13.739 15.8201 13.9053 15.8134ZM4.43172 20.8075C4.76834 20.8075 5.09117 20.9578 5.3292 21.2254C5.56722 21.493 5.70095 21.8559 5.70095 22.2344C5.70095 22.6128 5.56722 22.9757 5.3292 23.2433C5.09117 23.5109 4.76834 23.6612 4.43172 23.6612C4.09509 23.6612 3.77226 23.5109 3.53423 23.2433C3.29621 22.9757 3.16248 22.6128 3.16248 22.2344C3.16248 21.8559 3.29621 21.493 3.53423 21.2254C3.77226 20.9578 4.09509 20.8075 4.43172 20.8075Z" fill="#FF5BFF"/>
</g>
<defs>
<clipPath id="clip0_1_17143">
<rect width="27.9231" height="31.3916" fill="white" transform="translate(0.624023 0.831055)"/>
</clipPath>
</defs>
</svg>
