<svg width="27" height="26" viewBox="0 0 27 26" fill="none" xmlns="http://www.w3.org/2000/svg">
<path d="M21.5999 14.7334C21.5999 16.8021 20.7465 18.786 19.2275 20.2488C17.7084 21.7116 15.6482 22.5334 13.4999 22.5334C11.3516 22.5334 9.29138 21.7116 7.77234 20.2488C6.25329 18.786 5.3999 16.8021 5.3999 14.7334C5.40073 13.2135 5.8629 11.7269 6.72956 10.4566C7.59622 9.18627 8.82957 8.18759 10.2779 7.5834L10.5947 7.82086L11.9879 8.8626C10.6241 9.18664 9.41204 9.94052 8.54444 11.0043C7.67685 12.0681 7.20357 13.3807 7.1999 14.7334C7.1999 18.0787 10.0259 20.8001 13.4999 20.8001C16.9739 20.8001 19.7999 18.0787 19.7999 14.7334C19.7962 13.3807 19.323 12.0681 18.4554 11.0043C17.5878 9.94052 16.3757 9.18664 15.0119 8.8626L16.7219 7.5834C18.1702 8.18759 19.4036 9.18627 20.2702 10.4566C21.1369 11.7269 21.5991 13.2135 21.5999 14.7334ZM13.4999 7.80006L17.9999 4.42873L16.1999 1.7334H10.7999L8.9999 4.42873L11.6999 6.45153L13.4999 7.80006Z" fill="#FF5BFF"/>
</svg>
