<svg width="27" height="26" viewBox="0 0 27 26" fill="none" xmlns="http://www.w3.org/2000/svg">
<g clip-path="url(#clip0_1_17265)">
<path d="M9.81818 2.36364C9.81818 1.89615 9.96214 1.43917 10.2318 1.05047C10.5016 0.661773 10.8849 0.35882 11.3334 0.179922C11.7819 0.00102412 12.2755 -0.0457838 12.7516 0.0454177C13.2277 0.136619 13.6651 0.361734 14.0084 0.692294C14.3516 1.02285 14.5854 1.44401 14.6801 1.90252C14.7748 2.36102 14.7262 2.83626 14.5404 3.26816C14.3547 3.70006 14.04 4.06921 13.6364 4.32893C13.2328 4.58865 12.7582 4.72727 12.2727 4.72727C11.6217 4.72727 10.9974 4.47825 10.5371 4.03498C10.0768 3.59171 9.81818 2.99051 9.81818 2.36364ZM26.7055 10.6364L22.0909 7.09091V5.90909L17.1818 11.8182H14.7273L17.1818 14.1818V16.5785C17.1818 16.892 17.0525 17.1926 16.8224 17.4142C16.5922 17.6359 16.28 17.7604 15.9545 17.7604C15.6291 17.7604 15.3169 17.6359 15.0867 17.4142C14.8566 17.1926 14.7273 16.892 14.7273 16.5785V15.3636L9.81818 11.8182H7.36364C6.97279 11.8306 6.59068 11.9327 6.24912 12.1161C5.90755 12.2994 5.61643 12.5587 5.4 12.8724C5.12023 12.5356 4.76373 12.2653 4.3581 12.0825C3.95246 11.8997 3.50858 11.8093 3.06082 11.8182C2.69806 11.7611 2.32693 11.7776 1.97116 11.8665C1.61539 11.9554 1.28281 12.1149 0.994712 12.3347C0.706612 12.5545 0.46933 12.8298 0.298046 13.143C0.126763 13.4562 0.025249 13.8003 0 14.1535C0 17.2545 1.55864 17.6587 1.55864 17.6587C1.6486 17.6929 1.7442 17.7113 1.84091 17.7131C2.00057 17.7114 2.15341 17.6505 2.26769 17.5431C2.38196 17.4357 2.44888 17.29 2.45455 17.1364V14.1818C2.45129 14.0297 2.47918 13.8785 2.53664 13.7368C2.59409 13.595 2.67997 13.4656 2.78939 13.3559C2.8988 13.2461 3.02959 13.1582 3.17429 13.0971C3.31899 13.0361 3.47477 13.0031 3.63273 13H3.68182C4.00731 13 4.31947 13.1245 4.54963 13.3461C4.77979 13.5678 4.90909 13.8684 4.90909 14.1818V18.9422L4.17273 20.3604C3.91327 20.7972 3.74641 21.2792 3.68182 21.7785V25.4233C3.68182 25.5762 3.74492 25.7229 3.85723 25.8311C3.96955 25.9392 4.12189 26 4.28073 26C4.44258 26.0008 4.59844 25.9411 4.7156 25.8336C4.83276 25.726 4.90211 25.579 4.90909 25.4233V22.4876C4.89253 22.3593 4.90597 22.229 4.94844 22.1063C4.99091 21.9836 5.06133 21.8716 5.15455 21.7785L7.36364 18.9422V21.2727L8.50991 25.5651C8.54766 25.6892 8.62571 25.7984 8.73261 25.8766C8.83951 25.9549 8.96964 25.9981 9.10391 26C9.26666 26 9.42274 25.9377 9.53782 25.8269C9.65289 25.7161 9.71755 25.5658 9.71755 25.4091V25.3713L9.12355 21.5658C9.10523 21.3778 9.12609 21.1882 9.18491 21.008L9.32727 20.5967L9.81818 18.9091H14.7273V21.2727L15.8711 25.5651C15.909 25.6896 15.9874 25.799 16.0948 25.8773C16.2022 25.9556 16.3328 25.9986 16.4675 26C16.6303 26 16.7864 25.9377 16.9015 25.8269C17.0165 25.7161 17.0812 25.5658 17.0812 25.4091L16.4896 21.5658C16.4713 21.3778 16.4922 21.1882 16.551 21.008L17.1818 18.9091C17.6949 18.9561 18.2084 18.8242 18.6291 18.5375C19.0498 18.2508 19.3497 17.8283 19.4744 17.3467L20.8636 10.6364C20.9494 10.9999 21.1803 11.3163 21.5064 11.5171C21.8326 11.718 22.2277 11.7871 22.6064 11.7095C22.7309 11.6706 22.8491 11.6149 22.9574 11.544L25.1665 11.8182C25.4572 11.9838 25.7911 12.0658 26.1286 12.0545C26.2371 12.0622 26.3462 12.0489 26.4492 12.0152C26.5522 11.9816 26.6472 11.9283 26.7285 11.8587C26.8097 11.789 26.8757 11.7043 26.9223 11.6097C26.9689 11.515 26.9954 11.4123 27 11.3076C26.9973 11.0553 26.8915 10.8141 26.7055 10.6364ZM14.7273 8.27273C14.721 7.96119 14.5897 7.66409 14.3609 7.44375C14.132 7.22342 13.8235 7.09696 13.5 7.09091H11.0455C10.8826 7.08494 10.7203 7.11142 10.5686 7.1687C10.4169 7.22598 10.2791 7.31281 10.1638 7.42377C10.0486 7.53473 9.95844 7.66741 9.89896 7.81349C9.83948 7.95958 9.81198 8.11593 9.81818 8.27273V11.8182H14.7273V8.27273Z" fill="#FF5BFF"/>
</g>
<defs>
<clipPath id="clip0_1_17265">
<rect width="27" height="26" fill="white"/>
</clipPath>
</defs>
</svg>
