<svg width="12" height="11" viewBox="0 0 12 11" fill="none" xmlns="http://www.w3.org/2000/svg">
<path d="M6.16509 0.267084C6.20545 0.142865 6.38118 0.142866 6.42154 0.267084L7.62523 3.97163C7.64328 4.02719 7.69504 4.0648 7.75345 4.0648H11.6486C11.7793 4.0648 11.8336 4.23193 11.7279 4.3087L8.57662 6.59824C8.52936 6.63257 8.50959 6.69343 8.52764 6.74898L9.73132 10.4535C9.77168 10.5778 9.62951 10.681 9.52384 10.6043L6.37257 8.31474C6.32531 8.2804 6.26132 8.2804 6.21407 8.31474L3.06279 10.6043C2.95712 10.681 2.81495 10.5778 2.85531 10.4535L4.05899 6.74898C4.07704 6.69343 4.05727 6.63257 4.01001 6.59824L0.858733 4.3087C0.753066 4.23193 0.807372 4.0648 0.937983 4.0648H4.83318C4.89159 4.0648 4.94336 4.02719 4.96141 3.97163L6.16509 0.267084Z" fill="white"/>
</svg>
