<svg width="29" height="27" viewBox="0 0 29 27" fill="none" xmlns="http://www.w3.org/2000/svg">
<path d="M13.5332 0V3.6H15.4665V0H13.5332Z" fill="#FF5BFF"/>
<path d="M6.48462 6.56279L3.58462 3.86279L2.21582 5.13719L5.11582 7.83719L6.48462 6.56279Z" fill="#FF5BFF"/>
<path d="M23.8844 7.83719L26.7844 5.13719L25.4156 3.86279L22.5156 6.56279L23.8844 7.83719Z" fill="#FF5BFF"/>
<path d="M14.4999 5.3999C12.6569 5.39962 10.8757 6.01845 9.48345 7.14272C8.0912 8.267 7.18141 9.82123 6.92119 11.5199L6.90186 11.6459C6.75489 12.5922 6.8144 13.5564 7.07683 14.4809C7.33926 15.4053 7.79921 16.271 8.42919 17.0261C9.16966 17.9171 9.66652 18.7685 9.66652 19.6217V22.4999C9.66652 22.7386 9.76837 22.9675 9.94965 23.1363C10.1309 23.3051 10.3768 23.3999 10.6332 23.3999H18.3665C18.6229 23.3999 18.8688 23.3051 19.0501 23.1363C19.2313 22.9675 19.3332 22.7386 19.3332 22.4999V19.6217C19.3332 18.7685 19.8301 17.9171 20.5705 17.0261C21.7885 15.5609 22.4033 13.6511 22.0979 11.6441L22.0785 11.5181C21.8179 9.81975 20.9079 8.26596 19.5157 7.14204C18.1235 6.01813 16.3425 5.39955 14.4999 5.3999Z" fill="#FF5BFF"/>
<path d="M0 14.4001H3.86667V12.6001H0V14.4001Z" fill="#FF5BFF"/>
<path d="M25.1333 14.4001H29V12.6001H25.1333V14.4001Z" fill="#FF5BFF"/>
<path d="M11.6001 27.0002H17.4001V25.2002H11.6001V27.0002Z" fill="#FF5BFF"/>
</svg>
