<svg width="31" height="30" viewBox="0 0 31 30" fill="none" xmlns="http://www.w3.org/2000/svg">
<g clip-path="url(#clip0_1274_3028)">
<path d="M28.2996 5.62034V24.3548H2.70046V5.62034H28.2996ZM30.1281 3.74689H0.871948V26.2283H30.1281V3.74689Z" fill="#C4456F"/>
<path d="M17.3286 9.36719H26.4711V11.2406H17.3286V9.36719Z" fill="#C4456F"/>
<path d="M17.3286 13.1141H26.4711V14.9876H17.3286V13.1141Z" fill="#C4456F"/>
<path d="M17.3286 16.861H20.9856V18.7345H17.3286V16.861Z" fill="#C4456F"/>
<path d="M12.7573 9.36719C11.6602 9.36719 10.7459 10.4913 10.0145 11.2406C9.28311 10.4913 8.36886 9.36719 7.27175 9.36719C4.52898 9.36719 3.43187 12.9267 5.44324 14.8002L10.0145 18.7344L14.5858 14.8002C16.5972 12.9267 15.5001 9.36719 12.7573 9.36719Z" fill="#C4456F"/>
</g>
<defs>
<clipPath id="clip0_1274_3028">
<rect width="29.2562" height="29.9752" fill="white" transform="translate(0.871887)"/>
</clipPath>
</defs>
</svg>
