<svg width="20" height="19" viewBox="0 0 20 19" fill="none" xmlns="http://www.w3.org/2000/svg">
<path d="M19.99 4.00101H15.81C15.92 3.69101 15.99 3.35101 15.99 3.00101C15.9911 2.35584 15.7839 1.72755 15.3992 1.20961C15.0145 0.691666 14.4729 0.311743 13.8549 0.126353C13.2369 -0.0590374 12.5756 -0.0399889 11.9694 0.180665C11.3631 0.401318 10.8442 0.811787 10.49 1.35101L9.99 2.02101L9.49 1.34101C8.95 0.541014 8.04 0.00101409 6.99 0.00101409C5.33 0.00101409 3.99 1.34101 3.99 3.00101C3.99 3.35101 4.06 3.69101 4.17 4.00101H0V19.001H19.99V4.00101ZM12.99 2.00101C13.54 2.00101 13.99 2.45101 13.99 3.00101C13.99 3.55101 13.54 4.00101 12.99 4.00101C12.44 4.00101 11.99 3.55101 11.99 3.00101C11.99 2.45101 12.44 2.00101 12.99 2.00101ZM6.99 2.00101C7.54 2.00101 7.99 2.45101 7.99 3.00101C7.99 3.55101 7.54 4.00101 6.99 4.00101C6.44 4.00101 5.99 3.55101 5.99 3.00101C5.99 2.45101 6.44 2.00101 6.99 2.00101ZM17.99 17.001H1.99V15.001H17.99V17.001ZM17.99 12.001H1.99V6.00101H7.07L4.99 8.83101L6.61 10.001L9.99 5.40101L13.37 10.001L14.99 8.83101L12.91 6.00101H17.99V12.001Z" fill="#FF5BFF"/>
</svg>
