<svg width="11" height="11" viewBox="0 0 11 11" fill="none" xmlns="http://www.w3.org/2000/svg">
<path d="M9.20447 3.37545L7.62494 1.79591C7.55208 1.72306 7.46271 1.66963 7.36557 1.64049V1.61426H1.9256C1.75366 1.61426 1.61475 1.75317 1.61475 1.92511V9.07478C1.61475 9.24673 1.75366 9.38564 1.9256 9.38564H9.07527C9.24721 9.38564 9.38613 9.24673 9.38613 9.07478V3.81453C9.38613 3.64939 9.32104 3.49202 9.20447 3.37545ZM4.25702 2.31368H6.74386V3.32396H4.25702V2.31368ZM8.6867 8.68622H2.31417V2.31368H3.63531V3.63482C3.63531 3.80676 3.77422 3.94567 3.94616 3.94567H7.05471C7.22666 3.94567 7.36557 3.80676 7.36557 3.63482V2.52545L8.6867 3.84659V8.68622ZM5.50044 4.81995C4.72816 4.81995 4.10159 5.44652 4.10159 6.2188C4.10159 6.99108 4.72816 7.61765 5.50044 7.61765C6.27272 7.61765 6.89929 6.99108 6.89929 6.2188C6.89929 5.44652 6.27272 4.81995 5.50044 4.81995ZM5.50044 6.99594C5.07107 6.99594 4.7233 6.64817 4.7233 6.2188C4.7233 5.78943 5.07107 5.44166 5.50044 5.44166C5.92981 5.44166 6.27758 5.78943 6.27758 6.2188C6.27758 6.64817 5.92981 6.99594 5.50044 6.99594Z" fill="white"/>
</svg>
