<svg width="30" height="30" viewBox="0 0 30 30" fill="none" xmlns="http://www.w3.org/2000/svg">
<path d="M24.775 7.61087H20.8894L19.9637 4.95292C19.8998 4.77104 19.7826 4.61383 19.6282 4.50275C19.4737 4.39168 19.2896 4.33217 19.1009 4.33234H10.3355C9.94977 4.33234 9.60407 4.58115 9.4755 4.95292L8.54696 7.61087H4.66137C3.39856 7.61087 2.37573 8.65884 2.37573 9.95269V23.301C2.37573 24.5949 3.39856 25.6428 4.66137 25.6428H24.775C26.0378 25.6428 27.0606 24.5949 27.0606 23.301V9.95269C27.0606 8.65884 26.0378 7.61087 24.775 7.61087ZM14.7182 20.9592C12.1926 20.9592 10.1469 18.8633 10.1469 16.2756C10.1469 13.6879 12.1926 11.592 14.7182 11.592C17.2438 11.592 19.2895 13.6879 19.2895 16.2756C19.2895 18.8633 17.2438 20.9592 14.7182 20.9592ZM11.9754 16.2756C11.9754 17.0209 12.2644 17.7357 12.7788 18.2627C13.2931 18.7897 13.9908 19.0858 14.7182 19.0858C15.4456 19.0858 16.1433 18.7897 16.6576 18.2627C17.172 17.7357 17.461 17.0209 17.461 16.2756C17.461 15.5303 17.172 14.8155 16.6576 14.2885C16.1433 13.7615 15.4456 13.4654 14.7182 13.4654C13.9908 13.4654 13.2931 13.7615 12.7788 14.2885C12.2644 14.8155 11.9754 15.5303 11.9754 16.2756Z" fill="#C4456F"/>
</svg>
