<svg width="11" height="11" viewBox="0 0 11 11" fill="none" xmlns="http://www.w3.org/2000/svg">
<path d="M6.75674 0.496338C6.80191 0.496258 6.84665 0.505081 6.88842 0.522304C6.93018 0.539527 6.96813 0.564812 7.00011 0.596713L10.4032 3.99984C10.4677 4.0643 10.5039 4.15172 10.5039 4.24287C10.5039 4.33402 10.4677 4.42144 10.4032 4.4859C10.0732 4.8159 9.66624 4.89015 9.36993 4.89015C9.24824 4.89015 9.13961 4.87778 9.05368 4.86334L6.89905 7.01796C6.95577 7.24649 6.99257 7.47951 7.00905 7.7144C7.04068 8.19703 6.98705 8.87421 6.51405 9.34721C6.44959 9.41166 6.36217 9.44786 6.27102 9.44786C6.17987 9.44786 6.09245 9.41166 6.02799 9.34721L4.08305 7.40296L1.89543 9.59059C1.76136 9.72465 1.05736 10.2107 0.9233 10.0766C0.789238 9.94259 1.2753 9.2379 1.40936 9.10453L3.59699 6.9169L1.65274 4.97196C1.58829 4.9075 1.55209 4.82008 1.55209 4.72893C1.55209 4.63778 1.58829 4.55036 1.65274 4.4859C2.12574 4.0129 2.80292 3.95859 3.28555 3.9909C3.52044 4.00735 3.75346 4.04416 3.98199 4.1009L6.13661 1.94696C6.11863 1.84227 6.10943 1.73625 6.10911 1.63003C6.10911 1.3344 6.18336 0.927401 6.51405 0.596713C6.57847 0.532454 6.66575 0.496358 6.75674 0.496338Z" fill="black"/>
</svg>
