<svg width="14" height="15" viewBox="0 0 14 15" fill="none" xmlns="http://www.w3.org/2000/svg">
<path d="M7.0008 11.8711C4.40419 11.8711 2.30481 9.77172 2.30481 7.17512C2.30481 4.57851 4.40419 2.47913 7.0008 2.47913C9.59741 2.47913 11.6968 4.57851 11.6968 7.17512C11.6968 9.77172 9.59741 11.8711 7.0008 11.8711ZM7.0008 3.0316C4.70805 3.0316 2.85728 4.88237 2.85728 7.17512C2.85728 9.46787 4.70805 11.3186 7.0008 11.3186C9.29355 11.3186 11.1443 9.46787 11.1443 7.17512C11.1443 4.88237 9.29355 3.0316 7.0008 3.0316Z" fill="#C4456F"/>
<path d="M8.46489 9.57832L6.72461 7.83804V4.68896H7.27708V7.61705L8.85162 9.19159L8.46489 9.57832Z" fill="#C4456F"/>
</svg>
