<svg width="28" height="30" viewBox="0 0 28 30" fill="none" xmlns="http://www.w3.org/2000/svg">
<g filter="url(#filter0_d_1902_9068)">
<path d="M8.61932 17.0688C5.90492 14.1504 5.95292 9.576 8.77292 6.7356C9.87813 5.61756 11.3152 4.88682 12.8697 4.6524L12.7869 2.16C10.6046 2.4235 8.57575 3.41784 7.03052 4.9812C3.25172 8.7852 3.20612 14.928 6.88292 18.8184L4.79372 20.9208L11.4057 21.282L11.3877 14.2812L8.61932 17.0688ZM16.5957 2.718L16.6137 9.7188L19.3821 6.9324C22.0965 9.8532 22.0485 14.4276 19.2285 17.2656C18.1235 18.3839 16.6864 19.1147 15.1317 19.3488L15.2145 21.84C17.3968 21.5762 19.4258 20.5824 20.9721 19.02C24.7497 15.2136 24.7953 9.0708 21.1185 5.1828L23.2077 3.078L16.5957 2.718Z" fill="white"/>
</g>
<defs>
<filter id="filter0_d_1902_9068" x="-2" y="0" width="32" height="32" filterUnits="userSpaceOnUse" color-interpolation-filters="sRGB">
<feFlood flood-opacity="0" result="BackgroundImageFix"/>
<feColorMatrix in="SourceAlpha" type="matrix" values="0 0 0 0 0 0 0 0 0 0 0 0 0 0 0 0 0 0 127 0" result="hardAlpha"/>
<feOffset dy="4"/>
<feGaussianBlur stdDeviation="2"/>
<feColorMatrix type="matrix" values="0 0 0 0 0 0 0 0 0 0 0 0 0 0 0 0 0 0 0.25 0"/>
<feBlend mode="normal" in2="BackgroundImageFix" result="effect1_dropShadow_1902_9068"/>
<feBlend mode="normal" in="SourceGraphic" in2="effect1_dropShadow_1902_9068" result="shape"/>
</filter>
</defs>
</svg>
