<svg width="14" height="12" viewBox="0 0 14 12" fill="none" xmlns="http://www.w3.org/2000/svg">
<path d="M4.56224 5.60632H3.20401V6.55757H4.56163L4.56224 5.60632ZM7.27749 5.60632H5.91986V6.55757H7.27749V5.60632ZM9.99273 5.60632H8.63511V6.55757H9.99456L9.99273 5.60632ZM11.3504 2.27652H10.6715V1.32483H9.31392V2.27608H3.88282V1.32483H2.5252V2.27608H1.84639C1.67138 2.27403 1.49753 2.29705 1.33482 2.34382C1.17211 2.39058 1.02374 2.46017 0.898227 2.54859C0.772714 2.63701 0.672526 2.74252 0.603411 2.85907C0.534297 2.97562 0.497616 3.10092 0.495472 3.22776L0.48877 9.88737C0.49486 10.144 0.641288 10.3883 0.895867 10.5667C1.15045 10.7451 1.49234 10.8429 1.84639 10.8386H11.3522C11.7059 10.8419 12.047 10.7438 12.3013 10.5656C12.5556 10.3875 12.7024 10.1437 12.7098 9.88737V3.22776C12.7026 2.97116 12.5556 2.72705 12.3009 2.54874C12.0462 2.37043 11.7044 2.27241 11.3504 2.27608V2.27652ZM11.3504 9.88781H1.84639V4.65463H11.3522L11.3504 9.88781Z" fill="white"/>
</svg>
