<svg width="39" height="43" viewBox="0 0 39 43" fill="none" xmlns="http://www.w3.org/2000/svg">
<circle opacity="0.3" r="15" transform="matrix(4.37114e-08 -1 -1 -4.37114e-08 18 18)" stroke="#C4C4C4" stroke-width="3" stroke-linecap="round"/>
<g filter="url(#filter0_d_1996_4324)">
<path d="M18 3C20.5635 3 23.0841 3.65696 25.3215 4.90819C27.5589 6.15941 29.4382 7.96314 30.7802 10.1472C32.1222 12.3313 32.8821 14.8229 32.9874 17.3842C33.0926 19.9455 32.5397 22.4911 31.3813 24.7779C30.223 27.0647 28.4979 29.0165 26.3708 30.4471C24.2436 31.8776 21.7853 32.7392 19.2305 32.9494C16.6757 33.1597 14.1096 32.7118 11.7771 31.6483C9.44467 30.5848 7.42368 28.9413 5.90702 26.8747" stroke="url(#paint0_linear_1996_4324)" stroke-width="3" stroke-linecap="round"/>
</g>
<path d="M22.4447 12H17.4023L14.1904 17.5H17.4023L14.6523 23L21.985 16.125H18.3176L22.4447 12Z" fill="#346277"/>
<defs>
<filter id="filter0_d_1996_4324" x="0.206983" y="0.9" width="38.493" height="41.4" filterUnits="userSpaceOnUse" color-interpolation-filters="sRGB">
<feFlood flood-opacity="0" result="BackgroundImageFix"/>
<feColorMatrix in="SourceAlpha" type="matrix" values="0 0 0 0 0 0 0 0 0 0 0 0 0 0 0 0 0 0 127 0" result="hardAlpha"/>
<feOffset dy="3.6"/>
<feGaussianBlur stdDeviation="2.1"/>
<feColorMatrix type="matrix" values="0 0 0 0 0.203125 0 0 0 0 0.585 0 0 0 0 0.9375 0 0 0 0.25 0"/>
<feBlend mode="normal" in2="BackgroundImageFix" result="effect1_dropShadow_1996_4324"/>
<feBlend mode="normal" in="SourceGraphic" in2="effect1_dropShadow_1996_4324" result="shape"/>
</filter>
<linearGradient id="paint0_linear_1996_4324" x1="9.5" y1="35" x2="8.4" y2="-20.5" gradientUnits="userSpaceOnUse">
<stop stop-color="#72A4C0"/>
<stop offset="1" stop-color="#414141"/>
</linearGradient>
</defs>
</svg>
