<svg width="16" height="16" viewBox="0 0 16 16" fill="none" xmlns="http://www.w3.org/2000/svg">
<path d="M8.13484 8.72973V11M11.3781 5.19459V7.59459H4.8916V5.19459C4.8916 5.14298 4.9121 5.09349 4.9486 5.057C4.98509 5.0205 5.03459 5 5.0862 5H11.1835C11.2351 5 11.2846 5.0205 11.3211 5.057C11.3576 5.09349 11.3781 5.14298 11.3781 5.19459V5.19459ZM10.0808 6.2973H10.4051H10.0808ZM4.8916 7.59459L5.14782 8.43265C5.18838 8.56551 5.27052 8.68183 5.38216 8.76451C5.49379 8.84718 5.62901 8.89183 5.76793 8.89189H6.1889L4.8916 7.59459ZM11.3781 7.59459L11.1219 8.43265C11.0813 8.56551 10.9992 8.68183 10.8875 8.76451C10.7759 8.84718 10.6407 8.89183 10.5018 8.89189H10.0808L11.3781 7.59459ZM7.32403 8.72973C7.32403 8.72973 7.32403 11 6.1889 11L7.32403 8.72973ZM8.94566 8.72973C8.94566 8.72973 8.94566 11 10.0808 11L8.94566 8.72973Z" stroke="#A8A8A8" stroke-width="0.486486" stroke-linecap="round" stroke-linejoin="round"/>
</svg>
