<svg width="28" height="30" viewBox="0 0 28 30" fill="none" xmlns="http://www.w3.org/2000/svg">
<g filter="url(#filter0_d_1902_9057)">
<path d="M7.63606 5.63599C8.47179 4.80026 9.46395 4.13732 10.5559 3.68503C11.6478 3.23273 12.8182 2.99994 14.0001 2.99994C15.182 2.99994 16.3523 3.23273 17.4442 3.68503C18.5362 4.13732 19.5283 4.80026 20.3641 5.63599C21.1998 6.47173 21.8627 7.46389 22.315 8.55582C22.7673 9.64776 23.0001 10.8181 23.0001 12C23.0001 13.1819 22.7673 14.3522 22.315 15.4442C21.8627 16.5361 21.1998 17.5283 20.3641 18.364C18.6762 20.0518 16.387 21 14.0001 21C11.6131 21 9.32389 20.0518 7.63606 18.364C5.94822 16.6762 5 14.387 5 12C5 9.61303 5.94822 7.32383 7.63606 5.63599V5.63599Z" stroke="white" stroke-width="2" stroke-linecap="round"/>
<path d="M8 6L20 18" stroke="white" stroke-width="2" stroke-linecap="round"/>
</g>
<defs>
<filter id="filter0_d_1902_9057" x="-2" y="0" width="32" height="32" filterUnits="userSpaceOnUse" color-interpolation-filters="sRGB">
<feFlood flood-opacity="0" result="BackgroundImageFix"/>
<feColorMatrix in="SourceAlpha" type="matrix" values="0 0 0 0 0 0 0 0 0 0 0 0 0 0 0 0 0 0 127 0" result="hardAlpha"/>
<feOffset dy="4"/>
<feGaussianBlur stdDeviation="2"/>
<feColorMatrix type="matrix" values="0 0 0 0 0 0 0 0 0 0 0 0 0 0 0 0 0 0 0.25 0"/>
<feBlend mode="normal" in2="BackgroundImageFix" result="effect1_dropShadow_1902_9057"/>
<feBlend mode="normal" in="SourceGraphic" in2="effect1_dropShadow_1902_9057" result="shape"/>
</filter>
</defs>
</svg>
