<svg width="17" height="17" viewBox="0 0 6 6" fill="none" xmlns="http://www.w3.org/2000/svg">
<g clip-path="url(#clip0_46_27441)">
<path d="M4.36531 0.230469V0.922672H4.96053V1.38414H4.36531V2.07634H3.9685V1.38414H3.37327V0.922672H3.9685V0.230469H4.36531ZM2.77805 2.99928C2.9963 2.99928 3.17487 2.79162 3.17487 2.53781C3.17487 2.284 2.9963 2.07634 2.77805 2.07634C2.5598 2.07634 2.38124 2.284 2.38124 2.53781C2.38124 2.79162 2.5598 2.99928 2.77805 2.99928ZM3.17487 0.749621V1.61487H3.77009V2.30708H4.34944C4.35936 2.39706 4.36531 2.48936 4.36531 2.58396C4.36531 3.35 3.83556 4.25678 2.77805 5.30662C1.72054 4.25678 1.1908 3.35 1.1908 2.58396C1.1908 1.4349 1.94474 0.691937 2.77805 0.691937C2.91297 0.691937 3.0459 0.710396 3.17487 0.749621Z" fill="white"/>
</g>
<defs>
<clipPath id="clip0_46_27441">
<rect width="4.76177" height="5.53762" fill="white" transform="translate(0.397461)"/>
</clipPath>
</defs>
</svg>
