<svg width="15" height="15" viewBox="0 0 15 15" fill="none" xmlns="http://www.w3.org/2000/svg">
<path d="M1.5625 14.625C1.5625 14.625 0.375 14.625 0.375 13.4375C0.375 12.25 1.5625 8.6875 7.5 8.6875C13.4375 8.6875 14.625 12.25 14.625 13.4375C14.625 14.625 13.4375 14.625 13.4375 14.625H1.5625ZM7.5 7.5C8.44483 7.5 9.35097 7.12467 10.0191 6.45657C10.6872 5.78847 11.0625 4.88233 11.0625 3.9375C11.0625 2.99267 10.6872 2.08653 10.0191 1.41843C9.35097 0.750334 8.44483 0.375 7.5 0.375C6.55517 0.375 5.64903 0.750334 4.98093 1.41843C4.31283 2.08653 3.9375 2.99267 3.9375 3.9375C3.9375 4.88233 4.31283 5.78847 4.98093 6.45657C5.64903 7.12467 6.55517 7.5 7.5 7.5Z" fill="black"/>
</svg>
