<svg width="12" height="11" viewBox="0 0 12 11" fill="none" xmlns="http://www.w3.org/2000/svg">
<path d="M6.16496 0.267084C6.20533 0.142865 6.38106 0.142866 6.42142 0.267084L7.6251 3.97163C7.64315 4.02719 7.69492 4.0648 7.75333 4.0648H11.6485C11.7791 4.0648 11.8334 4.23193 11.7278 4.3087L8.5765 6.59824C8.52924 6.63257 8.50947 6.69343 8.52752 6.74898L9.7312 10.4535C9.77156 10.5778 9.62939 10.681 9.52372 10.6043L6.37244 8.31474C6.32519 8.2804 6.2612 8.2804 6.21394 8.31474L3.06267 10.6043C2.957 10.681 2.81483 10.5778 2.85519 10.4535L4.05887 6.74898C4.07692 6.69343 4.05714 6.63257 4.00989 6.59824L0.858611 4.3087C0.752944 4.23193 0.80725 4.0648 0.937861 4.0648H4.83305C4.89147 4.0648 4.94323 4.02719 4.96128 3.97163L6.16496 0.267084Z" fill="white"/>
</svg>
