<svg width="11" height="13" viewBox="0 0 11 13" fill="none" xmlns="http://www.w3.org/2000/svg">
<path d="M0.625 12.5938C0.624948 12.6643 0.643269 12.7336 0.678157 12.795C0.713046 12.8563 0.763301 12.9074 0.823975 12.9434C0.884648 12.9794 0.953649 12.999 1.02419 13.0002C1.09472 13.0015 1.16436 12.9843 1.22625 12.9504L5.5 10.6186L9.77375 12.9504C9.83564 12.9843 9.90528 13.0015 9.97581 13.0002C10.0464 12.999 10.1154 12.9794 10.176 12.9434C10.2367 12.9074 10.287 12.8563 10.3218 12.795C10.3567 12.7336 10.3751 12.6643 10.375 12.5938V1.625C10.375 1.19402 10.2038 0.780698 9.89905 0.475951C9.5943 0.171205 9.18098 0 8.75 0L2.25 0C1.81902 0 1.4057 0.171205 1.10095 0.475951C0.796205 0.780698 0.625 1.19402 0.625 1.625V12.5938ZM5.5 3.58312C6.62694 2.42531 9.44388 4.4525 5.5 7.05819C1.55612 4.4525 4.37306 2.42613 5.5 3.58475V3.58312Z" fill="black"/>
</svg>
