<svg width="27" height="27" viewBox="0 0 27 27" fill="none" xmlns="http://www.w3.org/2000/svg">
<path d="M17.153 18.1238L19.043 16.2338C19.2975 15.9824 19.6196 15.8103 19.9701 15.7384C20.3205 15.6665 20.6844 15.6979 21.0173 15.8288L23.3208 16.7485C23.6573 16.8851 23.9458 17.1182 24.15 17.4185C24.3542 17.7188 24.4649 18.0728 24.4683 18.436V22.6547C24.4663 22.9018 24.4144 23.1458 24.3156 23.3723C24.2168 23.5987 24.0733 23.8028 23.8935 23.9723C23.7138 24.1418 23.5016 24.2731 23.2698 24.3585C23.0379 24.4438 22.7912 24.4813 22.5445 24.4688C6.40358 23.4647 3.14671 9.79597 2.53077 4.56472C2.50218 4.30783 2.5283 4.0478 2.60742 3.80173C2.68654 3.55566 2.81687 3.32913 2.98982 3.13704C3.16278 2.94496 3.37445 2.79167 3.6109 2.68726C3.84735 2.58286 4.10323 2.5297 4.36171 2.53128H8.43702C8.80068 2.53236 9.15571 2.64221 9.45643 2.8467C9.75716 3.0512 9.98983 3.34098 10.1245 3.67878L11.0442 5.98222C11.1794 6.31387 11.2139 6.67801 11.1434 7.02916C11.0729 7.3803 10.9004 7.70288 10.6476 7.9566L8.75764 9.8466C8.75764 9.8466 9.84608 17.2125 17.153 18.1238Z" fill="white"/>
</svg>
