<svg width="18" height="18" viewBox="0 0 18 18" fill="none" xmlns="http://www.w3.org/2000/svg">
<path d="M9.19309 0.515625C8.81795 0.515625 8.44282 0.709772 8.24867 1.10136L6.09989 5.45816L1.29227 6.15577C0.430128 6.28081 0.0846117 7.34369 0.709832 7.95246L4.18803 11.3418L3.36537 16.1297C3.21729 16.9885 4.12222 17.6434 4.89223 17.2386L9.19309 14.9812V0.515625Z" fill="white"/>
<path d="M9.13797 0.515625C9.5131 0.515625 9.88823 0.709772 10.0824 1.10136L12.2312 5.45816L17.0388 6.15577C17.9009 6.28081 18.2464 7.34369 17.6212 7.95246L14.143 11.3418L14.9657 16.1297C15.1138 16.9885 14.2088 17.6434 13.4388 17.2386L9.13797 14.9812V0.515625Z" fill="white"/>
</svg>
