<svg width="17" height="16" viewBox="0 0 18 18" fill="none" xmlns="http://www.w3.org/2000/svg">
<path d="M8.86496 0.703125C8.48983 0.703125 8.1147 0.897272 7.92055 1.28886L5.77176 5.64566L0.964149 6.34327C0.102003 6.46831 -0.243513 7.53119 0.381707 8.13996L3.85991 11.5293L3.03725 16.3172C2.88917 17.176 3.79409 17.8309 4.5641 17.4261L8.86496 15.1687V0.703125Z" fill="#868686"/>
<path d="M8.80984 0.703125C9.18498 0.703125 9.56011 0.897272 9.75426 1.28886L11.903 5.64566L16.7107 6.34327C17.5728 6.46831 17.9183 7.53119 17.2931 8.13996L13.8149 11.5293L14.6376 16.3172C14.7856 17.176 13.8807 17.8309 13.1107 17.4261L8.80984 15.1687V0.703125Z" fill="#868686"/>
</svg>
