<svg width="22" height="21" viewBox="0 0 22 21" fill="none" xmlns="http://www.w3.org/2000/svg">
<g clip-path="url(#clip0_1274_3273)">
<path d="M0 15.75C0 16.3689 0.257539 16.9624 0.715961 17.3999C1.17438 17.8375 1.79614 18.0834 2.44444 18.0834H19.5556C20.2039 18.0834 20.8256 17.8375 21.284 17.3999C21.7425 16.9624 22 16.3689 22 15.75V13.4167H0V15.75Z" fill="#138808"/>
<path d="M0 7.58331H22V13.4166H0V7.58331Z" fill="#EEEEEE"/>
<path d="M22 7.58335V5.25002C22 4.63118 21.7425 4.03769 21.284 3.6001C20.8256 3.16252 20.2039 2.91669 19.5556 2.91669H2.44444C1.79614 2.91669 1.17438 3.16252 0.715961 3.6001C0.257539 4.03769 0 4.63118 0 5.25002L0 7.58335H22Z" fill="#FF9933"/>
<path d="M11 12.8334C12.35 12.8334 13.4444 11.7887 13.4444 10.5C13.4444 9.21136 12.35 8.16669 11 8.16669C9.64996 8.16669 8.55554 9.21136 8.55554 10.5C8.55554 11.7887 9.64996 12.8334 11 12.8334Z" fill="#000080"/>
<path d="M11 12.25C12.0125 12.25 12.8333 11.4665 12.8333 10.5C12.8333 9.5335 12.0125 8.75 11 8.75C9.98747 8.75 9.16666 9.5335 9.16666 10.5C9.16666 11.4665 9.98747 12.25 11 12.25Z" fill="#EEEEEE"/>
<path d="M11 8.75L11.0892 10.0707L11.7009 8.88358L11.2548 10.136L12.2962 9.26217L11.3813 10.2568L12.6934 9.83033L11.4498 10.4148L12.8333 10.5L11.4498 10.5852L12.6934 11.1691L11.3813 10.7432L12.2962 11.7373L11.2548 10.864L11.7009 12.1164L11.0892 10.9293L11 12.25L10.9108 10.9293L10.2984 12.1164L10.7452 10.864L9.70321 11.7373L10.6187 10.7432L9.3066 11.1691L10.5502 10.5852L9.16666 10.5L10.5502 10.4148L9.3066 9.83033L10.6187 10.2568L9.70321 9.26217L10.7452 10.136L10.2984 8.88358L10.9108 10.0707L11 8.75Z" fill="#6666B3"/>
<path d="M11 11.0834C11.3375 11.0834 11.6111 10.8222 11.6111 10.5C11.6111 10.1779 11.3375 9.91669 11 9.91669C10.6625 9.91669 10.3889 10.1779 10.3889 10.5C10.3889 10.8222 10.6625 11.0834 11 11.0834Z" fill="#000080"/>
</g>
<defs>
<clipPath id="clip0_1274_3273">
<rect width="22" height="21" fill="white"/>
</clipPath>
</defs>
</svg>
