<svg width="20" height="23" viewBox="0 0 20 23" fill="none" xmlns="http://www.w3.org/2000/svg">
<path d="M14.7716 12.1978L11.6666 14.9896H7.49993V14.0527H10.8874C10.9628 14.0527 11.0367 14.0296 11.1014 13.9861C11.166 13.9425 11.219 13.8801 11.2545 13.8054C11.2901 13.7307 11.307 13.6465 11.3034 13.5619C11.2998 13.4773 11.2759 13.3953 11.2341 13.3248L10.4941 12.0769C10.3423 11.82 10.1363 11.6094 9.8945 11.4637C9.65269 11.3181 9.38259 11.242 9.10826 11.2422H2.49993C2.27892 11.2422 2.06695 11.3409 1.91067 11.5166C1.75439 11.6923 1.6666 11.9305 1.6666 12.179V17.8001C1.6666 18.297 1.84219 18.7736 2.15475 19.125C2.46731 19.4764 2.89123 19.6738 3.33326 19.6738H11.3658C11.7221 19.6739 12.0743 19.5883 12.3989 19.4229C12.7234 19.2574 13.0127 19.0159 13.2474 18.7145L18.3333 12.179L17.1233 11.7256C16.7274 11.5772 16.3048 11.5427 15.894 11.6252C15.4832 11.7077 15.0973 11.9045 14.7716 12.1978ZM16.0483 6.9233C16.4241 6.48767 16.6566 5.88528 16.6566 5.22012C16.6566 4.55496 16.4241 3.95256 16.0483 3.51693C15.8582 3.29394 15.63 3.11642 15.3774 2.99504C15.1248 2.87365 14.853 2.8109 14.5783 2.81055C14.5783 2.81055 13.5416 2.80774 12.4999 4.01533C11.4583 2.80774 10.4216 2.81055 10.4216 2.81055C10.147 2.81094 9.87522 2.87362 9.62264 2.99483C9.37006 3.11605 9.14182 3.2933 8.9516 3.51599C8.57576 3.95256 8.34326 4.55402 8.34326 5.21918C8.34326 5.88434 8.57576 6.48767 8.9516 6.92237L12.4999 11.2422L16.0483 6.9233Z" fill="#461952"/>
</svg>
