<svg width="18" height="20" viewBox="0 0 18 20" fill="none" xmlns="http://www.w3.org/2000/svg">
<g clip-path="url(#clip0_1829_5683)">
<path d="M14.9875 4.7676L17.5424 2.91525C17.6032 2.86973 17.6554 2.8112 17.696 2.743C17.7367 2.6748 17.765 2.59827 17.7793 2.51778C17.7936 2.43729 17.7937 2.35441 17.7795 2.27389C17.7654 2.19336 17.7372 2.11676 17.6967 2.04846L17.3885 1.52854C17.348 1.46023 17.296 1.40155 17.2353 1.35587C17.1746 1.31018 17.1066 1.27838 17.035 1.26227C16.9634 1.24616 16.8896 1.24607 16.818 1.262C16.7464 1.27793 16.6782 1.30956 16.6175 1.3551L12.7933 4.12854C11.0643 3.78557 9.42393 3.75002 8.89509 3.75002C7.62858 3.75002 0 3.92775 0 8.13088V14.3899C0 15.5723 0.955527 16.643 2.50174 17.4313V13.4508C2.50174 13.2022 2.5896 12.9637 2.74599 12.7879C2.90238 12.6121 3.11449 12.5133 3.33566 12.5133C3.55683 12.5133 3.76894 12.6121 3.92532 12.7879C4.08171 12.9637 4.16957 13.2022 4.16957 13.4508V18.0965C5.31794 18.4524 6.639 18.6848 8.06117 18.75V14.7028C8.06117 14.4541 8.14903 14.2157 8.30542 14.0398C8.46181 13.864 8.67392 13.7653 8.89509 13.7653C9.11626 13.7653 9.32837 13.864 9.48475 14.0398C9.64114 14.2157 9.729 14.4541 9.729 14.7028V18.75C11.1512 18.6848 12.4722 18.4524 13.6206 18.0965V13.4508C13.6206 13.2022 13.7085 12.9637 13.8649 12.7879C14.0212 12.6121 14.2334 12.5133 14.4545 12.5133C14.6757 12.5133 14.8878 12.6121 15.0442 12.7879C15.2006 12.9637 15.2884 13.2022 15.2884 13.4508V17.4313C16.8347 16.643 17.7902 15.5723 17.7902 14.3899V8.13088C17.7902 6.43869 16.5476 5.40588 14.9875 4.7676ZM8.89509 10.6344C4.90342 10.6344 1.66783 9.51369 1.66783 8.13088C1.66783 6.74807 4.90342 5.62775 8.89509 5.62775C9.49099 5.62775 10.0671 5.65549 10.6213 5.70236L8.0914 7.5383C8.03067 7.58385 7.97851 7.64241 7.93791 7.71062C7.8973 7.77883 7.86904 7.85537 7.85475 7.93586C7.84046 8.01635 7.84041 8.09922 7.8546 8.17973C7.86879 8.26024 7.89696 8.33682 7.93748 8.4051L8.24568 8.92502C8.28617 8.99333 8.33823 9.052 8.3989 9.09769C8.45956 9.14337 8.52763 9.17518 8.59923 9.19129C8.67083 9.20739 8.74455 9.20748 8.81618 9.19155C8.88781 9.17563 8.95595 9.14399 9.0167 9.09846L13.139 6.10939C14.9441 6.56252 16.1223 7.29846 16.1223 8.13088C16.1223 9.51369 12.8864 10.6344 8.89509 10.6344Z" fill="#461952"/>
</g>
<defs>
<clipPath id="clip0_1829_5683">
<rect width="17.7902" height="20" fill="white"/>
</clipPath>
</defs>
</svg>
