<svg width="22" height="22" viewBox="0 0 22 22" fill="none" xmlns="http://www.w3.org/2000/svg">
<path d="M17.6 12.0049C17.6 13.6905 16.9047 15.3071 15.6669 16.499C14.4292 17.6909 12.7505 18.3605 11 18.3605C9.2496 18.3605 7.57086 17.6909 6.33312 16.499C5.09538 15.3071 4.40002 13.6905 4.40002 12.0049C4.4007 10.7665 4.77728 9.55521 5.48345 8.52013C6.18961 7.48506 7.19457 6.67132 8.37469 6.17902L8.63282 6.37251L9.76802 7.22133C8.6568 7.48537 7.66917 8.09964 6.96224 8.96644C6.25531 9.83324 5.86968 10.9028 5.86669 12.0049C5.86669 14.7308 8.16936 16.9482 11 16.9482C13.8307 16.9482 16.1334 14.7308 16.1334 12.0049C16.1304 10.9028 15.7447 9.83324 15.0378 8.96644C14.3309 8.09964 13.3432 7.48537 12.232 7.22133L13.6254 6.17902C14.8055 6.67132 15.8104 7.48506 16.5166 8.52013C17.2228 9.55521 17.5994 10.7665 17.6 12.0049ZM11 6.35556L14.6667 3.60855L13.2 1.41235H8.80002L7.33336 3.60855L9.53336 5.25676L11 6.35556Z" fill="#461952"/>
</svg>
