<svg width="18" height="20" viewBox="0 0 18 20" fill="none" xmlns="http://www.w3.org/2000/svg">
<g clip-path="url(#clip0_1829_5685)">
<path d="M2.4259 3.63635C1.78251 3.63635 1.16546 3.92369 0.710509 4.43515C0.255558 4.94661 -3.05176e-05 5.64031 -3.05176e-05 6.36362L-3.05176e-05 8.18181C-3.05176e-05 9.0909 0.808614 9.0909 0.808614 9.0909H2.4259C4.85184 9.0909 6.46912 9.99999 6.46912 9.99999C6.46912 9.99999 4.85184 10.9091 2.4259 10.9091H0.808614C0.808614 10.9091 -3.05176e-05 10.9091 -3.05176e-05 11.8182V13.6364C-3.05176e-05 14.3597 0.255558 15.0534 0.710509 15.5648C1.16546 16.0763 1.78251 16.3636 2.4259 16.3636C3.0693 16.3636 3.68635 16.0763 4.1413 15.5648C4.59625 15.0534 4.85184 14.3597 4.85184 13.6364V12.5182C6.15861 12.2309 7.41847 11.6945 8.4503 11.1691L13.7469 14.5454C16.1729 15.9091 17.7901 14.5454 17.7901 14.5454L10.5123 9.99999L17.7901 5.45453C17.7901 5.45453 16.1729 4.0909 13.7469 5.45453L8.4503 8.8309C7.41847 8.30544 6.15861 7.76908 4.85184 7.48181V6.3709V6.36362C4.85184 5.64031 4.59625 4.94661 4.1413 4.43515C3.68635 3.92369 3.0693 3.63635 2.4259 3.63635ZM2.4259 5.45453C2.64037 5.45453 2.84605 5.55031 2.9977 5.7208C3.14935 5.89129 3.23455 6.12252 3.23455 6.36362C3.23455 6.60473 3.14935 6.83596 2.9977 7.00645C2.84605 7.17694 2.64037 7.27272 2.4259 7.27272C2.21144 7.27272 2.00575 7.17694 1.8541 7.00645C1.70245 6.83596 1.61726 6.60473 1.61726 6.36362C1.61726 6.12252 1.70245 5.89129 1.8541 5.7208C2.00575 5.55031 2.21144 5.45453 2.4259 5.45453ZM8.46162 9.54544H8.49074C8.59664 9.54973 8.69681 9.60059 8.76969 9.68708C8.84258 9.77356 8.88234 9.88876 8.88044 10.0079C8.87853 10.127 8.8351 10.2405 8.75949 10.324C8.68389 10.4075 8.58215 10.4542 8.47618 10.4542C8.37021 10.4542 8.26847 10.4075 8.19287 10.324C8.11726 10.2405 8.07383 10.127 8.07192 10.0079C8.07002 9.88876 8.10978 9.77356 8.18266 9.68708C8.25555 9.60059 8.35572 9.54973 8.46162 9.54544ZM2.4259 12.7273C2.64037 12.7273 2.84605 12.823 2.9977 12.9935C3.14935 13.164 3.23455 13.3952 3.23455 13.6364C3.23455 13.8775 3.14935 14.1087 2.9977 14.2792C2.84605 14.4497 2.64037 14.5454 2.4259 14.5454C2.21144 14.5454 2.00575 14.4497 1.8541 14.2792C1.70245 14.1087 1.61726 13.8775 1.61726 13.6364C1.61726 13.3952 1.70245 13.164 1.8541 12.9935C2.00575 12.823 2.21144 12.7273 2.4259 12.7273Z" fill="#461952"/>
</g>
<defs>
<clipPath id="clip0_1829_5685">
<rect width="17.7902" height="20" fill="white"/>
</clipPath>
</defs>
</svg>
