<svg width="21" height="19" viewBox="0 0 21 19" fill="none" xmlns="http://www.w3.org/2000/svg">
<g clip-path="url(#clip0_1829_5793)">
<path d="M9.52347 0V2.53333H10.884V0H9.52347Z" fill="#461952"/>
<path d="M4.56311 4.61826L2.52237 2.71826L1.55914 3.61506L3.59988 5.51506L4.56311 4.61826Z" fill="#461952"/>
<path d="M16.8076 5.51506L18.8483 3.61506L17.8851 2.71826L15.8444 4.61826L16.8076 5.51506Z" fill="#461952"/>
<path d="M10.2037 3.79999C8.90682 3.79979 7.65339 4.23526 6.67366 5.02642C5.69394 5.81758 5.05371 6.91129 4.87059 8.10665L4.85699 8.19532C4.75357 8.86126 4.79545 9.53977 4.98012 10.1903C5.16479 10.8408 5.48846 11.45 5.93178 11.9814C6.45285 12.6084 6.80249 13.2075 6.80249 13.8079V15.8333C6.80249 16.0013 6.87416 16.1624 7.00173 16.2812C7.1293 16.3999 7.30233 16.4667 7.48274 16.4667H12.9247C13.1051 16.4667 13.2782 16.3999 13.4057 16.2812C13.5333 16.1624 13.605 16.0013 13.605 15.8333V13.8079C13.605 13.2075 13.9546 12.6084 14.4757 11.9814C15.3328 10.9503 15.7654 9.60639 15.5505 8.19405L15.5369 8.10539C15.3534 6.91025 14.7131 5.81684 13.7334 5.02594C12.7537 4.23504 11.5004 3.79974 10.2037 3.79999Z" fill="#461952"/>
<path d="M3.05176e-05 10.1334H2.72102V8.8667H3.05176e-05V10.1334Z" fill="#461952"/>
<path d="M17.6864 10.1334H20.4074V8.8667H17.6864V10.1334Z" fill="#461952"/>
<path d="M8.16296 19H12.2444V17.7333H8.16296V19Z" fill="#461952"/>
</g>
<defs>
<clipPath id="clip0_1829_5793">
<rect width="20.4074" height="19" fill="white"/>
</clipPath>
</defs>
</svg>
