<svg width="16" height="16" viewBox="0 0 16 16" fill="none" xmlns="http://www.w3.org/2000/svg">
<path d="M14.8643 6.97337L12.0433 6.53875L10.3241 3.73031C10.2339 3.58331 10.1072 3.46209 9.95638 3.37838C9.80557 3.29467 9.6357 3.2513 9.46322 3.25246L2.25828 3.30987C2.05039 3.31163 1.84822 3.37809 1.67984 3.50004C1.51147 3.62198 1.38526 3.79334 1.31875 3.99031L0.5 6.41815V12.0002H2.21894C2.35257 12.4346 2.62193 12.8146 2.98749 13.0847C3.35305 13.3547 3.79554 13.5004 4.25 13.5004C4.70446 13.5004 5.14695 13.3547 5.51251 13.0847C5.87807 12.8146 6.14743 12.4346 6.28106 12.0002H9.46894C9.60257 12.4346 9.87193 12.8146 10.2375 13.0847C10.603 13.3547 11.0455 13.5004 11.5 13.5004C11.9545 13.5004 12.397 13.3547 12.7625 13.0847C13.1281 12.8146 13.3974 12.4346 13.5311 12.0002H15.5V7.71462C15.5008 7.53528 15.437 7.36165 15.3203 7.22552C15.2035 7.08939 15.0416 6.99988 14.8643 6.97337ZM7 4.27206L9.47119 4.25237L10.8493 6.50384L7 6.5025V4.27206ZM2.26628 4.30981L6 4.28006V6.50215L1.52753 6.50056L2.26628 4.30981ZM4.25 12.5002C4.0275 12.5002 3.80999 12.4342 3.62498 12.3106C3.43998 12.187 3.29578 12.0113 3.21064 11.8057C3.12549 11.6001 3.10321 11.3739 3.14662 11.1557C3.19002 10.9375 3.29717 10.737 3.4545 10.5797C3.61184 10.4224 3.81229 10.3152 4.03052 10.2718C4.24875 10.2284 4.47495 10.2507 4.68052 10.3358C4.88609 10.421 5.06179 10.5652 5.1854 10.7502C5.30902 10.9352 5.375 11.1527 5.375 11.3752C5.37467 11.6735 5.25604 11.9594 5.04513 12.1703C4.83422 12.3812 4.54827 12.4999 4.25 12.5002ZM11.5 12.5002C11.2775 12.5002 11.06 12.4342 10.875 12.3106C10.69 12.187 10.5458 12.0113 10.4606 11.8057C10.3755 11.6001 10.3532 11.3739 10.3966 11.1557C10.44 10.9375 10.5472 10.737 10.7045 10.5797C10.8618 10.4224 11.0623 10.3152 11.2805 10.2718C11.4988 10.2284 11.725 10.2507 11.9305 10.3358C12.1361 10.421 12.3118 10.5652 12.4354 10.7502C12.559 10.9352 12.625 11.1527 12.625 11.3752C12.6247 11.6735 12.506 11.9594 12.2951 12.1703C12.0842 12.3812 11.7983 12.4999 11.5 12.5002ZM14.5 11.0002H13.5912C13.5033 10.5095 13.2457 10.0653 12.8634 9.74537C12.4811 9.42544 11.9985 9.25014 11.5 9.25014C11.0015 9.25014 10.5189 9.42544 10.1366 9.74537C9.75428 10.0653 9.49666 10.5095 9.40881 11.0002H6.34119C6.25334 10.5095 5.99572 10.0653 5.61343 9.74537C5.23113 9.42544 4.7485 9.25014 4.25 9.25014C3.7515 9.25014 3.26887 9.42544 2.88657 9.74537C2.50428 10.0653 2.24666 10.5095 2.15881 11.0002H1.5V7.501L11.8289 7.51753L14.5 7.92906V11.0002Z" fill="black"/>
</svg>
