<svg width="14" height="14" viewBox="0 0 14 14" fill="none" xmlns="http://www.w3.org/2000/svg">
<g clip-path="url(#clip0_246_1463)">
<path d="M7.05699 2.04128C7.4072 2.04128 7.74954 2.14513 8.04073 2.33969C8.33192 2.53426 8.55887 2.8108 8.69289 3.13435C8.82691 3.4579 8.86197 3.81393 8.79365 4.15741C8.72533 4.50089 8.55669 4.81639 8.30905 5.06403C8.06142 5.31166 7.74591 5.4803 7.40243 5.54862C7.05896 5.61695 6.70293 5.58188 6.37938 5.44786C6.05583 5.31384 5.77929 5.08689 5.58472 4.7957C5.39016 4.50452 5.28631 4.16217 5.28631 3.81196C5.28631 3.34235 5.47286 2.89197 5.80493 2.5599C6.137 2.22783 6.58738 2.04128 7.05699 2.04128ZM7.05699 1.33301C6.5667 1.33301 6.08742 1.4784 5.67976 1.75079C5.27209 2.02318 4.95436 2.41034 4.76673 2.86331C4.57911 3.31628 4.53002 3.81471 4.62567 4.29558C4.72132 4.77645 4.95742 5.21816 5.3041 5.56485C5.65079 5.91154 6.0925 6.14764 6.57337 6.24329C7.05424 6.33894 7.55268 6.28985 8.00565 6.10222C8.45862 5.91459 8.84578 5.59686 9.11817 5.1892C9.39056 4.78154 9.53595 4.30226 9.53595 3.81196C9.53595 3.1545 9.27477 2.52397 8.80988 2.05908C8.34498 1.59418 7.71445 1.33301 7.05699 1.33301ZM10.5984 11.2488H9.89008V9.47815C9.89008 9.24562 9.84428 9.01537 9.7553 8.80054C9.66631 8.58571 9.53589 8.39051 9.37146 8.22609C9.20704 8.06167 9.01184 7.93124 8.79701 7.84225C8.58218 7.75327 8.35193 7.70747 8.1194 7.70747H5.99458C5.52497 7.70747 5.07459 7.89402 4.74252 8.22609C4.41045 8.55816 4.2239 9.00854 4.2239 9.47815V11.2488H3.51562V9.47815C3.51563 8.82069 3.7768 8.19016 4.24169 7.72526C4.70659 7.26037 5.33712 6.99919 5.99458 6.99919H8.1194C8.77686 6.99919 9.40739 7.26037 9.87229 7.72526C10.3372 8.19016 10.5984 8.82069 10.5984 9.47815V11.2488Z" fill="black"/>
<path d="M0.87474 4.79226C1.22495 4.79226 1.56729 4.89611 1.85848 5.09067C2.14967 5.28524 2.37662 5.56178 2.51064 5.88533C2.64466 6.20888 2.67972 6.5649 2.6114 6.90838C2.54308 7.25186 2.37444 7.56737 2.1268 7.815C1.87917 8.06264 1.56366 8.23128 1.22018 8.2996C0.876705 8.36792 0.520679 8.33286 0.197129 8.19884C-0.126421 8.06482 -0.402964 7.83787 -0.597529 7.54668C-0.792094 7.25549 -0.895943 6.91315 -0.895943 6.56294C-0.895943 6.09333 -0.709389 5.64295 -0.377322 5.31088C-0.0452542 4.97881 0.405126 4.79226 0.87474 4.79226ZM0.87474 4.08398C0.384449 4.08398 -0.0948317 4.22937 -0.502494 4.50176C-0.910156 4.77416 -1.22789 5.16132 -1.41552 5.61429C-1.60314 6.06726 -1.65223 6.56569 -1.55658 7.04656C-1.46093 7.52743 -1.22483 7.96914 -0.878147 8.31583C-0.531458 8.66252 -0.0897505 8.89861 0.39112 8.99426C0.87199 9.08992 1.37043 9.04082 1.8234 8.8532C2.27637 8.66557 2.66353 8.34784 2.93592 7.94017C3.20831 7.53251 3.3537 7.05323 3.3537 6.56294C3.3537 5.90548 3.09252 5.27495 2.62763 4.81005C2.16273 4.34516 1.5322 4.08398 0.87474 4.08398ZM4.41611 13.9998H3.70783V12.2291C3.70783 11.9966 3.66203 11.7663 3.57305 11.5515C3.48406 11.3367 3.35364 11.1415 3.18921 10.9771C3.02479 10.8126 2.82959 10.6822 2.61476 10.5932C2.39993 10.5042 2.16968 10.4584 1.93715 10.4584H-0.18767C-0.657284 10.4584 -1.10766 10.645 -1.43973 10.9771C-1.7718 11.3091 -1.95835 11.7595 -1.95835 12.2291V13.9998H-2.66663V12.2291C-2.66663 11.5717 -2.40545 10.9411 -1.94056 10.4762C-1.47566 10.0113 -0.84513 9.75017 -0.18767 9.75017H1.93715C2.59461 9.75017 3.22514 10.0113 3.69004 10.4762C4.15493 10.9411 4.41611 11.5717 4.41611 12.2291V13.9998Z" fill="black"/>
<path d="M13.1577 4.79226C13.5079 4.79226 13.8503 4.89611 14.1414 5.09067C14.4326 5.28524 14.6596 5.56178 14.7936 5.88533C14.9276 6.20888 14.9627 6.5649 14.8944 6.90838C14.826 7.25186 14.6574 7.56737 14.4098 7.815C14.1621 8.06264 13.8466 8.23128 13.5031 8.2996C13.1597 8.36792 12.8036 8.33286 12.4801 8.19884C12.1565 8.06482 11.88 7.83787 11.6854 7.54668C11.4909 7.25549 11.387 6.91315 11.387 6.56294C11.387 6.09333 11.5736 5.64295 11.9056 5.31088C12.2377 4.97881 12.6881 4.79226 13.1577 4.79226ZM13.1577 4.08398C12.6674 4.08398 12.1881 4.22937 11.7805 4.50176C11.3728 4.77416 11.0551 5.16132 10.8674 5.61429C10.6798 6.06726 10.6307 6.56569 10.7264 7.04656C10.822 7.52743 11.0581 7.96914 11.4048 8.31583C11.7515 8.66252 12.1932 8.89861 12.6741 8.99426C13.1549 9.08992 13.6534 9.04082 14.1064 8.8532C14.5593 8.66557 14.9465 8.34784 15.2189 7.94017C15.4913 7.53251 15.6367 7.05323 15.6367 6.56294C15.6367 5.90548 15.3755 5.27495 14.9106 4.81005C14.4457 4.34516 13.8152 4.08398 13.1577 4.08398ZM16.6991 13.9998H15.9908V12.2291C15.9908 11.9966 15.945 11.7663 15.856 11.5515C15.767 11.3367 15.6366 11.1415 15.4722 10.9771C15.3077 10.8126 15.1125 10.6822 14.8977 10.5932C14.6829 10.5042 14.4526 10.4584 14.2201 10.4584H12.0953C11.6257 10.4584 11.1753 10.645 10.8432 10.9771C10.5112 11.3091 10.3246 11.7595 10.3246 12.2291V13.9998H9.61633V12.2291C9.61633 11.5717 9.87751 10.9411 10.3424 10.4762C10.8073 10.0113 11.4378 9.75017 12.0953 9.75017H14.2201C14.8776 9.75017 15.5081 10.0113 15.973 10.4762C16.4379 10.9411 16.6991 11.5717 16.6991 12.2291V13.9998Z" fill="black"/>
</g>
<defs>
<clipPath id="clip0_246_1463">
<rect width="14" height="14" fill="white"/>
</clipPath>
</defs>
</svg>
