<svg width="24" height="24" viewBox="0 0 24 24" fill="none" xmlns="http://www.w3.org/2000/svg">
<g id="clarity:window-close-line" clip-path="url(#clip0_4576_2956)">
<path id="Vector" d="M13.2874 11.9399L19.7543 5.47298C19.8997 5.30328 19.9756 5.08498 19.967 4.86172C19.9584 4.63846 19.8658 4.42668 19.7078 4.26869C19.5498 4.11071 19.3381 4.01816 19.1148 4.00953C18.8915 4.00091 18.6732 4.07685 18.5035 4.22218L12.0366 10.6891L5.56975 4.21331C5.40005 4.06798 5.18175 3.99204 4.95849 4.00066C4.73523 4.00929 4.52345 4.10184 4.36546 4.25982C4.20748 4.41781 4.11493 4.62959 4.1063 4.85285C4.09768 5.07611 4.17362 5.2944 4.31895 5.46411L10.7858 11.9399L4.31008 18.4068C4.21722 18.4863 4.14179 18.5842 4.08855 18.6942C4.0353 18.8043 4.00538 18.9242 4.00066 19.0463C3.99594 19.1685 4.01653 19.2903 4.06113 19.4042C4.10572 19.518 4.17337 19.6214 4.25982 19.7078C4.34627 19.7943 4.44966 19.8619 4.5635 19.9065C4.67734 19.9511 4.79916 19.9717 4.92133 19.967C5.0435 19.9623 5.16338 19.9324 5.27343 19.8791C5.38349 19.8259 5.48135 19.7504 5.56088 19.6576L12.0366 13.1907L18.5035 19.6576C18.6732 19.8029 18.8915 19.8788 19.1148 19.8702C19.3381 19.8616 19.5498 19.769 19.7078 19.6111C19.8658 19.4531 19.9584 19.2413 19.967 19.018C19.9756 18.7948 19.8997 18.5765 19.7543 18.4068L13.2874 11.9399Z" fill="#525252"/>
</g>
<defs>
<clipPath id="clip0_4576_2956">
<rect width="24" height="24" fill="white"/>
</clipPath>
</defs>
</svg>
