<svg width="24" height="24" viewBox="0 0 24 24" fill="none" xmlns="http://www.w3.org/2000/svg">
<rect x="0.25" y="0.25" width="23.5" height="23.5" rx="1.75" fill="white"/>
<path d="M11.3889 8.00586H8.25786C8.02061 8.00586 7.79307 8.10011 7.6253 8.26788C7.45753 8.43564 7.36328 8.66318 7.36328 8.90044V15.1625C7.36328 15.3998 7.45753 15.6273 7.6253 15.7951C7.79307 15.9629 8.02061 16.0571 8.25786 16.0571H14.5199C14.7572 16.0571 14.9847 15.9629 15.1525 15.7951C15.3203 15.6273 15.4145 15.3998 15.4145 15.1625V12.0315" stroke="#828282" stroke-width="0.5" stroke-linecap="round" stroke-linejoin="round"/>
<path d="M14.7434 7.33455C14.9214 7.15661 15.1627 7.05664 15.4144 7.05664C15.666 7.05664 15.9074 7.15661 16.0853 7.33455C16.2633 7.5125 16.3632 7.75384 16.3632 8.00549C16.3632 8.25714 16.2633 8.49848 16.0853 8.67643L11.836 12.9257L10.0469 13.373L10.4942 11.5838L14.7434 7.33455Z" stroke="#828282" stroke-width="0.5" stroke-linecap="round" stroke-linejoin="round"/>
<rect x="0.25" y="0.25" width="23.5" height="23.5" rx="1.75" stroke="#D2D2D2" stroke-width="0.5"/>
</svg>
