<svg width="44" height="30" viewBox="0 0 44 30" fill="none" xmlns="http://www.w3.org/2000/svg">
<rect width="44" height="30" rx="4.01227" fill="#FFF3F7"/>
<path d="M22.0244 20.3745H28.0428" stroke="#C4456F" stroke-width="1.00307" stroke-linecap="round" stroke-linejoin="round"/>
<path d="M25.0337 9.34078C25.2997 9.07475 25.6606 8.92529 26.0368 8.92529C26.2231 8.92529 26.4075 8.96198 26.5796 9.03327C26.7517 9.10456 26.9081 9.20905 27.0398 9.34078C27.1716 9.4725 27.2761 9.62888 27.3473 9.80099C27.4186 9.97309 27.4553 10.1576 27.4553 10.3438C27.4553 10.5301 27.4186 10.7146 27.3473 10.8867C27.2761 11.0588 27.1716 11.2152 27.0398 11.3469L18.681 19.7058L16.0061 20.3745L16.6748 17.6997L25.0337 9.34078Z" stroke="#C4456F" stroke-width="1.00307" stroke-linecap="round" stroke-linejoin="round"/>
</svg>
