<svg width="44" height="30" viewBox="0 0 44 30" fill="none" xmlns="http://www.w3.org/2000/svg">
<rect width="44" height="30" rx="4.01227" fill="#FFF3F7"/>
<path d="M22.0244 20.3745H28.0428" stroke="#C4456F" stroke-width="1.00307" stroke-linecap="round" stroke-linejoin="round"/>
<path d="M25.0336 9.34078C25.2996 9.07475 25.6604 8.92529 26.0367 8.92529C26.2229 8.92529 26.4074 8.96198 26.5795 9.03327C26.7516 9.10456 26.908 9.20905 27.0397 9.34078C27.1714 9.4725 27.2759 9.62888 27.3472 9.80099C27.4185 9.97309 27.4552 10.1576 27.4552 10.3438C27.4552 10.5301 27.4185 10.7146 27.3472 10.8867C27.2759 11.0588 27.1714 11.2152 27.0397 11.3469L18.6808 19.7058L16.006 20.3745L16.6747 17.6997L25.0336 9.34078Z" stroke="#C4456F" stroke-width="1.00307" stroke-linecap="round" stroke-linejoin="round"/>
</svg>
