<svg width="15" height="15" viewBox="0 0 15 15" fill="none" xmlns="http://www.w3.org/2000/svg">
<path d="M12.7918 1.125H2.87516C2.09276 1.125 1.4585 1.75926 1.4585 2.54167V12.4583C1.4585 13.2407 2.09276 13.875 2.87516 13.875H12.7918C13.5742 13.875 14.2085 13.2407 14.2085 12.4583V2.54167C14.2085 1.75926 13.5742 1.125 12.7918 1.125Z" stroke="#C4456F" stroke-linecap="round" stroke-linejoin="round"/>
<path d="M5.35449 6.08337C5.94129 6.08337 6.41699 5.60768 6.41699 5.02087C6.41699 4.43407 5.94129 3.95837 5.35449 3.95837C4.76769 3.95837 4.29199 4.43407 4.29199 5.02087C4.29199 5.60768 4.76769 6.08337 5.35449 6.08337Z" stroke="#C4456F" stroke-linecap="round" stroke-linejoin="round"/>
<path d="M14.2083 9.62504L10.6667 6.08337L2.875 13.875" stroke="#C4456F" stroke-linecap="round" stroke-linejoin="round"/>
</svg>
