<svg width="16" height="16" viewBox="0 0 16 16" fill="none" xmlns="http://www.w3.org/2000/svg">
<path fill-rule="evenodd" clip-rule="evenodd" d="M12.0439 11.2417C11.9597 11.2417 11.8914 11.1733 11.8914 11.09V2.94666C11.8914 2.87583 11.8339 2.81749 11.7622 2.81749H10.2839C10.1997 2.81749 10.1314 2.74999 10.1314 2.66583C10.1314 2.58166 10.1997 2.51416 10.2839 2.51416H11.7622C12.0014 2.51416 12.1964 2.70833 12.1964 2.94666V11.09C12.1964 11.1733 12.128 11.2417 12.0439 11.2417ZM11.4264 14.9283H2.93221C2.69305 14.9283 2.49805 14.7342 2.49805 14.495V2.94666C2.49805 2.70833 2.69305 2.51416 2.93221 2.51416H4.41055C4.49471 2.51416 4.56305 2.58166 4.56305 2.66583C4.56305 2.74916 4.49471 2.81749 4.41055 2.81749H2.93221C2.86055 2.81749 2.80305 2.87583 2.80305 2.94666V14.495C2.80305 14.5667 2.86055 14.6242 2.93221 14.6242H11.4264C11.5105 14.6242 11.5789 14.6925 11.5789 14.7758C11.5789 14.86 11.5105 14.9283 11.4264 14.9283Z" fill="#C4456F"/>
<path fill-rule="evenodd" clip-rule="evenodd" d="M4.56198 3.56442H10.1303V2.31525H8.49781C8.41365 2.31525 8.34531 2.24692 8.34531 2.16275V1.31442H6.34698V2.16275C6.34698 2.24692 6.27865 2.31525 6.19531 2.31525H4.56198V3.56442ZM10.2828 3.86859H4.40948C4.32615 3.86859 4.25781 3.80025 4.25781 3.71692V2.16275C4.25781 2.07942 4.32615 2.01109 4.40948 2.01109H6.04281V1.16275C6.04281 1.07859 6.11115 1.01025 6.19531 1.01025H8.49781C8.58198 1.01025 8.64948 1.07859 8.64948 1.16275V2.01109H10.2828C10.367 2.01109 10.4353 2.07942 10.4353 2.16275V3.71692C10.4353 3.80025 10.367 3.86859 10.2828 3.86859Z" fill="#C4456F"/>
<path fill-rule="evenodd" clip-rule="evenodd" d="M11.4258 11.1391C10.4633 11.1391 9.68 11.9208 9.68 12.8816C9.68 13.8425 10.4633 14.6241 11.4258 14.6241C12.3892 14.6241 13.1725 13.8425 13.1725 12.8816C13.1725 11.9208 12.3892 11.1391 11.4258 11.1391ZM11.4258 14.9283C10.295 14.9283 9.375 14.01 9.375 12.8816C9.375 11.7533 10.295 10.835 11.4258 10.835C12.5575 10.835 13.4775 11.7533 13.4775 12.8816C13.4775 14.01 12.5567 14.9283 11.4258 14.9283Z" fill="#C4456F"/>
<path fill-rule="evenodd" clip-rule="evenodd" d="M10.7897 13.8957C10.7855 13.8957 10.7814 13.8957 10.7772 13.8949C10.7322 13.8915 10.6922 13.8682 10.6655 13.8324L10.2122 13.1999C10.163 13.1324 10.1789 13.0374 10.2472 12.9882C10.3155 12.939 10.4105 12.9549 10.4597 13.0232L10.8089 13.5099L12.4097 11.9124C12.4689 11.8524 12.5655 11.8532 12.6247 11.9124C12.6847 11.9715 12.6847 12.0674 12.6247 12.1274L10.8972 13.8507C10.8689 13.8799 10.8297 13.8957 10.7897 13.8957Z" fill="#C4456F"/>
<path fill-rule="evenodd" clip-rule="evenodd" d="M10.4967 6.12511H5.9025C5.81833 6.12511 5.75 6.05761 5.75 5.97344C5.75 5.88928 5.81833 5.82178 5.9025 5.82178H10.4967C10.58 5.82178 10.6483 5.88928 10.6483 5.97344C10.6483 6.05761 10.58 6.12511 10.4967 6.12511Z" fill="#C4456F"/>
<path fill-rule="evenodd" clip-rule="evenodd" d="M4.55659 5.76657C4.44242 5.76657 4.34992 5.85907 4.34992 5.97324C4.34992 6.0874 4.44242 6.1799 4.55659 6.1799C4.67076 6.1799 4.76409 6.0874 4.76409 5.97324C4.76409 5.85907 4.67076 5.76657 4.55659 5.76657ZM4.55659 6.48407C4.27492 6.48407 4.04492 6.2549 4.04492 5.97324C4.04492 5.69157 4.27492 5.4624 4.55659 5.4624C4.83909 5.4624 5.06826 5.69157 5.06826 5.97324C5.06826 6.2549 4.83909 6.48407 4.55659 6.48407Z" fill="#C4456F"/>
<path fill-rule="evenodd" clip-rule="evenodd" d="M10.4967 7.65671H5.9025C5.81833 7.65671 5.75 7.58837 5.75 7.50504C5.75 7.42087 5.81833 7.35254 5.9025 7.35254H10.4967C10.58 7.35254 10.6483 7.42087 10.6483 7.50504C10.6483 7.58837 10.58 7.65671 10.4967 7.65671Z" fill="#C4456F"/>
<path fill-rule="evenodd" clip-rule="evenodd" d="M4.55659 7.29831C4.44242 7.29831 4.34992 7.39081 4.34992 7.50497C4.34992 7.61831 4.44242 7.71164 4.55659 7.71164C4.67076 7.71164 4.76409 7.61914 4.76409 7.50497C4.76409 7.39081 4.67076 7.29831 4.55659 7.29831ZM4.55659 8.01497C4.27492 8.01497 4.04492 7.78664 4.04492 7.50497C4.04492 7.22331 4.27492 6.99414 4.55659 6.99414C4.83909 6.99414 5.06826 7.22331 5.06826 7.50497C5.06826 7.78664 4.83909 8.01497 4.55659 8.01497Z" fill="#C4456F"/>
<path fill-rule="evenodd" clip-rule="evenodd" d="M10.4967 9.18844H5.9025C5.81833 9.18844 5.75 9.12011 5.75 9.03678C5.75 8.95261 5.81833 8.88428 5.9025 8.88428H10.4967C10.58 8.88428 10.6483 8.95261 10.6483 9.03678C10.6483 9.12011 10.58 9.18844 10.4967 9.18844Z" fill="#C4456F"/>
<path fill-rule="evenodd" clip-rule="evenodd" d="M4.55659 8.83005C4.44242 8.83005 4.34992 8.92255 4.34992 9.03671C4.34992 9.15005 4.44242 9.24338 4.55659 9.24338C4.67076 9.24338 4.76409 9.15005 4.76409 9.03671C4.76409 8.92255 4.67076 8.83005 4.55659 8.83005ZM4.55659 9.54671C4.27492 9.54671 4.04492 9.31755 4.04492 9.03671C4.04492 8.75505 4.27492 8.52588 4.55659 8.52588C4.83909 8.52588 5.06826 8.75505 5.06826 9.03671C5.06826 9.31755 4.83909 9.54671 4.55659 9.54671Z" fill="#C4456F"/>
<path fill-rule="evenodd" clip-rule="evenodd" d="M10.4967 10.7202H5.9025C5.81833 10.7202 5.75 10.6518 5.75 10.5677C5.75 10.4843 5.81833 10.416 5.9025 10.416H10.4967C10.58 10.416 10.6483 10.4843 10.6483 10.5677C10.6483 10.6518 10.58 10.7202 10.4967 10.7202Z" fill="#C4456F"/>
<path fill-rule="evenodd" clip-rule="evenodd" d="M4.55659 10.361C4.44242 10.361 4.34992 10.4543 4.34992 10.5676C4.34992 10.6818 4.44242 10.7743 4.55659 10.7743C4.67076 10.7743 4.76409 10.6818 4.76409 10.5676C4.76409 10.4543 4.67076 10.361 4.55659 10.361ZM4.55659 11.0785C4.27492 11.0785 4.04492 10.8493 4.04492 10.5676C4.04492 10.2868 4.27492 10.0576 4.55659 10.0576C4.83909 10.0576 5.06826 10.2868 5.06826 10.5676C5.06826 10.8493 4.83909 11.0785 4.55659 11.0785Z" fill="#C4456F"/>
<path fill-rule="evenodd" clip-rule="evenodd" d="M8.98667 12.2514H5.9025C5.81833 12.2514 5.75 12.1831 5.75 12.0989C5.75 12.0156 5.81833 11.9473 5.9025 11.9473H8.98667C9.07083 11.9473 9.13917 12.0156 9.13917 12.0989C9.13917 12.1831 9.07083 12.2514 8.98667 12.2514Z" fill="#C4456F"/>
<path fill-rule="evenodd" clip-rule="evenodd" d="M4.55659 11.8922C4.44242 11.8922 4.34992 11.9847 4.34992 12.0989C4.34992 12.213 4.44242 12.3055 4.55659 12.3055C4.67076 12.3055 4.76409 12.213 4.76409 12.0989C4.76409 11.9847 4.67076 11.8922 4.55659 11.8922ZM4.55659 12.6097C4.27492 12.6097 4.04492 12.3805 4.04492 12.0989C4.04492 11.8172 4.27492 11.5889 4.55659 11.5889C4.83909 11.5889 5.06826 11.8172 5.06826 12.0989C5.06826 12.3805 4.83909 12.6097 4.55659 12.6097Z" fill="#C4456F"/>
</svg>
