<svg width="68" height="82" viewBox="0 0 68 82" fill="none" xmlns="http://www.w3.org/2000/svg">
<g filter="url(#filter0_d_4427_19)">
<path d="M49.4449 19.1862C48.8703 18.6114 48.1881 18.1553 47.4372 17.8442C46.6863 17.5331 45.8814 17.3729 45.0686 17.3729C44.2558 17.3729 43.451 17.5331 42.7001 17.8442C41.9492 18.1553 41.267 18.6114 40.6924 19.1862L39.4999 20.3787L38.3074 19.1862C37.1467 18.0256 35.5726 17.3735 33.9311 17.3735C32.2897 17.3735 30.7155 18.0256 29.5549 19.1862C28.3942 20.3469 27.7422 21.9211 27.7422 23.5625C27.7422 25.2039 28.3942 26.7781 29.5549 27.9387L30.7474 29.1312L39.4999 37.8837L48.2524 29.1312L49.4449 27.9387C50.0198 27.3641 50.4758 26.6819 50.7869 25.931C51.0981 25.1801 51.2582 24.3753 51.2582 23.5625C51.2582 22.7497 51.0981 21.9448 50.7869 21.194C50.4758 20.4431 50.0198 19.7608 49.4449 19.1862Z" stroke="white" stroke-width="2.25" stroke-linecap="round" stroke-linejoin="round"/>
</g>
<defs>
<filter id="filter0_d_4427_19" x="0" y="-12" width="95" height="95" filterUnits="userSpaceOnUse" color-interpolation-filters="sRGB">
<feFlood flood-opacity="0" result="BackgroundImageFix"/>
<feColorMatrix in="SourceAlpha" type="matrix" values="0 0 0 0 0 0 0 0 0 0 0 0 0 0 0 0 0 0 127 0" result="hardAlpha"/>
<feOffset dx="8" dy="8"/>
<feGaussianBlur stdDeviation="17"/>
<feComposite in2="hardAlpha" operator="out"/>
<feColorMatrix type="matrix" values="0 0 0 0 0.68 0 0 0 0 0.68 0 0 0 0 0.68 0 0 0 0.25 0"/>
<feBlend mode="normal" in2="BackgroundImageFix" result="effect1_dropShadow_4427_19"/>
<feBlend mode="normal" in="SourceGraphic" in2="effect1_dropShadow_4427_19" result="shape"/>
</filter>
</defs>
</svg>
