<svg width="36" height="36" viewBox="0 0 36 36" fill="none" xmlns="http://www.w3.org/2000/svg">
<g id="ph:star-light">
<path id="Vector" d="M33.3207 13.6561C33.2062 13.2926 32.9856 12.9717 32.6872 12.7346C32.3889 12.4975 32.0264 12.355 31.6464 12.3256L23.4055 11.6132C23.3556 11.6083 23.3081 11.59 23.2678 11.5603C23.2275 11.5305 23.1961 11.4904 23.1768 11.4441L19.9572 3.77144C19.8081 3.42143 19.5594 3.12296 19.242 2.91318C18.9246 2.7034 18.5525 2.59155 18.1721 2.59155C17.7916 2.59155 17.4196 2.7034 17.1022 2.91318C16.7848 3.12296 16.5361 3.42143 16.387 3.77144L13.1674 11.4441C13.1481 11.4904 13.1166 11.5305 13.0764 11.5603C13.0361 11.59 12.9885 11.6083 12.9387 11.6132L4.69772 12.3256C4.31776 12.355 3.95528 12.4975 3.65691 12.7346C3.35855 12.9717 3.13795 13.2926 3.02348 13.6561C2.90225 14.0202 2.89166 14.412 2.99305 14.782C3.09444 15.152 3.30326 15.4837 3.59311 15.7351L9.8452 21.1889C9.88348 21.2229 9.91191 21.2665 9.92752 21.3153C9.94313 21.3641 9.94533 21.4161 9.9339 21.4661L8.05453 29.5753C7.96692 29.9487 7.99192 30.3396 8.12636 30.6988C8.2608 31.058 8.49865 31.3692 8.80988 31.5933C9.11628 31.8194 9.48342 31.9484 9.86389 31.9637C10.2444 31.979 10.6207 31.8799 10.9443 31.6792L18.0279 27.3827C18.0696 27.357 18.1176 27.3433 18.1665 27.3433C18.2155 27.3433 18.2635 27.357 18.3051 27.3827L25.3888 31.6792C25.7157 31.8794 26.0947 31.9782 26.4777 31.9633C26.8608 31.9483 27.2308 31.8202 27.5412 31.5951C27.8515 31.37 28.0882 31.0581 28.2214 30.6986C28.3546 30.3392 28.3783 29.9483 28.2896 29.5753L26.4158 21.4633C26.4044 21.4134 26.4066 21.3613 26.4222 21.3125C26.4378 21.2638 26.4662 21.2201 26.5045 21.1861L32.7566 15.7323C33.0449 15.4805 33.2524 15.149 33.3527 14.7796C33.4531 14.4101 33.4419 14.0193 33.3207 13.6561ZM31.6575 14.4766L25.4054 19.9304C25.139 20.1622 24.9409 20.4623 24.8325 20.7984C24.7241 21.1344 24.7094 21.4937 24.7901 21.8375L26.6639 29.9496C26.6777 30.0041 26.6747 30.0615 26.6551 30.1142C26.6356 30.1669 26.6004 30.2125 26.5544 30.2448C26.5127 30.2781 26.4615 30.2973 26.4081 30.2996C26.3548 30.3018 26.3021 30.287 26.2578 30.2572L19.1741 25.9607C18.8721 25.7772 18.5255 25.6801 18.1721 25.6801C17.8187 25.6801 17.472 25.7772 17.17 25.9607L10.0864 30.2572C10.042 30.287 9.98936 30.3018 9.93601 30.2996C9.88267 30.2973 9.83143 30.2781 9.78976 30.2448C9.74372 30.2125 9.70859 30.1669 9.68903 30.1142C9.66947 30.0615 9.66642 30.0041 9.68027 29.9496L11.5541 21.8375C11.6348 21.4937 11.6201 21.1344 11.5117 20.7984C11.4032 20.4623 11.2051 20.1622 10.9387 19.9304L4.68664 14.4766C4.64388 14.4403 4.61317 14.3918 4.59856 14.3376C4.58396 14.2834 4.58616 14.226 4.60486 14.1731C4.61886 14.1204 4.64921 14.0735 4.69155 14.0391C4.73388 14.0048 4.78602 13.9847 4.84048 13.9818L13.0828 13.2695C13.4357 13.2394 13.7736 13.1133 14.0599 12.9049C14.3462 12.6965 14.5701 12.4138 14.7072 12.0872L17.9268 4.41453C17.9491 4.36691 17.9846 4.32665 18.029 4.29844C18.0735 4.27024 18.125 4.25526 18.1776 4.25526C18.2302 4.25526 18.2818 4.27024 18.3262 4.29844C18.3706 4.32665 18.4061 4.36691 18.4285 4.41453L21.637 12.0872C21.7736 12.413 21.9966 12.6952 22.2819 12.9036C22.5672 13.1119 22.9039 13.2384 23.2558 13.2695L31.4981 13.9818C31.5526 13.9847 31.6047 14.0048 31.6471 14.0391C31.6894 14.0735 31.7197 14.1204 31.7337 14.1731C31.7531 14.2255 31.7562 14.2825 31.7426 14.3367C31.729 14.3908 31.6993 14.4396 31.6575 14.4766Z" fill="#A7A7A7"/>
</g>
</svg>
