<svg width="35" height="33" viewBox="0 0 35 33" fill="none" xmlns="http://www.w3.org/2000/svg">
<path d="M32.0632 22.9749V22.6793H32.1963V22.6182H31.8794V22.6793H32.0046V22.9749H32.0632ZM32.6783 22.9749V22.6182H32.5825L32.4706 22.873L32.3588 22.6182H32.263V22.9749H32.3322V22.7048L32.436 22.9366H32.5079L32.6118 22.7048V22.9749H32.6783Z" fill="#F79E1B"/>
<path d="M17.7572 16.317L21.3619 12.7123C21.4429 12.6177 21.4853 12.496 21.4804 12.3716C21.4756 12.2471 21.424 12.1291 21.336 12.041C21.2479 11.9529 21.1299 11.9014 21.0054 11.8965C20.881 11.8917 20.7593 11.9341 20.6647 12.0151L17.06 15.6198L13.4553 12.0101C13.3607 11.9291 13.239 11.8868 13.1146 11.8916C12.9901 11.8964 12.8721 11.948 12.784 12.0361C12.696 12.1241 12.6444 12.2422 12.6396 12.3666C12.6348 12.4911 12.6771 12.6127 12.7581 12.7073L16.3628 16.317L12.7532 19.9217C12.7014 19.966 12.6594 20.0206 12.6297 20.0819C12.6 20.1433 12.5833 20.2101 12.5807 20.2782C12.5781 20.3463 12.5895 20.4142 12.6144 20.4776C12.6393 20.5411 12.677 20.5987 12.7251 20.6469C12.7733 20.6951 12.831 20.7328 12.8944 20.7577C12.9579 20.7825 13.0258 20.794 13.0939 20.7914C13.162 20.7887 13.2288 20.772 13.2901 20.7424C13.3515 20.7127 13.406 20.6706 13.4504 20.6189L17.06 17.0142L20.6647 20.6189C20.7593 20.6999 20.881 20.7422 21.0054 20.7374C21.1299 20.7326 21.2479 20.681 21.336 20.593C21.424 20.5049 21.4756 20.3868 21.4804 20.2624C21.4853 20.138 21.4429 20.0163 21.3619 19.9217L17.7572 16.317Z" fill="#8A8A8A"/>
<rect x="0.185427" y="0.185427" width="33.7477" height="32.2643" rx="3.52311" stroke="#7B7B7B" stroke-width="0.370854"/>
</svg>
