<svg width="8" height="10" viewBox="0 0 8 10" fill="none" xmlns="http://www.w3.org/2000/svg">
<path d="M6.06136 1.62501V2.58874H7.34211V3.75536H5.98528C5.85002 4.55847 5.51609 5.14178 4.9835 5.5053C4.45937 5.86881 3.66471 6.05057 2.59954 6.05057V6.72264C2.59954 7.11997 2.67985 7.43276 2.84047 7.66101C3.00955 7.88926 3.29275 8.00339 3.69007 8.00339C4.07049 8.00339 4.34524 7.89772 4.51432 7.68637C4.68339 7.46657 4.76793 7.14956 4.76793 6.73532H6.41642C6.39951 7.58915 6.15858 8.24432 5.69362 8.70083C5.22866 9.14888 4.56504 9.3729 3.70276 9.3729C2.80665 9.3729 2.1219 9.13197 1.64849 8.6501C1.17508 8.16824 0.938369 7.46657 0.938369 6.54511V4.85858C1.84292 4.85858 2.51077 4.83745 2.94192 4.79518C3.37306 4.74446 3.6943 4.64301 3.90565 4.49084C4.11699 4.33868 4.25648 4.09352 4.32411 3.75536H0.532588V2.58874H4.38751V1.62501H0.532588V0.382306H7.34211V1.62501H6.06136Z" fill="#5B5252"/>
</svg>
