<svg width="16" height="16" viewBox="0 0 16 16" fill="none" xmlns="http://www.w3.org/2000/svg">
<path d="M8.50001 9.96472C9.50953 9.83753 10.4326 9.3304 11.0814 8.54657C11.7302 7.76273 12.0559 6.76111 11.9922 5.7456C11.9284 4.7301 11.4801 3.77704 10.7384 3.08045C9.99677 2.38386 9.01751 1.99609 8.00001 1.99609C6.9825 1.99609 6.00324 2.38386 5.26157 3.08045C4.5199 3.77704 4.07158 4.7301 4.00786 5.7456C3.94414 6.76111 4.26982 7.76273 4.9186 8.54657C5.56737 9.3304 6.49048 9.83753 7.50001 9.96472V10.9997H5.00001V11.9997H7.50001V13.9997H8.50001V11.9997H11V10.9997H8.50001V9.96472ZM5.00001 5.99972C5.00001 5.40638 5.17595 4.82636 5.5056 4.33301C5.83524 3.83966 6.30378 3.45515 6.85196 3.22808C7.40013 3.00102 8.00333 2.94161 8.58528 3.05736C9.16722 3.17312 9.70177 3.45884 10.1213 3.8784C10.5409 4.29796 10.8266 4.83251 10.9424 5.41445C11.0581 5.99639 10.9987 6.59959 10.7716 7.14777C10.5446 7.69595 10.1601 8.16448 9.66672 8.49413C9.17337 8.82377 8.59335 8.99972 8.00001 8.99972C7.20464 8.99879 6.44212 8.68243 5.87971 8.12002C5.3173 7.55761 5.00093 6.79509 5.00001 5.99972Z" fill="#461952"/>
</svg>
