<svg width="16" height="16" viewBox="0 0 16 16" fill="none" xmlns="http://www.w3.org/2000/svg">
<path d="M8.8427 3V3.83138H11.5804L8.38461 7.02761C7.71416 6.5067 6.87038 6.26093 6.02508 6.34032C5.17977 6.41972 4.39652 6.81832 3.83479 7.45496C3.27307 8.0916 2.97513 8.9184 3.00163 9.76701C3.02813 10.6156 3.37708 11.4222 3.97743 12.0226C4.57778 12.6229 5.38438 12.9719 6.23299 12.9984C7.0816 13.0249 7.9084 12.7269 8.54504 12.1652C9.18168 11.6035 9.58028 10.8202 9.65968 9.97492C9.73907 9.12962 9.4933 8.28584 8.97239 7.61539L12.1682 4.41916V7.15689H12.9996V3H8.8427ZM6.34856 12.1452C5.85527 12.1452 5.37306 11.9989 4.9629 11.7248C4.55274 11.4508 4.23306 11.0612 4.04429 10.6055C3.85551 10.1497 3.80612 9.64825 3.90235 9.16444C3.99859 8.68062 4.23613 8.23621 4.58495 7.8874C4.93376 7.53859 5.37817 7.30105 5.86198 7.20481C6.3458 7.10858 6.84728 7.15797 7.30303 7.34674C7.75877 7.53552 8.1483 7.8552 8.42236 8.26535C8.69642 8.67551 8.8427 9.15773 8.8427 9.65102C8.84193 10.3123 8.57891 10.9462 8.11133 11.4138C7.64376 11.8814 7.00981 12.1444 6.34856 12.1452Z" fill="#461952"/>
</svg>
