<svg width="24" height="24" viewBox="0 0 24 24" fill="none" xmlns="http://www.w3.org/2000/svg">
<rect x="0.25" y="0.25" width="23.5" height="23.5" rx="2.75" fill="white"/>
<path d="M12.0798 7.96191H8.90662C8.66617 7.96191 8.43557 8.05743 8.26554 8.22746C8.09552 8.39748 8 8.62808 8 8.86853V15.2149C8 15.4553 8.09552 15.6859 8.26554 15.856C8.43557 16.026 8.66617 16.1215 8.90662 16.1215H15.253C15.4934 16.1215 15.724 16.026 15.894 15.856C16.0641 15.6859 16.1596 15.4553 16.1596 15.2149V12.0417" stroke="#857D88" stroke-width="0.8" stroke-linecap="round" stroke-linejoin="round"/>
<path d="M15.4805 7.28165C15.6608 7.10131 15.9054 7 16.1604 7C16.4155 7 16.6601 7.10131 16.8404 7.28165C17.0207 7.46199 17.122 7.70658 17.122 7.96162C17.122 8.21665 17.0207 8.46124 16.8404 8.64158L12.5339 12.948L10.7207 13.4013L11.174 11.5881L15.4805 7.28165Z" stroke="#857D88" stroke-width="0.8" stroke-linecap="round" stroke-linejoin="round"/>
<rect x="0.25" y="0.25" width="23.5" height="23.5" rx="2.75" stroke="#E1E1E1" stroke-width="0.5"/>
</svg>
