<svg width="10" height="12" viewBox="0 0 10 12" fill="none" xmlns="http://www.w3.org/2000/svg">
<path d="M8.81539 4.67332C8.81539 7.94506 4.60887 10.7494 4.60887 10.7494C4.60887 10.7494 0.402344 7.94506 0.402344 4.67332C0.402344 3.55768 0.84553 2.48773 1.63441 1.69886C2.42328 0.909983 3.49323 0.466797 4.60887 0.466797C5.7245 0.466797 6.79445 0.909983 7.58332 1.69886C8.3722 2.48773 8.81539 3.55768 8.81539 4.67332Z" stroke="#461952" stroke-width="0.8" stroke-linecap="round" stroke-linejoin="round"/>
<path d="M4.60921 6.07583C5.3836 6.07583 6.01138 5.44806 6.01138 4.67366C6.01138 3.89926 5.3836 3.27148 4.60921 3.27148C3.83481 3.27148 3.20703 3.89926 3.20703 4.67366C3.20703 5.44806 3.83481 6.07583 4.60921 6.07583Z" stroke="#461952" stroke-width="0.8" stroke-linecap="round" stroke-linejoin="round"/>
</svg>
