<svg width="16" height="16" viewBox="0 0 16 16" fill="none" xmlns="http://www.w3.org/2000/svg">
<path d="M3.86596 12.4095C3.86596 12.5314 3.81754 12.6483 3.73134 12.7345C3.64514 12.8207 3.52824 12.8691 3.40634 12.8691C3.28444 12.8691 3.16754 12.8207 3.08134 12.7345C2.99515 12.6483 2.94672 12.5314 2.94672 12.4095V4.32667L1.89328 5.38104C1.85054 5.42377 1.79981 5.45767 1.74398 5.4808C1.68814 5.50393 1.6283 5.51583 1.56787 5.51583C1.50743 5.51583 1.44759 5.50393 1.39175 5.4808C1.33592 5.45767 1.28519 5.42377 1.24246 5.38104C1.19972 5.33831 1.16582 5.28757 1.1427 5.23174C1.11957 5.17591 1.10767 5.11606 1.10767 5.05563C1.10767 4.99519 1.11957 4.93535 1.1427 4.87952C1.16582 4.82368 1.19972 4.77295 1.24246 4.73022L3.08093 2.89266L3.08737 2.88623C3.17377 2.8023 3.28978 2.75582 3.41023 2.75685C3.53068 2.75789 3.64587 2.80635 3.73083 2.89174L5.56931 4.73022C5.61204 4.77289 5.64595 4.82356 5.6691 4.87934C5.69225 4.93512 5.70419 4.99491 5.70423 5.0553C5.70427 5.1157 5.69242 5.1755 5.66935 5.23132C5.64628 5.28713 5.61244 5.33785 5.56977 5.38058C5.52709 5.42331 5.47642 5.45722 5.42064 5.48037C5.36486 5.50352 5.30507 5.51546 5.24468 5.5155C5.18429 5.51555 5.12448 5.50369 5.06867 5.48062C5.01286 5.45755 4.96214 5.42371 4.91941 5.38104L3.86596 4.32667V12.4095ZM7.08329 4.13639C7.08329 4.01449 7.13172 3.89759 7.21791 3.81139C7.30411 3.7252 7.42101 3.67677 7.54291 3.67677H13.9776C14.0995 3.67677 14.2164 3.7252 14.3026 3.81139C14.3888 3.89759 14.4372 4.01449 14.4372 4.13639C14.4372 4.25829 14.3888 4.3752 14.3026 4.46139C14.2164 4.54759 14.0995 4.59601 13.9776 4.59601H7.54291C7.42101 4.59601 7.30411 4.54759 7.21791 4.46139C7.13172 4.3752 7.08329 4.25829 7.08329 4.13639ZM7.54291 6.43449C7.42101 6.43449 7.30411 6.48291 7.21791 6.5691C7.13172 6.6553 7.08329 6.77221 7.08329 6.8941C7.08329 7.016 7.13172 7.13291 7.21791 7.2191C7.30411 7.3053 7.42101 7.35372 7.54291 7.35372H12.1391C12.261 7.35372 12.3779 7.3053 12.4641 7.2191C12.5503 7.13291 12.5987 7.016 12.5987 6.8941C12.5987 6.77221 12.5503 6.6553 12.4641 6.5691C12.3779 6.48291 12.261 6.43449 12.1391 6.43449H7.54291ZM7.54291 9.1922C7.42101 9.1922 7.30411 9.24062 7.21791 9.32682C7.13172 9.41301 7.08329 9.52992 7.08329 9.65182C7.08329 9.77372 7.13172 9.89062 7.21791 9.97682C7.30411 10.063 7.42101 10.1114 7.54291 10.1114H10.3006C10.4225 10.1114 10.5394 10.063 10.6256 9.97682C10.7118 9.89062 10.7602 9.77372 10.7602 9.65182C10.7602 9.52992 10.7118 9.41301 10.6256 9.32682C10.5394 9.24062 10.4225 9.1922 10.3006 9.1922H7.54291ZM7.54291 11.9499C7.42101 11.9499 7.30411 11.9983 7.21791 12.0845C7.13172 12.1707 7.08329 12.2876 7.08329 12.4095C7.08329 12.5314 7.13172 12.6483 7.21791 12.7345C7.30411 12.8207 7.42101 12.8691 7.54291 12.8691H8.46215C8.58405 12.8691 8.70095 12.8207 8.78715 12.7345C8.87334 12.6483 8.92177 12.5314 8.92177 12.4095C8.92177 12.2876 8.87334 12.1707 8.78715 12.0845C8.70095 11.9983 8.58405 11.9499 8.46215 11.9499H7.54291Z" fill="#616161"/>
</svg>
