<svg width="17" height="17" viewBox="0 0 17 17" fill="none" xmlns="http://www.w3.org/2000/svg">
<path d="M12.3159 7.98679C12.5959 7.98679 12.8213 8.21222 12.8213 8.49072C12.8213 8.76928 12.5959 8.99612 12.3159 8.99612C12.0374 8.99612 11.812 8.76928 11.812 8.49072C11.812 8.21222 12.0374 7.98679 12.3159 7.98679ZM10.2973 7.98679C10.5758 7.98679 10.8026 8.21222 10.8026 8.49072C10.8026 8.76928 10.5758 8.99612 10.2973 8.99612C10.0187 8.99612 9.79189 8.76928 9.79189 8.49072C9.79189 8.21222 10.0187 7.98679 10.2973 7.98679ZM8.27867 7.98679C8.55718 7.98679 8.78261 8.21222 8.78261 8.49072C8.78261 8.76928 8.55718 8.99612 8.27867 8.99612C8.00016 8.99612 7.77332 8.76928 7.77332 8.49072C7.77332 8.21222 8.00016 7.98679 8.27867 7.98679ZM6.26005 7.98679C6.53861 7.98679 6.76399 8.21222 6.76399 8.49072C6.76399 8.76928 6.53861 8.99612 6.26005 8.99612C5.98008 8.99612 5.7547 8.76928 5.7547 8.49072C5.7547 8.21222 5.98008 7.98679 6.26005 7.98679ZM12.3159 10.0054C12.5959 10.0054 12.8213 10.2323 12.8213 10.5108C12.8213 10.7893 12.5959 11.0147 12.3159 11.0147C12.0374 11.0147 11.812 10.7893 11.812 10.5108C11.812 10.2323 12.0374 10.0054 12.3159 10.0054ZM10.2973 10.0054C10.5758 10.0054 10.8026 10.2323 10.8026 10.5108C10.8026 10.7893 10.5758 11.0147 10.2973 11.0147C10.0187 11.0147 9.79189 10.7893 9.79189 10.5108C9.79189 10.2323 10.0187 10.0054 10.2973 10.0054ZM8.27867 10.0054C8.55718 10.0054 8.78261 10.2323 8.78261 10.5108C8.78261 10.7893 8.55718 11.0147 8.27867 11.0147C8.00016 11.0147 7.77332 10.7893 7.77332 10.5108C7.77332 10.2323 8.00016 10.0054 8.27867 10.0054ZM6.26005 10.0054C6.53861 10.0054 6.76399 10.2323 6.76399 10.5108C6.76399 10.7893 6.53861 11.0147 6.26005 11.0147C5.98008 11.0147 5.7547 10.7893 5.7547 10.5108C5.7547 10.2323 5.98008 10.0054 6.26005 10.0054ZM4.24002 10.0054C4.51999 10.0054 4.74537 10.2323 4.74537 10.5108C4.74537 10.7893 4.51999 11.0147 4.24002 11.0147C3.96147 11.0147 3.73608 10.7893 3.73608 10.5108C3.73608 10.2323 3.96147 10.0054 4.24002 10.0054ZM8.27867 12.0254C8.55718 12.0254 8.78261 12.2509 8.78261 12.5294C8.78261 12.8079 8.55718 13.0348 8.27867 13.0348C8.00016 13.0348 7.77332 12.8079 7.77332 12.5294C7.77332 12.2509 8.00016 12.0254 8.27867 12.0254ZM6.26005 12.0254C6.53861 12.0254 6.76399 12.2509 6.76399 12.5294C6.76399 12.8079 6.53861 13.0348 6.26005 13.0348C5.98008 13.0348 5.7547 12.8079 5.7547 12.5294C5.7547 12.2509 5.98008 12.0254 6.26005 12.0254ZM4.24002 12.0254C4.51999 12.0254 4.74537 12.2509 4.74537 12.5294C4.74537 12.8079 4.51999 13.0348 4.24002 13.0348C3.96147 13.0348 3.73608 12.8079 3.73608 12.5294C3.73608 12.2509 3.96147 12.0254 4.24002 12.0254ZM8.78261 3.94814V4.45353C8.77397 4.90147 8.05041 5.15704 7.82211 4.66745C7.79054 4.6014 7.77474 4.52817 7.77332 4.45353V3.94814H6.26005C5.871 3.9295 5.61113 3.42123 5.87817 3.11257C5.97004 3.00632 6.04472 2.9489 6.26005 2.93885C6.76399 2.93885 7.26938 2.93739 7.77332 2.93456V2.43492C7.77474 2.35164 7.78337 2.32579 7.79913 2.277C7.86518 2.07314 8.06475 1.92957 8.28872 1.92957C8.55864 1.93961 8.77685 2.14202 8.78261 2.43492V2.9288C9.79189 2.92163 10.8026 2.91588 11.812 2.92163V2.43492C11.8177 2.165 12.0144 1.94103 12.3073 1.92957C12.313 1.92957 12.3202 1.92957 12.3274 1.92957C12.5959 1.93961 12.8155 2.14202 12.8213 2.43492V2.93022C13.0021 2.9331 13.183 2.93597 13.364 2.93885C14.1378 2.96325 14.8255 3.62943 14.8399 4.43485C14.86 7.47568 14.86 10.5165 14.8399 13.5573C14.8269 14.3384 14.1507 15.039 13.3453 15.0534C9.96707 15.0735 6.59027 15.0735 3.21205 15.0534C2.43532 15.039 1.73181 14.3772 1.71747 13.5573C1.69737 10.5165 1.69737 7.47568 1.71747 4.43485C1.73181 3.64807 2.40517 2.94461 3.22927 2.93885H3.73608V2.43492C3.7375 2.35164 3.74472 2.32579 3.76048 2.277C3.82795 2.07314 4.02752 1.92957 4.25007 1.92957C4.51999 1.93961 4.73966 2.14202 4.74537 2.43492V4.45353C4.73678 4.90005 4.03327 5.15129 3.79209 4.68467C3.75477 4.61433 3.7375 4.53535 3.73608 4.45353V3.94672C3.56237 3.94526 3.39006 3.94526 3.21781 3.94814C2.96223 3.95677 2.73397 4.18074 2.7268 4.44061C2.66933 7.47714 2.66933 10.5151 2.7268 13.5516C2.73397 13.8086 2.95794 14.0355 3.21781 14.0441C6.59173 14.1072 9.96707 14.1072 13.3395 14.0441C13.5951 14.0355 13.8234 13.8115 13.8305 13.5516C13.888 10.5151 13.888 7.47714 13.8305 4.44061C13.8234 4.17932 13.5908 3.9496 13.3252 3.94814H12.8213V4.45353C12.8126 4.89717 12.1077 5.14699 11.8679 4.68467C11.8321 4.61433 11.8134 4.53535 11.812 4.45353V3.94814H8.78261Z" fill="#9D9D9D"/>
</svg>
