<svg width="53" height="53" viewBox="0 0 53 53" fill="none" xmlns="http://www.w3.org/2000/svg">
<path d="M46.1495 29.5119C46.1807 28.2462 44.9256 27.1962 43.6865 27.4544L38.3017 28.4347C36.3715 28.7865 34.6094 29.8 33.3304 31.2695C31.9538 29.7814 29.7569 29.3633 27.9422 30.2752L26.6506 30.9223C26.1064 31.1772 25.9756 31.9657 26.4137 32.3805L28.0577 34.0272C29.5319 40.0944 37.5782 45.9909 43.3446 41.7039L45.8077 39.7313C46.4754 39.2289 46.0772 38.0826 45.2402 38.1092C43.6194 38.1417 41.9827 38.0142 40.4156 37.61L45.7088 30.7962C45.9936 30.4312 46.1495 29.9739 46.1495 29.5119Z" fill="white"/>
<path d="M25.6449 30.9221L24.352 30.2749C22.5367 29.361 20.3405 29.7798 18.9639 31.2692C17.6836 29.7997 15.922 28.7849 13.9926 28.4344L8.60713 27.4534C7.36662 27.1992 6.11417 28.2433 6.14537 29.5117C6.14537 29.9749 6.30134 30.4316 6.58542 30.796L11.8793 37.6098C10.3122 38.0133 8.67483 38.1414 7.05467 38.1089C6.2217 38.0797 5.81616 39.2299 6.48719 39.7297L8.95027 41.7023C10.4795 42.9295 12.478 43.428 14.3882 43.0775C19.1358 42.214 22.9754 38.6737 24.2372 34.027L25.8812 32.3803C26.3166 31.9661 26.1912 31.1769 25.6449 30.9221Z" fill="white"/>
<path d="M34.0663 21.5895C35.9666 19.9587 37.0578 17.5859 37.0578 15.079C37.1208 9.8409 30.53 7.10635 26.8828 10.8604L26.1474 11.5958C24.8817 10.1495 23.1733 9.06235 21.198 9.11146C14.3225 9.35903 13.5745 17.7864 18.2285 21.5895L25.5554 27.8776C25.8966 28.1703 26.3983 28.1703 26.7395 27.8776L34.0663 21.5895Z" fill="white"/>
</svg>
