<svg width="30" height="30" viewBox="0 0 30 30" fill="none" xmlns="http://www.w3.org/2000/svg">
<path d="M2.80645 10.2229H4.88457L4.89238 8.14941C3.80957 8.29473 2.95176 9.14785 2.80645 10.2229ZM5.21113 10.8729H2.45645C2.2752 10.8729 2.12988 10.7275 2.12988 10.5479C2.12988 8.85566 3.51582 7.47754 5.22051 7.47754C5.30801 7.47754 5.39082 7.51191 5.45176 7.57285C5.51426 7.63379 5.54863 7.7166 5.54863 7.8041L5.5377 10.5494C5.5377 10.7291 5.39082 10.8729 5.21113 10.8729Z" fill="#9A9A9A"/>
<path d="M24.2621 8.14941L24.2699 10.2229H26.3496C26.2027 9.14785 25.3449 8.29473 24.2621 8.14941ZM23.9434 10.8729C23.7637 10.8729 23.6168 10.7291 23.6168 10.5494L23.6074 7.8041C23.6074 7.7166 23.6418 7.63379 23.7027 7.57285C23.7637 7.51191 23.8465 7.47754 23.934 7.47754C25.6387 7.47754 27.0246 8.85566 27.0246 10.5479C27.0246 10.7275 26.8793 10.8729 26.698 10.8729H23.9434Z" fill="#9A9A9A"/>
<path d="M2.80645 22.2418C2.95176 23.3168 3.80957 24.1699 4.89238 24.3168L4.88457 22.2418H2.80645ZM5.22363 24.9871C5.22207 24.9871 5.22207 24.9871 5.22051 24.9871C3.51582 24.9871 2.12988 23.6105 2.12988 21.9168C2.12988 21.7371 2.2752 21.5918 2.45645 21.5918H5.21113C5.39082 21.5918 5.5377 21.7355 5.5377 21.9152L5.54707 24.6152C5.55019 24.6309 5.55176 24.6465 5.55176 24.6621C5.55176 24.8418 5.40488 24.9871 5.22363 24.9871Z" fill="#9A9A9A"/>
<path d="M24.2699 22.2418L24.2621 24.3168C25.3449 24.1699 26.2027 23.3168 26.3496 22.2418H24.2699ZM23.934 24.9871C23.8465 24.9871 23.7637 24.9543 23.7027 24.8918C23.6418 24.8309 23.6074 24.748 23.6074 24.6621L23.6168 21.9152C23.6168 21.7355 23.7637 21.5918 23.9434 21.5918H26.698C26.8793 21.5918 27.0246 21.7371 27.0246 21.9168C27.0246 23.6105 25.6387 24.9871 23.934 24.9871Z" fill="#9A9A9A"/>
<path d="M14.5783 6.2168C15.6267 6.2168 16.6705 6.36211 17.6798 6.64961C17.8033 6.68398 17.9455 6.62148 17.983 6.51211L18.0127 6.42617C18.0314 6.37305 18.0158 6.32461 18.0002 6.29336C17.9658 6.22773 17.9017 6.17773 17.822 6.15586C15.7111 5.5543 13.4439 5.5543 11.333 6.15586C11.2533 6.17773 11.1892 6.22773 11.1548 6.29336C11.1392 6.32461 11.122 6.37305 11.1408 6.42461C11.1517 6.4543 11.1627 6.48555 11.1736 6.5168C11.2095 6.61992 11.3502 6.68555 11.4752 6.64961C12.4845 6.36211 13.5283 6.2168 14.5783 6.2168ZM17.7533 7.31055C17.6673 7.31055 17.583 7.29805 17.5002 7.27461C15.5986 6.73242 13.5564 6.73242 11.6548 7.27461C11.572 7.29805 11.4877 7.31055 11.4017 7.31055C11.0189 7.31055 10.6783 7.07617 10.5548 6.72773C10.5439 6.69648 10.5345 6.66836 10.5252 6.6418C10.4486 6.4293 10.4673 6.19961 10.5736 5.99336C10.6908 5.77148 10.9002 5.60117 11.1517 5.5293C13.3798 4.89648 15.7752 4.89648 18.0033 5.5293C18.2548 5.60273 18.4658 5.77148 18.5814 5.99492C18.6877 6.19961 18.7064 6.43086 18.6314 6.64023L18.6002 6.72773C18.4767 7.07617 18.1361 7.31055 17.7533 7.31055Z" fill="#9A9A9A"/>
<path d="M7.30996 9.06875L8.2959 10.0047L9.28184 9.06875V8.12656H7.30996V9.06875ZM8.2959 10.7797C8.21465 10.7797 8.1334 10.75 8.06934 10.6906L6.75684 9.44219C6.69277 9.38125 6.65527 9.29688 6.65527 9.20781V7.80156C6.65527 7.62188 6.80215 7.47656 6.9834 7.47656H9.60996C9.78965 7.47656 9.93652 7.62188 9.93652 7.80156V9.20781C9.93652 9.29688 9.89902 9.38125 9.83496 9.44219L8.52246 10.6906C8.4584 10.75 8.37715 10.7797 8.2959 10.7797Z" fill="#9A9A9A"/>
<path d="M19.8734 9.06875L20.8594 10.0047L21.8453 9.06875V8.12656H19.8734V9.06875ZM20.8594 10.7797C20.7781 10.7797 20.6969 10.75 20.6328 10.6906L19.3203 9.44219C19.2547 9.38125 19.2188 9.29688 19.2188 9.20781V7.80156C19.2188 7.62188 19.3656 7.47656 19.5453 7.47656H22.1719C22.3531 7.47656 22.5 7.62188 22.5 7.80156V9.20781C22.5 9.29688 22.4625 9.38125 22.3984 9.44219L21.0859 10.6906C21.0219 10.75 20.9406 10.7797 20.8594 10.7797Z" fill="#9A9A9A"/>
<path d="M7.30898 24.3377H9.28086V23.3955L8.29492 22.4596L7.30898 23.3955V24.3377ZM9.60898 24.9877H6.98242C6.80117 24.9877 6.6543 24.8424 6.6543 24.6627V23.2564C6.6543 23.1674 6.6918 23.083 6.75586 23.0221L8.06836 21.7736C8.19492 21.6549 8.39492 21.6549 8.52148 21.7736L9.83398 23.0221C9.89805 23.083 9.93555 23.1674 9.93555 23.2564V24.6627C9.93555 24.8424 9.78867 24.9877 9.60898 24.9877Z" fill="#9A9A9A"/>
<path d="M19.8725 24.3377H21.8443V23.3955L20.8584 22.4596L19.8725 23.3955V24.3377ZM22.1709 24.9877H19.5443C19.3646 24.9877 19.2178 24.8424 19.2178 24.6627V23.2564C19.2178 23.1674 19.2537 23.083 19.3193 23.0221L20.6318 21.7736C20.7584 21.6549 20.9584 21.6549 21.085 21.7736L22.3975 23.0221C22.4615 23.083 22.499 23.1674 22.499 23.2564V24.6627C22.499 24.8424 22.3521 24.9877 22.1709 24.9877Z" fill="#9A9A9A"/>
<path d="M3.13809 22.1107C2.95684 22.1107 2.81152 21.9654 2.81152 21.7857V10.5701C2.81152 10.392 2.95684 10.2451 3.13809 10.2451C3.31934 10.2451 3.46465 10.392 3.46465 10.5701V21.7857C3.46465 21.9654 3.31934 22.1107 3.13809 22.1107Z" fill="#9A9A9A"/>
<path d="M19.3748 8.89512H9.68105C9.50137 8.89512 9.35449 8.7498 9.35449 8.57012C9.35449 8.39043 9.50137 8.24512 9.68105 8.24512H19.3748C19.5561 8.24512 19.7029 8.39043 19.7029 8.57012C19.7029 8.7498 19.5561 8.89512 19.3748 8.89512Z" fill="#9A9A9A"/>
<path d="M6.72285 8.89512H5.25098C5.06973 8.89512 4.92285 8.7498 4.92285 8.57012C4.92285 8.39043 5.06973 8.24512 5.25098 8.24512H6.72285C6.9041 8.24512 7.04941 8.39043 7.04941 8.57012C7.04941 8.7498 6.9041 8.89512 6.72285 8.89512Z" fill="#9A9A9A"/>
<path d="M23.8996 8.89512H22.4277C22.2465 8.89512 22.0996 8.7498 22.0996 8.57012C22.0996 8.39043 22.2465 8.24512 22.4277 8.24512H23.8996C24.0809 8.24512 24.2262 8.39043 24.2262 8.57012C24.2262 8.7498 24.0809 8.89512 23.8996 8.89512Z" fill="#9A9A9A"/>
<path d="M19.4094 24.1734H9.64688C9.46719 24.1734 9.32031 24.0281 9.32031 23.8484C9.32031 23.6687 9.46719 23.5234 9.64688 23.5234H19.4094C19.5891 23.5234 19.7375 23.6687 19.7375 23.8484C19.7375 24.0281 19.5891 24.1734 19.4094 24.1734Z" fill="#9A9A9A"/>
<path d="M6.72285 24.1734H5.25098C5.06973 24.1734 4.92285 24.0281 4.92285 23.8484C4.92285 23.6687 5.06973 23.5234 5.25098 23.5234H6.72285C6.9041 23.5234 7.04941 23.6687 7.04941 23.8484C7.04941 24.0281 6.9041 24.1734 6.72285 24.1734Z" fill="#9A9A9A"/>
<path d="M23.8996 24.1734H22.4277C22.2465 24.1734 22.0996 24.0281 22.0996 23.8484C22.0996 23.6687 22.2465 23.5234 22.4277 23.5234H23.8996C24.0809 23.5234 24.2262 23.6687 24.2262 23.8484C24.2262 24.0281 24.0809 24.1734 23.8996 24.1734Z" fill="#9A9A9A"/>
<path d="M26.0033 22.1652C25.8236 22.1652 25.6768 22.0199 25.6768 21.8402V10.6121C25.6768 10.4324 25.8236 10.2871 26.0033 10.2871C26.1846 10.2871 26.3299 10.4324 26.3299 10.6121V21.8402C26.3299 22.0199 26.1846 22.1652 26.0033 22.1652Z" fill="#9A9A9A"/>
<path d="M7.52832 22.9916C7.34707 22.9916 7.2002 22.8463 7.2002 22.6666V9.88066C7.2002 9.70098 7.34707 9.55566 7.52832 9.55566C7.70801 9.55566 7.85488 9.70098 7.85488 9.88066V22.6666C7.85488 22.8463 7.70801 22.9916 7.52832 22.9916Z" fill="#9A9A9A"/>
<path d="M9.10938 23.0596C8.92812 23.0596 8.78125 22.9143 8.78125 22.7346V9.75957C8.78125 9.57988 8.92812 9.43457 9.10938 9.43457C9.29062 9.43457 9.43594 9.57988 9.43594 9.75957V22.7346C9.43594 22.9143 9.29062 23.0596 9.10938 23.0596Z" fill="#9A9A9A"/>
<path d="M21.6289 22.9916C21.4477 22.9916 21.3008 22.8463 21.3008 22.6666V9.88066C21.3008 9.70098 21.4477 9.55566 21.6289 9.55566C21.8086 9.55566 21.9555 9.70098 21.9555 9.88066V22.6666C21.9555 22.8463 21.8086 22.9916 21.6289 22.9916Z" fill="#9A9A9A"/>
<path d="M20.0453 23.0596C19.8656 23.0596 19.7188 22.9143 19.7188 22.7346V9.75957C19.7188 9.57988 19.8656 9.43457 20.0453 9.43457C20.2266 9.43457 20.3734 9.57988 20.3734 9.75957V22.7346C20.3734 22.9143 20.2266 23.0596 20.0453 23.0596Z" fill="#9A9A9A"/>
<path d="M11.5957 8.79199H11.5941C11.4145 8.79199 11.2676 8.64512 11.2676 8.46543L11.2754 6.96699C11.2754 6.7873 11.4207 6.64355 11.602 6.64355C11.602 6.64355 11.602 6.64355 11.6035 6.64355C11.7848 6.64355 11.9301 6.79043 11.9285 6.96855L11.9223 8.46855C11.9223 8.64824 11.7754 8.79199 11.5957 8.79199Z" fill="#9A9A9A"/>
<path d="M17.5594 8.79199C17.3797 8.79199 17.2344 8.64824 17.2328 8.46855L17.2266 6.96855C17.225 6.79043 17.3719 6.64355 17.5516 6.64355C17.5531 6.64355 17.5531 6.64355 17.5531 6.64355C17.7328 6.64355 17.8797 6.7873 17.8813 6.96699L17.8875 8.46543C17.8875 8.64512 17.7422 8.79199 17.5609 8.79199C17.5609 8.79199 17.5609 8.79199 17.5594 8.79199Z" fill="#9A9A9A"/>
</svg>
