<svg width="21" height="21" viewBox="0 0 21 21" fill="none" xmlns="http://www.w3.org/2000/svg">
<path d="M7.83272 5.9353C7.90461 5.9353 7.97356 5.96386 8.02439 6.01469C8.07522 6.06553 8.10378 6.13447 8.10378 6.20636V6.47742H12.4407V6.20636C12.4407 6.13447 12.4693 6.06553 12.5201 6.01469C12.571 5.96386 12.6399 5.9353 12.7118 5.9353C12.7837 5.9353 12.8526 5.96386 12.9035 6.01469C12.9543 6.06553 12.9829 6.13447 12.9829 6.20636V6.47742H13.525C13.8125 6.47742 14.0883 6.59165 14.2917 6.79499C14.495 6.99832 14.6092 7.2741 14.6092 7.56166V13.525C14.6092 13.8125 14.495 14.0883 14.2917 14.2917C14.0883 14.495 13.8125 14.6092 13.525 14.6092H7.01954C6.73198 14.6092 6.4562 14.495 6.25287 14.2917C6.04953 14.0883 5.9353 13.8125 5.9353 13.525V8.6459H14.6092V8.10378H5.9353V7.56166C5.9353 7.2741 6.04953 6.99832 6.25287 6.79499C6.4562 6.59165 6.73198 6.47742 7.01954 6.47742H7.56166V6.20636C7.56166 6.13447 7.59022 6.06553 7.64105 6.01469C7.69189 5.96386 7.76083 5.9353 7.83272 5.9353V5.9353Z" fill="#613F35"/>
</svg>
