<svg width="19" height="19" viewBox="0 0 19 19" fill="none" xmlns="http://www.w3.org/2000/svg">
<path d="M9.74079 14.5804C9.06068 14.0002 8.43027 13.3642 7.85616 12.679C6.99461 11.65 5.97153 10.1176 5.97153 8.65723C5.97115 7.91143 6.19203 7.18229 6.60621 6.56207C7.02039 5.94186 7.60926 5.45845 8.29828 5.17303C8.9873 4.88761 9.7455 4.81301 10.4769 4.95866C11.2084 5.10432 11.8802 5.46369 12.4073 5.99128C12.7582 6.34067 13.0364 6.7562 13.2257 7.2138C13.415 7.67141 13.5116 8.16202 13.5101 8.65723C13.5101 10.1176 12.487 11.65 11.6254 12.679C11.0513 13.3642 10.4209 14.0002 9.74079 14.5804ZM9.74079 7.04183C9.31236 7.04183 8.90148 7.21203 8.59853 7.51497C8.29559 7.81792 8.12539 8.2288 8.12539 8.65723C8.12539 9.08566 8.29559 9.49654 8.59853 9.79949C8.90148 10.1024 9.31236 10.2726 9.74079 10.2726C10.1692 10.2726 10.5801 10.1024 10.883 9.79949C11.186 9.49654 11.3562 9.08566 11.3562 8.65723C11.3562 8.2288 11.186 7.81792 10.883 7.51497C10.5801 7.21203 10.1692 7.04183 9.74079 7.04183Z" fill="#613F35"/>
</svg>
