<svg width="20" height="20" viewBox="0 0 20 20" fill="none" xmlns="http://www.w3.org/2000/svg">
<path d="M1.21844 17.0627H18.2809V18.2814H1.21844V17.0627ZM8.21407 3.13844L11.6814 8.09875L12.1689 8.79953L12.9916 8.58016L15.7459 7.84281C15.9694 7.78193 16.205 7.78193 16.4284 7.84281C16.6033 7.88689 16.765 7.9725 16.8997 8.09238C17.0344 8.21225 17.1382 8.36285 17.2023 8.53141C17.2572 8.6783 17.2812 8.83494 17.2727 8.99152C17.2643 9.1481 17.2236 9.30124 17.1532 9.44138C17.0829 9.58152 16.9844 9.70563 16.8638 9.80594C16.7433 9.90626 16.6034 9.98062 16.4528 10.0244L5.05141 13.0712C4.85246 13.1295 4.64099 13.1295 4.44204 13.0712C4.25189 13.0161 4.0794 12.9123 3.94155 12.7702C3.80371 12.6281 3.70527 12.4525 3.65594 12.2608L3.5036 11.6941L3.04657 9.98172L2.59563 8.31203L3.47313 8.07437L4.87469 9.96344L5.36829 10.6216L6.16657 10.4083L7.87282 9.95125L9.055 9.63437L8.73813 8.45828L7.36094 3.36391L8.21407 3.13844ZM8.62844 1.82828C8.52833 1.80398 8.42386 1.80398 8.32375 1.82828L6.44079 2.33406C6.29494 2.37936 6.17142 2.47777 6.09468 2.60981C6.01794 2.74184 5.99358 2.89788 6.02641 3.04703L7.54985 8.75078L5.8375 9.20781L4.17391 7.00797C4.0948 6.90249 3.98361 6.82551 3.85704 6.78859C3.75693 6.7643 3.65246 6.7643 3.55235 6.78859L1.65719 7.31266C1.5081 7.35295 1.37986 7.44835 1.29841 7.57957C1.21697 7.71079 1.18838 7.86804 1.21844 8.01953L1.82782 10.2986L2.28485 12.0048L2.43719 12.5777C2.54419 12.9782 2.75488 13.3434 3.04801 13.6365C3.34114 13.9297 3.70637 14.1403 4.10688 14.2473C4.50626 14.353 4.92625 14.353 5.32563 14.2473L16.7209 11.2005C17.2243 11.0716 17.6704 10.7789 17.989 10.3684C18.3076 9.95797 18.4805 9.45317 18.4805 8.93359C18.4805 8.41401 18.3076 7.90921 17.989 7.49877C17.6704 7.08833 17.2243 6.79559 16.7209 6.66672C16.2894 6.55391 15.8362 6.55391 15.4047 6.66672L12.6564 7.40406L8.9575 2.07812C8.88026 1.95906 8.76388 1.8707 8.62844 1.82828Z" fill="#C4456F"/>
</svg>
