<svg width="20" height="20" viewBox="0 0 20 20" fill="none" xmlns="http://www.w3.org/2000/svg">
<path d="M1.21875 17.0627H18.2812V18.2814H1.21875V17.0627ZM10.4873 3.18719L11.3344 3.41875L11.9438 10.2986L15.5208 11.2553C15.8087 11.3233 16.0621 11.4937 16.2337 11.7348C16.4052 11.9759 16.4832 12.2711 16.4531 12.5655C16.4183 12.784 16.3209 12.9878 16.1728 13.1521C16.0246 13.3165 15.832 13.4344 15.6183 13.4917C15.4184 13.5433 15.2088 13.5433 15.0089 13.4917L3.61359 10.4448C3.32127 10.3649 3.07225 10.1729 2.92053 9.9105C2.76882 9.64814 2.72663 9.33654 2.80312 9.04328L3.86953 5.08234L4.74703 5.31391L5.11875 8.47047L8.775 9.45766L10.4873 3.18719ZM9.87797 1.84656C9.77893 1.8758 9.68895 1.92972 9.61647 2.00327C9.54398 2.07682 9.49138 2.16758 9.46359 2.26703L7.92188 7.96469L6.20953 7.50766L5.90484 4.74719C5.88621 4.63588 5.83703 4.53193 5.76279 4.44693C5.68855 4.36193 5.59216 4.29922 5.48438 4.26578L3.57703 3.74172C3.47733 3.71421 3.37204 3.71421 3.27234 3.74172C3.17401 3.7704 3.0845 3.8234 3.01208 3.89583C2.93965 3.96825 2.88665 4.05776 2.85797 4.15609L1.63922 8.72031C1.55908 9.0196 1.5387 9.33175 1.57925 9.63893C1.6198 9.9461 1.72048 10.2423 1.87555 10.5105C2.03061 10.7788 2.237 11.0138 2.48295 11.2023C2.72889 11.3907 3.00956 11.5288 3.30891 11.6087L14.7103 14.6556C15.0274 14.7449 15.3596 14.7668 15.6857 14.7199C16.0117 14.673 16.3243 14.5583 16.6033 14.3832C16.8823 14.2081 17.1216 13.9765 17.3056 13.7033C17.4897 13.4301 17.6144 13.1214 17.6719 12.797C17.7527 12.2017 17.6107 11.5975 17.2733 11.1004C16.9359 10.6033 16.4268 10.2483 15.8438 10.1036L13.0894 9.36625L12.5105 2.87031C12.497 2.7502 12.448 2.63681 12.3699 2.54458C12.2918 2.45235 12.188 2.38543 12.0717 2.35234L10.1948 1.82828C10.0947 1.80398 9.99027 1.80398 9.89016 1.82828L9.87797 1.84656Z" fill="#C4456F"/>
</svg>
