<svg width="32" height="32" viewBox="0 0 32 32" fill="none" xmlns="http://www.w3.org/2000/svg">
<path fill-rule="evenodd" clip-rule="evenodd" d="M31.8333 16.0003C31.8333 24.7451 24.7447 31.8337 16 31.8337C7.25521 31.8337 0.166626 24.7451 0.166626 16.0003C0.166626 7.25558 7.25521 0.166992 16 0.166992C24.7447 0.166992 31.8333 7.25558 31.8333 16.0003ZM9.84238 22.1579C9.69396 22.0094 9.61059 21.8081 9.61059 21.5982C9.61059 21.3883 9.69396 21.187 9.84238 21.0385L14.8805 16.0003L9.84238 10.9622C9.69817 10.8128 9.61837 10.6129 9.62018 10.4053C9.62198 10.1977 9.70524 9.99917 9.85202 9.85239C9.9988 9.70561 10.1974 9.62235 10.4049 9.62054C10.6125 9.61874 10.8125 9.69853 10.9618 9.84274L16 14.8809L21.0381 9.84274C21.1874 9.69853 21.3874 9.61874 21.595 9.62054C21.8026 9.62235 22.0011 9.70561 22.1479 9.85239C22.2947 9.99917 22.3779 10.1977 22.3797 10.4053C22.3815 10.6129 22.3018 10.8128 22.1575 10.9622L17.1194 16.0003L22.1575 21.0385C22.3018 21.1878 22.3815 21.3878 22.3797 21.5954C22.3779 21.8029 22.2947 22.0015 22.1479 22.1483C22.0011 22.295 21.8026 22.3783 21.595 22.3801C21.3874 22.3819 21.1874 22.3021 21.0381 22.1579L16 17.1197L10.9618 22.1579C10.8133 22.3063 10.612 22.3897 10.4021 22.3897C10.1922 22.3897 9.99084 22.3063 9.84238 22.1579Z" fill="#7C7C7C"/>
</svg>
