<svg width="76" height="14" viewBox="0 0 76 14" fill="none" xmlns="http://www.w3.org/2000/svg">
<path d="M38.6139 7.78346C38.6036 7.74783 38.5888 7.71488 38.5713 7.68434C38.5538 7.65379 38.5317 7.62624 38.5066 7.60378C38.4832 7.57982 38.4568 7.56005 38.4321 7.54418C38.3806 7.51094 38.3279 7.49267 38.2827 7.48189C38.2372 7.47141 38.2005 7.46991 38.1755 7.46991H38.1375L38.1478 7.4726H38.1593L38.1755 7.4768C38.1989 7.48069 38.2342 7.48848 38.2738 7.50435C38.3134 7.52022 38.3572 7.54538 38.3968 7.58102C38.4364 7.61695 38.4717 7.66307 38.4921 7.71728C38.5024 7.74393 38.5096 7.77298 38.5126 7.80203C38.5142 7.81671 38.5142 7.83108 38.5142 7.84576C38.5142 7.86013 38.5126 7.87481 38.5096 7.88948C38.501 7.94758 38.473 8.00298 38.4351 8.04671C38.3968 8.09163 38.3457 8.12607 38.2929 8.14733C38.2401 8.1683 38.1857 8.17758 38.1359 8.17758C38.0861 8.17758 38.032 8.16979 37.9792 8.14733C37.9264 8.12607 37.8766 8.09163 37.837 8.04671C37.7988 8.00178 37.7711 7.94758 37.7622 7.88948C37.7592 7.87481 37.7579 7.86013 37.7579 7.84576C37.7579 7.83108 37.7579 7.81671 37.7592 7.80203C37.7622 7.77298 37.7694 7.74513 37.7796 7.71728C37.8004 7.66307 37.8354 7.61695 37.875 7.58102C37.9145 7.54538 37.9587 7.52022 37.9983 7.50435C38.0379 7.48848 38.0729 7.48069 38.0963 7.4768L38.1125 7.4741H38.1243L38.1346 7.47141H38.0963C38.0716 7.46991 38.0349 7.47141 37.9894 7.48069C37.9456 7.48997 37.8911 7.50974 37.84 7.54268C37.8136 7.55856 37.7885 7.57982 37.7651 7.60228C37.7417 7.62624 37.7196 7.65259 37.7008 7.68314C37.6817 7.71339 37.6668 7.74663 37.6582 7.78227C37.6523 7.79934 37.6493 7.8179 37.6464 7.83767C37.6451 7.85624 37.6434 7.876 37.6434 7.89457C37.6434 7.97124 37.6698 8.0506 37.7166 8.11828C37.7638 8.18566 37.8298 8.24107 37.9043 8.27701C37.9792 8.31264 38.0613 8.32971 38.1346 8.32852C38.2078 8.32852 38.2899 8.31264 38.3645 8.27551C38.4394 8.23987 38.5053 8.18417 38.5522 8.11678C38.599 8.0494 38.6241 7.97004 38.6254 7.89337C38.6254 7.87361 38.6254 7.85504 38.6224 7.83647C38.6198 7.8179 38.6168 7.79934 38.6109 7.78077L38.6139 7.78346Z" fill="black"/>
<path d="M25.4371 7.53201C25.4061 7.5374 25.3754 7.5401 25.3448 7.54399C25.2699 7.55178 25.195 7.56645 25.1204 7.57843C24.8463 7.62066 24.5679 7.64582 24.2908 7.66169C24.1926 7.66708 24.0943 7.67097 23.9963 7.67486C23.5008 7.69074 19.8641 7.69613 15.1929 7.69613C15.1959 7.7132 15.1959 7.73177 15.1959 7.75033C15.1959 7.77938 15.1929 7.80843 15.187 7.83748C19.8628 7.83748 23.5038 7.84287 23.9993 7.85874C24.2836 7.86803 24.5679 7.8839 24.8493 7.91565C24.9783 7.93002 25.1073 7.94859 25.2346 7.96985C25.3006 7.98033 25.3711 7.98692 25.4384 8.0004C25.4282 7.91834 25.4239 7.83479 25.4239 7.75033C25.4239 7.67606 25.4282 7.60359 25.4355 7.53201H25.4371Z" fill="black"/>
<path d="M14.1888 7.69624C10.5436 7.69624 6.38829 7.69205 2.64173 7.68815C2.61699 7.6618 2.57873 7.64593 2.53782 7.64593C2.49659 7.64593 2.45866 7.663 2.43359 7.68815C2.3531 7.68815 2.27393 7.68815 2.19312 7.68815C2.00279 7.61149 1.86656 7.50847 1.81081 7.39197C1.74319 7.43419 1.71119 7.4857 1.71119 7.53602C1.71119 7.548 1.71251 7.55848 1.7168 7.57046C1.69503 7.57705 1.67425 7.58633 1.65379 7.59442C1.55418 7.63934 1.50008 7.69744 1.49249 7.75554H1.49414C1.49414 7.75554 1.49414 7.76482 1.49711 7.76901C1.49711 7.77291 1.49546 7.7768 1.49414 7.78219C1.5014 7.84179 1.55583 7.89988 1.65544 7.94481C1.67425 7.95409 1.69635 7.96188 1.71845 7.96876C1.71548 7.98044 1.71251 7.99123 1.71251 8.00291C1.71251 8.05322 1.74616 8.10353 1.81213 8.14725C1.86919 8.02806 2.01004 7.92354 2.20631 7.84568C2.27987 7.84568 2.35442 7.84568 2.4293 7.84568C2.45404 7.87473 2.49362 7.89449 2.53782 7.89449C2.58169 7.89449 2.62128 7.87593 2.64635 7.84568C6.39258 7.84179 10.5478 7.83909 14.1935 7.83759C14.1875 7.81004 14.1846 7.78069 14.1846 7.75044C14.1846 7.73188 14.1846 7.71331 14.1875 7.69624H14.1888Z" fill="black"/>
<path d="M14.9084 7.71871C14.9133 7.74446 14.9123 7.77022 14.9054 7.79597C14.8988 7.82143 14.8869 7.84509 14.8698 7.86635C14.8529 7.88761 14.8318 7.90528 14.8071 7.91906C14.7823 7.93283 14.7556 7.94212 14.7266 7.94631C14.6979 7.9505 14.6692 7.9496 14.6408 7.94362C14.6125 7.93733 14.5867 7.92684 14.563 7.91127C14.5392 7.896 14.5198 7.87713 14.5046 7.85467C14.4891 7.83221 14.4792 7.80825 14.4746 7.7822C14.4696 7.75614 14.4706 7.73039 14.4776 7.70493C14.4842 7.67917 14.496 7.65582 14.5132 7.63425C14.53 7.61299 14.5511 7.59532 14.5759 7.58154C14.6006 7.56777 14.6273 7.55878 14.6563 7.55459C14.685 7.5504 14.7137 7.5513 14.7421 7.55729C14.7705 7.56328 14.7962 7.57406 14.82 7.58933C14.8437 7.6049 14.8632 7.62377 14.8783 7.64593C14.8938 7.66839 14.9037 7.69265 14.9084 7.71871Z" fill="black"/>
<path d="M31.5312 7.27058C31.5048 7.23075 31.4738 7.19901 31.4431 7.17115C31.389 7.12503 31.3303 7.09179 31.2732 7.06424C31.2158 7.03759 31.1587 7.01662 31.1 6.99925C30.9842 6.96361 30.8671 6.94654 30.7543 6.93726C30.6969 6.93307 30.6415 6.93067 30.5871 6.93067H30.505L30.4245 6.93307C30.4113 6.93307 30.3981 6.93307 30.3849 6.93457L30.3453 6.93726L30.3057 6.93966C30.3057 6.93966 30.2925 6.93966 30.2866 6.94115L30.2675 6.94385L30.1899 6.95164C30.1635 6.95553 30.1385 6.95822 30.1137 6.96242C30.0887 6.96481 30.0639 6.9702 30.0389 6.97559C30.0141 6.97949 29.9891 6.98488 29.9643 6.98997C29.9392 6.99536 29.9158 7.00075 29.8908 7.00584L29.8192 7.02441C29.7252 7.05076 29.6358 7.08131 29.551 7.11695C29.4672 7.15289 29.388 7.19361 29.3148 7.23734L29.2607 7.27058L29.2093 7.30472C29.2007 7.31011 29.1931 7.3167 29.1845 7.32209L29.1611 7.34066L29.1377 7.35773L29.0935 7.39486L29.0819 7.40415L29.0717 7.41343L29.0305 7.45027C29.0173 7.46345 29.0041 7.47542 28.9909 7.4886C28.9777 7.50058 28.9662 7.51376 28.9543 7.52574L28.9368 7.5443L28.919 7.56287L28.887 7.59971C28.8768 7.61169 28.8662 7.62486 28.856 7.63684C28.8458 7.64882 28.8372 7.6605 28.8283 7.67398C28.7564 7.77161 28.7036 7.86175 28.667 7.93722C28.6304 8.01239 28.6069 8.07319 28.5908 8.11571C28.5835 8.13667 28.5776 8.15255 28.5746 8.16333L28.5687 8.1792L28.5997 8.1196C28.6201 8.08127 28.6525 8.02437 28.6976 7.95549C28.7432 7.88691 28.8048 7.80605 28.8853 7.7216C28.8956 7.71082 28.9058 7.70033 28.9163 7.68985C28.9266 7.67907 28.9368 7.66859 28.9483 7.65811L28.9836 7.62636L29.0011 7.61049L29.0202 7.59462C29.0321 7.58384 29.0453 7.57335 29.0585 7.56287C29.0717 7.55209 29.0849 7.54161 29.0981 7.53113L29.1403 7.50058L29.1509 7.49279L29.1624 7.48471L29.1845 7.47003L29.2063 7.45566L29.2297 7.44098L29.2535 7.42661C29.2607 7.42122 29.2693 7.41733 29.2782 7.41193L29.328 7.38408L29.3795 7.35773C29.4497 7.32329 29.5259 7.29304 29.6051 7.26519C29.6856 7.23884 29.7694 7.21637 29.8588 7.19781L29.926 7.18463C29.9481 7.18044 29.9716 7.17774 29.995 7.17385C30.0184 7.16996 30.0405 7.16726 30.0639 7.16457C30.0873 7.16187 30.1108 7.15798 30.1342 7.15678L30.2061 7.15019L30.2793 7.146H30.2968C30.2968 7.146 30.3087 7.146 30.3159 7.1448H30.3908C30.4024 7.1421 30.4156 7.1436 30.4288 7.1436H30.5036L30.5798 7.14749C30.631 7.14869 30.6824 7.15408 30.7322 7.15947C30.8335 7.16996 30.9331 7.18852 31.0298 7.22027C31.0783 7.23614 31.1264 7.25321 31.1706 7.27447C31.2145 7.29574 31.2554 7.32059 31.2877 7.34725C31.3068 7.36312 31.323 7.38019 31.3332 7.39756C31.3448 7.41463 31.3524 7.4305 31.3553 7.44637C31.358 7.46225 31.358 7.47932 31.3553 7.49938C31.3524 7.51765 31.3448 7.53772 31.3332 7.55748C31.323 7.57725 31.3082 7.59701 31.292 7.61558C31.2877 7.61977 31.2834 7.62486 31.2788 7.62876L31.2732 7.63565C31.2732 7.63565 31.2673 7.64074 31.2643 7.64343L31.2306 7.67518C31.2085 7.69644 31.1851 7.71621 31.1617 7.73597L31.1442 7.75065C31.1442 7.75065 31.1323 7.75993 31.1264 7.76502L31.0914 7.79437C30.9974 7.86954 30.8995 7.93842 30.8012 7.99921L30.7646 8.02317C30.7527 8.03096 30.7395 8.03755 30.7279 8.04563C30.7029 8.06001 30.6794 8.07468 30.6531 8.08906C30.6283 8.10253 30.6033 8.11691 30.5798 8.13009L30.5066 8.16842C30.31 8.26904 30.1167 8.34841 29.9379 8.408C29.7575 8.4688 29.5919 8.51102 29.4438 8.54037C29.1492 8.59697 28.761 8.62632 28.3153 8.60776L28.2316 8.60386L28.1893 8.60117L28.1468 8.59847L28.0604 8.59308C28.031 8.59039 28.0016 8.58799 27.9723 8.58529L27.9284 8.5811H27.9063L27.8842 8.57721L27.7948 8.56792C27.7348 8.56134 27.6747 8.55355 27.6147 8.54546C27.493 8.5269 27.3713 8.50444 27.2496 8.47269C27.1882 8.45832 27.1278 8.43975 27.0678 8.41998C27.0384 8.4092 27.0078 8.39992 26.9784 8.38824L26.9566 8.38015C26.949 8.37746 26.9418 8.37476 26.9345 8.37087L26.8907 8.3523C26.7924 8.31007 26.703 8.25856 26.6222 8.19897L26.6076 8.18848C26.6076 8.18848 26.5974 8.1819 26.5931 8.17651L26.5651 8.15255L26.5506 8.14087L26.5374 8.12769L26.511 8.10253C26.5021 8.09325 26.4948 8.08516 26.4859 8.07588L26.4744 8.0627C26.4744 8.0627 26.4668 8.05342 26.4625 8.04953L26.4404 8.02167L26.42 7.99263C26.42 7.99263 26.4127 7.98334 26.4097 7.97795L26.4008 7.96358L26.3922 7.9489C26.3922 7.9489 26.3863 7.93962 26.3833 7.93453L26.3688 7.90398C26.3688 7.90398 26.3642 7.8935 26.3616 7.88811L26.3556 7.87223C26.3395 7.83121 26.3263 7.78898 26.3203 7.74675C26.3174 7.72549 26.3144 7.70423 26.3144 7.68326C26.3144 7.67787 26.3144 7.67248 26.3144 7.66739V7.63565C26.3144 7.63565 26.316 7.62486 26.316 7.61977L26.319 7.58653C26.319 7.57605 26.322 7.56527 26.3246 7.55479C26.3276 7.53352 26.3335 7.51256 26.3395 7.4913C26.3395 7.48591 26.3424 7.48082 26.3438 7.47542L26.3484 7.46105L26.3527 7.44637C26.3527 7.44637 26.354 7.44098 26.3556 7.43829L26.3586 7.4305C26.3672 7.41074 26.3748 7.39067 26.385 7.3724C26.3893 7.36312 26.3936 7.35384 26.3995 7.34455L26.4157 7.3182L26.4229 7.30472L26.4318 7.29154L26.4493 7.26639C26.4991 7.19901 26.5592 7.14091 26.6238 7.09059C26.6881 7.04028 26.7571 6.99925 26.826 6.96361C26.895 6.92798 26.9639 6.90132 27.0312 6.88545C27.0648 6.87766 27.0988 6.87108 27.1325 6.86718C27.1661 6.86299 27.1984 6.86029 27.2308 6.86029C27.2938 6.86029 27.3551 6.86718 27.4109 6.87766C27.4679 6.88815 27.5194 6.90132 27.5662 6.9172C27.6131 6.93307 27.6556 6.95044 27.6909 6.96901C27.7275 6.98727 27.7569 7.00854 27.7803 7.0283C27.8037 7.04957 27.8199 7.07083 27.8285 7.0894C27.8374 7.10916 27.8403 7.12503 27.8403 7.13552V7.15289L27.8433 7.13552C27.8433 7.12503 27.8433 7.10647 27.8374 7.0852C27.8301 7.06424 27.8169 7.03908 27.7948 7.01243C27.773 6.98727 27.745 6.96092 27.71 6.93726C27.6747 6.9121 27.6335 6.88815 27.5867 6.86568C27.5398 6.84322 27.4871 6.82196 27.4283 6.80369C27.3993 6.79441 27.3683 6.78632 27.336 6.77854C27.304 6.77195 27.2703 6.76506 27.2334 6.76266C27.1984 6.75997 27.1618 6.75727 27.1235 6.75847C27.0856 6.75847 27.0473 6.76266 27.0078 6.76776C26.9682 6.77315 26.9286 6.78243 26.8877 6.79291C26.8481 6.80489 26.8069 6.81807 26.7673 6.83394C26.6881 6.86568 26.6076 6.90671 26.5285 6.95822C26.4889 6.98338 26.451 7.01243 26.4127 7.04567C26.4025 7.05346 26.3936 7.06154 26.385 7.07083L26.3569 7.09718C26.3484 7.10647 26.3395 7.11575 26.3306 7.12503L26.3174 7.13941C26.3174 7.13941 26.3088 7.14869 26.3042 7.15408L26.2794 7.18463L26.2676 7.2005L26.256 7.21637L26.2339 7.24932C26.2267 7.2598 26.2207 7.27178 26.2135 7.28376C26.1986 7.30622 26.1884 7.33137 26.1752 7.35653L26.1709 7.36582C26.1709 7.36582 26.1679 7.3724 26.1666 7.3748L26.159 7.39486L26.1518 7.41463C26.1518 7.41463 26.1458 7.42781 26.1445 7.4344C26.1356 7.46105 26.127 7.4874 26.1211 7.51526C26.1181 7.52843 26.1138 7.54281 26.1122 7.55628L26.1063 7.59851C26.1063 7.6051 26.1033 7.61289 26.1033 7.61977V7.64223L26.1006 7.6647C26.1006 7.67248 26.1006 7.67907 26.1006 7.68716C26.1006 7.7174 26.102 7.74675 26.1049 7.777C26.1109 7.8366 26.127 7.89619 26.1475 7.95309L26.1561 7.97406C26.159 7.98065 26.162 7.98873 26.165 7.99532L26.1841 8.03635C26.1871 8.04294 26.1914 8.04953 26.1943 8.05611L26.2062 8.07588L26.2177 8.09595C26.2177 8.09595 26.2267 8.10912 26.2296 8.11571C26.2382 8.12889 26.2455 8.14087 26.2544 8.15404L26.2824 8.19118C26.2824 8.19118 26.291 8.20286 26.2969 8.20945L26.3114 8.22682C26.322 8.2388 26.3322 8.25048 26.3424 8.26126L26.3748 8.293L26.3906 8.30888L26.4084 8.32325L26.4434 8.3538C26.4434 8.3538 26.4552 8.36308 26.4612 8.36817L26.4787 8.38285C26.5753 8.45682 26.6825 8.51761 26.7937 8.56673L26.8435 8.58799C26.8524 8.59188 26.8597 8.59458 26.8686 8.59697L26.8936 8.60626C26.9273 8.61973 26.9609 8.63022 26.9933 8.6407C27.0605 8.66196 27.1265 8.67903 27.1938 8.69371C27.3274 8.72395 27.4593 8.74132 27.5883 8.7533C27.6526 8.75839 27.7156 8.76378 27.7787 8.76498L27.871 8.76917H27.9634C27.9944 8.77157 28.0234 8.77157 28.0544 8.77157H28.1877L28.2316 8.76917L28.3183 8.76648C28.5469 8.7572 28.758 8.73473 28.95 8.70808C29.142 8.68173 29.3135 8.64998 29.4629 8.62213C29.6123 8.59308 29.7839 8.55864 29.9716 8.51102C30.1593 8.46341 30.3644 8.39992 30.5769 8.31277L30.6573 8.27833C30.6837 8.26635 30.7118 8.25467 30.7382 8.24119C30.7659 8.22951 30.7923 8.21484 30.8187 8.20166C30.8318 8.19507 30.8467 8.18848 30.8599 8.1819L30.9008 8.16063C31.0093 8.10253 31.1178 8.03755 31.2247 7.96208L31.2643 7.93303C31.2643 7.93303 31.2775 7.92374 31.2847 7.91865L31.3039 7.90278C31.3303 7.88272 31.3567 7.86175 31.3817 7.84049L31.4197 7.80755C31.4197 7.80755 31.4256 7.80216 31.4299 7.79946L31.4418 7.78898C31.449 7.78239 31.4563 7.7743 31.4635 7.76772C31.4916 7.73867 31.5163 7.70572 31.5384 7.66859C31.5605 7.63145 31.578 7.59042 31.5869 7.5443C31.5971 7.49789 31.5984 7.44907 31.5899 7.39996C31.581 7.35114 31.5605 7.30472 31.5341 7.26639L31.5312 7.27058Z" fill="black"/>
<path d="M31.9012 6.61419C31.9144 6.58245 31.9229 6.5495 31.9275 6.51357C31.9302 6.4965 31.9302 6.47793 31.9302 6.45936C31.9302 6.44079 31.9275 6.42252 31.9246 6.40515C31.9114 6.33118 31.8748 6.25961 31.8203 6.20031C31.7662 6.14071 31.693 6.09579 31.6168 6.07183C31.539 6.04668 31.4585 6.04159 31.3879 6.05057C31.3176 6.05986 31.2414 6.08651 31.1755 6.12993C31.1095 6.17366 31.0537 6.23595 31.0214 6.30603C30.9878 6.37611 30.9762 6.45547 30.9878 6.52944C30.9907 6.54801 30.995 6.56657 30.9996 6.58364C31.0056 6.60101 31.0112 6.61808 31.0188 6.63545C31.0333 6.6684 31.0537 6.69894 31.0758 6.7253C31.0979 6.75165 31.1227 6.77561 31.1491 6.79418C31.1755 6.81394 31.2032 6.82982 31.2296 6.8418C31.284 6.86695 31.3381 6.87743 31.3823 6.88133C31.4262 6.88522 31.4611 6.88133 31.4849 6.87863L31.5007 6.87594L31.5126 6.87354H31.4849C31.4611 6.87085 31.4275 6.86815 31.3866 6.85767C31.347 6.84689 31.3015 6.82982 31.2576 6.79927C31.215 6.77022 31.1741 6.73069 31.1461 6.68307C31.1316 6.65911 31.1214 6.63276 31.1138 6.60611C31.1095 6.59293 31.1082 6.57855 31.1052 6.56538C31.1036 6.5507 31.1022 6.53752 31.1022 6.52285C31.1022 6.46745 31.1197 6.41174 31.1491 6.36413C31.1784 6.31651 31.221 6.27818 31.2678 6.25182C31.3147 6.22517 31.3645 6.21079 31.4113 6.2042C31.4585 6.19762 31.5113 6.19881 31.564 6.21199C31.6168 6.22517 31.6693 6.25182 31.7135 6.28866C31.7573 6.32579 31.791 6.37491 31.8088 6.42762C31.8131 6.44079 31.8174 6.45427 31.8203 6.46864C31.8233 6.48182 31.8246 6.4965 31.8263 6.50967C31.8276 6.53752 31.8263 6.56538 31.8203 6.59173C31.8088 6.64474 31.7837 6.69355 31.7514 6.73308C31.7194 6.77292 31.6811 6.80196 31.6458 6.82173C31.6109 6.84299 31.5786 6.85348 31.5565 6.86156L31.5419 6.86545L31.5301 6.86815L31.5215 6.87085H31.5419L31.5581 6.86815C31.5815 6.86545 31.6165 6.85887 31.6577 6.84419C31.6986 6.82982 31.7458 6.80466 31.791 6.76752C31.8131 6.74896 31.8352 6.7265 31.854 6.70134C31.8731 6.67648 31.8893 6.64713 31.9025 6.61539L31.9012 6.61419Z" fill="black"/>
<path d="M61.082 7.69613C56.4108 7.69613 52.7745 7.69074 52.279 7.67486C52.1807 7.67217 52.0824 7.66708 51.9844 7.66169C51.7057 7.64582 51.4286 7.62066 51.1545 7.57843C51.08 7.56645 51.0051 7.55178 50.9305 7.54399C50.8995 7.5401 50.8689 7.5374 50.8382 7.53201C50.8454 7.60359 50.8497 7.67606 50.8497 7.75033C50.8497 7.83479 50.8454 7.91834 50.8352 8.0004C50.9025 7.98692 50.9744 7.97914 51.0387 7.96985C51.1664 7.95009 51.2954 7.93002 51.4243 7.91565C51.7074 7.8824 51.99 7.86653 52.2744 7.85874C52.7698 7.84287 56.4108 7.83748 61.0866 7.83748C61.0807 7.80993 61.0777 7.78058 61.0777 7.75033C61.0777 7.73177 61.0777 7.7132 61.0807 7.69613H61.082Z" fill="black"/>
<path d="M74.7807 7.75554C74.7735 7.69624 74.7194 7.63934 74.6198 7.59442C74.6006 7.58513 74.5785 7.57705 74.5568 7.57046C74.5594 7.55848 74.5624 7.548 74.5624 7.53602C74.5624 7.4857 74.5287 7.43569 74.4627 7.39197C74.407 7.50847 74.2708 7.61149 74.0801 7.68815C74.0009 7.68815 73.9205 7.68815 73.84 7.68815C73.8149 7.6618 73.7783 7.64593 73.7357 7.64593C73.6932 7.64593 73.6566 7.663 73.6318 7.68815C69.8853 7.69205 65.73 7.69474 62.0847 7.69624C62.0877 7.71331 62.0877 7.73188 62.0877 7.75044C62.0877 7.77949 62.0847 7.80854 62.0788 7.83759C65.7241 7.83759 69.8793 7.84179 73.6259 7.84568C73.6506 7.87473 73.6902 7.89449 73.7344 7.89449C73.7783 7.89449 73.8179 7.87593 73.8429 7.84568C73.9175 7.84568 73.9907 7.84568 74.0656 7.84568C74.2619 7.92235 74.4027 8.02806 74.4598 8.14725C74.5274 8.10473 74.5594 8.05322 74.5594 8.00291C74.5594 7.99123 74.5581 7.98044 74.5538 7.96876C74.5756 7.96188 74.5963 7.95289 74.6168 7.94481C74.7164 7.89988 74.7705 7.84179 74.7781 7.78339C74.7781 7.78339 74.7781 7.7741 74.7751 7.77021C74.7751 7.76632 74.7764 7.76242 74.7781 7.75703L74.7807 7.75554Z" fill="black"/>
<path d="M61.8035 7.75004C61.8035 7.77639 61.7979 7.80155 61.7867 7.82581C61.7755 7.85036 61.7597 7.87163 61.7389 7.89019C61.7184 7.90876 61.6947 7.92314 61.6676 7.93332C61.6406 7.9432 61.6125 7.94829 61.5835 7.94829C61.5545 7.94829 61.5265 7.9432 61.4994 7.93332C61.4724 7.92314 61.4486 7.90876 61.4282 7.89019C61.4074 7.87163 61.3915 7.85036 61.3803 7.82581C61.3691 7.80155 61.3638 7.77639 61.3638 7.75004C61.3638 7.72368 61.3691 7.69823 61.3803 7.67397C61.3915 7.64971 61.4074 7.62815 61.4282 7.60958C61.4486 7.59101 61.4724 7.57664 61.4994 7.56676C61.5265 7.55657 61.5545 7.55148 61.5835 7.55148C61.6125 7.55148 61.6406 7.55657 61.6676 7.56676C61.6947 7.57664 61.7184 7.59101 61.7389 7.60958C61.7597 7.62815 61.7755 7.64971 61.7867 7.67397C61.7979 7.69823 61.8035 7.72368 61.8035 7.75004Z" fill="black"/>
<path d="M50.17 7.64445V7.62199C50.1687 7.6142 50.1674 7.60761 50.1657 7.60103L50.1598 7.5585C50.1568 7.54412 50.1542 7.53095 50.1512 7.51747C50.1453 7.48992 50.1364 7.46326 50.1278 7.43691C50.1261 7.43032 50.1232 7.42373 50.1202 7.41715L50.1129 7.39738L50.1057 7.37731C50.1057 7.37731 50.1027 7.37073 50.1014 7.36803L50.0968 7.35905C50.0852 7.33389 50.0734 7.30993 50.0588 7.28627C50.0516 7.27429 50.0456 7.26231 50.0384 7.25183L50.0163 7.21859L50.0044 7.20272L49.9929 7.18685L49.9678 7.1566C49.9678 7.1566 49.9592 7.14731 49.9546 7.14192L49.9414 7.12755C49.9328 7.11827 49.9239 7.10898 49.915 7.0997L49.8873 7.07334C49.8784 7.06526 49.8698 7.05597 49.8593 7.04819C49.8213 7.01644 49.7831 6.98709 49.7435 6.96074C49.6643 6.90923 49.5838 6.8694 49.5047 6.83646C49.4651 6.82058 49.4242 6.80591 49.3846 6.79543C49.345 6.78345 49.3038 6.77566 49.2642 6.77027C49.2246 6.76488 49.1867 6.76099 49.1484 6.76099C49.1105 6.76099 49.0739 6.76099 49.0386 6.76488C49.0033 6.76907 48.9683 6.77416 48.936 6.78075C48.9037 6.78764 48.873 6.79662 48.8436 6.80591C48.7849 6.82448 48.7321 6.84574 48.6853 6.8682C48.6385 6.89066 48.5976 6.91462 48.5623 6.93948C48.527 6.96463 48.4976 6.98979 48.4772 7.01494C48.4554 7.0401 48.4422 7.06526 48.4346 7.08772C48.4273 7.11018 48.429 7.12755 48.429 7.13803L48.4316 7.1551V7.13803C48.4316 7.12755 48.4346 7.11018 48.4435 7.09161C48.4524 7.07334 48.4686 7.05208 48.492 7.03082C48.5154 7.00985 48.5448 6.98979 48.5814 6.97122C48.618 6.95295 48.6589 6.93438 48.7057 6.91971C48.7529 6.90384 48.8057 6.89066 48.8611 6.88018C48.9185 6.8694 48.9785 6.86161 49.0415 6.86281C49.0739 6.86281 49.1059 6.8655 49.1398 6.8694C49.1735 6.87359 49.2071 6.88018 49.2408 6.88797C49.3084 6.90534 49.377 6.93169 49.446 6.96613C49.5149 7.00177 49.5838 7.0428 49.6485 7.09311C49.7128 7.14342 49.7728 7.20152 49.8227 7.2689L49.8405 7.29406L49.849 7.30724L49.8566 7.32041L49.8725 7.34707C49.8784 7.35635 49.8827 7.36563 49.8873 7.37492C49.8975 7.39319 49.9048 7.41325 49.9137 7.43302L49.9167 7.4408C49.9167 7.4408 49.918 7.44619 49.9196 7.44889L49.9239 7.46326L49.9282 7.47794C49.9282 7.47794 49.9312 7.48842 49.9328 7.49381C49.9371 7.51507 49.9444 7.53484 49.9473 7.5573C49.9487 7.56778 49.9516 7.57856 49.9533 7.58905L49.9562 7.62199C49.9562 7.62199 49.9562 7.63277 49.9562 7.63786V7.66961C49.9562 7.66961 49.9562 7.68039 49.9562 7.68548C49.9562 7.70674 49.9533 7.728 49.9503 7.74897C49.9444 7.79149 49.9312 7.83372 49.915 7.87475L49.9091 7.89062C49.9091 7.89062 49.9048 7.9011 49.9018 7.90649L49.8873 7.93704C49.8873 7.93704 49.8814 7.94603 49.8784 7.95142L49.8695 7.96609L49.8609 7.98047C49.8609 7.98047 49.855 7.98975 49.8507 7.99514L49.8302 8.02419L49.8081 8.05204C49.8081 8.05204 49.8009 8.06132 49.7963 8.06522L49.7847 8.0784C49.7758 8.08768 49.7686 8.09577 49.7597 8.10475L49.7333 8.12991L49.7201 8.14338L49.7056 8.15506L49.6775 8.17902C49.6775 8.17902 49.6673 8.18681 49.663 8.191L49.6485 8.20148C49.5677 8.26108 49.477 8.31259 49.38 8.35481L49.3361 8.37338C49.3361 8.37338 49.3216 8.37997 49.314 8.38267L49.2922 8.39045C49.2629 8.40243 49.2322 8.41172 49.2028 8.4222C49.1428 8.44226 49.0824 8.46083 49.0211 8.47521C48.8994 8.50695 48.7763 8.52941 48.6559 8.54798C48.5959 8.55726 48.5359 8.56505 48.4758 8.57044L48.3864 8.57972L48.3643 8.58242H48.3422L48.2984 8.58781C48.269 8.59021 48.2397 8.5929 48.2103 8.5956L48.1239 8.60099L48.0813 8.60368L48.0391 8.60608L47.9553 8.61027C47.5097 8.62854 47.1198 8.59829 46.8269 8.54259C46.6801 8.51504 46.5132 8.47131 46.3327 8.41052C46.1526 8.34972 45.9606 8.27156 45.764 8.17093L45.6908 8.1326C45.6661 8.11942 45.641 8.10475 45.6176 8.09157C45.5925 8.0784 45.5678 8.06252 45.5427 8.04815C45.5312 8.04006 45.518 8.03347 45.5061 8.02539L45.4695 8.00173C45.3712 7.93944 45.2732 7.87205 45.1792 7.79659L45.1442 7.76754C45.1442 7.76754 45.1324 7.75825 45.1264 7.75316L45.1089 7.73849C45.0855 7.71872 45.0621 7.69896 45.04 7.67769L45.0064 7.64595C45.0064 7.64595 45.0004 7.64056 44.9974 7.63786L44.9918 7.63127C44.9918 7.63127 44.9829 7.62199 44.9786 7.6181C44.9625 7.59953 44.9493 7.57976 44.9374 7.56C44.9272 7.54023 44.9183 7.52017 44.9153 7.5016C44.9127 7.48333 44.9127 7.46596 44.9153 7.44889C44.9199 7.43302 44.9259 7.41565 44.9374 7.39978C44.9493 7.38271 44.9638 7.36563 44.9829 7.34976C45.0153 7.32191 45.0562 7.29795 45.1 7.27699C45.1442 7.25573 45.1924 7.23716 45.2409 7.22278C45.3375 7.19224 45.4372 7.17367 45.5384 7.16169C45.5895 7.1566 45.6397 7.15271 45.6908 7.15001L45.767 7.14731H45.8419C45.8551 7.14731 45.8666 7.14582 45.8785 7.14731H45.9531C45.9531 7.14731 45.9649 7.14851 45.9722 7.15001H45.99L46.0632 7.1551L46.1348 7.16169C46.1586 7.16319 46.182 7.16708 46.2054 7.16978C46.2288 7.17247 46.2522 7.17517 46.2743 7.17906C46.2978 7.18295 46.3195 7.18565 46.343 7.18954L46.4106 7.20272C46.4983 7.22129 46.5834 7.24375 46.6642 7.2704C46.7447 7.29795 46.8196 7.3285 46.8899 7.36294L46.941 7.38929L46.9908 7.41715C46.9997 7.42104 47.007 7.42643 47.0159 7.43152L47.0627 7.46087L47.0848 7.47524L47.1069 7.48992L47.1185 7.49771L47.1287 7.50579L47.1712 7.53604C47.1844 7.54682 47.1976 7.5573 47.2108 7.56778C47.224 7.57856 47.2372 7.58905 47.2491 7.59953L47.2679 7.6154L47.2768 7.62349L47.2857 7.63127L47.3207 7.66302C47.3325 7.6738 47.3428 7.68428 47.353 7.69476C47.3632 7.70554 47.3734 7.71603 47.3837 7.72651C47.4628 7.81126 47.5245 7.89182 47.5714 7.9607C47.6169 8.02958 47.6492 8.08648 47.6697 8.12481L47.7003 8.18411L47.6944 8.16824C47.6914 8.15776 47.6858 8.14188 47.6782 8.12062C47.6637 8.07989 47.6403 8.0188 47.602 7.94213C47.5654 7.86666 47.5126 7.77682 47.4411 7.67889C47.4322 7.66721 47.4219 7.65523 47.413 7.64205C47.4028 7.63007 47.3939 7.6169 47.3823 7.60492L47.35 7.56778L47.3411 7.5585L47.3325 7.54922L47.3147 7.53095C47.3032 7.51747 47.2913 7.50579 47.2781 7.49381C47.2649 7.48183 47.2534 7.46866 47.2385 7.45548L47.1874 7.40906L47.1755 7.39978L47.1537 7.38151L47.1316 7.36294L47.1082 7.34557L47.0848 7.3273C47.0776 7.32041 47.0686 7.31532 47.0597 7.30993L47.0086 7.27549L46.9542 7.24255C46.881 7.19882 46.8034 7.15929 46.7183 7.12216C46.6332 7.08652 46.5438 7.05597 46.4502 7.02962L46.3782 7.01105C46.3548 7.00566 46.3298 7.00057 46.305 6.99518C46.2799 6.98979 46.2552 6.9847 46.2301 6.9805C46.2054 6.97661 46.1803 6.97122 46.1556 6.96733C46.1305 6.96343 46.1041 6.95954 46.0794 6.95685L46.0015 6.94876L45.9824 6.94636C45.9824 6.94636 45.9692 6.94636 45.9636 6.94487L45.8844 6.93948C45.8712 6.93948 45.8581 6.93948 45.8449 6.93828L45.764 6.93558H45.6819C45.6278 6.93558 45.5721 6.93828 45.515 6.94367C45.4022 6.95295 45.2848 6.97122 45.169 7.00566C45.1119 7.02303 45.0548 7.04399 44.9961 7.07065C44.9391 7.0982 44.8803 7.13144 44.8259 7.17756C44.7939 7.20541 44.7629 7.23866 44.7382 7.27699C44.7118 7.31532 44.6927 7.36144 44.6824 7.41056C44.6735 7.45937 44.6752 7.50968 44.6854 7.55461C44.6956 7.60103 44.7131 7.64205 44.7336 7.67889C44.7557 7.71603 44.7807 7.74897 44.8084 7.77832C44.8157 7.78491 44.8233 7.79269 44.8305 7.79928L44.8421 7.81006C44.8421 7.81006 44.848 7.81515 44.8523 7.81785L44.8906 7.85079C44.9153 7.87355 44.9417 7.89332 44.9681 7.91308L44.9872 7.92896C44.9872 7.92896 45.0004 7.93824 45.0077 7.94363L45.0473 7.97268C45.1545 8.04815 45.263 8.11403 45.3712 8.17093L45.4124 8.1922C45.4256 8.19879 45.4401 8.20537 45.4533 8.21196C45.4814 8.22514 45.5077 8.23981 45.5341 8.25179C45.5605 8.26347 45.5882 8.27695 45.6146 8.28863L45.6951 8.32307C45.9079 8.41052 46.113 8.47401 46.3007 8.52162C46.4881 8.57044 46.6596 8.60488 46.809 8.63273C46.9588 8.66178 47.1303 8.69203 47.3223 8.71868C47.5143 8.74504 47.7254 8.7675 47.954 8.77678L48.0404 8.77948H48.1285L48.2179 8.78217C48.2472 8.78217 48.2779 8.78217 48.3086 8.78217H48.401L48.4933 8.77678C48.5563 8.77409 48.6193 8.77019 48.684 8.7648C48.813 8.75312 48.9449 8.73455 49.0782 8.7055C49.1441 8.69083 49.2114 8.67226 49.279 8.6525C49.3127 8.64201 49.3463 8.63123 49.3787 8.61806L49.4034 8.60877C49.4123 8.60608 49.4196 8.60218 49.4285 8.59949L49.4783 8.57853C49.5898 8.52941 49.6966 8.46862 49.7933 8.39465L49.8111 8.37997C49.8111 8.37997 49.8227 8.37069 49.8286 8.3656L49.8639 8.33505L49.8814 8.32037L49.9299 8.27276C49.9401 8.26108 49.9503 8.2503 49.9605 8.23862L49.9751 8.22125C49.9751 8.22125 49.984 8.20927 49.9899 8.20268L50.0176 8.16584C50.0265 8.15237 50.0354 8.14069 50.0427 8.12751C50.047 8.12062 50.0516 8.11403 50.0542 8.10744L50.0661 8.08768L50.0776 8.06791C50.0823 8.06132 50.0852 8.05474 50.0882 8.04815L50.107 8.00712C50.11 8.00053 50.1129 7.99244 50.1159 7.98586L50.1248 7.96459C50.1453 7.90769 50.1598 7.8484 50.1674 7.7888C50.17 7.75825 50.173 7.7292 50.1716 7.69896C50.1716 7.69087 50.1716 7.68428 50.1716 7.67619V7.65373L50.17 7.64445Z" fill="black"/>
<path d="M44.7349 6.86935H44.7464L44.7349 6.86545L44.72 6.86156C44.6982 6.85497 44.6659 6.84299 44.6306 6.82173C44.5957 6.80196 44.5574 6.77292 44.5254 6.73308C44.4931 6.69475 44.468 6.64594 44.4565 6.59173C44.4505 6.56538 44.4476 6.53752 44.4505 6.50967C44.4505 6.495 44.4535 6.48182 44.4565 6.46864C44.4594 6.45547 44.4621 6.44079 44.468 6.42762C44.4858 6.37341 44.5208 6.32579 44.5633 6.28866C44.6072 6.25182 44.66 6.22517 44.7128 6.21199C44.7655 6.19881 44.8183 6.19762 44.8652 6.2042C44.9123 6.21079 44.9621 6.22517 45.009 6.25182C45.0558 6.27818 45.0967 6.31651 45.1277 6.36413C45.1571 6.41174 45.1746 6.46595 45.1746 6.52285C45.1746 6.53752 45.1746 6.5507 45.1716 6.56538C45.1703 6.57855 45.1673 6.59293 45.1627 6.60611C45.1554 6.63276 45.1439 6.65911 45.1307 6.68307C45.1027 6.73189 45.0618 6.77172 45.0192 6.79927C44.9766 6.82832 44.9298 6.84689 44.8902 6.85767C44.8506 6.86815 44.8153 6.87085 44.7919 6.87204H44.7642L44.7758 6.87594L44.7919 6.87863C44.8153 6.88133 44.8506 6.88522 44.8945 6.88133C44.9387 6.87743 44.9915 6.86695 45.0469 6.8418C45.0749 6.82982 45.1013 6.81394 45.1277 6.79418C45.1541 6.77411 45.1789 6.75165 45.201 6.7253C45.2231 6.69894 45.2435 6.6684 45.258 6.63545C45.2653 6.61958 45.2712 6.60221 45.2772 6.58364C45.2814 6.56657 45.2861 6.54801 45.289 6.52944C45.3006 6.45547 45.289 6.3773 45.2551 6.30603C45.2214 6.23595 45.1673 6.17366 45.1013 6.12993C45.0354 6.08651 44.9592 6.05986 44.8886 6.05057C44.8183 6.04159 44.7378 6.04668 44.66 6.07183C44.5825 6.09699 44.5106 6.14191 44.4565 6.20031C44.402 6.25961 44.3654 6.33118 44.3522 6.40515C44.3493 6.42372 44.3479 6.44229 44.3463 6.45936C44.3463 6.47793 44.3463 6.495 44.3493 6.51357C44.3539 6.5495 44.3624 6.58245 44.3756 6.61419C44.3888 6.64594 44.405 6.67379 44.4241 6.70014C44.4433 6.7253 44.465 6.74776 44.4871 6.76633C44.531 6.80466 44.5795 6.82832 44.6204 6.84299C44.6616 6.85767 44.6966 6.86426 44.72 6.86695H44.7362L44.7349 6.86935Z" fill="black"/>
<path d="M37.8941 6.96972C37.935 6.88916 37.972 6.80441 37.9984 6.71456C38.0247 6.62442 38.0435 6.53188 38.0525 6.43664C38.0614 6.34141 38.0597 6.24348 38.0495 6.14555C38.0274 5.94999 37.9674 5.75413 37.8677 5.57295C37.7975 5.44327 37.711 5.32288 37.6141 5.21447C37.5659 5.16026 37.5131 5.10875 37.4587 5.06114C37.431 5.03718 37.4046 5.01352 37.3753 4.99106C37.3607 4.97908 37.3475 4.9686 37.3327 4.95782L37.3109 4.94194L37.2872 4.92487C37.2242 4.88115 37.1599 4.84431 37.0922 4.81107C37.0249 4.77933 36.9576 4.75148 36.8887 4.72901C36.8198 4.70655 36.7495 4.68799 36.6789 4.67481C36.6087 4.66163 36.5384 4.65235 36.4681 4.64696H36.4417C36.4328 4.64576 36.4239 4.64456 36.4154 4.64456H36.3098C36.292 4.64576 36.2745 4.64845 36.257 4.64965C36.1864 4.65624 36.1178 4.66822 36.0518 4.68559C35.9183 4.72123 35.7952 4.78592 35.6999 4.86917C35.653 4.9117 35.6121 4.95782 35.5782 5.00424C35.5709 5.01622 35.5637 5.0279 35.5547 5.03987L35.5432 5.05724C35.5432 5.05724 35.5356 5.06892 35.533 5.07551L35.5138 5.11145C35.5079 5.12313 35.502 5.13511 35.496 5.14709C35.4508 5.24352 35.4274 5.34415 35.4215 5.43938C35.4215 5.44597 35.4215 5.45136 35.4215 5.45645V5.50946L35.4245 5.5439C35.4245 5.55588 35.4258 5.56636 35.4287 5.57834C35.433 5.6008 35.4347 5.62326 35.4419 5.64452L35.4492 5.67627C35.4522 5.68675 35.4568 5.69723 35.4594 5.70651L35.464 5.72239L35.467 5.73047C35.467 5.73047 35.4683 5.73556 35.47 5.73826L35.4815 5.76731L35.4875 5.78198C35.4875 5.78198 35.4917 5.79127 35.4947 5.79636L35.5092 5.82421C35.5092 5.82421 35.5138 5.83349 35.5168 5.83739L35.5241 5.85086L35.5402 5.87572C35.5402 5.87572 35.5445 5.88381 35.5475 5.8877L35.5564 5.89968C35.562 5.90747 35.5679 5.91555 35.5752 5.92334C35.6267 5.98443 35.6867 6.02935 35.7497 6.0611C35.8114 6.09284 35.8744 6.10872 35.9314 6.11381C35.9608 6.1165 35.9872 6.1165 36.0123 6.11381C36.0179 6.11381 36.0238 6.11261 36.0311 6.11141H36.04L36.0489 6.10872C36.0489 6.10872 36.0604 6.10602 36.065 6.10602L36.0809 6.10213C36.1221 6.09135 36.1544 6.07547 36.1792 6.0623C36.2042 6.04792 36.2204 6.03594 36.232 6.02786L36.2481 6.01468L36.229 6.02546C36.2174 6.03205 36.1983 6.04133 36.1719 6.05032C36.1468 6.0596 36.1132 6.06888 36.0736 6.07428H36.0591C36.0591 6.07428 36.0489 6.07547 36.0429 6.07697H36.0268C36.0268 6.07697 36.0166 6.07697 36.0106 6.07697C35.9888 6.07697 35.9651 6.07308 35.9404 6.06619C35.8919 6.05571 35.8407 6.03325 35.7939 6.0003C35.7467 5.96706 35.7015 5.92334 35.6692 5.86913C35.6649 5.86254 35.6603 5.85595 35.6573 5.84817L35.6517 5.83739C35.6517 5.83739 35.6488 5.8296 35.6458 5.82571L35.6356 5.80325L35.6296 5.79127C35.6296 5.79127 35.6267 5.78318 35.6253 5.77929L35.6164 5.75563C35.6164 5.75563 35.6135 5.74754 35.6121 5.74365L35.6092 5.73047L35.6016 5.70532C35.6016 5.70532 35.6016 5.70112 35.6003 5.69873V5.69214L35.5973 5.67866L35.593 5.65231L35.59 5.62595C35.5871 5.60739 35.5884 5.58882 35.5871 5.57025C35.5871 5.56097 35.5871 5.55168 35.5871 5.5424V5.51485L35.593 5.487V5.47232C35.593 5.47232 35.596 5.46304 35.5973 5.45795C35.6121 5.38128 35.6399 5.30312 35.6854 5.23034C35.691 5.22106 35.6969 5.21178 35.7029 5.20249L35.722 5.17614C35.722 5.17614 35.7279 5.16685 35.7322 5.16296L35.7424 5.14978L35.7629 5.12313C35.7922 5.09019 35.8246 5.06114 35.8595 5.03478C35.8965 5.00813 35.9361 4.98567 35.9799 4.9686L35.9961 4.96201L36.0047 4.95782C36.0047 4.95782 36.0106 4.95662 36.0136 4.95542C36.0255 4.95123 36.037 4.94734 36.0472 4.94344L36.0825 4.93416C36.0941 4.93146 36.1073 4.92877 36.1191 4.92607C36.1689 4.91679 36.2204 4.9117 36.2732 4.9102C36.2864 4.9102 36.2996 4.9102 36.3128 4.9102H36.3537L36.3946 4.91439C36.3946 4.91439 36.4078 4.91439 36.4154 4.91679L36.4358 4.91948C36.5456 4.93266 36.6601 4.96051 36.7683 5.00304C36.8768 5.04526 36.9824 5.09947 37.0734 5.16835L37.0896 5.18153L37.1071 5.1959C37.1186 5.20519 37.1305 5.21447 37.1424 5.22525C37.1658 5.24502 37.1876 5.26478 37.211 5.28605C37.2552 5.32707 37.2977 5.372 37.3386 5.41812C37.4191 5.51066 37.4897 5.61128 37.5481 5.71849C37.6302 5.86913 37.683 6.02935 37.7081 6.18808C37.7196 6.26744 37.7256 6.3468 37.7226 6.42467C37.7196 6.50283 37.711 6.58099 37.6932 6.65616C37.6612 6.8071 37.5996 6.94995 37.5234 7.08082C37.4455 7.2117 37.3518 7.33089 37.2506 7.4378C37.1496 7.54502 37.0411 7.63905 36.9313 7.72111C36.8768 7.76214 36.8211 7.80047 36.7657 7.83611L36.7244 7.86247L36.6835 7.88762C36.6703 7.89571 36.6555 7.90349 36.6423 7.91158C36.6291 7.91937 36.6159 7.92745 36.6014 7.93524C36.5473 7.96579 36.4945 7.99483 36.4431 8.02119C36.3916 8.04784 36.3418 8.0727 36.2936 8.09546C36.197 8.14038 36.1059 8.17722 36.0255 8.20657C35.9433 8.23562 35.851 8.26586 35.7454 8.29372C35.6412 8.32157 35.5254 8.34792 35.401 8.37188C35.338 8.38356 35.2734 8.39434 35.2061 8.40362C35.1385 8.41291 35.0695 8.42189 34.9979 8.42998C34.926 8.43776 34.8528 8.44316 34.7766 8.44855C34.7004 8.45244 34.6226 8.45513 34.5434 8.45633C34.3851 8.45903 34.2195 8.45244 34.0509 8.43657C33.8824 8.42069 33.7095 8.39434 33.5367 8.35331C33.3635 8.31348 33.1906 8.25928 33.0221 8.1892C32.9386 8.15356 32.8548 8.11523 32.7743 8.0715L32.7437 8.05443C32.7331 8.04904 32.7229 8.04365 32.7143 8.03706L32.685 8.01999L32.6701 8.01071L32.6556 8.00142C32.6365 7.98944 32.616 7.97747 32.5985 7.96579C32.5794 7.95381 32.5619 7.94063 32.5441 7.92865C32.4432 7.85588 32.3521 7.77262 32.2848 7.68278C32.2512 7.63756 32.2232 7.59144 32.201 7.54502C32.1984 7.53993 32.1968 7.53304 32.1938 7.52795C32.1908 7.52256 32.1895 7.51597 32.1865 7.51058L32.1806 7.49351L32.175 7.47644L32.172 7.46715V7.45787L32.1644 7.4405L32.1618 7.42343V7.41414L32.1588 7.40486L32.1559 7.38779V7.33478C32.1559 7.31232 32.1559 7.28836 32.1618 7.2659C32.1661 7.24344 32.172 7.22098 32.1806 7.19852C32.1895 7.17606 32.1984 7.1548 32.21 7.13383C32.2538 7.04908 32.3257 6.97631 32.4108 6.91821C32.4959 6.85981 32.5956 6.81638 32.6965 6.78734C32.7978 6.75679 32.9017 6.74211 33.0029 6.73972C33.1042 6.73702 33.2022 6.7475 33.2932 6.76877C33.3839 6.78973 33.4661 6.82417 33.535 6.86789C33.6039 6.91162 33.661 6.96582 33.7036 7.02392C33.7461 7.08202 33.7725 7.14431 33.7841 7.20511C33.79 7.23566 33.7916 7.2647 33.79 7.29375C33.79 7.30843 33.787 7.3228 33.7841 7.33598C33.7814 7.34946 33.7784 7.36263 33.7738 7.37581C33.7577 7.42882 33.7313 7.47494 33.7036 7.51327C33.6759 7.55161 33.6449 7.58215 33.6142 7.60461C33.598 7.6151 33.5835 7.62438 33.5687 7.63247C33.5541 7.63905 33.5393 7.64414 33.5261 7.64834C33.4997 7.65612 33.4793 7.65762 33.4647 7.65882C33.4575 7.65882 33.4516 7.65882 33.4486 7.65882C33.4486 7.65882 33.4575 7.66151 33.4647 7.66271H33.4763C33.4763 7.66271 33.4865 7.66421 33.4911 7.66421C33.4971 7.66421 33.5027 7.66421 33.5086 7.66421C33.5146 7.66421 33.5218 7.66421 33.5291 7.66271C33.5439 7.66002 33.5601 7.65762 33.5776 7.65223C33.595 7.64684 33.6129 7.64025 33.6317 7.62977C33.6699 7.6112 33.7095 7.58215 33.7474 7.54502C33.7857 7.50668 33.8223 7.46056 33.8517 7.40217C33.8589 7.38779 33.8662 7.37192 33.8708 7.35605C33.8764 7.34017 33.881 7.3228 33.8853 7.30573C33.8926 7.27129 33.8972 7.23416 33.8955 7.19582C33.8913 7.04249 33.8078 6.87179 33.6465 6.74211C33.5657 6.67862 33.4677 6.62592 33.3592 6.58878C33.2507 6.55164 33.1319 6.52799 33.0089 6.5214C32.8842 6.51481 32.7552 6.52409 32.6249 6.55164C32.4943 6.5795 32.364 6.62592 32.2406 6.69869C32.2261 6.70797 32.21 6.71696 32.1954 6.72774L32.1733 6.74211L32.1512 6.75799L32.141 6.76607L32.1308 6.77386L32.109 6.79123C32.109 6.79123 32.0958 6.80321 32.0882 6.8098C32.081 6.81638 32.075 6.82148 32.0678 6.82806C32.015 6.87838 31.9652 6.93678 31.9273 7.00026C31.9065 7.03201 31.8903 7.06615 31.8758 7.10059C31.8613 7.13503 31.8494 7.17067 31.8405 7.2078C31.8303 7.24494 31.826 7.28327 31.823 7.32161V7.43661L31.826 7.45128V7.46566L31.8319 7.4947L31.8375 7.52256L31.8405 7.53723L31.8451 7.55161C31.8481 7.56089 31.8494 7.57017 31.8524 7.57946L31.8613 7.60731C31.8639 7.61659 31.8669 7.62588 31.8715 7.63516C31.8745 7.64414 31.8788 7.65343 31.8817 7.66151C31.9124 7.73159 31.9507 7.79898 31.9959 7.86127C32.0869 7.98555 32.1997 8.09127 32.3257 8.18261C32.3478 8.19848 32.3713 8.21435 32.3947 8.22903C32.4181 8.2449 32.4402 8.25808 32.4636 8.27125L32.4811 8.28174L32.4989 8.29102L32.5339 8.31079C32.5458 8.31767 32.5573 8.32426 32.5692 8.32935L32.6041 8.34792C32.6982 8.39704 32.7935 8.43776 32.8901 8.4749C33.0834 8.54767 33.2813 8.59799 33.475 8.63093C33.6683 8.66267 33.8589 8.67735 34.0407 8.68004C34.2224 8.68274 34.3983 8.67196 34.5625 8.65339C34.6447 8.64411 34.7251 8.63362 34.803 8.62045C34.8805 8.60727 34.9554 8.59409 35.0286 8.57942C35.1018 8.56474 35.1721 8.54767 35.2397 8.5318C35.307 8.51473 35.3717 8.49736 35.4347 8.48029C35.5594 8.44465 35.6735 8.40872 35.7777 8.37308C35.8816 8.33744 35.974 8.3042 36.0575 8.27395C36.1396 8.2434 36.2336 8.21046 36.3345 8.17063C36.386 8.15086 36.4388 8.1296 36.4929 8.10714C36.547 8.08468 36.6044 8.05952 36.6631 8.03317C36.8976 7.92865 37.1612 7.7858 37.4089 7.57676C37.5323 7.47224 37.6507 7.35066 37.7549 7.209C37.806 7.13892 37.8545 7.06226 37.8958 6.9817L37.8941 6.96972Z" fill="black"/>
<path d="M44.4538 7.31124C44.4508 7.2726 44.4449 7.23427 44.436 7.19743C44.4274 7.1603 44.4142 7.12466 44.401 7.09022C44.3862 7.05578 44.3687 7.02134 44.3496 6.9896C44.3116 6.92491 44.2618 6.86801 44.2091 6.81769C44.2031 6.81111 44.1959 6.80572 44.1883 6.79913C44.181 6.79254 44.1751 6.78745 44.1678 6.78056L44.1461 6.76349L44.1358 6.7557L44.1253 6.74762L44.1035 6.73174L44.0814 6.71707C44.0669 6.70659 44.0507 6.6988 44.0359 6.68802C43.9128 6.61525 43.7826 6.56913 43.6519 6.54127C43.5216 6.51342 43.3927 6.50414 43.268 6.51073C43.1433 6.51762 43.0262 6.54127 42.9177 6.57841C42.8091 6.61525 42.7108 6.66825 42.6303 6.73174C42.469 6.86142 42.3856 7.03212 42.3813 7.18545C42.3813 7.22379 42.3843 7.26092 42.3915 7.29536C42.3958 7.31243 42.4001 7.3295 42.406 7.34538C42.412 7.36125 42.4179 7.37712 42.4252 7.3918C42.4545 7.44989 42.4911 7.49631 42.5291 7.53465C42.5673 7.57298 42.6069 7.60083 42.6449 7.6194C42.664 7.62838 42.6818 7.63647 42.6993 7.64186C42.7168 7.64695 42.7329 7.64965 42.7478 7.65234C42.755 7.65234 42.7623 7.65354 42.7682 7.65354C42.7742 7.65354 42.7798 7.65354 42.7857 7.65354C42.7916 7.65354 42.7959 7.65354 42.8002 7.65354H42.8121C42.8121 7.65354 42.8253 7.65114 42.8283 7.64965C42.8283 7.64965 42.8194 7.64965 42.8121 7.64965C42.7976 7.64965 42.7768 7.64695 42.7504 7.63917C42.7372 7.63527 42.7227 7.62988 42.7082 7.62329C42.6933 7.6167 42.6772 7.60742 42.6627 7.59544C42.6317 7.57298 42.601 7.54243 42.5733 7.5041C42.5452 7.46577 42.5205 7.41965 42.5027 7.36664C42.4984 7.35346 42.4954 7.34029 42.4925 7.32711C42.4895 7.31363 42.4882 7.29926 42.4869 7.28458C42.4852 7.25553 42.4869 7.22648 42.4925 7.19594C42.5043 7.13514 42.5307 7.07315 42.5733 7.01475C42.6158 6.95665 42.6729 6.90245 42.7418 6.85872C42.8121 6.815 42.8942 6.78206 42.9836 6.7596C43.0743 6.73833 43.1726 6.72785 43.2739 6.73055C43.3748 6.73294 43.4791 6.74881 43.58 6.77816C43.6813 6.80721 43.7796 6.85094 43.866 6.90904C43.9511 6.96713 44.0227 7.03991 44.0669 7.12466C44.0784 7.14562 44.0873 7.16689 44.0962 7.18935C44.1035 7.21181 44.1108 7.23427 44.1151 7.25673C44.1197 7.27949 44.121 7.30315 44.1226 7.32561V7.37862L44.118 7.39569V7.40497L44.1151 7.41426L44.1121 7.43133L44.1078 7.4487V7.45798L44.1035 7.46726L44.0916 7.50141C44.0916 7.50141 44.0873 7.51338 44.0844 7.51878C44.0814 7.52417 44.0801 7.53075 44.0771 7.53585C44.055 7.58226 44.0273 7.62838 43.9933 7.67361C43.926 7.76345 43.8353 7.8467 43.7341 7.91948C43.7166 7.93266 43.6974 7.94463 43.68 7.95661C43.6622 7.96859 43.6417 7.98027 43.6226 7.99225L43.6081 8.00154L43.5932 8.01082L43.5642 8.02789C43.5536 8.03328 43.5434 8.03987 43.5348 8.04526L43.5038 8.06233C43.4233 8.10605 43.3399 8.14559 43.2561 8.18003C43.0875 8.2501 42.9147 8.30431 42.7418 8.34414C42.5687 8.38367 42.3958 8.41152 42.2273 8.4274C42.0587 8.44327 41.8931 8.44986 41.7348 8.44716C41.6556 8.44716 41.5781 8.44327 41.5019 8.43937C41.4254 8.43548 41.3521 8.42889 41.2806 8.42081C41.2086 8.41302 41.1397 8.40493 41.0724 8.39445C41.0048 8.38517 40.9405 8.37319 40.8775 8.36271C40.7528 8.33875 40.637 8.3124 40.5328 8.28454C40.4289 8.25669 40.3348 8.22644 40.253 8.19739C40.1709 8.16805 40.0815 8.13121 39.9845 8.08629C39.9364 8.06383 39.8866 8.03867 39.8351 8.01202C39.784 7.98566 39.7312 7.95661 39.6768 7.92607C39.6636 7.91828 39.6504 7.91019 39.6359 7.90241C39.6227 7.89432 39.6082 7.88654 39.595 7.87845L39.5537 7.85329L39.5128 7.82694C39.4584 7.7913 39.4027 7.75297 39.3472 7.71194C39.2371 7.62988 39.1285 7.53585 39.0276 7.42893C38.9263 7.32172 38.8327 7.20402 38.7548 7.07165C38.6773 6.94078 38.6173 6.79793 38.5849 6.64699C38.5688 6.57182 38.5585 6.49486 38.5556 6.41549C38.5526 6.33763 38.5585 6.25827 38.5704 6.1789C38.5952 6.02018 38.6479 5.86146 38.7301 5.70932C38.7888 5.60211 38.859 5.50178 38.9395 5.40894C38.9791 5.36282 39.0217 5.3191 39.0672 5.27687C39.0893 5.25561 39.1127 5.23584 39.1361 5.21608C39.1477 5.2053 39.1595 5.19601 39.1711 5.18673L39.1889 5.17236L39.2051 5.15918C39.2945 5.0915 39.4 5.03609 39.5099 4.99387C39.6184 4.95134 39.7312 4.92379 39.8424 4.91031L39.8631 4.90792C39.8631 4.90792 39.8763 4.90642 39.8836 4.90522L39.9245 4.90252H39.9657C39.9789 4.90103 39.9921 4.90252 40.0053 4.90252C40.0581 4.90252 40.1109 4.90911 40.159 4.9184C40.1709 4.92109 40.1841 4.92379 40.1956 4.92618L40.2309 4.93547C40.2428 4.93966 40.2544 4.94355 40.2646 4.94745C40.2676 4.94745 40.2705 4.94864 40.2735 4.95014L40.2821 4.95403L40.2982 4.96062C40.3424 4.97919 40.382 5.00165 40.4186 5.02681C40.4552 5.05316 40.4876 5.08371 40.5153 5.11545L40.546 5.15499C40.546 5.15499 40.5519 5.16427 40.5562 5.16846L40.5753 5.19482C40.5812 5.2041 40.5872 5.21338 40.5931 5.22267C40.6383 5.29664 40.6664 5.37331 40.6809 5.44997C40.6809 5.45536 40.6838 5.45926 40.6838 5.46465V5.47902L40.6898 5.50687V5.53473C40.6911 5.54401 40.6927 5.55329 40.6911 5.56258C40.6911 5.58114 40.6911 5.59941 40.6881 5.61798L40.6852 5.64463L40.6809 5.67099L40.6779 5.68417V5.69075C40.6779 5.69075 40.6749 5.69465 40.6749 5.69734L40.6677 5.7225L40.6647 5.73568C40.6647 5.73568 40.6617 5.74376 40.6604 5.74765L40.6515 5.77161C40.6515 5.77161 40.6485 5.7794 40.6472 5.78329L40.6413 5.79527L40.6311 5.81773C40.6311 5.81773 40.6281 5.82582 40.6251 5.82971L40.6195 5.84019C40.6165 5.84678 40.6119 5.85337 40.6076 5.86146C40.574 5.91566 40.5298 5.95939 40.483 5.99233C40.4361 6.02557 40.385 6.04654 40.3365 6.05851C40.3114 6.0639 40.288 6.0678 40.2662 6.069C40.2603 6.069 40.2544 6.069 40.2501 6.069H40.2339C40.2339 6.069 40.2237 6.069 40.2177 6.069H40.2032C40.1636 6.0639 40.1313 6.05462 40.1049 6.04384C40.0799 6.03456 40.0611 6.02557 40.0479 6.01868L40.0287 6.0082L40.0449 6.02138C40.0551 6.03066 40.0726 6.04264 40.0977 6.05582C40.1224 6.07049 40.1547 6.08487 40.1956 6.09565L40.2118 6.09954C40.2118 6.09954 40.2237 6.10224 40.228 6.10224H40.2369L40.2455 6.10493C40.2455 6.10493 40.2573 6.10613 40.2646 6.10733C40.2897 6.11002 40.3174 6.11002 40.3454 6.10733C40.4025 6.10224 40.4655 6.08637 40.5272 6.05462C40.5885 6.02288 40.6502 5.97795 40.7013 5.91686C40.7073 5.90907 40.7145 5.90099 40.7205 5.8932L40.7294 5.88122C40.7294 5.88122 40.7353 5.87344 40.7366 5.86924L40.7528 5.84409L40.76 5.83091C40.76 5.83091 40.7643 5.82163 40.7673 5.81773L40.7821 5.78988C40.7821 5.78988 40.7864 5.7806 40.7894 5.77551L40.7953 5.76083L40.8069 5.73178C40.8069 5.73178 40.8085 5.72639 40.8098 5.724L40.8128 5.71591L40.8171 5.70004C40.8201 5.68956 40.8247 5.68027 40.8273 5.66949L40.8349 5.63775C40.8405 5.61678 40.8435 5.59432 40.8481 5.57186C40.8494 5.56108 40.8511 5.5494 40.8524 5.53742L40.8554 5.50298V5.44997C40.8554 5.44997 40.8554 5.43829 40.8554 5.4329C40.8494 5.33767 40.826 5.23704 40.7805 5.14061C40.7745 5.12863 40.7689 5.11665 40.763 5.10497L40.7439 5.06903C40.7439 5.06903 40.7379 5.05736 40.7336 5.05077L40.7221 5.0334C40.7145 5.02142 40.7073 5.00974 40.6983 4.99776C40.6647 4.95014 40.6238 4.90372 40.577 4.86269C40.4816 4.77944 40.3586 4.71475 40.225 4.67881C40.159 4.66055 40.0888 4.64857 40.0198 4.64318C40.0023 4.64318 39.9845 4.64048 39.967 4.63928H39.8615C39.8529 4.63928 39.844 4.63928 39.8351 4.63928H39.8087C39.7385 4.64467 39.6665 4.65396 39.5976 4.66833C39.5273 4.68151 39.4571 4.70008 39.3881 4.72254C39.3192 4.745 39.2503 4.77285 39.1843 4.80459C39.117 4.83634 39.0523 4.87467 38.9893 4.9184L38.9659 4.93547L38.9441 4.95134C38.9293 4.96212 38.9148 4.9726 38.9016 4.98458C38.8736 5.00704 38.8458 5.0307 38.8178 5.05466C38.7637 5.10228 38.7123 5.15379 38.6624 5.20799C38.5645 5.3164 38.4781 5.4368 38.4091 5.56647C38.3095 5.74885 38.2491 5.94471 38.2274 6.13907C38.2171 6.237 38.2155 6.33374 38.2244 6.43017C38.233 6.5254 38.2521 6.61944 38.2785 6.70808C38.3049 6.79793 38.3415 6.88268 38.3827 6.96324C38.4236 7.0438 38.4721 7.11927 38.5232 7.19085C38.6258 7.3322 38.7462 7.45379 38.8693 7.55831C39.117 7.76734 39.3809 7.91019 39.6154 8.01471C39.6738 8.04107 39.7312 8.06503 39.7853 8.08868C39.841 8.11144 39.8938 8.13241 39.9436 8.15217C40.0449 8.192 40.1386 8.22495 40.2207 8.25549C40.3028 8.28604 40.3965 8.31898 40.5008 8.35462C40.6047 8.38906 40.7191 8.4262 40.8435 8.46184C40.9065 8.47891 40.9711 8.49747 41.0384 8.51335C41.1061 8.53072 41.1763 8.54659 41.2495 8.56096C41.3228 8.57564 41.3977 8.59001 41.4752 8.60199C41.553 8.61397 41.6335 8.62595 41.7156 8.63523C41.8812 8.6535 42.0557 8.66279 42.2375 8.66159C42.4192 8.65889 42.6099 8.64422 42.8032 8.61247C42.9968 8.58073 43.1947 8.53072 43.388 8.45644C43.485 8.41961 43.5817 8.37858 43.674 8.32947L43.709 8.3109C43.7209 8.30431 43.7324 8.29922 43.7443 8.29263L43.7796 8.27256L43.7971 8.26328L43.8145 8.2528C43.8366 8.23962 43.8601 8.22644 43.8835 8.21057C43.9069 8.1959 43.929 8.18003 43.9524 8.16415C44.0784 8.07281 44.1929 7.9671 44.2823 7.84281C44.3278 7.78052 44.3657 7.71463 44.3964 7.64306C44.401 7.63378 44.404 7.62449 44.407 7.6167C44.4096 7.60742 44.4142 7.59814 44.4172 7.58885L44.4258 7.561C44.4287 7.55172 44.4317 7.54243 44.433 7.53315L44.4377 7.51878L44.4406 7.5041L44.4462 7.47655L44.4508 7.4472V7.43282L44.4538 7.41815L44.4568 7.3891V7.30195L44.4538 7.31124Z" fill="black"/>
</svg>
