<svg width="16" height="16" viewBox="0 0 16 16" fill="none" xmlns="http://www.w3.org/2000/svg">
<path d="M4.05355 0.891602C4.17337 0.891602 4.28828 0.939198 4.373 1.02392C4.45772 1.10864 4.50532 1.22355 4.50532 1.34337V1.79513H11.7336V1.34337C11.7336 1.22355 11.7812 1.10864 11.8659 1.02392C11.9506 0.939198 12.0655 0.891602 12.1853 0.891602C12.3052 0.891602 12.4201 0.939198 12.5048 1.02392C12.5895 1.10864 12.6371 1.22355 12.6371 1.34337V1.79513H13.5406C14.0199 1.79513 14.4795 1.98552 14.8184 2.32441C15.1573 2.6633 15.3477 3.12294 15.3477 3.6022V13.5411C15.3477 14.0203 15.1573 14.48 14.8184 14.8188C14.4795 15.1577 14.0199 15.3481 13.5406 15.3481H2.69825C2.21899 15.3481 1.75936 15.1577 1.42047 14.8188C1.08158 14.48 0.89119 14.0203 0.89119 13.5411V5.40926H15.3477V4.50573H0.89119V3.6022C0.89119 3.12294 1.08158 2.6633 1.42047 2.32441C1.75936 1.98552 2.21899 1.79513 2.69825 1.79513H3.60179V1.34337C3.60179 1.22355 3.64938 1.10864 3.73411 1.02392C3.81883 0.939198 3.93374 0.891602 4.05355 0.891602V0.891602Z" fill="#384A64"/>
</svg>
