<svg width="14" height="18" viewBox="0 0 14 18" fill="none" xmlns="http://www.w3.org/2000/svg">
<path d="M6.94338 17.8579C5.69054 16.7892 4.52926 15.6177 3.47169 14.3554C1.88463 12.4599 8.71785e-07 9.63692 8.71785e-07 6.94686C-0.000687414 5.57302 0.406197 4.22986 1.16916 3.08736C1.93212 1.94486 3.01687 1.05437 4.28612 0.528597C5.55536 0.00282369 6.95206 -0.134602 8.29944 0.133711C9.64682 0.402025 10.8843 1.06402 11.8553 2.03591C12.5018 2.67952 13.0142 3.44495 13.3629 4.28792C13.7116 5.13088 13.8897 6.03463 13.8868 6.94686C13.8868 9.63692 12.0021 12.4599 10.4151 14.3554C9.3575 15.6177 8.19622 16.7892 6.94338 17.8579ZM6.94338 3.97113C6.15417 3.97113 5.39728 4.28464 4.83922 4.8427C4.28116 5.40076 3.96765 6.15765 3.96765 6.94686C3.96765 7.73607 4.28116 8.49297 4.83922 9.05102C5.39728 9.60908 6.15417 9.9226 6.94338 9.9226C7.73259 9.9226 8.48948 9.60908 9.04754 9.05102C9.6056 8.49297 9.91911 7.73607 9.91911 6.94686C9.91911 6.15765 9.6056 5.40076 9.04754 4.8427C8.48948 4.28464 7.73259 3.97113 6.94338 3.97113Z" fill="#384A64"/>
</svg>
