<svg width="30" height="30" viewBox="0 0 30 30" fill="none" xmlns="http://www.w3.org/2000/svg">
<path d="M8.64746 28.4279C6.66152 28.4279 5.14746 27.7842 5.11934 27.2092L5.11621 27.1623C5.11621 27.1529 5.11621 27.142 5.11621 27.1326V11.6764C5.11621 10.417 5.92715 9.29668 7.13496 8.89043L7.32246 8.82793V4.64512C7.32246 4.46387 7.4709 4.31543 7.65371 4.31543C7.83809 4.31543 7.98652 4.46387 7.98652 4.64512V9.06543C7.98652 9.20762 7.8959 9.33418 7.75996 9.37793L7.34746 9.51699C6.40996 9.83262 5.78027 10.6998 5.78027 11.6764V27.1061C5.97402 27.2873 6.93652 27.767 8.64746 27.767C10.3412 27.767 11.31 27.2936 11.5131 27.1139V11.6764C11.5131 10.6998 10.8834 9.83262 9.9459 9.51699L9.5334 9.37793C9.39902 9.33418 9.30684 9.20762 9.30684 9.06543V4.64512C9.30684 4.46387 9.45684 4.31543 9.63965 4.31543C9.82402 4.31543 9.97246 4.46387 9.97246 4.64512V8.82793L10.1584 8.89043C11.3662 9.29668 12.1787 10.417 12.1787 11.6764V27.1326C12.1787 27.1389 12.1787 27.1451 12.1771 27.1514L12.174 27.2232C12.1459 27.792 10.6318 28.4279 8.64746 28.4279Z" fill="#9A9A9A"/>
<path d="M8.64766 12.8488C6.80547 12.8488 5.80078 13.4316 5.80078 13.7301C5.80078 14.0285 6.80547 14.6098 8.64766 14.6098C10.4883 14.6098 11.4914 14.0285 11.4914 13.7301C11.4914 13.4316 10.4883 12.8488 8.64766 12.8488ZM8.64766 15.2707C6.90391 15.2707 5.13672 14.741 5.13672 13.7301C5.13672 12.7176 6.90391 12.1895 8.64766 12.1895C10.3914 12.1895 12.157 12.7176 12.157 13.7301C12.157 14.741 10.3914 15.2707 8.64766 15.2707Z" fill="#9A9A9A"/>
<path d="M10.8136 26.9834C10.6636 26.9834 10.5292 26.8818 10.4917 26.7365C10.3949 26.5178 9.52923 25.3162 8.64798 25.3162C7.75423 25.3162 7.05735 26.3209 6.79798 26.7521C6.70423 26.91 6.5011 26.9615 6.34173 26.8678C6.18548 26.774 6.13235 26.5725 6.2261 26.4162C6.61985 25.7584 7.45735 24.6553 8.64798 24.6553C9.97142 24.6553 11.0949 26.2709 11.1433 26.6068C11.1683 26.7865 11.0433 26.9537 10.8605 26.9803C10.8449 26.9818 10.8292 26.9834 10.8136 26.9834Z" fill="#9A9A9A"/>
<path d="M8.5877 22.2703C8.04082 22.2703 7.5127 22.2281 7.01582 22.1437C6.85645 22.1171 6.73926 21.9796 6.73926 21.8187V16.9718C6.73926 16.8734 6.78301 16.7828 6.85801 16.7187C6.93301 16.6562 7.02988 16.6296 7.12676 16.6453C7.5877 16.7218 8.07988 16.7609 8.5877 16.7609C10.0939 16.7609 11.1893 16.4375 11.4924 16.1156C11.6189 15.9828 11.8299 15.9765 11.9627 16.1015C12.0971 16.225 12.1033 16.4359 11.9768 16.5687C11.4861 17.0875 10.1564 17.4218 8.5877 17.4218C8.18145 17.4218 7.78457 17.3984 7.40488 17.3531V21.5343C7.78301 21.5843 8.17988 21.6093 8.5877 21.6093C10.058 21.6093 11.1549 21.2921 11.4783 20.9781C11.6096 20.8515 11.8205 20.8531 11.9486 20.9843C12.0768 21.114 12.0736 21.3234 11.9424 21.4515C11.4299 21.9484 10.1127 22.2703 8.5877 22.2703Z" fill="#9A9A9A"/>
<path d="M8.64629 4.99414C7.7541 4.99414 6.85254 4.66758 6.85254 4.0457C6.85254 4.02383 6.86035 2.4082 6.86035 2.4082L7.52598 2.41289C7.52598 2.41289 7.5166 3.87695 7.5166 4.0332C7.57285 4.12383 7.96504 4.3332 8.64629 4.3332C9.32598 4.3332 9.71973 4.12383 9.77441 4.0332C9.77441 3.87852 9.76504 2.41289 9.76504 2.41289L10.4307 2.4082C10.4307 2.4082 10.4385 4.02383 10.4385 4.0457C10.4385 4.66758 9.53691 4.99414 8.64629 4.99414Z" fill="#9A9A9A"/>
<path d="M7.52695 2.37266C7.6082 2.46953 7.99727 2.66172 8.64727 2.66172C9.2957 2.66172 9.68477 2.46953 9.76602 2.37266C9.68477 2.27734 9.2957 2.08516 8.64727 2.08516C7.99727 2.08516 7.6082 2.27734 7.52695 2.37266ZM8.64727 3.32109C7.75508 3.32109 6.85352 2.99609 6.85352 2.37266C6.85352 1.75078 7.75508 1.42578 8.64727 1.42578C9.53789 1.42578 10.4395 1.75078 10.4395 2.37266C10.4395 2.99609 9.53789 3.32109 8.64727 3.32109Z" fill="#9A9A9A"/>
<path d="M21.7621 12.3484C20.248 12.3484 19.3184 12.9078 19.3184 13.3109C19.3184 13.7125 20.248 14.2719 21.7621 14.2719C23.2746 14.2719 24.2027 13.7125 24.2027 13.3109C24.2027 12.9078 23.2746 12.3484 21.7621 12.3484ZM21.7621 14.9328C19.9887 14.9328 18.6543 14.2359 18.6543 13.3109C18.6543 12.3844 19.9887 11.6875 21.7621 11.6875C23.5324 11.6875 24.8684 12.3844 24.8684 13.3109C24.8684 14.2359 23.5324 14.9328 21.7621 14.9328Z" fill="#9A9A9A"/>
<path d="M21.7626 20.9056C21.0782 20.9056 20.4923 20.6603 20.0204 20.1743C18.4704 18.5774 18.6032 14.8149 18.647 13.5774C18.6517 13.4556 18.6548 13.3649 18.6548 13.3103C18.6548 13.1274 18.8032 12.979 18.986 12.979C19.1704 12.979 19.3189 13.1274 19.3189 13.3103C19.3189 13.3696 19.3157 13.4681 19.311 13.6009C19.2001 16.7321 19.6001 18.7899 20.4985 19.7149C20.8454 20.0728 21.2595 20.2462 21.7626 20.2462C22.2642 20.2462 22.6767 20.0728 23.0251 19.7149C23.9235 18.7899 24.3235 16.7321 24.2126 13.6009C24.2079 13.4681 24.2032 13.3696 24.2032 13.3103C24.2032 13.2884 24.2017 13.2696 24.197 13.2493C24.1595 13.0712 24.2751 12.8962 24.4548 12.8587C24.6345 12.8212 24.811 12.9353 24.8485 13.1134C24.861 13.1774 24.8689 13.2431 24.8689 13.3103C24.8689 13.3649 24.872 13.4556 24.8767 13.5774C24.9204 14.8149 25.0532 18.5774 23.5017 20.1743C23.0298 20.6603 22.4439 20.9056 21.7626 20.9056Z" fill="#9A9A9A"/>
<path d="M21.7625 26.9139C21.7578 26.9139 21.7546 26.9139 21.75 26.9139C21.5671 26.9076 21.4234 26.7545 21.4296 26.5732C21.4984 24.3639 20.9203 21.917 19.8812 20.0279C19.7937 19.867 19.8531 19.667 20.014 19.5795C20.175 19.492 20.3765 19.5514 20.4656 19.7107C21.5578 21.6998 22.1671 24.2717 22.0937 26.5936C22.0875 26.7717 21.9406 26.9139 21.7625 26.9139Z" fill="#9A9A9A"/>
<path d="M21.7611 26.9139C21.583 26.9139 21.4345 26.7717 21.4299 26.5936C21.3877 25.2639 21.5674 23.8342 21.9517 22.4576C22.2299 21.467 22.6002 20.542 23.058 19.7107C23.1455 19.5514 23.3486 19.492 23.508 19.5795C23.6689 19.667 23.7299 19.867 23.6408 20.0279C23.208 20.8154 22.8564 21.692 22.5924 22.6342C22.2267 23.9482 22.0533 25.3092 22.0939 26.5732C22.1002 26.7545 21.9549 26.9076 21.772 26.9139C21.7689 26.9139 21.7642 26.9139 21.7611 26.9139Z" fill="#9A9A9A"/>
<path d="M21.7631 28.2032C20.485 28.2032 19.5225 27.6438 19.5225 26.9032C19.5225 26.3454 20.0381 25.8938 20.7771 25.8032C20.9584 25.7813 21.1256 25.911 21.1475 26.0923C21.1693 26.2735 21.0396 26.4376 20.8584 26.4594C20.4381 26.511 20.1865 26.7251 20.1865 26.9032C20.1865 27.1641 20.8006 27.5423 21.7631 27.5423C22.724 27.5423 23.3381 27.1641 23.3381 26.9032C23.3381 26.7579 23.1334 26.5704 22.7443 26.4876C22.5646 26.4501 22.4506 26.2751 22.4881 26.0969C22.5256 25.9188 22.7021 25.8048 22.8818 25.8423C23.5631 25.9844 24.0021 26.4016 24.0021 26.9032C24.0021 27.6438 23.0381 28.2032 21.7631 28.2032Z" fill="#9A9A9A"/>
<path d="M17.1219 10.6893C15.6094 10.6893 14.6797 11.2502 14.6797 11.6518C14.6797 12.0533 15.6094 12.6143 17.1219 12.6143C18.6359 12.6143 19.5656 12.0533 19.5656 11.6518C19.5656 11.2502 18.6359 10.6893 17.1219 10.6893ZM17.1219 13.2736C15.3516 13.2736 14.0156 12.5768 14.0156 11.6518C14.0156 10.7268 15.3516 10.0283 17.1219 10.0283C18.8938 10.0283 20.2297 10.7268 20.2297 11.6518C20.2297 12.5768 18.8938 13.2736 17.1219 13.2736Z" fill="#9A9A9A"/>
<path d="M17.1214 19.2479C16.4386 19.2479 15.8542 19.001 15.3808 18.515C13.8308 16.9197 13.9636 13.1557 14.0073 11.9182C14.012 11.7979 14.0151 11.7057 14.0151 11.651C14.0151 11.4682 14.1636 11.3213 14.3464 11.3213C14.5308 11.3213 14.6792 11.4682 14.6792 11.651C14.6792 11.7104 14.6761 11.8104 14.6714 11.9416C14.5605 15.0744 14.9605 17.1307 15.8589 18.0557C16.2058 18.4135 16.6198 18.5869 17.1214 18.5869C17.8651 18.5869 18.4292 18.1994 18.8448 17.3994C18.9292 17.2369 19.1292 17.1744 19.2917 17.2572C19.4542 17.3416 19.5198 17.54 19.4355 17.7025C18.9026 18.7275 18.1245 19.2479 17.1214 19.2479Z" fill="#9A9A9A"/>
<path d="M17.1212 25.2541C17.1181 25.2541 17.115 25.2541 17.1119 25.2541C16.9275 25.2479 16.7837 25.0963 16.79 24.9135C16.8587 22.7041 16.2806 20.2588 15.2416 18.3682C15.1541 18.2088 15.2134 18.0073 15.3744 17.9213C15.5353 17.8323 15.7369 17.8916 15.8259 18.0526C16.9181 20.0401 17.5259 22.6135 17.4541 24.9338C17.4478 25.1135 17.3009 25.2541 17.1212 25.2541Z" fill="#9A9A9A"/>
<path d="M17.1224 25.2544C16.9443 25.2544 16.7958 25.1138 16.7911 24.9341C16.749 23.606 16.9302 22.1763 17.313 20.7997C17.5896 19.8075 17.9615 18.8841 18.4193 18.0529C18.5068 17.8919 18.7083 17.8341 18.8693 17.9216C19.0318 18.0075 19.0911 18.2091 19.0021 18.3685C18.5693 19.156 18.2177 20.0325 17.9536 20.9763C17.588 22.2888 17.4161 23.6513 17.4552 24.9138C17.4599 25.0966 17.3161 25.2482 17.1333 25.2544C17.1302 25.2544 17.1255 25.2544 17.1224 25.2544Z" fill="#9A9A9A"/>
<path d="M17.1219 26.5434C15.8453 26.5434 14.8828 25.9841 14.8828 25.2434C14.8828 24.6872 15.3984 24.2341 16.1375 24.145C16.3203 24.1231 16.4859 24.2513 16.5078 24.4325C16.5297 24.6138 16.4 24.7778 16.2188 24.8013C15.7984 24.8513 15.5469 25.0653 15.5469 25.2434C15.5469 25.5044 16.1609 25.8825 17.1219 25.8825C18.0844 25.8825 18.6969 25.5044 18.6969 25.2434C18.6969 25.0997 18.4937 24.9106 18.1047 24.8294C17.925 24.7919 17.8109 24.6169 17.8484 24.4388C17.8859 24.2591 18.0625 24.145 18.2422 24.1825C18.9219 24.3247 19.3625 24.7419 19.3625 25.2434C19.3625 25.9841 18.4 26.5434 17.1219 26.5434Z" fill="#9A9A9A"/>
</svg>
