<svg width="21" height="20" viewBox="0 0 21 20" fill="none" xmlns="http://www.w3.org/2000/svg">
<g clip-path="url(#clip0_735_1720)">
<path d="M10.5 1.11108C8.74195 1.11108 7.02337 1.63241 5.5616 2.60913C4.09983 3.58586 2.96052 4.97411 2.28774 6.59834C1.61496 8.22257 1.43893 10.0098 1.78191 11.7341C2.12489 13.4584 2.97148 15.0422 4.21461 16.2854C5.45774 17.5285 7.04159 18.3751 8.76587 18.7181C10.4901 19.061 12.2774 18.885 13.9016 18.2122C15.5259 17.5395 16.9141 16.4001 17.8908 14.9384C18.8676 13.4766 19.3889 11.758 19.3889 9.99997C19.3889 7.64249 18.4524 5.38157 16.7854 3.71458C15.1184 2.04759 12.8575 1.11108 10.5 1.11108ZM10.5 17.7778C8.96171 17.7778 7.45795 17.3216 6.1789 16.467C4.89985 15.6123 3.90296 14.3976 3.31427 12.9764C2.72559 11.5552 2.57157 9.99135 2.87167 8.4826C3.17178 6.97386 3.91254 5.588 5.00028 4.50025C6.08803 3.41251 7.47389 2.67175 8.98264 2.37164C10.4914 2.07154 12.0552 2.22556 13.4764 2.81424C14.8976 3.40293 16.1124 4.39982 16.967 5.67887C17.8216 6.95792 18.2778 8.46167 18.2778 9.99997C18.2778 12.0628 17.4583 14.0411 15.9997 15.4997C14.5411 16.9583 12.5628 17.7778 10.5 17.7778Z" fill="#C4456F"/>
<path d="M10.6611 4.95613C10.0591 4.94618 9.46226 5.06895 8.91303 5.31571C8.36381 5.56248 7.87568 5.92718 7.48333 6.3839C7.42883 6.43442 7.38501 6.49536 7.35447 6.56311C7.32393 6.63086 7.3073 6.70405 7.30556 6.77835C7.30552 6.84689 7.31927 6.91475 7.34599 6.97787C7.37272 7.04099 7.41186 7.0981 7.4611 7.14578C7.51034 7.19347 7.56867 7.23076 7.63262 7.25544C7.69657 7.28013 7.76483 7.29169 7.83334 7.28946C7.9801 7.28582 8.12044 7.2285 8.22778 7.12835C8.5247 6.78039 8.89349 6.5009 9.30875 6.30909C9.72402 6.11728 10.1759 6.01771 10.6333 6.01724C11.9444 6.01724 12.7611 6.86168 12.7611 7.91168V7.93946C12.7611 9.16724 11.7833 9.85057 10.2389 9.96724C10.1764 9.96965 10.115 9.98525 10.0589 10.013C10.0028 10.0408 9.95324 10.08 9.91338 10.1283C9.87353 10.1765 9.84431 10.2327 9.82764 10.293C9.81097 10.3533 9.80723 10.4165 9.81667 10.4783C9.81667 10.4783 9.81667 11.7672 9.81667 12.0061C9.83049 12.1436 9.89507 12.2711 9.99779 12.3635C10.1005 12.456 10.234 12.5068 10.3722 12.5061H10.4333C10.5708 12.4923 10.6983 12.4277 10.7907 12.325C10.8832 12.2223 10.934 12.0888 10.9333 11.9506V10.8061C12.6 10.5728 13.95 9.69502 13.95 7.87279V7.84502C13.9333 6.17835 12.6333 4.95613 10.6611 4.95613Z" fill="#C4456F"/>
<path d="M10.3774 15.2495C10.7609 15.2495 11.0718 14.9386 11.0718 14.555C11.0718 14.1715 10.7609 13.8606 10.3774 13.8606C9.99385 13.8606 9.68294 14.1715 9.68294 14.555C9.68294 14.9386 9.99385 15.2495 10.3774 15.2495Z" fill="#C4456F"/>
</g>
<defs>
<clipPath id="clip0_735_1720">
<rect width="20" height="20" fill="white" transform="translate(0.5)"/>
</clipPath>
</defs>
</svg>
