<svg width="18" height="18" viewBox="0 0 18 18" fill="none" xmlns="http://www.w3.org/2000/svg">
<path fill-rule="evenodd" clip-rule="evenodd" d="M17.3349 8.99935C17.3349 13.6018 13.604 17.3327 9.00155 17.3327C4.39905 17.3327 0.668213 13.6018 0.668213 8.99935C0.668213 4.39685 4.39905 0.666016 9.00155 0.666016C13.604 0.666016 17.3349 4.39685 17.3349 8.99935ZM5.76071 12.2402C5.6826 12.162 5.63872 12.0561 5.63872 11.9456C5.63872 11.8351 5.6826 11.7292 5.76071 11.651L8.41238 8.99935L5.76071 6.34768C5.68481 6.2691 5.64282 6.16385 5.64377 6.0546C5.64471 5.94535 5.68854 5.84085 5.76579 5.76359C5.84304 5.68634 5.94755 5.64252 6.0568 5.64157C6.16604 5.64062 6.2713 5.68262 6.34988 5.75852L9.00155 8.41018L11.6532 5.75852C11.7318 5.68262 11.837 5.64062 11.9463 5.64157C12.0555 5.64252 12.1601 5.68634 12.2373 5.76359C12.3146 5.84085 12.3584 5.94535 12.3593 6.0546C12.3603 6.16385 12.3183 6.2691 12.2424 6.34768L9.59071 8.99935L12.2424 11.651C12.3183 11.7296 12.3603 11.8349 12.3593 11.9441C12.3584 12.0533 12.3146 12.1579 12.2373 12.2351C12.1601 12.3124 12.0555 12.3562 11.9463 12.3571C11.837 12.3581 11.7318 12.3161 11.6532 12.2402L9.00155 9.58852L6.34988 12.2402C6.27174 12.3183 6.16578 12.3622 6.0553 12.3622C5.94481 12.3622 5.83885 12.3183 5.76071 12.2402Z" fill="#C4456F"/>
</svg>
