<svg width="31" height="30" viewBox="0 0 31 30" fill="none" xmlns="http://www.w3.org/2000/svg">
<path d="M10.0566 23.4127H5.02383C4.09727 23.4127 3.33945 22.7174 3.32383 21.8564C3.32227 21.8486 3.32227 21.8393 3.32227 21.8314V8.26895C3.32227 8.07988 3.47539 7.92676 3.66445 7.92676C3.85352 7.92676 4.00664 8.07988 4.00664 8.26895V21.8111C4.00664 21.8174 4.00664 21.8252 4.00664 21.8314C4.0082 22.3252 4.46445 22.7268 5.02383 22.7268H10.0566C10.616 22.7268 11.0738 22.3252 11.0754 21.8314C11.0754 21.8252 11.0754 21.8189 11.0754 21.8127V8.26895C11.0754 8.07988 11.2285 7.92676 11.4176 7.92676C11.6051 7.92676 11.7582 8.07988 11.7582 8.26895V21.8314C11.7582 21.8393 11.7582 21.8471 11.7582 21.8549C11.7426 22.7158 10.9832 23.4127 10.0566 23.4127Z" fill="#9A9A9A"/>
<path d="M22.4303 7.36992H8.44277C8.25371 7.36992 8.10059 7.2168 8.10059 7.02773C8.10059 6.83867 8.25371 6.68555 8.44277 6.68555H22.4303C22.6178 6.68555 22.7725 6.83867 22.7725 7.02773C22.7725 7.2168 22.6178 7.36992 22.4303 7.36992Z" fill="#9A9A9A"/>
<path d="M25.7174 8.61211H24.5846C24.3955 8.61211 24.2424 8.45898 24.2424 8.26836C24.2424 8.0793 24.3955 7.92617 24.5846 7.92617H25.7174C25.8768 7.92617 26.0096 7.80273 26.0096 7.65586C26.0096 7.50273 25.8736 7.36992 25.7174 7.36992H22.3549C22.1658 7.36992 22.0127 7.2168 22.0127 7.02773C22.0127 6.83867 22.1658 6.68555 22.3549 6.68555H25.7174C26.2471 6.68555 26.6924 7.1293 26.6924 7.65586C26.6924 8.18242 26.2549 8.61211 25.7174 8.61211Z" fill="#9A9A9A"/>
<path d="M10.0566 9.8543H5.02383C4.08633 9.8543 3.32227 9.14336 3.32227 8.26836C3.32227 7.39648 4.08633 6.68555 5.02383 6.68555H5.4582C5.64727 6.68555 5.80039 6.83867 5.80039 7.02773C5.80039 7.2168 5.64727 7.36992 5.4582 7.36992H5.02383C4.46289 7.36992 4.00664 7.77305 4.00664 8.26836C4.00664 8.76523 4.46289 9.16992 5.02383 9.16992H10.0566C10.6191 9.16992 11.0754 8.76523 11.0754 8.26836C11.0754 8.0793 11.2285 7.92617 11.4176 7.92617H16.4457C16.6348 7.92617 16.7879 8.0793 16.7879 8.26836C16.7879 8.45898 16.6348 8.61211 16.4457 8.61211H11.7176C11.5504 9.32148 10.8691 9.8543 10.0566 9.8543Z" fill="#9A9A9A"/>
<path d="M20.4611 7.45156C16.3908 7.45156 13.0783 10.8922 13.0783 15.1219C13.0783 19.35 16.3908 22.7922 20.4611 22.7922C24.5299 22.7922 27.8408 19.35 27.8408 15.1219C27.8408 10.8922 24.5299 7.45156 20.4611 7.45156ZM20.4611 23.4766C16.0127 23.4766 12.3955 19.7281 12.3955 15.1219C12.3955 10.5141 16.0127 6.76562 20.4611 6.76562C24.9064 6.76562 28.5236 10.5141 28.5236 15.1219C28.5236 19.7281 24.9064 23.4766 20.4611 23.4766Z" fill="#9A9A9A"/>
<path d="M20.4604 9.21523C17.326 9.21523 14.7775 11.8637 14.7775 15.1215C14.7775 18.3777 17.326 21.0277 20.4604 21.0277C23.5916 21.0277 26.14 18.3777 26.14 15.1215C26.14 11.8637 23.5916 9.21523 20.4604 9.21523ZM20.4604 21.7121C16.9494 21.7121 14.0947 18.7559 14.0947 15.1215C14.0947 11.4871 16.9494 8.5293 20.4604 8.5293C23.9682 8.5293 26.8229 11.4871 26.8229 15.1215C26.8229 18.7559 23.9682 21.7121 20.4604 21.7121Z" fill="#9A9A9A"/>
<path d="M20.4582 12.2312C18.9285 12.2312 17.6848 13.5281 17.6848 15.1219C17.6848 16.7141 18.9285 18.0109 20.4582 18.0109C21.9879 18.0109 23.2316 16.7141 23.2316 15.1219C23.2316 13.5281 21.9879 12.2312 20.4582 12.2312ZM20.4582 18.6953C18.552 18.6953 17.002 17.0922 17.002 15.1219C17.002 13.15 18.552 11.5469 20.4582 11.5469C22.3645 11.5469 23.9145 13.15 23.9145 15.1219C23.9145 17.0922 22.3645 18.6953 20.4582 18.6953Z" fill="#9A9A9A"/>
<path d="M6.97246 5.56973C6.3459 5.56973 5.87715 5.87441 5.87715 6.14629C5.87715 6.41973 6.3459 6.72441 6.97246 6.72441C7.59902 6.72441 8.06777 6.41973 8.06777 6.14629C8.06777 5.87441 7.59902 5.56973 6.97246 5.56973ZM6.97246 7.40879C5.97559 7.40879 5.19434 6.85566 5.19434 6.14629C5.19434 5.43848 5.97559 4.88379 6.97246 4.88379C7.96934 4.88379 8.75059 5.43848 8.75059 6.14629C8.75059 6.85566 7.96934 7.40879 6.97246 7.40879Z" fill="#9A9A9A"/>
<path d="M26.352 10.0441C26.1629 10.0441 26.0098 9.89102 26.0098 9.70195V7.68789C26.0098 7.49883 26.1629 7.3457 26.352 7.3457C26.5395 7.3457 26.6926 7.49883 26.6926 7.68789V9.70195C26.6926 9.89102 26.5395 10.0441 26.352 10.0441Z" fill="#9A9A9A"/>
<path d="M25.4459 22.5484H24.1053C23.9162 22.5484 23.7646 22.3953 23.7646 22.2063C23.7646 22.0172 23.9162 21.8641 24.1053 21.8641H25.4459C25.7568 21.8641 26.01 21.6094 26.01 21.2969V20.3813C26.01 20.1922 26.1631 20.0391 26.3521 20.0391C26.5396 20.0391 26.6928 20.1922 26.6928 20.3813V21.2969C26.6928 21.9859 26.1334 22.5484 25.4459 22.5484Z" fill="#9A9A9A"/>
<path d="M16.677 22.5477H11.352C11.1629 22.5477 11.0098 22.3945 11.0098 22.2055C11.0098 22.0164 11.1629 21.8633 11.352 21.8633H16.677C16.866 21.8633 17.0191 22.0164 17.0191 22.2055C17.0191 22.3945 16.866 22.5477 16.677 22.5477Z" fill="#9A9A9A"/>
<path d="M6.97246 8.76094C6.00527 8.76094 5.24121 8.24531 5.19434 7.56094C5.19434 7.55312 5.19434 7.54531 5.19434 7.5375V6.31094C5.19434 6.12188 5.34746 5.96875 5.53496 5.96875C5.72402 5.96875 5.87715 6.12188 5.87715 6.31094V7.52344C5.90527 7.78594 6.35684 8.075 6.97246 8.075C7.58809 8.075 8.03965 7.78594 8.06777 7.52344V6.31094C8.06777 6.12188 8.2209 5.96875 8.40996 5.96875C8.59746 5.96875 8.75059 6.12188 8.75059 6.31094V7.5375C8.75059 7.54531 8.75059 7.55312 8.75059 7.56094C8.70371 8.24531 7.93965 8.76094 6.97246 8.76094Z" fill="#9A9A9A"/>
<path d="M22.0227 15.2565C22.0149 15.4581 21.9664 15.6612 21.8742 15.8549C21.507 16.6237 20.5852 16.9502 19.8195 16.5815C19.4649 16.4112 19.1899 16.1143 19.0477 15.7471C18.982 15.5768 19.0664 15.3846 19.2352 15.319C19.4055 15.2534 19.5961 15.3377 19.6633 15.5081C19.743 15.7174 19.9008 15.8877 20.1039 15.9862C20.5414 16.1956 21.0695 16.0096 21.2789 15.5706C21.4883 15.1315 21.3024 14.6018 20.8649 14.3909C20.7008 14.3127 20.6305 14.1159 20.7102 13.9518C20.7883 13.7862 20.9852 13.7159 21.1492 13.7956C21.7211 14.0706 22.0477 14.6565 22.0227 15.2565Z" fill="#9A9A9A"/>
</svg>
