<svg width="30" height="30" viewBox="0 0 30 30" fill="none" xmlns="http://www.w3.org/2000/svg">
<path d="M11.7887 5.92949C11.6918 5.92949 11.5965 5.89199 11.5231 5.81855C11.3777 5.67324 11.3793 5.43887 11.5262 5.29512L14.7559 2.11074C14.9012 1.96699 15.1356 1.96699 15.2809 2.11074L18.4324 5.21855C18.5793 5.3623 18.5793 5.59668 18.4356 5.74199C18.2902 5.8873 18.0543 5.88887 17.9074 5.74355L15.0184 2.89668L12.0512 5.82168C11.9777 5.89355 11.884 5.92949 11.7887 5.92949Z" fill="#461952"/>
<path d="M24.3701 27.9477H5.66699C4.62012 27.9477 3.76855 27.1008 3.76855 26.0602V13.7273C3.76855 13.2242 3.96699 12.7508 4.32793 12.393L4.74355 11.9836C4.88887 11.8398 5.12637 11.8398 5.27012 11.9852C5.41543 12.132 5.41543 12.3664 5.26855 12.5102L4.85293 12.9195C4.63574 13.1352 4.51543 13.4227 4.51543 13.7273V26.0602C4.51543 26.6914 5.03105 27.2055 5.66699 27.2055H24.3701C25.0045 27.2055 25.5217 26.6914 25.5217 26.0602V13.7273C25.5217 13.4227 25.4014 13.1352 25.1826 12.918L24.8639 12.6055C24.7186 12.4602 24.717 12.2258 24.8623 12.0805C25.0076 11.9352 25.2436 11.9336 25.3904 12.0773L25.7092 12.393C26.0701 12.7508 26.2686 13.2242 26.2686 13.7273V26.0602C26.2686 27.1008 25.417 27.9477 24.3701 27.9477Z" fill="#461952"/>
<path d="M23.9688 15.4391C23.7625 15.4391 23.5953 15.2734 23.5953 15.0688V8.04531C23.5953 7.62344 23.25 7.28125 22.8266 7.28125H7.21094C6.78594 7.28125 6.44219 7.62344 6.44219 8.04531V15.025C6.44219 15.2297 6.275 15.3953 6.06875 15.3953C5.8625 15.3953 5.69531 15.2297 5.69531 15.025V8.04531C5.69531 7.21562 6.375 6.53906 7.21094 6.53906H22.8266C23.6625 6.53906 24.3422 7.21562 24.3422 8.04531V15.0688C24.3422 15.2734 24.175 15.4391 23.9688 15.4391Z" fill="#461952"/>
<path d="M25.8902 26.55C25.8793 26.55 25.8699 26.55 25.8605 26.5484C25.6871 26.5344 25.5512 26.4063 25.523 26.2422L15.0199 18.2078L4.36992 26.3531C4.20586 26.4781 3.97149 26.4484 3.84649 26.2859C3.71992 26.1234 3.75117 25.8906 3.91367 25.7656L14.7918 17.4453C14.9262 17.3438 15.1121 17.3438 15.2465 17.4453L26.1215 25.7656C26.2137 25.8359 26.2684 25.9453 26.2684 26.0594C26.2684 26.1094 26.2668 26.1594 26.2621 26.2094C26.2465 26.4031 26.0824 26.55 25.8902 26.55Z" fill="#461952"/>
<path d="M17.8334 20.2635C17.7225 20.2635 17.6115 20.2135 17.5381 20.1182C17.4131 19.9557 17.4428 19.7229 17.6068 19.5979L25.6678 13.4323C25.8318 13.3073 26.0662 13.3385 26.1912 13.4994C26.3178 13.6619 26.2865 13.8948 26.1225 14.0198L18.0615 20.1869C17.9928 20.2385 17.9131 20.2635 17.8334 20.2635Z" fill="#461952"/>
<path d="M12.2045 20.2638C12.1248 20.2638 12.0451 20.2388 11.9764 20.1872L4.21074 14.2466C4.18887 14.2513 4.16543 14.2529 4.14199 14.2529C3.93574 14.2529 3.76855 14.0872 3.76855 13.8825V13.7263C3.76855 13.5857 3.8498 13.456 3.97793 13.3935C4.10449 13.331 4.25762 13.3466 4.37012 13.4325L12.4311 19.5982C12.5951 19.7232 12.6248 19.956 12.4998 20.1185C12.4264 20.2138 12.3154 20.2638 12.2045 20.2638Z" fill="#461952"/>
<path d="M16.2948 16.6572C16.2245 16.6572 16.1542 16.6385 16.0933 16.5994C16.0589 16.576 15.2339 16.0447 14.3355 15.215C14.1855 15.076 14.1761 14.84 14.3167 14.69C14.4573 14.54 14.6933 14.5322 14.8433 14.6713C15.4355 15.2182 16.0026 15.6338 16.2948 15.8385C16.873 15.4322 18.5417 14.176 19.3323 12.7135C19.8167 11.8166 19.7448 10.9463 19.1417 10.4416C18.5917 9.97909 17.5636 9.87753 16.5089 10.6963C16.3745 10.801 16.187 10.801 16.0526 10.6963C15.3011 10.1197 14.4589 9.94472 13.8011 10.226C13.3073 10.4369 12.9901 10.8713 12.9355 11.415C12.9151 11.6197 12.7323 11.7666 12.5276 11.7463C12.3214 11.726 12.173 11.5447 12.1933 11.34C12.2761 10.5322 12.7667 9.86034 13.5073 9.54315C14.3464 9.18534 15.3651 9.3369 16.2776 9.94472C17.587 9.05878 18.8855 9.25409 19.6245 9.8744C20.498 10.6057 20.6417 11.8588 19.9901 13.0635C18.9355 15.0119 16.598 16.5338 16.498 16.5978C16.437 16.6369 16.3651 16.6572 16.2948 16.6572Z" fill="#461952"/>
<path d="M11.3158 11.932C10.9642 11.932 10.6705 12.0852 10.5095 12.3539C10.322 12.6695 10.3517 13.1023 10.5924 13.5414C11.0924 14.4602 12.1174 15.2508 12.5517 15.5586C12.9877 15.2477 14.0111 14.4492 14.5064 13.5305C14.7439 13.0914 14.772 12.6602 14.583 12.3461C14.422 12.0789 14.1283 11.9258 13.7783 11.9258C13.4486 11.9258 13.1017 12.0602 12.7736 12.3164C12.6392 12.4195 12.4502 12.4211 12.3158 12.318C11.9877 12.0648 11.6424 11.932 11.3158 11.932ZM12.5533 16.382C12.4845 16.382 12.4142 16.3617 12.3533 16.3227C12.2845 16.2789 10.6705 15.2398 9.93611 13.8961C9.56736 13.2211 9.54236 12.5211 9.86892 11.9742C10.1627 11.4836 10.7033 11.1898 11.3158 11.1898C11.7283 11.1898 12.147 11.3211 12.5424 11.5695C12.9392 11.3164 13.3627 11.1836 13.7783 11.1836C14.3892 11.1836 14.9283 11.4758 15.222 11.9648C15.5502 12.5086 15.5283 13.207 15.1642 13.882C14.4345 15.2305 12.8252 16.2773 12.7564 16.3211C12.6955 16.3617 12.6252 16.382 12.5533 16.382Z" fill="#461952"/>
</svg>
