<svg width="110" height="37" viewBox="0 0 110 37" fill="none" xmlns="http://www.w3.org/2000/svg">
<path fill-rule="evenodd" clip-rule="evenodd" d="M23.6519 34.8486C16.6231 38.3144 7.06249 36.7355 2.6947 29.833C-1.44068 23.2995 -0.500885 13.5893 4.42758 7.72247C7.25713 4.35403 11.102 2.30449 15.3492 1.3371C19.7867 0.324684 24.3346 0.674746 28.6516 1.95589C41.1681 5.67003 50.6372 17.6099 65.2323 22.9436C79.842 28.2803 94.8801 26.6403 109.525 10.7147L109.984 10.2165L109.773 10.7989C109.426 11.7605 106.487 15.1304 105.645 15.8959C91.4129 28.8308 77.8288 30.6043 64.8895 26.2278C48.9232 20.8273 39.8274 7.18357 28.2739 3.49558C24.2635 2.21589 19.9973 1.87164 15.6906 2.8521C11.7789 3.74396 8.22016 5.61628 5.6114 8.72181C1.11579 14.073 0.22829 23.0351 4.00344 28.9993C7.94563 35.2263 16.6551 36.5699 22.9707 33.4542C25.8714 32.0234 28.2434 29.6616 29.2311 26.5256C29.3953 26.0027 29.5071 25.471 29.6073 24.9321L29.7279 24.2858L29.8528 24.9321C30.7011 29.3203 27.3152 33.0417 23.6519 34.8486Z" fill="white"/>
</svg>
