<svg width="30" height="30" viewBox="0 0 30 30" fill="none" xmlns="http://www.w3.org/2000/svg">
<path d="M5.65801 24.2186H4.88301C4.0377 24.2186 3.34863 23.5248 3.34863 22.6701V19.8451C3.34863 19.6826 3.47988 19.5498 3.64082 19.5498C3.80332 19.5498 3.93457 19.6826 3.93457 19.8451V22.6701C3.93457 23.1982 4.35957 23.6279 4.88301 23.6279H5.65801C6.18145 23.6279 6.60645 23.1982 6.60645 22.6701V21.4264C6.60645 21.2639 6.73926 21.1311 6.9002 21.1311C7.06113 21.1311 7.19395 21.2639 7.19395 21.4264V22.6701C7.19395 23.5248 6.50488 24.2186 5.65801 24.2186Z" fill="#9A9A9A"/>
<path d="M25.2078 24.2186H24.4328C23.5859 24.2186 22.8984 23.5248 22.8984 22.6701V21.4264C22.8984 21.2639 23.0297 21.1311 23.1922 21.1311C23.3531 21.1311 23.4844 21.2639 23.4844 21.4264V22.6701C23.4844 23.1982 23.9094 23.6279 24.4328 23.6279H25.2078C25.7313 23.6279 26.1562 23.1982 26.1562 22.6701V19.8451C26.1562 19.6826 26.2875 19.5498 26.45 19.5498C26.6109 19.5498 26.7422 19.6826 26.7422 19.8451V22.6701C26.7422 23.5248 26.0547 24.2186 25.2078 24.2186Z" fill="#9A9A9A"/>
<path d="M2.29104 11.127C2.4551 11.227 3.11448 11.3551 4.04729 11.3551C4.45979 11.3551 4.72229 11.327 4.82698 11.3035C4.94729 11.041 5.0301 10.0363 4.98948 9.65977C4.96448 9.65664 4.93167 9.65508 4.8926 9.65508C4.22229 9.65508 2.84573 10.252 2.40667 10.841C2.34885 10.9207 2.28479 11.0301 2.29104 11.127ZM4.04729 11.9457C3.07229 11.9457 1.8801 11.8395 1.73479 11.3301C1.6801 11.1426 1.67229 10.8441 1.93792 10.4863C2.49885 9.7332 4.05823 9.06445 4.8926 9.06445C5.07854 9.06445 5.23479 9.0957 5.35667 9.15977C5.53948 9.25508 5.56604 9.47383 5.57854 9.7082C5.57854 9.72539 5.62229 11.4973 5.16604 11.7973C5.11135 11.8348 4.94417 11.9457 4.04729 11.9457Z" fill="#9A9A9A"/>
<path d="M4.48284 20.8256C4.90003 21.0225 8.72972 21.2318 15.0453 21.2318C21.361 21.2318 25.1907 21.0225 25.6078 20.8256C26.1922 20.3787 26.7344 17.4084 26.3844 16.5631C25.5188 14.4756 23.7938 12.5428 23.775 12.524C23.7469 12.4912 23.7266 12.4537 23.7141 12.4146C22.9625 10.0256 21.9188 7.30527 21.5391 7.07715C21.0641 6.84746 18.5125 6.51152 15.6016 6.51152C15.4188 6.51152 15.2344 6.51309 15.05 6.51621C14.8766 6.51465 14.7141 6.51152 14.55 6.51152C11.5 6.51152 8.99378 6.91777 8.56253 7.12715C8.18597 7.35215 7.1344 10.0475 6.37659 12.4162C6.36409 12.4553 6.34378 12.4928 6.31565 12.524C6.29847 12.5428 4.57034 14.4787 3.70628 16.5631C3.35628 17.4084 3.90003 20.3787 4.48284 20.8256ZM15.0453 21.8225C12.6532 21.8225 4.79847 21.785 4.1469 21.3084C3.27815 20.6756 2.7344 17.3756 3.16565 16.335C4.00159 14.3162 5.55472 12.4975 5.83909 12.1756C6.35472 10.5646 7.5844 6.94434 8.3094 6.59434C8.96722 6.27715 11.7766 5.9209 14.55 5.9209C14.7172 5.9209 14.8828 5.92402 15.05 5.92559C15.2297 5.92246 15.4157 5.9209 15.6016 5.9209C18.4907 5.9209 21.1844 6.25059 21.7953 6.5459C22.5203 6.8959 23.7407 10.5506 24.2532 12.1756C24.5391 12.5006 26.0891 14.3178 26.925 16.335C27.3563 17.3756 26.8141 20.6756 25.9438 21.3084C25.2922 21.785 17.4375 21.8225 15.0453 21.8225Z" fill="#9A9A9A"/>
<path d="M15.0457 17.6257C10.9894 17.6257 7.05819 17.3679 3.35819 16.857C3.19881 16.8351 3.08631 16.6866 3.10819 16.5257C3.13006 16.3632 3.27694 16.2491 3.43788 16.2726C7.11131 16.7788 11.016 17.0351 15.0457 17.0351C19.0769 17.0351 22.9816 16.7788 26.6535 16.2726C26.8129 16.2491 26.9613 16.3632 26.9832 16.5257C27.0051 16.6866 26.8941 16.8351 26.7332 16.857C23.0348 17.3679 19.1035 17.6257 15.0457 17.6257Z" fill="#9A9A9A"/>
<path d="M7.54017 19.717C8.5058 19.8279 11.1011 19.9389 14.8714 19.9389C18.6417 19.9389 21.2371 19.8279 22.2011 19.717C22.2746 19.4826 22.3464 19.1529 22.3996 18.8092C19.8042 19.0248 17.2605 19.0436 14.8714 19.0436C11.9652 19.0436 9.66674 19.0045 7.3433 18.8092C7.39643 19.1529 7.4683 19.4826 7.54017 19.717ZM14.8714 20.5295C10.7933 20.5295 8.12143 20.4045 7.28236 20.2795C7.17924 20.2639 7.09174 20.1951 7.05267 20.0982C6.89643 19.7076 6.76986 19.0217 6.71361 18.5154C6.70424 18.4264 6.73392 18.3389 6.79642 18.2764C6.85736 18.2123 6.9433 18.1811 7.0308 18.1873C9.45736 18.4092 11.8308 18.4529 14.8714 18.4529C17.3605 18.4529 20.0152 18.4326 22.712 18.1873C22.8011 18.1811 22.8855 18.2123 22.948 18.2764C23.0089 18.3389 23.0386 18.4279 23.0292 18.5154C22.973 19.0217 22.8464 19.7092 22.6886 20.0982C22.6511 20.1951 22.5636 20.2639 22.4605 20.2795C21.6214 20.4045 18.948 20.5295 14.8714 20.5295Z" fill="#9A9A9A"/>
<path d="M8.38953 12.6199C9.94734 13.5887 13.2692 15.5184 15.0458 15.5184C16.8223 15.5184 20.1458 13.5887 21.702 12.6199H8.38953ZM15.0458 16.109C12.5098 16.109 7.4364 12.7152 7.22078 12.5715C7.11297 12.4996 7.06609 12.3637 7.10359 12.2402C7.14109 12.1152 7.25515 12.0293 7.38328 12.0293H22.7083C22.838 12.0293 22.952 12.1152 22.9895 12.2402C23.027 12.3637 22.9786 12.4996 22.8708 12.5715C22.6567 12.7152 17.5817 16.109 15.0458 16.109Z" fill="#9A9A9A"/>
<path d="M6.16523 14.4313C6.13866 14.4313 6.1246 14.4328 6.11835 14.4344C6.07773 14.4437 6.0496 14.4922 6.03398 14.5828C5.97616 14.9203 6.17616 15.425 6.3621 15.5391C6.62773 15.7047 8.19179 15.8859 9.05273 15.8859C9.1371 15.8859 9.19491 15.8844 9.23398 15.8813C8.34804 15.2141 6.69804 14.4313 6.16523 14.4313ZM9.05273 16.4188C8.39179 16.4188 6.53241 16.2703 6.08554 15.9938C5.66366 15.7328 5.43085 14.9719 5.51366 14.4922C5.56679 14.1797 5.74804 13.9688 6.00898 13.9141C6.05741 13.9031 6.10898 13.8984 6.16523 13.8984C6.93866 13.8984 8.81523 14.8781 9.62929 15.5156C9.77148 15.6281 9.84179 15.7875 9.82148 15.9547C9.7996 16.1328 9.67929 16.2875 9.4996 16.3672C9.43085 16.3984 9.32929 16.4188 9.05273 16.4188Z" fill="#9A9A9A"/>
<path d="M20.8581 15.8813C20.8956 15.8844 20.9534 15.8859 21.0394 15.8859C21.8988 15.8859 23.4644 15.7047 23.73 15.5391C23.9159 15.425 24.1144 14.9203 24.0566 14.5828C24.0425 14.4922 24.0128 14.4437 23.9722 14.4344C23.9659 14.4328 23.9519 14.4313 23.9253 14.4313C23.3941 14.4313 21.7441 15.2141 20.8581 15.8813ZM20.5909 16.3672C20.4113 16.2875 20.2909 16.1328 20.2691 15.9547C20.2488 15.7875 20.3191 15.6281 20.4613 15.5156C21.2753 14.8781 23.1519 13.8984 23.9253 13.8984C23.9831 13.8984 24.0331 13.9031 24.0816 13.9141C24.3425 13.9688 24.5238 14.1797 24.5769 14.4922C24.6597 14.9719 24.4284 15.7328 24.005 15.9938C23.5581 16.2703 21.6988 16.4188 21.0394 16.4188C20.7613 16.4188 20.6597 16.3984 20.5909 16.3672Z" fill="#9A9A9A"/>
<path d="M8.4128 10.5535H21.6847C21.2878 9.32695 20.8144 8.27383 20.6003 8.16601C20.2675 8.05664 18.0003 7.89414 15.5628 7.89414C15.3894 7.89414 15.219 7.89414 15.0487 7.8957C14.9065 7.89414 14.769 7.89414 14.6331 7.89414C12.3456 7.89414 9.89874 8.08633 9.51436 8.21289C9.30342 8.31601 8.82061 9.34883 8.4128 10.5535ZM22.0737 11.1441H8.01749C7.92686 11.1441 7.84092 11.0988 7.7878 11.0223C7.73467 10.9457 7.71905 10.8473 7.74717 10.7566C8.02061 9.89101 8.72217 7.85195 9.34405 7.64883C9.85186 7.4832 12.5925 7.27851 15.0487 7.30508C15.2144 7.30351 15.3878 7.30351 15.5628 7.30351C17.8081 7.30351 20.2925 7.4457 20.7753 7.60351C21.3769 7.80039 22.0175 9.66601 22.3456 10.7613C22.3722 10.8504 22.3565 10.9488 22.3034 11.0238C22.2503 11.1004 22.1644 11.1441 22.0737 11.1441Z" fill="#9A9A9A"/>
<path d="M5.92198 12.7203C5.90791 12.7203 5.89229 12.7188 5.87823 12.7172C5.71729 12.6922 5.60791 12.5422 5.63135 12.3813C5.75323 11.5609 5.20166 10.9484 5.11885 10.8906C4.98604 10.7969 4.95479 10.6125 5.04698 10.4797C5.13916 10.3453 5.32198 10.3141 5.45479 10.4063C5.71104 10.5875 6.36729 11.4125 6.21104 12.4672C6.18916 12.6141 6.06416 12.7203 5.92198 12.7203Z" fill="#9A9A9A"/>
<path d="M25.2009 11.2982C25.3056 11.3201 25.5681 11.3482 25.9822 11.3482C26.915 11.3482 27.5744 11.2217 27.7384 11.1217C27.7447 11.0248 27.6806 10.9154 27.6212 10.8357C27.1837 10.2467 25.8056 9.6498 25.1369 9.6498C25.0962 9.6498 25.065 9.65137 25.0384 9.65449C24.9994 10.0295 25.0806 11.0357 25.2009 11.2982ZM25.9822 11.9389C25.0853 11.9389 24.9181 11.8295 24.8619 11.7936C24.3994 11.4857 24.4509 9.72012 24.4509 9.70293C24.4634 9.46855 24.4884 9.2498 24.6712 9.15449C24.7931 9.09043 24.9494 9.05762 25.1369 9.05762C25.9712 9.05762 27.5291 9.72793 28.09 10.4811C28.3572 10.8389 28.3478 11.1373 28.2947 11.3248C28.1478 11.8326 26.9556 11.9389 25.9822 11.9389Z" fill="#9A9A9A"/>
<path d="M24.0376 12.657C23.8954 12.657 23.7704 12.5523 23.7485 12.4055C23.5923 11.3539 24.311 10.5852 24.5735 10.3992C24.7079 10.3055 24.8892 10.3383 24.9829 10.4711C25.0751 10.6055 25.0423 10.7898 24.9095 10.8836C24.7673 10.9836 24.2157 11.5555 24.3282 12.3195C24.3517 12.4789 24.2407 12.6305 24.0814 12.6539C24.0673 12.6555 24.0517 12.657 24.0376 12.657Z" fill="#9A9A9A"/>
<path d="M4.7082 24.0875C4.54727 24.0875 4.41602 23.9562 4.41602 23.7922V21.3812C4.41602 21.2188 4.54727 21.0859 4.7082 21.0859C4.8707 21.0859 5.00195 21.2188 5.00195 21.3812V23.7922C5.00195 23.9562 4.8707 24.0875 4.7082 24.0875Z" fill="#9A9A9A"/>
<path d="M5.7502 24.0875C5.58926 24.0875 5.45801 23.9562 5.45801 23.7922V21.3812C5.45801 21.2188 5.58926 21.0859 5.7502 21.0859C5.9127 21.0859 6.04395 21.2188 6.04395 21.3812V23.7922C6.04395 23.9562 5.9127 24.0875 5.7502 24.0875Z" fill="#9A9A9A"/>
<path d="M25.3816 24.0875C25.2191 24.0875 25.0879 23.9562 25.0879 23.7922V21.3812C25.0879 21.2188 25.2191 21.0859 25.3816 21.0859C25.5426 21.0859 25.6738 21.2188 25.6738 21.3812V23.7922C25.6738 23.9562 25.5426 24.0875 25.3816 24.0875Z" fill="#9A9A9A"/>
<path d="M24.341 24.0875C24.1801 24.0875 24.0488 23.9562 24.0488 23.7922V21.3812C24.0488 21.2188 24.1801 21.0859 24.341 21.0859C24.5035 21.0859 24.6348 21.2188 24.6348 21.3812V23.7922C24.6348 23.9562 24.5035 24.0875 24.341 24.0875Z" fill="#9A9A9A"/>
</svg>
