<svg width="31" height="31" viewBox="0 0 31 31" fill="none" xmlns="http://www.w3.org/2000/svg">
<path d="M17.3942 14.8012C17.3348 14.8012 17.2755 14.784 17.2223 14.7512C17.177 14.7215 16.0895 14.0184 14.8208 12.895C14.6911 12.7778 14.6786 12.5793 14.7942 12.4481C14.9114 12.3184 15.1114 12.3059 15.2426 12.4215C16.1833 13.2575 17.0395 13.8622 17.3942 14.1043C18.1348 13.595 21.0848 11.4653 22.4473 8.93871C23.4426 7.09184 22.9114 5.69028 22.0817 4.9934C21.1239 4.18871 19.3551 3.99809 17.5645 5.39184C17.4505 5.4809 17.2911 5.4809 17.1755 5.39184C15.9692 4.46371 14.6364 4.15121 13.5192 4.53871C12.6833 4.82778 12.0817 5.47934 11.8692 6.32621C11.827 6.49496 11.6551 6.59965 11.4848 6.5559C11.3145 6.51371 11.2114 6.34184 11.2536 6.17309C11.5192 5.11528 12.2692 4.30121 13.3114 3.94184C14.5723 3.50434 16.0395 3.79965 17.3692 4.74809C19.3755 3.29965 21.3739 3.56996 22.4911 4.51059C23.7708 5.58715 23.9739 7.44184 23.0067 9.23871C21.3692 12.2715 17.7208 14.6512 17.5676 14.7497C17.5145 14.784 17.4551 14.8012 17.3942 14.8012Z" fill="#9A9A9A"/>
<path d="M9.50566 7.29902C8.85878 7.29902 8.29472 7.59902 7.99472 8.10215C7.64472 8.68652 7.69003 9.47246 8.11816 10.2568C9.00722 11.8881 10.8885 13.2678 11.4666 13.6646C12.0432 13.2631 13.9213 11.874 14.8025 10.2396C15.2244 9.45684 15.265 8.67246 14.915 8.08809C14.615 7.58809 14.051 7.28809 13.4072 7.28809C12.8244 7.28809 12.215 7.52246 11.6463 7.96621C11.5322 8.05371 11.3713 8.05527 11.2572 7.96621C10.69 7.52871 10.0838 7.29902 9.50566 7.29902ZM11.4666 14.3631C11.4072 14.3631 11.3478 14.3459 11.2963 14.3131C11.19 14.2459 8.6916 12.6318 7.56035 10.56C7.02285 9.57402 6.98222 8.55996 7.44941 7.77871C7.86503 7.08184 8.63378 6.66621 9.50566 6.66621C10.1572 6.66621 10.8244 6.89277 11.4494 7.32402C12.0775 6.88652 12.7494 6.65527 13.4072 6.65527C14.276 6.65527 15.0432 7.06934 15.4603 7.76465C15.9275 8.54277 15.8916 9.55371 15.3619 10.5396C14.2385 12.6178 11.7447 14.2443 11.64 14.3131C11.5869 14.3459 11.5275 14.3631 11.4666 14.3631Z" fill="#9A9A9A"/>
<path d="M21.7553 17.3483C21.7428 17.3483 21.7303 17.3468 21.7178 17.3452C21.5428 17.3249 21.4194 17.1671 21.4397 16.9936C21.6037 15.6296 22.0834 15.1046 22.6053 14.7952C22.71 13.4561 23.3975 12.9577 23.7975 12.7811C23.9334 12.0983 24.3287 11.6108 24.6741 11.3718C24.9412 11.1874 25.2194 11.1186 25.4584 11.178C25.6287 11.2186 25.7319 11.3905 25.6912 11.5593C25.6491 11.7296 25.4772 11.8327 25.3069 11.7921C25.2756 11.7843 25.1772 11.7952 25.035 11.8921C24.7834 12.0655 24.4662 12.4733 24.3959 13.0515C24.3803 13.178 24.2897 13.2827 24.1662 13.3171C23.9006 13.3921 23.2772 13.7061 23.2287 14.9999C23.2241 15.114 23.1584 15.2171 23.0569 15.2686C22.66 15.4733 22.2225 15.7983 22.0709 17.0686C22.0506 17.2296 21.9147 17.3483 21.7553 17.3483Z" fill="#9A9A9A"/>
<path d="M17.0073 27.7866C16.7776 27.7866 16.5776 27.7522 16.4214 27.6772C16.1823 27.56 16.0448 27.3413 16.0448 27.0803L16.0417 25.8616C16.0401 24.885 16.037 23.7835 16.0323 22.5632C16.0245 20.8725 16.7214 19.1944 17.8089 18.2882C17.9417 18.1757 18.1417 18.1944 18.2542 18.3288C18.3667 18.4616 18.3495 18.6616 18.2151 18.7725C17.2807 19.5522 16.6589 21.0725 16.6667 22.56C16.6714 23.7803 16.6745 24.8835 16.676 25.86L16.6792 27.0788C16.6792 27.0913 16.6807 27.0975 16.6807 27.0975C16.6823 27.0975 16.8151 27.21 17.3901 27.1194C18.4948 26.946 19.876 26.26 20.0542 25.9616C19.4885 23.0132 19.9229 22.3272 20.301 22.0678C22.1573 20.796 24.2948 19.2428 24.6604 18.8444C25.2432 18.2132 26.4151 15.5663 26.4698 15.2678C26.5245 14.9491 26.4667 11.9303 26.3432 10.9022C25.8026 11.0131 25.5635 11.4428 25.4917 14.3413C25.487 14.5163 25.3417 14.6538 25.1667 14.6507C24.9917 14.646 24.8526 14.5007 24.8573 14.3257C24.9432 10.8553 25.2807 10.36 26.5729 10.235C26.726 10.2194 26.8682 10.3178 26.9089 10.4663C27.087 11.1116 27.1714 14.9475 27.0932 15.3788C27.0167 15.8194 25.7854 18.5616 25.1276 19.2725C24.626 19.8163 21.987 21.6803 20.6604 22.5882C20.5698 22.6507 20.1464 23.1007 20.6854 25.885C20.7573 26.2538 20.3792 26.5413 20.2542 26.6366C19.6182 27.1194 18.0307 27.7866 17.0073 27.7866Z" fill="#9A9A9A"/>
<path d="M20.468 20.8974C20.3305 20.8974 20.2039 20.8068 20.1633 20.6677C20.1164 20.499 20.2148 20.324 20.382 20.2771C21.6445 19.9209 22.4461 18.9974 22.9758 18.3881C23.2102 18.1177 23.3961 17.9052 23.5773 17.7802C23.6336 17.7412 23.7211 17.6849 23.8289 17.6162C24.4039 17.2474 26.1555 16.124 26.2586 15.2974C26.2773 15.1412 26.2305 15.0099 26.1117 14.8802C25.8523 14.6037 25.3695 14.7146 24.6758 15.2099C24.218 15.5381 23.757 15.9802 23.3508 16.3709C22.9914 16.7177 22.6805 17.0162 22.4352 17.1724C22.0773 17.399 21.6086 17.4724 21.0648 17.5568C20.157 17.6974 19.1289 17.8568 18.2367 18.7537C18.1133 18.8771 17.9117 18.8787 17.7883 18.7552C17.6633 18.6318 17.6633 18.4318 17.7867 18.3084C18.8258 17.2631 20.0633 17.0709 20.9664 16.9318C21.4398 16.8584 21.8492 16.7943 22.0945 16.6396C22.2852 16.5162 22.5898 16.2256 22.9117 15.9162C23.3336 15.5115 23.8102 15.0521 24.307 14.6974C25.3008 13.9849 26.0633 13.9021 26.5758 14.449C26.8227 14.7146 26.9305 15.0349 26.8883 15.3756C26.7648 16.3631 25.4461 17.3302 24.1727 18.1474C24.0727 18.2115 23.9914 18.2631 23.9383 18.3006C23.8227 18.3802 23.6523 18.5756 23.4555 18.8006C22.8758 19.4693 21.9992 20.4771 20.5555 20.8849C20.5273 20.8927 20.4977 20.8974 20.468 20.8974Z" fill="#9A9A9A"/>
<path d="M8.49655 17.3483C8.33874 17.3483 8.20124 17.2296 8.18249 17.0686C8.02936 15.7983 7.59342 15.4733 7.19499 15.2686C7.09499 15.2171 7.02936 15.114 7.02467 14.9999C6.97467 13.7061 6.35124 13.3921 6.08561 13.3171C5.96217 13.2827 5.87311 13.178 5.85749 13.0515C5.78717 12.4733 5.46842 12.0655 5.21686 11.8921C5.07467 11.7952 4.9778 11.7843 4.94499 11.7921C4.77624 11.8327 4.6028 11.7296 4.56217 11.5593C4.51999 11.3905 4.62311 11.2186 4.79342 11.178C5.03249 11.1186 5.31061 11.1874 5.5778 11.3718C5.92311 11.6108 6.31842 12.0983 6.45592 12.7811C6.85436 12.9577 7.54186 13.4561 7.64811 14.7952C8.16999 15.1046 8.64811 15.6296 8.81217 16.9936C8.83405 17.1671 8.70905 17.3249 8.53561 17.3452C8.52155 17.3468 8.50905 17.3483 8.49655 17.3483Z" fill="#9A9A9A"/>
<path d="M13.2451 27.7866C12.2217 27.7866 10.6357 27.1194 9.99981 26.6366C9.87481 26.5413 9.49512 26.2538 9.56699 25.885C10.1076 23.1007 9.68262 22.6507 9.59199 22.5882C8.26543 21.6803 5.62637 19.8163 5.12481 19.2725C4.46699 18.5616 3.23731 15.8194 3.15918 15.3772C3.08262 14.9475 3.16699 11.1116 3.34356 10.4663C3.38574 10.3178 3.52637 10.2194 3.68106 10.235C4.97324 10.36 5.30918 10.8553 5.39512 14.3257C5.39981 14.5007 5.26074 14.646 5.08731 14.6507C4.91074 14.6553 4.76543 14.5163 4.76231 14.3413C4.68887 11.4428 4.45137 11.0131 3.91074 10.9022C3.78574 11.9303 3.72949 14.9491 3.78418 15.2678C3.83887 15.5663 5.00918 18.2132 5.59199 18.8444C5.95918 19.2428 8.09668 20.796 9.95137 22.0678C10.3295 22.3272 10.7654 23.0132 10.1982 25.9616C10.3764 26.26 11.7592 26.946 12.8623 27.1194C13.4201 27.2069 13.5623 27.1053 13.5732 27.096C13.5732 27.0944 13.5748 27.0882 13.5748 27.0788L13.5779 25.86C13.5795 24.8835 13.5811 23.7803 13.5873 22.56C13.5936 21.0725 12.9717 19.5522 12.0389 18.7725C11.9029 18.6616 11.8857 18.4616 11.9982 18.3288C12.1107 18.1944 12.3107 18.1757 12.4451 18.2882C13.5326 19.1944 14.2295 20.8725 14.2217 22.5632C14.2154 23.7835 14.2139 24.885 14.2107 25.8616L14.2092 27.0803C14.2076 27.3413 14.0701 27.56 13.8311 27.6772C13.6764 27.7522 13.4748 27.7866 13.2451 27.7866Z" fill="#9A9A9A"/>
<path d="M9.78372 20.8976C9.7556 20.8976 9.72591 20.8929 9.69622 20.8851C8.25247 20.4772 7.37591 19.4694 6.79622 18.8007C6.59935 18.5757 6.4306 18.3804 6.31341 18.3007C6.26185 18.2632 6.1806 18.2116 6.0806 18.1476C4.80716 17.3304 3.48841 16.3632 3.36497 15.3757C3.32122 15.0351 3.42904 14.7147 3.67747 14.4491C4.18841 13.9022 4.95247 13.9851 5.94622 14.696C6.44154 15.0522 6.91966 15.5116 7.34154 15.9163C7.66341 16.2241 7.96654 16.5163 8.15872 16.6397C8.40404 16.7944 8.81185 16.8585 9.28529 16.9319C10.19 17.071 11.4275 17.2632 12.4665 18.3085C12.59 18.4319 12.5884 18.6319 12.465 18.7554C12.34 18.8788 12.1384 18.8772 12.0165 18.7538C11.1243 17.8569 10.0962 17.6976 9.18841 17.5569C8.64466 17.4726 8.17435 17.3991 7.8181 17.1726C7.57122 17.0163 7.26029 16.7163 6.90091 16.371C6.49466 15.9804 6.03372 15.5382 5.57591 15.2101C4.88372 14.7147 4.40091 14.6038 4.14154 14.8804C4.02122 15.0101 3.97435 15.1413 3.99466 15.2976C4.09779 16.1241 5.84779 17.2476 6.42279 17.6163C6.5306 17.6851 6.6181 17.7413 6.67591 17.7804C6.85716 17.9054 7.04154 18.1179 7.27591 18.3882C7.8056 18.9976 8.60872 19.921 9.86966 20.2772C10.0384 20.3241 10.1353 20.4991 10.0884 20.6679C10.0493 20.8069 9.92122 20.8976 9.78372 20.8976Z" fill="#9A9A9A"/>
</svg>
