<svg width="101" height="34" viewBox="0 0 101 34" fill="none" xmlns="http://www.w3.org/2000/svg">
<path fill-rule="evenodd" clip-rule="evenodd" d="M79.2716 32.0962C85.6839 35.2579 94.4058 33.8175 98.3905 27.5205C102.163 21.5601 101.306 12.7017 96.8096 7.34949C94.2282 4.27653 90.7206 2.40678 86.846 1.52424C82.7977 0.600633 78.6488 0.919988 74.7105 2.08875C63.2919 5.47709 54.6534 16.3696 41.3386 21.2355C28.0105 26.104 14.2915 24.6079 0.93161 10.0792L0.512871 9.62472L0.705017 10.1561C1.02172 11.0333 3.70245 14.1076 4.47102 14.806C17.4546 26.6062 29.8471 28.2242 41.6513 24.2316C56.2171 19.3048 64.515 6.85787 75.055 3.49338C78.7137 2.32594 82.6056 2.01189 86.5346 2.90635C90.1031 3.71997 93.3497 5.42806 95.7296 8.26117C99.8309 13.1429 100.641 21.3189 97.1965 26.7599C93.6001 32.4407 85.6547 33.6664 79.8931 30.824C77.2468 29.5188 75.0829 27.3642 74.1818 24.5032C74.032 24.0262 73.93 23.5412 73.8386 23.0495L73.7286 22.4599L73.6146 23.0495C72.8408 27.0527 75.9296 30.4477 79.2716 32.0962Z" fill="white"/>
</svg>
