<svg width="16" height="16" viewBox="0 0 16 16" fill="none" xmlns="http://www.w3.org/2000/svg">
<path d="M13.3669 4.60228L10.9631 2.19845C10.8522 2.08757 10.7162 2.00626 10.5684 1.96191V1.922H2.28948C2.02781 1.922 1.81641 2.1334 1.81641 2.39508V13.2759C1.81641 13.5375 2.02781 13.749 2.28948 13.749H13.1703C13.432 13.749 13.6434 13.5375 13.6434 13.2759V5.2705C13.6434 5.01918 13.5443 4.77969 13.3669 4.60228ZM5.83757 2.98642H9.6222V4.52393H5.83757V2.98642ZM12.5789 12.6845H2.88083V2.98642H4.89142V4.99701C4.89142 5.25868 5.10282 5.47008 5.36449 5.47008H10.0953C10.3569 5.47008 10.5684 5.25868 10.5684 4.99701V3.30871L12.5789 5.31929V12.6845ZM7.72988 6.80062C6.55458 6.80062 5.60103 7.75417 5.60103 8.92947C5.60103 10.1048 6.55458 11.0583 7.72988 11.0583C8.90519 11.0583 9.85874 10.1048 9.85874 8.92947C9.85874 7.75417 8.90519 6.80062 7.72988 6.80062ZM7.72988 10.1122C7.07645 10.1122 6.54719 9.58291 6.54719 8.92947C6.54719 8.27603 7.07645 7.74677 7.72988 7.74677C8.38332 7.74677 8.91258 8.27603 8.91258 8.92947C8.91258 9.58291 8.38332 10.1122 7.72988 10.1122Z" fill="white"/>
</svg>
