<svg width="19" height="18" viewBox="0 0 19 18" fill="none" xmlns="http://www.w3.org/2000/svg">
<path d="M9.96236 2.56371C9.96236 2.39164 9.89401 2.22662 9.77234 2.10494C9.65066 1.98327 9.48564 1.91492 9.31357 1.91492C9.1415 1.91492 8.97648 1.98327 8.8548 2.10494C8.73313 2.22662 8.66478 2.39164 8.66478 2.56371V7.97032H3.25817C3.0861 7.97032 2.92107 8.03867 2.7994 8.16035C2.67773 8.28202 2.60938 8.44704 2.60938 8.61911C2.60938 8.79118 2.67773 8.95621 2.7994 9.07788C2.92107 9.19955 3.0861 9.2679 3.25817 9.2679H8.66478V14.6745C8.66478 14.8466 8.73313 15.0116 8.8548 15.1333C8.97648 15.255 9.1415 15.3233 9.31357 15.3233C9.48564 15.3233 9.65066 15.255 9.77234 15.1333C9.89401 15.0116 9.96236 14.8466 9.96236 14.6745V9.2679H15.369C15.541 9.2679 15.7061 9.19955 15.8277 9.07788C15.9494 8.95621 16.0178 8.79118 16.0178 8.61911C16.0178 8.44704 15.9494 8.28202 15.8277 8.16035C15.7061 8.03867 15.541 7.97032 15.369 7.97032H9.96236V2.56371Z" fill="white"/>
</svg>
