<svg width="11" height="11" viewBox="0 0 11 11" fill="none" xmlns="http://www.w3.org/2000/svg">
<path d="M5.82667 0.768282C5.82667 0.638466 5.7751 0.513966 5.6833 0.422172C5.59151 0.330378 5.46701 0.278809 5.33719 0.278809C5.20738 0.278809 5.08288 0.330378 4.99108 0.422172C4.89929 0.513966 4.84772 0.638466 4.84772 0.768282V4.84723H0.768771C0.638954 4.84723 0.514454 4.8988 0.42266 4.99059C0.330866 5.08239 0.279297 5.20689 0.279297 5.3367C0.279297 5.46652 0.330866 5.59102 0.42266 5.68281C0.514454 5.77461 0.638954 5.82618 0.768771 5.82618H4.84772V9.90513C4.84772 10.0349 4.89929 10.1594 4.99108 10.2512C5.08288 10.343 5.20738 10.3946 5.33719 10.3946C5.46701 10.3946 5.59151 10.343 5.6833 10.2512C5.7751 10.1594 5.82667 10.0349 5.82667 9.90513V5.82618H9.90561C10.0354 5.82618 10.1599 5.77461 10.2517 5.68281C10.3435 5.59102 10.3951 5.46652 10.3951 5.3367C10.3951 5.20689 10.3435 5.08239 10.2517 4.99059C10.1599 4.8988 10.0354 4.84723 9.90561 4.84723H5.82667V0.768282Z" fill="white"/>
</svg>
