<svg width="100" height="100" viewBox="0 0 100 100" fill="none" xmlns="http://www.w3.org/2000/svg">
<path d="M77.2917 42.7448L84.2917 38.625L84.4115 38.6823C84.4375 38.6927 84.4636 38.6979 84.4896 38.6979C84.5677 38.6979 84.6354 38.6563 84.6667 38.5885C84.7136 38.4896 84.6719 38.375 84.5729 38.3281L84.4011 38.25L82.3281 32.4844L82.4011 32.4323C82.4896 32.3698 82.5104 32.25 82.4479 32.1615C82.3854 32.0729 82.2656 32.0521 82.1771 32.1146L82.0886 32.1771L77.5677 30.0781L77.5625 29.9635C77.5521 29.8854 77.5 29.8177 77.4271 29.7969C77.3594 29.7552 77.2761 29.7552 77.2084 29.8021L77.1198 29.8646L72.6042 27.7604L72.5938 27.651C72.5834 27.5469 72.4948 27.4688 72.3854 27.474C72.2761 27.4844 72.1979 27.5781 72.2031 27.6823L72.2084 27.7344L66.3802 29.8594L66.2084 29.776C66.1094 29.7292 65.9948 29.7708 65.9479 29.8698C65.9011 29.9635 65.9427 30.0833 66.0417 30.125L66.1615 30.1823L67.4479 38.1615C66.8125 39.5 66.7865 40.9688 67.25 42.2656C64.8698 41.6146 62.4479 41.3646 60.0677 41.4896C57.1771 32.3021 48.5469 25.6406 38.3542 25.6406C25.7865 25.6406 15.6042 35.7552 15.6042 48.2396C15.6042 60.7188 25.7865 70.8385 38.3542 70.8385C38.7448 70.8385 39.1354 70.8281 39.5209 70.8125C41.3646 76.6458 45.5677 81.724 51.5781 84.5208C62.9531 89.8177 76.5 84.9531 81.8334 73.651C86.6042 63.5313 83.1771 51.6927 74.2448 45.5208C75.5417 45.0469 76.6615 44.0885 77.2917 42.7448ZM38.6198 66.5729C38.5313 66.5729 38.4427 66.5729 38.3542 66.5729C28.1771 66.5729 19.8959 58.349 19.8959 48.2396C19.8959 38.1302 28.1771 29.9062 38.3542 29.9062C46.3698 29.9062 53.2136 35.0156 55.75 42.125C49.3334 43.7135 43.6615 48.0521 40.6354 54.4635C38.7865 58.3854 38.1667 62.5625 38.6198 66.5729ZM44.5209 56.276C46.9584 51.1094 51.5313 47.599 56.7031 46.2917C56.7709 46.9323 56.8073 47.5833 56.8073 48.2396C56.8073 56.7969 50.8802 64 42.8854 66.0156C42.5313 62.7865 43.0365 59.4271 44.5209 56.276ZM77.9427 71.8385C73.625 80.9948 62.6146 84.9479 53.4011 80.6562C48.75 78.4948 45.4375 74.6406 43.8438 70.1771C53.7552 67.7344 61.099 58.8385 61.099 48.2396C61.099 47.3906 61.0521 46.5521 60.9584 45.724C63.6771 45.6823 66.4427 46.2344 69.0677 47.4531C78.2813 51.7448 82.2656 62.6875 77.9427 71.8385ZM60.1927 22.0781L64.9063 22.9531L60.1927 23.8333L59.3125 28.5104L58.4323 23.8333L53.7188 22.9531L58.4323 22.0781L59.3125 17.3958L60.1927 22.0781ZM67.7448 12.9167L60.3802 11.5469L67.7448 10.1771L69.125 2.85938L70.5 10.1771L77.8646 11.5469L70.5 12.9167L69.125 20.2344L67.7448 12.9167ZM26.7917 81.1042L22.0781 81.9792L21.1979 86.6615L20.3125 81.9792L15.6042 81.1042L20.3125 80.2292L21.1979 75.5469L22.0781 80.2292L26.7917 81.1042ZM34.0573 89.4844L41.4219 90.849L34.0573 92.2188L32.6823 99.5365L31.3021 92.2188L23.9375 90.849L31.3021 89.4844L32.6823 82.1667L34.0573 89.4844Z" fill="white"/>
<path d="M74.2448 45.5208C75.5417 45.0469 76.6615 44.0885 77.2917 42.7448L74.2188 41.3125L74.2084 41.3333C74.1667 41.3906 74.1042 41.4219 74.0417 41.4219C74.0052 41.4219 73.9688 41.4167 73.9375 41.3906C73.8542 41.3385 73.8281 41.2344 73.8698 41.151L70.875 39.7552C70.8438 39.8229 70.7761 39.8698 70.6979 39.8698C70.6823 39.8698 70.6615 39.8646 70.6406 39.8594C70.5365 39.8281 70.4844 39.7187 70.5156 39.6146L70.5209 39.5938L69.7656 39.2396L67.4479 38.1615C66.8125 39.5 66.7865 40.9687 67.25 42.2656C64.8698 41.6146 62.4479 41.3646 60.0677 41.4896C57.1771 32.3021 48.5469 25.6406 38.3542 25.6406C25.7865 25.6406 15.6042 35.7552 15.6042 48.2396C15.6042 60.7188 25.7865 70.8385 38.3542 70.8385C38.7448 70.8385 39.1354 70.8281 39.5209 70.8125C41.3646 76.6458 45.5677 81.724 51.5781 84.5208C62.9531 89.8177 76.5 84.9531 81.8334 73.651C86.6042 63.5313 83.1771 51.6927 74.2448 45.5208ZM38.6198 66.5729C38.5313 66.5729 38.4427 66.5729 38.3542 66.5729C28.1771 66.5729 19.8959 58.349 19.8959 48.2396C19.8959 38.1302 28.1771 29.9062 38.3542 29.9062C46.3698 29.9062 53.2136 35.0156 55.75 42.125C49.3334 43.7135 43.6615 48.0521 40.6354 54.4635C38.7865 58.3854 38.1667 62.5625 38.6198 66.5729ZM44.5209 56.276C46.9584 51.1094 51.5313 47.599 56.7031 46.2917C56.7709 46.9323 56.8073 47.5833 56.8073 48.2396C56.8073 56.7969 50.8802 64 42.8854 66.0156C42.5313 62.7865 43.0365 59.4271 44.5209 56.276ZM77.9427 71.8385C73.625 80.9948 62.6146 84.9479 53.4011 80.6562C48.75 78.4948 45.4375 74.6406 43.8438 70.1771C53.7552 67.7344 61.099 58.8385 61.099 48.2396C61.099 47.3906 61.0521 46.5521 60.9584 45.724C63.6771 45.6823 66.4427 46.2344 69.0677 47.4531C78.2813 51.7448 82.2656 62.6875 77.9427 71.8385Z" fill="#FFD2DD"/>
<path d="M84.5729 38.3281L84.4011 38.25L78.2032 35.3594L82.3282 32.4844L82.4011 32.4323C82.4896 32.3698 82.5104 32.25 82.4479 32.1615C82.3854 32.0729 82.2657 32.0521 82.1771 32.1146L82.0834 32.1771L77.9792 35.0417L77.5677 30.0781L77.5625 29.9636C77.5521 29.8854 77.5 29.8177 77.4271 29.7969C77.3594 29.7552 77.2761 29.7552 77.2084 29.8021L77.1198 29.8646L73.0104 32.7292L72.6042 27.7604L72.5938 27.6511C72.5834 27.5469 72.4948 27.4688 72.3854 27.474C72.2761 27.4844 72.1979 27.5781 72.2032 27.6823L72.2084 27.7344L72.625 32.7656L66.3802 29.8594L66.2084 29.7761C66.1094 29.7292 65.9948 29.7708 65.9479 29.8698C65.9011 29.9636 65.9427 30.0833 66.0417 30.125L66.1615 30.1823L72.5625 33.1667L70.5209 39.5886L70.5157 39.6146C70.4844 39.7188 70.5417 39.8281 70.6407 39.8594C70.6615 39.8646 70.6823 39.8698 70.6979 39.8698C70.7761 39.8698 70.8438 39.8229 70.875 39.7552C70.8802 39.75 70.8854 39.7396 70.8854 39.7344L72.9219 33.3281L77.5313 35.474L73.8802 41.125C73.875 41.1354 73.8698 41.1406 73.8698 41.1511C73.8282 41.2344 73.8542 41.3386 73.9375 41.3906C73.9688 41.4115 74.0052 41.4219 74.0417 41.4219C74.1042 41.4219 74.1667 41.3906 74.2084 41.3333L74.2188 41.3125L77.8854 35.6406L84.2917 38.625L84.4115 38.6823C84.4375 38.6927 84.4636 38.6979 84.4896 38.6979C84.5677 38.6979 84.6354 38.6563 84.6667 38.5886C84.7136 38.4896 84.6719 38.375 84.5729 38.3281ZM73.2344 33.0469L77.1979 30.2865L77.5938 35.0781L73.2344 33.0469Z" fill="#DD855F"/>
</svg>
