<svg width="100" height="100" viewBox="0 0 100 100" fill="none" xmlns="http://www.w3.org/2000/svg">
<path d="M94.3385 66.401C95.7083 65.7239 96.2656 64.0573 95.5885 62.6823C94.9948 61.4739 93.6354 60.8906 92.3854 61.2344C92.3854 61.2292 92.3906 61.2239 92.3906 61.2187C92.3958 61.1823 92.3854 61.1458 92.3646 61.1198C93.375 60.3229 93.7292 58.901 93.1354 57.7031C93.1146 57.651 93.0885 57.6042 93.0573 57.5573C93.0573 57.5521 93.0521 57.5417 93.0469 57.5364C93.0208 57.4948 92.9948 57.4531 92.9687 57.4114C92.9687 57.4062 92.9635 57.4062 92.9635 57.401C92.8854 57.2812 92.7969 57.1667 92.7031 57.0625C90.7552 54.875 85.6302 54.5208 81.9896 55.651C80.0625 56.25 78.2812 57.2864 77.625 57.901L75.4167 55.5833C77.0156 55.7448 78.4687 55.5989 79.5729 55.026C79.7448 54.9427 79.9062 54.8437 80.0677 54.7292C80.0729 54.7239 80.0729 54.7239 80.0781 54.7187C80.1354 54.6771 80.1875 54.6406 80.2396 54.5989C80.2448 54.5885 80.2552 54.5833 80.2656 54.5781C80.3229 54.5312 80.375 54.4792 80.4323 54.4323C81.7865 53.1771 82.0052 51.151 81.0469 49.6458C81.0521 49.6458 81.0573 49.651 81.0625 49.651C81.1094 49.651 81.151 49.6302 81.1771 49.5937C82.5938 50.6406 84.5938 50.5729 85.9375 49.3281C87.4531 47.9167 87.5469 45.5364 86.1458 44.0156C85.6302 43.4531 84.9844 43.0885 84.3021 42.9219C84.3073 42.9062 84.3073 42.8906 84.3073 42.875C84.3073 42.8698 84.3021 42.8646 84.3021 42.8594C85.2292 42.8698 86.1615 42.5417 86.901 41.8594C88.4167 40.4531 88.5104 38.0729 87.1094 36.5469C85.75 35.0729 83.6562 35.3698 81.9635 36.2083C80.8073 36.776 71.4219 41.4323 65.5781 44.3281L65.2292 44.3594C65.2187 44.3594 65.2135 44.3594 65.2083 44.3646C65.2031 44.3646 65.1927 44.3646 65.1875 44.3698C65.1771 44.375 65.1667 44.3802 65.1562 44.3906C65.151 44.3906 65.1458 44.3906 65.1458 44.3958C65.1406 44.401 65.1354 44.401 65.1354 44.4062L64.1615 43.3489C65.3854 41.1302 66.1771 38.7135 66.1771 36.1875C66.1771 31.9219 62.7344 28.4635 58.4844 28.4635C54.2396 28.4635 50.7969 31.9219 50.7969 36.1875C50.7917 31.9219 47.349 28.4635 43.099 28.4635C38.8542 28.4635 35.4115 31.9219 35.4115 36.1875C35.4115 38.7135 36.2031 41.1302 37.4271 43.3489L36.4531 44.4062C36.4479 44.401 36.4479 44.401 36.4427 44.3958C36.4375 44.3906 36.4375 44.3906 36.4323 44.3854C36.4219 44.3802 36.4115 44.3698 36.401 44.3698C36.3958 44.3646 36.3854 44.3646 36.3802 44.3646C36.375 44.3594 36.3698 44.3594 36.3594 44.3594L36.0104 44.3281C30.1667 41.4323 20.776 36.776 19.625 36.2083C17.9323 35.3698 15.8385 35.0729 14.4792 36.5469C13.0781 38.0729 13.1719 40.4531 14.6875 41.8594C15.4271 42.5417 16.3594 42.8698 17.2865 42.8594C17.2865 42.8646 17.2812 42.8698 17.2812 42.875C17.2812 42.8906 17.2812 42.9062 17.2865 42.9219C16.6042 43.0885 15.9583 43.4531 15.4427 44.0156C14.0365 45.5364 14.1354 47.9167 15.651 49.3281C16.9948 50.5729 18.9948 50.6406 20.4115 49.5937C20.4375 49.6302 20.4792 49.651 20.526 49.651C20.5312 49.651 20.5365 49.6458 20.5417 49.6458C19.5833 51.151 19.8021 53.1771 21.1562 54.4323C21.2135 54.4792 21.2656 54.5312 21.3229 54.5729C21.3333 54.5833 21.3437 54.5885 21.349 54.5989C21.401 54.6406 21.4531 54.6771 21.5104 54.7187C21.5104 54.7187 21.5156 54.7239 21.5208 54.7292C21.6823 54.8437 21.8437 54.9427 22.0156 55.026C23.1198 55.5989 24.5729 55.7448 26.1719 55.5833L23.9635 57.901C23.3073 57.2864 21.526 56.25 19.599 55.651C15.9583 54.5208 10.8333 54.875 8.88541 57.0625C8.79166 57.1667 8.70312 57.2812 8.62499 57.401C8.62499 57.4062 8.61979 57.4062 8.61979 57.4114C8.59374 57.4531 8.5677 57.4948 8.54166 57.5364C8.53645 57.5417 8.53124 57.5521 8.52603 57.5573C8.49999 57.6042 8.47395 57.651 8.45312 57.7031C7.85937 58.901 8.21353 60.3229 9.22395 61.1198C9.20312 61.1458 9.1927 61.1823 9.19791 61.2187C9.19791 61.2239 9.20312 61.2292 9.20312 61.2344C7.95312 60.8906 6.59374 61.4739 5.99999 62.6823C5.32291 64.0573 5.8802 65.7239 7.24999 66.401C7.74478 66.6458 8.27603 66.7292 8.78124 66.6719C8.78124 66.6927 8.78124 66.7083 8.79166 66.7292C8.16145 66.9687 7.61978 67.4323 7.29687 68.0885C6.61978 69.4635 7.18229 71.125 8.55208 71.8073C9.8802 72.4635 11.2448 71.7031 12.1927 70.6771C12.875 69.9323 18.7656 63.5417 21.9479 60.0885L22.4375 59.8333C22.4479 59.8281 22.4583 59.8229 22.4635 59.8125C22.4687 59.8073 22.474 59.8073 22.4792 59.8021C27.4792 64.3385 35.2031 64.0052 39.7917 59.0156C42.0417 56.5677 43.125 53.4479 43.0573 50.3542C46.9167 54.0052 50.7969 56.2604 50.7969 56.2604C50.7969 56.2604 54.6719 54.0052 58.5365 50.3542C58.4687 53.4479 59.5469 56.5677 61.8021 59.0156C66.3854 64.0052 74.1094 64.3385 79.1146 59.8021C79.1146 59.8073 79.1198 59.8073 79.125 59.8125C79.1302 59.8177 79.1406 59.8281 79.151 59.8333L79.6406 60.0885C82.8229 63.5417 88.7135 69.9323 89.3958 70.6771C90.3438 71.7031 91.7083 72.4635 93.0365 71.8073C94.4062 71.125 94.9687 69.4635 94.2917 68.0885C93.9687 67.4323 93.4271 66.9687 92.7969 66.7292C92.8073 66.7083 92.8073 66.6927 92.8073 66.6719C93.3125 66.7292 93.8437 66.6458 94.3385 66.401Z" fill="white"/>
<path d="M47.6563 43.1667L50.7917 42.3125L53.9323 43.1667C54.0729 43.4167 54.2396 43.6562 54.4427 43.875C54.9427 44.4167 55.5573 44.776 56.2136 44.9531C58.4792 45.5 58.8802 46.8489 58.8542 47.8021C58.7761 48.1354 58.7083 48.4792 58.6615 48.8177C58.5886 49.3281 58.5469 49.8437 58.5313 50.3542C54.6719 54.0052 50.7917 56.2604 50.7917 56.2604C50.7917 56.2604 46.9167 54.0052 43.0573 50.3542C43.0417 49.8437 43 49.3281 42.9271 48.8177C42.875 48.4792 42.8125 48.1354 42.7344 47.8021C42.7083 46.8489 43.1094 45.5 45.3698 44.9531C46.0313 44.776 46.6458 44.4167 47.1406 43.875C47.3438 43.6562 47.5156 43.4167 47.6563 43.1667ZM58.4844 28.4635C54.2396 28.4635 50.7917 31.9219 50.7917 36.1875C50.7917 31.9219 47.349 28.4635 43.099 28.4635C38.8542 28.4635 35.4115 31.9219 35.4115 36.1875C35.4115 38.7135 36.2031 41.1302 37.4271 43.3489L37.7865 42.9583L39.099 41.5364L41.6406 38.7708C43.0417 37.2448 45.4115 37.151 46.9323 38.5625C47.8021 39.3646 48.2031 40.4896 48.125 41.5885L50.7917 42.3125L53.4583 41.5885C53.3854 40.4896 53.7865 39.3646 54.6563 38.5625C56.1771 37.151 58.5469 37.2448 59.9479 38.7708L62.4896 41.5364L63.8021 42.9583L64.1615 43.3489C65.3854 41.1302 66.1771 38.7135 66.1771 36.1875C66.1771 31.9219 62.7344 28.4635 58.4844 28.4635Z" fill="#FFD2DD"/>
<path d="M94.2917 68.0886C94.9687 69.4636 94.4062 71.1302 93.0365 71.8073C91.7083 72.4688 90.3438 71.7031 89.3958 70.6771C88.7135 69.9323 82.8229 63.5417 79.6406 60.0886L92.6094 66.8021C92.625 66.8125 92.651 66.8177 92.6719 66.8177C92.7187 66.8177 92.7708 66.7917 92.7917 66.7448C92.7969 66.7396 92.7969 66.7344 92.7969 66.7292C93.4271 66.9688 93.9687 67.4375 94.2917 68.0886ZM92.3646 61.1198C93.375 60.3229 93.7292 58.9011 93.1354 57.7031C93.1146 57.6511 93.0885 57.6042 93.0573 57.5573C93.0573 57.5521 93.0521 57.5417 93.0469 57.5365C93.0208 57.4948 92.9948 57.4531 92.9687 57.4115C92.9687 57.4063 92.9635 57.4063 92.9635 57.4011C92.8854 57.2813 92.7969 57.1667 92.7031 57.0625C90.7552 54.875 85.6302 54.5208 81.9896 55.6511C80.0625 56.25 78.2812 57.2865 77.625 57.9011C77.625 57.9011 78.2344 58.5573 79.1719 59.5781C79.1823 59.5781 79.1927 59.5781 79.2031 59.5781C79.2083 59.5729 79.2188 59.5729 79.2292 59.5729L92.2708 61.0625C92.3073 61.0677 92.3385 61.0886 92.3646 61.1198ZM95.5885 62.6823C94.9948 61.474 93.6354 60.8906 92.3854 61.2344C92.3698 61.2969 92.3177 61.3438 92.2552 61.3438C92.25 61.3438 92.2448 61.3438 92.2396 61.3386L79.9531 59.9375L92.7344 66.5573C92.7812 66.5781 92.8021 66.625 92.8073 66.6719C93.3125 66.7292 93.8437 66.6458 94.3385 66.4011C95.7083 65.724 96.2656 64.0573 95.5885 62.6823ZM8.78124 66.6719C8.78124 66.625 8.80729 66.5781 8.85416 66.5573L21.6354 59.9375L9.34895 61.3386C9.34374 61.3438 9.33853 61.3438 9.33333 61.3438C9.27083 61.3438 9.21874 61.2969 9.20312 61.2344C7.95312 60.8906 6.59374 61.474 5.99999 62.6823C5.32291 64.0573 5.8802 65.724 7.24999 66.4011C7.74478 66.6458 8.27083 66.7292 8.78124 66.6719ZM8.88541 57.0625C8.79166 57.1667 8.70312 57.2813 8.62499 57.4011C8.62499 57.4063 8.61979 57.4063 8.61979 57.4115C8.59374 57.4531 8.5677 57.4948 8.54166 57.5365C8.53645 57.5417 8.53124 57.5521 8.52603 57.5573C8.49999 57.6042 8.47395 57.6511 8.45312 57.7031C7.85937 58.9011 8.21353 60.3229 9.22395 61.1198C9.24999 61.0886 9.28124 61.0677 9.3177 61.0625L22.3594 59.5729C22.3698 59.5729 22.3802 59.5729 22.3906 59.5781C22.401 59.5781 22.4062 59.5781 22.4115 59.5781C22.4167 59.5781 22.4167 59.5781 22.4167 59.5781C23.3542 58.5573 23.9635 57.9011 23.9635 57.9011C23.3073 57.2865 21.526 56.25 19.599 55.6511C15.9531 54.5208 10.8333 54.875 8.88541 57.0625ZM8.91666 66.8177C8.86979 66.8177 8.8177 66.7917 8.79166 66.7448C8.79166 66.7396 8.79166 66.7344 8.79166 66.7292C8.16145 66.9688 7.61978 67.4375 7.29687 68.0886C6.61978 69.4636 7.18229 71.1302 8.55208 71.8073C9.8802 72.4636 11.2448 71.7031 12.1927 70.6771C12.875 69.9323 18.7656 63.5417 21.9479 60.0886L8.97916 66.8021C8.95833 66.8125 8.93749 66.8177 8.91666 66.8177Z" fill="#E4C2B9"/>
<path d="M53.4583 41.5885C53.5 42.1302 53.6562 42.6719 53.9323 43.1614L50.7917 42.3125L53.4583 41.5885ZM92.7344 66.5573L79.9531 59.9375L92.2396 61.3385C92.2448 61.3437 92.25 61.3437 92.2552 61.3437C92.3177 61.3437 92.3698 61.2969 92.3854 61.2344C92.3854 61.2292 92.3906 61.2239 92.3906 61.2187C92.3958 61.1823 92.3854 61.1458 92.3646 61.1198C92.3385 61.0885 92.3073 61.0677 92.2708 61.0625L79.2292 59.5729C79.2188 59.5729 79.2083 59.5729 79.2031 59.5781C79.1927 59.5781 79.1823 59.5781 79.1719 59.5781C79.1667 59.5833 79.1667 59.5833 79.1615 59.5833C79.151 59.5885 79.1354 59.5937 79.125 59.6042C79.125 59.6094 79.125 59.6094 79.1198 59.6094C79.1094 59.6198 79.099 59.6302 79.0938 59.6458C79.0885 59.6562 79.0885 59.6614 79.0833 59.6719C79.0833 59.6771 79.0781 59.6875 79.0781 59.6979C79.0781 59.7083 79.0781 59.7239 79.0781 59.7344C79.0833 59.7396 79.0833 59.7448 79.0833 59.7552C79.0833 59.7604 79.0885 59.7708 79.0938 59.776C79.099 59.7864 79.1042 59.7917 79.1094 59.8021C79.1146 59.8073 79.1198 59.8125 79.125 59.8125C79.1302 59.8229 79.1406 59.8281 79.151 59.8333L79.6406 60.0885L92.6042 66.8021C92.625 66.8125 92.651 66.8177 92.6719 66.8177C92.7188 66.8177 92.7708 66.7917 92.7917 66.7448C92.7969 66.7396 92.7969 66.7344 92.7969 66.7292C92.8021 66.7083 92.8073 66.6927 92.8073 66.6719C92.8021 66.625 92.7812 66.5781 92.7344 66.5573ZM65.6927 44.7864L81.0208 49.6406C81.0312 49.6458 81.0365 49.6458 81.0469 49.6458C81.0521 49.6458 81.0573 49.651 81.0625 49.651C81.1094 49.651 81.151 49.6302 81.1771 49.5937C81.1823 49.5781 81.1927 49.5677 81.1979 49.5521C81.2188 49.4792 81.1771 49.401 81.1042 49.375L65.9479 44.5729L84.1771 43.026C84.2396 43.0208 84.2865 42.9739 84.3021 42.9219C84.3021 42.9062 84.3073 42.8906 84.3073 42.875C84.3073 42.8698 84.3021 42.8646 84.3021 42.8594C84.2865 42.7917 84.224 42.7396 84.1562 42.7448L65.5781 44.3281L65.2292 44.3594C65.2188 44.3594 65.2135 44.3594 65.2083 44.3646C65.1979 44.3646 65.1927 44.3646 65.1875 44.3698C65.1771 44.3698 65.1667 44.3802 65.1562 44.3854C65.151 44.3906 65.1458 44.3906 65.1458 44.3906C65.1458 44.3958 65.1458 44.3958 65.1458 44.3958C65.1406 44.3958 65.1354 44.401 65.1354 44.4062C65.125 44.4167 65.1198 44.4271 65.1146 44.4375C65.1146 44.4427 65.1094 44.4479 65.1094 44.4531C65.1042 44.4635 65.1042 44.4687 65.1042 44.4792C65.099 44.4844 65.1042 44.4844 65.1042 44.4844C65.099 44.4896 65.1042 44.5 65.1042 44.5052C65.1042 44.5156 65.1042 44.526 65.1094 44.5364C65.1094 44.5417 65.1146 44.5469 65.1146 44.5521V44.5573C65.1198 44.5677 65.125 44.5729 65.1302 44.5833C65.1354 44.5833 65.1354 44.5885 65.1354 44.5885L75.2031 55.5521C75.2031 55.5573 75.2031 55.5573 75.2083 55.5573C75.2344 55.5833 75.2656 55.5989 75.3021 55.5989C75.3281 55.5989 75.349 55.5885 75.375 55.5781C75.3802 55.5729 75.3906 55.5677 75.3958 55.5625C75.4531 55.5104 75.4583 55.4219 75.4062 55.3646L65.6927 44.7864ZM47.6562 43.1667L50.7917 42.3125L48.125 41.5885C48.0885 42.1302 47.9323 42.6719 47.6562 43.1667ZM22.4948 59.6458C22.4896 59.6354 22.4792 59.625 22.474 59.6198C22.4687 59.6146 22.4688 59.6146 22.4688 59.6094C22.4635 59.6094 22.4635 59.6042 22.4583 59.6042C22.4531 59.5989 22.4427 59.5937 22.4323 59.5885C22.4271 59.5885 22.4219 59.5833 22.4167 59.5781C22.4167 59.5781 22.4167 59.5781 22.4115 59.5781C22.4063 59.5781 22.401 59.5781 22.3906 59.5781C22.3802 59.5729 22.3698 59.5729 22.3594 59.5729L9.31771 61.0625C9.28125 61.0677 9.25 61.0885 9.22396 61.1146C9.20312 61.1458 9.19271 61.1823 9.19792 61.2187C9.19792 61.2239 9.20312 61.2292 9.20312 61.2344C9.21875 61.2969 9.27083 61.3437 9.33333 61.3437C9.33854 61.3437 9.34375 61.3437 9.34896 61.3385L21.6354 59.9375L8.85417 66.5573C8.80729 66.5781 8.78125 66.625 8.78125 66.6719C8.78125 66.6927 8.78125 66.7083 8.79167 66.7292C8.79167 66.7344 8.79167 66.7396 8.79687 66.7448C8.81771 66.7917 8.86979 66.8177 8.91667 66.8177C8.9375 66.8177 8.96354 66.8125 8.97917 66.8021L21.9479 60.0885L22.4375 59.8333C22.4479 59.8281 22.4583 59.8229 22.4635 59.8125C22.4688 59.8073 22.474 59.8073 22.4792 59.8021C22.4792 59.8021 22.4792 59.8021 22.4792 59.7969C22.4844 59.7917 22.4896 59.7864 22.4948 59.776C22.5 59.7656 22.5052 59.7604 22.5052 59.75C22.5052 59.7448 22.5052 59.7396 22.5104 59.7292C22.5104 59.7187 22.5104 59.7083 22.5104 59.6979C22.5104 59.6875 22.5052 59.6771 22.5052 59.6719C22.5 59.6614 22.5 59.6562 22.4948 59.6458ZM36.474 44.4375C36.4688 44.4271 36.4635 44.4167 36.4531 44.4062C36.4479 44.401 36.4479 44.401 36.4427 44.3958C36.4375 44.3906 36.4375 44.3906 36.4323 44.3854C36.4219 44.3802 36.4115 44.3698 36.401 44.3698C36.3958 44.3646 36.3854 44.3646 36.3802 44.3646C36.375 44.3594 36.3698 44.3594 36.3594 44.3594L36.0104 44.3281L17.4323 42.75C17.3594 42.7396 17.3021 42.7917 17.2865 42.8594C17.2865 42.8646 17.2813 42.8698 17.2813 42.875C17.2813 42.8906 17.2812 42.9062 17.2865 42.9219C17.3021 42.9739 17.349 43.0208 17.4063 43.026L35.6354 44.5729L20.4844 49.3802C20.4115 49.401 20.3698 49.4792 20.3906 49.5521C20.3958 49.5677 20.401 49.5781 20.4115 49.5937C20.4375 49.6302 20.4792 49.651 20.526 49.651C20.5313 49.651 20.5365 49.6458 20.5417 49.6458C20.5521 49.6458 20.5573 49.6458 20.5677 49.6406L35.8958 44.7864L26.1823 55.3646C26.1302 55.4219 26.1354 55.5104 26.1927 55.5625C26.1979 55.5677 26.2083 55.5729 26.2135 55.5781C26.2396 55.5885 26.2604 55.5989 26.2865 55.5989C26.3229 55.5989 26.3542 55.5833 26.3802 55.5573C26.3854 55.5573 26.3854 55.5573 26.3854 55.5521L36.4531 44.5885C36.4531 44.5885 36.4531 44.5833 36.4583 44.5833C36.4635 44.5729 36.4688 44.5677 36.474 44.5573C36.474 44.5573 36.474 44.5573 36.474 44.5521C36.474 44.5469 36.4792 44.5417 36.4792 44.5364C36.4844 44.526 36.4844 44.5156 36.4844 44.5052C36.4844 44.5 36.4844 44.4948 36.4844 44.4844C36.4844 44.4844 36.4844 44.4844 36.4844 44.4792C36.4844 44.4687 36.4792 44.4635 36.4792 44.4531C36.4792 44.4479 36.474 44.4427 36.474 44.4375Z" fill="#FFD2DD"/>
<path d="M57.4271 40.776C57.4271 41.0677 57.1875 41.3073 56.9011 41.3073C56.6094 41.3073 56.3698 41.0677 56.3698 40.776C56.3698 40.4844 56.6094 40.25 56.9011 40.25C57.1875 40.25 57.4271 40.4844 57.4271 40.776ZM44.6875 41.3073C44.9792 41.3073 45.2136 41.0677 45.2136 40.776C45.2136 40.4844 44.9792 40.25 44.6875 40.25C44.4011 40.25 44.1615 40.4844 44.1615 40.776C44.1615 41.0677 44.4011 41.3073 44.6875 41.3073Z" fill="#034A44"/>
</svg>
