<svg width="100" height="100" viewBox="0 0 100 100" fill="none" xmlns="http://www.w3.org/2000/svg">
<path d="M77.25 23.9635C76.901 23.8646 76.5729 23.7083 76.3073 23.526C76.5885 23.7083 76.901 23.8646 77.25 23.9635C77.349 23.9896 77.4479 24.0156 77.5469 24.0312C79.5677 24.3542 82.25 22.7812 82.9531 22.3437L83.099 22.3698C83.1094 22.3698 83.1094 22.3698 83.125 22.3698C83.1979 22.3698 83.25 22.3281 83.2656 22.2604C83.2812 22.1875 83.224 22.1042 83.151 22.1042L83 22.0729C82.5052 21.4844 80.6979 19.4114 78.8177 18.8646C80.0469 16.0469 80.0469 12.25 80.0208 11.3333L80.1042 11.2344C80.1615 11.1771 80.1458 11.0781 80.0885 11.0364C80.0312 10.9792 79.9323 10.9948 79.8906 11.0521L79.7917 11.1614C78.6667 11.3177 73.2708 12.1927 71 14.8542C70.9844 14.8646 70.9688 14.8958 70.9427 14.9219C70.474 14.9375 70.026 15.0208 69.5729 15.1354C70.6875 13.8385 71.3646 12.151 71.3646 10.3073C71.3646 6.22395 68.0365 2.90103 63.9427 2.90103C59.849 2.90103 56.5156 6.22395 56.5156 10.3073C56.5156 13.2604 58.25 15.8073 60.776 17.0052C60.7656 17.1042 60.7656 17.2031 60.7656 17.3021C60.7656 18.0885 61.0625 18.8229 61.5417 19.3698C60.75 19.651 60.0729 20.1302 59.5521 20.7239C59.5052 20.7396 59.4635 20.7396 59.4219 20.75C59.4531 20.7656 59.4635 20.7812 59.4948 20.7917C59.4635 20.7812 59.4531 20.7656 59.4219 20.75C58.9167 20.401 58.3229 20.1198 57.6146 20.0208C54.9479 19.6406 51.4479 21.75 50.474 22.3854C50.4167 22.4114 50.3906 22.4271 50.3906 22.4427L50.2604 22.4271C50.1927 22.4114 50.1042 22.4687 50.1042 22.5417C50.0938 22.6094 50.1458 22.6927 50.2188 22.6927L50.375 22.7239C50.5417 22.9219 50.8542 23.2708 51.2656 23.6927C43.3854 28.1458 38.0521 36.5885 38.0521 46.25V50.0625H10.1406C10.0573 50.0625 10 50.1198 10 50.2031V91.5156C10 91.599 10.0573 91.6562 10.1406 91.6562H38.0208V96.724C38.0208 96.8073 38.0781 96.8646 38.1615 96.8646H89.8281C89.9167 96.8646 89.974 96.8073 89.974 96.724V46.25C90 36.776 84.875 28.4792 77.25 23.9635ZM17.1875 91.3594H10.2813V50.3333H17.1875V91.3594ZM24.2865 91.3594H17.4687V50.3333H24.2865V91.3594ZM31.2188 91.3594H24.5677V50.3333H31.2188V91.3594ZM38.0208 91.3594H31.5V50.3333H38.0208V91.3594ZM76.2083 23.6927C83.8854 27.8489 89.224 35.7864 89.6771 44.9844H82.7292C82.3646 41.4323 81.7865 38.2239 80.9219 35.4479C79.651 31.4114 77.7604 28.2864 75.151 25.875C74.9792 25.7239 74.8125 25.5833 74.6406 25.4271C75.276 24.9739 75.8125 24.3854 76.2083 23.6927ZM83.125 61.2864C83.0677 60.6927 82.8281 60.1042 82.375 59.625C82.026 59.2448 81.599 58.9896 81.151 58.8489L81.2344 58.7396C81.8542 58.6979 82.4635 58.4427 82.9531 57.9896C83 57.9479 83.0417 57.9062 83.0833 57.8489C83.1094 58.9792 83.125 60.1198 83.125 61.2864ZM69.6979 26.3958C70.1823 26.526 70.6615 26.5781 71.125 26.5781C71.2396 26.5781 71.3542 26.5781 71.4635 26.5677C72.3385 26.526 73.1719 26.2864 73.9219 25.875C73.9635 25.9635 74.1042 25.9896 74.1771 25.8906C74.2031 25.8646 74.276 25.7344 74.3281 25.6354C74.3594 25.625 74.3854 25.6094 74.401 25.5833C77.2969 28.0469 79.2969 31.2812 80.625 35.5208C81.4896 38.2656 82.0521 41.4479 82.4167 44.9687H76.224C75.8854 41.1667 75.4167 37.901 74.7969 35.1406C73.9896 31.6094 72.9167 28.8177 71.4375 26.5521C71.3229 26.5521 71.2083 26.5677 71.099 26.5677C72.6198 28.8333 73.7083 31.6354 74.526 35.2135C75.151 37.9427 75.6146 41.1927 75.9531 44.9687H70.224C69.8281 37.0573 69.0781 30.8906 67.599 26.4375C67.599 26.4271 67.599 26.4271 67.599 26.4114C67.7396 26.1562 67.849 25.8906 67.9479 25.6094C68.4844 25.9739 69.0625 26.2292 69.6979 26.3958ZM66.7656 59.8229L66.4115 59.8489C66.3958 59.8489 66.3958 59.8489 66.3958 59.8489H66.3802C66.3698 59.8489 66.3542 59.8646 66.3542 59.8646L66.3281 59.8802L65.3385 58.8073L65.026 58.4687C65.2969 58.3437 65.5365 58.1875 65.7604 57.9792C66.9167 56.9062 66.9896 55.1042 65.9167 53.9531C65.4219 53.4167 64.8177 53.1927 64.1667 53.1614V50.1927H70.1823C70.25 52.6719 70.2917 55.3021 70.3333 58.0625C69.0521 58.6823 67.8385 59.2864 66.7656 59.8229ZM67.3542 26.8333C67.3854 26.8489 67.4115 26.8646 67.4427 26.8489C68.8385 31.2292 69.5729 37.2656 69.9531 44.9687H64.151V28.9167C64.2344 28.901 64.3073 28.8906 64.3906 28.875C65.651 28.5781 66.6771 27.8333 67.3542 26.8333ZM56.276 27.0052C56.375 27.0312 56.474 27.0469 56.5729 27.0573C56.5833 27.0573 56.5833 27.0573 56.599 27.0573C57.5052 27.1875 58.3229 27.0052 59.0156 26.6771C59.2812 27.0989 59.6042 27.4792 59.9896 27.8073C60.0573 27.875 60.1406 27.9323 60.2292 27.9896C61.2448 28.75 62.5417 29.1302 63.8698 28.9583V44.9687H58.0677C58.4219 37.9167 59.0573 32.2396 60.2396 27.9739C60.1562 27.9167 60.0885 27.8489 60 27.7917C58.7865 32.0989 58.1406 37.8281 57.7865 44.9687H52.0521C52.3906 41.1927 52.8594 37.9427 53.4792 35.2135C54.2396 31.8906 55.2292 29.2292 56.599 27.0573C56.474 27.0469 56.375 27.0312 56.276 27.0052C54.9219 29.1875 53.9479 31.8437 53.1823 35.1562C52.5625 37.901 52.0938 41.1823 51.7552 44.9844H45.5625C45.9271 41.4635 46.4896 38.2969 47.3542 35.5364C48.6823 31.3385 50.6406 28.1146 53.4948 25.6667C54.3698 26.2708 55.3281 26.7917 56.276 27.0052ZM57.6562 73.0573C58.3802 72.7031 59.0573 72.2552 59.6771 71.7187L59.8177 71.6615L60.4115 72.0417C60.776 72.4375 61.1875 72.875 61.6094 73.3385H57.6562C57.6562 73.2396 57.6562 73.1562 57.6562 73.0573ZM51.4479 23.8906C51.9531 24.3958 52.5885 24.9739 53.2969 25.5104C53.1563 25.6354 53.0156 25.7656 52.875 25.8906C50.2604 28.2969 48.3698 31.4219 47.099 35.4635C46.224 38.2396 45.6615 41.4479 45.2917 44.9948H38.349C38.7865 35.9271 43.9531 28.0989 51.4479 23.8906ZM44.5885 68.1146C44.5885 77.7708 44.5 86.3177 44.4427 91.5H38.3021V58.3698L40.5625 58.9792C40.6771 59.1614 40.8021 59.3437 40.9583 59.5104C41.3385 59.9219 41.8073 60.1875 42.3125 60.3281C44.0521 60.7396 44.3438 61.7656 44.3333 62.4844C44.276 62.7344 44.2188 63.0052 44.1927 63.2552C43.9792 64.7344 44.1042 66.2552 44.599 67.6927C44.5885 67.8333 44.5885 67.974 44.5885 68.1146ZM41.1146 55.4844C40.4479 56.0885 40.1406 56.9479 40.1979 57.7812L38.3021 58.2864V50.1927H44.8802C44.7969 51.8125 44.7292 53.5 44.6875 55.2344C43.6146 54.4844 42.1146 54.5573 41.1146 55.4844ZM50.8698 73.6615C50.8698 74.3958 50.8698 75.1406 50.8698 75.901V91.5156H44.7292C44.7812 86.3906 44.8698 77.9583 44.8698 68.4375C45.276 69.3698 45.8438 70.2396 46.5625 71.0312C47.776 72.3125 49.2708 73.1979 50.8698 73.6615ZM49.5417 59.8229L49.1875 59.8489C49.1719 59.8489 49.1719 59.8489 49.1719 59.8489H49.1615C49.1458 59.8489 49.1302 59.8646 49.1302 59.8646C49.1302 59.8646 49.1302 59.8646 49.1198 59.8646H49.1042L48.1302 58.8073L47.125 57.7239L45.1771 55.625C45.125 55.5573 45.0521 55.5 44.9792 55.4427C45.026 53.625 45.0938 51.8802 45.1771 50.1927H51.3906C51.2344 52.9219 51.1198 55.8958 51.0521 59.0781L49.5417 59.8229ZM57.375 75.6354V91.5H51.1667V75.8854C51.1667 75.4792 51.1667 75.0677 51.1667 74.6615H57.375C57.375 74.9844 57.375 75.3073 57.375 75.6354ZM57.0365 73.3385C57.151 73.2969 57.2656 73.2396 57.375 73.1979C57.375 73.2396 57.375 73.2969 57.375 73.3385H57.0365ZM57.4583 55.9219C55.5573 56.8646 53.3125 57.9635 51.3177 58.9479C51.4063 55.8073 51.5052 52.8958 51.6562 50.2031H57.5729C57.5312 52.0208 57.4896 53.9375 57.4583 55.9219ZM63.8698 91.5H57.6562V75.6354C57.6562 75.3073 57.6562 74.9844 57.6562 74.6771H62.8542C63.1927 75.0417 63.5469 75.4219 63.8854 75.776V91.5H63.8698ZM63.8698 53.1771C63.2344 53.2031 62.5729 53.401 61.9792 53.6979L60.5938 54.375C60.3542 54.4844 60.0885 54.625 59.8021 54.7656C59.2656 54.8542 58.7604 55.0937 58.3385 55.4844L57.7448 55.7812C57.7708 53.8542 57.8125 51.9792 57.8542 50.1927H63.8698V53.1771ZM63.9427 14.1198C62.3854 14.1198 61.0885 15.2344 60.8073 16.7083C58.4323 15.5573 56.7969 13.1198 56.7969 10.3073C56.7969 6.37499 60 3.18228 63.9427 3.18228C67.8802 3.18228 71.0833 6.37499 71.0833 10.3073C71.0833 12.2604 70.2917 14.0364 69.0104 15.3177C68.276 15.6146 67.6094 16.0364 67.0469 16.5989C66.724 15.1771 65.4531 14.1198 63.9427 14.1198ZM70.3646 91.5H64.151V76.0833C64.2917 76.2396 64.4323 76.3958 64.5781 76.5469L64.8438 76.8281C66.2552 78.349 67.4115 79.6042 67.651 79.8698C68.3594 80.6302 69.375 81.1927 70.3646 80.7604V91.5ZM70.4323 50.1927H76.349C76.4323 51.7135 76.5052 53.3177 76.5729 54.9792L70.5885 57.9219C70.5625 55.2187 70.5052 52.6406 70.4323 50.1927ZM76.8438 69.4948C76.4219 69.75 76.0833 69.974 75.8698 70.1719H75.8125L74.1875 68.4219H74.2188C75.1927 68.5208 76.0833 68.4687 76.8281 68.2135C76.8438 68.6198 76.8438 69.0573 76.8438 69.4948ZM76.8594 73.3385H74.2448C75.1771 72.9583 76.0521 72.4375 76.8594 71.7448C76.8594 72.2656 76.8594 72.8021 76.8594 73.3385ZM76.8594 91.5H70.6458V80.5885C71.5365 80.0104 71.875 78.8594 71.3958 77.8854C71.224 77.5312 70.9583 77.25 70.6458 77.0573V76.8177C70.9115 76.8021 71.1667 76.7292 71.4219 76.6042C72.1823 76.224 72.6198 75.4479 72.5938 74.6615H76.8594C76.8594 75.0677 76.8594 75.4792 76.8594 75.8854V91.5ZM76.8594 54.8542C76.8021 53.2344 76.7292 51.6823 76.6458 50.2031H82.8594C82.9271 51.3906 82.9688 52.5989 83.0104 53.8542C81.9688 52.8646 80.4427 53.0937 79.2031 53.7135C78.9167 53.8229 78.0573 54.2604 76.8594 54.8542ZM78.5104 63.9323C78.4948 63.9323 78.4792 63.9323 78.4688 63.9323C78.4792 63.9323 78.4948 63.9323 78.5104 63.9323ZM77.125 69.3229C77.125 68.9167 77.125 68.4948 77.1094 68.0885C77.1979 68.0417 77.2812 68.0156 77.3646 67.974C77.4948 67.901 77.6198 67.8333 77.7448 67.75C77.7448 67.75 77.7448 67.75 77.7604 67.75C77.8021 67.7187 77.8438 67.6927 77.8854 67.651L77.901 67.6354C77.9427 67.5937 77.9844 67.5677 78.0312 67.5208C79.0469 66.5781 79.2292 65.0729 78.5208 63.9323C78.5521 63.9323 78.5677 63.9167 78.5781 63.9167L78.6667 63.9062C79.7396 64.651 81.2344 64.5781 82.2344 63.651C82.7865 63.1458 83.0833 62.4844 83.1406 61.7917C83.151 63.8073 83.151 65.875 83.151 67.9896C81.8281 67.9167 80.4167 68.0729 79.2135 68.4531C78.4531 68.6927 77.7188 69.0156 77.125 69.3229ZM77.1406 91.5V75.8854C77.1406 74.4635 77.1406 73.0729 77.125 71.7031L77.6458 72.0729L83.151 78.0104C83.1823 83.4896 83.224 88.1771 83.2656 91.4844H77.1406V91.5ZM89.7031 91.5H83.5625C83.5208 88.25 83.4792 83.6719 83.4479 78.3229C84.1719 79.1094 84.7083 79.6719 84.8594 79.8437C85.5833 80.6146 86.625 81.1927 87.6406 80.7031C88.6875 80.1823 89.1094 78.9271 88.6042 77.8698C88.3646 77.3906 87.9688 77.0417 87.5 76.8594V76.8698C87.5 76.8854 87.4896 76.901 87.474 76.901C87.4896 76.8854 87.4896 76.8854 87.5 76.8698V76.8594C87.5 76.8437 87.5156 76.8281 87.5156 76.8021C87.5156 76.7448 87.4896 76.7031 87.4427 76.6771C87.4896 76.7031 87.5156 76.7448 87.5156 76.8021C87.8958 76.8437 88.276 76.7708 88.6458 76.5885C89.1667 76.3385 89.5365 75.8854 89.7031 75.3802V91.5ZM89.7031 74.0573C89.6771 73.974 89.6354 73.875 89.5885 73.7865C89.151 72.901 88.1771 72.4635 87.2448 72.6615L87.1458 72.5781C87.8958 71.974 88.1667 70.901 87.7135 70C87.6979 69.9583 87.6719 69.9323 87.6562 69.8906C87.6562 69.8906 87.6562 69.875 87.6406 69.875C87.6302 69.849 87.599 69.8021 87.5885 69.776C87.5885 69.776 87.5885 69.776 87.5885 69.7604C87.5312 69.6615 87.4583 69.5781 87.3906 69.5104C86.5833 68.6094 85.0729 68.1302 83.4219 67.9896C83.4219 64.3437 83.4219 60.8333 83.3646 57.5C84.0573 56.5 84.0417 55.1354 83.2969 54.1458C83.25 52.7969 83.1979 51.4739 83.125 50.1771H89.7031V74.0573Z" fill="#E4C2B9"/>
<path d="M51.0261 59.6927C51.0261 59.5 51.0365 59.2864 51.0365 59.0885C50.5156 59.3437 50.0209 59.5989 49.5417 59.8229L51.0261 59.6927Z" fill="#E4C2B9"/>
<path d="M77.4948 71.9011C79.0886 73.6198 81.5313 76.25 83.1823 78.0261C83.1823 76.9844 83.1667 75.9167 83.1667 74.8177L77.4948 71.9011Z" fill="#E4C2B9"/>
<path d="M59.4635 20.7812C59.4375 20.7656 59.4219 20.75 59.3958 20.7396C59.4375 20.724 59.4792 20.7239 59.5208 20.7083C59.5052 20.7396 59.4948 20.7656 59.4635 20.7812ZM90 46.25V96.724C90 96.8073 89.9427 96.8646 89.8594 96.8646H38.1927C38.1042 96.8646 38.0521 96.8073 38.0521 96.724V91.6562H10.1406C10.0573 91.6562 10 91.599 10 91.5156V50.1927C10 50.1094 10.0573 50.0521 10.1406 50.0521H38.0208V46.2344C38.0208 36.5781 43.3594 28.1302 51.2344 23.6823C51.3073 23.75 51.375 23.8229 51.4479 23.8906C43.9635 28.0989 38.7865 35.9271 38.349 44.9844H45.2917C45.6615 41.4323 46.2396 38.2239 47.099 35.4479C48.3698 31.4114 50.2604 28.2864 52.875 25.875C53.0156 25.75 53.1563 25.625 53.2969 25.4948C53.3646 25.5521 53.4375 25.6094 53.5104 25.651C50.6563 28.1146 48.6823 31.3385 47.3698 35.5364C46.5052 38.2812 45.9427 41.4635 45.5729 44.9844H51.7708C52.1094 41.1823 52.5781 37.9167 53.1979 35.1562C53.9479 31.8437 54.9323 29.1875 56.2865 27.0052C56.3854 27.0312 56.4844 27.0469 56.5833 27.0573C55.2188 29.2396 54.2292 31.8906 53.4635 35.2135C52.8438 37.9427 52.3802 41.1927 52.0417 44.9687H57.7708C58.125 37.8281 58.776 32.0989 59.9896 27.7917C60.0573 27.8594 60.1406 27.9167 60.2292 27.9739C59.0417 32.2396 58.4063 37.901 58.0521 44.9687H63.8542V28.9739C63.9531 28.9583 64.0417 28.9479 64.1354 28.9323V44.9948H69.9375C69.5573 37.2969 68.8385 31.2552 67.4271 26.875C67.5 26.875 67.5521 26.8333 67.5677 26.75C67.5833 26.6667 67.5833 26.5677 67.5833 26.4844C69.0625 30.9167 69.8281 37.0989 70.2083 45.0104H75.9375C75.599 41.2396 75.1354 37.9844 74.5156 35.2552C73.6927 31.6771 72.6198 28.875 71.0833 26.6094C71.1979 26.6094 71.3073 26.6094 71.4219 26.5937C72.9167 28.8594 73.9792 31.651 74.7812 35.1823C75.401 37.9271 75.8698 41.2083 76.2083 45.0104H82.4062C82.0365 41.4896 81.474 38.3229 80.6146 35.5625C79.2865 31.3229 77.2812 28.0885 74.3854 25.625C74.4583 25.5677 74.5417 25.526 74.6146 25.4687C74.7812 25.6094 74.9531 25.7656 75.1198 25.9167C77.7344 28.3281 79.625 31.4531 80.8958 35.4948C81.7708 38.2656 82.3333 41.4739 82.7031 45.026H89.6458C89.1979 35.8281 83.8594 27.875 76.1771 23.7344C76.2083 23.6823 76.25 23.625 76.276 23.5677C76.5625 23.75 76.8698 23.9062 77.224 24.0052C84.875 28.4792 90 36.776 90 46.25ZM83.1406 50.1927C83.2083 51.4739 83.2656 52.7969 83.3073 54.1614C83.3385 55.2604 83.3646 56.375 83.3802 57.5104C83.4375 60.8489 83.4375 64.3542 83.4375 68C83.4375 68.0312 83.4375 68.0729 83.4375 68.099C83.4375 69.4531 83.4375 70.7917 83.4375 72.099L87.0781 72.5052C87.1198 72.5052 87.1458 72.5365 87.1771 72.5625C87.2031 72.5937 87.2031 72.6198 87.2031 72.6615C87.1927 72.7344 87.1354 72.7865 87.0625 72.7865H87.0521L83.4479 72.3802C83.4479 73.1406 83.4479 73.8854 83.4479 74.6198L87.4427 76.6771C87.4896 76.7031 87.5156 76.7448 87.5156 76.8021C87.5156 76.8177 87.5156 76.8281 87.5 76.8594V76.8698C87.474 76.9167 87.4323 76.9427 87.375 76.9427C87.3438 76.9427 87.3333 76.9427 87.3021 76.9271L83.4375 74.9427C83.4375 76.099 83.4479 77.224 83.4479 78.3229C83.4792 83.6719 83.5208 88.25 83.5625 91.5H89.7031V50.1927H83.1406ZM83.2969 91.5C83.25 88.1927 83.2083 83.5052 83.1823 78.026C83.1823 76.9844 83.1667 75.9167 83.1667 74.8177L77.4948 71.901L77.1406 71.7187C77.1406 73.0833 77.1562 74.4792 77.1562 75.901V91.5156H83.2969V91.5ZM56.9948 68.3958C56.9792 68.4115 56.9792 68.4115 56.9948 68.3958C56.9792 68.4115 56.9792 68.4115 56.9948 68.3958C56.9688 68.4219 56.9219 68.4375 56.8958 68.4375C56.8542 68.4375 56.8229 68.4219 56.7969 68.3958L56.7708 68.3698L51.2656 62.4114C51.2344 63.75 51.2188 65.1302 51.2083 66.5364C51.1771 68.7187 51.1771 70.9844 51.1667 73.3385H57.375C57.375 73.2969 57.375 73.2396 57.375 73.1979C57.375 71.7187 57.375 70.2552 57.375 68.8333C57.375 68.7083 57.375 68.5677 57.375 68.4375C57.375 66.4687 57.3906 64.5677 57.3906 62.7239L51.276 60.7917C51.2656 61.2031 51.2656 61.5937 51.25 62.0052L56.9792 68.2135C57.0365 68.2708 57.0365 68.3542 56.9948 68.3958ZM57.4167 59.4271L51.3073 59.9479C51.3073 60.1302 51.2917 60.3125 51.2917 60.5L57.4062 62.4271C57.4062 61.4114 57.4063 60.4114 57.4167 59.4271ZM51.0104 59.9792L49.9219 60.0729L51.0104 60.4114C51.0104 60.2604 51.0104 60.1198 51.0104 59.9792ZM49.6667 60.2864L50.9792 61.7083C50.9792 61.3698 50.9948 61.0312 50.9948 60.7083L49.6667 60.2864ZM51.151 91.5H57.3594V75.6354C57.3594 75.3073 57.3594 74.9844 57.3594 74.6771H51.151C51.151 75.0833 51.151 75.4948 51.151 75.901V91.5ZM57.6458 91.5H63.8542V74.6771H57.6302C57.6302 75 57.6302 75.3073 57.6302 75.6354V91.5H57.6458ZM63.8698 72.125L60.625 71.7604L63.6875 73.3385H63.8698V72.125ZM64.151 91.5H70.3646V75.6198C70.3646 75.2969 70.3646 74.9687 70.3646 74.6615H66.2708L70.2083 76.6875C70.25 76.7187 70.2812 76.7604 70.2812 76.8177C70.2812 76.8281 70.2813 76.8437 70.2656 76.8698V76.8854C70.2344 76.9271 70.1927 76.9583 70.1354 76.9583C70.1094 76.9583 70.0938 76.9583 70.0677 76.9427L65.6354 74.6615H64.125V76.0677L64.151 91.5ZM70.6198 61.1614L76.7865 63.1042C76.7708 61.7917 76.7448 60.5104 76.7135 59.2604L70.6198 59.7812C70.6042 60.2292 70.6198 60.6927 70.6198 61.1614ZM70.6458 73.3385H76.8594C76.8594 72.8021 76.8594 72.2656 76.8594 71.7448C76.8594 71.5937 76.8594 71.4375 76.8594 71.2812C76.8594 71.2552 76.8594 71.2396 76.8594 71.2135C76.8594 70.6354 76.8594 70.0573 76.8438 69.4948C76.8438 69.0573 76.8438 68.6354 76.8281 68.1979C76.8125 66.5521 76.8021 64.9479 76.7708 63.3958L70.6042 61.4531C70.6042 62.3958 70.6198 63.3542 70.6198 64.3437L74.1875 68.2135C74.2448 68.2708 74.2292 68.3542 74.1875 68.4115C74.1875 68.4115 74.1875 68.4115 74.1875 68.4219C74.1615 68.4531 74.1302 68.4687 74.0885 68.4687C74.0469 68.4687 74.0208 68.4531 73.9896 68.4219L73.9635 68.3958L70.6198 64.776C70.6198 65.6927 70.6198 66.6094 70.6302 67.5365C70.6458 69.4115 70.6458 71.3542 70.6458 73.3385ZM70.6458 75.6354V91.5156H76.8594V75.8854C76.8594 75.4792 76.8594 75.0677 76.8594 74.6615H70.6458C70.6458 74.9844 70.6458 75.3073 70.6458 75.6354ZM83.151 74.4948C83.151 73.7865 83.151 73.0833 83.151 72.3646L77.8438 71.7604L83.151 74.4948ZM76.6302 50.1927C76.7135 51.6719 76.7865 53.2344 76.8438 54.8385C76.8854 56.1614 76.9271 57.526 76.9688 58.9323L80.8542 58.6094C80.9219 58.6094 80.9948 58.651 81.0052 58.7239V58.7396C81.0052 58.75 81.0052 58.7656 81.0052 58.7812C80.9948 58.8385 80.9531 58.8802 80.8802 58.8906L76.9688 59.2187C77 60.5 77.026 61.8229 77.0573 63.1719L78.5365 63.6354C78.6094 63.6667 78.651 63.7344 78.6354 63.8229C78.6354 63.8333 78.6198 63.8489 78.6198 63.8646C78.5938 63.8906 78.5521 63.9167 78.5104 63.9167C78.5104 63.9167 78.5104 63.9167 78.4948 63.9167C78.4792 63.9167 78.4688 63.9167 78.4531 63.9167L77.0573 63.4844C77.0833 64.9739 77.099 66.5104 77.1094 68.0885C77.1094 68.4948 77.1094 68.901 77.125 69.3229C77.125 70 77.1406 70.6927 77.1406 71.3958L83.151 72.0833C83.151 70.7917 83.151 69.4687 83.151 68.1146C83.151 68.0729 83.151 68.0312 83.151 67.9896C83.151 65.875 83.151 63.8073 83.1406 61.7917C83.1406 61.625 83.1406 61.4531 83.1406 61.2708C83.125 60.1042 83.125 58.9635 83.1094 57.8385C83.099 56.4687 83.0677 55.1354 83.026 53.8229C82.9844 52.5833 82.9427 51.3594 82.8698 50.1771L76.6302 50.1927ZM70.4323 50.1927C70.5052 52.625 70.5469 55.2187 70.5729 57.9375C70.5729 58.4583 70.5885 58.9635 70.5885 59.5L76.6875 58.9792C76.6615 57.5989 76.6198 56.276 76.5625 54.9948C76.5052 53.3333 76.4219 51.7239 76.3333 50.2031L70.4323 50.1927ZM66.875 60.2864L70.349 64.0469C70.349 63.1458 70.3333 62.2552 70.3333 61.3854L66.875 60.2864ZM70.3333 61.0729C70.3333 60.651 70.3333 60.2135 70.3229 59.8073L67.1458 60.0729L70.3333 61.0729ZM64.151 50.1927V71.875L64.8021 71.9427C64.9427 72.0573 65.099 72.1719 65.2396 72.2812L64.1354 72.1562V73.3229H70.349C70.349 71.2969 70.349 69.3229 70.349 67.4115C70.349 66.4114 70.349 65.4114 70.3333 64.4375L66.2969 60.0729C66.2969 60.0729 66.2969 60.0729 66.2969 60.0625C66.2969 60.0469 66.2812 60.0469 66.2812 60.0312C66.2812 60.0312 66.2813 60.0208 66.2708 60.0208C66.2708 60.0052 66.2708 60.0052 66.2708 59.9896V59.9792C66.2708 59.9635 66.2708 59.9635 66.2812 59.9479V59.9323C66.2812 59.9219 66.2969 59.9062 66.3125 59.9062C66.3125 59.9062 66.3125 59.9062 66.3281 59.8906C66.3281 59.8906 66.3281 59.8906 66.3385 59.8906C66.3542 59.8802 66.3698 59.8802 66.3698 59.8802H66.3802H66.3958L66.75 59.8489L70.3073 59.5521C70.3073 59.0781 70.2917 58.5833 70.2917 58.1042C70.2656 55.3281 70.2083 52.7135 70.1354 50.2344L64.151 50.1927ZM57.8542 50.1927C57.8021 51.9792 57.7708 53.8385 57.7448 55.7812C57.7448 55.9479 57.7448 56.1042 57.7292 56.276C57.7135 57.1198 57.7031 57.9635 57.7031 58.8229C57.7031 58.8646 57.7031 58.9062 57.7031 58.9479C57.7031 59.0052 57.7031 59.0625 57.7031 59.1198L57.8698 59.1042C57.9271 59.2031 57.9948 59.2864 58.0677 59.3698L57.7031 59.401C57.6875 60.4114 57.6875 61.4427 57.6719 62.4948L61.3281 63.651C61.3281 63.651 61.3438 63.651 61.3438 63.6667C61.3281 63.75 61.3281 63.8333 61.3125 63.9323C61.3021 63.9323 61.3021 63.9323 61.2865 63.9323C61.2865 63.9323 61.2865 63.9323 61.2708 63.9323C61.2604 63.9323 61.2448 63.9323 61.2292 63.9323L57.6562 62.8073C57.6458 64.6354 57.6458 66.5104 57.6458 68.4531C57.6458 68.6771 57.6458 68.9167 57.6458 69.1406C57.6458 70.4219 57.6458 71.7344 57.6458 73.0729C57.6458 73.1667 57.6458 73.2552 57.6458 73.3542H63.0677L60.2708 71.9167L59.8021 71.6771C59.7917 71.6771 59.7917 71.6615 59.776 71.6615C59.776 71.6615 59.7604 71.6615 59.7604 71.651C59.7604 71.651 59.75 71.6354 59.75 71.6198C59.75 71.6042 59.7344 71.6042 59.7344 71.5937V71.5781C59.7344 71.5625 59.7344 71.5521 59.7344 71.5521C59.7344 71.5365 59.7344 71.5365 59.75 71.5208V71.5052C59.7604 71.4948 59.7604 71.4792 59.776 71.4635C59.776 71.4635 59.7917 71.4635 59.7917 71.4531C59.7917 71.4531 59.8021 71.4531 59.8021 71.4375C59.8021 71.4375 59.8177 71.4375 59.8177 71.4219C59.8333 71.4219 59.849 71.4115 59.8594 71.4115C59.875 71.4115 59.875 71.4115 59.8906 71.4115L63.8698 71.8594V50.1927H57.8542ZM51.6562 50.1927C51.5052 52.8802 51.3906 55.7969 51.3177 58.9323C51.3177 59.1719 51.3073 59.4114 51.3073 59.6667L57.4167 59.1458C57.4167 59.0625 57.4167 58.9635 57.4167 58.8802C57.4167 58.5417 57.4167 58.2031 57.4323 57.8646C57.4323 57.6406 57.4323 57.4167 57.4479 57.1875C57.4479 56.75 57.4583 56.3281 57.4583 55.9062C57.4896 53.9219 57.5313 52.0208 57.5885 50.1927H51.6562ZM45.1667 50.1927C45.0781 51.8802 45.0104 53.6406 44.9688 55.4427C44.8698 59.4114 44.8698 63.651 44.8698 68.099C44.8698 68.1979 44.8698 68.2969 44.8698 68.4115C44.8698 77.9427 44.7812 86.3594 44.7292 91.4844H50.8698V75.8854C50.8698 75.125 50.8698 74.3958 50.8698 73.6458C50.8698 71.125 50.8802 68.7083 50.9115 66.3854C50.9271 64.9167 50.9375 63.4948 50.9688 62.1042L49.0885 60.0729C49.0885 60.0729 49.0885 60.0729 49.0885 60.0625C49.0885 60.0469 49.0729 60.0469 49.0729 60.0312C49.0729 60.0312 49.0729 60.0208 49.0625 60.0208C49.0625 60.0052 49.0625 60.0052 49.0625 59.9896V59.9792C49.0625 59.9635 49.0625 59.9635 49.0729 59.9479V59.9323C49.0729 59.9219 49.0885 59.9062 49.1042 59.9062C49.1042 59.9062 49.1042 59.9062 49.1198 59.8906C49.1198 59.8906 49.1198 59.8906 49.1302 59.8906C49.1458 59.8802 49.1615 59.8802 49.1615 59.8802H49.1719H49.1875L49.5417 59.8489L51.026 59.7239C51.026 59.526 51.0365 59.3125 51.0365 59.1198C51.1198 55.9375 51.2344 52.9635 51.375 50.2344L45.1667 50.1927ZM38.3021 50.1927V91.5H44.4427C44.5 86.3177 44.5885 77.7708 44.5885 68.1146C44.5885 67.974 44.5885 67.8333 44.5885 67.7083C44.5885 63.3281 44.5885 59.1614 44.6875 55.2448C44.7292 53.5156 44.7813 51.8385 44.8802 50.2031H38.3021V50.1927ZM10.2813 91.3594H17.1875V50.3333H10.2813V91.3594ZM17.4687 91.3594H24.2865V50.3333H17.4687V91.3594ZM24.5677 91.3594H31.2188V50.3333H24.5677V91.3594ZM38.0208 91.3594V50.3333H31.5V91.3594H38.0208ZM60.776 17.0052C60.7656 17.1042 60.7656 17.2031 60.7656 17.3021C60.7656 18.0885 61.0625 18.8229 61.5417 19.3698C61.724 19.3021 61.9219 19.2448 62.1198 19.2031C62.4844 19.1198 62.8542 19.0781 63.2083 19.0781C63.3073 19.0208 63.4063 18.9792 63.5156 18.9479C63.6302 18.9219 63.6979 19.0052 63.6875 19.0885C63.8438 19.1042 63.9948 19.1198 64.151 19.1614C64.1823 19.0625 64.3333 19.0208 64.4219 19.1198C64.4479 19.1614 64.4792 19.1875 64.5052 19.2292C64.8281 19.3177 65.1406 19.4271 65.4375 19.5677C65.4531 19.4687 65.4792 19.3854 65.5052 19.2864C65.6771 18.625 65.9427 18.0364 66.3125 17.5C66.3281 17.4427 66.3281 17.375 66.3385 17.3177C66.3385 17.3021 66.3385 17.276 66.3542 17.2604C66.3698 17.1614 66.4792 17.1354 66.5521 17.1771C66.651 17.0469 66.75 16.9219 66.8646 16.8073C66.9323 16.7396 67.0052 16.6562 67.0729 16.5833C66.75 15.1771 65.4948 14.1042 63.9688 14.1042C62.4167 14.1042 61.1146 15.2187 60.8333 16.6979C58.4635 15.5417 56.8229 13.1042 56.8229 10.2917C56.8229 6.36457 60.0313 3.16666 63.9688 3.16666C67.9063 3.16666 71.1094 6.36457 71.1094 10.2917C71.1094 12.25 70.3229 14.0208 69.0365 15.3021C69.2188 15.2344 69.401 15.1614 69.5885 15.1198C70.7031 13.8229 71.3958 12.1354 71.3958 10.2917C71.3958 6.20832 68.0625 2.88541 63.9688 2.88541C59.875 2.88541 56.5417 6.20832 56.5417 10.2917C56.5156 13.2604 58.2656 15.8073 60.776 17.0052Z" fill="#FFD2DD"/>
<path d="M43.2291 57.1615C43.2291 57.3854 43.0469 57.5573 42.8333 57.5573C42.6094 57.5573 42.4427 57.3698 42.4427 57.1615C42.4427 56.9479 42.625 56.7656 42.8333 56.7656C43.0469 56.7656 43.2291 56.9479 43.2291 57.1615ZM60.0416 56.7656C59.8177 56.7656 59.651 56.9479 59.651 57.1615C59.651 57.3698 59.8333 57.5573 60.0416 57.5573C60.2552 57.5573 60.4375 57.3698 60.4375 57.1615C60.4375 56.9479 60.2708 56.7656 60.0416 56.7656ZM70.9844 14.8542C70.9687 14.8802 70.9583 14.8958 70.9271 14.9219C71.4791 14.8958 72.0416 14.9636 72.6094 15.1042C73.0469 15.2188 73.4687 15.3854 73.8646 15.5833C73.9791 15.5833 74.0885 15.599 74.2187 15.625C74.3281 15.6563 74.3437 15.7552 74.2864 15.8386C74.4739 15.9531 74.6406 16.0781 74.7969 16.2031C74.8646 16.1354 75.0104 16.1198 75.0208 16.2448C75.0364 16.3021 75.0364 16.3594 75.0521 16.4167C75.0937 16.4583 75.151 16.5 75.1927 16.5417L79.7656 11.1615C78.651 11.3021 73.2552 12.1771 70.9844 14.8542ZM57.6041 20.0052C54.8489 19.6094 51.1927 21.8802 50.3594 22.4271L58.2812 23.5677V23.5521C58.25 23.4844 58.2239 23.4011 58.1927 23.3281C58.1666 23.2292 58.25 23.1615 58.3385 23.1615C58.4896 22.2865 58.8854 21.4531 59.4635 20.7917C59.4375 20.7813 59.4219 20.7656 59.3958 20.75C58.901 20.3854 58.3073 20.1042 57.6041 20.0052ZM58.2656 23.849L50.3437 22.7083C50.5156 22.9063 50.8281 23.2552 51.2344 23.6823C51.3073 23.75 51.375 23.8229 51.4479 23.8906C51.9531 24.3958 52.5885 24.974 53.2969 25.5104C53.3646 25.5677 53.4375 25.625 53.5104 25.6667C54.3698 26.2865 55.3125 26.7917 56.276 27.0052C56.375 27.0313 56.4739 27.0469 56.5729 27.0573C56.5833 27.0573 56.5833 27.0573 56.5989 27.0573C57.5052 27.1875 58.3229 27.0052 59.0156 26.6771C58.7291 26.2292 58.5052 25.724 58.3802 25.1719C58.2916 24.724 58.25 24.2865 58.2656 23.849ZM76.8281 22.2031C76.7031 22.6667 76.5312 23.1146 76.3073 23.5261C76.5885 23.7083 76.901 23.8646 77.25 23.9636C77.3489 23.9896 77.4479 24.0156 77.5469 24.0313C79.5677 24.3542 82.25 22.7813 82.9531 22.3438L76.9687 21.3698C76.9427 21.6511 76.901 21.9219 76.8281 22.2031ZM77 21.0886L83 22.0625C82.5052 21.4688 80.6979 19.4011 78.8177 18.849C80.0469 16.0365 80.0312 12.2344 80.0208 11.3177L75.401 16.7396C75.9948 17.375 76.4635 18.1354 76.7291 18.9479C76.9427 19.625 77.0416 20.3438 77 21.0886Z" fill="#034A44"/>
<path d="M67.0156 20.2864C66.9635 20.1614 66.9167 20.0312 66.875 19.9062C66.6094 19.1042 66.4375 18.1875 66.6094 17.3437C66.625 17.276 66.5781 17.2187 66.5365 17.1875C66.6354 17.0625 66.7344 16.9375 66.849 16.8229C66.9167 16.7552 66.9896 16.6667 67.0625 16.5989C67.625 16.0469 68.2865 15.6146 69.0208 15.3177C69.2083 15.2448 69.3906 15.1771 69.5729 15.1354C70.0104 15.0052 70.474 14.9375 70.9427 14.9219C71.4948 14.8958 72.0573 14.9635 72.6198 15.1042C73.0573 15.2187 73.4844 15.3854 73.8802 15.5833C73.3021 15.5573 72.6927 15.7239 72.1719 15.8646C71.4479 16.0469 70.7448 16.3021 70.1094 16.6979C68.6979 17.526 67.75 18.8646 67.0156 20.2864ZM74.4583 24.5677C73.8385 24.5521 73.2031 24.4948 72.5781 24.3958C70.8854 24.1042 69.0521 23.3854 67.8385 22.1198C67.9375 22.3698 68.0365 22.625 68.0885 22.9062C68.3177 23.8489 68.2448 24.7917 67.9635 25.6354C68.4844 25.9739 69.0625 26.2448 69.6979 26.3958C70.1823 26.526 70.6615 26.5781 71.125 26.5781C71.2396 26.5781 71.3542 26.5781 71.4635 26.5677C72.3385 26.526 73.1719 26.2864 73.9219 25.875C73.9063 25.8333 73.9063 25.7917 73.9375 25.75C74.1875 25.3958 74.3438 24.9896 74.4583 24.5677ZM71.2812 16.4167C70.8854 16.5573 70.5052 16.7396 70.1354 16.9635C69.5885 17.3177 69.1094 17.7396 68.6979 18.2187C68.6823 18.5573 68.724 18.8802 68.8229 19.1875C70.026 18.3854 71.4479 18.0469 72.875 18.1771C72.4375 17.526 71.901 16.9219 71.2812 16.4167ZM66.2969 17.5C65.9427 18.0364 65.6615 18.625 65.4948 19.2864C65.4635 19.3854 65.4531 19.4687 65.4219 19.5677C65.9323 19.8229 66.3958 20.1614 66.8073 20.5677C66.3698 19.5989 66.1719 18.5 66.2969 17.5ZM68.2031 22.0729C69.2917 22.5104 70.4635 22.5937 71.6354 22.4531C70.151 21.6823 68.5417 20.3021 68.4167 18.5833C67.9219 19.2187 67.5104 19.9219 67.1615 20.625C67.4271 21.1614 67.7656 21.6667 68.2031 22.0729ZM72.099 16.1614C71.9323 16.2031 71.7604 16.2604 71.5938 16.3177C72.2396 16.8646 72.8073 17.526 73.2708 18.276C73.2865 18.2864 73.3021 18.3021 73.3021 18.3177C73.9375 19.3594 74.3437 20.5417 74.474 21.7239C74.625 21.6667 74.7813 21.5989 74.9375 21.5417C74.9531 21.4271 74.9531 21.3281 74.9635 21.2187C75.0781 19.5833 75.0104 17.9219 74.7812 16.3021C74.7656 16.2448 74.7969 16.2031 74.8229 16.1771C74.6562 16.0469 74.4844 15.9219 74.3177 15.8073C74.2865 15.8542 74.2292 15.8958 74.1615 15.8802C73.4844 15.7552 72.7187 15.9948 72.099 16.1614ZM73.4115 19.1198C73.3125 18.9062 73.2031 18.6979 73.0729 18.5C72.2396 18.3854 71.4219 18.4583 70.6302 18.6823C70.6302 18.6979 70.6302 18.6979 70.6302 18.7083C70.5729 18.9792 70.5885 19.2604 70.6458 19.526C71.4375 19.2864 72.3281 19.3281 73.0885 19.6406C73.2135 19.4687 73.3125 19.3021 73.4115 19.1198ZM70.7448 21.5677C70.8698 21.526 70.9844 21.4844 71.099 21.4271C70.6302 20.6927 70.2083 19.6406 70.3333 18.7656C69.8437 18.9375 69.375 19.1771 68.9375 19.4687C69.276 20.3177 69.9687 21.0208 70.7448 21.5677ZM68.8229 22.5677C69.4167 23.0052 70.0833 23.3437 70.7604 23.6094C71.9583 24.0729 73.2448 24.2552 74.5156 24.2864C74.5573 24.0885 74.599 23.875 74.6406 23.6823C74.7552 23.0729 74.8385 22.4687 74.8958 21.8489C73.0156 22.6094 70.8177 23.1042 68.8229 22.5677ZM74.1875 21.8229C74.1198 21.0052 73.8906 20.1875 73.5521 19.4271C72.9479 20.4583 72.1406 21.3021 71.026 21.7656C71.3958 22.0052 71.7604 22.2135 72.1302 22.3698C72.8333 22.2604 73.526 22.0625 74.1875 21.8229ZM70.8021 20.0781C70.9271 20.5 71.1094 20.9219 71.3542 21.3021C71.9844 20.9479 72.4948 20.4583 72.9323 19.8646C72.2396 19.5989 71.4375 19.5833 70.7188 19.7917C70.7448 19.8906 70.7708 19.9896 70.8021 20.0781ZM76.7292 18.9479C76.4635 18.1198 76.0104 17.3594 75.401 16.7396C75.3333 16.6667 75.276 16.5989 75.2031 16.5417C75.1615 16.5 75.1042 16.4583 75.0625 16.4167C75.2917 18.0625 75.349 19.7239 75.2188 21.3698C75.1615 22.2135 75.0521 23.0625 74.8958 23.9062C74.7813 24.5104 74.6406 25.1146 74.3438 25.651C74.375 25.6354 74.401 25.625 74.4167 25.5937C74.4844 25.5364 74.5729 25.4948 74.6406 25.4375C75.2604 24.9739 75.8125 24.3854 76.2083 23.6927C76.2344 23.6354 76.276 23.5833 76.3073 23.526C76.5313 23.1146 76.7031 22.6823 76.8281 22.2031C76.901 21.9219 76.9583 21.651 76.9844 21.3698C77 21.2708 77 21.1875 77.0104 21.0885C77.0417 20.3437 76.9427 19.625 76.7292 18.9479Z" fill="#DD855F"/>
<path d="M76.8594 71.2813C76.8594 71.4375 76.8594 71.5938 76.8594 71.7448C76.0677 72.4375 75.1771 72.974 74.2448 73.3386H70.6459C70.6459 71.3542 70.6459 69.4115 70.6459 67.5208C70.6459 66.5938 70.6459 65.6667 70.6302 64.7656L73.9792 68.3802L74.0052 68.4115C74.0365 68.4375 74.0781 68.4531 74.1042 68.4531C74.1302 68.4531 74.1771 68.4375 74.2031 68.4115L76.8594 71.2813ZM62.375 55.6406L63.8698 57.2448V71.0833C63.8438 71.0573 63.8125 71.0313 63.7969 71C63.0781 70.2136 62.5156 69.3386 62.1042 68.4115C61.8386 67.8073 61.6406 67.1719 61.5104 66.5365C61.3281 65.6927 61.2709 64.8177 61.3438 63.9636C61.3438 63.9479 61.3438 63.9323 61.3438 63.9167C61.3438 63.8333 61.3594 63.75 61.3698 63.6511C61.3854 63.5261 61.4011 63.3854 61.4115 63.2552C61.4584 63.0052 61.5 62.7344 61.5521 62.4844C61.5677 61.7656 61.2709 60.7396 59.5365 60.3281C59.0261 60.1875 58.5625 59.9219 58.1823 59.5104C58.1406 59.4688 58.1094 59.4271 58.0677 59.3698C57.9948 59.2865 57.9271 59.2031 57.8698 59.1042C57.8438 59.0625 57.8125 59.0208 57.7865 58.9636L57.7031 58.9323C57.7031 58.8906 57.7031 58.849 57.7031 58.8073C57.7136 57.9479 57.7136 57.0886 57.7292 56.2604C57.8698 55.9792 58.0677 55.7083 58.3229 55.4844L58.3386 55.4688C58.7604 55.0781 59.2656 54.8386 59.8021 54.7552C60.724 54.6146 61.6979 54.9063 62.375 55.6406ZM60.4531 57.1615C60.4531 56.9375 60.2709 56.7656 60.0573 56.7656C59.849 56.7656 59.6615 56.9479 59.6615 57.1615C59.6615 57.3698 59.849 57.5573 60.0573 57.5573C60.2709 57.5573 60.4531 57.3854 60.4531 57.1615ZM57.4167 57.7813L55.3854 58.3281L57.4167 58.8802C57.4167 58.5417 57.4167 58.2031 57.4323 57.8646C57.4323 57.6406 57.4323 57.4167 57.4479 57.1875C57.4167 57.3854 57.4063 57.5833 57.4167 57.7813ZM83.2969 54.1615C83.3229 55.2604 83.349 56.375 83.3646 57.5104C84.0729 56.5156 84.0573 55.1458 83.2969 54.1615ZM76.5729 54.9948C74.9219 55.8073 72.7188 56.8958 70.5886 57.9375C70.5886 58.4583 70.6042 58.9636 70.6042 59.5L76.7031 58.9792C76.6615 57.6094 76.6198 56.2761 76.5729 54.9948ZM77.7448 67.75C77.8021 67.7083 77.8334 67.6771 77.875 67.6511L77.8854 67.6354C77.9323 67.5938 77.974 67.5677 78.0156 67.5208C79.0313 66.5781 79.2136 65.0729 78.5104 63.9323C78.5104 63.9323 78.5104 63.9323 78.4948 63.9323C78.4792 63.9323 78.4688 63.9323 78.4531 63.9323L77.0573 63.4948C77.0834 64.9896 77.099 66.5261 77.1094 68.099C77.1979 68.0573 77.2813 68.0313 77.3646 67.9896C77.4948 67.9167 77.6198 67.8333 77.7448 67.75ZM74.2031 68.3958C75.1771 68.4948 76.0834 68.4375 76.8281 68.1979C76.8125 66.5521 76.8021 64.9479 76.7709 63.3958L70.6042 61.4531C70.6042 62.3958 70.6198 63.3542 70.6198 64.3438L74.1875 68.2136C74.2604 68.2708 74.2604 68.3542 74.2031 68.3958ZM76.7031 59.2604L70.6042 59.7813C70.6042 60.2448 70.6198 60.6927 70.6198 61.1615L76.7865 63.1042C76.7604 61.7813 76.7292 60.5104 76.7031 59.2604ZM70.349 64.0313C70.349 63.1302 70.3334 62.2448 70.3334 61.3698L66.875 60.2865L70.349 64.0313ZM70.3334 61.0729C70.3334 60.6511 70.3334 60.2136 70.3229 59.8073L67.1459 60.0729L70.3334 61.0729ZM81.0052 58.7396C81.6979 58.7396 82.4063 58.5 82.9531 57.9792C83 57.9375 83.0417 57.8906 83.0834 57.8386C83.0677 56.4688 83.0417 55.1354 83 53.8229C81.9531 52.8386 80.4271 53.0625 79.1875 53.6823C78.9167 53.8125 78.0417 54.2448 76.8438 54.8386C76.8854 56.1615 76.9271 57.5261 76.9688 58.9323L80.8542 58.6094C80.9375 58.625 81.0052 58.6667 81.0052 58.7396ZM70.3229 59.5104C70.3229 59.0313 70.3073 58.5417 70.3073 58.0625C69.0521 58.6823 67.8386 59.2708 66.7656 59.8073L70.3229 59.5104ZM78.6354 63.8333C78.6354 63.849 78.6198 63.8646 78.6198 63.875C79.7084 64.6511 81.2188 64.5938 82.2344 63.6511C82.7865 63.1458 83.0834 62.4844 83.1406 61.7917C83.1406 61.625 83.1406 61.4531 83.1406 61.2708C83.0834 60.6667 82.8438 60.0886 82.3906 59.6094C82.0104 59.1875 81.5313 58.9219 81.0209 58.7917C81.0052 58.849 80.9636 58.8906 80.8959 58.9063L76.9844 59.2292C77.0104 60.5104 77.0417 61.8333 77.0677 63.1875L78.5521 63.6511C78.6198 63.6771 78.6667 63.7656 78.6354 63.8333ZM70.349 64.4531L66.3125 60.0886C66.3125 60.0886 66.3125 60.0886 66.3125 60.0729C66.3125 60.0625 66.2969 60.0625 66.2969 60.0469C66.2969 60.0469 66.2969 60.0313 66.2813 60.0313C66.2813 60.0208 66.2813 60.0208 66.2813 60.0052V59.9896C66.2813 59.9792 66.2813 59.9792 66.2969 59.9636V59.9479C66.2969 59.9323 66.3125 59.9219 66.3281 59.9219L65.3386 58.849L65.0261 58.5104L64.3334 57.7656L64.1667 57.5833V71.4115C64.3802 71.6198 64.5886 71.8021 64.8177 71.9844C64.9584 72.099 65.1146 72.2136 65.2552 72.3229C65.8594 72.7604 66.4948 73.099 67.1719 73.3802H70.3802C70.3802 71.3542 70.3802 69.3802 70.3802 67.4688C70.3646 66.4115 70.349 65.4271 70.349 64.4531ZM77.4948 71.9011C79.0886 73.6198 81.5313 76.25 83.1823 78.0261C83.1823 76.9844 83.1667 75.9167 83.1667 74.8177L77.4948 71.9011ZM83.1511 72.3646L77.8438 71.7604L83.1511 74.4948C83.1511 73.7865 83.1511 73.0833 83.1511 72.3646ZM89.6042 73.7865C89.1511 72.8854 88.1354 72.4375 87.1927 72.6771C87.1771 72.7448 87.1198 72.8021 87.0521 72.8021H87.0365L83.4375 72.3958C83.4375 73.1563 83.4375 73.9011 83.4375 74.6354L87.4323 76.6875C87.474 76.7188 87.5 76.7604 87.5 76.8177C87.8802 76.8594 88.2656 76.7865 88.6302 76.6042C89.1511 76.349 89.5209 75.9011 89.6875 75.3958V74.0573C89.6771 73.974 89.6459 73.875 89.6042 73.7865ZM76.8594 71.2136C76.8594 70.6354 76.8594 70.0573 76.8438 69.4948C76.4219 69.75 76.0834 69.974 75.8698 70.1719C75.8854 70.1563 76.25 70.5625 76.8594 71.2136ZM83.1406 68.1146C83.1406 68.0729 83.1406 68.0313 83.1406 67.9896C81.8125 67.9167 80.4011 68.0729 79.2031 68.4531C78.4375 68.6927 77.7188 69.0156 77.1094 69.3386C77.1094 70.0156 77.125 70.7031 77.125 71.4115L83.1406 72.099C83.1511 70.7917 83.1406 69.4688 83.1406 68.1146ZM87.5 76.8698V76.8854C87.474 76.9271 87.4323 76.9583 87.375 76.9583C87.3438 76.9583 87.3334 76.9583 87.3021 76.9427L83.4375 74.9583C83.4375 76.1094 83.4479 77.2396 83.4479 78.3386C84.1719 79.125 84.7084 79.6875 84.8594 79.8594C85.5834 80.6302 86.625 81.2083 87.6406 80.7136C88.6875 80.1927 89.1094 78.9427 88.6042 77.8854C88.375 77.4063 87.9688 77.0573 87.5 76.8698ZM87.1615 72.5781C87.9115 71.974 88.1771 70.9011 87.7292 70C87.7136 69.9583 87.6823 69.9323 87.6719 69.8906C87.6719 69.8906 87.6719 69.875 87.6563 69.875C87.6406 69.849 87.6146 69.8021 87.599 69.7761C87.599 69.7761 87.599 69.7761 87.599 69.7604C87.5417 69.6615 87.474 69.5781 87.4011 69.5104C86.599 68.6094 85.0886 68.1302 83.4375 67.9896C83.4375 68.0156 83.4375 68.0573 83.4375 68.0886C83.4375 69.4375 83.4375 70.7761 83.4375 72.0833L87.0781 72.4948C87.1042 72.5365 87.1459 72.5521 87.1615 72.5781ZM80.0209 11.3177L80.1042 11.2188C80.1615 11.1615 80.1459 11.0625 80.0886 11.0208C80.0313 10.9688 79.9323 10.9792 79.8906 11.0365L79.7917 11.1511L75.2188 16.5261C75.2917 16.599 75.3594 16.6563 75.4167 16.724L80.0209 11.3177ZM58.2813 23.5677L50.3594 22.4271L50.2344 22.4115C50.1615 22.4011 50.0781 22.4531 50.0781 22.5261C50.0625 22.5938 50.1198 22.6823 50.1927 22.6823L50.3438 22.7083L58.2656 23.849C58.2656 23.75 58.2813 23.6511 58.2813 23.5677ZM83.1511 22.0729L83 22.0469L77 21.0729C77 21.1719 76.9844 21.2604 76.9688 21.3594L82.9531 22.3281L83.099 22.3542C83.1094 22.3542 83.1094 22.3542 83.125 22.3542C83.1979 22.3542 83.25 22.3125 83.2656 22.2448C83.2813 22.1615 83.224 22.0885 83.1511 22.0729ZM58.1927 23.3281C58.1667 23.2292 58.25 23.1615 58.3386 23.1615C58.3906 23.1615 58.4479 23.1875 58.4636 23.2552C58.7031 24.0313 59.2552 24.7083 59.8594 25.2448C59.875 25.2552 59.8906 25.2708 59.9011 25.2865C59.9011 23.9063 60.0886 22.4844 60.849 21.2865C61.1875 20.75 61.625 20.2865 62.1042 19.8802C62.4323 19.599 62.7813 19.2708 63.1771 19.0781C63.2761 19.0208 63.375 18.9792 63.4896 18.9479C63.599 18.9219 63.6719 19.0052 63.6563 19.0886C63.6563 19.1458 63.6302 19.1875 63.5573 19.2188C63.0209 19.3854 62.5573 19.8386 62.1615 20.2031C62.0469 20.3021 61.9375 20.4115 61.8386 20.5104C62.5417 20.6667 63.2188 20.9479 63.8438 21.3281C63.8542 21.3281 63.8698 21.3438 63.8698 21.3438C64.7604 21.8802 65.5365 22.5938 66.099 23.4427C66.1875 23.3438 66.2709 23.2448 66.3542 23.1458C66.2813 22.9896 66.2292 22.849 66.1563 22.6927C65.6042 21.4844 64.9271 20.3281 64.1511 19.2448C64.125 19.2031 64.125 19.1771 64.125 19.1458C64.1511 19.0469 64.3073 19.0052 64.3906 19.1042C64.4219 19.1458 64.4479 19.1771 64.4792 19.2188C65.2656 20.3281 65.9584 21.526 66.5104 22.7813C66.7761 23.401 67.0313 24.0313 67.2292 24.6823C67.4115 25.2552 67.599 25.8333 67.5834 26.4375C67.5834 26.4531 67.5834 26.4531 67.5834 26.4688C67.5834 26.5521 67.5834 26.6511 67.5677 26.7344C67.5521 26.8177 67.5 26.8646 67.4271 26.8646C67.4011 26.8646 67.3698 26.8646 67.3438 26.849C67.3125 26.8177 67.2865 26.7917 67.2865 26.7344C67.3281 26.3698 67.2865 26.0156 67.2136 25.6511C65.6771 26.3958 63.9688 26.8333 62.2604 26.6094C62.0052 26.5781 61.7656 26.5261 61.5417 26.4688C61.5261 26.4688 61.5261 26.4688 61.5104 26.4688C61.4584 26.4688 61.4271 26.4531 61.4011 26.4271C60.875 26.2708 60.3959 26.0313 59.9584 25.6927L59.9427 25.6771C59.8177 25.5833 59.7031 25.4844 59.5781 25.3854C59.0261 24.8906 58.5469 24.2552 58.2656 23.5677C58.25 23.4844 58.224 23.4011 58.1927 23.3281ZM62.3177 26.3281C62.4167 26.3386 62.5 26.3542 62.599 26.3542C64.1927 26.4948 65.7448 26.0729 67.1615 25.3698C67.0886 25.1146 67.0052 24.875 66.9323 24.6354C66.8073 24.2292 66.6511 23.8333 66.4948 23.4427C65.3959 24.724 63.9844 25.9063 62.3177 26.3281ZM64.5469 22.1458C64.4896 23.1302 64.224 24.0729 63.5886 24.849C63.9427 24.875 64.2917 24.8906 64.6042 24.875C65.0834 24.5104 65.5209 24.1042 65.9167 23.6667C65.5625 23.0886 65.0834 22.5833 64.5469 22.1458ZM63.599 24.3542C63.9271 23.849 64.1094 23.3021 64.2084 22.7083C63.5886 22.7917 62.9948 23.0886 62.5417 23.5261C62.8542 23.8646 63.25 24.1458 63.599 24.3542ZM61.8386 22.9219C61.5521 23.2292 61.3021 23.5833 61.0886 23.9636C61.6667 24.4427 62.474 24.6927 63.25 24.8073C63.3177 24.7344 63.375 24.6667 63.4323 24.5938C62.8125 24.2136 62.0886 23.6094 61.8386 22.9219ZM63.7969 21.6094C63.1511 21.849 62.5573 22.2136 62.0469 22.6927C62.1042 22.9063 62.2188 23.1042 62.3594 23.3021C62.8698 22.8073 63.5469 22.5 64.2344 22.4115C64.25 22.2604 64.2656 22.0886 64.2656 21.9323C64.125 21.8229 63.9688 21.7083 63.7969 21.6094ZM60.4115 23.1042C60.5261 23.3542 60.6771 23.5677 60.875 23.75C61.4688 22.6927 62.3854 21.8802 63.4896 21.4271C62.8959 21.1042 62.2761 20.8802 61.625 20.75C61.4115 20.9896 61.2136 21.2448 61.0469 21.5261C60.75 22.0208 60.5521 22.5521 60.4115 23.1042ZM60.1979 25.4948C60.625 25.8073 61.0886 26.0313 61.5834 26.1719C62.5417 26.0729 63.4167 25.6927 64.2084 25.1563C62.8125 25.1458 61.1042 24.7344 60.3281 23.5417C60.2136 24.1719 60.1875 24.849 60.1979 25.4948Z" fill="white"/>
</svg>
