<svg width="130" height="130" viewBox="0 0 130 130" fill="none" xmlns="http://www.w3.org/2000/svg">
<g clip-path="url(#clip0_213_770)">
<path d="M43.0262 95.9537C39.4145 90.4663 34.2161 86.2591 29.6811 81.5007C25.1509 76.7443 21.0953 70.9767 20.7383 64.4207C20.3795 57.8696 25.0759 50.7372 31.6407 50.5291C35.4882 50.4032 39.1475 52.6424 41.4981 55.6947C43.8468 58.7517 45.0516 62.5297 45.8096 66.3061C47.4163 58.4218 55.7534 52.548 63.7282 53.6811C68.2369 54.3233 72.6795 57.3617 73.6733 61.8066C74.8848 67.2094 70.8896 72.2951 66.9468 76.1764C59.1399 83.8521 50.4412 90.5632 43.0262 95.9537Z" fill="#C4456F"/>
<path d="M86.8891 62.3697C81.6702 58.1433 78.1298 51.6602 77.1752 44.5736C76.8944 42.4777 76.8382 40.2797 77.4473 38.1969C78.0545 36.119 79.4189 34.1643 81.3017 33.3134C83.9733 32.1058 87.0534 33.4245 88.7719 35.72C90.4905 38.0155 91.106 41.0704 91.4444 44.0614C92.5531 41.3745 94.2417 38.7637 96.7017 37.4676C99.1666 36.1734 102.482 36.65 103.754 39.0841C104.935 41.3535 104.043 44.3435 102.754 46.7194C99.1674 53.3468 92.9551 57.838 86.8891 62.3697Z" fill="#F3E7D5"/>
<path d="M71.7384 98.6112C70.8815 92.6033 70.2022 85.8707 73.882 81.0474C75.9893 78.2818 80.0452 76.5817 83.0282 78.377C86.2064 80.2878 86.2951 85.3011 83.8709 88.1048C86.8089 85.6031 90.7012 83.8781 94.4927 84.5805C98.2872 85.2896 101.585 89.0654 100.79 92.8373C100.324 95.0544 98.5896 96.8531 96.5668 97.8898C94.5489 98.9283 92.2584 99.3063 89.9998 99.5457C83.9401 100.192 77.788 99.9466 71.7384 98.6112Z" fill="#F8EDEC"/>
</g>
<defs>
<clipPath id="clip0_213_770">
<rect width="100" height="100" fill="white" transform="translate(36.4802) rotate(21.3954)"/>
</clipPath>
</defs>
</svg>
