<svg width="104" height="161" viewBox="0 0 104 161" fill="none" xmlns="http://www.w3.org/2000/svg">
<path fill-rule="evenodd" clip-rule="evenodd" d="M89.5418 43.5652C88.6988 29.9871 86.8501 16.1965 90.3652 2.8407C90.5718 2.04487 90.1004 1.22979 89.3041 1.01726C88.5083 0.810665 87.6932 1.282 87.4806 2.07834C83.8848 15.7464 85.7013 29.8568 86.5655 43.7503C86.6125 44.5721 87.3249 45.1988 88.1462 45.1459C88.968 45.0989 89.5888 44.387 89.5418 43.5652Z" fill="#461952"/>
<path fill-rule="evenodd" clip-rule="evenodd" d="M69.9743 46.4812C65.7236 42.593 62.4143 38.2347 60.4904 32.7872C60.2162 32.0089 59.3642 31.6037 58.5881 31.8742C57.8124 32.1506 57.4056 33.0056 57.6794 33.7779C59.7707 39.7017 63.3416 44.4504 67.961 48.6777C68.5681 49.2358 69.5121 49.1962 70.0674 48.5857C70.6227 47.9812 70.5809 47.0332 69.9743 46.4812Z" fill="#461952"/>
<path fill-rule="evenodd" clip-rule="evenodd" d="M28.5608 61.8932C21.7553 60.5297 16.2331 57.1643 11.9784 51.6427C11.4764 50.9918 10.5394 50.8693 9.88816 51.3743C9.23643 51.8734 9.11512 52.8116 9.61716 53.4624C14.3279 59.573 20.4396 63.3065 27.9747 64.8165C28.7812 64.9802 29.5675 64.4515 29.7291 63.6476C29.8908 62.8377 29.3668 62.0511 28.5608 61.8932Z" fill="#461952"/>
<path fill-rule="evenodd" clip-rule="evenodd" d="M25.3129 129.411C26.7685 130.446 28.3191 131.354 29.9508 132.098C30.6772 132.431 32.2087 132.993 33.4803 132.991C34.8354 132.993 35.9306 132.438 36.4267 131.21C37.0842 129.58 36.894 128.339 36.3315 127.418C35.7911 126.531 34.8239 125.885 33.5714 125.532C31.1775 124.859 27.6454 125.296 25.6628 125.927C24.2878 124.807 23.0207 123.558 21.8731 122.203C13.3265 112.109 14.7743 96.0946 25.1178 82.9751C28.7395 78.3835 36.939 75.617 45.8842 73.7736C59.812 70.9016 75.6093 70.4895 80.225 70.2227C81.3645 70.1543 82.0301 69.9891 82.1598 69.9181C82.7986 69.5817 82.9283 69.0737 82.9639 68.7236C83.01 68.2169 82.8806 67.8271 82.6866 67.5207C82.421 67.1067 81.9887 66.7849 81.3547 66.6721C81.0049 66.6125 80.5264 66.6299 80.0196 66.6856C79.6683 66.7279 79.2895 66.8325 79.0309 66.783C77.374 66.4592 75.7468 66.0371 74.1094 65.6279C68.6063 64.2656 63.3932 62.3397 58.1636 60.1519C41.5464 53.202 24.0529 46.603 10.7621 34.0037C10.1658 33.4387 9.22089 33.4604 8.65503 34.0598C8.08865 34.6533 8.11382 35.5967 8.71128 36.1675C22.2651 49.0195 40.0668 55.8133 57.0131 62.9025C61.4617 64.7627 65.9003 66.4383 70.5052 67.7523C62.6039 68.2609 51.693 69.2685 42.1586 71.5458C33.6791 73.5705 26.2981 76.6673 22.7772 81.1305C11.446 95.5022 10.2358 113.076 19.5983 124.129C20.6004 125.311 21.6866 126.426 22.8487 127.451C12.2571 134.571 8.93728 148.144 15.2635 159.339C15.6685 160.059 16.5783 160.309 17.2946 159.906C18.0103 159.497 18.2635 158.59 17.8586 157.871C12.1581 147.782 15.4082 135.502 25.3129 129.411ZM28.9625 128.228C29.6836 128.65 30.4266 129.035 31.1908 129.388C31.6007 129.574 32.3849 129.89 33.1342 129.986C33.3095 130.007 33.5797 129.99 33.7045 129.979C33.8711 129.552 33.9408 129.223 33.787 128.973C33.5972 128.66 33.2026 128.526 32.7641 128.402C31.6635 128.091 30.2396 128.082 28.9625 128.228Z" fill="#461952"/>
</svg>
