<svg width="49" height="9" viewBox="0 0 49 9" fill="none" xmlns="http://www.w3.org/2000/svg">
<path d="M4.48625 0.404785C4.29619 0.404785 4.10614 0.503147 4.00778 0.701538L2.91913 2.90885L0.483419 3.26228C0.0466251 3.32563 -0.128426 3.86412 0.188333 4.17255L1.95051 5.88971L1.53372 8.31542C1.4587 8.75055 1.91717 9.08231 2.30728 8.87725L4.48625 7.73358V0.404785Z" fill="#EBBD00"/>
<path d="M4.45833 0.404785C4.64839 0.404785 4.83844 0.503147 4.9368 0.701538L6.02545 2.90885L8.46116 3.26228C8.89796 3.32563 9.07301 3.86412 8.75625 4.17255L6.99407 5.88971L7.41086 8.31542C7.48588 8.75055 7.02741 9.08231 6.6373 8.87725L4.45833 7.73358V0.404785Z" fill="#EBBD00"/>
<path d="M14.2812 0.404785C14.0911 0.404785 13.9011 0.503147 13.8027 0.701538L12.714 2.90885L10.2783 3.26228C9.84155 3.32563 9.6665 3.86412 9.98325 4.17255L11.7454 5.88971L11.3286 8.31542C11.2536 8.75055 11.7121 9.08231 12.1022 8.87725L14.2812 7.73358V0.404785Z" fill="#EBBD00"/>
<path d="M14.2533 0.404785C14.4433 0.404785 14.6334 0.503147 14.7317 0.701538L15.8204 2.90885L18.2561 3.26228C18.6929 3.32563 18.8679 3.86412 18.5512 4.17255L16.789 5.88971L17.2058 8.31542C17.2808 8.75055 16.8223 9.08231 16.4322 8.87725L14.2533 7.73358V0.404785Z" fill="#EBBD00"/>
<path d="M24.0761 0.404785C23.886 0.404785 23.696 0.503147 23.5976 0.701538L22.509 2.90885L20.0733 3.26228C19.6365 3.32563 19.4614 3.86412 19.7782 4.17255L21.5404 5.88971L21.1236 8.31542C21.0485 8.75055 21.507 9.08231 21.8971 8.87725L24.0761 7.73358V0.404785Z" fill="#EBBD00"/>
<path d="M24.0482 0.404785C24.2382 0.404785 24.4283 0.503147 24.5266 0.701538L25.6153 2.90885L28.051 3.26228C28.4878 3.32563 28.6628 3.86412 28.3461 4.17255L26.5839 5.88971L27.0007 8.31542C27.0757 8.75055 26.6173 9.08231 26.2271 8.87725L24.0482 7.73358V0.404785Z" fill="#EBBD00"/>
<path d="M33.8708 0.404785C33.6807 0.404785 33.4907 0.503147 33.3923 0.701538L32.3036 2.90885L29.8679 3.26228C29.4311 3.32563 29.2561 3.86412 29.5729 4.17255L31.335 5.88971L30.9182 8.31542C30.8432 8.75055 31.3017 9.08231 31.6918 8.87725L33.8708 7.73358V0.404785Z" fill="#EBBD00"/>
<path d="M33.8429 0.404785C34.0329 0.404785 34.223 0.503147 34.3213 0.701538L35.41 2.90885L37.8457 3.26228C38.2825 3.32563 38.4575 3.86412 38.1408 4.17255L36.3786 5.88971L36.7954 8.31542C36.8704 8.75055 36.4119 9.08231 36.0218 8.87725L33.8429 7.73358V0.404785Z" fill="#EBBD00"/>
<path d="M43.6657 0.404785C43.4756 0.404785 43.2856 0.503147 43.1872 0.701538L42.0986 2.90885L39.6629 3.26228C39.2261 3.32563 39.051 3.86412 39.3678 4.17255L41.13 5.88971L40.7132 8.31542C40.6381 8.75055 41.0966 9.08231 41.4867 8.87725L43.6657 7.73358V0.404785Z" fill="#EBBD00"/>
<path d="M43.638 0.404785C43.8281 0.404785 44.0181 0.503147 44.1165 0.701538L45.2051 2.90885L47.6408 3.26228C48.0776 3.32563 48.2527 3.86412 47.9359 4.17255L46.1738 5.88971L46.5905 8.31542C46.6656 8.75055 46.2071 9.08231 45.817 8.87725L43.638 7.73358V0.404785Z" fill="#EBBD00"/>
</svg>
