<svg width="14" height="13" viewBox="0 0 14 13" fill="none" xmlns="http://www.w3.org/2000/svg">
<path d="M6.79658 2.5995L6.20688 1.99335C4.82269 0.570505 2.2846 1.06151 1.36839 2.85034C0.938246 3.69171 0.841196 4.90648 1.62664 6.4568C2.3833 7.94955 3.95747 9.73757 6.79658 11.6851C9.63569 9.73757 11.209 7.94955 11.9665 6.4568C12.752 4.90565 12.6557 3.69171 12.2248 2.85034C11.3086 1.06151 8.77047 0.569682 7.38628 1.99253L6.79658 2.5995ZM6.79658 12.6762C-5.81409 4.3431 2.91378 -2.16086 6.65183 1.27946C6.70117 1.32469 6.7497 1.37157 6.79658 1.4201C6.84298 1.37162 6.89127 1.32498 6.94133 1.28028C10.6786 -2.16251 19.4072 4.34227 6.79658 12.6762Z" fill="black"/>
</svg>
