<svg width="11" height="11" viewBox="0 0 11 11" fill="none" xmlns="http://www.w3.org/2000/svg">
<path d="M2.42497 0.14209C2.51148 0.14209 2.59445 0.176457 2.65562 0.23763C2.7168 0.298804 2.75117 0.381773 2.75117 0.468285V0.794481H7.97029V0.468285C7.97029 0.381773 8.00466 0.298804 8.06583 0.23763C8.12701 0.176457 8.20998 0.14209 8.29649 0.14209C8.383 0.14209 8.46597 0.176457 8.52714 0.23763C8.58832 0.298804 8.62268 0.381773 8.62268 0.468285V0.794481H9.27507C9.62112 0.794481 9.953 0.931948 10.1977 1.17664C10.4424 1.42134 10.5799 1.75321 10.5799 2.09926V9.27556C10.5799 9.62161 10.4424 9.95349 10.1977 10.1982C9.953 10.4429 9.62112 10.5803 9.27507 10.5803H1.44638C1.10033 10.5803 0.768457 10.4429 0.523763 10.1982C0.279069 9.95349 0.141602 9.62161 0.141602 9.27556V3.40404H10.5799V2.75165H0.141602V2.09926C0.141602 1.75321 0.279069 1.42134 0.523763 1.17664C0.768457 0.931948 1.10033 0.794481 1.44638 0.794481H2.09877V0.468285C2.09877 0.381773 2.13314 0.298804 2.19431 0.23763C2.25549 0.176457 2.33846 0.14209 2.42497 0.14209V0.14209Z" fill="#461952"/>
</svg>
