<svg width="27" height="26" viewBox="0 0 27 26" fill="none" xmlns="http://www.w3.org/2000/svg">
<path fill-rule="evenodd" clip-rule="evenodd" d="M13.5888 9.0629L10.5356 6.00967C9.43777 4.91214 7.65628 4.91214 6.55875 6.00967C5.46121 7.10721 5.46121 8.88869 6.55875 9.98649L9.61197 13.0397L6.55875 16.0929C5.46121 17.1907 5.46121 18.9722 6.55875 20.0698C7.65628 21.1676 9.43777 21.1676 10.5356 20.0698L13.5888 17.0165L16.642 20.0698C17.7398 21.1676 19.5213 21.1676 20.6188 20.0698C21.7166 18.9722 21.7166 17.1907 20.6188 16.0929L17.5656 13.0397L20.6188 9.98649C21.7166 8.88869 21.7166 7.10721 20.6188 6.00967C19.5213 4.91214 17.7398 4.91214 16.642 6.00967L13.5888 9.0629ZM13.1132 10.4907C13.3762 10.7537 13.8016 10.7537 14.0644 10.4907L17.5935 6.9619C18.166 6.39014 19.0948 6.39014 19.6666 6.9619C20.2384 7.53366 20.2384 8.4625 19.6666 9.03505L16.1378 12.5641C15.8748 12.8271 15.8748 13.2525 16.1378 13.5153L19.6666 17.0444C20.2384 17.6169 20.2384 18.5458 19.6666 19.1175C19.0948 19.6893 18.166 19.6893 17.5935 19.1175L14.0644 15.5887C13.8016 15.3257 13.3762 15.3257 13.1132 15.5887L9.58412 19.1175C9.01157 19.6893 8.08273 19.6893 7.51097 19.1175C6.93922 18.5458 6.93922 17.6169 7.51097 17.0444L11.0398 13.5153C11.3028 13.2525 11.3028 12.8271 11.0398 12.5641L7.51097 9.03505C6.93922 8.4625 6.93922 7.53366 7.51097 6.9619C8.08273 6.39014 9.01157 6.39014 9.58412 6.9619L13.1132 10.4907Z" fill="#461952"/>
</svg>
