<svg width="25" height="26" viewBox="0 0 25 26" fill="none" xmlns="http://www.w3.org/2000/svg">
<path d="M19.285 21.9097H4.21734C4.06761 21.9097 3.9458 21.7879 3.9458 21.6381V13.4007C3.9458 13.2497 4.06761 13.1279 4.21734 13.1279C4.36706 13.1279 4.4876 13.2497 4.4876 13.4007V21.3653H19.0134V15.2495C19.0134 15.0985 19.1353 14.9754 19.285 14.9754C19.4347 14.9754 19.5552 15.0985 19.5552 15.2495V21.6381C19.5552 21.7879 19.4347 21.9097 19.285 21.9097Z" fill="#9A9A9A"/>
<path d="M10.0881 10.8133H1.8355C1.68577 10.8133 1.56396 10.6914 1.56396 10.5417V7.38227C1.56396 6.54102 2.02456 5.76702 2.7643 5.36099C3.04599 5.20619 3.35305 5.1161 3.67534 5.09072C3.6931 5.09072 3.71213 5.08818 7.39054 5.08691C7.54027 5.08691 7.66208 5.20999 7.66208 5.36099C7.66208 5.51071 7.54027 5.63252 7.39054 5.63379C5.15863 5.63379 3.82379 5.63379 3.7096 5.63506C3.46598 5.65536 3.23505 5.72388 3.02315 5.84061C2.45724 6.15021 2.10703 6.74023 2.10703 7.38227V10.2689H10.0881C10.2366 10.2689 10.3584 10.3907 10.3584 10.5417C10.3584 10.6914 10.2366 10.8133 10.0881 10.8133Z" fill="#9A9A9A"/>
<path d="M16.3385 5.63379H16.3372C15.4186 5.63379 14.0038 5.63379 12.4494 5.63252H9.29253C9.14281 5.63252 9.021 5.51071 9.021 5.35972C9.021 5.20999 9.14281 5.08691 9.29253 5.08691H12.4494C14.0051 5.08691 15.4186 5.08818 16.3385 5.08945C16.4882 5.08945 16.6087 5.21126 16.6087 5.36226C16.6087 5.51198 16.4869 5.63379 16.3385 5.63379Z" fill="#9A9A9A"/>
<path d="M19.2838 7.65565C19.1341 7.65565 19.0123 7.53384 19.0123 7.38285C19.0123 6.74208 18.6621 6.15206 18.0974 5.84119C17.9655 5.77014 17.9185 5.60392 17.9896 5.47196C18.0619 5.33999 18.2256 5.29178 18.3576 5.36283C19.096 5.76887 19.5541 6.54287 19.5541 7.38285C19.5541 7.53384 19.4336 7.65565 19.2838 7.65565Z" fill="#9A9A9A"/>
<path d="M7.72445 14.2516C6.04194 14.2516 4.57515 12.8774 3.96864 10.6684C3.92803 10.5237 4.01305 10.374 4.1577 10.3334C4.30108 10.2928 4.4508 10.3778 4.49014 10.5224C5.03194 12.4892 6.29191 13.706 7.72445 13.706C7.87417 13.706 7.99598 13.8278 7.99598 13.9788C7.99598 14.1298 7.87417 14.2516 7.72445 14.2516Z" fill="#9A9A9A"/>
<path d="M9.44356 13.7067L19.2087 13.7054C19.2302 13.7029 19.2518 13.7016 19.2734 13.7016C21.0967 13.6445 22.5965 11.4798 22.6929 8.81904H11.7656C11.7453 9.43063 11.6539 10.0333 11.494 10.6157C11.1121 12.0039 10.3673 13.0964 9.44356 13.7067ZM19.1934 14.2523H7.90064C7.75091 14.2523 7.63037 14.1305 7.63037 13.9795C7.63037 13.8361 7.74076 13.7041 7.88287 13.694C9.24562 13.6039 10.4574 12.3376 10.9713 10.4698C11.1426 9.84935 11.2288 9.20224 11.2288 8.54624C11.2288 8.39525 11.3494 8.27344 11.4991 8.27344H22.9683C23.118 8.27344 23.2398 8.39525 23.2398 8.54624C23.2398 11.674 21.5015 14.1774 19.2835 14.2472L19.2607 14.2485C19.2378 14.251 19.215 14.2523 19.1934 14.2523Z" fill="#9A9A9A"/>
<path d="M1.8355 21.909C1.68577 21.909 1.56396 21.7872 1.56396 21.6375V10.5414C1.56396 10.3904 1.68577 10.2686 1.8355 10.2686C1.98522 10.2686 2.10703 10.3904 2.10703 10.5414V21.6375C2.10703 21.7872 1.98522 21.909 1.8355 21.909Z" fill="#9A9A9A"/>
<path d="M3.0728 21.9092C2.92308 21.9092 2.80127 21.7873 2.80127 21.6376V10.6087C2.80127 10.4577 2.92308 10.3359 3.0728 10.3359C3.22253 10.3359 3.34307 10.4577 3.34307 10.6087V21.6376C3.34307 21.7873 3.22253 21.9092 3.0728 21.9092Z" fill="#9A9A9A"/>
<path d="M6.48946 7.86286C6.33973 7.86286 6.21792 7.74105 6.21792 7.59006C6.21792 7.44034 6.33973 7.31726 6.48946 7.31726C7.40684 7.31726 8.1542 6.5661 8.1542 5.64237C8.1542 4.71864 7.40684 3.96621 6.48946 3.96621C5.7015 3.96621 5.01505 4.52958 4.85771 5.30485C4.82726 5.45204 4.68515 5.54721 4.53796 5.51675C4.39204 5.4863 4.29688 5.34292 4.32606 5.19446C4.53542 4.16796 5.44519 3.42188 6.48946 3.42188C7.70629 3.42188 8.696 4.41793 8.696 5.64237C8.696 6.86681 7.70629 7.86286 6.48946 7.86286Z" fill="#9A9A9A"/>
<path d="M6.40766 8.97538C5.64889 8.97538 5.03223 8.35491 5.03223 7.59106C5.03223 6.82848 5.64889 6.20801 6.40766 6.20801C6.52694 6.20801 6.64621 6.22323 6.76167 6.25496C6.90632 6.29302 6.99261 6.44275 6.95454 6.5874C6.91521 6.73331 6.76675 6.8196 6.6221 6.78153C6.55231 6.7625 6.47999 6.75361 6.40766 6.75361C5.94834 6.75361 5.57403 7.1292 5.57403 7.59106C5.57403 8.05419 5.94834 8.42977 6.40766 8.42977C6.61576 8.42977 6.81497 8.35237 6.96977 8.21026C7.08016 8.10875 7.25145 8.11636 7.35296 8.22675C7.4532 8.33841 7.44559 8.51098 7.3352 8.61249C7.08143 8.84596 6.75152 8.97538 6.40766 8.97538Z" fill="#9A9A9A"/>
<path d="M15.4144 7.86384C15.2647 7.86384 15.1429 7.74203 15.1429 7.59104C15.1429 7.44131 15.2647 7.31823 15.4144 7.31823C16.333 7.31823 17.0804 6.56707 17.0804 5.64335C17.0804 4.71962 16.333 3.96719 15.4144 3.96719C14.6277 3.96719 13.94 4.53056 13.7826 5.30583C13.7535 5.45302 13.6101 5.54818 13.4629 5.51773C13.317 5.48728 13.2218 5.3439 13.2523 5.19544C13.4616 4.16894 14.3714 3.42285 15.4144 3.42285C16.6312 3.42285 17.6222 4.4189 17.6222 5.64335C17.6222 6.86779 16.6312 7.86384 15.4144 7.86384Z" fill="#9A9A9A"/>
<path d="M14.231 7.86386C14.0813 7.86386 13.9595 7.74205 13.9595 7.59106C13.9595 6.82848 14.5761 6.20801 15.3349 6.20801C15.4961 6.20801 15.6534 6.23592 15.8031 6.29048C15.944 6.34124 16.0163 6.49731 15.9655 6.63942C15.9148 6.78153 15.7587 6.85385 15.6191 6.8031C15.5278 6.77011 15.4326 6.75362 15.3349 6.75362C14.8756 6.75362 14.5013 7.1292 14.5013 7.59106C14.5013 7.74205 14.3807 7.86386 14.231 7.86386Z" fill="#9A9A9A"/>
</svg>
