<svg width="8" height="9" viewBox="0 0 8 9" fill="none" xmlns="http://www.w3.org/2000/svg">
<path d="M6.95085 0.624143C6.93085 0.604143 6.90987 0.585241 6.88804 0.567314C6.86609 0.549387 6.84341 0.532558 6.81987 0.516826C6.79646 0.501216 6.77219 0.486704 6.74719 0.473411C6.72231 0.459997 6.69682 0.448045 6.6706 0.437192C6.64451 0.426338 6.61792 0.416826 6.59085 0.408655C6.56377 0.400484 6.53646 0.393655 6.50865 0.388167C6.48097 0.382558 6.45304 0.378411 6.42487 0.375728C6.3967 0.372923 6.36853 0.371582 6.34024 0.371582C6.31207 0.371582 6.28377 0.372923 6.25572 0.375728C6.22755 0.378411 6.19963 0.382558 6.17182 0.388045C6.14414 0.393655 6.1167 0.400484 6.08975 0.408655C6.06268 0.416826 6.03609 0.426338 6.00987 0.437192C5.98377 0.447923 5.95829 0.459997 5.93329 0.473289C5.90841 0.486582 5.88414 0.501094 5.8606 0.516826C5.83707 0.532436 5.81438 0.549265 5.79255 0.567192C5.77072 0.585119 5.74975 0.604021 5.72975 0.624021L5.4306 0.92146H1.07792C1.04536 0.921826 1.01292 0.923655 0.980603 0.92707C0.948286 0.930484 0.916212 0.935484 0.884261 0.94207C0.852432 0.948655 0.820968 0.956826 0.789871 0.96646C0.758895 0.976094 0.728286 0.987314 0.698407 0.999997C0.668407 1.01268 0.639139 1.0267 0.610603 1.04231C0.581944 1.0578 0.554261 1.07475 0.52731 1.09292C0.500359 1.11122 0.474383 1.13073 0.449383 1.15158C0.424383 1.17244 0.400481 1.19439 0.377554 1.21756C0.354749 1.24073 0.333042 1.26487 0.312554 1.29012C0.292066 1.31548 0.27292 1.3417 0.254993 1.36878C0.237066 1.39597 0.220603 1.42402 0.205481 1.4528C0.190237 1.48158 0.176578 1.51097 0.164261 1.54109C0.152066 1.57122 0.141212 1.60195 0.131944 1.63317C0.122676 1.66426 0.114993 1.69585 0.108895 1.7278C0.102676 1.75975 0.0980416 1.79195 0.0951148 1.82426C0.092066 1.8567 0.0906026 1.88914 0.0908465 1.9217V7.15792C0.0906026 7.19048 0.092066 7.22292 0.0951148 7.25536C0.0980416 7.28768 0.102676 7.31987 0.108895 7.35183C0.114993 7.38378 0.122676 7.41536 0.131944 7.44658C0.141212 7.47768 0.152066 7.50841 0.164261 7.53853C0.176578 7.56865 0.190237 7.59804 0.205481 7.62683C0.220603 7.65561 0.237066 7.68365 0.254993 7.71085C0.27292 7.73792 0.292066 7.76414 0.312554 7.78951C0.333042 7.81475 0.354749 7.83902 0.377554 7.86207C0.400481 7.88524 0.424383 7.90731 0.449383 7.92804C0.474383 7.9489 0.500359 7.96841 0.52731 7.9867C0.554261 8.00487 0.581944 8.02183 0.610603 8.03731C0.639139 8.05292 0.668407 8.06695 0.698407 8.07963C0.728286 8.09231 0.758895 8.10353 0.789871 8.11317C0.820968 8.1228 0.852432 8.13097 0.884261 8.13756C0.916212 8.14414 0.948286 8.14914 0.980603 8.15256C1.01292 8.15597 1.04536 8.15792 1.07792 8.15817H6.32719C6.35975 8.15792 6.39219 8.15597 6.42463 8.15256C6.45694 8.14914 6.48902 8.14414 6.52085 8.13756C6.5528 8.13097 6.58426 8.1228 6.61524 8.11317C6.64633 8.10353 6.67682 8.09231 6.70682 8.07963C6.73682 8.06695 6.76609 8.05292 6.79463 8.03731C6.82316 8.02183 6.85097 8.00487 6.87792 7.9867C6.90487 7.96841 6.93085 7.9489 6.95585 7.92804C6.98085 7.90731 7.00475 7.88524 7.02755 7.86207C7.05048 7.83902 7.07207 7.81475 7.09255 7.78951C7.11304 7.76414 7.13231 7.73792 7.15012 7.71085C7.16804 7.68365 7.18463 7.65561 7.19975 7.62683C7.21487 7.59804 7.22865 7.56865 7.24085 7.53853C7.25316 7.50841 7.2639 7.47768 7.27316 7.44658C7.28243 7.41536 7.29024 7.38378 7.29633 7.35183C7.30255 7.31987 7.30707 7.28768 7.31011 7.25536C7.31316 7.22292 7.31451 7.19048 7.31438 7.15792V2.75012L7.58585 2.48024C7.60572 2.46024 7.62475 2.43926 7.64268 2.41744C7.6606 2.39548 7.67731 2.3728 7.69304 2.34926C7.70877 2.32573 7.72316 2.30158 7.73658 2.27658C7.74987 2.2517 7.76194 2.22609 7.77268 2.2C7.78353 2.1739 7.79304 2.14731 7.80121 2.12024C7.80938 2.09317 7.81621 2.06573 7.82182 2.03805C7.82731 2.01036 7.83146 1.98244 7.83414 1.95426C7.83694 1.92609 7.83829 1.89792 7.83829 1.86963C7.83829 1.84134 7.83694 1.81317 7.83414 1.785C7.83146 1.75695 7.82731 1.72902 7.82182 1.70122C7.81621 1.67353 7.80938 1.64609 7.80121 1.61902C7.79304 1.59195 7.78353 1.56536 7.77268 1.53926C7.76194 1.51317 7.74987 1.48768 7.73658 1.46268C7.72316 1.4378 7.70877 1.41353 7.69304 1.39C7.67731 1.36646 7.6606 1.34378 7.64268 1.32195C7.62475 1.3 7.60572 1.27914 7.58585 1.25914L6.95085 0.624143ZM3.61048 3.50987L4.68694 4.58622L3.47048 4.72622L3.61048 3.50987ZM5.07719 4.46853L3.72902 3.12036L5.47743 1.38341L6.82463 2.73061L5.07719 4.46853ZM6.95511 3.1089V7.15792C6.95536 7.17865 6.9545 7.19939 6.95268 7.22012C6.95085 7.24085 6.94792 7.26134 6.94402 7.28183C6.94024 7.30219 6.93536 7.32231 6.9295 7.34231C6.92365 7.36219 6.91682 7.38183 6.90914 7.40109C6.90133 7.42036 6.89268 7.43914 6.88304 7.45756C6.87341 7.47597 6.86292 7.4939 6.85158 7.51134C6.84024 7.52865 6.82804 7.54548 6.81499 7.5617C6.80194 7.5778 6.78829 7.59341 6.77365 7.60817C6.75914 7.62304 6.7439 7.63719 6.72804 7.65048C6.71207 7.66378 6.6956 7.67634 6.67841 7.68805C6.66121 7.69975 6.64353 7.71061 6.62536 7.72061C6.60719 7.73061 6.58853 7.73975 6.56938 7.74792C6.55024 7.75597 6.53085 7.76329 6.51097 7.76951C6.49121 7.77573 6.47121 7.78097 6.45085 7.78524C6.43048 7.78951 6.40999 7.7928 6.38938 7.79512C6.36877 7.79744 6.34804 7.79865 6.32719 7.7989H1.07792C1.05719 7.79865 1.03646 7.79744 1.01585 7.79512C0.995115 7.7928 0.974627 7.78951 0.954383 7.78524C0.934017 7.78097 0.914017 7.77573 0.894139 7.76951C0.874383 7.76329 0.854871 7.75609 0.835847 7.74792C0.8167 7.73975 0.798042 7.73061 0.779871 7.72061C0.761578 7.71061 0.743895 7.69975 0.726822 7.68805C0.709627 7.67634 0.693042 7.66378 0.677188 7.65048C0.661212 7.63719 0.64609 7.62304 0.631456 7.60817C0.616944 7.59341 0.603164 7.5778 0.590115 7.5617C0.577188 7.54548 0.564993 7.52865 0.553651 7.51134C0.542188 7.4939 0.5317 7.47597 0.522188 7.45756C0.512554 7.43914 0.503895 7.42036 0.49609 7.40109C0.488286 7.38183 0.481456 7.36219 0.475725 7.34231C0.469871 7.32231 0.464993 7.30219 0.46109 7.28183C0.45731 7.26134 0.454383 7.24085 0.452554 7.22012C0.450725 7.19939 0.449871 7.17865 0.450115 7.15792V1.9217C0.449871 1.90097 0.450725 1.88024 0.452554 1.85951C0.454383 1.83878 0.45731 1.81829 0.46109 1.7978C0.464993 1.77744 0.469871 1.75731 0.475725 1.73731C0.481456 1.71744 0.488286 1.6978 0.49609 1.67853C0.503895 1.65926 0.512554 1.64048 0.522188 1.62207C0.5317 1.60366 0.542188 1.58573 0.553651 1.56829C0.564993 1.55097 0.577188 1.53414 0.590115 1.51792C0.603164 1.50183 0.616944 1.48622 0.631456 1.47146C0.64609 1.45658 0.661212 1.44244 0.677188 1.42914C0.693042 1.41585 0.709627 1.40329 0.726822 1.39158C0.743895 1.37987 0.761578 1.36902 0.779871 1.35902C0.798042 1.34902 0.8167 1.33987 0.835847 1.3317C0.854871 1.32366 0.874383 1.31634 0.894139 1.31012C0.914017 1.3039 0.934017 1.29866 0.954383 1.29439C0.974627 1.29012 0.995115 1.28683 1.01585 1.28451C1.03646 1.28231 1.05719 1.28097 1.07792 1.28073H5.06938L3.34804 2.99256L3.34792 2.99292L3.34768 2.99305L3.34597 2.99548C3.33133 3.01085 3.31975 3.02829 3.31121 3.0478C3.30853 3.05512 3.30646 3.06256 3.30475 3.07012C3.30109 3.07963 3.29816 3.08939 3.29621 3.09951L3.08768 4.91012C3.08524 4.93 3.08609 4.94963 3.09036 4.96926C3.09463 4.98878 3.10207 5.00707 3.11255 5.02414C3.12304 5.04122 3.13609 5.05609 3.15158 5.06866C3.16719 5.08134 3.18438 5.09097 3.20329 5.09768C3.21109 5.09987 3.2189 5.10146 3.22694 5.10244C3.23975 5.10646 3.2528 5.10914 3.26621 5.11024C3.27304 5.11024 3.27987 5.10987 3.2867 5.10902L5.09731 4.90073C5.1078 4.89865 5.11804 4.89561 5.12804 4.8917C5.13499 4.89024 5.14182 4.88817 5.14853 4.88585C5.16914 4.87719 5.18731 4.86512 5.20341 4.84963L6.95511 3.1089ZM7.33182 2.22622L7.07938 2.47731L5.73194 1.12987L5.98365 0.878045C5.99536 0.866338 6.00768 0.855362 6.02036 0.844875C6.03316 0.834387 6.04646 0.824631 6.06011 0.815484C6.0739 0.806216 6.08804 0.797802 6.10268 0.789997C6.11719 0.782314 6.13207 0.775241 6.14731 0.768899C6.16268 0.76268 6.17816 0.75707 6.1939 0.752314C6.20975 0.747558 6.22572 0.743533 6.24194 0.740362C6.25816 0.73707 6.27451 0.734631 6.29085 0.733045C6.30731 0.73146 6.32377 0.730606 6.34024 0.730606C6.35682 0.730606 6.37329 0.73146 6.38975 0.733045C6.40609 0.734753 6.42243 0.73707 6.43865 0.740362C6.45487 0.743533 6.47085 0.747558 6.48658 0.752314C6.50243 0.75707 6.51792 0.76268 6.53316 0.769021C6.54841 0.775241 6.56341 0.782314 6.57792 0.790119C6.59255 0.797923 6.6067 0.806338 6.62036 0.815484C6.63414 0.824631 6.64731 0.834509 6.66011 0.844875C6.67292 0.855362 6.68511 0.86646 6.69682 0.878045L7.33182 1.51305C7.34353 1.52475 7.35451 1.53695 7.36499 1.54975C7.37548 1.56256 7.38524 1.57585 7.39438 1.58951C7.40353 1.60329 7.41207 1.61744 7.41975 1.63195C7.42755 1.64658 7.43463 1.66146 7.44097 1.6767C7.44719 1.69195 7.4528 1.70756 7.45755 1.72329C7.46231 1.73914 7.46633 1.75512 7.4695 1.77134C7.4728 1.78756 7.47524 1.80378 7.47682 1.82024C7.47841 1.8367 7.47926 1.85317 7.47926 1.86963C7.47926 1.88622 7.47841 1.90268 7.47682 1.91902C7.47524 1.93548 7.4728 1.95183 7.4695 1.96805C7.46633 1.98414 7.46231 2.00024 7.45755 2.01597C7.4528 2.03183 7.44719 2.04731 7.44097 2.06256C7.43463 2.0778 7.42755 2.09268 7.41975 2.10731C7.41207 2.12183 7.40353 2.13597 7.39438 2.14975C7.38524 2.16353 7.37548 2.1767 7.36499 2.18951C7.35451 2.20231 7.34353 2.21451 7.33182 2.22622Z" fill="#A9A9A9"/>
</svg>
