<svg width="8" height="10" viewBox="0 0 8 10" fill="none" xmlns="http://www.w3.org/2000/svg">
<path d="M3.99788 0.872681C3.94388 0.872681 3.89013 0.874056 3.83625 0.876806C3.78238 0.879556 3.72863 0.883556 3.675 0.888931C3.62138 0.894181 3.56788 0.900931 3.51463 0.908806C3.46125 0.916806 3.40825 0.926056 3.35538 0.936681C3.3025 0.947181 3.24988 0.959056 3.19763 0.972181C3.14538 0.985306 3.0935 0.999806 3.04188 1.01543C2.99025 1.03118 2.93913 1.04818 2.88838 1.06631C2.83763 1.08456 2.78737 1.10393 2.73763 1.12468C2.68788 1.14531 2.63863 1.16718 2.58988 1.19031C2.54113 1.21331 2.493 1.23768 2.4455 1.26306C2.398 1.28856 2.35113 1.31518 2.30488 1.34281C2.25863 1.37056 2.21313 1.39943 2.16838 1.42943C2.1235 1.45943 2.0795 1.49056 2.03613 1.52268C1.99288 1.55481 1.95038 1.58793 1.90875 1.62218C1.86713 1.65643 1.82625 1.69168 1.78638 1.72781C1.74638 1.76406 1.70738 1.80131 1.66925 1.83943C1.63113 1.87756 1.594 1.91656 1.55775 1.95656C1.52163 1.99656 1.48638 2.03731 1.45225 2.07906C1.418 2.12081 1.38487 2.16331 1.35275 2.20656C1.32063 2.24993 1.2895 2.29393 1.25963 2.33881C1.22963 2.38368 1.20075 2.42918 1.173 2.47543C1.14537 2.52168 1.11875 2.56856 1.09338 2.61618C1.06788 2.66368 1.04363 2.71193 1.02063 2.76068C0.9975 2.80943 0.975625 2.85868 0.955 2.90843C0.934375 2.95831 0.914875 3.00856 0.89675 3.05943C0.8785 3.11018 0.861625 3.16131 0.845875 3.21293C0.83025 3.26456 0.81575 3.31656 0.802625 3.36881C0.7895 3.42118 0.777625 3.47381 0.767125 3.52668C0.7565 3.57956 0.74725 3.63268 0.739375 3.68606C0.731375 3.73931 0.72475 3.79281 0.719375 3.84656C0.714 3.90018 0.71 3.95393 0.707375 4.00781C0.704625 4.06168 0.70325 4.11568 0.703125 4.16956C0.703125 6.68268 3.78513 8.99093 3.91625 9.08806C3.928 9.09681 3.94088 9.10343 3.95488 9.10806C3.96888 9.11268 3.98313 9.11493 3.99788 9.11493C4.0125 9.11493 4.02688 9.11268 4.04088 9.10806C4.05475 9.10343 4.06763 9.09681 4.0795 9.08806C4.21063 8.99093 7.2925 6.68268 7.2925 4.16956C7.29238 4.11568 7.291 4.06168 7.28838 4.00781C7.28563 3.95393 7.28163 3.90018 7.27625 3.84656C7.271 3.79281 7.26425 3.73931 7.25638 3.68606C7.24838 3.63268 7.23913 3.57956 7.22863 3.52668C7.218 3.47381 7.20613 3.42118 7.193 3.36881C7.17988 3.31656 7.1655 3.26456 7.14975 3.21293C7.13413 3.16131 7.11713 3.11018 7.099 3.05943C7.08075 3.00856 7.06138 2.95831 7.04075 2.90843C7.02 2.85868 6.99813 2.80943 6.97513 2.76068C6.952 2.71193 6.92775 2.66368 6.90238 2.61618C6.87688 2.56856 6.85038 2.52168 6.82263 2.47543C6.79488 2.42918 6.766 2.38368 6.73613 2.33881C6.70613 2.29393 6.67513 2.24993 6.643 2.20656C6.61088 2.16331 6.57775 2.12081 6.5435 2.07906C6.50925 2.03731 6.47413 1.99656 6.43788 1.95656C6.40163 1.91656 6.3645 1.87756 6.32638 1.83943C6.28825 1.80131 6.24925 1.76406 6.20938 1.72781C6.16938 1.69168 6.12863 1.65643 6.08688 1.62218C6.04525 1.58793 6.00275 1.55481 5.9595 1.52268C5.91625 1.49056 5.87213 1.45943 5.82738 1.42943C5.7825 1.39943 5.737 1.37056 5.69075 1.34281C5.64463 1.31518 5.59775 1.28856 5.55013 1.26306C5.50263 1.23768 5.4545 1.21331 5.40588 1.19031C5.35713 1.16718 5.30788 1.14531 5.25813 1.12468C5.20825 1.10393 5.158 1.08456 5.10725 1.06631C5.0565 1.04818 5.00538 1.03118 4.95375 1.01543C4.90225 0.999806 4.85038 0.985306 4.798 0.972181C4.74575 0.959056 4.69325 0.947181 4.64038 0.936681C4.5875 0.926056 4.53438 0.916806 4.48113 0.908806C4.42775 0.900931 4.37425 0.894181 4.32063 0.888931C4.267 0.883556 4.21325 0.879556 4.1595 0.876806C4.10563 0.874056 4.05175 0.872681 3.99788 0.872681ZM3.99788 8.80418C3.50713 8.41831 0.97775 6.32431 0.97775 4.16956C0.97775 4.12006 0.979 4.07068 0.981375 4.02131C0.98375 3.97193 0.987375 3.92256 0.99225 3.87331C0.997125 3.82418 1.00313 3.77506 1.01038 3.72618C1.01763 3.67718 1.02613 3.62843 1.03575 3.57993C1.04538 3.53143 1.05625 3.48318 1.06825 3.43531C1.08025 3.38731 1.09337 3.33956 1.10775 3.29231C1.12213 3.24493 1.13763 3.19806 1.15425 3.15143C1.17088 3.10481 1.18875 3.05868 1.20763 3.01306C1.2265 2.96731 1.24663 2.92218 1.26775 2.87743C1.28888 2.83268 1.311 2.78856 1.33438 2.74493C1.35763 2.70131 1.382 2.65831 1.40738 2.61593C1.43288 2.57343 1.45925 2.53168 1.48675 2.49056C1.51413 2.44943 1.54263 2.40906 1.57213 2.36931C1.6015 2.32956 1.63188 2.29056 1.66325 2.25231C1.69463 2.21406 1.72688 2.17668 1.76013 2.14006C1.79325 2.10331 1.82738 2.06756 1.86225 2.03256C1.89725 1.99756 1.933 1.96356 1.96963 1.93031C2.00625 1.89706 2.04375 1.86481 2.08188 1.83343C2.12013 1.80206 2.15913 1.77156 2.19875 1.74218C2.2385 1.71268 2.27887 1.68418 2.32 1.65668C2.361 1.62931 2.40275 1.60281 2.44525 1.57743C2.48763 1.55193 2.53063 1.52756 2.57413 1.50431C2.61775 1.48093 2.66188 1.45868 2.70662 1.43756C2.75125 1.41643 2.79638 1.39643 2.84213 1.37743C2.88775 1.35856 2.93388 1.34068 2.98038 1.32406C3.02688 1.30743 3.07388 1.29193 3.12113 1.27756C3.1685 1.26318 3.21613 1.25006 3.264 1.23793C3.312 1.22593 3.36013 1.21518 3.40863 1.20543C3.45713 1.19581 3.50575 1.18743 3.55475 1.18018C3.60363 1.17281 3.65263 1.16681 3.70188 1.16193C3.751 1.15706 3.80025 1.15343 3.84963 1.15106C3.899 1.14868 3.94838 1.14743 3.99788 1.14743C4.04725 1.14743 4.09663 1.14868 4.146 1.15106C4.19538 1.15343 4.24463 1.15706 4.29388 1.16193C4.343 1.16681 4.39213 1.17281 4.441 1.18018C4.48988 1.18743 4.5385 1.19581 4.587 1.20543C4.6355 1.21518 4.68375 1.22593 4.73163 1.23793C4.77963 1.25006 4.82725 1.26318 4.8745 1.27756C4.92188 1.29193 4.96875 1.30743 5.01525 1.32406C5.06188 1.34068 5.10788 1.35856 5.15363 1.37743C5.19925 1.39643 5.24438 1.41643 5.28913 1.43756C5.33375 1.45868 5.37788 1.48093 5.4215 1.50431C5.46513 1.52756 5.50813 1.55193 5.5505 1.57743C5.59288 1.60281 5.63463 1.62931 5.67575 1.65668C5.71688 1.68418 5.75725 1.71268 5.79688 1.74218C5.83663 1.77156 5.87563 1.80206 5.91375 1.83343C5.952 1.86481 5.98938 1.89706 6.026 1.93031C6.06263 1.96356 6.09838 1.99756 6.13338 2.03256C6.16838 2.06756 6.20238 2.10331 6.23563 2.14006C6.26875 2.17668 6.301 2.21406 6.33238 2.25231C6.36375 2.29056 6.39413 2.32956 6.42363 2.36931C6.453 2.40906 6.4815 2.44943 6.509 2.49056C6.53638 2.53168 6.56288 2.57343 6.58825 2.61593C6.61363 2.65831 6.638 2.70131 6.66138 2.74493C6.68463 2.78856 6.70688 2.83268 6.728 2.87743C6.74913 2.92218 6.76913 2.96731 6.788 3.01306C6.807 3.05868 6.82475 3.10481 6.84138 3.15143C6.858 3.19806 6.8735 3.24493 6.88788 3.29231C6.90225 3.33956 6.91538 3.38731 6.92738 3.43531C6.9395 3.48318 6.95025 3.53143 6.95988 3.57993C6.9695 3.62843 6.978 3.67718 6.98525 3.72618C6.9925 3.77506 6.9985 3.82418 7.00338 3.87331C7.00825 3.92256 7.01188 3.97193 7.01425 4.02131C7.01675 4.07068 7.018 4.12006 7.018 4.16956C7.018 6.32431 4.4885 8.41831 3.99788 8.80418ZM3.99788 1.55956C3.95513 1.55956 3.9125 1.56056 3.86988 1.56268C3.82725 1.56481 3.78463 1.56793 3.74213 1.57206C3.69975 1.57631 3.65738 1.58156 3.61513 1.58781C3.57288 1.59406 3.53088 1.60131 3.489 1.60968C3.44713 1.61806 3.4055 1.62731 3.36413 1.63781C3.32263 1.64818 3.2815 1.65956 3.24075 1.67193C3.19988 1.68431 3.15938 1.69768 3.11913 1.71206C3.079 1.72643 3.03913 1.74181 2.99975 1.75818C2.96025 1.77456 2.92125 1.79181 2.88263 1.81006C2.84413 1.82843 2.806 1.84756 2.76825 1.86768C2.73063 1.88781 2.6935 1.90893 2.65688 1.93081C2.62025 1.95281 2.58425 1.97568 2.54875 1.99943C2.51325 2.02318 2.47838 2.04768 2.44413 2.07318C2.40975 2.09856 2.37613 2.12493 2.34313 2.15193C2.31013 2.17906 2.27788 2.20693 2.24625 2.23568C2.21463 2.26431 2.18375 2.29381 2.1535 2.32393C2.12338 2.35418 2.09388 2.38518 2.06525 2.41681C2.03663 2.44843 2.00875 2.48081 1.98163 2.51381C1.9545 2.54681 1.92825 2.58043 1.90288 2.61481C1.87738 2.64906 1.85287 2.68393 1.82913 2.71956C1.80537 2.75506 1.78263 2.79106 1.76063 2.82768C1.73875 2.86443 1.71763 2.90156 1.6975 2.93918C1.67738 2.97693 1.65825 3.01506 1.64 3.05368C1.62175 3.09231 1.6045 3.13131 1.58813 3.17081C1.57175 3.21018 1.55638 3.25006 1.542 3.29031C1.52763 3.33043 1.51425 3.37106 1.50188 3.41193C1.4895 3.45281 1.47813 3.49393 1.46775 3.53543C1.45738 3.57681 1.448 3.61843 1.43963 3.66043C1.43138 3.70231 1.424 3.74431 1.41775 3.78656C1.4115 3.82881 1.40625 3.87118 1.40213 3.91381C1.398 3.95631 1.39475 3.99881 1.39275 4.04156C1.39063 4.08418 1.38963 4.12681 1.38963 4.16956C1.38963 4.21231 1.39063 4.25493 1.39275 4.29768C1.39475 4.34031 1.398 4.38293 1.40213 4.42543C1.40625 4.46793 1.4115 4.51031 1.41775 4.55256C1.424 4.59481 1.43138 4.63693 1.43963 4.67881C1.448 4.72068 1.45738 4.76231 1.46775 4.80381C1.47813 4.84518 1.4895 4.88631 1.50188 4.92718C1.51425 4.96806 1.52763 5.00868 1.542 5.04893C1.55638 5.08906 1.57175 5.12893 1.58813 5.16843C1.6045 5.20781 1.62175 5.24693 1.64 5.28556C1.65825 5.32418 1.67738 5.36231 1.6975 5.39993C1.71763 5.43756 1.73875 5.47481 1.76063 5.51143C1.78263 5.54806 1.80537 5.58418 1.82913 5.61968C1.85287 5.65518 1.87738 5.69006 1.90288 5.72443C1.92825 5.75868 1.9545 5.79231 1.98163 5.82543C2.00875 5.85843 2.03663 5.89068 2.06525 5.92243C2.09388 5.95406 2.12338 5.98493 2.1535 6.01518C2.18375 6.04531 2.21463 6.07481 2.24625 6.10343C2.27788 6.13218 2.31013 6.16006 2.34313 6.18718C2.37613 6.21431 2.40975 6.24056 2.44413 6.26593C2.47838 6.29143 2.51325 6.31606 2.54875 6.33981C2.58425 6.36343 2.62025 6.38631 2.65688 6.40831C2.6935 6.43031 2.73063 6.45131 2.76825 6.47143C2.806 6.49156 2.84413 6.51081 2.88263 6.52906C2.92125 6.54731 2.96025 6.56456 2.99975 6.58093C3.03913 6.59731 3.079 6.61268 3.11913 6.62706C3.15938 6.64143 3.19988 6.65481 3.24075 6.66718C3.2815 6.67968 3.32263 6.69106 3.36413 6.70143C3.4055 6.71181 3.44713 6.72118 3.489 6.72943C3.53088 6.73781 3.57288 6.74506 3.61513 6.75143C3.65738 6.75768 3.69975 6.76293 3.74213 6.76706C3.78463 6.77118 3.82725 6.77443 3.86988 6.77643C3.9125 6.77856 3.95513 6.77968 3.99788 6.77968C4.0405 6.77968 4.08313 6.77856 4.12588 6.77643C4.1685 6.77443 4.211 6.77118 4.2535 6.76706C4.296 6.76293 4.33838 6.75768 4.3805 6.75143C4.42275 6.74506 4.46488 6.73781 4.50675 6.72943C4.5485 6.72118 4.59025 6.71181 4.63163 6.70143C4.673 6.69106 4.71413 6.67968 4.755 6.66718C4.79588 6.65481 4.83638 6.64143 4.8765 6.62706C4.91675 6.61268 4.9565 6.59731 4.996 6.58093C5.03538 6.56456 5.07438 6.54731 5.113 6.52906C5.15163 6.51081 5.18975 6.49156 5.22738 6.47143C5.265 6.45131 5.30213 6.43031 5.33875 6.40831C5.37538 6.38631 5.41138 6.36343 5.44688 6.33981C5.48238 6.31606 5.51725 6.29143 5.55163 6.26593C5.58588 6.24056 5.6195 6.21431 5.6525 6.18718C5.6855 6.16006 5.71788 6.13218 5.7495 6.10343C5.78113 6.07481 5.812 6.04531 5.84213 6.01518C5.87238 5.98493 5.90175 5.95406 5.9305 5.92243C5.95913 5.89068 5.987 5.85843 6.014 5.82543C6.04113 5.79231 6.06738 5.75868 6.09288 5.72443C6.11825 5.69006 6.14288 5.65518 6.1665 5.61968C6.19025 5.58418 6.21313 5.54806 6.235 5.51143C6.257 5.47481 6.278 5.43756 6.29813 5.39993C6.31825 5.36231 6.3375 5.32418 6.35575 5.28556C6.374 5.24693 6.39125 5.20781 6.40763 5.16843C6.42388 5.12893 6.43925 5.08906 6.45363 5.04893C6.468 5.00868 6.48138 4.96806 6.49375 4.92718C6.50625 4.88631 6.51763 4.84518 6.528 4.80381C6.53838 4.76231 6.54763 4.72068 6.556 4.67881C6.56438 4.63693 6.57163 4.59481 6.57788 4.55256C6.58413 4.51031 6.58938 4.46793 6.5935 4.42543C6.59775 4.38293 6.60088 4.34031 6.603 4.29768C6.60513 4.25493 6.60613 4.21231 6.60613 4.16956C6.606 4.12693 6.605 4.08418 6.60288 4.04156C6.60075 3.99893 6.5975 3.95631 6.59325 3.91381C6.589 3.87131 6.58375 3.82893 6.5775 3.78681C6.57125 3.74456 6.56388 3.70243 6.5555 3.66056C6.54713 3.61868 6.53775 3.57706 6.52738 3.53568C6.517 3.49418 6.5055 3.45306 6.49313 3.41231C6.48075 3.37143 6.46725 3.33081 6.45288 3.29068C6.4385 3.25043 6.42313 3.21068 6.40675 3.17118C6.39038 3.13181 6.37313 3.09281 6.35488 3.05418C6.33663 3.01556 6.31738 2.97743 6.29725 2.93981C6.27713 2.90218 6.25613 2.86506 6.23413 2.82843C6.21213 2.79181 6.18938 2.75568 6.16563 2.72018C6.14188 2.68468 6.11738 2.64981 6.09188 2.61556C6.0665 2.58118 6.04025 2.54756 6.01313 2.51456C5.98613 2.48156 5.95825 2.44931 5.9295 2.41756C5.90088 2.38593 5.8715 2.35506 5.84125 2.32481C5.81113 2.29468 5.78025 2.26518 5.74863 2.23656C5.717 2.20781 5.68475 2.17993 5.65175 2.15293C5.61875 2.12581 5.58513 2.09956 5.55088 2.07406C5.51663 2.04868 5.48175 2.02406 5.44625 2.00031C5.41075 1.97656 5.37475 1.95368 5.33813 1.93181C5.3015 1.90981 5.26438 1.88868 5.22675 1.86856C5.18913 1.84843 5.151 1.82918 5.1125 1.81093C5.07388 1.79268 5.03488 1.77531 4.9955 1.75906C4.95613 1.74268 4.91638 1.72718 4.87613 1.71281C4.836 1.69843 4.7955 1.68506 4.75463 1.67256C4.71388 1.66018 4.67275 1.64868 4.63138 1.63831C4.59 1.62793 4.54838 1.61856 4.5065 1.61018C4.46463 1.60181 4.42263 1.59443 4.38038 1.58818C4.33825 1.58181 4.29588 1.57656 4.25338 1.57231C4.211 1.56818 4.16838 1.56493 4.12575 1.56281C4.08313 1.56068 4.0405 1.55956 3.99788 1.55956ZM3.99788 6.50493C3.95963 6.50493 3.9215 6.50393 3.88338 6.50206C3.84513 6.50018 3.80713 6.49743 3.76913 6.49368C3.73113 6.48993 3.69325 6.48518 3.65538 6.47956C3.61763 6.47406 3.58 6.46743 3.5425 6.46006C3.50513 6.45256 3.46788 6.44418 3.43075 6.43493C3.39375 6.42556 3.357 6.41543 3.32038 6.40431C3.28388 6.39318 3.24763 6.38131 3.21163 6.36843C3.17563 6.35543 3.14 6.34168 3.10475 6.32706C3.0695 6.31243 3.03463 6.29706 3 6.28068C2.9655 6.26431 2.93138 6.24718 2.89775 6.22918C2.864 6.21106 2.83088 6.19231 2.79813 6.17268C2.76525 6.15293 2.733 6.13256 2.70125 6.11131C2.6695 6.09006 2.63838 6.06806 2.60763 6.04531C2.577 6.02256 2.54688 5.99906 2.51738 5.97481C2.48788 5.95056 2.45888 5.92556 2.43063 5.89993C2.40225 5.87431 2.37463 5.84793 2.34763 5.82093C2.32063 5.79381 2.29438 5.76618 2.26863 5.73793C2.243 5.70956 2.21813 5.68068 2.19388 5.65106C2.16963 5.62156 2.14613 5.59143 2.12338 5.56068C2.10063 5.53006 2.07863 5.49881 2.05738 5.46706C2.03625 5.43518 2.01575 5.40293 1.99613 5.37018C1.9765 5.33743 1.95775 5.30418 1.93963 5.27043C1.92163 5.23668 1.9045 5.20256 1.88813 5.16806C1.87188 5.13356 1.85638 5.09856 1.84175 5.06331C1.82713 5.02793 1.81338 4.99231 1.8005 4.95631C1.78763 4.92031 1.77575 4.88406 1.76463 4.84743C1.7535 4.81093 1.74338 4.77406 1.734 4.73706C1.72475 4.69993 1.71637 4.66268 1.709 4.62518C1.7015 4.58768 1.695 4.55006 1.68938 4.51218C1.68375 4.47443 1.67913 4.43656 1.67538 4.39843C1.67163 4.36043 1.66875 4.32231 1.66688 4.28418C1.665 4.24593 1.66413 4.20781 1.66413 4.16956C1.66413 4.13131 1.665 4.09318 1.66688 4.05493C1.66875 4.01681 1.67163 3.97868 1.67538 3.94068C1.67913 3.90268 1.68375 3.86468 1.68938 3.82693C1.695 3.78906 1.7015 3.75143 1.709 3.71393C1.71637 3.67643 1.72475 3.63918 1.734 3.60218C1.74338 3.56506 1.7535 3.52818 1.76463 3.49168C1.77575 3.45506 1.78763 3.41881 1.8005 3.38281C1.81338 3.34681 1.82713 3.31118 1.84175 3.27593C1.85638 3.24056 1.87188 3.20568 1.88813 3.17106C1.9045 3.13656 1.92163 3.10243 1.93963 3.06868C1.95775 3.03506 1.9765 3.00181 1.99613 2.96893C2.01575 2.93618 2.03625 2.90393 2.05738 2.87218C2.07863 2.84031 2.10063 2.80918 2.12338 2.77843C2.14613 2.74768 2.16963 2.71756 2.19388 2.68806C2.21813 2.65856 2.243 2.62956 2.26863 2.60131C2.29438 2.57293 2.32063 2.54531 2.34763 2.51831C2.37463 2.49118 2.40225 2.46493 2.43063 2.43918C2.45888 2.41356 2.48788 2.38856 2.51738 2.36431C2.54688 2.34006 2.577 2.31656 2.60763 2.29381C2.63838 2.27106 2.6695 2.24906 2.70125 2.22781C2.733 2.20656 2.76525 2.18618 2.79813 2.16656C2.83088 2.14681 2.864 2.12806 2.89775 2.11006C2.93138 2.09206 2.9655 2.07481 3 2.05843C3.03463 2.04218 3.0695 2.02668 3.10475 2.01206C3.14 1.99743 3.17563 1.98368 3.21163 1.97081C3.24763 1.95793 3.28388 1.94593 3.32038 1.93481C3.357 1.92368 3.39375 1.91356 3.43075 1.90431C3.46788 1.89493 3.50513 1.88656 3.5425 1.87918C3.58 1.87168 3.61763 1.86518 3.65538 1.85956C3.69325 1.85393 3.73113 1.84931 3.76913 1.84556C3.80713 1.84181 3.84513 1.83893 3.88338 1.83706C3.9215 1.83518 3.95963 1.83431 3.99788 1.83431C4.036 1.83431 4.07425 1.83518 4.11238 1.83706C4.1505 1.83893 4.18863 1.84181 4.22663 1.84556C4.26463 1.84931 4.3025 1.85393 4.34025 1.85956C4.378 1.86518 4.41563 1.87168 4.45313 1.87918C4.49063 1.88656 4.52788 1.89493 4.56488 1.90431C4.60188 1.91356 4.63875 1.92368 4.67525 1.93481C4.71187 1.94593 4.74813 1.95793 4.784 1.97081C4.82 1.98368 4.85563 1.99743 4.89088 2.01206C4.92625 2.02668 4.96113 2.04218 4.99563 2.05843C5.03013 2.07481 5.06425 2.09206 5.098 2.11006C5.13163 2.12806 5.16488 2.14681 5.19763 2.16656C5.23038 2.18618 5.26263 2.20656 5.29438 2.22781C5.32613 2.24906 5.35738 2.27106 5.388 2.29381C5.41875 2.31656 5.44875 2.34006 5.47838 2.36431C5.50788 2.38856 5.53675 2.41356 5.56513 2.43918C5.59338 2.46493 5.621 2.49118 5.648 2.51831C5.675 2.54531 5.70138 2.57293 5.727 2.60131C5.75263 2.62956 5.77763 2.65856 5.80188 2.68806C5.826 2.71756 5.8495 2.74768 5.87225 2.77843C5.895 2.80918 5.917 2.84031 5.93825 2.87218C5.9595 2.90393 5.97988 2.93618 5.9995 2.96893C6.01913 3.00181 6.038 3.03506 6.056 3.06868C6.074 3.10243 6.09113 3.13656 6.1075 3.17106C6.12388 3.20568 6.13925 3.24056 6.15388 3.27593C6.1685 3.31118 6.18225 3.34681 6.19513 3.38281C6.208 3.41881 6.22 3.45506 6.23113 3.49168C6.24213 3.52818 6.25238 3.56506 6.26163 3.60218C6.27088 3.63918 6.27925 3.67643 6.28675 3.71393C6.29413 3.75143 6.30075 3.78906 6.30625 3.82693C6.31188 3.86468 6.31663 3.90268 6.32038 3.94068C6.324 3.97868 6.32688 4.01681 6.32875 4.05493C6.33063 4.09318 6.3315 4.13131 6.3315 4.16956C6.3315 4.20781 6.3305 4.24593 6.32863 4.28418C6.32675 4.32231 6.32388 4.36043 6.32013 4.39843C6.31625 4.43643 6.31163 4.47431 6.306 4.51206C6.30038 4.54993 6.29375 4.58756 6.28625 4.62493C6.27875 4.66243 6.27038 4.69968 6.26113 4.73681C6.25175 4.77381 6.24163 4.81068 6.2305 4.84718C6.21938 4.88368 6.20738 4.92006 6.1945 4.95593C6.18163 4.99193 6.16788 5.02756 6.15325 5.06281C6.13863 5.09818 6.12313 5.13306 6.10675 5.16756C6.09038 5.20206 6.07325 5.23618 6.05525 5.26993C6.03725 5.30356 6.01838 5.33681 5.99875 5.36956C5.97913 5.40231 5.95863 5.43468 5.9375 5.46643C5.91625 5.49818 5.89425 5.52943 5.8715 5.56006C5.84875 5.59068 5.82525 5.62081 5.801 5.65043C5.77675 5.67993 5.75188 5.70881 5.72625 5.73718C5.70063 5.76543 5.67425 5.79306 5.64725 5.82018C5.62025 5.84718 5.59263 5.87343 5.56438 5.89918C5.536 5.92481 5.50713 5.94981 5.47763 5.97393C5.44813 5.99818 5.418 6.02168 5.38738 6.04456C5.35675 6.06731 5.3255 6.08931 5.29375 6.11056C5.262 6.13181 5.22975 6.15218 5.197 6.17181C5.16425 6.19156 5.13113 6.21031 5.09738 6.22831C5.06375 6.24643 5.02963 6.26356 4.99513 6.27993C4.96063 6.29631 4.92575 6.31181 4.8905 6.32643C4.85525 6.34106 4.81963 6.35481 4.78375 6.36768C4.74775 6.38056 4.7115 6.39268 4.675 6.40368C4.6385 6.41481 4.60163 6.42506 4.56463 6.43443C4.52763 6.44368 4.49038 6.45206 4.453 6.45956C4.4155 6.46706 4.37788 6.47368 4.34013 6.47931C4.30238 6.48493 4.2645 6.48956 4.2265 6.49343C4.1885 6.49718 4.1505 6.50006 4.11225 6.50193C4.07413 6.50381 4.036 6.50481 3.99788 6.50493ZM4.68425 2.79581C4.62025 2.79581 4.557 2.80206 4.49425 2.81468C4.43163 2.82731 4.37075 2.84606 4.31188 2.87081C4.25288 2.89568 4.197 2.92606 4.14413 2.96206C4.09125 2.99806 4.0425 3.03893 3.99788 3.08468C3.96463 3.05081 3.92913 3.01943 3.89125 2.99081C3.85338 2.96206 3.81363 2.93643 3.772 2.91356C3.73038 2.89081 3.68725 2.87131 3.64275 2.85493C3.59813 2.83856 3.55263 2.82543 3.50613 2.81581C3.45975 2.80618 3.41275 2.80006 3.36538 2.79743C3.318 2.79468 3.27063 2.79556 3.22338 2.79993C3.17613 2.80431 3.1295 2.81206 3.08338 2.82331C3.03725 2.83456 2.99225 2.84918 2.94825 2.86718C2.90438 2.88506 2.862 2.90618 2.82113 2.93043C2.78025 2.95468 2.7415 2.98168 2.70475 3.01168C2.66788 3.04168 2.6335 3.07418 2.6015 3.10931C2.5695 3.14443 2.54025 3.18168 2.51388 3.22106C2.48738 3.26056 2.464 3.30168 2.44363 3.34456C2.42325 3.38743 2.40613 3.43168 2.39225 3.47706C2.37838 3.52256 2.368 3.56868 2.361 3.61568C2.354 3.66268 2.3505 3.70993 2.3505 3.75743C2.3505 4.92456 3.8675 5.76593 3.93213 5.80131C3.95263 5.81243 3.9745 5.81806 3.99788 5.81806C4.02113 5.81806 4.043 5.81243 4.0635 5.80131C4.12813 5.76593 5.64513 4.92456 5.64513 3.75743C5.64513 3.72593 5.6435 3.69456 5.6405 3.66318C5.63738 3.63193 5.63263 3.60081 5.6265 3.56993C5.62038 3.53906 5.61275 3.50856 5.6035 3.47843C5.59438 3.44831 5.58375 3.41868 5.57175 3.38968C5.55963 3.36056 5.54625 3.33218 5.53138 3.30443C5.5165 3.27668 5.50038 3.24968 5.48288 3.22343C5.46538 3.19731 5.44663 3.17206 5.42675 3.14768C5.40675 3.12343 5.38563 3.10006 5.36338 3.07781C5.34113 3.05556 5.31788 3.03443 5.2935 3.01443C5.26925 2.99456 5.244 2.97581 5.21788 2.95831C5.19163 2.94081 5.16475 2.92456 5.137 2.90968C5.10925 2.89493 5.08088 2.88143 5.05175 2.86931C5.02275 2.85731 4.99312 2.84668 4.963 2.83756C4.933 2.82831 4.9025 2.82068 4.87163 2.81456C4.84075 2.80831 4.80975 2.80368 4.77838 2.80056C4.74713 2.79743 4.71575 2.79593 4.68425 2.79581ZM3.99788 5.52168C3.71575 5.35143 2.62513 4.63593 2.62513 3.75743C2.625 3.72081 2.628 3.68443 2.63375 3.64818C2.63963 3.61193 2.64825 3.57643 2.65975 3.54168C2.67125 3.50693 2.6855 3.47318 2.70238 3.44068C2.71925 3.40818 2.73863 3.37718 2.7605 3.34781C2.78238 3.31831 2.80638 3.29081 2.83263 3.26531C2.85888 3.23968 2.887 3.21631 2.917 3.19531C2.947 3.17418 2.97838 3.15568 3.01138 3.13968C3.04438 3.12368 3.07838 3.11031 3.11338 3.09981C3.1485 3.08918 3.18413 3.08143 3.2205 3.07668C3.25675 3.07181 3.29325 3.06981 3.32988 3.07081C3.3665 3.07181 3.40288 3.07581 3.43888 3.08256C3.47488 3.08943 3.51 3.09906 3.5445 3.11143C3.579 3.12393 3.61225 3.13906 3.64425 3.15681C3.67625 3.17468 3.70663 3.19481 3.7355 3.21756C3.76425 3.24018 3.79113 3.26493 3.81588 3.29193C3.84075 3.31893 3.86325 3.34768 3.8835 3.37818C3.89013 3.38718 3.89775 3.39518 3.90625 3.40231C3.91475 3.40943 3.92388 3.41556 3.93388 3.42056C3.94375 3.42543 3.95413 3.42931 3.965 3.43181C3.97575 3.43443 3.98675 3.43568 3.99788 3.43568C4.009 3.43568 4.01988 3.43443 4.03075 3.43181C4.0415 3.42931 4.05188 3.42543 4.06188 3.42056C4.07175 3.41556 4.081 3.40943 4.0895 3.40231C4.098 3.39518 4.1055 3.38718 4.11225 3.37818C4.13238 3.34768 4.155 3.31893 4.17975 3.29193C4.20463 3.26493 4.23138 3.24018 4.26025 3.21756C4.289 3.19481 4.31938 3.17468 4.3515 3.15681C4.3835 3.13906 4.41675 3.12393 4.45113 3.11143C4.48563 3.09906 4.52088 3.08943 4.55688 3.08256C4.59288 3.07581 4.62913 3.07181 4.66575 3.07081C4.70238 3.06981 4.73888 3.07181 4.77513 3.07668C4.8115 3.08143 4.84725 3.08918 4.88225 3.09981C4.91738 3.11031 4.95138 3.12368 4.98425 3.13968C5.01725 3.15568 5.04875 3.17418 5.07863 3.19531C5.10863 3.21631 5.13675 3.23968 5.163 3.26518C5.18925 3.29081 5.21325 3.31831 5.23513 3.34768C5.257 3.37706 5.27638 3.40806 5.29325 3.44056C5.31013 3.47318 5.32438 3.50681 5.33588 3.54168C5.34738 3.57643 5.356 3.61193 5.36188 3.64818C5.36775 3.68431 5.37063 3.72081 5.37063 3.75743C5.37063 4.63593 4.27988 5.35143 3.99788 5.52168Z" fill="#A9A9A9"/>
</svg>
