<svg width="30" height="30" viewBox="0 0 30 30" fill="none" xmlns="http://www.w3.org/2000/svg">
<path d="M15.034 10.8865C12.2899 10.8865 10.0577 13.1202 10.0577 15.8628C10.0577 18.6053 12.2899 20.8376 15.034 20.8376C17.7766 20.8376 20.0088 18.6053 20.0088 15.8628C20.0088 13.1202 17.7766 10.8865 15.034 10.8865ZM15.034 19.6672C12.9347 19.6672 11.228 17.9606 11.228 15.8628C11.228 13.7635 12.9347 12.0568 15.034 12.0568C17.1318 12.0568 18.8384 13.7635 18.8384 15.8628C18.8384 17.9606 17.1318 19.6672 15.034 19.6672ZM15.6192 13.8139C15.6192 14.1347 15.3549 14.3991 15.034 14.3991C14.2258 14.3991 13.5703 15.0545 13.5703 15.8628C13.5703 16.1836 13.306 16.448 12.9851 16.448C12.6627 16.448 12.3984 16.1836 12.3984 15.8628C12.3984 14.4098 13.581 13.2287 15.034 13.2287C15.3549 13.2287 15.6192 13.4915 15.6192 13.8139ZM28.1264 15.5694C25.4267 10.8742 20.4106 7.95905 15.034 7.95905C9.65586 7.95905 4.63982 10.8742 1.94006 15.5694C1.83769 15.7512 1.83769 15.9728 1.94006 16.1515C4.63982 20.8498 9.65586 23.765 15.034 23.765C20.4106 23.765 25.4267 20.8498 28.1264 16.1546C28.2318 15.9728 28.2318 15.7512 28.1264 15.5694ZM15.034 22.5946C10.186 22.5946 5.65434 20.0247 3.12569 15.8628C5.65434 11.7008 10.186 9.13093 15.034 9.13093C19.8804 9.13093 24.4121 11.7008 26.9408 15.8628C24.4121 20.0247 19.8804 22.5946 15.034 22.5946Z" fill="#461952"/>
</svg>
