<svg width="25" height="26" viewBox="0 0 25 26" fill="none" xmlns="http://www.w3.org/2000/svg">
<path d="M13.9288 19.2589H10.3925C10.2542 19.2589 10.1426 19.1447 10.1426 19.0064C10.1426 18.8668 10.2542 18.7539 10.3925 18.7539H13.9288C14.0659 18.7539 14.1788 18.8668 14.1788 19.0064C14.1788 19.1447 14.0659 19.2589 13.9288 19.2589Z" fill="#9A9A9A"/>
<path d="M22.4744 22.898H2.09412C1.99134 22.898 1.89998 22.8358 1.86192 22.7406C1.82385 22.6442 1.84669 22.5351 1.92028 22.464L5.69259 18.825C5.73953 18.7793 5.80171 18.7539 5.86642 18.7539H7.4601C7.5984 18.7539 7.71133 18.8668 7.71133 19.0064C7.71133 19.1447 7.5984 19.2589 7.4601 19.2589H5.96666L2.71839 22.3942H21.8629L18.6895 19.2589H17.1643C17.0247 19.2589 16.9131 19.1447 16.9131 19.0064C16.9131 18.8668 17.0247 18.7539 17.1643 18.7539H18.7935C18.8582 18.7539 18.9217 18.7806 18.9686 18.8262L22.6508 22.4666C22.7231 22.5389 22.746 22.6468 22.7066 22.7419C22.6673 22.8371 22.576 22.898 22.4744 22.898Z" fill="#9A9A9A"/>
<path d="M2.34495 18.3554V20.6114L3.00602 19.8983L2.34495 18.3554ZM2.09371 21.5034C2.06326 21.5034 2.03154 21.4984 2.00236 21.4857C1.90592 21.4476 1.84375 21.355 1.84375 21.2522V13.9195C1.84375 13.7799 1.95541 13.667 2.09371 13.667C2.23202 13.667 2.34495 13.7799 2.34495 13.9195V18.0839C2.35383 18.0686 2.36398 18.056 2.37667 18.042C3.20396 17.1703 4.05029 15.5868 4.07313 14.0197C4.0744 13.8814 4.18732 13.771 4.32309 13.771C4.32436 13.771 4.32563 13.771 4.3269 13.771C4.46647 13.7736 4.57686 13.8878 4.57432 14.0273C4.55022 15.6591 3.71023 17.3023 2.85249 18.2666L3.53133 19.8501C3.57066 19.9415 3.5529 20.0481 3.48438 20.1217L2.2777 21.4235C2.22948 21.4755 2.16223 21.5034 2.09371 21.5034Z" fill="#9A9A9A"/>
<path d="M18.1282 12.4942C18.2653 12.4942 18.3795 12.6046 18.3807 12.7429C18.3883 13.4052 18.9289 13.9445 19.5861 13.9445C20.2447 13.9445 20.7852 13.4052 20.7928 12.7429C20.7941 12.6046 20.9057 12.4942 21.0441 12.4942C21.1811 12.4942 21.294 12.6046 21.2953 12.7429C21.3016 13.3266 21.7229 13.8138 22.2736 13.9217V11.2596H2.34495V13.9178C2.88421 13.8011 3.29405 13.3189 3.30039 12.7429C3.30166 12.6046 3.41332 12.4942 3.55036 12.4942C3.68866 12.4942 3.80159 12.6046 3.80286 12.7429C3.81047 13.4052 4.35227 13.9445 5.00954 13.9445C5.66681 13.9445 6.20861 13.4052 6.21495 12.7429C6.21749 12.6046 6.32915 12.4942 6.46619 12.4942C6.60322 12.4942 6.71742 12.6046 6.71869 12.7429C6.7263 13.4052 7.26683 13.9445 7.92537 13.9445C8.58263 13.9445 9.12443 13.4052 9.13078 12.7429C9.13332 12.6046 9.24498 12.4942 9.38201 12.4942C9.51905 12.4942 9.63325 12.6046 9.63451 12.7429C9.64086 13.4052 10.1827 13.9445 10.8399 13.9445C11.4985 13.9445 12.039 13.4052 12.0466 12.7429C12.0479 12.6046 12.1595 12.4942 12.2978 12.4942C12.4349 12.4942 12.5478 12.6046 12.5503 12.7429C12.5567 13.4052 13.0972 13.9445 13.7558 13.9445C14.4143 13.9445 14.9548 13.4052 14.9612 12.7429C14.9637 12.6046 15.0754 12.4942 15.2124 12.4942C15.3494 12.4942 15.4636 12.6046 15.4649 12.7429C15.4712 13.4052 16.013 13.9445 16.6703 13.9445C17.3288 13.9445 17.8706 13.4052 17.877 12.7429C17.8795 12.6046 17.9912 12.4942 18.1282 12.4942ZM22.502 14.4482C21.8878 14.4482 21.3448 14.1171 21.0441 13.6222C20.7421 14.1171 20.2003 14.4482 19.5861 14.4482C18.972 14.4482 18.4302 14.1171 18.1295 13.6222C17.8275 14.1171 17.2857 14.4482 16.6703 14.4482C16.0575 14.4482 15.5144 14.1171 15.2137 13.6222C14.9129 14.1171 14.3711 14.4482 13.7558 14.4482C13.1416 14.4482 12.5998 14.1171 12.2978 13.6222C11.9971 14.1171 11.4553 14.4482 10.8399 14.4482C10.2258 14.4482 9.684 14.1171 9.38201 13.6222C9.08129 14.1171 8.53949 14.4482 7.92537 14.4482C7.30997 14.4482 6.76817 14.1171 6.46745 13.6222C6.16547 14.1171 5.62367 14.4482 5.00954 14.4482C4.39542 14.4482 3.85235 14.1171 3.55163 13.6222C3.25091 14.1171 2.70784 14.4482 2.09371 14.4482C1.95541 14.4482 1.84375 14.3353 1.84375 14.1957V11.0084C1.84375 10.8688 1.95541 10.7559 2.09371 10.7559H22.5235C22.6618 10.7559 22.7748 10.8688 22.7748 11.0084V14.1945C22.7748 14.3328 22.6644 14.4444 22.5273 14.447C22.5223 14.447 22.5121 14.4482 22.502 14.4482Z" fill="#9A9A9A"/>
<path d="M22.4941 11.2323C22.4801 11.2323 22.4662 11.231 22.4522 11.2285C18.213 10.504 15.6144 8.38498 14.1806 6.73293C13.1693 5.5694 12.5844 4.48453 12.2925 3.84883C12.0007 4.48453 11.417 5.5694 10.4057 6.73293C8.97192 8.38498 6.37331 10.504 2.13407 11.2285C1.9983 11.2513 1.86888 11.1587 1.84477 11.0217C1.82193 10.8846 1.91456 10.7552 2.05032 10.7324C6.13223 10.0345 8.63314 8.00179 10.0124 6.41953C11.5109 4.70023 12.0502 3.12304 12.0552 3.10782C12.0895 3.00504 12.1847 2.93652 12.2925 2.93652C12.4004 2.93652 12.4968 3.00504 12.5311 3.10782C12.5361 3.12304 13.0741 4.70023 14.5739 6.41953C15.9532 8.00179 18.4541 10.0345 22.536 10.7324C22.6717 10.7552 22.7644 10.8846 22.7403 11.0217C22.72 11.1447 22.6134 11.2323 22.4941 11.2323Z" fill="#9A9A9A"/>
<path d="M8.94023 21.7586C8.87044 21.7586 8.79939 21.7294 8.75244 21.6773L7.54703 20.3666C7.48232 20.2956 7.46329 20.1928 7.49881 20.1027L8.24236 18.2261C7.32879 16.942 6.79206 15.7975 6.74131 13.8904C6.7375 13.7521 6.84662 13.6354 6.98493 13.6328C6.98747 13.6328 6.99 13.6328 6.99127 13.6328C7.12704 13.6328 7.2387 13.7407 7.2425 13.8777C7.29072 15.7087 7.82364 16.791 8.72833 18.0421C8.77909 18.1119 8.79051 18.2032 8.75879 18.2832L8.02285 20.142L9.10899 21.3233C9.15847 21.369 9.18893 21.4337 9.18893 21.5073C9.18893 21.6456 9.07854 21.7586 8.94023 21.7586Z" fill="#9A9A9A"/>
<path d="M8.94391 21.7585C8.80433 21.7585 8.69141 21.6456 8.69141 21.5073C8.69141 21.4299 8.72567 21.3601 8.77896 21.3131L9.85621 20.142L9.12028 18.2831C9.08856 18.2032 9.09998 18.1118 9.15073 18.042C9.99325 16.8772 10.5046 15.8888 10.6175 14.2837C10.6277 14.1454 10.7482 14.0426 10.8853 14.0502C11.0236 14.0604 11.1276 14.1809 11.1187 14.3192C10.9995 15.9827 10.4653 17.0612 9.63797 18.226L10.3815 20.1026C10.417 20.1927 10.398 20.2955 10.332 20.3666L9.12789 21.6773C9.08094 21.7293 9.0137 21.7585 8.94391 21.7585Z" fill="#9A9A9A"/>
<path d="M21.5825 19.8983L22.2436 20.6114V18.3554L21.5825 19.8983ZM22.4948 21.5034C22.4263 21.5034 22.359 21.4755 22.3108 21.4235L21.1041 20.1217C21.0356 20.0481 21.0179 19.9415 21.0572 19.8501L21.736 18.2666C20.8783 17.3023 20.0383 15.6591 20.0142 14.0273C20.0117 13.8878 20.1221 13.7736 20.2616 13.771C20.2629 13.771 20.2642 13.771 20.2654 13.771C20.4012 13.771 20.5129 13.8814 20.5154 14.0197C20.5382 15.5868 21.3846 17.1703 22.2119 18.042C22.2245 18.0547 22.2347 18.0686 22.2436 18.0839V13.9195C22.2436 13.7799 22.3565 13.667 22.4948 13.667C22.6331 13.667 22.7448 13.7799 22.7448 13.9195V21.2522C22.7448 21.355 22.6826 21.4476 22.5862 21.4857C22.557 21.4984 22.5253 21.5034 22.4948 21.5034Z" fill="#9A9A9A"/>
<path d="M15.6529 21.7582C15.5133 21.7582 15.4004 21.6453 15.4004 21.507C15.4004 21.4283 15.4346 21.3598 15.4879 21.3128L16.5665 20.1417L15.8305 18.2828C15.7988 18.2029 15.8102 18.1115 15.8597 18.0417C16.7657 16.7906 17.2986 15.7083 17.3468 13.8773C17.3506 13.7378 17.4661 13.6223 17.6044 13.6325C17.7427 13.635 17.8518 13.7517 17.848 13.89C17.7985 15.7971 17.2605 16.9404 16.347 18.2257L17.0905 20.1023C17.126 20.1924 17.107 20.2952 17.041 20.3663L15.8369 21.677C15.7899 21.729 15.7227 21.7582 15.6529 21.7582Z" fill="#9A9A9A"/>
<path d="M15.6484 21.7585C15.5786 21.7585 15.5075 21.7293 15.4606 21.6773L14.2565 20.3666C14.1905 20.2955 14.1714 20.1927 14.207 20.1026L14.9505 18.226C14.1232 17.0612 13.589 15.9839 13.4698 14.3192C13.4609 14.1809 13.5649 14.0604 13.7032 14.0502C13.8415 14.0426 13.9608 14.1454 13.971 14.2837C14.0839 15.8888 14.594 16.8772 15.4378 18.042C15.4872 18.1118 15.4987 18.2032 15.4669 18.2831L14.731 20.142L15.8171 21.3233C15.8666 21.369 15.8971 21.4349 15.8971 21.5073C15.8971 21.6456 15.7867 21.7585 15.6484 21.7585Z" fill="#9A9A9A"/>
<path d="M5.865 19.2585C5.7267 19.2585 5.61377 19.1443 5.61377 19.006V14.8277C5.61377 14.6881 5.7267 14.5752 5.865 14.5752C6.00331 14.5752 6.11624 14.6881 6.11624 14.8277V19.006C6.11624 19.1443 6.00331 19.2585 5.865 19.2585Z" fill="#9A9A9A"/>
<path d="M18.7229 19.2585C18.5846 19.2585 18.4717 19.1443 18.4717 19.006V14.8277C18.4717 14.6881 18.5846 14.5752 18.7229 14.5752C18.8612 14.5752 18.9741 14.6881 18.9741 14.8277V19.006C18.9741 19.1443 18.8612 19.2585 18.7229 19.2585Z" fill="#9A9A9A"/>
</svg>
