<svg width="32" height="32" viewBox="0 0 32 32" fill="none" xmlns="http://www.w3.org/2000/svg">
<path d="M20.0051 11.0788L21.146 12.2197L13.2812 20.0846L9.50542 15.3609L10.7586 14.3646L13.4096 17.6744L20.0051 11.0788ZM26.6007 15.2644C26.6007 15.4484 26.5962 15.6324 26.5871 15.8163C26.5781 16 26.5645 16.1836 26.5465 16.3669C26.5284 16.5499 26.5058 16.7326 26.479 16.9146C26.4519 17.0966 26.4206 17.278 26.3844 17.4584C26.3486 17.6392 26.3083 17.8186 26.2637 17.9971C26.2189 18.1759 26.1698 18.3531 26.1162 18.5293C26.063 18.7055 26.0052 18.8801 25.9433 19.0534C25.8813 19.2267 25.8151 19.3984 25.7444 19.5685C25.6741 19.7386 25.5995 19.9068 25.5208 20.073C25.442 20.2395 25.3594 20.4038 25.2726 20.5661C25.1858 20.7285 25.0951 20.8885 25.0005 21.0463C24.906 21.2045 24.8075 21.3597 24.7052 21.5127C24.6029 21.666 24.4971 21.8164 24.3873 21.9642C24.2776 22.112 24.1646 22.2569 24.0478 22.3993C23.931 22.5416 23.8109 22.681 23.6873 22.8172C23.5637 22.9537 23.4365 23.087 23.3065 23.2171C23.1764 23.3472 23.0431 23.4743 22.9066 23.5979C22.7704 23.7215 22.631 23.8416 22.4886 23.9584C22.3463 24.0753 22.2014 24.1882 22.0536 24.298C21.9058 24.4077 21.7554 24.5136 21.6021 24.6159C21.4491 24.7182 21.2938 24.8166 21.1357 24.9112C20.9779 25.0057 20.8178 25.0964 20.6555 25.1832C20.4931 25.2701 20.3289 25.3527 20.1623 25.4314C19.9961 25.5102 19.828 25.5847 19.6579 25.6551C19.4878 25.7258 19.3161 25.7919 19.1428 25.8539C18.9695 25.9159 18.7949 25.9736 18.6186 26.0269C18.4424 26.0805 18.2652 26.1295 18.0864 26.1744C17.908 26.2189 17.7285 26.2593 17.5478 26.2951C17.3674 26.3312 17.186 26.3625 17.004 26.3896C16.822 26.4164 16.6393 26.439 16.4563 26.4571C16.273 26.4752 16.0893 26.4887 15.9057 26.4978C15.7217 26.5068 15.5378 26.5113 15.3538 26.5113C15.1698 26.5113 14.9859 26.5068 14.8019 26.4978C14.618 26.4887 14.4346 26.4752 14.2513 26.4571C14.0683 26.439 13.8857 26.4164 13.7036 26.3896C13.5216 26.3625 13.3402 26.3312 13.1595 26.2951C12.9791 26.2593 12.7996 26.2189 12.6212 26.1744C12.4424 26.1295 12.2652 26.0805 12.089 26.0269C11.9127 25.9736 11.7381 25.9159 11.5648 25.8539C11.3915 25.7919 11.2198 25.7258 11.0497 25.6551C10.8796 25.5847 10.7115 25.5102 10.545 25.4314C10.3788 25.3527 10.2145 25.2701 10.0521 25.1832C9.8898 25.0964 9.72972 25.0057 9.57158 24.9112C9.41376 24.8166 9.25852 24.7182 9.10522 24.6159C8.95224 24.5136 8.80184 24.4077 8.65403 24.298C8.50621 24.1882 8.36098 24.0753 8.21897 23.9584C8.07665 23.8416 7.93722 23.7215 7.8007 23.5979C7.66451 23.4743 7.53121 23.3472 7.40115 23.2171C7.27076 23.087 7.14392 22.9537 7.02031 22.8172C6.8967 22.681 6.77665 22.5416 6.65981 22.3993C6.54298 22.2569 6.4297 22.112 6.32029 21.9642C6.21056 21.8164 6.1047 21.666 6.00239 21.5127C5.90008 21.3597 5.80165 21.2045 5.70708 21.0463C5.61252 20.8885 5.52183 20.7285 5.43501 20.5661C5.34819 20.4038 5.26557 20.2395 5.18682 20.073C5.10808 19.9068 5.03352 19.7386 4.96316 19.5685C4.89248 19.3984 4.82632 19.2267 4.76436 19.0534C4.70239 18.8801 4.64462 18.7055 4.59104 18.5293C4.53779 18.3531 4.48874 18.1759 4.44387 17.9971C4.39934 17.8186 4.35899 17.6392 4.32317 17.4584C4.28702 17.278 4.25572 17.0966 4.22861 16.9146C4.2015 16.7326 4.17923 16.5499 4.16115 16.3669C4.14308 16.1836 4.12953 16 4.12049 15.8163C4.11145 15.6324 4.10693 15.4484 4.10693 15.2644C4.10693 15.0805 4.11145 14.8965 4.12049 14.7126C4.12953 14.5286 4.14308 14.3453 4.16115 14.162C4.17923 13.979 4.2015 13.7963 4.22861 13.6143C4.25572 13.4322 4.28702 13.2509 4.32317 13.0701C4.35899 12.8897 4.39934 12.7103 4.44387 12.5318C4.48874 12.353 4.53779 12.1758 4.59104 11.9996C4.64462 11.8234 4.70239 11.6488 4.76436 11.4755C4.82632 11.3022 4.89248 11.1305 4.96316 10.9604C5.03352 10.7903 5.10808 10.6221 5.18682 10.4556C5.26557 10.2894 5.34819 10.1251 5.43501 9.96279C5.52183 9.80045 5.61252 9.64037 5.70708 9.48223C5.80165 9.3244 5.90008 9.16917 6.00239 9.01586C6.1047 8.86289 6.21056 8.71249 6.32029 8.56467C6.4297 8.41686 6.54298 8.27162 6.65981 8.12962C6.77665 7.98729 6.8967 7.84787 7.02031 7.71135C7.14392 7.57515 7.27076 7.44186 7.40115 7.31179C7.53121 7.18141 7.66451 7.05457 7.8007 6.93096C7.93722 6.80735 8.07665 6.68729 8.21897 6.57046C8.36098 6.45363 8.50621 6.34034 8.65403 6.23093C8.80184 6.1212 8.95224 6.01534 9.10522 5.91303C9.25852 5.81073 9.41376 5.71229 9.57158 5.61773C9.72972 5.52316 9.8898 5.43247 10.0521 5.34566C10.2145 5.25884 10.3788 5.17622 10.545 5.09747C10.7115 5.01872 10.8796 4.94417 11.0497 4.87381C11.2198 4.80313 11.3915 4.73697 11.5648 4.675C11.7381 4.61303 11.9127 4.55526 12.089 4.50169C12.2652 4.44844 12.4424 4.39938 12.6212 4.35452C12.7996 4.30998 12.9791 4.26964 13.1595 4.23381C13.3402 4.19767 13.5216 4.16636 13.7036 4.13925C13.8857 4.11214 14.0683 4.08987 14.2513 4.0718C14.4346 4.05373 14.618 4.04017 14.8019 4.03113C14.9859 4.0221 15.1698 4.01758 15.3538 4.01758C15.5378 4.01758 15.7217 4.0221 15.9057 4.03113C16.0893 4.04017 16.273 4.05373 16.4563 4.0718C16.6393 4.08987 16.822 4.11214 17.004 4.13925C17.186 4.16636 17.3674 4.19767 17.5478 4.23381C17.7285 4.26964 17.908 4.30998 18.0864 4.35452C18.2652 4.39938 18.4424 4.44844 18.6186 4.50169C18.7949 4.55526 18.9695 4.61303 19.1428 4.675C19.3161 4.73697 19.4878 4.80313 19.6579 4.87381C19.828 4.94417 19.9961 5.01872 20.1623 5.09747C20.3289 5.17622 20.4931 5.25884 20.6555 5.34566C20.8178 5.43247 20.9779 5.52316 21.1357 5.61773C21.2938 5.71229 21.4491 5.81073 21.6021 5.91303C21.7554 6.01534 21.9058 6.1212 22.0536 6.23093C22.2014 6.34034 22.3463 6.45363 22.4886 6.57046C22.631 6.68729 22.7704 6.80735 22.9066 6.93096C23.0431 7.05457 23.1764 7.18141 23.3065 7.31179C23.4365 7.44186 23.5637 7.57515 23.6873 7.71135C23.8109 7.84787 23.931 7.98729 24.0478 8.12962C24.1646 8.27162 24.2776 8.41686 24.3873 8.56467C24.4971 8.71249 24.6029 8.86289 24.7052 9.01586C24.8075 9.16917 24.906 9.3244 25.0005 9.48223C25.0951 9.64037 25.1858 9.80045 25.2726 9.96279C25.3594 10.1251 25.442 10.2894 25.5208 10.4556C25.5995 10.6221 25.6741 10.7903 25.7444 10.9604C25.8151 11.1305 25.8813 11.3022 25.9433 11.4755C26.0052 11.6488 26.063 11.8234 26.1162 11.9996C26.1698 12.1758 26.2189 12.353 26.2637 12.5318C26.3083 12.7103 26.3486 12.8897 26.3844 13.0701C26.4206 13.2509 26.4519 13.4322 26.479 13.6143C26.5058 13.7963 26.5284 13.979 26.5465 14.162C26.5645 14.3453 26.5781 14.5286 26.5871 14.7126C26.5962 14.8965 26.6007 15.0805 26.6007 15.2644ZM24.9941 15.2644C24.9941 15.1066 24.9902 14.9491 24.9825 14.7913C24.9747 14.6338 24.9631 14.4766 24.9476 14.3195C24.9321 14.1626 24.9127 14.0061 24.8895 13.8499C24.8666 13.694 24.8395 13.5384 24.8088 13.3838C24.7778 13.2289 24.7433 13.075 24.7049 12.922C24.6668 12.769 24.6245 12.617 24.5787 12.466C24.5332 12.3149 24.4835 12.1652 24.4306 12.0167C24.3773 11.8682 24.3205 11.7211 24.2602 11.5752C24.1998 11.4296 24.1359 11.2854 24.0685 11.1427C24.001 11.0001 23.93 10.8594 23.8558 10.7199C23.7812 10.5808 23.7034 10.4437 23.6224 10.3084C23.5414 10.1732 23.4569 10.0399 23.3694 9.90857C23.2816 9.77753 23.1909 9.64844 23.097 9.52192C23.0028 9.39509 22.9059 9.27083 22.8059 9.14883C22.7055 9.02684 22.6026 8.90742 22.4967 8.79059C22.3908 8.67344 22.2821 8.55951 22.1704 8.44784C22.0587 8.33617 21.9445 8.22741 21.8277 8.12155C21.7108 8.01569 21.5914 7.91241 21.4694 7.81236C21.3474 7.71231 21.2232 7.61549 21.0963 7.52125C20.9698 7.42733 20.8407 7.33664 20.7097 7.24886C20.5783 7.1614 20.445 7.07684 20.3098 6.99583C20.1746 6.91482 20.0374 6.83704 19.898 6.76249C19.7589 6.68826 19.6182 6.61725 19.4755 6.5498C19.3329 6.48235 19.1886 6.41845 19.0431 6.35809C18.8972 6.29774 18.75 6.24094 18.6015 6.18769C18.4528 6.13476 18.303 6.08506 18.1523 6.03923C18.0012 5.9934 17.8492 5.95144 17.6963 5.91303C17.543 5.87495 17.3893 5.84042 17.2344 5.80943C17.0798 5.77877 16.9243 5.75166 16.7684 5.72875C16.6122 5.70551 16.4556 5.68615 16.2988 5.67066C16.1416 5.65516 15.9844 5.64355 15.8269 5.6358C15.6691 5.62805 15.5116 5.62418 15.3538 5.62418C15.196 5.62418 15.0385 5.62805 14.8807 5.6358C14.7232 5.64355 14.566 5.65516 14.4088 5.67066C14.252 5.68615 14.0954 5.70551 13.9392 5.72875C13.7833 5.75166 13.6278 5.77877 13.4732 5.80943C13.3183 5.84042 13.1643 5.87495 13.0114 5.91303C12.8584 5.95144 12.7064 5.9934 12.5553 6.03923C12.4043 6.08506 12.2545 6.13476 12.1061 6.18769C11.9576 6.24094 11.8104 6.29774 11.6646 6.35809C11.519 6.41845 11.3747 6.48235 11.2321 6.5498C11.0894 6.61725 10.9487 6.68826 10.8093 6.76249C10.6702 6.83704 10.533 6.91482 10.3978 6.99583C10.2626 7.07684 10.1293 7.1614 9.99792 7.24886C9.86689 7.33664 9.73779 7.42733 9.61128 7.52125C9.48444 7.61549 9.36019 7.71231 9.23819 7.81236C9.11619 7.91241 8.99678 8.01569 8.87995 8.12155C8.76279 8.22741 8.64886 8.33617 8.5372 8.44784C8.42553 8.55951 8.31676 8.67344 8.21091 8.79059C8.10505 8.90742 8.00177 9.02684 7.90172 9.14883C7.80167 9.27083 7.70485 9.39509 7.61061 9.52192C7.51669 9.64844 7.426 9.77753 7.33821 9.90857C7.25075 10.0399 7.16619 10.1732 7.08519 10.3084C7.00418 10.4437 6.9264 10.5808 6.85184 10.7199C6.77761 10.8594 6.70661 11.0001 6.63916 11.1427C6.5717 11.2854 6.5078 11.4296 6.44745 11.5752C6.3871 11.7211 6.33029 11.8682 6.27704 12.0167C6.22411 12.1652 6.17441 12.3149 6.12858 12.466C6.08308 12.617 6.0408 12.769 6.00239 12.922C5.96431 13.075 5.92977 13.2289 5.89879 13.3838C5.86813 13.5384 5.84102 13.694 5.81811 13.8499C5.79487 14.0061 5.7755 14.1626 5.76001 14.3195C5.74452 14.4766 5.7329 14.6338 5.72516 14.7913C5.71741 14.9491 5.71354 15.1066 5.71354 15.2644C5.71354 15.4223 5.71741 15.5798 5.72516 15.7376C5.7329 15.8951 5.74452 16.0523 5.76001 16.2094C5.7755 16.3663 5.79487 16.5228 5.81811 16.679C5.84102 16.8349 5.86813 16.9905 5.89879 17.1451C5.92977 17.3 5.96431 17.4536 6.00239 17.6069C6.0408 17.7599 6.08308 17.9119 6.12858 18.0629C6.17441 18.2137 6.22411 18.3634 6.27704 18.5122C6.33029 18.6607 6.3871 18.8078 6.44745 18.9537C6.5078 19.0993 6.5717 19.2435 6.63916 19.3862C6.70661 19.5288 6.77761 19.6695 6.85184 19.8086C6.9264 19.9481 7.00418 20.0852 7.08519 20.2205C7.16619 20.3557 7.25075 20.489 7.33821 20.6203C7.426 20.7514 7.51669 20.8805 7.61061 21.007C7.70485 21.1338 7.80167 21.2581 7.90172 21.3801C8.00177 21.5021 8.10505 21.6215 8.21091 21.7383C8.31676 21.8551 8.42553 21.9694 8.5372 22.0811C8.64886 22.1927 8.76279 22.3015 8.87995 22.4073C8.99678 22.5132 9.11619 22.6162 9.23819 22.7165C9.36019 22.8166 9.48444 22.9134 9.61128 23.0073C9.73779 23.1016 9.86689 23.1923 9.99792 23.28C10.1293 23.3675 10.2626 23.4521 10.3978 23.5331C10.533 23.6141 10.6702 23.6919 10.8093 23.7664C10.9487 23.8406 11.0894 23.9116 11.2321 23.9791C11.3747 24.0465 11.519 24.1105 11.6646 24.1708C11.8104 24.2312 11.9576 24.288 12.1061 24.3412C12.2545 24.3941 12.4043 24.4438 12.5553 24.4893C12.7064 24.5352 12.8584 24.5775 13.0114 24.6155C13.1643 24.6539 13.3183 24.6885 13.4732 24.7195C13.6278 24.7501 13.7833 24.7772 13.9392 24.8001C14.0954 24.8234 14.252 24.8427 14.4088 24.8582C14.566 24.8737 14.7232 24.8854 14.8807 24.8931C15.0385 24.9008 15.196 24.9047 15.3538 24.9047C15.5116 24.9047 15.6691 24.9008 15.8269 24.8931C15.9844 24.8854 16.1416 24.8737 16.2988 24.8582C16.4556 24.8427 16.6122 24.8234 16.7684 24.8001C16.9243 24.7772 17.0798 24.7501 17.2344 24.7195C17.3893 24.6885 17.543 24.6539 17.6963 24.6155C17.8492 24.5775 18.0012 24.5352 18.1523 24.4893C18.303 24.4438 18.4528 24.3941 18.6015 24.3412C18.75 24.288 18.8972 24.2312 19.0431 24.1708C19.1886 24.1105 19.3329 24.0465 19.4755 23.9791C19.6182 23.9116 19.7589 23.8406 19.898 23.7664C20.0374 23.6919 20.1746 23.6141 20.3098 23.5331C20.445 23.4521 20.5783 23.3675 20.7097 23.28C20.8407 23.1923 20.9698 23.1016 21.0963 23.0073C21.2232 22.9134 21.3474 22.8166 21.4694 22.7165C21.5914 22.6162 21.7108 22.5132 21.8277 22.4073C21.9445 22.3015 22.0587 22.1927 22.1704 22.0811C22.2821 21.9694 22.3908 21.8551 22.4967 21.7383C22.6026 21.6215 22.7055 21.5021 22.8059 21.3801C22.9059 21.2581 23.0028 21.1338 23.097 21.007C23.1909 20.8805 23.2816 20.7514 23.3694 20.6203C23.4569 20.489 23.5414 20.3557 23.6224 20.2205C23.7034 20.0852 23.7812 19.9481 23.8558 19.8086C23.93 19.6695 24.001 19.5288 24.0685 19.3862C24.1359 19.2435 24.1998 19.0993 24.2602 18.9537C24.3205 18.8078 24.3773 18.6607 24.4306 18.5122C24.4835 18.3634 24.5332 18.2137 24.5787 18.0629C24.6245 17.9119 24.6668 17.7599 24.7049 17.6069C24.7433 17.4536 24.7778 17.3 24.8088 17.1451C24.8395 16.9905 24.8666 16.8349 24.8895 16.679C24.9127 16.5228 24.9321 16.3663 24.9476 16.2094C24.9631 16.0523 24.9747 15.8951 24.9825 15.7376C24.9902 15.5798 24.9941 15.4223 24.9941 15.2644Z" fill="white"/>
</svg>
