<svg width="26" height="26" viewBox="0 0 26 26" fill="none" xmlns="http://www.w3.org/2000/svg">
<path d="M18.1545 10.0024C18.138 10.0024 18.1203 10.0012 18.1025 9.99737C16.2475 9.62433 14.2693 8.31233 13.4001 6.8798L13.3938 6.87218C13.3836 6.86203 13.3748 6.85061 13.3646 6.83919C13.2745 6.72626 13.2936 6.56258 13.4052 6.47249C13.5169 6.38114 13.6818 6.3989 13.7707 6.51183L13.7821 6.52452C13.7998 6.54355 13.8239 6.57146 13.8455 6.60826C14.6322 7.9063 16.5063 9.14343 18.2053 9.48475C18.3461 9.51267 18.4375 9.6497 18.4096 9.79182C18.3842 9.91616 18.2764 10.0024 18.1545 10.0024Z" fill="#9A9A9A"/>
<path d="M20.4772 7.49659C20.3732 7.49659 20.2742 7.43441 20.2349 7.33164C19.4558 5.35857 17.5906 3.75474 15.2445 3.0391C15.1074 2.99723 15.03 2.85131 15.0719 2.71301C15.1138 2.5747 15.2597 2.49603 15.3967 2.53917C17.8926 3.29922 19.8821 5.01978 20.7183 7.13877C20.7716 7.27327 20.7069 7.42553 20.5724 7.47882C20.5407 7.49151 20.5077 7.49659 20.4772 7.49659Z" fill="#9A9A9A"/>
<path d="M7.65846 9.9605C7.54553 9.9605 7.44149 9.88564 7.4085 9.77017C7.36916 9.63187 7.4491 9.48722 7.5874 9.44788C10.4499 8.62947 12.6768 6.43435 13.5447 3.57689C13.6233 3.32186 13.6893 3.05413 13.7452 2.78005C13.4051 2.73438 13.065 2.71027 12.7313 2.71027C9.64295 2.71027 6.97708 4.45114 5.77294 7.2515C5.71584 7.38473 5.56358 7.44563 5.43162 7.38853C5.29966 7.33143 5.23875 7.17663 5.29585 7.04467C6.56344 4.09459 9.4818 2.1875 12.7313 2.1875C13.1792 2.1875 13.6373 2.22683 14.0941 2.3055C14.1626 2.31692 14.2235 2.35499 14.2628 2.41209C14.3034 2.46792 14.3187 2.53897 14.3073 2.60749C14.24 2.99449 14.1512 3.37261 14.0433 3.73043C13.1234 6.75791 10.7633 9.08372 7.73078 9.95035C7.70668 9.95796 7.68257 9.9605 7.65846 9.9605Z" fill="#9A9A9A"/>
<path d="M3.97149 17.0318C3.92835 17.0318 3.88394 17.0216 3.84334 16.9988L2.57321 16.2819C2.4679 16.221 2.41714 16.0954 2.45267 15.9786L3.50836 12.4322C3.55023 12.2939 3.69488 12.2152 3.83319 12.2558C3.97022 12.2977 4.04889 12.4436 4.00702 12.5819L3.01097 15.9279L4.09964 16.5433C4.22399 16.6143 4.2684 16.7729 4.19862 16.8985C4.1504 16.9835 4.06285 17.0318 3.97149 17.0318Z" fill="#9A9A9A"/>
<path d="M6.76924 21.6656C6.71595 21.6656 6.66265 21.6491 6.61697 21.6173L3.48925 19.3575C3.40804 19.2979 3.36744 19.1964 3.38647 19.0974L4.53986 12.9815C4.56651 12.8394 4.70227 12.7455 4.84439 12.7722C4.98523 12.7988 5.07785 12.9358 5.05121 13.078L3.92827 19.0302L6.48121 20.8738L6.04345 12.4816C6.03584 12.3369 6.14623 12.2151 6.29088 12.2075C6.43172 12.1986 6.55607 12.3103 6.56368 12.455L7.02935 21.3902C7.03443 21.4917 6.98114 21.5856 6.89358 21.6338C6.85552 21.6554 6.81238 21.6656 6.76924 21.6656Z" fill="#9A9A9A"/>
<path d="M4.72958 10.8646C4.72958 10.909 4.71816 10.9534 4.69533 10.9953C4.51134 11.315 4.46312 11.584 4.56083 11.754C4.64203 11.8949 4.81206 11.9456 4.94402 11.9456C5.07598 11.9456 5.24728 11.8949 5.32848 11.754C5.42619 11.584 5.37797 11.315 5.19398 10.9953C5.17115 10.9534 5.15973 10.909 5.15973 10.8646C5.15973 10.7745 5.20667 10.6857 5.28915 10.6374C5.41477 10.5651 5.57337 10.6083 5.6457 10.7339C5.82841 11.0536 6.03777 11.2287 6.23318 11.2287C6.47426 11.2287 6.66205 10.9648 6.66205 10.739C6.66205 10.4585 6.3829 10.2987 5.89566 10.2987C5.75228 10.2987 5.63555 10.1819 5.63555 10.0373C5.63555 9.89263 5.75228 9.77589 5.89566 9.77589C6.17735 9.77589 6.39686 9.72006 6.52755 9.61475C6.61637 9.54369 6.66205 9.4498 6.66205 9.3356C6.66205 9.10974 6.47426 8.84582 6.23318 8.84582C6.03777 8.84582 5.82841 9.02219 5.6457 9.34195C5.57337 9.46629 5.4135 9.50943 5.28915 9.43711C5.20667 9.38889 5.15973 9.30134 5.15973 9.20998C5.15973 9.16684 5.17115 9.12116 5.19398 9.08056C5.37797 8.76081 5.42619 8.49054 5.32848 8.32179C5.24728 8.17967 5.07598 8.13019 4.94402 8.13019C4.81206 8.13019 4.64203 8.17967 4.56083 8.32179C4.46312 8.49054 4.51134 8.76081 4.69533 9.08056C4.71816 9.12116 4.72958 9.16684 4.72958 9.20998C4.72958 9.30134 4.68264 9.38889 4.59889 9.43711C4.47454 9.50943 4.31594 9.46629 4.24361 9.34195C4.05963 9.02219 3.85154 8.84582 3.65613 8.84582C3.41505 8.84582 3.22853 9.10974 3.22853 9.3356C3.22853 9.4498 3.27294 9.54369 3.36303 9.61475C3.49245 9.72006 3.71196 9.77589 3.99492 9.77589C4.1383 9.77589 4.25503 9.89263 4.25503 10.0373C4.25503 10.1819 4.1383 10.2987 3.99492 10.2987C3.62695 10.2987 3.37064 10.3913 3.27294 10.5613C3.19173 10.7034 3.23234 10.8773 3.29832 10.9915C3.3643 11.1069 3.49372 11.2287 3.65613 11.2287C3.85154 11.2287 4.05963 11.0536 4.24361 10.7339C4.31594 10.6083 4.47454 10.5651 4.59889 10.6374C4.68264 10.6857 4.72958 10.7745 4.72958 10.8646ZM4.94402 12.4684C4.59128 12.4684 4.27026 12.2946 4.11038 12.0154C4.05963 11.9279 4.01649 11.8175 3.99872 11.683C3.87311 11.735 3.75637 11.7515 3.65613 11.7515C3.33511 11.7515 3.02551 11.5612 2.84787 11.2528C2.67023 10.9458 2.66135 10.5803 2.82123 10.2999C2.87198 10.2136 2.94558 10.1198 3.05343 10.0373C3.04835 10.0322 3.04328 10.0284 3.03693 10.0233C2.82377 9.85202 2.70703 9.6084 2.70703 9.3356C2.70703 8.79634 3.15113 8.32306 3.65613 8.32306C3.75637 8.32306 3.87311 8.34082 3.99872 8.39284C4.01649 8.25708 4.05963 8.14795 4.11038 8.0604C4.27026 7.78125 4.59128 7.60742 4.94402 7.60742C5.2993 7.60742 5.61905 7.78125 5.77893 8.0604C5.82841 8.14795 5.87282 8.25708 5.89059 8.39284C6.0162 8.34082 6.13294 8.32306 6.23318 8.32306C6.73818 8.32306 7.18228 8.79634 7.18228 9.3356C7.18228 9.6084 7.06554 9.85329 6.85238 10.0233C6.84603 10.0284 6.83969 10.0335 6.83334 10.0385C7.08077 10.2289 7.18228 10.4953 7.18228 10.739C7.18228 11.2782 6.73818 11.7515 6.23318 11.7515C6.13294 11.7515 6.0162 11.735 5.89059 11.683C5.87282 11.8175 5.82841 11.9279 5.77893 12.0154C5.61905 12.2946 5.2993 12.4684 4.94402 12.4684Z" fill="#9A9A9A"/>
<path d="M10.2394 21.5918C9.88664 21.5918 9.55801 21.4725 9.29028 21.2467C8.74721 20.7899 8.67362 19.974 9.12914 19.4284C9.31947 19.2 9.58592 19.0604 9.8803 19.0338C10.1759 19.0084 10.4627 19.0972 10.6886 19.2888C10.8865 19.4538 11.0083 19.6885 11.0311 19.9461C11.0451 20.0895 10.9385 20.2176 10.7951 20.2303C10.6518 20.2417 10.5261 20.1364 10.5135 19.993C10.502 19.8738 10.4462 19.7659 10.3549 19.6898C10.2343 19.5883 10.082 19.5413 9.92725 19.5553C9.76991 19.5692 9.62907 19.6428 9.52883 19.7634C9.25729 20.0895 9.30043 20.5742 9.62399 20.8457C9.82701 21.0157 10.0859 21.0931 10.3574 21.0614C10.6695 21.0259 10.9601 20.8482 11.1758 20.5602C11.7747 19.7621 11.899 18.3714 11.5184 16.7435C11.4841 16.6027 11.5717 16.4631 11.7113 16.4288C11.8508 16.3958 11.9917 16.4834 12.0247 16.6242C12.4421 18.4032 12.2835 19.9524 11.592 20.8749C11.2887 21.2771 10.8725 21.5284 10.417 21.5804C10.3574 21.588 10.2978 21.5918 10.2394 21.5918Z" fill="#9A9A9A"/>
<path d="M15.497 21.5918C15.4387 21.5918 15.379 21.588 15.3194 21.5816C14.8639 21.5284 14.4477 21.2771 14.1457 20.8749C13.4529 19.9524 13.2956 18.4032 13.7118 16.6242C13.7447 16.4834 13.8856 16.3958 14.0252 16.4288C14.1647 16.4631 14.2523 16.6027 14.2193 16.7435C13.8374 18.3714 13.9617 19.7621 14.5606 20.5602C14.7763 20.8482 15.0669 21.0259 15.379 21.0614C15.6506 21.0919 15.9094 21.0157 16.1124 20.847C16.436 20.5742 16.4791 20.0895 16.2089 19.7634C16.1086 19.6428 15.9665 19.5692 15.8104 19.5553C15.6544 19.5413 15.5021 19.5883 15.3816 19.6898C15.2902 19.7659 15.2344 19.8738 15.223 19.993C15.2115 20.1364 15.0847 20.2417 14.9413 20.2303C14.7979 20.2176 14.6926 20.0895 14.7053 19.9461C14.7281 19.6885 14.8499 19.455 15.0479 19.2888C15.275 19.0972 15.5617 19.0084 15.8574 19.0338C16.1505 19.0604 16.4182 19.2 16.6073 19.4284C17.0628 19.974 16.9905 20.7899 16.4461 21.2467C16.1784 21.4725 15.851 21.5918 15.497 21.5918Z" fill="#9A9A9A"/>
<path d="M8.49645 8.01058C8.40509 8.01058 8.31754 7.96236 8.26932 7.87735C8.19954 7.75046 8.24395 7.59186 8.36956 7.5208C10.4023 6.37883 11.9427 4.20275 12.2726 3.53787C12.3373 3.40971 12.4933 3.35642 12.6228 3.42113C12.7509 3.48585 12.8029 3.64318 12.7382 3.77261C12.3284 4.59609 10.722 6.79882 8.6246 7.97759C8.584 8.00043 8.53959 8.01058 8.49645 8.01058Z" fill="#9A9A9A"/>
<path d="M5.9365 23.6245H4.69176C4.54838 23.6245 4.43164 23.5078 4.43164 23.3632V20.1009C4.43164 19.9576 4.54838 19.8408 4.69176 19.8408C4.83514 19.8408 4.95187 19.9576 4.95187 20.1009V23.1018H5.67512V20.8305C5.67512 20.6859 5.79185 20.5691 5.9365 20.5691C6.07988 20.5691 6.19662 20.6859 6.19662 20.8305V23.3632C6.19662 23.5078 6.07988 23.6245 5.9365 23.6245Z" fill="#9A9A9A"/>
<path d="M21.789 17.0323C21.6989 17.0323 21.6101 16.9841 21.5619 16.899C21.4908 16.7734 21.5365 16.6148 21.6621 16.5438L22.7457 15.9309L21.6875 12.6864C21.6431 12.5494 21.7179 12.4022 21.8537 12.3565C21.9908 12.3121 22.1379 12.387 22.1823 12.524L23.3078 15.9728C23.3459 16.0921 23.2951 16.2215 23.1873 16.2824L21.9159 16.9993C21.8766 17.0221 21.8321 17.0323 21.789 17.0323Z" fill="#9A9A9A"/>
<path d="M18.9888 21.6656C18.947 21.6656 18.9038 21.6554 18.8645 21.6338C18.7769 21.5856 18.7249 21.4917 18.7287 21.3902L19.1944 12.455C19.202 12.3103 19.3213 12.1986 19.4685 12.2075C19.6118 12.2151 19.7222 12.3369 19.7146 12.4816L19.2781 20.8738L21.8298 19.0302L20.7208 13.1769C20.6942 13.0348 20.7868 12.8978 20.9276 12.8711C21.0697 12.8445 21.2055 12.9371 21.2322 13.078L22.3729 19.0961C22.3919 19.1964 22.3513 19.2979 22.2688 19.3575L19.1411 21.6173C19.0967 21.6491 19.0434 21.6656 18.9888 21.6656Z" fill="#9A9A9A"/>
<path d="M20.6007 10.8646C20.6007 10.909 20.5905 10.9534 20.5664 10.9953C20.3824 11.315 20.3355 11.584 20.4332 11.754C20.5131 11.8949 20.6844 11.9456 20.8164 11.9456C20.9483 11.9456 21.1184 11.8949 21.1996 11.754C21.2973 11.584 21.2491 11.315 21.0663 10.9953C21.0422 10.9534 21.0308 10.909 21.0308 10.8646C21.0308 10.7745 21.0778 10.6857 21.1615 10.6374C21.2859 10.5651 21.4445 10.6083 21.5168 10.7339C21.7008 11.0536 21.9089 11.2287 22.1043 11.2287C22.3454 11.2287 22.5331 10.9661 22.5331 10.739C22.5331 10.6248 22.4875 10.5309 22.3986 10.4585C22.268 10.3545 22.0497 10.2987 21.7668 10.2987C21.6221 10.2987 21.5066 10.1819 21.5066 10.0373C21.5066 9.89263 21.6221 9.77589 21.7668 9.77589C22.0497 9.77589 22.268 9.72006 22.3986 9.61475C22.4875 9.54369 22.5331 9.4498 22.5331 9.3356C22.5331 9.10974 22.3454 8.84582 22.1043 8.84582C21.9089 8.84582 21.7008 9.02219 21.5168 9.34195C21.4445 9.46629 21.2846 9.50943 21.1615 9.43711C21.0778 9.38889 21.0308 9.30134 21.0308 9.20998C21.0308 9.16684 21.0422 9.12116 21.0663 9.08056C21.2491 8.76081 21.2973 8.49054 21.1996 8.32179C21.1184 8.17967 20.9483 8.13019 20.8164 8.13019C20.6844 8.13019 20.5131 8.17967 20.4332 8.32179C20.3355 8.49054 20.3824 8.76081 20.5664 9.08056C20.5905 9.12116 20.6007 9.16684 20.6007 9.20998C20.6007 9.30134 20.555 9.38889 20.4713 9.43711C20.3469 9.50943 20.187 9.46629 20.116 9.34195C19.9307 9.02219 19.7226 8.84582 19.5272 8.84582C19.2861 8.84582 19.0984 9.10974 19.0984 9.3356C19.0984 9.4498 19.144 9.54369 19.2341 9.61475C19.3635 9.72006 19.5831 9.77589 19.8647 9.77589C20.0094 9.77589 20.1261 9.89263 20.1261 10.0373C20.1261 10.1819 20.0094 10.2987 19.8647 10.2987C19.5831 10.2987 19.3648 10.3545 19.2341 10.4585C19.144 10.5309 19.0984 10.6248 19.0984 10.739C19.0984 10.9648 19.2861 11.2287 19.5272 11.2287C19.7226 11.2287 19.9307 11.0536 20.116 10.7339C20.187 10.6083 20.3456 10.5651 20.4713 10.6374C20.555 10.6857 20.6007 10.7745 20.6007 10.8646ZM20.8164 12.4684C20.4624 12.4684 20.1426 12.2946 19.9815 12.0154C19.932 11.9279 19.8876 11.8175 19.8698 11.683C19.7442 11.735 19.6275 11.7515 19.5272 11.7515C19.0222 11.7515 18.5781 11.2782 18.5781 10.739C18.5781 10.4661 18.6961 10.2213 18.908 10.0512C18.9144 10.0462 18.9194 10.0411 18.9258 10.0373C18.9194 10.0335 18.9144 10.0284 18.908 10.0233C18.6961 9.85329 18.5781 9.6084 18.5781 9.3356C18.5781 8.79634 19.0222 8.32306 19.5272 8.32306C19.6275 8.32306 19.7442 8.34082 19.8698 8.39284C19.8876 8.25708 19.9307 8.14795 19.9815 8.0604C20.1426 7.78125 20.4624 7.60742 20.8164 7.60742C21.1704 7.60742 21.4901 7.78125 21.65 8.0604C21.7008 8.14795 21.7439 8.25708 21.7617 8.39284C21.8873 8.34082 22.0053 8.32306 22.1043 8.32306C22.6105 8.32306 23.0534 8.79634 23.0534 9.3356C23.0534 9.6084 22.9366 9.85202 22.7235 10.0233C22.7171 10.0284 22.7121 10.0335 22.7057 10.0373C22.7121 10.0411 22.7184 10.0462 22.7235 10.0512C22.9366 10.2225 23.0534 10.4661 23.0534 10.739C23.0534 11.2782 22.6105 11.7515 22.1043 11.7515C22.004 11.7515 21.8873 11.735 21.7617 11.683C21.7439 11.8175 21.7008 11.9279 21.65 12.0154C21.4901 12.2946 21.1704 12.4684 20.8164 12.4684Z" fill="#9A9A9A"/>
<path d="M21.0625 23.6245H19.8177C19.6744 23.6245 19.5576 23.5078 19.5576 23.3632V20.8305C19.5576 20.6859 19.6744 20.5691 19.8177 20.5691C19.9624 20.5691 20.0791 20.6859 20.0791 20.8305V23.1018H20.8024V20.1009C20.8024 19.9576 20.9191 19.8408 21.0625 19.8408C21.2059 19.8408 21.3226 19.9576 21.3226 20.1009V23.3632C21.3226 23.5078 21.2059 23.6245 21.0625 23.6245Z" fill="#9A9A9A"/>
<path d="M12.9289 13.4818C10.9952 13.4818 9.95216 13.9614 9.95216 14.1568C9.95216 14.3535 10.9952 14.8318 12.9289 14.8318C14.8626 14.8318 15.9056 14.3535 15.9056 14.1568C15.9056 13.9614 14.8626 13.4818 12.9289 13.4818ZM12.9289 15.3546C11.2439 15.3546 9.43066 14.9803 9.43066 14.1568C9.43066 13.3333 11.2439 12.959 12.9289 12.959C14.6127 12.959 16.4259 13.3333 16.4259 14.1568C16.4259 14.9803 14.6127 15.3546 12.9289 15.3546Z" fill="#9A9A9A"/>
<path d="M12.9312 16.2567C11.5545 16.2567 10.3592 16.0283 9.56621 15.6147C9.43805 15.5474 9.38857 15.3901 9.45582 15.262C9.5218 15.1338 9.67914 15.0843 9.80602 15.1503C10.5267 15.5271 11.637 15.734 12.9312 15.734C14.2242 15.734 15.3915 15.5195 16.0551 15.1604C16.182 15.0919 16.3394 15.1401 16.4079 15.2658C16.4764 15.3939 16.4294 15.5513 16.3026 15.621C15.5552 16.0258 14.3257 16.2567 12.9312 16.2567Z" fill="#9A9A9A"/>
<path d="M12.8666 21.5538C12.7219 21.5538 12.6064 21.4371 12.6064 21.2924V16.7106C12.6064 16.566 12.7219 16.4492 12.8666 16.4492C13.0099 16.4492 13.1267 16.566 13.1267 16.7106V21.2924C13.1267 21.4371 13.0099 21.5538 12.8666 21.5538Z" fill="#9A9A9A"/>
</svg>
