<svg width="11" height="14" viewBox="0 0 11 14" fill="none" xmlns="http://www.w3.org/2000/svg">
<path d="M5.95581 13.3926C5.0512 12.621 4.21271 11.7751 3.4491 10.8637C2.30317 9.49502 0.942383 7.4567 0.942383 5.51436C0.941886 4.52239 1.23568 3.55256 1.78657 2.72762C2.33746 1.90269 3.1207 1.25972 4.03715 0.880084C4.9536 0.500452 5.96208 0.401224 6.93495 0.594959C7.90782 0.788693 8.80135 1.26668 9.50246 1.96843C9.96925 2.43314 10.3392 2.98582 10.591 3.59448C10.8428 4.20314 10.9713 4.85569 10.9692 5.51436C10.9692 7.4567 9.60846 9.49502 8.46253 10.8637C7.69892 11.7751 6.86042 12.621 5.95581 13.3926ZM5.95581 3.36574C5.38597 3.36574 4.83946 3.59212 4.43651 3.99506C4.03357 4.398 3.8072 4.94451 3.8072 5.51436C3.8072 6.08421 4.03357 6.63071 4.43651 7.03366C4.83946 7.4366 5.38597 7.66297 5.95581 7.66297C6.52566 7.66297 7.07217 7.4366 7.47511 7.03366C7.87806 6.63071 8.10443 6.08421 8.10443 5.51436C8.10443 4.94451 7.87806 4.398 7.47511 3.99506C7.07217 3.59212 6.52566 3.36574 5.95581 3.36574Z" fill="#461952"/>
</svg>
