<svg width="24" height="24" viewBox="0 0 24 24" fill="none" xmlns="http://www.w3.org/2000/svg">
<path d="M18.2727 10.1364C18.2727 14.9091 12.1364 19 12.1364 19C12.1364 19 6 14.9091 6 10.1364C6 8.5089 6.64651 6.94809 7.7973 5.7973C8.94809 4.64651 10.5089 4 12.1364 4C13.7638 4 15.3246 4.64651 16.4754 5.7973C17.6262 6.94809 18.2727 8.5089 18.2727 10.1364Z" stroke="#C4456F" stroke-linecap="round" stroke-linejoin="round"/>
<path d="M12.1365 12.1817C13.2662 12.1817 14.182 11.2659 14.182 10.1363C14.182 9.0066 13.2662 8.09082 12.1365 8.09082C11.0068 8.09082 10.0911 9.0066 10.0911 10.1363C10.0911 11.2659 11.0068 12.1817 12.1365 12.1817Z" stroke="#C4456F" stroke-linecap="round" stroke-linejoin="round"/>
</svg>
