<svg width="25" height="26" viewBox="0 0 25 26" fill="none" xmlns="http://www.w3.org/2000/svg">
<path d="M3.23204 7.58001L7.0145 12.2925L10.7627 7.55717L9.92144 6.31496H4.06949L3.23204 7.58001ZM7.0145 12.965C6.9371 12.965 6.86224 12.9295 6.81402 12.8686L2.71054 7.75638C2.64076 7.66756 2.63568 7.54575 2.69659 7.45185L3.71548 5.91527C3.76369 5.84295 3.8449 5.7998 3.93118 5.7998H10.0585C10.1435 5.7998 10.2247 5.84168 10.2716 5.91273L11.2969 7.42394C11.3603 7.51656 11.3552 7.64091 11.2855 7.72846L7.21751 12.8673C7.1693 12.9295 7.09444 12.965 7.01577 12.965C7.01577 12.965 7.01577 12.965 7.0145 12.965Z" fill="#9A9A9A"/>
<path d="M3.57693 11.5052C3.50334 11.5052 3.42974 11.4747 3.37899 11.4138C3.06177 11.037 2.91078 10.5586 2.95265 10.0676C2.99453 9.57524 3.22546 9.12988 3.60358 8.81266C3.7127 8.72131 3.87511 8.73399 3.96774 8.84438C4.05909 8.95351 4.04514 9.11592 3.93602 9.20728C3.37391 9.67929 3.30159 10.5205 3.77487 11.0814C3.86623 11.1905 3.85227 11.3542 3.74315 11.4455C3.69493 11.4861 3.6353 11.5052 3.57693 11.5052Z" fill="#9A9A9A"/>
<path d="M10.4184 11.5048C10.36 11.5048 10.3004 11.4857 10.2522 11.4451C10.143 11.3538 10.1291 11.1901 10.2204 11.081C10.6937 10.5201 10.6214 9.67887 10.0593 9.20686C9.95018 9.1155 9.93622 8.95309 10.0276 8.84397C10.1202 8.73485 10.2826 8.72089 10.3917 8.81225C10.7699 9.12946 11.0008 9.57483 11.0439 10.0671C11.0858 10.5582 10.9335 11.0365 10.6163 11.4134C10.5656 11.4743 10.492 11.5048 10.4184 11.5048Z" fill="#9A9A9A"/>
<path d="M11.0363 7.85041H2.93971C2.79759 7.85041 2.68213 7.73494 2.68213 7.59156C2.68213 7.44945 2.79759 7.33398 2.93971 7.33398H11.0363C11.1796 7.33398 11.2951 7.44945 11.2951 7.59156C11.2951 7.73494 11.1796 7.85041 11.0363 7.85041Z" fill="#9A9A9A"/>
<path d="M6.9985 12.8332C6.89319 12.8332 6.79422 12.7685 6.75615 12.6644L4.92266 7.66008C4.87444 7.52685 4.94296 7.37839 5.07619 7.32891C5.20942 7.28069 5.35914 7.34921 5.40736 7.48244L7.24085 12.4868C7.28907 12.6213 7.22055 12.7698 7.08732 12.818C7.05814 12.8281 7.02768 12.8332 6.9985 12.8332Z" fill="#9A9A9A"/>
<path d="M6.99878 12.8334C6.9696 12.8334 6.93915 12.8283 6.90996 12.8181C6.77546 12.7699 6.70695 12.6215 6.75516 12.487L8.5747 7.51434C8.62419 7.37984 8.77264 7.31132 8.90587 7.36081C9.04037 7.40902 9.10889 7.55748 9.06067 7.69071L7.24113 12.6646C7.2018 12.7687 7.1041 12.8334 6.99878 12.8334Z" fill="#9A9A9A"/>
<path d="M5.16426 7.83C5.08812 7.83 5.01072 7.79574 4.95997 7.72976L3.82435 6.26169C3.73806 6.14877 3.75837 5.98635 3.87129 5.90007C3.98422 5.81252 4.14664 5.83282 4.23419 5.94575L5.36854 7.41381C5.45609 7.52674 5.43579 7.68915 5.32286 7.77544C5.27465 7.81223 5.22009 7.83 5.16426 7.83Z" fill="#9A9A9A"/>
<path d="M5.16579 7.83039C5.09093 7.83039 5.01607 7.7974 4.96531 7.73396C4.87523 7.62357 4.89299 7.46116 5.00338 7.37107L6.83687 5.89158C6.94726 5.8015 7.10968 5.81926 7.19977 5.92965C7.28859 6.04131 7.27209 6.20372 7.1617 6.29254L5.32821 7.77329C5.27999 7.81136 5.22289 7.83039 5.16579 7.83039Z" fill="#9A9A9A"/>
<path d="M8.82499 7.84273C8.76789 7.84273 8.70953 7.82369 8.66258 7.78436L6.83416 6.29092C6.72377 6.2021 6.70727 6.03841 6.79736 5.92929C6.88745 5.81763 7.04987 5.80241 7.16026 5.8925L8.98867 7.38467C9.10033 7.47476 9.11683 7.63717 9.02547 7.74756C8.97472 7.811 8.90112 7.84273 8.82499 7.84273Z" fill="#9A9A9A"/>
<path d="M8.82515 7.84323C8.76678 7.84323 8.70715 7.82293 8.65893 7.78232C8.54981 7.6897 8.53712 7.52602 8.62975 7.41816L9.82247 6.01862C9.9151 5.91077 10.0775 5.89808 10.1854 5.9907C10.2945 6.08206 10.3084 6.24574 10.2158 6.3536L9.02309 7.75314C8.97107 7.81278 8.89875 7.84323 8.82515 7.84323Z" fill="#9A9A9A"/>
<path d="M6.99929 20.6518C4.05048 20.6518 1.65234 18.2562 1.65234 15.3112C1.65234 13.498 2.56211 11.8232 4.08474 10.8322C4.20401 10.7548 4.36388 10.789 4.44128 10.9083C4.51995 11.0276 4.48569 11.1875 4.36642 11.2649C2.99098 12.1607 2.16877 13.6731 2.16877 15.3112C2.16877 17.972 4.33597 20.1367 6.99929 20.1367C9.66135 20.1367 11.8286 17.972 11.8286 15.3112C11.8286 13.6655 11.0013 12.1492 9.61567 11.2547C9.49513 11.1773 9.46087 11.0187 9.53827 10.8982C9.61567 10.7789 9.77682 10.7446 9.89609 10.8208C11.4289 11.8117 12.345 13.4892 12.345 15.3112C12.345 18.2562 9.94684 20.6518 6.99929 20.6518Z" fill="#9A9A9A"/>
<path d="M6.99827 19.2927C4.80569 19.2927 3.02295 17.5112 3.02295 15.3212C3.02295 13.9381 3.72589 12.6769 4.90339 11.946C5.02393 11.8699 5.18381 11.9079 5.25867 12.0285C5.3348 12.1503 5.29674 12.3089 5.17619 12.3838C4.15096 13.0195 3.53937 14.1183 3.53937 15.3212C3.53937 17.227 5.09118 18.7763 6.99827 18.7763C8.90536 18.7763 10.4559 17.227 10.4559 15.3212C10.4559 14.013 9.73011 12.8317 8.5615 12.2391C8.43461 12.1744 8.38386 12.0183 8.44857 11.8927C8.51328 11.7646 8.66808 11.7151 8.79497 11.7785C10.1387 12.4599 10.9723 13.8176 10.9723 15.3212C10.9723 17.5112 9.18958 19.2927 6.99827 19.2927Z" fill="#9A9A9A"/>
<path d="M16.4623 20.6527C14.743 20.6527 13.1151 19.998 11.8767 18.8078C11.7739 18.7088 11.7701 18.5464 11.8691 18.4436C11.968 18.3409 12.1317 18.337 12.2345 18.436C13.3765 19.5336 14.8775 20.1376 16.4623 20.1376C19.8273 20.1376 22.5642 17.4032 22.5642 14.0407C22.5642 10.6795 19.8273 7.94513 16.4623 7.94513C14.7303 7.94513 13.0745 8.68488 11.9173 9.9753C11.8221 10.0806 11.6584 10.0895 11.5519 9.99433C11.4465 9.89917 11.4377 9.73676 11.5328 9.63017C12.7877 8.23063 14.5844 7.42871 16.4623 7.42871C20.1128 7.42871 23.0819 10.3953 23.0819 14.0407C23.0819 17.6874 20.1128 20.6527 16.4623 20.6527Z" fill="#9A9A9A"/>
<path d="M16.4725 19.2459C15.0527 19.2459 13.7254 18.6851 12.7357 17.6675C12.6355 17.5647 12.638 17.4023 12.7408 17.302C12.8423 17.2031 13.006 17.2056 13.1062 17.3084C13.997 18.2245 15.1922 18.7295 16.4725 18.7295C19.061 18.7295 21.166 16.627 21.166 14.0398C21.166 11.4551 19.061 9.35138 16.4725 9.35138C14.6707 9.35138 13.058 10.3538 12.2599 11.969C12.1977 12.0972 12.0429 12.1505 11.9148 12.087C11.7866 12.0236 11.7333 11.8688 11.7968 11.7419C12.6812 9.94901 14.4728 8.83496 16.4725 8.83496C19.3452 8.83496 21.6824 11.1697 21.6824 14.0398C21.6824 16.9099 19.3452 19.2459 16.4725 19.2459Z" fill="#9A9A9A"/>
</svg>
