<svg width="32" height="31" viewBox="0 0 32 31" fill="none" xmlns="http://www.w3.org/2000/svg">
<path d="M23.937 25.5679H6.96992C6.0901 25.5638 5.38222 24.843 5.38818 23.9645V14.1546L13.8667 20.4941C14.8093 21.1926 16.0977 21.1926 17.0402 20.4941L25.5188 14.1546V23.9582C25.5247 24.843 24.8147 25.5638 23.937 25.5679ZM7.30378 11.3504V14.2823L5.63293 13.035L7.30378 11.3504ZM22.4827 6.90824V15.1144L16.4171 19.6356C15.8429 20.0567 15.0641 20.0567 14.4936 19.6356L8.36936 15.0717V6.90824H22.4827ZM14.435 5.26625C15.0277 4.77613 15.8852 4.78241 16.4758 5.27221L17.1513 5.84329H13.7494L14.435 5.26625ZM25.274 13.035L23.5486 14.3187V11.2976L25.274 13.035ZM26.451 12.715L23.5486 9.78337V6.35945C23.5486 6.06607 23.2919 5.84329 22.9944 5.84329H18.8241L17.1513 4.44604C16.1664 3.63022 14.7406 3.63022 13.7534 4.45232L12.0829 5.84329H7.85791C7.56641 5.84329 7.30378 6.06199 7.30378 6.35945V9.84204L4.45595 12.7212C4.3546 12.8223 4.30001 12.9541 4.31224 13.0978H4.32228V23.9704C4.32228 25.4423 5.50365 26.641 6.96992 26.641H23.9311C25.4014 26.641 26.5784 25.4364 26.5784 23.9704V13.0937H26.5884C26.6048 12.956 26.552 12.8163 26.451 12.715Z" fill="#461952"/>
<path d="M13.5348 8.88268H17.3695V11.5109C17.3695 12.5717 16.5119 13.4302 15.4523 13.4302C14.3923 13.4302 13.5348 12.5717 13.5348 11.5109V8.88268ZM14.8677 14.4648V17.1984H13.9615C13.6685 17.1984 13.4297 17.439 13.4297 17.7327C13.4297 18.0264 13.6685 18.2652 13.9615 18.2652H16.8903C17.1834 18.2652 17.424 18.0264 17.424 17.7327C17.424 17.439 17.1834 17.1984 16.8903 17.1984H15.9314V14.4811C17.3798 14.2401 18.4416 12.9828 18.4353 11.5109V8.36433C18.4353 8.07095 18.217 7.80957 17.9239 7.80957H12.9807C12.6895 7.80957 12.4711 8.06687 12.4711 8.36433V11.5109C12.4648 12.9442 13.4661 14.1773 14.8677 14.4648Z" fill="#461952"/>
</svg>
