<svg width="26" height="26" viewBox="0 0 26 26" fill="none" xmlns="http://www.w3.org/2000/svg">
<path d="M10.3526 5.62127C10.2752 5.62127 10.1978 5.59209 10.1381 5.53245C10.0201 5.41445 10.0201 5.22412 10.1394 5.10612L12.7621 2.52019C12.8801 2.40473 13.0705 2.40473 13.1885 2.52019L15.749 5.04394C15.867 5.16068 15.8683 5.35227 15.7503 5.47028C15.6323 5.58828 15.4407 5.58955 15.3227 5.47155L12.9766 3.15843L10.5658 5.53372C10.5074 5.59209 10.43 5.62127 10.3526 5.62127Z" fill="#9A9A9A"/>
<path d="M20.5738 23.5021H5.3856C4.53674 23.5021 3.84521 22.8144 3.84521 21.9693V11.9543C3.84521 11.5457 4.00636 11.16 4.2982 10.8707L4.63571 10.537C4.75498 10.4202 4.94658 10.4215 5.06331 10.5395C5.18132 10.6575 5.18132 10.8491 5.06205 10.9658L4.7258 11.2983C4.54816 11.4734 4.45046 11.7068 4.45046 11.9543V21.9693C4.45046 22.4819 4.87045 22.8994 5.3856 22.8994H20.5738C21.0902 22.8994 21.5102 22.4819 21.5102 21.9693V11.9543C21.5102 11.7068 21.4125 11.4734 21.2349 11.297L20.976 11.042C20.8567 10.9252 20.8555 10.7349 20.9735 10.6169C21.0915 10.4989 21.2831 10.4976 21.4023 10.6144L21.6612 10.8694C21.9543 11.16 22.1154 11.5457 22.1154 11.9543V21.9693C22.1154 22.8144 21.4239 23.5021 20.5738 23.5021Z" fill="#9A9A9A"/>
<path d="M20.2457 13.3446C20.0795 13.3446 19.9437 13.2101 19.9437 13.0426V7.34036C19.9437 6.99777 19.6633 6.71862 19.3182 6.71862H6.6385C6.29337 6.71862 6.01296 6.99777 6.01296 7.34036V13.0071C6.01296 13.1746 5.87719 13.3091 5.7097 13.3091C5.54221 13.3091 5.40771 13.1746 5.40771 13.0071V7.34036C5.40771 6.66533 5.95967 6.11719 6.6385 6.11719H19.3182C19.997 6.11719 20.5489 6.66533 20.5489 7.34036V13.0426C20.5489 13.2101 20.4132 13.3446 20.2457 13.3446Z" fill="#9A9A9A"/>
<path d="M21.8052 22.3676C21.7964 22.3676 21.7875 22.3663 21.7799 22.3663C21.639 22.3549 21.5286 22.2495 21.5058 22.1176L12.9766 15.5931L4.32805 22.2077C4.19482 22.3092 4.00576 22.2838 3.90299 22.1531C3.80148 22.0212 3.82559 21.8308 3.95882 21.7306L12.7913 14.9739C12.9004 14.8902 13.0527 14.8902 13.1605 14.9739L21.993 21.7306C22.0666 21.7877 22.111 21.8752 22.111 21.9691C22.111 22.0097 22.1098 22.0503 22.106 22.0909C22.0933 22.247 21.9613 22.3676 21.8052 22.3676Z" fill="#9A9A9A"/>
<path d="M15.2638 17.2628C15.1724 17.2628 15.0836 17.2222 15.0227 17.1448C14.9212 17.0128 14.9466 16.8237 15.0785 16.7222L21.6258 11.7141C21.7578 11.6138 21.9481 11.6379 22.0509 11.7699C22.1524 11.9019 22.127 12.0909 21.9951 12.1924L15.4478 17.1993C15.3932 17.2412 15.3272 17.2628 15.2638 17.2628Z" fill="#9A9A9A"/>
<path d="M10.6945 17.2634C10.6298 17.2634 10.5651 17.2419 10.5105 17.2L4.20303 12.3771C4.18654 12.3809 4.1675 12.3821 4.1472 12.3821C3.98098 12.3821 3.84521 12.2476 3.84521 12.0814V11.9545C3.84521 11.8391 3.90993 11.735 4.01397 11.6843C4.11802 11.6335 4.2411 11.6462 4.33245 11.7147L10.8797 16.7229C11.0117 16.8244 11.0371 17.0135 10.9343 17.1454C10.8747 17.2228 10.7846 17.2634 10.6945 17.2634Z" fill="#9A9A9A"/>
<path d="M14.0151 14.3345C13.958 14.3345 13.8996 14.3193 13.8501 14.2863C13.8222 14.2685 13.1523 13.8371 12.4239 13.1634C12.3009 13.0492 12.2945 12.8589 12.4074 12.737C12.5216 12.6152 12.7132 12.6089 12.8363 12.7218C13.3159 13.1659 13.7778 13.5034 14.0138 13.6684C14.4833 13.3385 15.8384 12.3196 16.4805 11.1307C16.8738 10.4024 16.8154 9.6956 16.3269 9.28576C15.879 8.91145 15.0441 8.82897 14.1876 9.49385C14.0798 9.5776 13.9263 9.5776 13.8171 9.49385C13.2068 9.02564 12.5242 8.88353 11.99 9.11193C11.5878 9.28322 11.3315 9.63469 11.2858 10.0775C11.2693 10.2425 11.1208 10.363 10.9546 10.3465C10.7884 10.33 10.6666 10.1816 10.6843 10.0166C10.7516 9.35935 11.15 8.81501 11.7502 8.55744C12.4315 8.26687 13.2601 8.38868 14.0011 8.88353C15.0632 8.16409 16.1176 8.3227 16.7177 8.82643C17.427 9.42026 17.5438 10.4379 17.0147 11.4162C16.1582 12.9984 14.26 14.2343 14.1788 14.2863C14.1293 14.318 14.0722 14.3345 14.0151 14.3345Z" fill="#9A9A9A"/>
<path d="M9.96958 10.4974C9.68409 10.4974 9.44554 10.6218 9.31612 10.84C9.16259 11.0951 9.1867 11.4465 9.3821 11.8043C9.7894 12.5492 10.6205 13.1912 10.9745 13.4424C11.3273 13.1899 12.1584 12.5416 12.5618 11.7955C12.7534 11.4389 12.7763 11.0887 12.6228 10.8337C12.4921 10.6167 12.2548 10.4924 11.9693 10.4924C11.7028 10.4924 11.4199 10.6015 11.1534 10.8083C11.0443 10.8933 10.8908 10.8933 10.7816 10.8096C10.5165 10.6053 10.2348 10.4974 9.96958 10.4974ZM10.9758 14.1099C10.9187 14.1099 10.8616 14.0934 10.8121 14.0629C10.7563 14.0274 9.44681 13.1823 8.85045 12.0924C8.54973 11.543 8.5307 10.9758 8.79462 10.5317C9.03316 10.1333 9.47219 9.89472 9.96958 9.89472C10.3046 9.89472 10.6459 10.0013 10.9656 10.2031C11.2892 9.9975 11.6318 9.88965 11.9693 9.88965C12.4654 9.88965 12.9044 10.1269 13.143 10.5241C13.4082 10.9656 13.3904 11.5328 13.096 12.081C12.5035 13.176 11.1953 14.0261 11.1407 14.0616C11.09 14.0934 11.0329 14.1099 10.9758 14.1099Z" fill="#9A9A9A"/>
</svg>
