<svg width="30" height="30" viewBox="0 0 30 30" fill="none" xmlns="http://www.w3.org/2000/svg">
<circle cx="14.9524" cy="14.8571" r="14.8571" fill="url(#paint0_linear_1274_7486)"/>
<path d="M14.9522 11.2367C13.1835 11.2367 11.774 12.6738 11.774 14.4149C11.774 16.1836 13.1835 17.593 14.9522 17.593C16.6933 17.593 18.1303 16.1836 18.1303 14.4149C18.1303 12.6738 16.6933 11.2367 14.9522 11.2367ZM14.9522 16.4876C13.8191 16.4876 12.8795 15.5756 12.8795 14.4149C12.8795 13.2818 13.7915 12.3698 14.9522 12.3698C16.0853 12.3698 16.9973 13.2818 16.9973 14.4149C16.9973 15.5756 16.0853 16.4876 14.9522 16.4876ZM18.9871 11.1262C18.9871 10.7117 18.6554 10.38 18.2409 10.38C17.8263 10.38 17.4947 10.7117 17.4947 11.1262C17.4947 11.5407 17.8263 11.8724 18.2409 11.8724C18.6554 11.8724 18.9871 11.5407 18.9871 11.1262ZM21.0874 11.8724C21.0321 10.8775 20.811 9.99312 20.0925 9.27458C19.374 8.55604 18.4896 8.33495 17.4947 8.27968C16.4722 8.22441 13.4046 8.22441 12.382 8.27968C11.3871 8.33495 10.5304 8.55604 9.78425 9.27458C9.06572 9.99312 8.84463 10.8775 8.78935 11.8724C8.73408 12.8949 8.73408 15.9625 8.78935 16.985C8.84463 17.9799 9.06572 18.8367 9.78425 19.5828C10.5304 20.3014 11.3871 20.5225 12.382 20.5777C13.4046 20.633 16.4722 20.633 17.4947 20.5777C18.4896 20.5225 19.374 20.3014 20.0925 19.5828C20.811 18.8367 21.0321 17.9799 21.0874 16.985C21.1427 15.9625 21.1427 12.8949 21.0874 11.8724ZM19.7609 18.0628C19.5674 18.6156 19.1252 19.0301 18.6002 19.2512C17.7711 19.5828 15.8365 19.4999 14.9522 19.4999C14.0402 19.4999 12.1057 19.5828 11.3042 19.2512C10.7515 19.0301 10.337 18.6156 10.1159 18.0628C9.78425 17.2614 9.86716 15.3269 9.86716 14.4149C9.86716 13.5305 9.78425 11.596 10.1159 10.7669C10.337 10.2418 10.7515 9.8273 11.3042 9.60621C12.1057 9.27458 14.0402 9.35749 14.9522 9.35749C15.8365 9.35749 17.7711 9.27458 18.6002 9.60621C19.1252 9.79967 19.5398 10.2418 19.7609 10.7669C20.0925 11.596 20.0096 13.5305 20.0096 14.4149C20.0096 15.3269 20.0925 17.2614 19.7609 18.0628Z" fill="white"/>
<defs>
<linearGradient id="paint0_linear_1274_7486" x1="19.4449" y1="51.8703" x2="61.6313" y2="10.2945" gradientUnits="userSpaceOnUse">
<stop stop-color="white"/>
<stop offset="0.147864" stop-color="#F6640E"/>
<stop offset="0.443974" stop-color="#BA03A7"/>
<stop offset="0.733337" stop-color="#6A01B9"/>
<stop offset="1" stop-color="#6B01B9"/>
</linearGradient>
</defs>
</svg>
