<svg width="30" height="30" viewBox="0 0 30 30" fill="none" xmlns="http://www.w3.org/2000/svg">
<g clip-path="url(#clip0_1274_3048)">
<path d="M4.59199 5.44958C3.53391 5.44958 2.51917 5.88023 1.771 6.64679C1.02283 7.41335 0.602509 8.45303 0.602509 9.53711L0.602509 12.2621C0.602509 13.6246 1.93234 13.6246 1.93234 13.6246H4.59199C8.58147 13.6246 11.2411 14.9871 11.2411 14.9871C11.2411 14.9871 8.58147 16.3497 4.59199 16.3497H1.93234C1.93234 16.3497 0.602509 16.3497 0.602509 17.7122V20.4372C0.602509 21.5213 1.02283 22.5609 1.771 23.3275C2.51917 24.0941 3.53391 24.5247 4.59199 24.5247C5.65007 24.5247 6.66481 24.0941 7.41298 23.3275C8.16115 22.5609 8.58147 21.5213 8.58147 20.4372V18.7613C10.7305 18.3307 12.8023 17.5269 14.4992 16.7393L23.2096 21.7997C27.1991 23.8435 29.8587 21.7997 29.8587 21.7997L17.8903 14.9871L29.8587 8.1746C29.8587 8.1746 27.1991 6.13084 23.2096 8.1746L14.4992 13.235C12.8023 12.4474 10.7305 11.6436 8.58147 11.213V9.54801V9.53711C8.58147 8.45303 8.16115 7.41335 7.41298 6.64679C6.66481 5.88023 5.65007 5.44958 4.59199 5.44958ZM4.59199 8.1746C4.94468 8.1746 5.28293 8.31815 5.53232 8.57367C5.78171 8.82919 5.92182 9.17575 5.92182 9.53711C5.92182 9.89847 5.78171 10.245 5.53232 10.5006C5.28293 10.7561 4.94468 10.8996 4.59199 10.8996C4.2393 10.8996 3.90105 10.7561 3.65166 10.5006C3.40227 10.245 3.26216 9.89847 3.26216 9.53711C3.26216 9.17575 3.40227 8.82919 3.65166 8.57367C3.90105 8.31815 4.2393 8.1746 4.59199 8.1746ZM14.5178 14.3059H14.5657C14.7399 14.3123 14.9046 14.3885 15.0244 14.5182C15.1443 14.6478 15.2097 14.8204 15.2066 14.999C15.2034 15.1775 15.132 15.3476 15.0077 15.4727C14.8833 15.5979 14.716 15.668 14.5418 15.668C14.3675 15.668 14.2002 15.5979 14.0758 15.4727C13.9515 15.3476 13.8801 15.1775 13.877 14.999C13.8738 14.8204 13.9392 14.6478 14.0591 14.5182C14.1789 14.3885 14.3437 14.3123 14.5178 14.3059ZM4.59199 19.0747C4.94468 19.0747 5.28293 19.2182 5.53232 19.4737C5.78171 19.7293 5.92182 20.0758 5.92182 20.4372C5.92182 20.7985 5.78171 21.1451 5.53232 21.4006C5.28293 21.6561 4.94468 21.7997 4.59199 21.7997C4.2393 21.7997 3.90105 21.6561 3.65166 21.4006C3.40227 21.1451 3.26216 20.7985 3.26216 20.4372C3.26216 20.0758 3.40227 19.7293 3.65166 19.4737C3.90105 19.2182 4.2393 19.0747 4.59199 19.0747Z" fill="#C4456F"/>
</g>
<defs>
<clipPath id="clip0_1274_3048">
<rect width="29.2562" height="29.9752" fill="white" transform="translate(0.602676)"/>
</clipPath>
</defs>
</svg>
