<svg width="30" height="30" viewBox="0 0 30 30" fill="none" xmlns="http://www.w3.org/2000/svg">
<circle cx="15.0476" cy="14.8571" r="14.8571" fill="url(#paint0_linear_1274_7489)"/>
<path d="M22.0675 18.201C22.1781 17.9799 22.0399 17.7865 21.8741 17.7588C19.9396 17.4549 19.0828 15.4651 19.0276 15.3821C18.917 15.1611 18.917 14.9952 18.9723 14.8571C19.0828 14.6083 19.4974 14.4702 19.7461 14.3873C19.829 14.3596 19.9119 14.332 19.9672 14.3043C20.437 14.1109 20.6857 13.8898 20.6857 13.6134C20.6581 13.42 20.5199 13.2265 20.2436 13.116C20.0777 13.0607 19.8566 13.0607 19.6908 13.116C19.4421 13.2265 19.2487 13.2818 19.0552 13.3094C18.9447 13.2818 18.8617 13.2542 18.8341 13.2265C18.8894 12.2316 19.0276 10.8222 18.6683 10.0208C18.005 8.52841 16.6232 7.78223 15.1585 7.78223C15.1309 7.78223 14.9098 7.78223 14.8822 7.78223C14.3018 7.78223 12.3396 7.94805 11.4 10.0484C11.0407 10.8222 11.1789 12.2593 11.2342 13.2265C11.1789 13.2542 11.096 13.3094 10.9578 13.3094C10.7644 13.3094 10.5709 13.2542 10.3222 13.116C9.99058 12.9778 9.46549 13.1989 9.41022 13.5582C9.35495 13.7516 9.46549 14.0556 10.1011 14.3043C10.3498 14.4149 10.9578 14.5254 11.096 14.8571C11.1513 14.9952 11.1513 15.1611 11.0407 15.3821C10.9855 15.4651 10.1288 17.4549 8.19423 17.7588C8.05605 17.7865 7.94551 17.9247 7.94551 18.0628H7.97314C8.00078 18.6432 9.27204 18.8643 9.8524 18.9748C9.90767 19.0301 9.96294 19.3617 10.0458 19.6381C10.0735 19.7486 10.1564 19.8868 10.3775 19.8868C10.5986 19.8868 10.9302 19.7486 11.4553 19.7486C12.1738 19.7486 12.4225 19.9145 13.0029 20.329C13.4174 20.6054 14.136 21.1304 15.0203 21.0752C15.8771 21.1028 16.4574 20.7435 17.0654 20.329C17.6458 19.9145 17.8945 19.7486 18.613 19.7486C19.1657 19.7486 19.4421 19.8592 19.6908 19.8592C19.8843 19.8592 19.9948 19.7763 20.0225 19.6105C20.1054 19.3617 20.1606 19.0301 20.2159 18.9472C21.3214 18.7814 21.9294 18.5327 22.0675 18.201Z" fill="white"/>
<defs>
<linearGradient id="paint0_linear_1274_7489" x1="-3.53453" y1="-7.44954" x2="-3.53453" y2="29.7147" gradientUnits="userSpaceOnUse">
<stop stop-color="#FFFC00"/>
<stop offset="1" stop-color="#FF9000"/>
</linearGradient>
</defs>
</svg>
