<svg width="30" height="30" viewBox="0 0 30 30" fill="none" xmlns="http://www.w3.org/2000/svg">
<circle cx="15.1428" cy="14.8571" r="14.8571" fill="url(#paint0_linear_1274_7492)"/>
<path d="M20.7533 11.5407C21.306 11.1262 21.8035 10.6287 22.1904 10.0484C21.6929 10.2695 21.1126 10.4353 20.5322 10.4906C21.1402 10.1313 21.5824 9.57858 21.8035 8.88768C21.2508 9.21931 20.6151 9.46803 19.9795 9.60621C19.4268 9.02586 18.6806 8.69422 17.8515 8.69422C16.2486 8.69422 14.9497 9.99312 14.9497 11.596C14.9497 11.8171 14.9774 12.0382 15.0326 12.2593C12.6283 12.1211 10.4727 10.9604 9.03562 9.21931C8.7869 9.63385 8.64872 10.1313 8.64872 10.684C8.64872 11.6789 9.14617 12.5633 9.94761 13.0884C9.4778 13.0607 9.00799 12.9502 8.62108 12.7291V12.7567C8.62108 14.1662 9.61598 15.3269 10.9425 15.6032C10.7214 15.6585 10.4451 15.7138 10.1963 15.7138C10.0029 15.7138 9.83707 15.6861 9.64361 15.6585C10.0029 16.8192 11.0807 17.6483 12.3519 17.6759C11.357 18.4497 10.1134 18.9196 8.75926 18.9196C8.51054 18.9196 8.28945 18.8919 8.06836 18.8643C9.33962 19.6934 10.8596 20.1632 12.5178 20.1632C17.8515 20.1632 20.7533 15.7691 20.7533 11.9276C20.7533 11.7895 20.7533 11.6789 20.7533 11.5407Z" fill="white"/>
<defs>
<linearGradient id="paint0_linear_1274_7492" x1="0.285458" y1="0" x2="0.285458" y2="29.7147" gradientUnits="userSpaceOnUse">
<stop stop-color="#4ECEF6"/>
<stop offset="0.537697" stop-color="#4E8FF6"/>
<stop offset="1" stop-color="#226ADB"/>
</linearGradient>
</defs>
</svg>
