<svg width="15" height="17" viewBox="0 0 15 17" fill="none" xmlns="http://www.w3.org/2000/svg">
<path d="M9.86263 8.50012C9.86263 8.59369 9.8442 8.68634 9.80839 8.77279C9.77258 8.85923 9.7201 8.93778 9.65394 9.00394C9.58778 9.0701 9.50923 9.12258 9.42279 9.15839C9.33634 9.19419 9.24369 9.21262 9.15013 9.21262C9.05656 9.21262 8.96391 9.19419 8.87746 9.15839C8.79102 9.12258 8.71247 9.0701 8.64631 9.00394C8.58015 8.93778 8.52767 8.85923 8.49186 8.77279C8.45605 8.68634 8.43763 8.59369 8.43763 8.50012C8.43763 8.31116 8.51269 8.12993 8.64631 7.99631C8.77993 7.86269 8.96116 7.78762 9.15013 7.78762C9.33909 7.78762 9.52032 7.86269 9.65394 7.99631C9.78756 8.12993 9.86263 8.31116 9.86263 8.50012ZM7.12473 0.913424C7.05553 0.898561 6.98388 0.899349 6.91503 0.915732C6.84617 0.932115 6.78185 0.963679 6.72676 1.00811C6.67167 1.05255 6.6272 1.10874 6.59662 1.17256C6.56603 1.23639 6.5501 1.30625 6.54998 1.37702V15.627C6.54995 15.6979 6.56579 15.7678 6.59631 15.8318C6.62684 15.8957 6.67128 15.952 6.72639 15.9966C6.7815 16.0411 6.84587 16.0728 6.91479 16.0892C6.98372 16.1056 7.05545 16.1065 7.12473 16.0916L13.7747 14.6656C13.881 14.6426 13.9761 14.5838 14.0442 14.4991C14.1123 14.4144 14.1493 14.3088 14.149 14.2001V2.80012C14.1488 2.69161 14.1115 2.58643 14.0432 2.50208C13.975 2.41774 13.8799 2.35931 13.7738 2.33652L7.12378 0.912474L7.12473 0.913424ZM7.49998 15.039V1.96412L13.2 3.18487V13.8173L7.49998 15.039ZM5.60188 15.1482V14.1982H1.79998V2.80297H5.60188V1.85297H1.32498C1.199 1.85297 1.07818 1.90302 0.9891 1.9921C0.90002 2.08118 0.849976 2.202 0.849976 2.32797V14.6732C0.849976 14.7992 0.90002 14.92 0.9891 15.0091C1.07818 15.0982 1.199 15.1482 1.32498 15.1482H5.60188Z" fill="#C4456F"/>
</svg>
