<svg width="19" height="19" viewBox="0 0 19 19" fill="none" xmlns="http://www.w3.org/2000/svg">
<path d="M15.1406 11.2812C13.9577 11.2824 12.7995 11.6196 11.8009 12.2536C10.8022 12.8876 10.0043 13.7923 9.5 14.8623C8.99571 13.7923 8.19777 12.8876 7.19913 12.2536C6.20049 11.6196 5.04227 11.2824 3.85938 11.2812H0.59375V11.875C0.59375 15.3127 3.39046 18.1094 6.82812 18.1094H12.1719C15.6095 18.1094 18.4062 15.3127 18.4062 11.875V11.2812H15.1406ZM6.82812 16.9219C4.24602 16.9219 2.11063 14.9729 1.81598 12.4688H3.85938C6.44148 12.4688 8.57687 14.4177 8.87152 16.9219H6.82812ZM12.1719 16.9219H10.1285C10.4231 14.4177 12.5585 12.4688 15.1406 12.4688H17.184C16.8894 14.9729 14.754 16.9219 12.1719 16.9219Z" fill="#C4456F"/>
<path d="M6.27979 9.75117C6.39209 10.4189 6.71063 11.0347 7.19072 11.5121L7.36465 11.686H7.61057C8.28766 11.6879 8.94834 11.4777 9.49989 11.085C10.0514 11.4778 10.7121 11.688 11.3892 11.6862H11.6351L11.8091 11.5123C12.2891 11.0348 12.6077 10.419 12.72 9.75132C13.3877 9.63902 14.0035 9.32047 14.4809 8.84039L14.6548 8.66646V8.42054C14.6567 7.7434 14.4466 7.08266 14.0538 6.53107C14.4466 5.97954 14.6568 5.31886 14.655 4.64176V4.39584L14.4811 4.22191C14.0036 3.74182 13.3878 3.42328 12.7201 3.31098C12.6078 2.64328 12.2893 2.02749 11.8092 1.55003L11.6353 1.37614H11.3893C10.7122 1.37422 10.0515 1.5844 9.49989 1.97716C8.94836 1.58437 8.28767 1.37415 7.61057 1.37599H7.36465L7.19072 1.54988C6.71063 2.02734 6.39209 2.64313 6.27979 3.31083C5.61209 3.42313 4.9963 3.74167 4.51884 4.22176L4.34495 4.39569V4.64161C4.34304 5.31875 4.55321 5.97948 4.94597 6.53107C4.55318 7.0826 4.34296 7.74329 4.3448 8.42039V8.66631L4.51869 8.84024C4.99619 9.32035 5.61203 9.6389 6.27979 9.75117ZM6.14115 6.11126C5.81186 5.78394 5.60265 5.35507 5.5474 4.89407C5.91243 4.60704 6.36365 4.45162 6.82801 4.45295H7.42176V3.8592C7.42042 3.39489 7.57581 2.94372 7.86277 2.5787C8.32377 2.63395 8.75264 2.84315 9.07996 3.17245L9.49989 3.59201L9.9197 3.17219C10.247 2.8429 10.6759 2.63369 11.1369 2.57844C11.4239 2.94351 11.5794 3.39479 11.578 3.8592V4.45295H12.1718C12.6361 4.45161 13.0872 4.607 13.4523 4.89396C13.397 5.35496 13.1878 5.78383 12.8585 6.11115L12.4389 6.53107L12.8588 6.95093C13.1881 7.27825 13.3973 7.70712 13.4526 8.16812C13.0875 8.45517 12.6362 8.61058 12.1718 8.6092H11.578V9.20295C11.5793 9.66726 11.424 10.1184 11.137 10.4834C10.676 10.4282 10.2471 10.219 9.91982 9.8897L9.49989 9.47014L9.08003 9.88984C8.75271 10.2191 8.32384 10.4283 7.86284 10.4836C7.57582 10.1185 7.42041 9.66732 7.42176 9.20295V8.6092H6.82801C6.3637 8.61054 5.91253 8.45515 5.54751 8.16819C5.60276 7.70719 5.81197 7.27832 6.14126 6.951L6.56082 6.53107L6.14115 6.11126Z" fill="#C4456F"/>
</svg>
