<svg width="27" height="27" viewBox="0 0 27 27" fill="none" xmlns="http://www.w3.org/2000/svg">
<path fill-rule="evenodd" clip-rule="evenodd" d="M26.4166 13.5002C26.4166 20.634 20.6338 26.4168 13.4999 26.4168C6.36604 26.4168 0.583252 20.634 0.583252 13.5002C0.583252 6.36629 6.36604 0.583496 13.4999 0.583496C20.6338 0.583496 26.4166 6.36629 26.4166 13.5002ZM8.47663 18.5235C8.35555 18.4023 8.28754 18.2381 8.28754 18.0669C8.28754 17.8956 8.35555 17.7314 8.47663 17.6102L12.5867 13.5002L8.47663 9.39008C8.35898 9.26827 8.29389 9.10513 8.29536 8.9358C8.29683 8.76646 8.36475 8.60448 8.4845 8.48474C8.60424 8.365 8.76622 8.29707 8.93556 8.2956C9.10489 8.29413 9.26803 8.35923 9.38984 8.47687L13.4999 12.587L17.61 8.47687C17.7318 8.35923 17.8949 8.29413 18.0643 8.2956C18.2336 8.29707 18.3956 8.365 18.5153 8.48474C18.6351 8.60448 18.703 8.76646 18.7045 8.9358C18.706 9.10513 18.6409 9.26827 18.5232 9.39008L14.4131 13.5002L18.5232 17.6102C18.6409 17.7321 18.706 17.8952 18.7045 18.0645C18.703 18.2339 18.6351 18.3958 18.5153 18.5156C18.3956 18.6353 18.2336 18.7033 18.0643 18.7047C17.8949 18.7062 17.7318 18.6411 17.61 18.5235L13.4999 14.4134L9.38984 18.5235C9.26872 18.6445 9.10448 18.7125 8.93323 18.7125C8.76198 18.7125 8.59774 18.6445 8.47663 18.5235Z" fill="#E0DFDF"/>
</svg>
