<svg width="25" height="24" viewBox="0 0 25 24" fill="none" xmlns="http://www.w3.org/2000/svg">
<g clip-path="url(#clip0_2544_9803)">
<path d="M24.5147 11.7574C24.5147 5.26399 19.2507 0 12.7574 0C6.26399 0 1 5.2639 1 11.7574C1 17.6257 5.29952 22.4899 10.9203 23.3719V15.156H7.935V11.7574H10.9203V9.16706C10.9203 6.22038 12.6756 4.59272 15.3612 4.59272C16.6476 4.59272 17.9931 4.82235 17.9931 4.82235V7.71577H16.5105C15.0499 7.71577 14.5944 8.62209 14.5944 9.55193V11.7574H17.8553L17.334 15.156H14.5944V23.3719C20.2152 22.4899 24.5147 17.6258 24.5147 11.7574Z" fill="#1877F2"/>
<path d="M16.8782 15.156L17.3995 11.7574H14.1387V9.55199C14.1387 8.62206 14.5942 7.71582 16.0548 7.71582H17.5373V4.82241C17.5373 4.82241 16.1918 4.59277 14.9054 4.59277C12.2199 4.59277 10.4645 6.22043 10.4645 9.16712V11.7574H7.47925V15.156H10.4645V23.3719C11.0722 23.4672 11.6865 23.5149 12.3016 23.5148C12.9167 23.515 13.531 23.4672 14.1387 23.3719V15.156H16.8782Z" fill="white"/>
</g>
<defs>
<clipPath id="clip0_2544_9803">
<rect width="23.5147" height="23.5147" fill="white" transform="translate(0.544189)"/>
</clipPath>
</defs>
</svg>
