<svg width="11" height="10" viewBox="0 0 11 10" fill="none" xmlns="http://www.w3.org/2000/svg">
<g clip-path="url(#clip0_2545_12908)">
<path d="M2.83164 0.840332C2.91095 0.840332 2.98701 0.871837 3.04309 0.927917C3.09917 0.983997 3.13068 1.06006 3.13068 1.13937V2.93357C3.13058 3.11917 3.18805 3.30023 3.29516 3.4518C3.40228 3.60336 3.55376 3.71798 3.72875 3.77984V1.13937C3.72875 1.06006 3.76025 0.983997 3.81633 0.927917C3.87241 0.871837 3.94847 0.840332 4.02778 0.840332C4.10709 0.840332 4.18315 0.871837 4.23923 0.927917C4.29531 0.983997 4.32682 1.06006 4.32682 1.13937V3.77984C4.5018 3.71798 4.65328 3.60336 4.7604 3.4518C4.86751 3.30023 4.92498 3.11917 4.92488 2.93357V1.13937C4.92488 1.06006 4.95639 0.983997 5.01247 0.927917C5.06855 0.871837 5.14461 0.840332 5.22392 0.840332C5.30323 0.840332 5.37929 0.871837 5.43537 0.927917C5.49145 0.983997 5.52295 1.06006 5.52295 1.13937V2.93357C5.52302 3.27826 5.404 3.61238 5.18603 3.87939C4.96806 4.1464 4.66453 4.32991 4.32682 4.39884V8.91427C4.32682 8.99357 4.29531 9.06964 4.23923 9.12572C4.18315 9.1818 4.10709 9.2133 4.02778 9.2133C3.94847 9.2133 3.87241 9.1818 3.81633 9.12572C3.76025 9.06964 3.72875 8.99357 3.72875 8.91427V4.39884C3.39103 4.32991 3.0875 4.1464 2.86953 3.87939C2.65156 3.61238 2.53254 3.27826 2.53261 2.93357V1.13937C2.53261 1.06006 2.56411 0.983997 2.62019 0.927917C2.67627 0.871837 2.75233 0.840332 2.83164 0.840332ZM7.00557 1.72488C7.10066 1.62919 7.20771 1.55562 7.31716 1.50718V4.42875H6.71909V2.3355C6.71909 2.13396 6.82316 1.90669 7.00557 1.72488ZM7.31716 5.02682V8.91427C7.31716 8.99357 7.34867 9.06964 7.40475 9.12572C7.46083 9.1818 7.53689 9.2133 7.6162 9.2133C7.6955 9.2133 7.77156 9.1818 7.82764 9.12572C7.88372 9.06964 7.91523 8.99357 7.91523 8.91427V1.13937C7.91523 1.06006 7.88372 0.983997 7.82764 0.927917C7.77156 0.871837 7.6955 0.840332 7.6162 0.840332C7.21968 0.840332 6.84887 1.0353 6.58213 1.30144C6.31599 1.56818 6.12102 1.93898 6.12102 2.3355V4.72778C6.12102 4.80709 6.15253 4.88315 6.20861 4.93923C6.26469 4.99531 6.34075 5.02682 6.42006 5.02682H7.31716Z" fill="#636363"/>
</g>
<defs>
<clipPath id="clip0_2545_12908">
<rect width="9.56911" height="9.56911" fill="white" transform="translate(0.739258 0.242676)"/>
</clipPath>
</defs>
</svg>
