<svg width="14" height="14" viewBox="0 0 14 14" fill="none" xmlns="http://www.w3.org/2000/svg">
<path d="M8.03925 9.12742C8.31735 9.12742 8.58405 9.23789 8.7807 9.43453C8.97734 9.63118 9.08782 9.89788 9.08782 10.176V10.876L9.08409 10.9263C8.93962 11.9175 8.04951 12.3938 6.55589 12.3938C5.06786 12.3938 4.1633 11.9231 3.96803 10.9435L3.96151 10.875V10.176C3.96151 9.89788 4.07198 9.63118 4.26863 9.43453C4.46527 9.23789 4.73198 9.12742 5.01007 9.12742H8.03925ZM8.03925 9.82646H5.01007C4.91737 9.82646 4.82847 9.86328 4.76292 9.92883C4.69738 9.99438 4.66055 10.0833 4.66055 10.176V10.8377C4.79104 11.397 5.38289 11.6948 6.55589 11.6948C7.72841 11.6948 8.29417 11.4007 8.38877 10.8485V10.176C8.38877 10.0833 8.35195 9.99438 8.2864 9.92883C8.22085 9.86328 8.13195 9.82646 8.03925 9.82646ZM8.50248 6.33078L11.0684 6.33125C11.3465 6.33125 11.6132 6.44172 11.8099 6.63837C12.0065 6.83501 12.117 7.10172 12.117 7.37981V8.07979L12.1133 8.13012C11.9688 9.12136 11.0787 9.59764 9.58507 9.59764L9.43827 9.59624C9.30066 9.26451 9.04981 8.99236 8.73037 8.82823C8.97038 8.87483 9.25465 8.8986 9.58507 8.8986C10.7576 8.8986 11.3234 8.60453 11.418 8.05229V7.37981C11.418 7.28711 11.3811 7.19821 11.3156 7.13266C11.25 7.06712 11.1611 7.03029 11.0684 7.03029H8.62179C8.62179 6.78516 8.57984 6.54935 8.50248 6.33078ZM1.98089 6.33125L4.54684 6.33078C4.48103 6.51695 4.44196 6.71152 4.4308 6.90866L4.42754 7.03029H1.98089C1.88819 7.03029 1.79929 7.06712 1.73374 7.13266C1.66819 7.19821 1.63137 7.28711 1.63137 7.37981V8.04157C1.76186 8.60081 2.35371 8.8986 3.5267 8.8986C3.81657 8.8986 4.06916 8.88042 4.28726 8.845C3.98223 9.01076 3.74323 9.27608 3.61012 9.59671L3.52624 9.59764C2.03868 9.59764 1.13412 9.12695 0.938852 8.14736L0.932327 8.07886V7.37981C0.932327 7.10172 1.0428 6.83501 1.23944 6.63837C1.43609 6.44172 1.70279 6.33125 1.98089 6.33125ZM6.52466 5.39919C6.95726 5.39919 7.37213 5.57104 7.67802 5.87693C7.98391 6.18282 8.15576 6.5977 8.15576 7.03029C8.15576 7.46289 7.98391 7.87776 7.67802 8.18365C7.37213 8.48954 6.95726 8.66139 6.52466 8.66139C6.09207 8.66139 5.67719 8.48954 5.3713 8.18365C5.06541 7.87776 4.89356 7.46289 4.89356 7.03029C4.89356 6.5977 5.06541 6.18282 5.3713 5.87693C5.67719 5.57104 6.09207 5.39919 6.52466 5.39919ZM6.52466 6.09824C6.27747 6.09824 6.04039 6.19644 5.8656 6.37123C5.6908 6.54602 5.59261 6.7831 5.59261 7.03029C5.59261 7.27749 5.6908 7.51456 5.8656 7.68935C6.04039 7.86415 6.27747 7.96235 6.52466 7.96235C6.77186 7.96235 7.00893 7.86415 7.18372 7.68935C7.35852 7.51456 7.45672 7.27749 7.45672 7.03029C7.45672 6.7831 7.35852 6.54602 7.18372 6.37123C7.00893 6.19644 6.77186 6.09824 6.52466 6.09824ZM9.55384 2.60303C9.98644 2.60303 10.4013 2.77487 10.7072 3.08076C11.0131 3.38665 11.1849 3.80153 11.1849 4.23412C11.1849 4.66672 11.0131 5.08159 10.7072 5.38749C10.4013 5.69338 9.98644 5.86522 9.55384 5.86522C9.12125 5.86522 8.70637 5.69338 8.40048 5.38749C8.09459 5.08159 7.92275 4.66672 7.92275 4.23412C7.92275 3.80153 8.09459 3.38665 8.40048 3.08076C8.70637 2.77487 9.12125 2.60303 9.55384 2.60303ZM3.49548 2.60303C3.92807 2.60303 4.34295 2.77487 4.64884 3.08076C4.95473 3.38665 5.12658 3.80153 5.12658 4.23412C5.12658 4.66672 4.95473 5.08159 4.64884 5.38749C4.34295 5.69338 3.92807 5.86522 3.49548 5.86522C3.06289 5.86522 2.64801 5.69338 2.34212 5.38749C2.03623 5.08159 1.86438 4.66672 1.86438 4.23412C1.86438 3.80153 2.03623 3.38665 2.34212 3.08076C2.64801 2.77487 3.06289 2.60303 3.49548 2.60303ZM9.55384 3.30207C9.30665 3.30207 9.06957 3.40027 8.89478 3.57506C8.71999 3.74986 8.62179 3.98693 8.62179 4.23412C8.62179 4.48132 8.71999 4.71839 8.89478 4.89319C9.06957 5.06798 9.30665 5.16618 9.55384 5.16618C9.80104 5.16618 10.0381 5.06798 10.2129 4.89319C10.3877 4.71839 10.4859 4.48132 10.4859 4.23412C10.4859 3.98693 10.3877 3.74986 10.2129 3.57506C10.0381 3.40027 9.80104 3.30207 9.55384 3.30207ZM3.49548 3.30207C3.24828 3.30207 3.01121 3.40027 2.83642 3.57506C2.66162 3.74986 2.56342 3.98693 2.56342 4.23412C2.56342 4.48132 2.66162 4.71839 2.83642 4.89319C3.01121 5.06798 3.24828 5.16618 3.49548 5.16618C3.74268 5.16618 3.97975 5.06798 4.15454 4.89319C4.32934 4.71839 4.42754 4.48132 4.42754 4.23412C4.42754 3.98693 4.32934 3.74986 4.15454 3.57506C3.97975 3.40027 3.74268 3.30207 3.49548 3.30207Z" fill="#636363"/>
</svg>
