<svg width="24" height="24" viewBox="0 0 24 24" fill="none" xmlns="http://www.w3.org/2000/svg">
<g clip-path="url(#clip0_2544_9787)">
<path d="M18.0035 0H5.51126C2.46748 0 0 2.46748 0 5.51126V18.0035C0 21.0472 2.46748 23.5147 5.51126 23.5147H18.0035C21.0472 23.5147 23.5147 21.0472 23.5147 18.0035V5.51126C23.5147 2.46748 21.0472 0 18.0035 0Z" fill="url(#paint0_radial_2544_9787)"/>
<path d="M18.0035 0H5.51126C2.46748 0 0 2.46748 0 5.51126V18.0035C0 21.0472 2.46748 23.5147 5.51126 23.5147H18.0035C21.0472 23.5147 23.5147 21.0472 23.5147 18.0035V5.51126C23.5147 2.46748 21.0472 0 18.0035 0Z" fill="url(#paint1_radial_2544_9787)"/>
<path d="M11.8037 5.60303C10.1199 5.60303 9.90851 5.61041 9.2472 5.64048C8.58714 5.67073 8.13658 5.7752 7.74237 5.92853C7.33453 6.08688 6.98863 6.29874 6.64403 6.64347C6.29911 6.98813 6.08726 7.33404 5.92841 7.74169C5.77465 8.13602 5.67005 8.58677 5.64035 9.24652C5.61078 9.90789 5.60303 10.1193 5.60303 11.8032C5.60303 13.4871 5.61047 13.6978 5.64048 14.3591C5.67086 15.0191 5.77533 15.4697 5.92853 15.8639C6.08701 16.2717 6.29887 16.6176 6.64359 16.9622C6.98813 17.3072 7.33404 17.5195 7.74157 17.6779C8.13608 17.8312 8.5867 17.9357 9.24664 17.9659C9.90801 17.996 10.1192 18.0034 11.8029 18.0034C13.487 18.0034 13.6976 17.996 14.3589 17.9659C15.019 17.9357 15.4701 17.8312 15.8646 17.6779C16.2722 17.5195 16.6176 17.3072 16.9621 16.9622C17.307 16.6176 17.5188 16.2717 17.6777 15.8641C17.8301 15.4697 17.9348 15.019 17.9658 14.3592C17.9955 13.6979 18.0032 13.4871 18.0032 11.8032C18.0032 10.1193 17.9955 9.90801 17.9658 9.24664C17.9348 8.58658 17.8301 8.13608 17.6777 7.74188C17.5188 7.33404 17.307 6.98813 16.9621 6.64347C16.6173 6.29862 16.2724 6.08676 15.8642 5.92859C15.4689 5.7752 15.0181 5.67067 14.3581 5.64048C13.6967 5.61041 13.4862 5.60303 11.8018 5.60303H11.8037ZM11.2475 6.72035C11.4126 6.7201 11.5968 6.72035 11.8037 6.72035C13.4592 6.72035 13.6554 6.7263 14.3091 6.756C14.9136 6.78365 15.2417 6.88465 15.4603 6.96953C15.7496 7.08188 15.9559 7.21623 16.1728 7.4333C16.3898 7.6503 16.5241 7.85695 16.6367 8.14631C16.7216 8.36455 16.8227 8.69266 16.8503 9.29718C16.88 9.95079 16.8864 10.1471 16.8864 11.8018C16.8864 13.4565 16.88 13.6528 16.8503 14.3064C16.8226 14.9109 16.7216 15.239 16.6367 15.4573C16.5244 15.7467 16.3898 15.9527 16.1728 16.1696C15.9558 16.3866 15.7498 16.5209 15.4603 16.6333C15.242 16.7185 14.9136 16.8193 14.3091 16.8469C13.6555 16.8766 13.4592 16.8831 11.8037 16.8831C10.1481 16.8831 9.95191 16.8766 9.29835 16.8469C8.69384 16.819 8.36573 16.718 8.14699 16.6331C7.8577 16.5207 7.65098 16.3864 7.43398 16.1694C7.21698 15.9524 7.08268 15.7463 6.97003 15.4568C6.88515 15.2385 6.78402 14.9104 6.7565 14.3059C6.7268 13.6523 6.72084 13.456 6.72084 11.8002C6.72084 10.1445 6.7268 9.94924 6.7565 9.29563C6.78415 8.69111 6.88515 8.363 6.97003 8.14445C7.08244 7.85509 7.21698 7.64844 7.43404 7.43144C7.65105 7.21444 7.8577 7.08008 8.14706 6.96748C8.36561 6.88223 8.69384 6.78148 9.29835 6.75371C9.87031 6.72785 10.092 6.7201 11.2475 6.7188V6.72035ZM15.1133 7.74981C14.7026 7.74981 14.3693 8.08276 14.3693 8.49358C14.3693 8.90434 14.7026 9.23759 15.1133 9.23759C15.5241 9.23759 15.8573 8.90434 15.8573 8.49358C15.8573 8.08282 15.5241 7.74957 15.1133 7.74957V7.74981ZM11.8037 8.61913C10.0453 8.61913 8.61969 10.0448 8.61969 11.8032C8.61969 13.5616 10.0453 14.9866 11.8037 14.9866C13.5621 14.9866 14.9873 13.5616 14.9873 11.8032C14.9873 10.0448 13.562 8.61913 11.8036 8.61913H11.8037ZM11.8037 9.73645C12.9451 9.73645 13.8704 10.6617 13.8704 11.8032C13.8704 12.9446 12.9451 13.8699 11.8037 13.8699C10.6623 13.8699 9.73701 12.9446 9.73701 11.8032C9.73701 10.6617 10.6623 9.73645 11.8037 9.73645Z" fill="white"/>
</g>
<defs>
<radialGradient id="paint0_radial_2544_9787" cx="0" cy="0" r="1" gradientUnits="userSpaceOnUse" gradientTransform="translate(6.2461 25.3258) rotate(-90) scale(23.3048 21.6753)">
<stop stop-color="#FFDD55"/>
<stop offset="0.1" stop-color="#FFDD55"/>
<stop offset="0.5" stop-color="#FF543E"/>
<stop offset="1" stop-color="#C837AB"/>
</radialGradient>
<radialGradient id="paint1_radial_2544_9787" cx="0" cy="0" r="1" gradientUnits="userSpaceOnUse" gradientTransform="translate(-3.93881 1.69389) rotate(78.681) scale(10.4174 42.9408)">
<stop stop-color="#3771C8"/>
<stop offset="0.128" stop-color="#3771C8"/>
<stop offset="1" stop-color="#6600FF" stop-opacity="0"/>
</radialGradient>
<clipPath id="clip0_2544_9787">
<rect width="23.5147" height="23.5147" rx="11.1144" fill="white"/>
</clipPath>
</defs>
</svg>
