<svg width="14" height="13" viewBox="0 0 14 13" fill="none" xmlns="http://www.w3.org/2000/svg">
<path d="M3.9856 1.96143L3.92585 2.25867C3.92585 2.25867 3.53346 4.0501 3.53346 5.00614C3.53346 6.76332 4.87161 8.21451 6.57818 8.40785V9.9538H4.67523V10.715H9.2423V9.9538H7.33936V8.40747C9.04592 8.21451 10.3841 6.76332 10.3841 5.00614C10.3841 4.04858 9.99168 2.25867 9.99168 2.25867L9.93193 1.96143H3.9856ZM4.61586 2.7226H9.30168C9.33745 2.90833 9.42803 3.37684 9.50415 3.86437H5.05582V4.62555H9.5993C9.61071 4.758 9.62289 4.90072 9.62289 5.00614C9.62289 6.48245 8.43507 7.67027 6.95877 7.67027C5.48246 7.67027 4.29464 6.48245 4.29464 5.00614C4.29464 4.36371 4.54887 3.06742 4.61586 2.7226Z" fill="#636363"/>
</svg>
