<svg width="10" height="10" viewBox="0 0 10 10" fill="none" xmlns="http://www.w3.org/2000/svg">
<g clip-path="url(#clip0_2544_7526)">
<path d="M8.01128 4.37502C8.01128 7.04599 4.57717 9.3354 4.57717 9.3354C4.57717 9.3354 1.14307 7.04599 1.14307 4.37502C1.14307 3.46424 1.50487 2.59076 2.14889 1.94674C2.79291 1.30272 3.66639 0.940918 4.57717 0.940918C5.48795 0.940918 6.36143 1.30272 7.00545 1.94674C7.64947 2.59076 8.01128 3.46424 8.01128 4.37502Z" stroke="black" stroke-width="0.763135" stroke-linecap="round" stroke-linejoin="round"/>
<path d="M4.57732 5.52036C5.20952 5.52036 5.72202 5.00786 5.72202 4.37566C5.72202 3.74346 5.20952 3.23096 4.57732 3.23096C3.94512 3.23096 3.43262 3.74346 3.43262 4.37566C3.43262 5.00786 3.94512 5.52036 4.57732 5.52036Z" stroke="black" stroke-width="0.763135" stroke-linecap="round" stroke-linejoin="round"/>
</g>
<defs>
<clipPath id="clip0_2544_7526">
<rect width="9.15762" height="9.15762" fill="white" transform="translate(0 0.557617)"/>
</clipPath>
</defs>
</svg>
