<svg width="37" height="36" viewBox="0 0 37 36" fill="none" xmlns="http://www.w3.org/2000/svg">
<path d="M25.2299 21.175V22.979C25.2306 23.1465 25.1963 23.3123 25.1292 23.4658C25.0621 23.6192 24.9637 23.757 24.8403 23.8702C24.7169 23.9834 24.5712 24.0696 24.4125 24.1233C24.2539 24.1769 24.0858 24.1968 23.919 24.1818C22.0685 23.9807 20.291 23.3484 18.7292 22.3356C17.2762 21.4123 16.0444 20.1804 15.1211 18.7274C14.1048 17.1586 13.4723 15.3725 13.2749 13.5137C13.2599 13.3474 13.2796 13.1798 13.3329 13.0215C13.3862 12.8633 13.4719 12.7179 13.5845 12.5946C13.697 12.4712 13.834 12.3727 13.9868 12.3052C14.1395 12.2378 14.3046 12.2029 14.4716 12.2027H16.2757C16.5675 12.1998 16.8505 12.3032 17.0717 12.4935C17.293 12.6838 17.4376 12.948 17.4784 13.237C17.5545 13.8144 17.6958 14.3813 17.8994 14.9269C17.9803 15.1421 17.9978 15.376 17.9498 15.6009C17.9018 15.8258 17.7904 16.0322 17.6287 16.1957L16.865 16.9594C17.7211 18.465 18.9676 19.7115 20.4732 20.5676L21.2369 19.8039C21.4004 19.6422 21.6068 19.5308 21.8317 19.4828C22.0566 19.4348 22.2905 19.4524 22.5058 19.5333C23.0514 19.7369 23.6182 19.8781 24.1956 19.9542C24.4877 19.9954 24.7545 20.1426 24.9452 20.3676C25.1359 20.5927 25.2372 20.8801 25.2299 21.175Z" stroke="black" stroke-linecap="round" stroke-linejoin="round"/>
<rect x="0.196623" y="0.196623" width="36.6068" height="35.6068" rx="3.73584" stroke="#A9A9A9" stroke-width="0.393246"/>
</svg>
