<svg width="24" height="24" viewBox="0 0 24 24" fill="none" xmlns="http://www.w3.org/2000/svg">
<rect x="0.0588379" width="23.5147" height="23.5147" rx="11.1144" fill="#EDF1F5"/>
<path d="M14.1381 10.3148C14.8644 10.3148 15.4532 9.72597 15.4532 8.99967C15.4532 8.27336 14.8644 7.68457 14.1381 7.68457C13.4118 7.68457 12.823 8.27336 12.823 8.99967C12.823 9.72597 13.4118 10.3148 14.1381 10.3148Z" stroke="#333333" stroke-width="0.876731" stroke-linecap="round" stroke-linejoin="round"/>
<path d="M8.87772 13.3831C9.60403 13.3831 10.1928 12.7943 10.1928 12.068C10.1928 11.3417 9.60403 10.7529 8.87772 10.7529C8.15141 10.7529 7.56262 11.3417 7.56262 12.068C7.56262 12.7943 8.15141 13.3831 8.87772 13.3831Z" stroke="#333333" stroke-width="0.876731" stroke-linecap="round" stroke-linejoin="round"/>
<path d="M14.1381 16.4515C14.8644 16.4515 15.4532 15.8627 15.4532 15.1364C15.4532 14.4101 14.8644 13.8213 14.1381 13.8213C13.4118 13.8213 12.823 14.4101 12.823 15.1364C12.823 15.8627 13.4118 16.4515 14.1381 16.4515Z" stroke="#333333" stroke-width="0.876731" stroke-linecap="round" stroke-linejoin="round"/>
<path d="M10.0131 12.73L13.0071 14.4747" stroke="#333333" stroke-width="0.876731" stroke-linecap="round" stroke-linejoin="round"/>
<path d="M13.0027 9.66162L10.0131 11.4063" stroke="#333333" stroke-width="0.876731" stroke-linecap="round" stroke-linejoin="round"/>
</svg>
