<svg width="24" height="24" viewBox="0 0 24 24" fill="none" xmlns="http://www.w3.org/2000/svg">
<path d="M18.0329 0H5.54068C2.49689 0 0.0294189 2.46748 0.0294189 5.51126V18.0035C0.0294189 21.0472 2.49689 23.5147 5.54068 23.5147H18.0329C21.0767 23.5147 23.5441 21.0472 23.5441 18.0035V5.51126C23.5441 2.46748 21.0767 0 18.0329 0Z" fill="#FBD652"/>
<path d="M18.0329 0H5.54068C2.49689 0 0.0294189 2.46748 0.0294189 5.51126V18.0035C0.0294189 21.0472 2.49689 23.5147 5.54068 23.5147H18.0329C21.0767 23.5147 23.5441 21.0472 23.5441 18.0035V5.51126C23.5441 2.46748 21.0767 0 18.0329 0Z" fill="#FBD652"/>
</svg>
