<svg width="25" height="24" viewBox="0 0 25 24" fill="none" xmlns="http://www.w3.org/2000/svg">
<g clip-path="url(#clip0_2544_9792)">
<path d="M18.5182 0H6.02603C2.98225 0 0.514771 2.46748 0.514771 5.51126V18.0035C0.514771 21.0472 2.98225 23.5147 6.02603 23.5147H18.5182C21.562 23.5147 24.0295 21.0472 24.0295 18.0035V5.51126C24.0295 2.46748 21.562 0 18.5182 0Z" fill="#1D9BF0"/>
<path d="M18.5182 0H6.02603C2.98225 0 0.514771 2.46748 0.514771 5.51126V18.0035C0.514771 21.0472 2.98225 23.5147 6.02603 23.5147H18.5182C21.562 23.5147 24.0295 21.0472 24.0295 18.0035V5.51126C24.0295 2.46748 21.562 0 18.5182 0Z" fill="#1D9BF0"/>
<path d="M15.8738 10.2251C15.8806 10.3221 15.8806 10.4191 15.8806 10.517C15.8806 13.499 13.6104 16.9382 9.45932 16.9382V16.9364C8.23301 16.9382 7.03211 16.587 6 15.9247C6.17832 15.9462 6.3575 15.9568 6.53717 15.9573C7.55354 15.9581 8.54068 15.6172 9.33997 14.9893C8.86904 14.9804 8.41267 14.8246 8.03466 14.5436C7.65664 14.2626 7.37589 13.8705 7.23163 13.4221C7.56975 13.4873 7.91831 13.474 8.25048 13.3833C7.19766 13.1705 6.44018 12.2455 6.44018 11.1712V11.1426C6.75404 11.3174 7.1053 11.4143 7.46441 11.425C6.47282 10.7623 6.16714 9.44308 6.76591 8.41164C7.33248 9.10886 8.0394 9.67909 8.84072 10.0853C9.64204 10.4915 10.5199 10.7246 11.4171 10.7694C11.3277 10.3843 11.3409 9.98249 11.4555 9.60411C11.57 9.22572 11.7819 8.88404 12.07 8.61325C12.9789 7.75879 14.4085 7.80261 15.263 8.71109C15.7684 8.61131 16.253 8.42603 16.6961 8.16323C16.5276 8.68576 16.1751 9.12931 15.704 9.41136C16.1514 9.35865 16.5883 9.2389 17 9.05612C16.6971 9.50968 16.3158 9.90551 15.8738 10.2251Z" fill="white"/>
</g>
<defs>
<clipPath id="clip0_2544_9792">
<rect x="0.514771" width="23.5147" height="23.5147" rx="11.1144" fill="white"/>
</clipPath>
</defs>
</svg>
