<svg width="22" height="23" viewBox="0 0 22 23" fill="none" xmlns="http://www.w3.org/2000/svg">
<path d="M10.0885 13.5313L6.66044 10.6078L6.27123 10.2759L5.94826 10.6726L5.00959 11.8255L4.70106 12.2044L5.07284 12.5216L10.0478 16.7654L10.8723 17.4687V16.5557L17.0993 8.58802L17.4003 8.20292L17.0221 7.89327L15.8781 6.95654L15.4824 6.63255L15.1674 7.03542L10.0885 13.5313ZM0.5 11.5647C0.5 8.70758 1.609 5.96975 3.57947 3.95293C5.54954 1.9365 8.21903 0.805878 11 0.805878C13.781 0.805878 16.4505 1.9365 18.4205 3.95293C20.391 5.96975 21.5 8.70758 21.5 11.5647C21.5 14.4218 20.391 17.1596 18.4205 19.1765C16.4505 21.1929 13.781 22.3235 11 22.3235C8.21903 22.3235 5.54954 21.1929 3.57947 19.1765C1.609 17.1596 0.5 14.4218 0.5 11.5647Z" fill="#2FA706" stroke="#2FA706"/>
</svg>
