<svg xmlns="http://www.w3.org/2000/svg" width="30" viewBox="0 0 30 30" height="30" version="1.0"><defs><clipPath id="a"><path d="M 4.035156 11 L 25.808594 11 L 25.808594 21 L 4.035156 21 Z M 4.035156 11"/></clipPath><clipPath id="b"><path d="M 6 4.292969 L 18 4.292969 L 18 15 L 6 15 Z M 6 4.292969"/></clipPath><clipPath id="c"><path d="M 5 4.292969 L 18 4.292969 L 18 15 L 5 15 Z M 5 4.292969"/></clipPath><clipPath id="d"><path d="M 4.035156 10 L 11 10 L 11 21 L 4.035156 21 Z M 4.035156 10"/></clipPath><clipPath id="e"><path d="M 19 12 L 25.808594 12 L 25.808594 19 L 19 19 Z M 19 12"/></clipPath><clipPath id="f"><path d="M 7 20 L 12 20 L 12 24.613281 L 7 24.613281 Z M 7 20"/></clipPath><clipPath id="g"><path d="M 4.035156 10 L 12 10 L 12 21 L 4.035156 21 Z M 4.035156 10"/></clipPath><clipPath id="h"><path d="M 18 12 L 25.808594 12 L 25.808594 19 L 18 19 Z M 18 12"/></clipPath><clipPath id="i"><path d="M 6 20 L 12 20 L 12 24.613281 L 6 24.613281 Z M 6 20"/></clipPath></defs><g clip-path="url(#a)"><path fill="#C4456F" d="M 19.089844 12.226562 L 19.023438 11.875 C 19.332031 11.816406 19.65625 11.789062 20.023438 11.789062 C 20.1875 11.789062 20.367188 11.796875 20.550781 11.808594 L 20.527344 12.164062 C 20.351562 12.152344 20.183594 12.148438 20.023438 12.148438 C 19.679688 12.148438 19.375 12.175781 19.089844 12.226562 Z M 23.449219 12.578125 C 22.96875 12.492188 22.457031 12.402344 21.988281 12.332031 L 22.042969 11.980469 C 22.515625 12.050781 23.027344 12.140625 23.511719 12.226562 Z M 25.535156 12.941406 C 25.320312 12.90625 25.113281 12.871094 24.914062 12.835938 L 24.976562 12.484375 C 25.175781 12.515625 25.382812 12.550781 25.59375 12.589844 Z M 16.699219 13.695312 L 16.4375 13.449219 C 16.835938 13.023438 17.214844 12.695312 17.59375 12.453125 L 17.785156 12.753906 C 17.433594 12.980469 17.078125 13.289062 16.699219 13.695312 Z M 14.898438 16.023438 L 14.605469 15.820312 C 14.929688 15.351562 15.21875 14.953125 15.480469 14.609375 L 15.765625 14.824219 C 15.503906 15.164062 15.222656 15.558594 14.898438 16.023438 Z M 13.074219 18.40625 L 12.820312 18.152344 C 13.148438 17.820312 13.46875 17.445312 13.765625 17.039062 L 14.054688 17.253906 C 13.746094 17.671875 13.417969 18.058594 13.074219 18.40625 Z M 10.613281 20.15625 L 10.464844 19.832031 C 10.898438 19.632812 11.320312 19.386719 11.71875 19.101562 L 11.925781 19.390625 C 11.507812 19.691406 11.066406 19.949219 10.613281 20.15625 Z M 6.15625 20.78125 C 5.257812 20.65625 4.695312 20.433594 4.671875 20.421875 L 4.804688 20.089844 C 4.808594 20.09375 5.355469 20.308594 6.207031 20.429688 Z M 7.671875 20.859375 L 7.65625 20.5 C 8.144531 20.480469 8.628906 20.414062 9.09375 20.304688 L 9.175781 20.652344 C 8.691406 20.765625 8.183594 20.835938 7.671875 20.859375"/></g><g clip-path="url(#b)"><path fill="#C4456F" d="M 11.683594 14.097656 C 17.738281 11.648438 17.265625 7.265625 17.265625 7.265625 C 17.265625 5.722656 16.015625 4.472656 14.476562 4.472656 C 12.933594 4.472656 11.683594 5.722656 11.683594 7.265625 C 11.683594 5.722656 10.4375 4.472656 8.894531 4.472656 C 7.351562 4.472656 6.101562 5.722656 6.101562 7.265625 C 6.101562 7.265625 5.632812 11.648438 11.683594 14.097656"/></g><g clip-path="url(#c)"><path fill="#C4456F" d="M 8.894531 4.648438 C 7.453125 4.648438 6.28125 5.820312 6.28125 7.265625 L 6.277344 7.285156 C 6.277344 7.292969 6.175781 8.363281 6.792969 9.707031 C 7.359375 10.941406 8.671875 12.667969 11.683594 13.90625 C 14.710938 12.664062 16.019531 10.929688 16.585938 9.6875 C 17.199219 8.347656 17.09375 7.292969 17.09375 7.285156 L 17.089844 7.265625 C 17.089844 5.820312 15.917969 4.648438 14.476562 4.648438 C 13.035156 4.648438 11.859375 5.820312 11.859375 7.265625 L 11.507812 7.265625 C 11.507812 5.820312 10.335938 4.648438 8.894531 4.648438 Z M 11.683594 14.285156 L 11.621094 14.257812 C 10.21875 13.691406 9.046875 12.972656 8.140625 12.125 C 7.40625 11.441406 6.84375 10.671875 6.464844 9.835938 C 5.839844 8.460938 5.917969 7.378906 5.929688 7.257812 C 5.933594 5.625 7.261719 4.296875 8.894531 4.296875 C 10.175781 4.296875 11.273438 5.117188 11.683594 6.257812 C 12.097656 5.117188 13.191406 4.296875 14.476562 4.296875 C 16.109375 4.296875 17.4375 5.625 17.441406 7.257812 C 17.453125 7.378906 17.53125 8.460938 16.90625 9.835938 C 16.527344 10.671875 15.960938 11.441406 15.230469 12.125 C 14.324219 12.972656 13.152344 13.691406 11.75 14.257812 L 11.683594 14.285156"/></g><path fill="#FFF" d="M 18.734375 11.433594 C 19.929688 11.15625 21.3125 11.34375 23.300781 11.6875 L 21.707031 6.839844 L 17.285156 6.894531 C 17.292969 6.957031 17.300781 7.023438 17.304688 7.085938 L 18.734375 11.433594"/><path fill="#FFF" d="M 13.65625 16.34375 C 13.957031 15.890625 14.242188 15.476562 14.511719 15.097656 L 13.828125 13.011719 C 13.277344 13.359375 12.640625 13.691406 11.898438 13.992188 L 11.730469 14.0625 L 11.5625 13.992188 C 10.648438 13.621094 9.890625 13.203125 9.261719 12.765625 L 11.253906 18.828125 C 12.144531 18.226562 12.949219 17.394531 13.65625 16.34375"/><g clip-path="url(#d)"><path fill="#FFF" d="M 8.015625 19.984375 C 9.042969 19.886719 9.992188 19.582031 10.863281 19.074219 L 8.632812 12.285156 C 7.933594 11.699219 7.433594 11.097656 7.082031 10.542969 L 4.246094 12.578125 L 6.679688 19.984375 C 7.078125 20.019531 7.53125 20.027344 8.015625 19.984375"/></g><path fill="#FFF" d="M 18.140625 11.617188 C 18.195312 11.597656 18.25 11.578125 18.304688 11.558594 L 17.242188 8.332031 C 17.171875 8.742188 17.039062 9.234375 16.792969 9.777344 C 16.398438 10.644531 15.644531 11.75 14.210938 12.753906 L 14.835938 14.648438 C 16.039062 13.003906 16.980469 12.070312 18.140625 11.617188"/><path fill="#FFF" d="M 14.769531 17.089844 C 13.804688 18.527344 12.734375 19.496094 11.683594 20.136719 L 12.15625 21.578125 L 16.621094 21.523438 L 15.035156 16.695312 C 14.949219 16.824219 14.859375 16.957031 14.769531 17.089844"/><g clip-path="url(#e)"><path fill="#FFF" d="M 19.15625 12.71875 L 21.097656 18.636719 L 25.5625 18.582031 L 23.773438 13.132812 C 21.574219 12.746094 20.203125 12.511719 19.15625 12.71875"/></g><g clip-path="url(#f)"><path fill="#FFF" d="M 8.074219 21.324219 C 7.820312 21.347656 7.570312 21.355469 7.332031 21.355469 C 7.261719 21.355469 7.195312 21.355469 7.128906 21.355469 L 8.101562 24.324219 L 11.730469 21.714844 L 11.285156 20.367188 C 10.125 20.992188 9 21.246094 8.074219 21.324219"/></g><path fill="#FFF" d="M 18.628906 12.867188 C 17.601562 13.269531 16.671875 14.332031 15.355469 16.234375 L 17.046875 21.382812 L 20.671875 18.777344 L 18.722656 12.835938 C 18.691406 12.84375 18.660156 12.855469 18.628906 12.867188"/><path fill="#C4456F" d="M 20.027344 11.121094 C 20.902344 11.121094 21.886719 11.265625 23.039062 11.460938 L 21.578125 7.019531 L 17.488281 7.070312 L 18.851562 11.226562 C 19.226562 11.152344 19.613281 11.121094 20.027344 11.121094 Z M 23.5625 11.914062 L 23.269531 11.863281 C 21.394531 11.539062 19.972656 11.332031 18.773438 11.609375 L 18.613281 11.648438 L 17.128906 7.121094 L 17.128906 7.097656 C 17.125 7.039062 17.117188 6.980469 17.109375 6.917969 L 17.082031 6.714844 L 21.835938 6.660156 L 23.5625 11.914062"/><path fill="#C4456F" d="M 9.59375 13.199219 L 11.347656 18.542969 C 12.144531 17.964844 12.867188 17.195312 13.507812 16.242188 C 13.808594 15.792969 14.074219 15.410156 14.3125 15.066406 L 13.726562 13.285156 C 13.191406 13.609375 12.597656 13.902344 11.964844 14.160156 L 11.730469 14.253906 L 11.496094 14.160156 C 10.804688 13.878906 10.167969 13.558594 9.59375 13.199219 Z M 11.15625 19.109375 L 8.925781 12.3125 L 9.363281 12.617188 C 10.023438 13.078125 10.785156 13.484375 11.628906 13.828125 L 11.730469 13.867188 L 11.832031 13.828125 C 12.523438 13.546875 13.160156 13.222656 13.730469 12.863281 L 13.925781 12.738281 L 14.710938 15.128906 L 14.65625 15.203125 C 14.40625 15.558594 14.125 15.964844 13.804688 16.441406 L 13.65625 16.34375 L 13.804688 16.441406 C 13.085938 17.507812 12.261719 18.363281 11.351562 18.976562 L 11.15625 19.109375"/><g clip-path="url(#g)"><path fill="#C4456F" d="M 6.8125 19.816406 C 7.210938 19.84375 7.609375 19.839844 8 19.804688 C 8.945312 19.714844 9.832031 19.441406 10.644531 18.988281 L 8.480469 12.390625 C 7.90625 11.90625 7.421875 11.371094 7.035156 10.796875 L 4.457031 12.648438 Z M 7.335938 20.191406 C 7.113281 20.191406 6.886719 20.183594 6.664062 20.164062 L 6.542969 20.152344 L 4.035156 12.511719 L 7.132812 10.285156 L 7.234375 10.445312 C 7.625 11.0625 8.132812 11.636719 8.75 12.148438 L 8.789062 12.179688 L 11.078125 19.15625 L 10.953125 19.226562 C 10.058594 19.75 9.078125 20.0625 8.035156 20.160156 C 7.804688 20.183594 7.570312 20.191406 7.335938 20.191406"/></g><path fill="#C4456F" d="M 14.421875 12.824219 L 14.894531 14.265625 C 16.097656 12.667969 17.007812 11.867188 18.074219 11.453125 C 18.078125 11.449219 18.078125 11.449219 18.078125 11.449219 L 17.273438 8.996094 C 17.191406 9.285156 17.085938 9.570312 16.957031 9.851562 C 16.597656 10.632812 15.871094 11.78125 14.421875 12.824219 Z M 14.773438 15.035156 L 14 12.683594 L 14.109375 12.609375 C 15.5625 11.589844 16.285156 10.464844 16.632812 9.703125 C 16.839844 9.246094 16.984375 8.777344 17.066406 8.300781 L 17.191406 7.597656 L 18.527344 11.671875 L 18.363281 11.726562 C 18.304688 11.75 18.25 11.765625 18.207031 11.785156 C 17.144531 12.199219 16.242188 13.03125 14.980469 14.753906 L 14.773438 15.035156"/><path fill="#C4456F" d="M 11.894531 20.214844 L 12.285156 21.398438 L 16.375 21.347656 L 14.980469 17.097656 C 14.960938 17.128906 14.9375 17.160156 14.917969 17.191406 C 14.058594 18.472656 13.039062 19.492188 11.894531 20.214844 Z M 12.027344 21.757812 L 11.46875 20.058594 L 11.589844 19.984375 C 12.738281 19.28125 13.757812 18.277344 14.621094 16.992188 C 14.710938 16.855469 14.800781 16.722656 14.886719 16.597656 L 15.09375 16.296875 L 16.867188 21.699219 L 12.027344 21.757812"/><g clip-path="url(#h)"><path fill="#C4456F" d="M 19.390625 12.859375 L 21.226562 18.457031 L 25.316406 18.40625 L 23.636719 13.292969 C 21.710938 12.953125 20.386719 12.722656 19.390625 12.859375 Z M 20.96875 18.816406 L 18.921875 12.582031 L 19.121094 12.542969 C 20.222656 12.324219 21.648438 12.578125 23.804688 12.957031 L 23.910156 12.976562 L 25.808594 18.757812 L 20.96875 18.816406"/></g><g clip-path="url(#i)"><path fill="#C4456F" d="M 7.375 21.535156 L 8.195312 24.035156 L 11.519531 21.648438 L 11.183594 20.621094 C 10.214844 21.113281 9.175781 21.410156 8.089844 21.503906 C 7.855469 21.523438 7.613281 21.535156 7.375 21.535156 Z M 8.007812 24.609375 L 6.878906 21.167969 L 7.132812 21.175781 C 7.207031 21.175781 7.273438 21.179688 7.332031 21.179688 C 7.574219 21.179688 7.820312 21.167969 8.0625 21.148438 C 9.167969 21.050781 10.222656 20.734375 11.203125 20.207031 L 11.390625 20.105469 L 11.941406 21.785156 L 8.007812 24.609375"/></g><path fill="#C4456F" d="M 15.550781 16.261719 L 17.140625 21.09375 L 20.460938 18.707031 L 18.609375 13.070312 C 17.625 13.492188 16.703125 14.609375 15.550781 16.261719 Z M 16.953125 21.671875 L 15.15625 16.203125 L 15.207031 16.128906 C 16.453125 14.335938 17.445312 13.136719 18.5625 12.703125 C 18.59375 12.691406 18.625 12.679688 18.664062 12.664062 L 18.835938 12.605469 L 20.882812 18.84375 L 16.953125 21.671875"/></svg>