<svg xmlns="http://www.w3.org/2000/svg" width="30" viewBox="0 0 30 30" height="30" version="1.0"><defs><clipPath id="a"><path d="M 3.386719 4.511719 L 26.613281 4.511719 L 26.613281 10 L 3.386719 10 Z M 3.386719 4.511719"/></clipPath><clipPath id="b"><path d="M 3.386719 7 L 6 7 L 6 11 L 3.386719 11 Z M 3.386719 7"/></clipPath><clipPath id="c"><path d="M 24 7 L 26.613281 7 L 26.613281 11 L 24 11 Z M 24 7"/></clipPath><clipPath id="d"><path d="M 4 7 L 6 7 L 6 24.835938 L 4 24.835938 Z M 4 7"/></clipPath><clipPath id="e"><path d="M 23 7 L 25 7 L 25 24.835938 L 23 24.835938 Z M 23 7"/></clipPath><clipPath id="f"><path d="M 3.386719 16 L 26 16 L 26 18 L 3.386719 18 Z M 3.386719 16"/></clipPath><clipPath id="g"><path d="M 4 18 L 25 18 L 25 24.835938 L 4 24.835938 Z M 4 18"/></clipPath></defs><g clip-path="url(#a)"><path fill="#C4456F" d="M 26.609375 9.039062 L 3.390625 9.039062 L 3.390625 6.8125 L 15 4.511719 L 26.609375 6.8125 L 26.609375 9.039062"/></g><g clip-path="url(#b)"><path fill="#C4456F" d="M 5.710938 8.953125 C 5.710938 9.605469 5.191406 10.132812 4.550781 10.132812 C 3.910156 10.132812 3.390625 9.605469 3.390625 8.953125 C 3.390625 8.300781 3.910156 7.773438 4.550781 7.773438 C 5.191406 7.773438 5.710938 8.300781 5.710938 8.953125"/></g><path fill="#C4456F" d="M 8.035156 8.953125 C 8.035156 9.605469 7.515625 10.132812 6.871094 10.132812 C 6.230469 10.132812 5.710938 9.605469 5.710938 8.953125 C 5.710938 8.300781 6.230469 7.773438 6.871094 7.773438 C 7.515625 7.773438 8.035156 8.300781 8.035156 8.953125"/><path fill="#C4456F" d="M 10.355469 8.953125 C 10.355469 9.605469 9.835938 10.132812 9.195312 10.132812 C 8.554688 10.132812 8.035156 9.605469 8.035156 8.953125 C 8.035156 8.300781 8.554688 7.773438 9.195312 7.773438 C 9.835938 7.773438 10.355469 8.300781 10.355469 8.953125"/><path fill="#C4456F" d="M 12.679688 8.953125 C 12.679688 9.605469 12.15625 10.132812 11.515625 10.132812 C 10.875 10.132812 10.355469 9.605469 10.355469 8.953125 C 10.355469 8.300781 10.875 7.773438 11.515625 7.773438 C 12.15625 7.773438 12.679688 8.300781 12.679688 8.953125"/><path fill="#C4456F" d="M 15 8.953125 C 15 9.605469 14.480469 10.132812 13.839844 10.132812 C 13.199219 10.132812 12.679688 9.605469 12.679688 8.953125 C 12.679688 8.300781 13.199219 7.773438 13.839844 7.773438 C 14.480469 7.773438 15 8.300781 15 8.953125"/><path fill="#C4456F" d="M 17.320312 8.953125 C 17.320312 9.605469 16.800781 10.132812 16.160156 10.132812 C 15.519531 10.132812 15 9.605469 15 8.953125 C 15 8.300781 15.519531 7.773438 16.160156 7.773438 C 16.800781 7.773438 17.320312 8.300781 17.320312 8.953125"/><path fill="#C4456F" d="M 19.644531 8.953125 C 19.644531 9.605469 19.125 10.132812 18.484375 10.132812 C 17.84375 10.132812 17.320312 9.605469 17.320312 8.953125 C 17.320312 8.300781 17.84375 7.773438 18.484375 7.773438 C 19.125 7.773438 19.644531 8.300781 19.644531 8.953125"/><path fill="#C4456F" d="M 21.964844 8.953125 C 21.964844 9.605469 21.445312 10.132812 20.804688 10.132812 C 20.164062 10.132812 19.644531 9.605469 19.644531 8.953125 C 19.644531 8.300781 20.164062 7.773438 20.804688 7.773438 C 21.445312 7.773438 21.964844 8.300781 21.964844 8.953125"/><path fill="#C4456F" d="M 24.289062 8.953125 C 24.289062 9.605469 23.769531 10.132812 23.128906 10.132812 C 22.484375 10.132812 21.964844 9.605469 21.964844 8.953125 C 21.964844 8.300781 22.484375 7.773438 23.128906 7.773438 C 23.769531 7.773438 24.289062 8.300781 24.289062 8.953125"/><g clip-path="url(#c)"><path fill="#C4456F" d="M 26.609375 8.953125 C 26.609375 9.605469 26.089844 10.132812 25.449219 10.132812 C 24.808594 10.132812 24.289062 9.605469 24.289062 8.953125 C 24.289062 8.300781 24.808594 7.773438 25.449219 7.773438 C 26.089844 7.773438 26.609375 8.300781 26.609375 8.953125"/></g><g clip-path="url(#d)"><path fill="#C4456F" d="M 5.835938 24.832031 L 4.882812 24.832031 L 4.882812 7.050781 L 5.835938 7.050781 L 5.835938 24.832031"/></g><g clip-path="url(#e)"><path fill="#C4456F" d="M 24.542969 24.832031 L 23.59375 24.832031 L 23.59375 7.050781 L 24.542969 7.050781 L 24.542969 24.832031"/></g><g clip-path="url(#f)"><path fill="#C4456F" d="M 25.785156 17.4375 L 3.585938 17.4375 L 3.585938 16.480469 L 25.785156 16.480469 L 25.785156 17.4375"/></g><g clip-path="url(#g)"><path fill="#C4456F" d="M 24.542969 24.832031 L 4.882812 24.832031 L 4.882812 18.117188 L 24.542969 18.117188 L 24.542969 24.832031"/></g></svg>