<svg xmlns="http://www.w3.org/2000/svg" width="30" viewBox="0 0 30 30" height="30" version="1.0"><defs><clipPath id="a"><path d="M 6 6.4375 L 23 6.4375 L 23 22.40625 L 6 22.40625 Z M 6 6.4375"/></clipPath><clipPath id="b"><path d="M 4.121094 7 L 6 7 L 6 13 L 4.121094 13 Z M 4.121094 7"/></clipPath><clipPath id="c"><path d="M 4.121094 11 L 6 11 L 6 22 L 4.121094 22 Z M 4.121094 11"/></clipPath><clipPath id="d"><path d="M 23 7 L 25.167969 7 L 25.167969 16 L 23 16 Z M 23 7"/></clipPath><clipPath id="e"><path d="M 24 11 L 25.167969 11 L 25.167969 22 L 24 22 Z M 24 11"/></clipPath></defs><g clip-path="url(#a)"><path fill="#C4456F" d="M 14.757812 21.207031 C 11.089844 21.207031 8.117188 18.167969 8.117188 14.421875 C 8.117188 10.671875 11.089844 7.636719 14.757812 7.636719 C 18.421875 7.636719 21.394531 10.671875 21.394531 14.421875 C 21.394531 18.167969 18.421875 21.207031 14.757812 21.207031 Z M 14.757812 6.4375 C 10.441406 6.4375 6.945312 10.011719 6.945312 14.421875 C 6.945312 18.832031 10.441406 22.40625 14.757812 22.40625 C 19.070312 22.40625 22.566406 18.832031 22.566406 14.421875 C 22.566406 10.011719 19.070312 6.4375 14.757812 6.4375"/></g><path fill="#C4456F" d="M 14.757812 20.542969 C 11.449219 20.542969 8.769531 17.800781 8.769531 14.421875 C 8.769531 11.039062 11.449219 8.300781 14.757812 8.300781 C 18.0625 8.300781 20.746094 11.039062 20.746094 14.421875 C 20.746094 17.800781 18.0625 20.542969 14.757812 20.542969 Z M 14.757812 7.933594 C 11.253906 7.933594 8.410156 10.839844 8.410156 14.421875 C 8.410156 18.003906 11.253906 20.910156 14.757812 20.910156 C 18.261719 20.910156 21.101562 18.003906 21.101562 14.421875 C 21.101562 10.839844 18.261719 7.933594 14.757812 7.933594"/><path fill="#C4456F" d="M 20.484375 14.421875 C 20.484375 17.65625 17.917969 20.277344 14.757812 20.277344 C 11.59375 20.277344 9.027344 17.65625 9.027344 14.421875 C 9.027344 11.1875 11.59375 8.566406 14.757812 8.566406 C 17.917969 8.566406 20.484375 11.1875 20.484375 14.421875"/><g clip-path="url(#b)"><path fill="#C4456F" d="M 5.921875 10.835938 L 5.675781 7.648438 C 5.675781 7.621094 5.652344 7.601562 5.625 7.601562 C 5.601562 7.601562 5.578125 7.621094 5.578125 7.648438 L 5.578125 10.777344 L 5.382812 10.777344 L 5.265625 7.648438 C 5.265625 7.621094 5.246094 7.601562 5.21875 7.601562 C 5.191406 7.601562 5.171875 7.621094 5.171875 7.648438 L 5.140625 10.777344 L 4.945312 10.777344 L 4.917969 7.648438 C 4.917969 7.625 4.894531 7.605469 4.871094 7.605469 C 4.84375 7.605469 4.820312 7.625 4.820312 7.648438 L 4.703125 10.777344 L 4.507812 10.777344 L 4.507812 7.648438 C 4.507812 7.625 4.488281 7.605469 4.460938 7.605469 C 4.433594 7.605469 4.414062 7.625 4.414062 7.648438 L 4.164062 10.835938 C 4.152344 11.007812 4.125 11.503906 4.246094 11.617188 C 4.390625 11.757812 4.917969 12.03125 4.949219 12.269531 C 4.953125 12.304688 4.957031 12.351562 4.960938 12.394531 L 4.960938 12.941406 L 4.964844 12.941406 C 4.964844 12.945312 4.964844 12.945312 4.964844 12.945312 L 5.128906 12.945312 L 5.128906 12.394531 C 5.128906 12.347656 5.132812 12.304688 5.140625 12.265625 C 5.167969 12.03125 5.695312 11.757812 5.84375 11.617188 C 5.964844 11.503906 5.9375 11.007812 5.921875 10.835938"/></g><g clip-path="url(#c)"><path fill="#C4456F" d="M 5.589844 19.171875 C 5.597656 18.492188 5.558594 17.589844 5.441406 16.390625 C 5.324219 15.183594 5.210938 12.574219 5.042969 11.71875 C 4.875 12.574219 4.761719 15.183594 4.644531 16.390625 C 4.519531 17.6875 4.480469 18.636719 4.5 19.335938 L 4.5 20.722656 C 4.5 20.992188 4.714844 21.207031 4.992188 21.234375 C 5.015625 21.242188 5.03125 21.242188 5.039062 21.238281 C 5.042969 21.238281 5.042969 21.238281 5.046875 21.238281 C 5.046875 21.238281 5.050781 21.238281 5.050781 21.238281 C 5.058594 21.242188 5.074219 21.242188 5.09375 21.234375 C 5.375 21.210938 5.59375 20.992188 5.59375 20.722656 L 5.59375 19.199219 C 5.59375 19.1875 5.59375 19.179688 5.589844 19.171875"/></g><g clip-path="url(#d)"><path fill="#C4456F" d="M 24.925781 15.421875 C 24.925781 15.421875 24.867188 13.597656 24.925781 12.339844 C 24.984375 11.085938 25.058594 8.546875 25.046875 8.101562 C 25.03125 7.65625 24.984375 7.429688 24.632812 7.683594 C 24.277344 7.933594 23.71875 8.734375 23.792969 10.800781 C 23.867188 12.871094 24.277344 13.679688 24.292969 14.546875 C 24.308594 15.410156 24.335938 15.910156 24.335938 15.910156 L 24.925781 15.421875"/></g><g clip-path="url(#e)"><path fill="#C4456F" d="M 24.054688 19.199219 C 24.046875 18.515625 24.085938 17.617188 24.203125 16.414062 C 24.324219 15.207031 24.4375 12.601562 24.605469 11.746094 C 24.773438 12.601562 24.882812 15.207031 25.003906 16.414062 C 25.128906 17.714844 25.164062 18.664062 25.148438 19.359375 L 25.148438 20.746094 C 25.148438 21.015625 24.933594 21.234375 24.65625 21.257812 C 24.632812 21.265625 24.617188 21.265625 24.609375 21.265625 C 24.605469 21.265625 24.605469 21.265625 24.601562 21.265625 C 24.597656 21.265625 24.597656 21.265625 24.597656 21.265625 C 24.589844 21.265625 24.574219 21.265625 24.554688 21.261719 C 24.273438 21.238281 24.054688 21.015625 24.054688 20.746094 L 24.054688 19.222656 C 24.054688 19.214844 24.054688 19.207031 24.054688 19.199219"/></g></svg>