<svg xmlns="http://www.w3.org/2000/svg" width="30" viewBox="0 0 30 30" height="30" version="1.0"><defs><clipPath id="a"><path d="M 5.875 6 L 24.019531 6 L 24.019531 12 L 5.875 12 Z M 5.875 6"/></clipPath><clipPath id="b"><path d="M 6 17 L 24 17 L 24 23.414062 L 6 23.414062 Z M 6 17"/></clipPath><clipPath id="c"><path d="M 5.875 17 L 24 17 L 24 23.414062 L 5.875 23.414062 Z M 5.875 17"/></clipPath><clipPath id="d"><path d="M 5.875 11 L 16 11 L 16 23.414062 L 5.875 23.414062 Z M 5.875 11"/></clipPath><clipPath id="e"><path d="M 14 11 L 24 11 L 24 23.414062 L 14 23.414062 Z M 14 11"/></clipPath><clipPath id="f"><path d="M 14 11 L 24.019531 11 L 24.019531 23.414062 L 14 23.414062 Z M 14 11"/></clipPath></defs><path fill="#C4456F" d="M 23.875 11.703125 L 23.875 11.609375 L 15.574219 6.324219 C 15.210938 6.09375 14.753906 6.089844 14.386719 6.320312 L 6.019531 11.609375 L 6.019531 11.703125 L 23.875 11.703125"/><g clip-path="url(#a)"><path fill="#FFF" d="M 6.386719 11.554688 L 23.511719 11.554688 L 15.5 6.449219 C 15.34375 6.351562 15.164062 6.300781 14.980469 6.300781 C 14.796875 6.300781 14.621094 6.351562 14.464844 6.449219 Z M 24.019531 11.851562 L 5.875 11.851562 L 5.875 11.527344 L 14.3125 6.195312 C 14.511719 6.066406 14.746094 6 14.980469 6 C 15.21875 6 15.449219 6.066406 15.652344 6.195312 L 24.019531 11.527344 L 24.019531 11.851562"/></g><path fill="#C4456F" d="M 6.285156 8.539062 L 6.285156 18.980469 L 23.609375 18.980469 L 23.609375 8.539062 C 23.609375 8.140625 23.296875 7.816406 22.910156 7.816406 L 6.984375 7.816406 C 6.597656 7.816406 6.285156 8.140625 6.285156 8.539062"/><path fill="#FFF" d="M 6.429688 18.832031 L 23.464844 18.832031 L 23.464844 8.539062 C 23.464844 8.222656 23.21875 7.96875 22.910156 7.96875 L 6.984375 7.96875 C 6.679688 7.96875 6.429688 8.222656 6.429688 8.539062 Z M 23.757812 19.128906 L 6.140625 19.128906 L 6.140625 8.539062 C 6.140625 8.058594 6.519531 7.667969 6.984375 7.667969 L 22.910156 7.667969 C 23.378906 7.667969 23.757812 8.058594 23.757812 8.539062 L 23.757812 19.128906"/><g clip-path="url(#b)"><path fill="#C4456F" d="M 6.167969 22.988281 C 6.140625 23.007812 6.132812 23.050781 6.15625 23.078125 C 6.25 23.1875 6.390625 23.257812 6.546875 23.257812 L 23.347656 23.257812 C 23.472656 23.257812 23.589844 23.214844 23.679688 23.136719 C 23.710938 23.113281 23.707031 23.0625 23.671875 23.039062 L 14.914062 17.460938 L 6.167969 22.988281"/></g><g clip-path="url(#c)"><path fill="#FFF" d="M 6.347656 23.050781 C 6.40625 23.089844 6.476562 23.109375 6.546875 23.109375 L 23.347656 23.109375 C 23.390625 23.109375 23.433594 23.101562 23.472656 23.089844 L 14.914062 17.636719 Z M 23.347656 23.410156 L 6.546875 23.410156 C 6.355469 23.410156 6.175781 23.324219 6.046875 23.175781 C 6.007812 23.132812 5.988281 23.070312 5.996094 23.007812 C 6.007812 22.949219 6.042969 22.894531 6.09375 22.859375 L 14.914062 17.285156 L 14.988281 17.332031 L 23.75 22.914062 C 23.804688 22.949219 23.839844 23.011719 23.84375 23.078125 C 23.851562 23.144531 23.820312 23.210938 23.769531 23.253906 C 23.652344 23.355469 23.5 23.410156 23.347656 23.410156"/></g><path fill="#C4456F" d="M 6.019531 11.796875 L 6.019531 22.714844 C 6.019531 22.792969 6.035156 22.863281 6.0625 22.929688 C 6.085938 22.984375 6.148438 23 6.195312 22.972656 L 14.914062 17.460938 L 6.019531 11.796875"/><g clip-path="url(#d)"><path fill="#FFF" d="M 6.167969 12.066406 L 6.167969 22.714844 C 6.167969 22.746094 6.167969 22.777344 6.175781 22.808594 L 14.636719 17.460938 Z M 6.148438 23.136719 C 6.050781 23.136719 5.96875 23.078125 5.929688 22.988281 C 5.894531 22.902344 5.875 22.8125 5.875 22.714844 L 5.875 11.527344 L 15.191406 17.460938 L 6.273438 23.097656 C 6.234375 23.121094 6.191406 23.136719 6.148438 23.136719"/></g><g clip-path="url(#e)"><path fill="#C4456F" d="M 23.667969 23.035156 C 23.707031 23.0625 23.765625 23.050781 23.792969 23.007812 C 23.84375 22.925781 23.875 22.824219 23.875 22.714844 L 23.875 11.796875 L 14.914062 17.460938 L 23.667969 23.035156"/></g><g clip-path="url(#f)"><path fill="#FFF" d="M 15.191406 17.460938 L 23.695312 22.878906 C 23.71875 22.828125 23.730469 22.773438 23.730469 22.714844 L 23.730469 12.0625 Z M 23.714844 23.199219 C 23.671875 23.199219 23.628906 23.1875 23.589844 23.164062 L 14.636719 17.460938 L 24.019531 11.53125 L 24.019531 22.714844 C 24.019531 22.847656 23.984375 22.976562 23.914062 23.089844 C 23.871094 23.160156 23.796875 23.199219 23.714844 23.199219"/></g><path fill="#FFF" d="M 23.246094 11.785156 L 23.246094 8.652344 C 23.246094 8.394531 23.042969 8.1875 22.792969 8.1875 L 7.101562 8.1875 C 6.855469 8.1875 6.652344 8.394531 6.652344 8.652344 L 6.652344 11.789062 L 14.914062 17.050781 L 23.246094 11.785156"/><path fill="#C4456F" d="M 7.238281 8.597656 C 8.992188 8.597656 10.746094 8.597656 12.5 8.597656 C 12.75 8.597656 13.003906 8.597656 13.253906 8.597656 C 13.3125 8.597656 13.3125 8.503906 13.253906 8.503906 C 11.5 8.503906 9.746094 8.503906 7.992188 8.503906 C 7.742188 8.503906 7.492188 8.503906 7.238281 8.503906 C 7.183594 8.503906 7.179688 8.597656 7.238281 8.597656"/><path fill="#FFF" d="M 23.507812 16.226562 C 23.507812 17.964844 23.507812 19.699219 23.507812 21.433594 C 23.507812 21.683594 23.507812 21.933594 23.507812 22.183594 C 23.507812 22.242188 23.601562 22.242188 23.601562 22.183594 C 23.601562 20.449219 23.601562 18.710938 23.601562 16.976562 C 23.601562 16.726562 23.601562 16.476562 23.601562 16.226562 C 23.601562 16.167969 23.507812 16.167969 23.507812 16.226562"/><path fill="#FFF" d="M 23.507812 22.34375 C 23.507812 22.378906 23.507812 22.414062 23.507812 22.449219 C 23.507812 22.507812 23.601562 22.507812 23.601562 22.449219 C 23.601562 22.414062 23.601562 22.378906 23.601562 22.34375 C 23.601562 22.28125 23.507812 22.28125 23.507812 22.34375"/><path fill="#FFF" d="M 6.402344 22.488281 C 7.699219 21.667969 8.992188 20.84375 10.289062 20.019531 C 10.472656 19.90625 10.65625 19.789062 10.839844 19.671875 C 10.886719 19.640625 10.84375 19.558594 10.792969 19.589844 C 9.496094 20.414062 8.203125 21.238281 6.90625 22.058594 C 6.722656 22.175781 6.539062 22.292969 6.355469 22.410156 C 6.308594 22.441406 6.351562 22.519531 6.402344 22.488281"/></svg>