<svg xmlns="http://www.w3.org/2000/svg" width="30" viewBox="0 0 30 30" height="30" version="1.0"><defs><clipPath id="a"><path d="M 3.683594 5.5625 L 26.183594 5.5625 L 26.183594 22.984375 L 3.683594 22.984375 Z M 3.683594 5.5625"/></clipPath></defs><path fill="#C4456F" d="M 18.230469 16.085938 C 17.207031 17.6875 14.933594 18.726562 14.933594 18.726562 C 14.933594 18.726562 12.660156 17.6875 11.640625 16.089844 C 10.617188 14.488281 11.664062 12.761719 12.941406 12.585938 C 14.21875 12.410156 14.933594 13.113281 14.933594 13.113281 C 14.933594 13.113281 15.652344 12.410156 16.929688 12.585938 C 18.203125 12.761719 19.253906 14.488281 18.230469 16.085938 Z M 14.933594 10.511719 C 12.253906 10.511719 10.070312 12.648438 10.070312 15.273438 C 10.070312 17.902344 12.253906 20.039062 14.933594 20.039062 C 17.617188 20.039062 19.800781 17.902344 19.800781 15.273438 C 19.800781 12.648438 17.617188 10.511719 14.933594 10.511719"/><g clip-path="url(#a)"><path fill="#C4456F" d="M 22.890625 13.503906 C 22.242188 13.503906 21.714844 12.988281 21.714844 12.351562 C 21.714844 11.714844 22.242188 11.195312 22.890625 11.195312 C 23.542969 11.195312 24.070312 11.714844 24.070312 12.351562 C 24.070312 12.988281 23.542969 13.503906 22.890625 13.503906 Z M 14.933594 21.046875 C 11.683594 21.046875 9.039062 18.457031 9.039062 15.273438 C 9.039062 12.09375 11.683594 9.503906 14.933594 9.503906 C 18.183594 9.503906 20.828125 12.09375 20.828125 15.273438 C 20.828125 18.457031 18.183594 21.046875 14.933594 21.046875 Z M 24.007812 8.898438 L 21.699219 8.898438 L 20.160156 5.84375 C 20.074219 5.671875 19.894531 5.5625 19.699219 5.5625 L 10.171875 5.566406 C 9.972656 5.566406 9.796875 5.671875 9.710938 5.84375 L 8.171875 8.898438 L 5.863281 8.898438 C 4.664062 8.898438 3.6875 9.855469 3.6875 11.027344 L 3.6875 20.84375 C 3.6875 22.019531 4.664062 22.976562 5.863281 22.976562 L 24.007812 22.976562 C 25.207031 22.976562 26.183594 22.019531 26.183594 20.84375 L 26.183594 11.027344 C 26.183594 9.855469 25.207031 8.898438 24.007812 8.898438"/></g><path fill="#C4456F" d="M 5.5 8.226562 L 7.574219 8.226562 C 7.855469 8.226562 8.089844 8.003906 8.089844 7.722656 L 8.089844 6.9375 C 8.089844 6.660156 7.855469 6.433594 7.574219 6.433594 L 5.5 6.433594 C 5.21875 6.433594 4.988281 6.660156 4.988281 6.9375 L 4.988281 7.722656 C 4.988281 8.003906 5.21875 8.226562 5.5 8.226562"/></svg>