<svg xmlns="http://www.w3.org/2000/svg" width="30" viewBox="0 0 30 30" height="30" version="1.0"><defs><clipPath id="a"><path d="M 6.335938 2.902344 L 23.753906 2.902344 L 23.753906 25.402344 L 6.335938 25.402344 Z M 6.335938 2.902344"/></clipPath></defs><g clip-path="url(#a)"><path fill="#C4456F" d="M 21.5625 10.402344 L 20.476562 10.402344 L 20.476562 8.261719 C 20.476562 5.304688 18.042969 2.902344 15.042969 2.902344 C 12.046875 2.902344 9.613281 5.304688 9.613281 8.261719 L 9.613281 10.402344 L 8.527344 10.402344 C 7.328125 10.402344 6.355469 11.363281 6.355469 12.546875 L 6.355469 23.261719 C 6.355469 24.445312 7.328125 25.402344 8.527344 25.402344 L 21.5625 25.402344 C 22.761719 25.402344 23.734375 24.445312 23.734375 23.261719 L 23.734375 12.546875 C 23.734375 11.363281 22.761719 10.402344 21.5625 10.402344 Z M 15.042969 20.046875 C 13.84375 20.046875 12.871094 19.085938 12.871094 17.902344 C 12.871094 16.71875 13.84375 15.761719 15.042969 15.761719 C 16.246094 15.761719 17.21875 16.71875 17.21875 17.902344 C 17.21875 19.085938 16.246094 20.046875 15.042969 20.046875 Z M 18.410156 10.402344 L 11.675781 10.402344 L 11.675781 8.261719 C 11.675781 6.429688 13.1875 4.9375 15.042969 4.9375 C 16.902344 4.9375 18.410156 6.429688 18.410156 8.261719 Z M 18.410156 10.402344"/></g></svg>