<svg xmlns="http://www.w3.org/2000/svg" width="30" viewBox="0 0 30 30" height="30" version="1.0"><defs><clipPath id="a"><path d="M 3.796875 5.484375 L 25.570312 5.484375 L 25.570312 22.90625 L 3.796875 22.90625 Z M 3.796875 5.484375"/></clipPath></defs><g clip-path="url(#a)"><path fill="#C4456F" d="M 14.386719 14.195312 L 11.5625 14.195312 C 10.679688 14.859375 9.582031 15.257812 8.390625 15.257812 C 7.308594 15.257812 6.3125 14.929688 5.476562 14.378906 L 5.476562 22.101562 C 5.476562 22.542969 5.835938 22.902344 6.277344 22.902344 L 19.878906 22.902344 C 20.320312 22.902344 20.679688 22.542969 20.679688 22.101562 L 20.679688 14.242188 C 19.808594 14.878906 18.730469 15.261719 17.566406 15.261719 C 16.371094 15.257812 15.265625 14.859375 14.386719 14.195312 Z M 24.355469 14.050781 L 21.347656 15.777344 L 21.347656 20.570312 L 24.355469 22.296875 C 24.894531 22.601562 25.5625 22.222656 25.5625 21.601562 L 25.5625 14.742188 C 25.566406 14.125 24.894531 13.742188 24.355469 14.050781 Z M 17.5625 5.484375 C 15.03125 5.484375 12.972656 7.523438 12.972656 10.039062 C 12.972656 12.554688 15.023438 14.59375 17.558594 14.59375 C 20.09375 14.59375 22.144531 12.554688 22.144531 10.039062 C 22.148438 7.523438 20.097656 5.484375 17.5625 5.484375 Z M 17.5625 12 C 16.46875 12 15.585938 11.125 15.585938 10.039062 C 15.585938 8.953125 16.46875 8.074219 17.5625 8.074219 C 18.65625 8.074219 19.539062 8.953125 19.539062 10.039062 C 19.535156 11.125 18.652344 12 17.5625 12 Z M 8.382812 5.484375 C 5.851562 5.484375 3.796875 7.523438 3.796875 10.039062 C 3.796875 12.554688 5.851562 14.59375 8.382812 14.59375 C 10.917969 14.59375 12.972656 12.554688 12.972656 10.039062 C 12.972656 7.523438 10.917969 5.484375 8.382812 5.484375 Z M 8.382812 12 C 7.289062 12 6.40625 11.125 6.40625 10.039062 C 6.410156 8.957031 7.296875 8.082031 8.382812 8.082031 C 9.472656 8.082031 10.363281 8.957031 10.363281 10.042969 C 10.363281 11.125 9.476562 12 8.382812 12 Z M 8.382812 12"/></g></svg>