<svg xmlns="http://www.w3.org/2000/svg" width="30" viewBox="0 0 30 30" height="30" version="1.0"><defs><clipPath id="a"><path d="M 13 5.429688 L 17 5.429688 L 17 9 L 13 9 Z M 13 5.429688"/></clipPath><clipPath id="b"><path d="M 14 5.429688 L 17 5.429688 L 17 9 L 14 9 Z M 14 5.429688"/></clipPath><clipPath id="c"><path d="M 5.914062 12 L 24.058594 12 L 24.058594 23.574219 L 5.914062 23.574219 Z M 5.914062 12"/></clipPath><clipPath id="d"><path d="M 21 12 L 24.058594 12 L 24.058594 23.574219 L 21 23.574219 Z M 21 12"/></clipPath></defs><path fill="#C4456F" d="M 22.898438 15.324219 C 22.761719 15.324219 22.625 15.273438 22.519531 15.171875 L 14.984375 7.941406 L 7.453125 15.171875 C 7.234375 15.378906 6.886719 15.371094 6.675781 15.15625 C 6.46875 14.9375 6.476562 14.589844 6.695312 14.378906 L 14.605469 6.785156 C 14.816406 6.582031 15.152344 6.582031 15.363281 6.785156 L 23.277344 14.378906 C 23.496094 14.589844 23.503906 14.9375 23.292969 15.15625 C 23.1875 15.265625 23.042969 15.324219 22.898438 15.324219 Z M 22.898438 15.324219"/><g clip-path="url(#a)"><path fill="#C4456F" d="M 16.617188 7.0625 C 16.617188 7.960938 15.886719 8.691406 14.984375 8.691406 C 14.085938 8.691406 13.355469 7.960938 13.355469 7.0625 C 13.355469 6.160156 14.085938 5.429688 14.984375 5.429688 C 15.886719 5.429688 16.617188 6.160156 16.617188 7.0625 Z M 16.617188 7.0625"/></g><g clip-path="url(#b)"><path fill="#C4456F" d="M 14.984375 5.429688 C 14.792969 5.429688 14.609375 5.460938 14.4375 5.523438 C 15.070312 5.75 15.523438 6.351562 15.523438 7.0625 C 15.523438 7.769531 15.070312 8.375 14.4375 8.597656 C 14.609375 8.660156 14.792969 8.691406 14.984375 8.691406 C 15.886719 8.691406 16.617188 7.960938 16.617188 7.0625 C 16.617188 6.160156 15.886719 5.429688 14.984375 5.429688 Z M 14.984375 5.429688"/></g><g clip-path="url(#c)"><path fill="#C4456F" d="M 22.960938 23.574219 L 7.007812 23.574219 C 6.402344 23.574219 5.914062 23.082031 5.914062 22.480469 L 5.914062 14.050781 C 5.914062 13.449219 6.402344 12.957031 7.007812 12.957031 L 22.960938 12.957031 C 23.566406 12.957031 24.058594 13.449219 24.058594 14.050781 L 24.058594 22.480469 C 24.058594 23.082031 23.566406 23.574219 22.960938 23.574219 Z M 22.960938 23.574219"/></g><g clip-path="url(#d)"><path fill="#C4456F" d="M 22.960938 12.957031 L 21.867188 12.957031 C 22.472656 12.957031 22.960938 13.449219 22.960938 14.050781 L 22.960938 22.480469 C 22.960938 23.082031 22.472656 23.574219 21.867188 23.574219 L 22.960938 23.574219 C 23.566406 23.574219 24.058594 23.082031 24.058594 22.480469 L 24.058594 14.050781 C 24.058594 13.449219 23.566406 12.957031 22.960938 12.957031 Z M 22.960938 12.957031"/></g><path fill="#C4456F" d="M 11.074219 17.71875 C 11.183594 17.71875 11.296875 17.695312 11.414062 17.628906 C 11.652344 17.496094 11.800781 17.242188 11.800781 16.96875 L 11.800781 15.066406 C 11.800781 14.917969 11.679688 14.792969 11.527344 14.792969 C 11.375 14.792969 11.253906 14.917969 11.253906 15.066406 L 11.253906 16.96875 C 11.253906 17.042969 11.214844 17.113281 11.148438 17.148438 C 11.027344 17.21875 10.890625 17.089844 10.882812 17.082031 C 10.773438 16.976562 10.601562 16.976562 10.496094 17.082031 C 10.390625 17.1875 10.390625 17.359375 10.496094 17.46875 C 10.605469 17.582031 10.824219 17.71875 11.074219 17.71875 Z M 11.074219 17.71875"/><path fill="#C4456F" d="M 17.070312 16.953125 C 17.128906 16.632812 16.980469 16.210938 16.394531 15.996094 C 16.097656 15.886719 15.824219 15.765625 15.742188 15.730469 C 15.667969 15.671875 15.667969 15.589844 15.675781 15.554688 C 15.679688 15.507812 15.714844 15.394531 15.878906 15.34375 C 16.226562 15.238281 16.546875 15.492188 16.554688 15.5 C 16.671875 15.59375 16.84375 15.582031 16.941406 15.464844 C 17.035156 15.347656 17.023438 15.175781 16.90625 15.078125 C 16.882812 15.0625 16.359375 14.628906 15.722656 14.820312 C 15.402344 14.914062 15.175781 15.167969 15.132812 15.476562 C 15.089844 15.765625 15.214844 16.042969 15.457031 16.199219 C 15.472656 16.207031 15.484375 16.214844 15.496094 16.222656 C 15.511719 16.226562 15.835938 16.371094 16.203125 16.507812 C 16.316406 16.550781 16.566406 16.664062 16.53125 16.859375 C 16.507812 17 16.335938 17.148438 16.09375 17.148438 C 15.851562 17.148438 15.617188 17.050781 15.46875 16.886719 C 15.367188 16.773438 15.191406 16.765625 15.082031 16.867188 C 14.96875 16.96875 14.960938 17.140625 15.0625 17.253906 C 15.3125 17.53125 15.699219 17.695312 16.09375 17.695312 C 16.582031 17.695312 16.992188 17.382812 17.070312 16.953125 Z M 17.070312 16.953125"/><path fill="#C4456F" d="M 13.433594 17.71875 C 13.617188 17.71875 13.792969 17.679688 13.949219 17.597656 C 14.445312 17.351562 14.546875 16.972656 14.546875 16.703125 L 14.546875 15.066406 C 14.546875 14.917969 14.425781 14.792969 14.273438 14.792969 C 14.121094 14.792969 14 14.917969 14 15.066406 L 14 16.703125 C 14 16.820312 13.964844 16.976562 13.703125 17.109375 C 13.621094 17.152344 13.535156 17.171875 13.433594 17.171875 C 13.324219 17.171875 13.230469 17.144531 13.140625 17.089844 C 12.9375 16.957031 12.894531 16.839844 12.894531 16.703125 L 12.894531 15.066406 C 12.894531 14.917969 12.773438 14.792969 12.621094 14.792969 C 12.472656 14.792969 12.347656 14.917969 12.347656 15.066406 L 12.347656 16.703125 C 12.347656 17.058594 12.511719 17.335938 12.847656 17.550781 C 13.023438 17.660156 13.21875 17.71875 13.433594 17.71875 Z M 13.433594 17.71875"/><path fill="#C4456F" d="M 19.0625 15.320312 C 19.214844 15.320312 19.335938 15.195312 19.335938 15.042969 C 19.335938 14.894531 19.214844 14.769531 19.0625 14.769531 L 17.75 14.769531 C 17.597656 14.769531 17.476562 14.894531 17.476562 15.042969 C 17.476562 15.195312 17.597656 15.320312 17.75 15.320312 L 18.128906 15.320312 L 18.128906 17.421875 C 18.128906 17.574219 18.253906 17.695312 18.402344 17.695312 C 18.554688 17.695312 18.675781 17.574219 18.675781 17.421875 L 18.675781 15.320312 Z M 19.0625 15.320312"/><path fill="#C4456F" d="M 11.808594 19.023438 C 11.808594 19.023438 11.808594 19.019531 11.804688 19.019531 C 11.753906 18.894531 11.636719 18.8125 11.503906 18.8125 C 11.371094 18.8125 11.25 18.894531 11.199219 19.019531 C 11.199219 19.019531 11.199219 19.023438 11.199219 19.023438 L 10.320312 21.367188 C 10.265625 21.507812 10.335938 21.667969 10.480469 21.71875 C 10.511719 21.734375 10.542969 21.738281 10.574219 21.738281 C 10.6875 21.738281 10.789062 21.671875 10.832031 21.558594 L 10.984375 21.15625 L 12.015625 21.15625 L 12.167969 21.558594 C 12.21875 21.703125 12.375 21.773438 12.519531 21.722656 C 12.660156 21.667969 12.734375 21.511719 12.679688 21.367188 Z M 11.191406 20.605469 L 11.503906 19.773438 L 11.8125 20.605469 Z M 11.191406 20.605469"/><path fill="#C4456F" d="M 9.308594 19.078125 C 9.277344 18.929688 9.15625 18.820312 9.007812 18.8125 C 8.859375 18.804688 8.722656 18.898438 8.675781 19.042969 C 8.675781 19.042969 8.675781 19.046875 8.675781 19.050781 L 8.238281 20.605469 L 7.785156 19.046875 C 7.785156 19.042969 7.78125 19.042969 7.78125 19.039062 C 7.734375 18.898438 7.597656 18.804688 7.449219 18.8125 C 7.300781 18.824219 7.179688 18.933594 7.148438 19.082031 L 6.738281 21.398438 C 6.710938 21.546875 6.8125 21.6875 6.960938 21.714844 C 7.109375 21.742188 7.25 21.640625 7.277344 21.492188 L 7.523438 20.113281 L 7.929688 21.503906 C 7.929688 21.507812 7.929688 21.511719 7.929688 21.511719 C 7.976562 21.648438 8.101562 21.738281 8.242188 21.738281 C 8.382812 21.738281 8.507812 21.644531 8.550781 21.511719 C 8.554688 21.507812 8.554688 21.503906 8.554688 21.5 L 8.945312 20.109375 L 9.207031 21.496094 C 9.234375 21.644531 9.378906 21.742188 9.527344 21.714844 C 9.675781 21.6875 9.773438 21.542969 9.746094 21.394531 Z M 9.308594 19.078125"/><path fill="#C4456F" d="M 18.230469 18.8125 C 18.078125 18.8125 17.957031 18.9375 17.957031 19.085938 L 17.957031 21.464844 C 17.957031 21.613281 18.078125 21.738281 18.230469 21.738281 C 18.382812 21.738281 18.503906 21.613281 18.503906 21.464844 L 18.503906 19.085938 C 18.503906 18.9375 18.382812 18.8125 18.230469 18.8125 Z M 18.230469 18.8125"/><path fill="#C4456F" d="M 20.300781 19.382812 C 20.453125 19.382812 20.578125 19.261719 20.578125 19.109375 C 20.578125 18.957031 20.453125 18.835938 20.300781 18.835938 L 19.324219 18.835938 C 19.175781 18.835938 19.050781 18.957031 19.050781 19.109375 L 19.050781 21.464844 C 19.050781 21.617188 19.175781 21.738281 19.324219 21.738281 L 20.300781 21.738281 C 20.453125 21.738281 20.578125 21.617188 20.578125 21.464844 C 20.578125 21.3125 20.453125 21.191406 20.300781 21.191406 L 19.597656 21.191406 L 19.597656 20.558594 L 20.230469 20.558594 C 20.382812 20.558594 20.503906 20.4375 20.503906 20.285156 C 20.503906 20.136719 20.382812 20.011719 20.230469 20.011719 L 19.597656 20.011719 L 19.597656 19.382812 Z M 20.300781 19.382812"/><path fill="#C4456F" d="M 22.046875 18.882812 L 21.402344 18.882812 C 21.328125 18.882812 21.261719 18.914062 21.207031 18.964844 C 21.15625 19.015625 21.128906 19.085938 21.128906 19.15625 L 21.128906 21.425781 C 21.128906 21.445312 21.128906 21.464844 21.132812 21.480469 C 21.136719 21.546875 21.167969 21.609375 21.214844 21.660156 C 21.265625 21.710938 21.335938 21.738281 21.40625 21.738281 C 21.425781 21.738281 21.886719 21.734375 22.070312 21.734375 C 22.746094 21.722656 23.234375 21.121094 23.234375 20.3125 C 23.234375 19.457031 22.757812 18.882812 22.046875 18.882812 Z M 22.058594 21.183594 C 21.972656 21.1875 21.816406 21.1875 21.679688 21.1875 C 21.679688 20.917969 21.679688 20.511719 21.679688 20.308594 C 21.679688 20.140625 21.675781 19.714844 21.675781 19.429688 L 22.046875 19.429688 C 22.519531 19.429688 22.6875 19.886719 22.6875 20.3125 C 22.6875 20.726562 22.492188 21.175781 22.058594 21.183594 Z M 22.058594 21.183594"/><path fill="#C4456F" d="M 15.058594 19.703125 C 15.058594 19.214844 14.644531 18.8125 14.140625 18.8125 L 13.519531 18.8125 C 13.367188 18.8125 13.246094 18.9375 13.246094 19.085938 L 13.246094 21.464844 C 13.246094 21.613281 13.367188 21.738281 13.519531 21.738281 C 13.667969 21.738281 13.792969 21.613281 13.792969 21.464844 L 13.792969 20.738281 L 14.578125 21.644531 C 14.632812 21.707031 14.707031 21.738281 14.785156 21.738281 C 14.847656 21.738281 14.910156 21.714844 14.964844 21.671875 C 15.078125 21.570312 15.089844 21.398438 14.992188 21.285156 L 14.371094 20.570312 C 14.765625 20.46875 15.058594 20.121094 15.058594 19.703125 Z M 14.140625 20.050781 C 14.0625 20.050781 13.921875 20.050781 13.796875 20.050781 C 13.796875 19.925781 13.792969 19.785156 13.792969 19.703125 C 13.792969 19.636719 13.792969 19.492188 13.792969 19.359375 L 14.140625 19.359375 C 14.339844 19.359375 14.511719 19.519531 14.511719 19.703125 C 14.511719 19.890625 14.339844 20.050781 14.140625 20.050781 Z M 14.140625 20.050781"/><path fill="#C4456F" d="M 17.417969 19.703125 C 17.417969 19.214844 17.007812 18.8125 16.5 18.8125 L 15.878906 18.8125 C 15.726562 18.8125 15.605469 18.9375 15.605469 19.085938 L 15.605469 21.464844 C 15.605469 21.613281 15.726562 21.738281 15.878906 21.738281 C 16.03125 21.738281 16.152344 21.613281 16.152344 21.464844 L 16.152344 20.738281 L 16.9375 21.644531 C 16.992188 21.707031 17.066406 21.738281 17.144531 21.738281 C 17.207031 21.738281 17.273438 21.714844 17.324219 21.671875 C 17.4375 21.570312 17.449219 21.398438 17.351562 21.285156 L 16.730469 20.570312 C 17.125 20.46875 17.417969 20.121094 17.417969 19.703125 Z M 16.5 20.050781 C 16.421875 20.050781 16.28125 20.050781 16.15625 20.050781 C 16.15625 19.925781 16.15625 19.785156 16.15625 19.703125 C 16.15625 19.636719 16.15625 19.492188 16.15625 19.359375 L 16.5 19.359375 C 16.703125 19.359375 16.871094 19.519531 16.871094 19.703125 C 16.871094 19.890625 16.703125 20.050781 16.5 20.050781 Z M 16.5 20.050781"/><path fill="#C4456F" d="M 8.535156 17.433594 C 8.5 17.449219 8.460938 17.449219 8.425781 17.433594 C 8.097656 17.308594 7.445312 16.886719 7.140625 16.46875 C 6.871094 16.101562 6.910156 15.59375 7.234375 15.273438 C 7.554688 14.953125 8.058594 14.9375 8.375 15.226562 C 8.433594 15.28125 8.527344 15.28125 8.585938 15.226562 C 8.902344 14.9375 9.40625 14.953125 9.726562 15.273438 C 10.050781 15.59375 10.089844 16.101562 9.820312 16.46875 C 9.5 16.910156 8.863281 17.316406 8.535156 17.433594 Z M 8.535156 17.433594"/><path fill="#C4456F" d="M 21.5 17.433594 C 21.464844 17.449219 21.425781 17.449219 21.390625 17.433594 C 21.0625 17.308594 20.40625 16.886719 20.105469 16.46875 C 19.835938 16.101562 19.875 15.59375 20.199219 15.273438 C 20.519531 14.953125 21.023438 14.9375 21.339844 15.226562 C 21.398438 15.28125 21.492188 15.28125 21.550781 15.226562 C 21.867188 14.9375 22.371094 14.953125 22.691406 15.273438 C 23.015625 15.59375 23.054688 16.101562 22.785156 16.46875 C 22.464844 16.910156 21.828125 17.316406 21.5 17.433594 Z M 21.5 17.433594"/><path fill="#C4456F" d="M 22.691406 15.273438 C 22.371094 14.953125 21.867188 14.9375 21.550781 15.226562 C 21.546875 15.226562 21.546875 15.230469 21.546875 15.230469 C 21.5625 15.242188 21.578125 15.257812 21.59375 15.273438 C 21.917969 15.59375 21.957031 16.101562 21.691406 16.46875 C 21.496094 16.734375 21.1875 16.988281 20.902344 17.171875 C 21.085938 17.292969 21.261719 17.386719 21.390625 17.433594 C 21.425781 17.449219 21.464844 17.449219 21.5 17.433594 C 21.828125 17.316406 22.464844 16.910156 22.785156 16.46875 C 23.054688 16.101562 23.015625 15.59375 22.691406 15.273438 Z M 22.691406 15.273438"/><path fill="#C4456F" d="M 9.726562 15.273438 C 9.40625 14.953125 8.902344 14.9375 8.585938 15.226562 C 8.585938 15.226562 8.582031 15.230469 8.582031 15.230469 C 8.597656 15.242188 8.617188 15.257812 8.632812 15.273438 C 8.953125 15.59375 8.992188 16.101562 8.726562 16.46875 C 8.53125 16.734375 8.222656 16.988281 7.9375 17.171875 C 8.125 17.292969 8.300781 17.386719 8.425781 17.433594 C 8.460938 17.449219 8.5 17.449219 8.535156 17.433594 C 8.863281 17.316406 9.5 16.910156 9.820312 16.46875 C 10.089844 16.101562 10.050781 15.59375 9.726562 15.273438 Z M 9.726562 15.273438"/></svg>