<svg xmlns="http://www.w3.org/2000/svg" width="30" viewBox="0 0 30 30" height="30" version="1.0"><defs><clipPath id="a"><path d="M 18 2.902344 L 22 2.902344 L 22 7 L 18 7 Z M 18 2.902344"/></clipPath><clipPath id="b"><path d="M 4.199219 23.855469 L 4.972656 23.855469 L 4.972656 25.394531 L 4.199219 25.394531 Z M 4.199219 23.855469"/></clipPath><clipPath id="c"><path d="M 21 3 L 25.886719 3 L 25.886719 8 L 21 8 Z M 21 3"/></clipPath><clipPath id="d"><path d="M 3.386719 4 L 18 4 L 18 6 L 3.386719 6 Z M 3.386719 4"/></clipPath><clipPath id="e"><path d="M 21 7 L 25.886719 7 L 25.886719 11 L 21 11 Z M 21 7"/></clipPath><clipPath id="f"><path d="M 22.753906 23.46875 L 25.074219 23.46875 L 25.074219 25.394531 L 22.753906 25.394531 Z M 22.753906 23.46875"/></clipPath></defs><path fill="#C4456F" d="M 4.199219 17.664062 L 6.519531 17.664062 L 6.519531 16.890625 L 4.199219 16.890625 L 4.199219 17.664062"/><g clip-path="url(#a)"><path fill="#C4456F" d="M 18.457031 5.566406 L 18.457031 5.726562 C 18.457031 5.933594 18.535156 6.125 18.683594 6.273438 C 18.828125 6.417969 19.023438 6.5 19.230469 6.5 L 19.390625 6.5 L 19.503906 6.613281 C 19.792969 6.902344 20.304688 6.902344 20.597656 6.613281 L 20.691406 6.519531 C 20.527344 6.269531 20.4375 5.984375 20.4375 5.679688 C 20.4375 5.640625 20.445312 5.605469 20.445312 5.566406 C 20.328125 5.636719 20.195312 5.679688 20.050781 5.679688 C 19.621094 5.679688 19.277344 5.332031 19.277344 4.90625 C 19.277344 4.480469 19.621094 4.132812 20.050781 4.132812 C 20.398438 4.132812 20.691406 4.367188 20.785156 4.683594 C 20.824219 4.339844 20.976562 4.015625 21.230469 3.765625 C 21.296875 3.695312 21.371094 3.636719 21.449219 3.582031 C 21.4375 3.570312 21.429688 3.554688 21.417969 3.539062 C 21.269531 3.394531 21.078125 3.3125 20.871094 3.3125 L 20.710938 3.3125 L 20.597656 3.199219 C 20.304688 2.90625 19.792969 2.90625 19.503906 3.199219 L 19.390625 3.3125 L 19.230469 3.3125 C 19.023438 3.3125 18.828125 3.394531 18.683594 3.539062 C 18.535156 3.6875 18.457031 3.878906 18.457031 4.085938 L 18.457031 4.246094 L 18.34375 4.359375 C 18.195312 4.503906 18.117188 4.699219 18.117188 4.90625 C 18.117188 5.113281 18.195312 5.304688 18.34375 5.453125 L 18.457031 5.566406"/></g><path fill="#C4456F" d="M 5.746094 13.023438 L 4.972656 13.023438 L 4.972656 6.839844 L 5.746094 6.839844 Z M 6.519531 6.839844 L 7.292969 6.839844 L 7.292969 10.703125 L 6.519531 10.703125 Z M 17.332031 6.066406 L 15.796875 6.066406 C 15.796875 11.183594 11.636719 15.34375 6.519531 15.34375 L 6.519531 14.570312 C 11.210938 14.570312 15.023438 10.753906 15.023438 6.066406 L 11.929688 6.066406 L 11.929688 8 C 11.929688 10.769531 9.675781 13.023438 6.90625 13.023438 L 6.519531 13.023438 L 6.519531 12.25 L 6.90625 12.25 C 9.25 12.25 11.15625 10.34375 11.15625 8 L 11.15625 6.066406 L 4.199219 6.066406 L 4.199219 16.117188 L 6.90625 16.117188 C 12.53125 16.117188 17.128906 11.644531 17.332031 6.066406"/><g clip-path="url(#b)"><path fill="#C4456F" d="M 4.199219 23.863281 L 4.199219 25.394531 L 4.972656 25.394531 L 4.972656 24.335938 C 4.867188 24.269531 4.765625 24.191406 4.675781 24.097656 C 4.542969 23.96875 4.378906 23.886719 4.199219 23.863281"/></g><g clip-path="url(#c)"><path fill="#C4456F" d="M 23.140625 4.90625 C 23.570312 4.90625 23.914062 5.25 23.914062 5.679688 C 23.914062 6.105469 23.570312 6.453125 23.140625 6.453125 C 22.714844 6.453125 22.367188 6.105469 22.367188 5.679688 C 22.367188 5.25 22.714844 4.90625 23.140625 4.90625 Z M 21.210938 5.679688 C 21.210938 5.886719 21.289062 6.078125 21.4375 6.226562 L 21.550781 6.339844 L 21.550781 6.5 C 21.550781 6.707031 21.628906 6.898438 21.777344 7.046875 C 21.921875 7.191406 22.117188 7.273438 22.320312 7.273438 L 22.480469 7.273438 L 22.59375 7.386719 C 22.886719 7.675781 23.398438 7.675781 23.6875 7.386719 L 23.800781 7.273438 L 23.960938 7.273438 C 24.167969 7.273438 24.363281 7.191406 24.507812 7.046875 C 24.65625 6.898438 24.734375 6.707031 24.734375 6.5 L 24.734375 6.339844 L 24.847656 6.226562 C 24.996094 6.078125 25.074219 5.886719 25.074219 5.679688 C 25.074219 5.472656 24.996094 5.277344 24.847656 5.132812 L 24.734375 5.019531 L 24.734375 4.859375 C 24.734375 4.652344 24.65625 4.457031 24.507812 4.3125 C 24.363281 4.164062 24.167969 4.085938 23.960938 4.085938 L 23.800781 4.085938 L 23.6875 3.972656 C 23.398438 3.679688 22.886719 3.679688 22.59375 3.972656 L 22.480469 4.085938 L 22.320312 4.085938 C 22.117188 4.085938 21.921875 4.164062 21.777344 4.3125 C 21.628906 4.457031 21.550781 4.652344 21.550781 4.859375 L 21.550781 5.019531 L 21.4375 5.132812 C 21.289062 5.277344 21.210938 5.472656 21.210938 5.679688"/></g><g clip-path="url(#d)"><path fill="#C4456F" d="M 17.34375 4.90625 C 17.34375 4.773438 17.363281 4.644531 17.398438 4.519531 L 3.425781 4.519531 L 3.425781 5.292969 L 17.398438 5.292969 C 17.363281 5.167969 17.34375 5.039062 17.34375 4.90625"/></g><g clip-path="url(#e)"><path fill="#C4456F" d="M 25.621094 8.226562 L 25.507812 8.113281 L 25.507812 7.953125 C 25.507812 7.746094 25.429688 7.550781 25.28125 7.40625 C 25.269531 7.390625 25.25 7.382812 25.238281 7.371094 C 25.183594 7.449219 25.125 7.523438 25.054688 7.59375 C 24.804688 7.84375 24.484375 7.996094 24.136719 8.035156 C 24.453125 8.128906 24.6875 8.421875 24.6875 8.773438 C 24.6875 9.199219 24.34375 9.546875 23.914062 9.546875 C 23.488281 9.546875 23.140625 9.199219 23.140625 8.773438 C 23.140625 8.628906 23.183594 8.492188 23.253906 8.375 C 23.21875 8.378906 23.179688 8.386719 23.140625 8.386719 C 22.839844 8.386719 22.550781 8.292969 22.300781 8.132812 L 22.207031 8.226562 C 22.0625 8.371094 21.984375 8.566406 21.984375 8.773438 C 21.984375 8.980469 22.0625 9.171875 22.207031 9.320312 L 22.320312 9.433594 L 22.320312 9.59375 C 22.320312 9.800781 22.402344 9.992188 22.546875 10.136719 C 22.695312 10.285156 22.886719 10.363281 23.09375 10.363281 L 23.253906 10.363281 L 23.367188 10.476562 C 23.660156 10.769531 24.171875 10.769531 24.460938 10.476562 L 24.574219 10.363281 L 24.734375 10.363281 C 24.941406 10.363281 25.136719 10.285156 25.28125 10.136719 C 25.429688 9.992188 25.507812 9.800781 25.507812 9.59375 L 25.507812 9.433594 L 25.621094 9.320312 C 25.769531 9.171875 25.847656 8.980469 25.847656 8.773438 C 25.847656 8.566406 25.769531 8.371094 25.621094 8.226562"/></g><path fill="#C4456F" d="M 7.679688 22.238281 L 7.679688 22.304688 L 6.90625 22.304688 L 6.90625 22.238281 C 6.90625 20.90625 6.558594 19.597656 5.902344 18.4375 L 5.746094 18.4375 L 5.746094 21.53125 L 4.972656 21.53125 L 4.972656 18.4375 L 4.199219 18.4375 L 4.199219 23.089844 C 4.585938 23.117188 4.945312 23.277344 5.222656 23.550781 C 5.605469 23.933594 6.273438 23.933594 6.65625 23.550781 C 6.960938 23.246094 7.371094 23.074219 7.804688 23.074219 L 8.066406 23.074219 L 8.066406 21.785156 C 8.066406 20.578125 7.625 19.441406 6.832031 18.542969 C 7.386719 19.691406 7.679688 20.953125 7.679688 22.238281"/><path fill="#C4456F" d="M 23.914062 11.476562 C 23.78125 11.476562 23.652344 11.457031 23.527344 11.421875 L 23.527344 23.074219 L 24.300781 23.074219 L 24.300781 11.421875 C 24.175781 11.457031 24.046875 11.476562 23.914062 11.476562"/><g clip-path="url(#f)"><path fill="#C4456F" d="M 23.308594 23.847656 C 22.953125 24.257812 22.753906 24.78125 22.753906 25.328125 L 22.753906 25.394531 L 25.074219 25.394531 L 25.074219 25.328125 C 25.074219 24.78125 24.878906 24.257812 24.519531 23.847656 L 23.308594 23.847656"/></g><path fill="#C4456F" d="M 13.042969 17.664062 C 12.925781 17.664062 12.8125 17.683594 12.703125 17.714844 L 12.703125 15.285156 C 12.453125 15.4375 12.195312 15.582031 11.929688 15.710938 L 11.929688 17.714844 C 11.820312 17.683594 11.707031 17.664062 11.589844 17.664062 C 10.925781 17.664062 10.382812 18.203125 10.382812 18.871094 L 10.382812 18.921875 C 10.382812 19.195312 10.476562 19.460938 10.648438 19.675781 L 12.316406 21.761719 L 13.984375 19.675781 C 14.15625 19.460938 14.25 19.195312 14.25 18.921875 L 14.25 18.871094 C 14.25 18.203125 13.710938 17.664062 13.042969 17.664062"/><path fill="#C4456F" d="M 20.777344 17.664062 C 20.660156 17.664062 20.542969 17.683594 20.4375 17.714844 L 20.4375 14.570312 L 19.664062 14.570312 L 19.664062 17.714844 C 19.554688 17.683594 19.4375 17.664062 19.324219 17.664062 C 18.65625 17.664062 18.117188 18.203125 18.117188 18.871094 L 18.117188 18.921875 C 18.117188 19.195312 18.210938 19.460938 18.378906 19.675781 L 20.050781 21.761719 L 21.71875 19.675781 C 21.890625 19.460938 21.984375 19.195312 21.984375 18.921875 L 21.984375 18.871094 C 21.984375 18.203125 21.441406 17.664062 20.777344 17.664062"/><path fill="#C4456F" d="M 18.117188 15.777344 C 18.117188 15.113281 17.574219 14.570312 16.910156 14.570312 C 16.792969 14.570312 16.679688 14.589844 16.570312 14.621094 L 16.570312 11.378906 C 16.335938 11.777344 16.078125 12.160156 15.796875 12.527344 L 15.796875 14.621094 C 15.6875 14.589844 15.574219 14.570312 15.457031 14.570312 C 14.792969 14.570312 14.25 15.113281 14.25 15.777344 L 14.25 15.828125 C 14.25 16.101562 14.34375 16.371094 14.515625 16.582031 L 16.183594 18.667969 L 17.851562 16.582031 C 18.023438 16.371094 18.117188 16.101562 18.117188 15.828125 L 18.117188 15.777344"/><path fill="#C4456F" d="M 19.664062 13.796875 L 20.4375 13.796875 L 20.4375 13.023438 L 19.664062 13.023438 L 19.664062 13.796875"/><path fill="#C4456F" d="M 20.4375 11.476562 L 19.664062 11.476562 L 19.664062 12.25 L 20.4375 12.25 L 20.4375 11.476562"/><path fill="#C4456F" d="M 20.4375 7.550781 C 20.3125 7.582031 20.179688 7.605469 20.050781 7.605469 C 19.917969 7.605469 19.789062 7.582031 19.664062 7.550781 L 19.664062 10.703125 L 20.4375 10.703125 L 20.4375 7.550781"/></svg>