<svg width="12" height="12" viewBox="0 0 12 12" fill="none" xmlns="http://www.w3.org/2000/svg">
<g clip-path="url(#clip0_543_1087)">
<path d="M9.81539 4.67332C9.81539 7.94506 5.60887 10.7494 5.60887 10.7494C5.60887 10.7494 1.40234 7.94506 1.40234 4.67332C1.40234 3.55768 1.84553 2.48773 2.63441 1.69886C3.42328 0.909983 4.49323 0.466797 5.60887 0.466797C6.7245 0.466797 7.79445 0.909983 8.58332 1.69886C9.3722 2.48773 9.81539 3.55768 9.81539 4.67332Z" stroke="#461952" stroke-width="0.8" stroke-linecap="round" stroke-linejoin="round"/>
<path d="M5.60921 6.07583C6.3836 6.07583 7.01138 5.44806 7.01138 4.67366C7.01138 3.89926 6.3836 3.27148 5.60921 3.27148C4.83481 3.27148 4.20703 3.89926 4.20703 4.67366C4.20703 5.44806 4.83481 6.07583 5.60921 6.07583Z" stroke="#461952" stroke-width="0.8" stroke-linecap="round" stroke-linejoin="round"/>
</g>
<defs>
<clipPath id="clip0_543_1087">
<rect width="11.2174" height="11.2174" fill="white"/>
</clipPath>
</defs>
</svg>
