<svg width="10" height="10" viewBox="0 0 10 10" fill="none" xmlns="http://www.w3.org/2000/svg">
<path d="M5.8427 0V0.831378H8.58042L5.38461 4.02761C4.71416 3.5067 3.87038 3.26093 3.02508 3.34032C2.17977 3.41972 1.39652 3.81832 0.834795 4.45496C0.273073 5.0916 -0.0248725 5.9184 0.0016275 6.76701C0.0281274 7.61562 0.37708 8.42222 0.97743 9.02257C1.57778 9.62292 2.38438 9.97187 3.23299 9.99837C4.0816 10.0249 4.9084 9.72693 5.54504 9.16521C6.18168 8.60348 6.58028 7.82023 6.65968 6.97492C6.73907 6.12962 6.4933 5.28584 5.97239 4.61539L9.16821 1.41916V4.15689H9.99958V0H5.8427ZM3.34856 9.14515C2.85527 9.14515 2.37306 8.99887 1.9629 8.72482C1.55274 8.45076 1.23306 8.06123 1.04429 7.60548C0.85551 7.14974 0.806118 6.64825 0.902355 6.16444C0.998592 5.68062 1.23613 5.23621 1.58495 4.8874C1.93376 4.53859 2.37817 4.30105 2.86198 4.20481C3.3458 4.10858 3.84728 4.15797 4.30303 4.34674C4.75877 4.53552 5.1483 4.8552 5.42236 5.26535C5.69642 5.67551 5.8427 6.15773 5.8427 6.65102C5.84193 7.31227 5.57891 7.94621 5.11133 8.41379C4.64376 8.88136 4.00981 9.14438 3.34856 9.14515Z" fill="#461952"/>
</svg>
