<svg width="8" height="13" viewBox="0 0 8 13" fill="none" xmlns="http://www.w3.org/2000/svg">
<path d="M4.50001 8.96472C5.50953 8.83753 6.43264 8.3304 7.08142 7.54657C7.7302 6.76273 8.05587 5.76111 7.99216 4.7456C7.92844 3.7301 7.48011 2.77704 6.73844 2.08045C5.99677 1.38386 5.01751 0.996094 4.00001 0.996094C2.9825 0.996094 2.00324 1.38386 1.26157 2.08045C0.519902 2.77704 0.0715757 3.7301 0.00785669 4.7456C-0.0558624 5.76111 0.269816 6.76273 0.918595 7.54657C1.56737 8.3304 2.49048 8.83753 3.50001 8.96472V9.99972H1.00001V10.9997H3.50001V12.9997H4.50001V10.9997H7.00001V9.99972H4.50001V8.96472ZM1.00001 4.99972C1.00001 4.40638 1.17595 3.82636 1.5056 3.33301C1.83524 2.83966 2.30378 2.45515 2.85196 2.22808C3.40013 2.00102 4.00333 1.94161 4.58528 2.05736C5.16722 2.17312 5.70177 2.45884 6.12133 2.8784C6.54088 3.29796 6.82661 3.83251 6.94236 4.41445C7.05812 4.99639 6.99871 5.59959 6.77164 6.14777C6.54458 6.69595 6.16006 7.16448 5.66672 7.49413C5.17337 7.82377 4.59335 7.99972 4.00001 7.99972C3.20464 7.99879 2.44212 7.68243 1.87971 7.12002C1.3173 6.55761 1.00093 5.79509 1.00001 4.99972Z" fill="#461952"/>
</svg>
