<svg width="14" height="10" viewBox="0 0 14 10" fill="none" xmlns="http://www.w3.org/2000/svg">
<path d="M11.2667 2.33477H5.63335V5.60153H5.03335V4.49111C5.03265 3.86197 4.78242 3.2588 4.33756 2.81393C3.89269 2.36905 3.28952 2.11881 2.66038 2.1181H1.30002V0.384766H0.43335V9.70143H1.30002V8.40839L12.5667 8.49853V9.70143H13.4333V4.50143C13.4327 3.927 13.2042 3.37628 12.798 2.97009C12.3918 2.5639 11.8411 2.33542 11.2667 2.33477ZM1.30002 2.98477H2.66038C3.05974 2.98522 3.44261 3.14406 3.725 3.42645C4.00738 3.70883 4.16623 4.0917 4.16668 4.49106V5.60148H1.30002V2.98477ZM12.5667 7.63183L1.30002 7.5417V6.4682H12.5667V7.63183ZM12.5667 5.60153H6.50002V3.20143H11.2667C11.6113 3.20183 11.9418 3.33892 12.1855 3.58263C12.4292 3.82634 12.5663 4.15677 12.5667 4.50143V5.60153Z" fill="#A0A0A0"/>
</svg>
