<svg width="12" height="12" viewBox="0 0 17 17" fill="none" xmlns="http://www.w3.org/2000/svg">
<path d="M16.9686 16.4587H15.8047V13.5489C15.8038 12.7774 15.4969 12.0379 14.9514 11.4924C14.406 10.9469 13.6664 10.64 12.8949 10.6391V9.47517C13.975 9.4764 15.0104 9.90599 15.7741 10.6697C16.5378 11.4334 16.9674 12.4688 16.9686 13.5489V16.4587ZM12.313 16.4587H11.1491V13.5489C11.1481 12.7774 10.8413 12.0379 10.2958 11.4924C9.7503 10.9469 9.01072 10.64 8.23928 10.6391H4.74753C3.97609 10.64 3.23651 10.9469 2.69102 11.4924C2.14553 12.0379 1.83867 12.7774 1.83774 13.5489V16.4587H0.673828V13.5489C0.67506 12.4688 1.10465 11.4334 1.86835 10.6697C2.63205 9.90599 3.6675 9.4764 4.74753 9.47517H8.23928C9.31931 9.4764 10.3548 9.90599 11.1185 10.6697C11.8822 11.4334 12.3117 12.4688 12.313 13.5489V16.4587ZM11.1491 0.163849V1.32776C11.9208 1.32776 12.6609 1.63433 13.2066 2.18002C13.7523 2.72571 14.0589 3.46583 14.0589 4.23755C14.0589 5.00928 13.7523 5.74939 13.2066 6.29508C12.6609 6.84077 11.9208 7.14734 11.1491 7.14734V8.31125C12.2295 8.31125 13.2656 7.88206 14.0296 7.11809C14.7936 6.35413 15.2228 5.31796 15.2228 4.23755C15.2228 3.15714 14.7936 2.12098 14.0296 1.35701C13.2656 0.593041 12.2295 0.163849 11.1491 0.163849V0.163849ZM6.4934 1.32776C7.06891 1.32776 7.63148 1.49842 8.10999 1.81815C8.58851 2.13788 8.96146 2.59233 9.1817 3.12402C9.40193 3.65572 9.45956 4.24078 9.34728 4.80522C9.23501 5.36967 8.95788 5.88814 8.55093 6.29508C8.14399 6.70202 7.62552 6.97915 7.06107 7.09143C6.49663 7.2037 5.91157 7.14608 5.37988 6.92584C4.84818 6.70561 4.39373 6.33265 4.074 5.85414C3.75427 5.37563 3.58362 4.81305 3.58362 4.23755C3.58362 3.46583 3.89018 2.72571 4.43587 2.18002C4.98156 1.63433 5.72168 1.32776 6.4934 1.32776M6.4934 0.163849C5.6877 0.163849 4.90009 0.402767 4.23018 0.850392C3.56026 1.29802 3.03812 1.93424 2.72979 2.67861C2.42146 3.42298 2.34079 4.24207 2.49798 5.03229C2.65516 5.82251 3.04314 6.54838 3.61286 7.11809C4.18258 7.68781 4.90844 8.07579 5.69866 8.23298C6.48888 8.39016 7.30797 8.30949 8.05234 8.00116C8.79671 7.69283 9.43294 7.1707 9.88056 6.50078C10.3282 5.83086 10.5671 5.04325 10.5671 4.23755C10.5671 3.15714 10.1379 2.12098 9.37395 1.35701C8.60998 0.593041 7.57382 0.163849 6.4934 0.163849V0.163849Z" fill="black"/>
</svg>
