<svg width="13" height="13" viewBox="0 0 13 13" fill="none" xmlns="http://www.w3.org/2000/svg">
<path d="M6.50024 1.625C6.90199 1.625 7.29471 1.74413 7.62875 1.96733C7.96278 2.19052 8.22313 2.50776 8.37687 2.87892C8.53062 3.25009 8.57084 3.6585 8.49246 4.05253C8.41409 4.44655 8.22063 4.80849 7.93655 5.09256C7.65248 5.37664 7.29055 5.57009 6.89652 5.64847C6.5025 5.72685 6.09408 5.68662 5.72292 5.53288C5.35176 5.37914 5.03452 5.11879 4.81132 4.78475C4.58812 4.45071 4.46899 4.05799 4.46899 3.65625C4.46899 3.11753 4.683 2.60087 5.06393 2.21994C5.44487 1.83901 5.96152 1.625 6.50024 1.625ZM6.50024 0.8125C5.9378 0.8125 5.38799 0.979283 4.92034 1.29176C4.45269 1.60423 4.0882 2.04837 3.87296 2.56799C3.65773 3.08762 3.60141 3.6594 3.71114 4.21104C3.82086 4.76267 4.0917 5.26938 4.48941 5.66709C4.88712 6.06479 5.39382 6.33563 5.94546 6.44536C6.49709 6.55509 7.06887 6.49877 7.5885 6.28353C8.10813 6.0683 8.55226 5.70381 8.86474 5.23615C9.17721 4.7685 9.34399 4.21869 9.34399 3.65625C9.34399 2.90204 9.04439 2.17872 8.51108 1.64542C7.97777 1.11211 7.25445 0.8125 6.50024 0.8125ZM10.5627 12.1875H9.75024V10.1563C9.75024 9.8895 9.6977 9.62537 9.59562 9.37892C9.49354 9.13248 9.34392 8.90856 9.1553 8.71994C8.96669 8.53132 8.74276 8.3817 8.49632 8.27962C8.24988 8.17754 7.98574 8.125 7.71899 8.125H5.28149C4.74277 8.125 4.22612 8.33901 3.84518 8.71994C3.46425 9.10087 3.25024 9.61753 3.25024 10.1563V12.1875H2.43774V10.1563C2.43774 9.40204 2.73735 8.67872 3.27066 8.14542C3.80397 7.61211 4.52728 7.3125 5.28149 7.3125H7.71899C8.4732 7.3125 9.19652 7.61211 9.72983 8.14542C10.2631 8.67872 10.5627 9.40204 10.5627 10.1563V12.1875Z" fill="black"/>
</svg>
