<svg width="16" height="16" viewBox="0 0 16 16" fill="none" xmlns="http://www.w3.org/2000/svg">
<path d="M13 7H6.5V10.7693H5.80769V9.48809C5.80688 8.76216 5.51816 8.06619 5.00485 7.55288C4.49155 7.03956 3.79559 6.75082 3.06966 6.75H1.5V4.75H0.5V15.5H1.5V14.008L14.5 14.112V15.5H15.5V9.5C15.4992 8.83719 15.2356 8.20174 14.7669 7.73306C14.2983 7.26439 13.6628 7.00075 13 7ZM1.5 7.75H3.06966C3.53045 7.75052 3.97222 7.9338 4.29805 8.25963C4.62389 8.58546 4.80717 9.02724 4.80769 9.48803V10.7693H1.5V7.75ZM14.5 13.112L1.5 13.008V11.7693H14.5V13.112ZM14.5 10.7693H7.5V8H13C13.3977 8.00045 13.779 8.15864 14.0602 8.43984C14.3414 8.72105 14.4995 9.10231 14.5 9.5V10.7693Z" fill="black"/>
</svg>
