<svg width="14" height="10" viewBox="0 0 14 10" fill="none" xmlns="http://www.w3.org/2000/svg">
<path d="M12.8824 4.04316L10.4375 3.66649L8.94759 1.23251C8.86938 1.10511 8.75962 1.00005 8.62891 0.927504C8.49821 0.854954 8.35099 0.817367 8.2015 0.818379L1.95722 0.868132C1.77706 0.869653 1.60183 0.927258 1.45591 1.03294C1.30998 1.13862 1.2006 1.28714 1.14296 1.45784L0.43338 3.56198V8.39974H1.92313C2.03894 8.77619 2.27239 9.1056 2.5892 9.33961C2.90602 9.57361 3.28951 9.69988 3.68338 9.69988C4.07725 9.69988 4.46074 9.57361 4.77756 9.33961C5.09437 9.1056 5.32782 8.77619 5.44363 8.39974H8.20646C8.32227 8.77619 8.55572 9.1056 8.87254 9.33961C9.18935 9.57361 9.57285 9.69988 9.96671 9.69988C10.3606 9.69988 10.7441 9.57361 11.0609 9.33961C11.3777 9.1056 11.6112 8.77619 11.727 8.39974H13.4334V4.68558C13.4341 4.53016 13.3788 4.37968 13.2776 4.2617C13.1764 4.14372 13.0361 4.06614 12.8824 4.04316ZM6.06671 1.70203L8.20841 1.68497L9.40278 3.63624L6.06671 3.63507V1.70203ZM1.96416 1.73474L5.20005 1.70896V3.63478L1.32391 3.63339L1.96416 1.73474ZM3.68338 8.83307C3.49054 8.83307 3.30204 8.77589 3.1417 8.66875C2.98136 8.56162 2.85639 8.40934 2.7826 8.23119C2.7088 8.05303 2.68949 7.85699 2.72711 7.66786C2.76473 7.47872 2.85759 7.305 2.99395 7.16864C3.13031 7.03228 3.30404 6.93942 3.49317 6.9018C3.6823 6.86418 3.87834 6.88349 4.0565 6.95729C4.23465 7.03108 4.38693 7.15605 4.49406 7.31639C4.6012 7.47673 4.65838 7.66523 4.65838 7.85807C4.65809 8.11657 4.55528 8.3644 4.37249 8.54718C4.18971 8.72997 3.94188 8.83278 3.68338 8.83307ZM9.96671 8.83307C9.77388 8.83307 9.58537 8.77589 9.42503 8.66875C9.2647 8.56162 9.13973 8.40934 9.06593 8.23119C8.99214 8.05303 8.97283 7.85699 9.01045 7.66786C9.04807 7.47872 9.14093 7.305 9.27728 7.16864C9.41364 7.03228 9.58737 6.93942 9.7765 6.9018C9.96563 6.86418 10.1617 6.88349 10.3398 6.95729C10.518 7.03108 10.6703 7.15605 10.7774 7.31639C10.8845 7.47673 10.9417 7.66523 10.9417 7.85807C10.9414 8.11657 10.8386 8.3644 10.6558 8.54718C10.473 8.72997 10.2252 8.83278 9.96671 8.83307ZM12.5667 7.53307H11.7791C11.7029 7.10779 11.4797 6.72284 11.1483 6.44557C10.817 6.16829 10.3987 6.01636 9.96671 6.01636C9.53468 6.01636 9.1164 6.16829 8.78508 6.44557C8.45375 6.72284 8.23049 7.10779 8.15435 7.53307H5.49574C5.4196 7.10779 5.19634 6.72284 4.86502 6.44557C4.53369 6.16829 4.11542 6.01636 3.68338 6.01636C3.25134 6.01636 2.83307 6.16829 2.50174 6.44557C2.17042 6.72284 1.94716 7.10779 1.87102 7.53307H1.30005V4.50044L10.2518 4.51477L12.5667 4.87143V7.53307Z" fill="#A0A0A0"/>
</svg>
