<svg width="40" height="38" viewBox="0 0 40 38" fill="none" xmlns="http://www.w3.org/2000/svg">
<path d="M36.8993 26.3049V25.9706H37.0498V25.9015H36.6914V25.9706H36.833V26.3049H36.8993ZM37.5949 26.3049V25.9015H37.4865L37.36 26.1896L37.2336 25.9015H37.1252V26.3049H37.2034V25.9994L37.3209 26.2616H37.4022L37.5196 25.9994V26.3049H37.5949Z" fill="#F79E1B"/>
<g clip-path="url(#clip0_175_2409)">
<path d="M20.7214 18.7758L24.7978 14.6995C24.8894 14.5925 24.9372 14.4549 24.9318 14.3142C24.9264 14.1734 24.868 14.0399 24.7685 13.9404C24.6689 13.8408 24.5354 13.7824 24.3946 13.777C24.2539 13.7716 24.1163 13.8194 24.0093 13.911L19.933 17.9874L15.8567 13.9055C15.7497 13.8138 15.6121 13.766 15.4714 13.7714C15.3306 13.7768 15.1971 13.8352 15.0976 13.9348C14.998 14.0344 14.9396 14.1679 14.9342 14.3086C14.9288 14.4493 14.9766 14.5869 15.0682 14.6939L19.1446 18.7758L15.0626 22.8522C15.0041 22.9023 14.9566 22.964 14.923 23.0333C14.8894 23.1027 14.8706 23.1783 14.8676 23.2553C14.8646 23.3323 14.8776 23.4091 14.9057 23.4808C14.9338 23.5526 14.9765 23.6178 15.031 23.6723C15.0855 23.7268 15.1506 23.7694 15.2224 23.7975C15.2941 23.8256 15.3709 23.8386 15.4479 23.8356C15.5249 23.8326 15.6005 23.8138 15.6699 23.7802C15.7393 23.7467 15.8009 23.6991 15.8511 23.6406L19.933 19.5642L24.0093 23.6406C24.1163 23.7322 24.2539 23.7801 24.3946 23.7746C24.5354 23.7692 24.6689 23.7108 24.7685 23.6113C24.868 23.5117 24.9264 23.3782 24.9318 23.2375C24.9372 23.0967 24.8894 22.9591 24.7978 22.8522L20.7214 18.7758Z" fill="#8A8A8A"/>
</g>
<rect x="0.850313" y="0.533541" width="38.1633" height="36.4858" rx="3.98408" stroke="#7B7B7B" stroke-width="0.419377"/>
<defs>
<clipPath id="clip0_175_2409">
<rect width="20.1301" height="20.1301" fill="white" transform="translate(9.86719 8.71143)"/>
</clipPath>
</defs>
</svg>
