<svg width="24" height="24" viewBox="0 0 24 24" fill="none" xmlns="http://www.w3.org/2000/svg">
<rect x="0.25" y="0.25" width="23.5" height="23.5" rx="1.75" fill="white"/>
<path d="M8 8H9H17" stroke="#828282" stroke-width="0.5" stroke-linecap="round" stroke-linejoin="round"/>
<path d="M16 8V15C16 15.2652 15.8946 15.5196 15.7071 15.7071C15.5196 15.8946 15.2652 16 15 16H10C9.73478 16 9.48043 15.8946 9.29289 15.7071C9.10536 15.5196 9 15.2652 9 15V8M10.5 8V7C10.5 6.73478 10.6054 6.48043 10.7929 6.29289C10.9804 6.10536 11.2348 6 11.5 6H13.5C13.7652 6 14.0196 6.10536 14.2071 6.29289C14.3946 6.48043 14.5 6.73478 14.5 7V8" stroke="#828282" stroke-width="0.5" stroke-linecap="round" stroke-linejoin="round"/>
<rect x="0.25" y="0.25" width="23.5" height="23.5" rx="1.75" stroke="#D2D2D2" stroke-width="0.5"/>
</svg>
