<svg width="24" height="24" viewBox="0 0 24 24" fill="none" xmlns="http://www.w3.org/2000/svg">
<path d="M13.3333 18.7665V17.5221C13.3333 16.862 13.0711 16.2289 12.6044 15.7622C12.1376 15.2954 11.5045 15.0332 10.8444 15.0332H6.48889C5.82879 15.0332 5.19574 15.2954 4.72898 15.7622C4.26222 16.2289 4 16.862 4 17.5221V18.7665" stroke="#C4456F" stroke-linecap="round" stroke-linejoin="round"/>
<path d="M8.66858 12.5442C10.0432 12.5442 11.1575 11.4299 11.1575 10.0553C11.1575 8.68072 10.0432 7.56641 8.66858 7.56641C7.294 7.56641 6.17969 8.68072 6.17969 10.0553C6.17969 11.4299 7.294 12.5442 8.66858 12.5442Z" stroke="#C4456F" stroke-linecap="round" stroke-linejoin="round"/>
<path d="M17.3353 18.9376V17.8705C17.3353 17.3045 17.1105 16.7616 16.7103 16.3614C16.31 15.9612 15.7672 15.7363 15.2012 15.7363" stroke="#C4456F" stroke-linecap="round" stroke-linejoin="round"/>
<path d="M13.334 13.6018C14.5127 13.6018 15.4682 12.6463 15.4682 11.4677C15.4682 10.289 14.5127 9.3335 13.334 9.3335" stroke="#C4456F" stroke-linecap="round" stroke-linejoin="round"/>
<path d="M18 2.6665V6.6665" stroke="#C4456F" stroke-linecap="round" stroke-linejoin="round"/>
<path d="M20 4.6665H16" stroke="#C4456F" stroke-linecap="round" stroke-linejoin="round"/>
</svg>
