<svg width="18" height="18" viewBox="0 0 18 18" fill="none" xmlns="http://www.w3.org/2000/svg">
<path d="M7.77572 2.11886C7.1776 2.65043 5.70572 3.94136 4.50479 4.99324C3.30291 6.04418 2.29135 6.96386 2.25666 7.03793C2.21072 7.1298 2.19385 8.53511 2.19385 11.8267C2.19385 16.5057 2.19947 16.6482 2.38885 16.7739C2.42354 16.7973 3.50447 16.8198 4.79166 16.8198H7.13166L7.21791 16.6942C7.29854 16.5854 7.30979 16.2714 7.30979 14.4086V12.2486H10.7588V14.4367C10.7588 16.4879 10.7645 16.637 10.862 16.7223C10.9595 16.8086 11.2126 16.8198 13.2938 16.8198C14.5698 16.8198 15.6442 16.7973 15.6788 16.7739C15.8682 16.6482 15.8748 16.5057 15.8748 11.8201C15.8748 8.67761 15.857 7.11761 15.8167 7.04355C15.7595 6.94136 14.5698 5.87824 10.712 2.49011C9.4651 1.39324 9.17729 1.16449 9.03385 1.16449C8.89604 1.16543 8.66072 1.34261 7.77572 2.11886ZM12.0517 4.7298L15.0413 7.3698L15.0582 11.6945L15.0695 16.0201H11.5688L11.5351 11.6664L11.3963 11.5576C11.2698 11.4554 11.1442 11.4489 9.03385 11.4489C6.92447 11.4489 6.79791 11.4554 6.67135 11.5576L6.53354 11.6664L6.49979 16.0201H2.99822L3.01041 11.6945L3.02729 7.3698L6.01604 4.7298C7.66041 3.27293 9.01697 2.08511 9.03385 2.08511C9.05166 2.08511 10.4082 3.27293 12.0517 4.7298Z" fill="#898484"/>
</svg>
