<svg width="21" height="21" viewBox="0 0 21 21" fill="none" xmlns="http://www.w3.org/2000/svg">
<path d="M16.2338 3.73851C16.2338 3.62585 16.2119 3.51757 16.1692 3.41257C16.1266 3.30866 16.0653 3.21679 15.9855 3.13694C15.9067 3.05601 15.8149 2.99476 15.7121 2.9521C15.6081 2.90835 15.501 2.88647 15.3883 2.88647H5.57189C5.46033 2.88647 5.35314 2.90835 5.24924 2.9521C5.14533 2.99476 5.05455 3.05601 4.97471 3.13694C4.89596 3.21679 4.83471 3.30866 4.79205 3.41257C4.74939 3.51757 4.72752 3.62585 4.72752 3.73851V6.54179L1.66064 8.65601V17.3623C1.66064 17.476 1.68252 17.5843 1.72518 17.6893C1.76783 17.7932 1.82908 17.8851 1.90783 17.9649C1.98658 18.0448 2.07846 18.1071 2.18236 18.1498C2.28518 18.1935 2.39346 18.2154 2.50502 18.2154H18.4563C18.5678 18.2154 18.6761 18.1935 18.7789 18.1498C18.8828 18.1071 18.9736 18.0448 19.0535 17.9649C19.1322 17.8851 19.1935 17.7932 19.2361 17.6893C19.2788 17.5843 19.3006 17.476 19.3006 17.3623V8.65601L16.2338 6.54179V3.73851ZM8.37518 12.0871L2.41096 17.0341V9.43585L8.37518 12.0871ZM9.14518 12.4283L10.4806 13.0179L11.8161 12.4251L17.8777 17.4541H3.08252L9.14518 12.4283ZM12.5861 12.0871L18.5503 9.43585V17.033L12.5861 12.0871ZM5.57189 3.64444H15.3883C15.4146 3.64444 15.4364 3.65319 15.455 3.67179C15.4736 3.69038 15.4824 3.71335 15.4824 3.73851V9.97179L10.4806 12.1943L5.47893 9.97179V3.73851C5.47893 3.71335 5.48768 3.69038 5.50627 3.67179C5.52377 3.65319 5.54674 3.64444 5.57189 3.64444ZM4.72752 9.63819L2.8058 8.78616L4.72752 7.46054V9.63819ZM18.1544 8.78616L16.2338 9.63819V7.46054L18.1544 8.78616Z" fill="#B3B3B3"/>
</svg>
