<svg width="19" height="19" viewBox="0 0 19 19" fill="none" xmlns="http://www.w3.org/2000/svg">
<path d="M9.01215 1.02289C5.92193 1.02289 3.40771 3.5635 3.40771 6.68388C3.40771 9.68548 8.4748 16.6719 8.68974 16.9679C8.76516 17.0707 8.88488 17.1329 9.01215 17.1329C9.13941 17.1329 9.26008 17.0707 9.3355 16.9679C9.55044 16.6719 14.6175 9.68548 14.6175 6.68388C14.6175 3.5635 12.1033 1.02289 9.01215 1.02289ZM9.01215 16.0347C7.88749 14.4339 4.20808 9.01804 4.20808 6.68388C4.20808 4.00752 6.36312 1.83174 9.01215 1.83174C11.6621 1.83174 13.8162 4.00752 13.8162 6.68388C13.8162 9.01616 10.1377 14.433 9.01215 16.0347Z" fill="#B3B3B3"/>
<path d="M9.01239 4.19135C7.68787 4.19135 6.61035 5.28018 6.61035 6.61789C6.61035 7.9556 7.68787 9.04443 9.01239 9.04443C10.3369 9.04443 11.4144 7.9556 11.4144 6.61789C11.4144 5.28018 10.3369 4.19135 9.01239 4.19135ZM9.01239 8.23559C8.12906 8.23559 7.41166 7.5097 7.41166 6.61789C7.41166 5.72514 8.12906 5.00019 9.01239 5.00019C9.89571 5.00019 10.6141 5.72514 10.6141 6.61789C10.6141 7.5097 9.89571 8.23559 9.01239 8.23559Z" fill="#B3B3B3"/>
</svg>
