<svg width="19" height="19" viewBox="0 0 19 19" fill="none" xmlns="http://www.w3.org/2000/svg">
<path d="M6.85183 7.99382C6.85183 7.38808 7.09246 6.80715 7.52078 6.37882C7.94911 5.9505 8.53004 5.70987 9.13578 5.70987C9.74152 5.70987 10.3225 5.9505 10.7508 6.37882C11.1791 6.80715 11.4197 7.38808 11.4197 7.99382C11.4197 8.59956 11.1791 9.1805 10.7508 9.60882C10.3225 10.0371 9.74152 10.2778 9.13578 10.2778C8.53004 10.2778 7.94911 10.0371 7.52078 9.60882C7.09246 9.1805 6.85183 8.59956 6.85183 7.99382ZM9.13578 6.85185C8.83291 6.85185 8.54245 6.97216 8.32828 7.18632C8.11412 7.40049 7.99381 7.69095 7.99381 7.99382C7.99381 8.29669 8.11412 8.58716 8.32828 8.80132C8.54245 9.01548 8.83291 9.1358 9.13578 9.1358C9.43865 9.1358 9.72912 9.01548 9.94328 8.80132C10.1574 8.58716 10.2778 8.29669 10.2778 7.99382C10.2778 7.69095 10.1574 7.40049 9.94328 7.18632C9.72912 6.97216 9.43865 6.85185 9.13578 6.85185ZM6.50353 11.4197C6.12553 11.4197 5.71556 11.6915 5.68131 12.17C5.65504 12.5297 5.68702 13.2229 6.20661 13.8293C6.73307 14.446 7.65578 14.8457 9.13578 14.8457C10.6158 14.8457 11.5385 14.446 12.0661 13.8293C12.5845 13.2229 12.6165 12.5297 12.5914 12.17C12.5571 11.6904 12.146 11.4197 11.768 11.4197H6.50353ZM7.07337 13.087C6.94655 12.9374 6.86356 12.7556 6.83356 12.5617H11.438C11.4079 12.7556 11.325 12.9373 11.1982 13.087C10.9652 13.3577 10.4239 13.7037 9.13578 13.7037C7.84763 13.7037 7.30634 13.3577 7.07337 13.087ZM12.4635 2.28394H13.1327C13.587 2.28394 14.0227 2.46442 14.3439 2.78566C14.6652 3.1069 14.8457 3.5426 14.8457 3.99691V15.4167C14.8457 15.871 14.6652 16.3067 14.3439 16.6279C14.0227 16.9492 13.587 17.1296 13.1327 17.1296H5.13887C4.68456 17.1296 4.24886 16.9492 3.92762 16.6279C3.60638 16.3067 3.4259 15.871 3.4259 15.4167V3.99691C3.4259 3.5426 3.60638 3.1069 3.92762 2.78566C4.24886 2.46442 4.68456 2.28394 5.13887 2.28394H5.80692C5.92505 1.94983 6.1439 1.66057 6.43331 1.45604C6.72271 1.25152 7.06843 1.14178 7.42282 1.14197H10.8487C11.2031 1.14178 11.5488 1.25152 11.8383 1.45604C12.1277 1.66057 12.3465 1.94983 12.4646 2.28394H12.4635ZM5.80806 3.42592H5.13887C4.98743 3.42592 4.8422 3.48608 4.73512 3.59316C4.62804 3.70024 4.56788 3.84547 4.56788 3.99691V15.4167C4.56788 15.5681 4.62804 15.7133 4.73512 15.8204C4.8422 15.9275 4.98743 15.9877 5.13887 15.9877H13.1327C13.2841 15.9877 13.4294 15.9275 13.5364 15.8204C13.6435 15.7133 13.7037 15.5681 13.7037 15.4167V3.99691C13.7037 3.84547 13.6435 3.70024 13.5364 3.59316C13.4294 3.48608 13.2841 3.42592 13.1327 3.42592H12.4646C12.3465 3.76004 12.1277 4.04929 11.8383 4.25382C11.5488 4.45835 11.2031 4.56808 10.8487 4.5679H7.42282C7.06843 4.56808 6.72271 4.45835 6.43331 4.25382C6.1439 4.04929 5.92619 3.76004 5.80806 3.42592ZM6.85183 2.85493C6.85183 3.00637 6.91199 3.1516 7.01907 3.25868C7.12615 3.36576 7.27138 3.42592 7.42282 3.42592H10.8487C11.0002 3.42592 11.1454 3.36576 11.2525 3.25868C11.3596 3.1516 11.4197 3.00637 11.4197 2.85493C11.4197 2.7035 11.3596 2.55826 11.2525 2.45118C11.1454 2.3441 11.0002 2.28394 10.8487 2.28394H7.42282C7.27138 2.28394 7.12615 2.3441 7.01907 2.45118C6.91199 2.55826 6.85183 2.7035 6.85183 2.85493Z" fill="white"/>
</svg>
