<svg width="64" height="65" viewBox="0 0 64 65" fill="none" xmlns="http://www.w3.org/2000/svg">
<rect  width="64" height="64" rx="32" fill="#461952"/>
<path d="M23.4737 20.6065C22.4209 20.6065 21.5634 21.4627 21.5634 22.5155C21.5634 23.567 22.4209 24.4245 23.4737 24.4245C24.5277 24.4245 25.3851 23.567 25.3851 22.5155C25.3851 21.4627 24.5277 20.6065 23.4737 20.6065Z" fill="white"/>
<path d="M24.748 37.1514H22.1994C21.4963 37.1514 20.9263 37.7201 20.9263 38.4232V39.0603C20.9263 39.4113 21.2113 39.6963 21.5635 39.6963H25.3852C25.7374 39.6963 26.0223 39.4113 26.0223 39.0603V38.4232C26.0223 37.7201 25.4511 37.1514 24.748 37.1514Z" fill="white"/>
<path d="M23.4737 25.644C23.0207 25.644 22.5913 25.5644 22.1993 25.4275V35.8783H24.748V25.4275C24.3572 25.5644 23.9279 25.644 23.4737 25.644Z" fill="white"/>
<path d="M41.395 37.1514H38.8463C38.1432 37.1514 37.5733 37.7201 37.5733 38.4232V39.0603C37.5733 39.4113 37.8583 39.6963 38.2104 39.6963H42.0321C42.3843 39.6963 42.6693 39.4113 42.6693 39.0603V38.4232C42.6693 37.7201 42.0981 37.1514 41.395 37.1514Z" fill="white"/>
<path d="M40.1206 20.6065C39.0678 20.6065 38.2104 21.4627 38.2104 22.5155C38.2104 23.567 39.0678 24.4245 40.1206 24.4245C41.1747 24.4245 42.0321 23.567 42.0321 22.5155C42.0321 21.4627 41.1747 20.6065 40.1206 20.6065Z" fill="white"/>
<path d="M40.1206 25.644C39.6676 25.644 39.2383 25.5644 38.8463 25.4275V35.8783H41.3949V25.4275C41.0042 25.5644 40.5748 25.644 40.1206 25.644Z" fill="white"/>
<path d="M31.9731 26.9682C29.819 27.0117 27.7371 26.3509 26.0222 25.1488V29.5218C27.7968 30.3332 29.7767 30.7874 31.7977 30.7874C33.8249 30.7874 35.8011 30.3369 37.5731 29.5305V25.1389C35.9554 26.2725 34.0066 26.9321 31.9731 26.9682Z" fill="white"/>
</svg>
