<svg width="64" height="65" viewBox="0 0 64 65" fill="none" xmlns="http://www.w3.org/2000/svg">
<rect  width="64" height="64" rx="32" fill="#461952"/>
<path d="M26.4267 24.4153C26.4865 24.3953 26.54 24.3655 26.5873 24.3244C26.6346 24.2833 26.6719 24.2348 26.7005 24.1776C26.7279 24.1216 26.7453 24.0631 26.7491 23.9996C26.754 23.9374 26.7453 23.8764 26.7267 23.8167C26.7067 23.7569 26.6756 23.7034 26.6346 23.6561C26.5935 23.6089 26.545 23.5715 26.489 23.5429C26.433 23.5155 26.3732 23.4993 26.311 23.4944C26.2475 23.4894 26.1866 23.4981 26.1268 23.5168C25.4785 23.7333 24.8612 24.017 24.2751 24.368C23.689 24.7201 23.1489 25.1308 22.6523 25.6C22.1558 26.0704 21.7165 26.5881 21.3345 27.1543C20.9512 27.7205 20.6351 28.3216 20.3837 28.9575C20.3613 29.016 20.3514 29.0769 20.3526 29.1404C20.3551 29.2026 20.37 29.2624 20.3962 29.3196C20.4223 29.3769 20.4584 29.4279 20.5057 29.4702C20.5517 29.5125 20.6052 29.5436 20.665 29.5648C20.7197 29.5872 20.7782 29.5984 20.8379 29.5984C20.9338 29.5984 21.0209 29.571 21.1005 29.5175C21.1789 29.464 21.2374 29.3918 21.2723 29.3034C21.4975 28.7322 21.7825 28.1934 22.1259 27.6844C22.4694 27.1767 22.8639 26.7113 23.3094 26.2894C23.7537 25.8675 24.239 25.4979 24.7654 25.1818C25.2918 24.8657 25.8456 24.6106 26.4267 24.4153Z" fill="white"/>
<path d="M34.2517 39.05C33.8846 39.3362 33.4963 39.5889 33.0881 39.8104C32.6787 40.0319 32.2544 40.2173 31.8151 40.3679C31.3758 40.5185 30.9265 40.6329 30.4686 40.7089C30.0094 40.786 29.5477 40.8233 29.0835 40.8233C28.6181 40.8233 28.1564 40.786 27.6985 40.7089C27.2405 40.6329 26.7913 40.5185 26.3507 40.3679C25.9114 40.2173 25.4871 40.0319 25.0789 39.8104C24.6695 39.5889 24.2812 39.3362 23.9153 39.05C23.8656 39.0127 23.8121 38.9853 23.7511 38.9691C23.6913 38.9517 23.6316 38.948 23.5694 38.9554C23.5072 38.9629 23.4499 38.9828 23.3964 39.0127C23.3417 39.0438 23.2956 39.0836 23.2583 39.1321C23.2197 39.1819 23.1923 39.2354 23.1761 39.2952C23.1587 39.3561 23.155 39.4159 23.1625 39.4781C23.1699 39.5391 23.1898 39.5976 23.2197 39.6511C23.2508 39.7058 23.2906 39.7519 23.3392 39.7892C23.7473 40.1065 24.1779 40.3878 24.6321 40.6342C25.0876 40.8793 25.558 41.0859 26.0471 41.2539C26.5361 41.4219 27.0352 41.5476 27.5441 41.6335C28.0531 41.7181 28.5671 41.7604 29.0835 41.7604C29.6 41.7604 30.1127 41.7181 30.6229 41.6335C31.1319 41.5476 31.6309 41.4219 32.12 41.2539C32.6078 41.0859 33.0794 40.8793 33.5337 40.6342C33.9879 40.3878 34.4197 40.1065 34.8266 39.7892C34.8764 39.7519 34.9162 39.7058 34.9461 39.6511C34.9772 39.5976 34.9959 39.5391 35.0033 39.4781C35.0121 39.4159 35.0071 39.3561 34.9909 39.2952C34.9747 39.2354 34.9473 39.1819 34.9088 39.1321C34.8702 39.0836 34.8241 39.0438 34.7706 39.0127C34.7171 38.9828 34.6586 38.9629 34.5977 38.9554C34.5354 38.948 34.4745 38.9517 34.4147 38.9691C34.355 38.9853 34.3002 39.0127 34.2517 39.05Z" fill="white"/>
<path d="M37.7835 28.9576C37.5334 28.3267 37.2186 27.7294 36.839 27.1669C36.4582 26.6044 36.0226 26.0892 35.5311 25.6213C35.0395 25.1534 34.5032 24.7452 33.922 24.3943C33.3409 24.0433 32.7286 23.7583 32.0865 23.5406C32.0267 23.5207 31.967 23.5132 31.9048 23.5169C31.8426 23.5207 31.7841 23.5368 31.7281 23.5642C31.6721 23.5928 31.6235 23.6302 31.5825 23.6762C31.5426 23.7235 31.5115 23.777 31.4916 23.8355C31.468 23.8965 31.458 23.9587 31.4605 24.0234C31.4618 24.0881 31.4779 24.1503 31.5053 24.2088C31.5327 24.2673 31.5713 24.3171 31.621 24.3594C31.6696 24.403 31.7256 24.4341 31.7866 24.4527C32.3665 24.6481 32.919 24.9032 33.4442 25.2181C33.9681 25.5329 34.4534 25.9013 34.8977 26.3219C35.3419 26.7425 35.7352 27.2067 36.0786 27.7132C36.4209 28.2197 36.7058 28.7585 36.9323 29.3272C36.9672 29.4156 37.0244 29.4865 37.1041 29.5413C37.1837 29.5948 37.2708 29.6209 37.3666 29.6209C37.4264 29.6209 37.4836 29.611 37.5396 29.5886C37.5994 29.5637 37.6504 29.5288 37.6952 29.4828C37.74 29.4367 37.7736 29.3845 37.796 29.3247C37.8196 29.265 37.8296 29.204 37.8271 29.1393C37.8246 29.0759 37.8109 29.0149 37.7835 28.9576Z" fill="white"/>
<path d="M21.5995 31.0009C21.5075 31.0009 21.4166 31.0096 21.3258 31.0283C21.2362 31.0457 21.1478 31.0731 21.0632 31.1079C20.9773 31.1428 20.8964 31.1863 20.8205 31.2374C20.7434 31.2884 20.6724 31.3469 20.6077 31.4116C20.543 31.4775 20.4845 31.5485 20.4335 31.6244C20.3825 31.7015 20.3389 31.7824 20.3028 31.867C20.268 31.9529 20.2419 32.04 20.2232 32.1309C20.2058 32.2205 20.1971 32.3126 20.1971 32.4046C20.1971 32.5117 20.2095 32.6174 20.2344 32.722L20.2618 32.8016C20.2829 32.875 20.3091 32.9472 20.3414 33.0169L20.3837 33.0916C20.4248 33.1613 20.4696 33.2285 20.5194 33.2932L20.5567 33.3355C20.6264 33.4102 20.7011 33.4786 20.7807 33.5408C20.8927 33.6205 21.0147 33.6827 21.1453 33.7275C21.2747 33.7723 21.4091 33.7972 21.5473 33.8022C21.6842 33.8071 21.8198 33.7922 21.953 33.7574C22.0861 33.7225 22.2118 33.669 22.33 33.5968C22.5217 33.4774 22.6785 33.3218 22.7967 33.1289L22.8303 33.0679C22.8689 32.9908 22.9012 32.9111 22.9286 32.8302C22.9386 32.8029 22.946 32.7742 22.951 32.7456C22.9834 32.6336 23.0008 32.5204 23.0033 32.4046C23.0033 32.3126 22.9946 32.2205 22.9759 32.1309C22.9585 32.04 22.9311 31.9529 22.8963 31.867C22.8614 31.7824 22.8179 31.7015 22.7668 31.6244C22.7158 31.5485 22.6573 31.4775 22.5926 31.4116C22.5267 31.3469 22.4557 31.2884 22.3798 31.2374C22.3027 31.1863 22.2218 31.1428 22.1371 31.1079C22.0513 31.0731 21.9642 31.0457 21.8733 31.0283C21.7837 31.0096 21.6916 31.0009 21.5995 31.0009Z" fill="white"/>
<path d="M23.522 34.4668L23.1051 34.1868C22.804 34.4469 22.458 34.6174 22.0673 34.6958V36.1456C22.0673 36.2078 22.0561 36.2675 22.0312 36.3248C22.0075 36.382 21.9739 36.4331 21.9304 36.4766C21.8868 36.5202 21.8358 36.555 21.7786 36.5787C21.7213 36.6023 21.6616 36.6135 21.5994 36.6135C21.5371 36.6135 21.4774 36.6023 21.4202 36.5787C21.3629 36.555 21.3131 36.5202 21.2683 36.4766C21.2248 36.4331 21.1912 36.382 21.1675 36.3248C21.1439 36.2675 21.1314 36.2078 21.1314 36.1456V34.6958C20.7407 34.6174 20.3947 34.4469 20.0936 34.1868L19.6767 34.4668C19.5473 34.5539 19.4452 34.6659 19.3718 34.8028C19.2984 34.941 19.261 35.0878 19.261 35.2434V37.5493H23.9377V35.2434C23.9377 35.0878 23.9003 34.941 23.8269 34.8028C23.7535 34.6659 23.6514 34.5539 23.522 34.4668Z" fill="white"/>
<path d="M36.5666 31.0009C36.4745 31.0009 36.3836 31.0096 36.2928 31.0283C36.2032 31.0457 36.1148 31.0731 36.0302 31.1079C35.9443 31.1428 35.8647 31.1863 35.7875 31.2374C35.7104 31.2884 35.6394 31.3469 35.5747 31.4116C35.51 31.4775 35.4515 31.5485 35.4005 31.6244C35.3495 31.7015 35.3059 31.7824 35.2711 31.867C35.235 31.9529 35.2089 32.04 35.1914 32.1309C35.1728 32.2205 35.1641 32.3126 35.1641 32.4046C35.1641 32.5117 35.1765 32.6174 35.2014 32.722L35.2288 32.8016C35.2499 32.875 35.2773 32.9472 35.3084 33.0169L35.3507 33.0916C35.3918 33.1613 35.4366 33.2285 35.4864 33.2932L35.5237 33.3355C35.5934 33.4102 35.6681 33.4786 35.749 33.5408C35.861 33.6205 35.9817 33.6827 36.1123 33.7275C36.243 33.7723 36.3762 33.7972 36.5143 33.8022C36.6524 33.8071 36.7868 33.7922 36.92 33.7574C37.0544 33.7225 37.1788 33.669 37.297 33.5968C37.4899 33.4774 37.6455 33.3218 37.765 33.1289L37.7973 33.0679C37.8359 32.9908 37.8682 32.9111 37.8956 32.8302C37.8981 32.8016 37.8981 32.7742 37.8956 32.7456C37.9354 32.6349 37.9603 32.5216 37.9703 32.4046C37.9703 32.3126 37.9616 32.2205 37.9429 32.1309C37.9255 32.04 37.8981 31.9529 37.8633 31.867C37.8284 31.7824 37.7849 31.7015 37.7338 31.6244C37.6828 31.5485 37.6243 31.4775 37.5596 31.4116C37.4937 31.3469 37.4227 31.2884 37.3468 31.2374C37.2697 31.1863 37.1888 31.1428 37.1042 31.1079C37.0183 31.0731 36.9312 31.0457 36.8403 31.0283C36.7507 31.0096 36.6586 31.0009 36.5666 31.0009Z" fill="white"/>
<path d="M38.4892 34.4668L38.0735 34.1868C37.7711 34.4469 37.4252 34.6174 37.0344 34.6958V36.1456C37.0344 36.2078 37.0232 36.2675 36.9996 36.3248C36.9759 36.382 36.9411 36.4331 36.8975 36.4766C36.854 36.5202 36.8029 36.555 36.7457 36.5787C36.6884 36.6023 36.6287 36.6135 36.5665 36.6135C36.5055 36.6135 36.4458 36.6023 36.3885 36.5787C36.3313 36.555 36.2803 36.5202 36.2367 36.4766C36.1919 36.4331 36.1583 36.382 36.1347 36.3248C36.111 36.2675 36.0998 36.2078 36.0998 36.1456V34.6958C35.7091 34.6174 35.3631 34.4469 35.0607 34.1868L34.6451 34.4668C34.5144 34.5539 34.4136 34.6659 34.3389 34.8028C34.2655 34.941 34.2282 35.0878 34.2282 35.2434V37.5493H38.906V35.2434C38.9048 35.0878 38.8687 34.941 38.794 34.8028C38.7206 34.6659 38.6186 34.5539 38.4892 34.4668Z" fill="white"/>
<path d="M29.0835 22.5823C28.9915 22.5823 28.8994 22.591 28.8098 22.6084C28.7189 22.6271 28.6318 22.6532 28.5459 22.6893C28.4613 22.7241 28.3804 22.7677 28.3033 22.8187C28.2274 22.8697 28.1564 22.9282 28.0917 22.9929C28.0258 23.0577 27.9673 23.1286 27.9163 23.2057C27.8652 23.2817 27.8217 23.3625 27.7868 23.4484C27.752 23.533 27.7246 23.6214 27.7072 23.711C27.6885 23.8018 27.6798 23.8927 27.6798 23.9848C27.6811 24.093 27.6935 24.1988 27.7171 24.3033L27.7458 24.383C27.7669 24.4564 27.7931 24.5286 27.8254 24.5983L27.8677 24.6729C27.9075 24.7426 27.9536 24.8098 28.0034 24.8733L28.0407 24.9156C28.1091 24.9903 28.1838 25.0587 28.2647 25.1222C28.3767 25.2018 28.4974 25.2641 28.6281 25.3089C28.7587 25.3537 28.8931 25.3773 29.03 25.3823C29.1682 25.3873 29.3038 25.3723 29.437 25.3375C29.5701 25.3026 29.6958 25.2491 29.8128 25.1782C30.0057 25.0587 30.1612 24.9032 30.2807 24.7103L30.3131 24.6493C30.3516 24.5721 30.384 24.4925 30.4114 24.4104C30.4139 24.383 30.4139 24.3544 30.4114 24.327C30.4524 24.2162 30.4773 24.103 30.486 23.9848C30.486 23.8927 30.4773 23.8018 30.4599 23.711C30.4412 23.6214 30.4151 23.533 30.3803 23.4484C30.3442 23.3625 30.3006 23.2817 30.2496 23.2057C30.1986 23.1286 30.1401 23.0577 30.0754 22.9929C30.0107 22.9282 29.9397 22.8697 29.8626 22.8187C29.7867 22.7677 29.7058 22.7241 29.6199 22.6893C29.5353 22.6532 29.4469 22.6271 29.3573 22.6084C29.2665 22.591 29.1756 22.5823 29.0835 22.5823Z" fill="white"/>
<path d="M31.0064 26.0481L30.5895 25.7668C30.2884 26.0282 29.9424 26.1974 29.5516 26.2771V27.7268C29.5516 27.7891 29.5392 27.8488 29.5156 27.906C29.4919 27.9633 29.4583 28.0143 29.4148 28.0579C29.37 28.1014 29.3202 28.135 29.2629 28.1587C29.2057 28.1823 29.146 28.1948 29.0837 28.1948C29.0215 28.1948 28.9618 28.1823 28.9045 28.1587C28.8473 28.135 28.7963 28.1014 28.7527 28.0579C28.7092 28.0143 28.6756 27.9633 28.6519 27.906C28.627 27.8488 28.6158 27.7891 28.6158 27.7268V26.2771C28.2251 26.1974 27.8791 26.0282 27.578 25.7668L27.1611 26.0481C27.0316 26.134 26.9296 26.246 26.8562 26.3841C26.7828 26.521 26.7454 26.6678 26.7454 26.8246V29.1306H31.422V26.8246C31.422 26.6678 31.3847 26.521 31.3113 26.3841C31.2379 26.246 31.1358 26.134 31.0064 26.0481Z" fill="white"/>
</svg>
