<svg width="64" height="65" viewBox="0 0 64 65" fill="none" xmlns="http://www.w3.org/2000/svg">
<rect width="64" height="64" rx="32" fill="#461952"/>
<path fill-rule="evenodd" clip-rule="evenodd" d="M37.5547 39.7138L38.6212 41.1287L39.6864 39.7138V37.4501H37.5547V39.7138Z" fill="white"/>
<path fill-rule="evenodd" clip-rule="evenodd" d="M34.8679 24.2926H33.2912V25.3529C33.2912 25.4711 33.1954 25.5657 33.0771 25.5657H26.6819C26.565 25.5657 26.4691 25.4711 26.4691 25.3529V24.2926H24.8912C24.3511 24.2926 23.9106 24.7294 23.9106 25.2682V40.2937C23.9106 40.8313 24.3511 41.2693 24.8912 41.2693H34.8679C35.4092 41.2693 35.8498 40.8313 35.8498 40.2937V25.2682C35.8498 24.7294 35.4092 24.2926 34.8679 24.2926ZM26.8947 27.0515C26.8947 26.9333 26.9906 26.8387 27.1088 26.8387H32.2247C32.3429 26.8387 32.4375 26.9333 32.4375 27.0515V30.4464C32.4375 30.5634 32.3429 30.6592 32.2247 30.6592H27.1088C26.9906 30.6592 26.8947 30.5634 26.8947 30.4464V27.0515ZM27.1088 31.9322H29.6674C29.7843 31.9322 29.8802 32.0268 29.8802 32.145C29.8802 32.262 29.7843 32.3566 29.6674 32.3566H27.1088C26.9906 32.3566 26.896 32.2608 26.896 32.145C26.8947 32.0268 26.9906 31.9322 27.1088 31.9322ZM27.1088 33.2053H29.6674C29.7843 33.2053 29.8802 33.3011 29.8802 33.4181C29.8802 33.5351 29.7843 33.6297 29.6674 33.6297H27.1088C26.9906 33.6297 26.896 33.5351 26.896 33.4181C26.8947 33.3011 26.9906 33.2053 27.1088 33.2053ZM27.1088 34.4796H31.3722C31.4905 34.4796 31.585 34.5742 31.585 34.6912C31.585 34.8082 31.4892 34.9027 31.3722 34.9027H27.1088C26.9906 34.9027 26.896 34.8082 26.896 34.6912C26.8947 34.5742 26.9906 34.4796 27.1088 34.4796ZM27.1088 35.7527H31.3722C31.4905 35.7527 31.585 35.8473 31.585 35.9642C31.585 36.0812 31.4892 36.177 31.3722 36.177H27.1088C26.9906 36.177 26.896 36.0812 26.896 35.9642C26.8947 35.8473 26.9906 35.7527 27.1088 35.7527ZM34.5705 39.7847C34.5705 39.9017 34.4746 39.9962 34.3564 39.9962H25.4039C25.2857 39.9962 25.1898 39.9017 25.1898 39.7847V27.0515C25.1898 26.9333 25.2857 26.8387 25.4039 26.8387C25.5209 26.8387 25.6167 26.9333 25.6167 27.0515V39.5719H34.1436V29.1733C34.1436 29.0563 34.2394 28.9618 34.3564 28.9618C34.4746 28.9618 34.5692 29.0563 34.5692 29.1733L34.5705 39.7847Z" fill="white"/>
<path fill-rule="evenodd" clip-rule="evenodd" d="M37.5547 37.0245H39.6864V36.177H37.5547V37.0245Z" fill="white"/>
<path fill-rule="evenodd" clip-rule="evenodd" d="M27.3217 30.2349H32.012V27.2631H27.3217V30.2349Z" fill="white"/>
<path fill-rule="evenodd" clip-rule="evenodd" d="M32.8642 23.444H30.9465C30.8283 23.444 30.7325 23.3481 30.7325 23.2312V23.0196C30.7325 22.5504 30.3505 22.1696 29.8801 22.1696C29.4097 22.1696 29.0276 22.5504 29.0276 23.0196V23.2312C29.0276 23.3481 28.9318 23.444 28.8148 23.444H26.8959V25.1414H32.8642C32.8642 24.5752 32.8642 24.0089 32.8642 23.444Z" fill="white"/>
<path fill-rule="evenodd" clip-rule="evenodd" d="M37.5547 35.7527H39.6864V27.6875H37.5547V35.7527Z" fill="white"/>
<path fill-rule="evenodd" clip-rule="evenodd" d="M38.6212 25.1414C38.0326 25.1414 37.5547 25.6167 37.5547 26.2029V27.2631H39.6864V26.2029C39.6864 25.6167 39.2073 25.1414 38.6212 25.1414Z" fill="white"/>
</svg>
