<svg width="19" height="19" viewBox="0 0 19 19" fill="none" xmlns="http://www.w3.org/2000/svg">
<path d="M6.85186 1.52271H13.7037C14.5412 1.52271 15.2263 2.20789 15.2263 3.04534V15.2264C15.2263 16.0639 14.5412 16.749 13.7037 16.749H6.85186C6.01441 16.749 5.32922 16.0639 5.32922 15.2264V14.4651C5.32922 14.2632 5.40943 14.0695 5.55221 13.9268C5.69498 13.784 5.88863 13.7038 6.09054 13.7038C6.29245 13.7038 6.4861 13.784 6.62887 13.9268C6.77165 14.0695 6.85186 14.2632 6.85186 14.4651V15.2264H13.7037V3.04534H6.85186V3.80666C6.85186 4.00857 6.77165 4.20221 6.62887 4.34499C6.4861 4.48776 6.29245 4.56797 6.09054 4.56797C5.88863 4.56797 5.69498 4.48776 5.55221 4.34499C5.40943 4.20221 5.32922 4.00857 5.32922 3.80666V3.04534C5.32922 2.20789 6.01441 1.52271 6.85186 1.52271Z" fill="white"/>
<path d="M8.2184 12.4057C8.51532 12.7026 8.99495 12.7026 9.29186 12.4057L12.0235 9.6741C12.1662 9.53133 12.2464 9.33772 12.2464 9.13585C12.2464 8.93397 12.1662 8.74037 12.0235 8.5976L9.29186 5.86599C9.14714 5.73519 8.9577 5.665 8.76269 5.66992C8.56768 5.67484 8.38202 5.75451 8.24409 5.89244C8.10616 6.03037 8.02649 6.21603 8.02157 6.41104C8.01665 6.60605 8.08684 6.79549 8.21764 6.94021L9.64587 8.37453H3.04525C2.84334 8.37453 2.64969 8.45474 2.50692 8.59752C2.36415 8.74029 2.28394 8.93393 2.28394 9.13585C2.28394 9.33776 2.36415 9.53141 2.50692 9.67418C2.64969 9.81696 2.84334 9.89717 3.04525 9.89717H9.64587L8.21764 11.3315C8.07553 11.4742 7.9958 11.6674 7.99594 11.8688C7.99609 12.0701 8.07609 12.2632 8.2184 12.4057Z" fill="white"/>
</svg>
