<svg xmlns="http://www.w3.org/2000/svg" xmlns:xlink="http://www.w3.org/1999/xlink" width="100" zoomAndPan="magnify" viewBox="0 0 75 74.999997" height="100" preserveAspectRatio="xMidYMid meet" version="1.0"><defs><clipPath id="ae925e898c"><path d="M 9.148438 18 L 12 18 L 12 21 L 9.148438 21 Z M 9.148438 18 " clip-rule="nonzero"/></clipPath><clipPath id="d44b66363b"><path d="M 9.148438 9.148438 L 66 9.148438 L 66 66.148438 L 9.148438 66.148438 Z M 9.148438 9.148438 " clip-rule="nonzero"/></clipPath></defs><path fill="#000000" d="M 24.417969 49.679688 L 23.878906 50.21875 L 23.34375 49.679688 C 22.164062 48.5 20.105469 48.5 18.925781 49.679688 C 17.992188 50.617188 17.476562 51.859375 17.476562 53.183594 L 17.476562 53.339844 C 17.476562 54.765625 18.03125 56.105469 19.039062 57.113281 L 23.234375 61.308594 C 23.410156 61.484375 23.644531 61.574219 23.878906 61.574219 C 24.113281 61.574219 24.347656 61.484375 24.527344 61.308594 L 28.722656 57.113281 C 29.730469 56.105469 30.285156 54.765625 30.285156 53.339844 L 30.285156 53.183594 C 30.285156 51.863281 29.769531 50.617188 28.832031 49.679688 C 27.65625 48.5 25.597656 48.5 24.417969 49.679688 Z M 28.453125 53.339844 C 28.453125 54.277344 28.089844 55.15625 27.429688 55.816406 L 23.878906 59.367188 L 20.332031 55.816406 C 19.667969 55.15625 19.304688 54.277344 19.304688 53.339844 L 19.304688 53.183594 C 19.304688 52.351562 19.628906 51.566406 20.21875 50.976562 C 20.460938 50.734375 20.796875 50.597656 21.136719 50.597656 C 21.476562 50.597656 21.808594 50.734375 22.050781 50.976562 L 23.234375 52.15625 C 23.589844 52.515625 24.167969 52.515625 24.527344 52.15625 L 25.710938 50.976562 C 26.191406 50.492188 27.058594 50.492188 27.539062 50.976562 C 28.128906 51.566406 28.453125 52.347656 28.453125 53.183594 Z M 28.453125 53.339844 " fill-opacity="1" fill-rule="nonzero"/><path fill="#000000" d="M 18.390625 24.0625 C 20.914062 24.0625 22.964844 22.011719 22.964844 19.488281 C 22.964844 16.964844 20.914062 14.914062 18.390625 14.914062 C 15.867188 14.914062 13.816406 16.964844 13.816406 19.488281 C 13.816406 22.011719 15.867188 24.0625 18.390625 24.0625 Z M 18.390625 16.742188 C 19.902344 16.742188 21.136719 17.976562 21.136719 19.488281 C 21.136719 21.003906 19.902344 22.234375 18.390625 22.234375 C 16.878906 22.234375 15.644531 21.003906 15.644531 19.488281 C 15.644531 17.976562 16.878906 16.742188 18.390625 16.742188 Z M 18.390625 16.742188 " fill-opacity="1" fill-rule="nonzero"/><path fill="#000000" d="M 17.476562 10.339844 L 19.304688 10.339844 L 19.304688 13.085938 L 17.476562 13.085938 Z M 17.476562 10.339844 " fill-opacity="1" fill-rule="nonzero"/><path fill="#000000" d="M 17.476562 25.894531 L 19.304688 25.894531 L 19.304688 28.636719 L 17.476562 28.636719 Z M 17.476562 25.894531 " fill-opacity="1" fill-rule="nonzero"/><g clip-path="url(#ae925e898c)"><path fill="#000000" d="M 9.242188 18.574219 L 11.984375 18.574219 L 11.984375 20.402344 L 9.242188 20.402344 Z M 9.242188 18.574219 " fill-opacity="1" fill-rule="nonzero"/></g><path fill="#000000" d="M 24.796875 18.574219 L 27.539062 18.574219 L 27.539062 20.402344 L 24.796875 20.402344 Z M 24.796875 18.574219 " fill-opacity="1" fill-rule="nonzero"/><path fill="#000000" d="M 22.320312 14.265625 L 24.148438 12.4375 L 25.441406 13.730469 L 23.613281 15.5625 Z M 22.320312 14.265625 " fill-opacity="1" fill-rule="nonzero"/><path fill="#000000" d="M 11.339844 25.246094 L 13.167969 23.417969 L 14.464844 24.710938 L 12.632812 26.539062 Z M 11.339844 25.246094 " fill-opacity="1" fill-rule="nonzero"/><path fill="#000000" d="M 11.339844 13.730469 L 12.632812 12.4375 L 14.464844 14.265625 L 13.167969 15.5625 Z M 11.339844 13.730469 " fill-opacity="1" fill-rule="nonzero"/><path fill="#000000" d="M 22.320312 24.710938 L 23.613281 23.417969 L 25.441406 25.246094 L 24.148438 26.539062 Z M 22.320312 24.710938 " fill-opacity="1" fill-rule="nonzero"/><g clip-path="url(#d44b66363b)"><path fill="#000000" d="M 65.699219 58.183594 L 60.542969 53.027344 C 57.265625 49.75 53.085938 47.722656 48.566406 47.136719 C 49.175781 43.832031 49.5 40.464844 49.5 37.109375 C 49.5 35.703125 49.445312 34.277344 49.335938 32.871094 L 48.65625 24.035156 C 49.636719 24.015625 50.527344 23.613281 51.175781 22.964844 L 59.957031 29.003906 C 60.113281 29.109375 60.296875 29.164062 60.476562 29.164062 C 60.660156 29.164062 60.839844 29.109375 60.996094 29 C 61.308594 28.785156 61.457031 28.394531 61.363281 28.027344 L 60.527344 24.675781 C 59.835938 21.914062 58.023438 19.519531 55.550781 18.105469 C 54.597656 17.5625 53.558594 17.175781 52.484375 16.949219 L 62.636719 13 C 62.984375 12.867188 63.214844 12.535156 63.222656 12.164062 C 63.230469 11.792969 63.007812 11.453125 62.667969 11.308594 L 60.382812 10.328125 C 57.53125 9.109375 54.269531 9.128906 51.433594 10.390625 C 49.300781 11.335938 47.523438 12.941406 46.34375 14.945312 C 46.175781 14.921875 46.011719 14.894531 45.839844 14.894531 C 45.664062 14.894531 45.5 14.921875 45.332031 14.945312 C 44.15625 12.941406 42.375 11.335938 40.242188 10.390625 C 37.40625 9.128906 34.148438 9.105469 31.292969 10.328125 L 29.007812 11.308594 C 28.667969 11.453125 28.449219 11.792969 28.453125 12.164062 C 28.460938 12.535156 28.691406 12.867188 29.039062 13 L 39.191406 16.949219 C 38.121094 17.175781 37.078125 17.5625 36.125 18.105469 C 33.65625 19.519531 31.839844 21.914062 31.152344 24.675781 L 30.3125 28.027344 C 30.222656 28.394531 30.367188 28.785156 30.679688 29 C 30.835938 29.109375 31.019531 29.164062 31.199219 29.164062 C 31.382812 29.164062 31.5625 29.109375 31.71875 29.003906 L 40.503906 22.964844 C 41.167969 23.628906 42.082031 24.042969 43.09375 24.042969 C 43.117188 24.042969 43.136719 24.039062 43.160156 24.039062 L 43.851562 33.011719 C 43.957031 34.371094 44.007812 35.75 44.007812 37.109375 C 44.007812 40.464844 43.679688 43.832031 43.050781 47.128906 C 41.5 47.335938 39.988281 47.71875 38.519531 48.273438 L 38.519531 46.9375 C 38.519531 45.421875 37.289062 44.191406 35.773438 44.191406 L 28.453125 44.191406 L 28.453125 41.445312 C 28.453125 40.941406 28.046875 40.53125 27.539062 40.53125 L 20.21875 40.53125 C 19.714844 40.53125 19.304688 40.941406 19.304688 41.445312 L 19.304688 44.191406 L 11.984375 44.191406 C 10.472656 44.191406 9.242188 45.421875 9.242188 46.9375 L 9.242188 63.40625 C 9.242188 64.917969 10.472656 66.148438 11.984375 66.148438 L 35.773438 66.148438 C 37.289062 66.148438 38.519531 64.917969 38.519531 63.40625 L 38.519531 59.746094 L 65.050781 59.746094 C 65.421875 59.746094 65.753906 59.523438 65.898438 59.179688 C 66.039062 58.839844 65.960938 58.445312 65.699219 58.183594 Z M 45.835938 36.851562 C 45.828125 35.636719 45.78125 34.410156 45.695312 33.191406 L 47.523438 33.191406 C 47.613281 34.410156 47.660156 35.636719 47.664062 36.851562 Z M 47.382812 31.363281 L 45.558594 31.363281 L 45.277344 27.703125 L 47.101562 27.703125 Z M 45.800781 38.683594 L 47.628906 38.683594 C 47.59375 39.902344 47.53125 41.125 47.410156 42.339844 L 45.585938 42.339844 C 45.699219 41.125 45.765625 39.902344 45.800781 38.683594 Z M 48.582031 22.214844 C 48.164062 22.214844 47.777344 22.0625 47.460938 21.816406 C 48.59375 21.25 49.386719 20.121094 49.472656 18.796875 C 50.03125 19.109375 50.414062 19.699219 50.414062 20.382812 C 50.414062 21.394531 49.59375 22.214844 48.582031 22.214844 Z M 58.75 25.117188 L 59.003906 26.125 L 52.089844 21.371094 C 52.179688 21.054688 52.242188 20.726562 52.242188 20.382812 C 52.242188 19.765625 52.070312 19.195312 51.796875 18.6875 C 52.792969 18.855469 53.761719 19.191406 54.644531 19.695312 C 56.683594 20.859375 58.183594 22.839844 58.75 25.117188 Z M 52.179688 12.058594 C 54.546875 11.007812 57.277344 10.988281 59.664062 12.011719 L 59.890625 12.105469 L 48.800781 16.421875 C 48.589844 16.128906 48.332031 15.871094 48.046875 15.652344 C 49.03125 14.078125 50.472656 12.820312 52.179688 12.058594 Z M 47.667969 18.554688 C 47.667969 19.5625 46.847656 20.382812 45.839844 20.382812 C 44.828125 20.382812 44.007812 19.5625 44.007812 18.554688 C 44.007812 17.542969 44.828125 16.722656 45.839844 16.722656 C 46.847656 16.722656 47.667969 17.542969 47.667969 18.554688 Z M 32.015625 12.011719 C 34.398438 10.988281 37.125 11.007812 39.5 12.058594 C 41.207031 12.820312 42.644531 14.078125 43.632812 15.652344 C 43.34375 15.871094 43.089844 16.128906 42.878906 16.417969 L 31.789062 12.105469 Z M 32.671875 26.125 L 32.925781 25.117188 C 33.496094 22.835938 34.992188 20.859375 37.035156 19.695312 C 37.910156 19.191406 38.875 18.855469 39.871094 18.6875 C 39.601562 19.195312 39.433594 19.769531 39.433594 20.382812 C 39.433594 20.726562 39.496094 21.054688 39.585938 21.371094 Z M 41.265625 20.382812 C 41.265625 19.699219 41.644531 19.109375 42.203125 18.796875 C 42.292969 20.121094 43.082031 21.25 44.214844 21.816406 C 43.898438 22.0625 43.511719 22.214844 43.09375 22.214844 C 42.085938 22.214844 41.265625 21.394531 41.265625 20.382812 Z M 45.839844 22.789062 C 46.109375 23.097656 46.429688 23.355469 46.785156 23.558594 L 46.960938 25.875 L 45.136719 25.875 L 44.957031 23.519531 C 45.285156 23.324219 45.582031 23.078125 45.839844 22.789062 Z M 45.367188 44.171875 L 47.183594 44.171875 C 47.058594 45.113281 46.910156 46.050781 46.734375 46.980469 C 46.4375 46.96875 46.140625 46.9375 45.839844 46.9375 C 45.535156 46.9375 45.238281 46.949219 44.9375 46.960938 C 45.105469 46.035156 45.25 45.105469 45.367188 44.171875 Z M 33.121094 64.320312 L 14.636719 64.320312 C 14.273438 62.53125 12.859375 61.117188 11.070312 60.753906 L 11.070312 49.589844 C 12.859375 49.222656 14.273438 47.8125 14.636719 46.023438 L 33.121094 46.023438 C 33.488281 47.8125 34.898438 49.222656 36.6875 49.589844 L 36.6875 60.753906 C 34.898438 61.117188 33.488281 62.53125 33.121094 64.320312 Z M 36.6875 46.9375 L 36.6875 47.683594 C 35.914062 47.40625 35.304688 46.796875 35.027344 46.023438 L 35.773438 46.023438 C 36.277344 46.023438 36.6875 46.433594 36.6875 46.9375 Z M 21.136719 42.363281 L 26.625 42.363281 L 26.625 44.191406 L 21.136719 44.191406 Z M 11.984375 46.023438 L 12.734375 46.023438 C 12.457031 46.796875 11.847656 47.40625 11.070312 47.683594 L 11.070312 46.9375 C 11.070312 46.433594 11.480469 46.023438 11.984375 46.023438 Z M 11.070312 63.40625 L 11.070312 62.660156 C 11.847656 62.933594 12.457031 63.546875 12.734375 64.320312 L 11.984375 64.320312 C 11.480469 64.320312 11.070312 63.910156 11.070312 63.40625 Z M 35.773438 64.320312 L 35.027344 64.320312 C 35.304688 63.546875 35.914062 62.933594 36.6875 62.660156 L 36.6875 63.40625 C 36.6875 63.910156 36.277344 64.320312 35.773438 64.320312 Z M 38.519531 57.914062 L 38.519531 50.242188 C 40.847656 49.265625 43.304688 48.765625 45.839844 48.765625 C 50.90625 48.765625 55.667969 50.738281 59.25 54.320312 L 62.84375 57.914062 Z M 38.519531 57.914062 " fill-opacity="1" fill-rule="nonzero"/></g></svg>