<svg xmlns="http://www.w3.org/2000/svg" xmlns:xlink="http://www.w3.org/1999/xlink" width="100" zoomAndPan="magnify" viewBox="0 0 75 74.999997" height="100" preserveAspectRatio="xMidYMid meet" version="1.0"><defs><clipPath id="57daf0ed0a"><path d="M 10 46 L 65.136719 46 L 65.136719 63 L 10 63 Z M 10 46 " clip-rule="nonzero"/></clipPath><clipPath id="a8b35d337c"><path d="M 9.636719 7.5 L 65 7.5 L 65 44 L 9.636719 44 Z M 9.636719 7.5 " clip-rule="nonzero"/></clipPath></defs><g clip-path="url(#57daf0ed0a)"><path fill="#000000" d="M 65.203125 47.808594 L 64.542969 46.175781 L 64.421875 46.226562 C 55.816406 49.675781 46.878906 51.398438 37.605469 51.390625 C 28.335938 51.398438 19.398438 49.675781 10.792969 46.226562 L 10.667969 46.175781 L 10.015625 47.808594 L 10.140625 47.859375 C 10.886719 48.15625 11.636719 48.425781 12.390625 48.699219 L 11.234375 55.644531 C 11.195312 55.859375 11.234375 56.058594 11.347656 56.246094 C 11.457031 56.429688 11.617188 56.558594 11.824219 56.625 L 17.101562 58.386719 C 17.191406 58.414062 17.28125 58.425781 17.378906 58.425781 C 17.578125 58.425781 17.757812 58.363281 17.917969 58.238281 C 18.078125 58.117188 18.183594 57.957031 18.230469 57.761719 L 19.921875 51.003906 C 20.753906 51.207031 21.589844 51.386719 22.4375 51.5625 L 21.773438 60.117188 C 21.757812 60.34375 21.820312 60.546875 21.960938 60.726562 C 22.101562 60.90625 22.28125 61.015625 22.507812 61.050781 L 27.785156 61.933594 C 27.832031 61.941406 27.882812 61.945312 27.933594 61.945312 C 28.148438 61.945312 28.339844 61.875 28.503906 61.730469 C 28.667969 61.589844 28.769531 61.414062 28.800781 61.199219 L 30.097656 52.761719 C 31.132812 52.867188 32.171875 52.941406 33.210938 53.003906 L 33.210938 61.945312 C 33.210938 62.1875 33.296875 62.394531 33.46875 62.566406 C 33.640625 62.738281 33.847656 62.824219 34.089844 62.824219 L 37.605469 62.824219 C 37.890625 62.824219 38.117188 62.714844 38.292969 62.496094 L 41.8125 58.097656 C 41.941406 57.9375 42.003906 57.753906 42.003906 57.546875 L 42.003906 53.003906 C 42.964844 52.949219 43.917969 52.882812 44.871094 52.789062 L 46.164062 61.199219 C 46.199219 61.414062 46.296875 61.589844 46.460938 61.730469 C 46.625 61.875 46.816406 61.945312 47.035156 61.945312 C 47.082031 61.945312 47.132812 61.941406 47.179688 61.933594 L 52.457031 61.050781 C 52.679688 61.015625 52.863281 60.90625 53.003906 60.726562 C 53.144531 60.546875 53.207031 60.34375 53.1875 60.117188 L 52.535156 51.617188 C 53.378906 51.441406 54.222656 51.265625 55.0625 51.0625 L 56.734375 57.761719 C 56.78125 57.957031 56.886719 58.117188 57.046875 58.238281 C 57.203125 58.363281 57.386719 58.425781 57.585938 58.425781 C 57.683594 58.425781 57.773438 58.410156 57.867188 58.382812 L 63.144531 56.621094 C 63.347656 56.554688 63.507812 56.425781 63.617188 56.242188 C 63.730469 56.054688 63.769531 55.855469 63.730469 55.640625 L 62.589844 48.78125 C 63.417969 48.484375 64.25 48.183594 65.074219 47.855469 Z M 16.753906 56.414062 L 13.089844 55.191406 L 14.074219 49.296875 C 15.445312 49.757812 16.828125 50.171875 18.222656 50.550781 Z M 27.199219 60.050781 L 23.59375 59.449219 L 24.171875 51.914062 C 25.558594 52.167969 26.953125 52.375 28.351562 52.550781 Z M 38.488281 59.4375 L 38.488281 58.425781 L 39.296875 58.425781 Z M 40.246094 56.667969 L 37.605469 56.667969 C 37.363281 56.667969 37.15625 56.753906 36.984375 56.925781 C 36.8125 57.097656 36.726562 57.304688 36.726562 57.546875 L 36.726562 61.066406 L 34.96875 61.066406 L 34.96875 53.085938 C 35.847656 53.117188 36.726562 53.148438 37.605469 53.148438 C 38.488281 53.148438 39.367188 53.117188 40.246094 53.085938 Z M 51.375 59.449219 L 47.765625 60.050781 L 46.617188 52.582031 C 48.015625 52.410156 49.410156 52.207031 50.792969 51.953125 Z M 61.875 55.191406 L 58.210938 56.414062 L 56.761719 50.605469 C 58.152344 50.234375 59.53125 49.820312 60.90625 49.367188 Z M 61.875 55.191406 " fill-opacity="1" fill-rule="nonzero"/></g><g clip-path="url(#a8b35d337c)"><path fill="#000000" d="M 12.566406 12.179688 L 10.355469 23.964844 C 10.292969 24.300781 10.394531 24.582031 10.65625 24.800781 C 10.921875 25.023438 11.214844 25.070312 11.535156 24.945312 L 21.773438 21.007812 L 21.773438 32.917969 C 21.773438 33.261719 21.925781 33.519531 22.226562 33.6875 C 22.527344 33.855469 22.824219 33.847656 23.117188 33.667969 L 32.714844 27.761719 C 33.03125 27.921875 33.347656 28.082031 33.664062 28.242188 L 35.867188 39.253906 C 35.929688 39.578125 36.121094 39.796875 36.429688 39.90625 C 36.527344 39.941406 36.625 39.957031 36.726562 39.957031 C 36.9375 39.957031 37.121094 39.890625 37.285156 39.757812 L 45.6875 32.882812 C 45.851562 32.929688 46.011719 32.980469 46.179688 33.027344 L 49.980469 42.910156 C 50.101562 43.226562 50.328125 43.410156 50.660156 43.460938 C 50.707031 43.46875 50.753906 43.472656 50.800781 43.472656 C 51.078125 43.472656 51.304688 43.367188 51.480469 43.152344 L 57.976562 35.214844 C 58.324219 35.246094 58.671875 35.285156 59.019531 35.3125 L 63.222656 43.015625 L 64.765625 42.171875 L 61.101562 35.457031 C 62.355469 35.523438 63.613281 35.558594 64.875 35.558594 L 64.875 33.796875 C 62.425781 33.800781 59.988281 33.667969 57.554688 33.40625 C 55.125 33.148438 52.710938 32.757812 50.320312 32.238281 C 47.929688 31.71875 45.574219 31.070312 43.253906 30.300781 C 40.933594 29.527344 38.660156 28.632812 36.433594 27.617188 C 34.210938 26.601562 32.042969 25.46875 29.941406 24.21875 C 27.835938 22.972656 25.804688 21.613281 23.847656 20.148438 C 21.890625 18.683594 20.015625 17.117188 18.222656 15.449219 C 16.433594 13.78125 14.738281 12.023438 13.136719 10.175781 L 11.007812 7.714844 L 9.675781 8.867188 L 11.808594 11.332031 C 12.054688 11.613281 12.3125 11.898438 12.566406 12.179688 Z M 23.535156 31.34375 L 23.535156 22.101562 C 25.898438 23.824219 28.355469 25.390625 30.914062 26.808594 Z M 37.304688 37.46875 L 35.648438 29.191406 C 38.253906 30.378906 40.921875 31.40625 43.652344 32.269531 Z M 51.078125 40.867188 L 48.269531 33.566406 C 50.785156 34.175781 53.328125 34.644531 55.894531 34.972656 Z M 20.382812 19.660156 L 12.378906 22.738281 L 14.054688 13.789062 C 16.042969 15.875 18.152344 17.832031 20.378906 19.660156 Z M 20.382812 19.660156 " fill-opacity="1" fill-rule="nonzero"/></g><path fill="#000000" d="M 16.890625 44.5 L 19.527344 42.742188 L 20.503906 44.207031 L 17.867188 45.964844 Z M 16.890625 44.5 " fill-opacity="1" fill-rule="nonzero"/><path fill="#000000" d="M 32.925781 47.941406 L 35.566406 47.0625 L 36.121094 48.730469 L 33.480469 49.609375 Z M 32.925781 47.941406 " fill-opacity="1" fill-rule="nonzero"/><path fill="#000000" d="M 27.445312 34.53125 L 28.421875 33.066406 L 31.058594 34.824219 L 30.082031 36.289062 Z M 27.445312 34.53125 " fill-opacity="1" fill-rule="nonzero"/><path fill="#000000" d="M 12.492188 28.667969 L 15.128906 26.910156 L 16.105469 28.375 L 13.46875 30.132812 Z M 12.492188 28.667969 " fill-opacity="1" fill-rule="nonzero"/><path fill="#000000" d="M 25.550781 41.457031 L 26.796875 40.214844 L 28.554688 41.972656 L 27.308594 43.214844 Z M 25.550781 41.457031 " fill-opacity="1" fill-rule="nonzero"/><path fill="#000000" d="M 36.457031 16.265625 L 39.097656 15.390625 L 39.652344 17.058594 L 37.011719 17.933594 Z M 36.457031 16.265625 " fill-opacity="1" fill-rule="nonzero"/><path fill="#000000" d="M 48.308594 44.839844 L 49.773438 43.867188 L 51.53125 46.503906 L 50.070312 47.480469 Z M 48.308594 44.839844 " fill-opacity="1" fill-rule="nonzero"/><path fill="#000000" d="M 47.429688 13.960938 L 49.1875 11.320312 L 50.652344 12.296875 L 48.894531 14.9375 Z M 47.429688 13.960938 " fill-opacity="1" fill-rule="nonzero"/><path fill="#000000" d="M 26.199219 11.144531 L 27.90625 10.714844 L 28.785156 14.234375 L 27.078125 14.660156 Z M 26.199219 11.144531 " fill-opacity="1" fill-rule="nonzero"/><path fill="#000000" d="M 60.5 21.273438 L 61.382812 17.753906 L 63.089844 18.179688 L 62.207031 21.699219 Z M 60.5 21.273438 " fill-opacity="1" fill-rule="nonzero"/><path fill="#000000" d="M 49.066406 29.1875 L 49.949219 25.667969 L 51.652344 26.097656 L 50.773438 29.613281 Z M 49.066406 29.1875 " fill-opacity="1" fill-rule="nonzero"/></svg>