<svg xmlns="http://www.w3.org/2000/svg" xmlns:xlink="http://www.w3.org/1999/xlink" width="100" zoomAndPan="magnify" viewBox="0 0 75 74.999997" height="100" preserveAspectRatio="xMidYMid meet" version="1.0"><defs><clipPath id="93598ffaa8"><path d="M 11.851562 11.851562 L 43 11.851562 L 43 43 L 11.851562 43 Z M 11.851562 11.851562 " clip-rule="nonzero"/></clipPath><clipPath id="1881f72153"><path d="M 31 31 L 62.851562 31 L 62.851562 62.851562 L 31 62.851562 Z M 31 31 " clip-rule="nonzero"/></clipPath></defs><g clip-path="url(#93598ffaa8)"><path fill="#000000" d="M 36.40625 17.914062 C 33.921875 15.429688 30.539062 14.136719 27.160156 14.136719 C 23.878906 14.136719 20.5 15.429688 17.914062 17.914062 C 15.429688 20.5 14.136719 23.878906 14.136719 27.160156 C 14.136719 30.539062 15.429688 33.921875 17.914062 36.40625 C 18.808594 37.300781 19.804688 37.996094 20.796875 38.59375 C 21.59375 39.089844 22.488281 39.386719 23.382812 39.6875 L 39.6875 23.382812 C 39.386719 22.488281 39.089844 21.59375 38.59375 20.796875 C 37.996094 19.703125 37.300781 18.808594 36.40625 17.914062 Z M 27.160156 11.851562 C 31.136719 11.851562 35.015625 13.339844 37.996094 16.324219 L 37.199219 17.117188 L 37.996094 16.324219 C 38.992188 17.316406 39.886719 18.511719 40.582031 19.605469 C 41.175781 20.796875 41.675781 22.089844 42.070312 23.382812 C 42.171875 23.78125 42.070312 24.277344 41.773438 24.574219 L 24.574219 41.773438 C 24.277344 42.070312 23.878906 42.171875 23.480469 42.070312 C 22.1875 41.773438 20.898438 41.277344 19.605469 40.582031 C 18.410156 39.886719 17.316406 38.992188 16.324219 37.996094 C 13.339844 35.015625 11.851562 31.136719 11.851562 27.160156 C 11.851562 23.28125 13.339844 19.304688 16.324219 16.324219 C 19.304688 13.339844 23.28125 11.851562 27.160156 11.851562 Z M 27.160156 11.851562 " fill-opacity="1" fill-rule="nonzero"/></g><path fill="#000000" d="M 32.128906 24.476562 C 32.328125 25.070312 32.925781 25.46875 33.523438 25.371094 C 34.117188 25.171875 34.515625 24.574219 34.316406 23.980469 C 34.117188 23.183594 33.921875 22.488281 33.523438 21.792969 C 33.125 21.195312 32.628906 20.5 32.128906 20.003906 L 31.335938 20.796875 L 32.128906 20.003906 C 30.441406 18.3125 28.253906 17.417969 26.066406 17.417969 C 23.878906 17.417969 21.59375 18.3125 20.003906 20.003906 C 18.3125 21.59375 17.417969 23.878906 17.417969 26.066406 C 17.417969 28.253906 18.3125 30.441406 20.003906 32.128906 C 20.398438 32.527344 21.09375 32.527344 21.59375 32.128906 C 21.992188 31.632812 21.992188 30.9375 21.59375 30.539062 C 20.300781 29.246094 19.703125 27.65625 19.703125 26.066406 C 19.703125 24.375 20.300781 22.785156 21.59375 21.59375 C 22.785156 20.300781 24.375 19.703125 26.066406 19.703125 C 27.65625 19.703125 29.246094 20.300781 30.539062 21.59375 C 30.9375 21.992188 31.234375 22.488281 31.535156 22.886719 C 31.832031 23.382812 32.03125 23.980469 32.128906 24.476562 Z M 32.128906 24.476562 " fill-opacity="1" fill-rule="nonzero"/><path fill="#000000" d="M 28.75 48.832031 L 48.832031 28.75 L 43.164062 23.183594 L 23.183594 43.164062 Z M 51.21875 29.546875 L 29.546875 51.21875 C 29.148438 51.617188 28.351562 51.617188 27.957031 51.21875 L 20.699219 43.960938 C 20.300781 43.5625 20.300781 42.867188 20.699219 42.371094 L 42.371094 20.699219 C 42.867188 20.300781 43.5625 20.300781 43.960938 20.699219 L 51.21875 27.957031 C 51.617188 28.351562 51.617188 29.148438 51.21875 29.546875 Z M 51.21875 29.546875 " fill-opacity="1" fill-rule="nonzero"/><g clip-path="url(#1881f72153)"><path fill="#000000" d="M 62.453125 55.195312 L 55.195312 62.453125 C 54.796875 62.851562 54.101562 62.851562 53.703125 62.550781 L 32.128906 47.339844 L 32.726562 46.347656 L 32.128906 47.339844 C 31.632812 46.945312 31.433594 46.246094 31.832031 45.75 C 31.933594 45.652344 31.933594 45.652344 32.03125 45.550781 L 45.550781 31.933594 C 46.050781 31.535156 46.746094 31.535156 47.242188 31.933594 C 47.242188 32.03125 47.339844 32.128906 47.339844 32.128906 L 62.550781 53.804688 L 62.550781 53.703125 C 62.851562 54.199219 62.851562 54.796875 62.453125 55.195312 Z M 54.300781 60.164062 L 60.164062 54.300781 L 46.246094 34.515625 L 34.515625 46.246094 Z M 54.300781 60.164062 " fill-opacity="1" fill-rule="nonzero"/></g><path fill="#000000" d="M 23.980469 45.550781 C 23.480469 46.046875 23.480469 46.746094 23.980469 47.242188 C 24.375 47.640625 25.070312 47.640625 25.570312 47.242188 L 39.984375 32.726562 C 40.382812 32.328125 40.382812 31.632812 39.984375 31.136719 C 39.585938 30.738281 38.792969 30.738281 38.394531 31.136719 Z M 23.980469 45.550781 " fill-opacity="1" fill-rule="nonzero"/><path fill="#000000" d="M 14.335938 55.992188 C 13.738281 55.992188 13.242188 56.488281 13.242188 57.082031 C 13.242188 57.679688 13.738281 58.175781 14.335938 58.175781 L 32.429688 58.175781 C 33.125 58.175781 33.621094 57.679688 33.621094 57.082031 C 33.621094 56.488281 33.125 55.992188 32.429688 55.992188 Z M 14.335938 55.992188 " fill-opacity="1" fill-rule="nonzero"/><path fill="#000000" d="M 25.667969 59.371094 C 25.070312 59.371094 24.574219 59.867188 24.574219 60.464844 C 24.574219 61.058594 25.070312 61.65625 25.667969 61.65625 L 37.003906 61.65625 C 37.597656 61.65625 38.09375 61.058594 38.09375 60.464844 C 38.09375 59.867188 37.597656 59.371094 37.003906 59.371094 Z M 25.667969 59.371094 " fill-opacity="1" fill-rule="nonzero"/></svg>