<svg xmlns="http://www.w3.org/2000/svg" xmlns:xlink="http://www.w3.org/1999/xlink" width="100" zoomAndPan="magnify" viewBox="0 0 75 74.999997" height="100" preserveAspectRatio="xMidYMid meet" version="1.0"><defs><clipPath id="05d3a7a51f"><path d="M 11.445312 11.574219 L 63 11.574219 L 63 63.324219 L 11.445312 63.324219 Z M 11.445312 11.574219 " clip-rule="nonzero"/></clipPath></defs><g clip-path="url(#05d3a7a51f)"><path fill="#000000" d="M 62.996094 34.289062 L 62.996094 31.0625 C 62.996094 28.503906 60.238281 26.304688 55.027344 24.710938 C 53.539062 24.257812 51.902344 23.867188 50.144531 23.542969 L 62.589844 13.625 C 63.054688 13.257812 63.128906 12.578125 62.761719 12.113281 C 62.398438 11.648438 61.722656 11.570312 61.261719 11.941406 L 47.269531 23.089844 C 44.164062 22.679688 40.792969 22.460938 37.316406 22.460938 C 33.835938 22.460938 30.464844 22.679688 27.359375 23.089844 L 13.371094 11.941406 C 12.90625 11.570312 12.234375 11.648438 11.867188 12.113281 C 11.5 12.578125 11.574219 13.257812 12.039062 13.625 L 24.484375 23.542969 C 22.726562 23.867188 21.089844 24.257812 19.601562 24.710938 C 14.390625 26.304688 11.632812 28.503906 11.632812 31.0625 L 11.632812 34.289062 C 11.632812 35.242188 12.015625 36.144531 12.761719 36.980469 L 12.761719 50.417969 L 12.703125 50.417969 C 12.113281 50.417969 11.632812 50.902344 11.632812 51.496094 L 11.632812 54.722656 C 11.632812 57.28125 14.390625 59.480469 19.601562 61.074219 C 24.347656 62.523438 30.636719 63.324219 37.316406 63.324219 C 43.992188 63.324219 50.28125 62.523438 55.027344 61.074219 C 60.238281 59.480469 62.996094 57.28125 62.996094 54.722656 L 62.996094 51.496094 C 62.996094 50.902344 62.515625 50.417969 61.925781 50.417969 L 61.867188 50.417969 L 61.867188 36.980469 C 62.613281 36.144531 62.996094 35.242188 62.996094 34.289062 Z M 37.316406 39.667969 C 41.074219 39.667969 44.707031 39.414062 48.015625 38.933594 L 48.015625 39.984375 C 44.734375 40.480469 41.09375 40.742188 37.316406 40.742188 C 33.535156 40.742188 29.894531 40.480469 26.613281 39.984375 L 26.613281 38.933594 C 29.921875 39.414062 33.558594 39.667969 37.316406 39.667969 Z M 55.027344 37.414062 C 56.925781 36.835938 58.496094 36.175781 59.730469 35.445312 L 59.730469 36.066406 C 58.742188 36.886719 57.046875 37.777344 54.40625 38.582031 C 53.105469 38.980469 51.679688 39.328125 50.15625 39.621094 L 50.15625 38.582031 C 51.90625 38.261719 53.542969 37.871094 55.027344 37.414062 Z M 24.472656 39.621094 C 22.949219 39.328125 21.523438 38.980469 20.222656 38.582031 C 17.585938 37.777344 15.890625 36.886719 14.902344 36.066406 L 14.902344 35.445312 C 16.132812 36.175781 17.703125 36.835938 19.601562 37.414062 C 21.085938 37.871094 22.722656 38.261719 24.472656 38.582031 Z M 14.902344 38.671875 C 16.132812 39.402344 17.703125 40.0625 19.601562 40.640625 C 21.085938 41.09375 22.722656 41.484375 24.472656 41.808594 L 24.472656 56.703125 C 23.25 56.4375 22.097656 56.132812 21.035156 55.792969 C 17.25 54.582031 14.902344 52.933594 14.902344 51.496094 Z M 26.613281 42.160156 C 29.921875 42.636719 33.558594 42.894531 37.316406 42.894531 C 41.074219 42.894531 44.707031 42.636719 48.015625 42.160156 L 48.015625 57.113281 C 44.761719 57.65625 41.109375 57.949219 37.316406 57.949219 C 33.519531 57.949219 29.871094 57.65625 26.613281 57.113281 Z M 50.15625 41.808594 C 51.90625 41.484375 53.542969 41.09375 55.027344 40.640625 C 56.925781 40.0625 58.496094 39.402344 59.730469 38.671875 L 59.730469 51.496094 C 59.730469 52.933594 57.378906 54.582031 53.59375 55.792969 C 52.53125 56.132812 51.378906 56.4375 50.15625 56.703125 Z M 20.222656 26.769531 C 22.152344 26.179688 24.355469 25.703125 26.746094 25.347656 L 33.457031 30.695312 C 33.65625 30.851562 33.890625 30.929688 34.121094 30.929688 C 34.4375 30.929688 34.75 30.789062 34.960938 30.523438 C 35.328125 30.058594 35.25 29.378906 34.789062 29.011719 L 29.730469 24.980469 C 32.140625 24.738281 34.695312 24.613281 37.316406 24.613281 C 39.933594 24.613281 42.488281 24.738281 44.902344 24.980469 L 39.839844 29.011719 C 39.378906 29.378906 39.300781 30.058594 39.667969 30.523438 C 39.878906 30.789062 40.191406 30.929688 40.507812 30.929688 C 40.738281 30.929688 40.972656 30.851562 41.171875 30.695312 L 47.882812 25.347656 C 50.273438 25.703125 52.476562 26.179688 54.40625 26.769531 C 59.160156 28.222656 60.855469 29.941406 60.855469 31.0625 C 60.855469 32.1875 59.160156 33.902344 54.40625 35.359375 C 52.777344 35.855469 50.949219 36.273438 48.980469 36.605469 C 48.933594 36.609375 48.890625 36.617188 48.847656 36.628906 C 45.355469 37.207031 41.414062 37.515625 37.316406 37.515625 C 33.214844 37.515625 29.273438 37.207031 25.78125 36.628906 C 25.738281 36.617188 25.695312 36.609375 25.652344 36.605469 C 23.679688 36.273438 21.855469 35.855469 20.222656 35.359375 C 15.46875 33.902344 13.773438 32.1875 13.773438 31.0625 C 13.773438 29.941406 15.46875 28.222656 20.222656 26.769531 Z M 13.773438 54.722656 L 13.773438 54.097656 C 14.804688 55.359375 16.777344 56.6875 20.382812 57.84375 C 21.640625 58.246094 23.011719 58.597656 24.472656 58.898438 L 24.472656 60.050781 C 22.949219 59.761719 21.523438 59.414062 20.222656 59.015625 C 15.46875 57.5625 13.773438 55.84375 13.773438 54.722656 Z M 26.613281 60.417969 L 26.613281 59.289062 C 29.898438 59.816406 33.542969 60.097656 37.316406 60.097656 C 41.085938 60.097656 44.730469 59.816406 48.015625 59.289062 L 48.015625 60.417969 C 44.734375 60.910156 41.09375 61.171875 37.316406 61.171875 C 33.535156 61.171875 29.894531 60.910156 26.613281 60.417969 Z M 54.40625 59.015625 C 53.105469 59.414062 51.679688 59.761719 50.15625 60.050781 L 50.15625 58.898438 C 51.617188 58.597656 52.988281 58.246094 54.246094 57.84375 C 57.851562 56.6875 59.824219 55.359375 60.855469 54.097656 L 60.855469 54.722656 C 60.855469 55.84375 59.160156 57.5625 54.40625 59.015625 Z M 54.40625 59.015625 " fill-opacity="1" fill-rule="nonzero"/></g></svg>