<svg xmlns="http://www.w3.org/2000/svg" xmlns:xlink="http://www.w3.org/1999/xlink" width="100" zoomAndPan="magnify" viewBox="0 0 75 74.999997" height="100" preserveAspectRatio="xMidYMid meet" version="1.0"><defs><clipPath id="b52c3f6dfb"><path d="M 13 7.894531 L 62 7.894531 L 62 32 L 13 32 Z M 13 7.894531 " clip-rule="nonzero"/></clipPath><clipPath id="70a2598fef"><path d="M 10.964844 59 L 64.214844 59 L 64.214844 67.144531 L 10.964844 67.144531 Z M 10.964844 59 " clip-rule="nonzero"/></clipPath><clipPath id="1d7d2423dd"><path d="M 10.964844 59 L 64.214844 59 L 64.214844 65 L 10.964844 65 Z M 10.964844 59 " clip-rule="nonzero"/></clipPath></defs><g clip-path="url(#b52c3f6dfb)"><path fill="#000000" d="M 61.175781 31.269531 C 61.175781 31.269531 61.171875 31.269531 61.171875 31.269531 L 14.003906 31.269531 C 13.71875 31.269531 13.460938 31.097656 13.359375 30.832031 C 13.253906 30.566406 13.324219 30.265625 13.53125 30.070312 L 37.113281 8.148438 C 37.382812 7.898438 37.796875 7.898438 38.0625 8.148438 L 61.613281 30.039062 C 61.769531 30.164062 61.871094 30.359375 61.871094 30.578125 C 61.871094 30.960938 61.558594 31.269531 61.175781 31.269531 Z M 15.773438 29.882812 L 59.40625 29.882812 L 37.589844 9.601562 Z M 15.773438 29.882812 " fill-opacity="1" fill-rule="evenodd"/></g><path fill="#000000" d="M 24.925781 35.390625 L 19.605469 35.390625 C 18.082031 35.390625 16.84375 34.152344 16.84375 32.636719 L 16.84375 30.578125 C 16.84375 30.195312 17.15625 29.882812 17.539062 29.882812 L 26.992188 29.882812 C 27.375 29.882812 27.6875 30.195312 27.6875 30.578125 L 27.6875 32.636719 C 27.6875 34.152344 26.449219 35.390625 24.925781 35.390625 Z M 18.238281 31.269531 L 18.238281 32.636719 C 18.238281 33.390625 18.851562 34 19.605469 34 L 24.925781 34 C 25.679688 34 26.296875 33.390625 26.296875 32.636719 L 26.296875 31.269531 Z M 18.238281 31.269531 " fill-opacity="1" fill-rule="evenodd"/><path fill="#000000" d="M 55.574219 35.390625 L 50.253906 35.390625 C 48.730469 35.390625 47.492188 34.152344 47.492188 32.636719 L 47.492188 30.578125 C 47.492188 30.195312 47.804688 29.882812 48.1875 29.882812 L 57.636719 29.882812 C 58.023438 29.882812 58.332031 30.195312 58.332031 30.578125 L 58.332031 32.636719 C 58.332031 34.152344 57.09375 35.390625 55.574219 35.390625 Z M 48.882812 31.269531 L 48.882812 32.636719 C 48.882812 33.390625 49.496094 34 50.253906 34 L 55.574219 34 C 56.328125 34 56.941406 33.390625 56.941406 32.636719 L 56.941406 31.269531 Z M 48.882812 31.269531 " fill-opacity="1" fill-rule="evenodd"/><path fill="#000000" d="M 24.882812 57.113281 L 19.652344 57.113281 C 19.265625 57.113281 18.957031 56.800781 18.957031 56.417969 L 18.957031 34.695312 C 18.957031 34.3125 19.265625 34 19.652344 34 L 24.882812 34 C 25.265625 34 25.578125 34.3125 25.578125 34.695312 L 25.578125 56.417969 C 25.578125 56.800781 25.265625 57.113281 24.882812 57.113281 Z M 20.347656 55.726562 L 24.1875 55.726562 L 24.1875 35.390625 L 20.347656 35.390625 Z M 20.347656 55.726562 " fill-opacity="1" fill-rule="evenodd"/><path fill="#000000" d="M 57.636719 61.230469 L 48.1875 61.230469 C 47.804688 61.230469 47.492188 60.921875 47.492188 60.539062 L 47.492188 58.476562 C 47.492188 56.960938 48.730469 55.726562 50.253906 55.726562 L 55.574219 55.726562 C 57.09375 55.726562 58.332031 56.960938 58.332031 58.476562 L 58.332031 60.539062 C 58.332031 60.921875 58.023438 61.230469 57.636719 61.230469 Z M 48.882812 59.84375 L 56.941406 59.84375 L 56.941406 58.476562 C 56.941406 57.726562 56.328125 57.113281 55.574219 57.113281 L 50.253906 57.113281 C 49.496094 57.113281 48.882812 57.726562 48.882812 58.476562 Z M 48.882812 59.84375 " fill-opacity="1" fill-rule="evenodd"/><path fill="#000000" d="M 26.992188 61.230469 L 17.539062 61.230469 C 17.15625 61.230469 16.84375 60.921875 16.84375 60.539062 L 16.84375 58.476562 C 16.84375 56.960938 18.082031 55.726562 19.605469 55.726562 L 24.925781 55.726562 C 26.449219 55.726562 27.6875 56.960938 27.6875 58.476562 L 27.6875 60.539062 C 27.6875 60.921875 27.375 61.230469 26.992188 61.230469 Z M 18.238281 59.84375 L 26.296875 59.84375 L 26.296875 58.476562 C 26.296875 57.726562 25.679688 57.113281 24.925781 57.113281 L 19.605469 57.113281 C 18.851562 57.113281 18.238281 57.726562 18.238281 58.476562 Z M 18.238281 59.84375 " fill-opacity="1" fill-rule="evenodd"/><g clip-path="url(#70a2598fef)"><path fill="#000000" d="M 62.878906 67.144531 L 12.300781 67.144531 C 11.566406 67.144531 10.96875 66.546875 10.96875 65.816406 L 10.96875 61.171875 C 10.96875 60.4375 11.566406 59.84375 12.300781 59.84375 L 62.878906 59.84375 C 63.613281 59.84375 64.210938 60.4375 64.210938 61.171875 L 64.210938 65.816406 C 64.210938 66.546875 63.613281 67.144531 62.878906 67.144531 Z M 12.359375 65.757812 L 62.820312 65.757812 L 62.820312 61.230469 L 12.359375 61.230469 Z M 12.359375 65.757812 " fill-opacity="1" fill-rule="evenodd"/></g><path fill="#000000" d="M 37.589844 28.027344 C 37.421875 28.027344 37.253906 27.96875 37.125 27.851562 C 33.886719 24.941406 30.539062 21.929688 30.539062 18.769531 C 30.539062 16.808594 32.277344 15.21875 34.414062 15.21875 C 35.941406 15.21875 36.863281 15.808594 37.589844 16.765625 C 38.3125 15.808594 39.234375 15.21875 40.765625 15.21875 C 42.898438 15.21875 44.636719 16.808594 44.636719 18.769531 C 44.636719 21.929688 41.292969 24.941406 38.054688 27.851562 C 37.921875 27.96875 37.757812 28.027344 37.589844 28.027344 Z M 34.414062 16.605469 C 33.046875 16.605469 31.933594 17.574219 31.933594 18.769531 C 31.933594 21.183594 34.730469 23.828125 37.589844 26.402344 C 40.445312 23.828125 43.246094 21.183594 43.246094 18.769531 C 43.246094 17.574219 42.132812 16.605469 40.765625 16.605469 C 39.574219 16.605469 38.949219 17.039062 38.199219 18.390625 C 38.074219 18.609375 37.84375 18.746094 37.589844 18.746094 C 37.335938 18.746094 37.105469 18.609375 36.980469 18.390625 C 36.230469 17.039062 35.605469 16.605469 34.414062 16.605469 Z M 34.414062 16.605469 " fill-opacity="1" fill-rule="evenodd"/><path fill="#000000" d="M 55.527344 57.113281 L 50.296875 57.113281 C 49.914062 57.113281 49.601562 56.800781 49.601562 56.417969 L 49.601562 34.695312 C 49.601562 34.3125 49.914062 34 50.296875 34 L 55.527344 34 C 55.910156 34 56.222656 34.3125 56.222656 34.695312 L 56.222656 56.417969 C 56.222656 56.800781 55.910156 57.113281 55.527344 57.113281 Z M 50.992188 55.726562 L 54.832031 55.726562 L 54.832031 35.390625 L 50.992188 35.390625 Z M 50.992188 55.726562 " fill-opacity="1" fill-rule="evenodd"/><path fill="#000000" d="M 42.355469 55.507812 L 33.03125 55.507812 C 30.667969 55.507812 28.746094 53.589844 28.746094 51.234375 L 28.746094 47.652344 C 28.746094 47.269531 29.058594 46.960938 29.441406 46.960938 L 45.945312 46.960938 C 46.328125 46.960938 46.640625 47.269531 46.640625 47.652344 L 46.640625 51.234375 C 46.640625 53.589844 44.71875 55.507812 42.355469 55.507812 Z M 30.136719 48.34375 L 30.136719 51.234375 C 30.136719 52.828125 31.4375 54.121094 33.03125 54.121094 L 42.355469 54.121094 C 43.953125 54.121094 45.25 52.828125 45.25 51.234375 L 45.25 48.34375 Z M 30.136719 48.34375 " fill-opacity="1" fill-rule="evenodd"/><path fill="#000000" d="M 41.902344 48.347656 C 41.898438 48.347656 41.890625 48.347656 41.878906 48.347656 C 41.859375 48.347656 41.839844 48.34375 41.820312 48.34375 L 33.566406 48.34375 C 33.546875 48.34375 33.527344 48.347656 33.507812 48.347656 C 33.242188 48.355469 32.996094 48.214844 32.871094 47.980469 C 32.445312 47.195312 32.222656 46.300781 32.222656 45.402344 C 32.222656 43.273438 33.480469 41.324219 35.421875 40.441406 C 35.707031 40.308594 36.042969 40.386719 36.246094 40.625 C 36.632812 41.085938 37.15625 41.570312 37.695312 42.046875 C 38.234375 41.566406 38.753906 41.085938 39.144531 40.625 C 39.34375 40.386719 39.679688 40.308594 39.964844 40.441406 C 41.910156 41.324219 43.164062 43.273438 43.164062 45.402344 C 43.164062 46.300781 42.941406 47.195312 42.515625 47.980469 C 42.394531 48.207031 42.160156 48.347656 41.902344 48.347656 Z M 33.921875 46.960938 L 41.464844 46.960938 C 41.667969 46.46875 41.773438 45.9375 41.773438 45.40625 C 41.773438 43.984375 41.023438 42.671875 39.832031 41.9375 C 39.328125 42.464844 38.734375 42.984375 38.152344 43.488281 C 37.890625 43.71875 37.496094 43.71875 37.234375 43.492188 C 36.65625 42.984375 36.0625 42.464844 35.558594 41.9375 C 34.363281 42.671875 33.613281 43.984375 33.613281 45.40625 C 33.613281 45.9375 33.71875 46.46875 33.921875 46.960938 Z M 33.921875 46.960938 " fill-opacity="1" fill-rule="evenodd"/><path fill="#000000" d="M 37.695312 43.664062 C 37.53125 43.664062 37.367188 43.605469 37.234375 43.492188 L 36.324219 42.683594 C 36.320312 42.679688 36.316406 42.675781 36.3125 42.671875 L 36.265625 42.628906 C 36.257812 42.621094 36.253906 42.617188 36.246094 42.613281 L 36.199219 42.570312 C 36.195312 42.566406 36.191406 42.558594 36.1875 42.554688 L 36.0625 42.4375 C 36.054688 42.433594 36.050781 42.429688 36.046875 42.425781 L 36 42.382812 C 36 42.378906 35.992188 42.375 35.992188 42.371094 L 35.753906 42.136719 C 35.75 42.136719 35.746094 42.132812 35.742188 42.128906 L 35.636719 42.019531 C 35.632812 42.015625 35.628906 42.011719 35.625 42.011719 L 35.464844 41.839844 C 35.464844 41.839844 35.453125 41.828125 35.453125 41.828125 L 35.351562 41.714844 C 35.347656 41.710938 35.34375 41.707031 35.339844 41.703125 L 35.242188 41.589844 C 35.238281 41.585938 35.234375 41.582031 35.230469 41.574219 L 35.183594 41.519531 C 35.175781 41.515625 35.175781 41.511719 35.171875 41.507812 C 34.507812 40.71875 34.1875 39.992188 34.1875 39.289062 C 34.1875 38.230469 35.128906 37.367188 36.289062 37.367188 C 36.921875 37.367188 37.363281 37.570312 37.695312 37.859375 C 38.023438 37.570312 38.464844 37.367188 39.097656 37.367188 C 40.257812 37.367188 41.203125 38.230469 41.203125 39.289062 C 41.203125 40.019531 40.875 40.742188 40.167969 41.566406 C 40.164062 41.574219 40.15625 41.578125 40.148438 41.585938 L 40.046875 41.703125 C 40.046875 41.703125 40.039062 41.710938 40.035156 41.714844 L 39.992188 41.765625 C 39.988281 41.765625 39.980469 41.777344 39.976562 41.78125 L 39.933594 41.824219 C 39.929688 41.832031 39.921875 41.835938 39.921875 41.839844 L 39.878906 41.886719 C 39.878906 41.886719 39.875 41.890625 39.871094 41.894531 L 39.714844 42.054688 C 39.714844 42.058594 39.710938 42.0625 39.707031 42.066406 L 39.625 42.148438 C 39.621094 42.152344 39.617188 42.15625 39.613281 42.15625 L 39.460938 42.308594 C 39.457031 42.3125 39.453125 42.316406 39.449219 42.320312 L 39.332031 42.429688 C 39.328125 42.433594 39.324219 42.4375 39.320312 42.441406 L 39.210938 42.546875 C 39.207031 42.550781 39.203125 42.554688 39.199219 42.558594 L 39.140625 42.609375 C 39.140625 42.613281 39.136719 42.617188 39.132812 42.617188 L 39.074219 42.671875 C 39.066406 42.679688 39.0625 42.683594 39.054688 42.6875 L 39.011719 42.730469 C 39.007812 42.734375 39 42.742188 38.996094 42.746094 L 38.945312 42.789062 C 38.945312 42.792969 38.933594 42.800781 38.929688 42.804688 L 38.816406 42.90625 C 38.816406 42.910156 38.8125 42.910156 38.808594 42.914062 L 38.425781 43.25 C 38.425781 43.25 38.414062 43.261719 38.414062 43.261719 L 38.21875 43.433594 C 38.214844 43.433594 38.214844 43.4375 38.210938 43.441406 L 38.152344 43.492188 C 38.019531 43.605469 37.855469 43.664062 37.695312 43.664062 Z M 37.253906 41.652344 C 37.257812 41.652344 37.257812 41.65625 37.257812 41.65625 L 37.695312 42.046875 L 38.003906 41.773438 C 38.003906 41.769531 38.011719 41.761719 38.011719 41.761719 L 38.066406 41.714844 C 38.066406 41.714844 38.074219 41.707031 38.074219 41.707031 L 38.128906 41.65625 C 38.132812 41.652344 38.136719 41.648438 38.140625 41.644531 L 38.183594 41.605469 C 38.1875 41.601562 38.191406 41.597656 38.195312 41.597656 L 38.242188 41.550781 C 38.246094 41.546875 38.25 41.546875 38.25 41.542969 L 38.371094 41.429688 C 38.375 41.429688 38.375 41.425781 38.378906 41.425781 L 38.480469 41.324219 C 38.488281 41.320312 38.492188 41.3125 38.496094 41.308594 L 38.703125 41.109375 C 38.703125 41.105469 38.707031 41.101562 38.710938 41.097656 L 38.902344 40.898438 C 38.902344 40.894531 38.910156 40.890625 38.910156 40.886719 L 39 40.789062 C 39.003906 40.789062 39.003906 40.785156 39.003906 40.785156 L 39.089844 40.6875 C 39.09375 40.683594 39.097656 40.679688 39.097656 40.675781 C 39.578125 40.121094 39.808594 39.667969 39.808594 39.289062 C 39.808594 39 39.484375 38.757812 39.101562 38.757812 C 38.738281 38.757812 38.578125 38.835938 38.296875 39.324219 C 38.171875 39.542969 37.941406 39.675781 37.695312 39.675781 C 37.445312 39.675781 37.214844 39.542969 37.089844 39.324219 C 36.808594 38.835938 36.648438 38.757812 36.289062 38.757812 C 35.902344 38.757812 35.578125 39 35.578125 39.289062 C 35.578125 39.65625 35.796875 40.089844 36.246094 40.625 C 36.246094 40.628906 36.246094 40.628906 36.25 40.632812 L 36.285156 40.671875 C 36.285156 40.675781 36.289062 40.675781 36.289062 40.679688 L 36.375 40.777344 C 36.378906 40.78125 36.382812 40.785156 36.382812 40.785156 L 37.015625 41.429688 C 37.019531 41.433594 37.019531 41.433594 37.023438 41.4375 L 37.125 41.53125 C 37.128906 41.535156 37.132812 41.539062 37.136719 41.542969 L 37.1875 41.589844 C 37.191406 41.59375 37.195312 41.597656 37.199219 41.597656 Z M 37.253906 41.652344 " fill-opacity="1" fill-rule="evenodd"/><g clip-path="url(#1d7d2423dd)"><path fill="#000000" d="M 63.195312 64.1875 L 11.984375 64.1875 C 11.425781 64.1875 10.96875 63.734375 10.96875 63.175781 L 10.96875 60.855469 C 10.96875 60.296875 11.425781 59.84375 11.984375 59.84375 L 63.195312 59.84375 C 63.753906 59.84375 64.210938 60.296875 64.210938 60.855469 L 64.210938 63.175781 C 64.210938 63.734375 63.753906 64.1875 63.195312 64.1875 Z M 12.359375 62.800781 L 62.820312 62.800781 L 62.820312 61.230469 L 12.359375 61.230469 Z M 12.359375 62.800781 " fill-opacity="1" fill-rule="evenodd"/></g></svg>