<svg xmlns="http://www.w3.org/2000/svg" xmlns:xlink="http://www.w3.org/1999/xlink" width="100" zoomAndPan="magnify" viewBox="0 0 75 74.999997" height="100" preserveAspectRatio="xMidYMid meet" version="1.0"><defs><clipPath id="ed1046254a"><path d="M 51 7.5 L 53 7.5 L 53 13 L 51 13 Z M 51 7.5 " clip-rule="nonzero"/></clipPath></defs><path fill="#000000" d="M 51.824219 26.132812 C 55.289062 26.132812 58.101562 23.320312 58.101562 19.855469 C 58.101562 16.394531 55.289062 13.578125 51.824219 13.578125 C 48.363281 13.578125 45.554688 16.394531 45.554688 19.855469 C 45.554688 23.320312 48.363281 26.132812 51.824219 26.132812 Z M 51.824219 15.152344 C 54.417969 15.152344 56.539062 17.261719 56.539062 19.855469 C 56.539062 22.457031 54.417969 24.566406 51.824219 24.566406 C 49.234375 24.566406 47.113281 22.449219 47.113281 19.855469 C 47.113281 17.261719 49.234375 15.152344 51.824219 15.152344 Z M 51.824219 15.152344 " fill-opacity="1" fill-rule="nonzero"/><g clip-path="url(#ed1046254a)"><path fill="#000000" d="M 51.824219 12.015625 C 52.261719 12.015625 52.617188 11.667969 52.617188 11.230469 L 52.617188 8.402344 C 52.617188 7.964844 52.261719 7.617188 51.824219 7.617188 C 51.390625 7.617188 51.042969 7.964844 51.042969 8.402344 L 51.042969 11.230469 C 51.042969 11.667969 51.390625 12.015625 51.824219 12.015625 Z M 51.824219 12.015625 " fill-opacity="1" fill-rule="nonzero"/></g><path fill="#000000" d="M 57.921875 14.542969 C 58.117188 14.542969 58.324219 14.464844 58.472656 14.316406 L 60.480469 12.3125 C 60.78125 12.007812 60.78125 11.507812 60.480469 11.199219 C 60.171875 10.890625 59.667969 10.890625 59.367188 11.199219 L 57.367188 13.199219 C 57.066406 13.507812 57.066406 14.007812 57.367188 14.304688 C 57.527344 14.464844 57.722656 14.542969 57.921875 14.542969 Z M 57.921875 14.542969 " fill-opacity="1" fill-rule="nonzero"/><path fill="#000000" d="M 63.28125 19.074219 L 60.449219 19.074219 C 60.023438 19.074219 59.667969 19.429688 59.667969 19.855469 C 59.667969 20.289062 60.023438 20.648438 60.449219 20.648438 L 63.28125 20.648438 C 63.714844 20.648438 64.070312 20.300781 64.070312 19.855469 C 64.070312 19.429688 63.714844 19.074219 63.28125 19.074219 Z M 63.28125 19.074219 " fill-opacity="1" fill-rule="nonzero"/><path fill="#000000" d="M 57.367188 25.398438 C 57.058594 25.707031 57.058594 26.203125 57.367188 26.511719 L 59.375 28.511719 C 59.535156 28.671875 59.730469 28.742188 59.929688 28.742188 C 60.125 28.742188 60.332031 28.664062 60.480469 28.511719 C 60.78125 28.203125 60.78125 27.714844 60.480469 27.40625 L 58.480469 25.398438 C 58.171875 25.089844 57.675781 25.089844 57.367188 25.398438 Z M 57.367188 25.398438 " fill-opacity="1" fill-rule="nonzero"/><path fill="#000000" d="M 51.035156 28.480469 L 51.035156 31.3125 C 51.035156 31.746094 51.390625 32.09375 51.824219 32.09375 C 52.261719 32.09375 52.617188 31.746094 52.617188 31.3125 L 52.617188 28.480469 C 52.617188 28.046875 52.261719 27.691406 51.824219 27.691406 C 51.390625 27.691406 51.035156 28.046875 51.035156 28.480469 Z M 51.035156 28.480469 " fill-opacity="1" fill-rule="nonzero"/><path fill="#000000" d="M 40.371094 20.640625 L 43.199219 20.640625 C 43.644531 20.640625 43.992188 20.28125 43.992188 19.847656 C 43.992188 19.414062 43.644531 19.066406 43.199219 19.066406 L 40.371094 19.066406 C 39.9375 19.066406 39.589844 19.414062 39.589844 19.847656 C 39.589844 20.28125 39.9375 20.640625 40.371094 20.640625 Z M 40.371094 20.640625 " fill-opacity="1" fill-rule="nonzero"/><path fill="#000000" d="M 45.167969 14.316406 C 45.328125 14.472656 45.523438 14.542969 45.722656 14.542969 C 45.921875 14.542969 46.125 14.464844 46.277344 14.316406 C 46.585938 14.007812 46.585938 13.515625 46.277344 13.207031 L 44.285156 11.199219 C 43.984375 10.890625 43.476562 10.890625 43.175781 11.199219 C 42.867188 11.507812 42.867188 12.007812 43.175781 12.304688 Z M 45.167969 14.316406 " fill-opacity="1" fill-rule="nonzero"/><path fill="#000000" d="M 59.691406 40.78125 C 58.925781 40.78125 58.214844 41.074219 57.675781 41.605469 L 52.007812 47.144531 L 38.640625 47.144531 C 38.394531 47.144531 38.15625 47.265625 38.015625 47.460938 L 34.023438 52.8125 L 29.894531 39.28125 C 33.539062 34.164062 37.832031 36.820312 38.015625 36.941406 C 38.054688 36.957031 38.09375 36.964844 38.132812 36.980469 C 38.164062 36.996094 38.195312 37.011719 38.226562 37.027344 C 38.277344 37.035156 38.316406 37.035156 38.355469 37.042969 C 38.386719 37.042969 38.425781 37.050781 38.457031 37.050781 C 38.464844 37.050781 38.464844 37.050781 38.472656 37.050781 C 38.496094 37.050781 38.503906 37.050781 38.527344 37.050781 C 38.585938 37.042969 38.640625 37.035156 38.6875 37.019531 C 38.71875 37.011719 38.734375 37.003906 38.757812 36.996094 C 38.804688 36.972656 38.859375 36.949219 38.90625 36.914062 C 38.890625 36.914062 38.898438 36.914062 38.917969 36.90625 C 38.925781 36.90625 38.925781 36.898438 38.933594 36.890625 C 38.988281 36.851562 39.042969 36.796875 39.089844 36.734375 C 42.347656 32.21875 45.484375 34.277344 45.824219 34.519531 C 46.09375 34.726562 46.464844 34.734375 46.734375 34.535156 C 47.011719 34.347656 47.128906 33.992188 47.035156 33.667969 C 45.574219 28.859375 42.332031 24.90625 37.894531 22.542969 C 33.699219 20.300781 28.90625 19.746094 24.324219 20.9375 L 23.925781 19.625 C 23.800781 19.214844 23.359375 18.980469 22.953125 19.105469 C 22.535156 19.230469 22.308594 19.667969 22.425781 20.085938 L 22.828125 21.398438 C 18.355469 22.945312 14.695312 26.078125 12.449219 30.285156 C 10.078125 34.71875 9.578125 39.800781 11.042969 44.617188 C 11.136719 44.941406 11.429688 45.152344 11.769531 45.167969 C 11.785156 45.167969 11.785156 45.167969 11.800781 45.167969 C 12.125 45.167969 12.417969 44.964844 12.527344 44.65625 C 12.6875 44.253906 14.140625 40.789062 19.359375 42.734375 C 19.429688 42.757812 19.5 42.773438 19.570312 42.773438 C 19.578125 42.773438 19.585938 42.78125 19.59375 42.78125 C 19.601562 42.78125 19.617188 42.78125 19.636719 42.78125 C 19.644531 42.78125 19.652344 42.78125 19.652344 42.78125 C 19.722656 42.78125 19.792969 42.765625 19.847656 42.75 C 19.863281 42.75 19.871094 42.742188 19.886719 42.742188 C 19.941406 42.726562 20 42.695312 20.054688 42.664062 C 20.0625 42.664062 20.070312 42.65625 20.085938 42.648438 C 20.125 42.609375 20.179688 42.558594 20.226562 42.511719 C 20.234375 42.503906 20.242188 42.496094 20.25 42.480469 C 20.28125 42.433594 20.316406 42.386719 20.347656 42.332031 C 20.347656 42.324219 20.363281 42.316406 20.363281 42.308594 C 20.449219 42.109375 22.503906 37.5 28.410156 39.738281 L 32.472656 53.074219 L 16.550781 53.074219 C 14.96875 53.074219 13.675781 54.363281 13.675781 55.953125 C 13.675781 57.542969 14.96875 58.820312 16.550781 58.820312 L 20.757812 58.820312 L 17.066406 64.679688 C 16.835938 65.042969 16.945312 65.527344 17.3125 65.753906 C 17.445312 65.832031 17.585938 65.882812 17.738281 65.882812 C 17.992188 65.882812 18.242188 65.746094 18.402344 65.511719 L 22.613281 58.8125 L 43.878906 58.8125 L 48.09375 65.511719 C 48.246094 65.746094 48.496094 65.882812 48.757812 65.882812 C 48.910156 65.882812 49.042969 65.84375 49.175781 65.753906 C 49.539062 65.527344 49.652344 65.042969 49.421875 64.671875 L 45.730469 58.820312 L 47.136719 58.820312 C 47.90625 58.820312 48.617188 58.53125 49.152344 58 L 61.707031 45.714844 C 62.835938 44.601562 62.847656 42.78125 61.746094 41.652344 C 61.195312 41.089844 60.472656 40.78125 59.691406 40.78125 Z M 39.042969 48.71875 L 50.417969 48.71875 L 45.96875 53.066406 L 35.792969 53.066406 Z M 29.34375 37.445312 L 24.789062 22.480469 C 29.144531 21.902344 34.363281 27.152344 37.152344 34.890625 C 35.289062 34.339844 32.171875 34.179688 29.34375 37.445312 Z M 44.941406 32.464844 C 44.324219 32.308594 43.566406 32.226562 42.734375 32.363281 C 41.296875 32.582031 39.960938 33.367188 38.75 34.679688 C 36.59375 28.519531 33.019531 23.863281 29.273438 21.894531 C 32 21.925781 34.6875 22.605469 37.152344 23.925781 C 40.703125 25.816406 43.40625 28.8125 44.941406 32.464844 Z M 13.902344 41.128906 C 13.128906 41.484375 12.550781 41.96875 12.117188 42.449219 C 11.359375 38.558594 11.941406 34.566406 13.824219 31.027344 C 15.152344 28.542969 17.027344 26.472656 19.277344 24.921875 C 18.6875 26.023438 18.21875 27.328125 17.917969 28.8125 C 17.175781 32.347656 17.390625 36.574219 18.503906 40.84375 C 16.757812 40.425781 15.214844 40.519531 13.902344 41.128906 Z M 19.933594 40.132812 C 18.953125 36.203125 18.78125 32.347656 19.445312 29.128906 C 20.09375 26.023438 21.445312 23.863281 23.296875 22.9375 L 27.847656 37.910156 C 23.683594 36.765625 21.191406 38.632812 19.933594 40.132812 Z M 60.609375 44.59375 L 48.054688 56.878906 C 47.808594 57.121094 47.484375 57.257812 47.136719 57.257812 L 16.550781 57.257812 C 15.832031 57.257812 15.246094 56.664062 15.246094 55.945312 C 15.246094 55.226562 15.832031 54.632812 16.550781 54.632812 L 46.285156 54.632812 C 46.488281 54.632812 46.695312 54.554688 46.835938 54.410156 L 58.773438 42.71875 C 59.273438 42.238281 60.132812 42.246094 60.625 42.742188 C 61.128906 43.257812 61.121094 44.085938 60.609375 44.59375 Z M 60.609375 44.59375 " fill-opacity="1" fill-rule="nonzero"/></svg>