<svg xmlns="http://www.w3.org/2000/svg" xmlns:xlink="http://www.w3.org/1999/xlink" width="100" zoomAndPan="magnify" viewBox="0 0 75 74.999997" height="100" preserveAspectRatio="xMidYMid meet" version="1.0"><defs><clipPath id="64fe3f3efd"><path d="M 14.3125 8.609375 L 60.8125 8.609375 L 60.8125 67.859375 L 14.3125 67.859375 Z M 14.3125 8.609375 " clip-rule="nonzero"/></clipPath></defs><path fill="#000000" d="M 33.691406 31.921875 L 35.625 31.921875 L 35.625 30.949219 C 35.625 29.34375 34.324219 28.035156 32.722656 28.035156 C 31.117188 28.035156 29.816406 29.34375 29.816406 30.949219 L 29.816406 31.921875 L 31.753906 31.921875 L 31.753906 30.949219 C 31.753906 30.414062 32.1875 29.980469 32.722656 29.980469 C 33.253906 29.980469 33.691406 30.414062 33.691406 30.949219 L 33.691406 31.921875 " fill-opacity="1" fill-rule="nonzero"/><path fill="#000000" d="M 41.433594 30.949219 C 41.433594 30.414062 41.871094 29.980469 42.402344 29.980469 C 42.9375 29.980469 43.371094 30.414062 43.371094 30.949219 L 43.371094 31.921875 L 45.304688 31.921875 L 45.304688 30.949219 C 45.304688 29.34375 44.003906 28.035156 42.402344 28.035156 C 40.800781 28.035156 39.5 29.34375 39.5 30.949219 L 39.5 31.921875 L 41.433594 31.921875 L 41.433594 30.949219 " fill-opacity="1" fill-rule="nonzero"/><path fill="#000000" d="M 39.5 35.808594 C 39.5 36.878906 38.628906 37.75 37.5625 37.75 C 36.496094 37.75 35.625 36.878906 35.625 35.808594 Z M 33.691406 35.808594 C 33.691406 37.949219 35.425781 39.691406 37.5625 39.691406 C 39.699219 39.691406 41.433594 37.949219 41.433594 35.808594 L 41.433594 33.863281 L 33.691406 33.863281 L 33.691406 35.808594 " fill-opacity="1" fill-rule="nonzero"/><g clip-path="url(#64fe3f3efd)"><path fill="#000000" d="M 58.859375 65.917969 L 56.921875 65.917969 L 56.921875 54.261719 C 56.921875 49.445312 53.011719 45.519531 48.210938 45.519531 L 43.371094 45.519531 C 42.835938 45.519531 42.402344 45.082031 42.402344 44.550781 L 42.402344 42.503906 C 45.832031 40.917969 48.359375 37.710938 49.003906 33.863281 L 50.148438 33.863281 C 51.75 33.863281 53.050781 32.558594 53.050781 30.949219 C 53.050781 29.34375 51.75 28.035156 50.148438 28.035156 L 49.179688 28.035156 L 49.179688 25.121094 C 49.179688 20.605469 46.363281 16.738281 42.402344 15.183594 L 42.402344 14.027344 C 52.007812 16.253906 58.859375 24.820312 58.859375 34.835938 Z M 51.113281 65.917969 L 51.113281 60.089844 C 51.113281 58.277344 50.410156 56.566406 49.128906 55.28125 C 46.488281 52.628906 42.191406 52.628906 39.546875 55.28125 L 37.5625 57.273438 L 35.578125 55.28125 C 32.933594 52.628906 28.636719 52.628906 25.996094 55.28125 C 24.714844 56.566406 24.007812 58.277344 24.007812 60.089844 L 24.007812 65.917969 L 20.136719 65.917969 L 20.136719 54.261719 C 20.136719 50.511719 23.179688 47.460938 26.914062 47.460938 L 31.070312 47.460938 C 31.816406 49.96875 33.960938 51.859375 36.59375 52.238281 L 36.59375 53.289062 C 36.59375 53.824219 37.027344 54.261719 37.5625 54.261719 C 38.09375 54.261719 38.53125 53.824219 38.53125 53.289062 L 38.53125 52.238281 C 41.164062 51.859375 43.304688 49.96875 44.054688 47.460938 L 48.210938 47.460938 C 51.945312 47.460938 54.988281 50.511719 54.988281 54.261719 L 54.988281 65.917969 Z M 25.945312 65.917969 L 25.945312 60.089844 C 25.945312 58.792969 26.449219 57.574219 27.363281 56.65625 C 29.25 54.761719 32.320312 54.761719 34.207031 56.65625 L 37.5625 60.023438 L 40.917969 56.65625 C 42.804688 54.761719 45.875 54.761719 47.761719 56.65625 C 48.675781 57.574219 49.179688 58.792969 49.179688 60.089844 L 49.179688 65.917969 Z M 25.945312 31.921875 L 24.976562 31.921875 C 24.445312 31.921875 24.007812 31.484375 24.007812 30.949219 C 24.007812 30.414062 24.445312 29.980469 24.976562 29.980469 L 25.945312 29.980469 Z M 16.265625 65.917969 L 16.265625 34.835938 C 16.265625 24.820312 23.117188 16.253906 32.722656 14.027344 L 32.722656 15.183594 C 28.761719 16.738281 25.945312 20.605469 25.945312 25.121094 L 25.945312 28.035156 L 24.976562 28.035156 C 23.375 28.035156 22.074219 29.34375 22.074219 30.949219 C 22.074219 32.558594 23.375 33.863281 24.976562 33.863281 L 26.121094 33.863281 C 26.765625 37.710938 29.292969 40.917969 32.722656 42.503906 L 32.722656 44.550781 C 32.722656 45.082031 32.289062 45.519531 31.753906 45.519531 L 26.914062 45.519531 C 22.113281 45.519531 18.203125 49.445312 18.203125 54.261719 L 18.203125 65.917969 Z M 37.5625 10.554688 C 38.980469 10.554688 40.183594 11.578125 40.417969 12.984375 L 40.417969 12.988281 C 40.441406 13.144531 40.464844 13.304688 40.464844 13.46875 L 40.464844 14.4375 L 34.65625 14.4375 L 34.65625 13.46875 C 34.65625 13.304688 34.683594 13.144531 34.707031 12.988281 L 34.707031 12.984375 C 34.941406 11.578125 36.144531 10.554688 37.5625 10.554688 Z M 38.53125 24.152344 C 36.925781 24.152344 35.625 22.847656 35.625 21.238281 C 35.625 20.703125 35.191406 20.265625 34.65625 20.265625 L 32.722656 20.265625 C 32.1875 20.265625 31.753906 20.703125 31.753906 21.238281 C 31.753906 22.847656 30.453125 24.152344 28.851562 24.152344 L 27.933594 24.152344 C 28.417969 19.789062 32.117188 16.382812 36.59375 16.382812 L 38.53125 16.382812 C 43.007812 16.382812 46.707031 19.789062 47.191406 24.152344 Z M 40.464844 43.578125 L 40.464844 44.550781 C 40.464844 45.695312 41.136719 46.679688 42.101562 47.15625 C 41.425781 49.027344 39.65625 50.375 37.5625 50.375 C 35.46875 50.375 33.699219 49.027344 33.023438 47.15625 C 33.988281 46.679688 34.65625 45.695312 34.65625 44.550781 L 34.65625 43.578125 Z M 47.242188 28.035156 L 47.242188 31.921875 C 47.242188 37.277344 42.902344 41.636719 37.5625 41.636719 C 32.222656 41.636719 27.882812 37.277344 27.882812 31.921875 L 27.882812 26.09375 L 28.851562 26.09375 C 31.1875 26.09375 33.140625 24.425781 33.589844 22.207031 L 33.789062 22.207031 C 34.238281 24.425781 36.195312 26.09375 38.53125 26.09375 L 47.242188 26.09375 Z M 49.179688 29.980469 L 50.148438 29.980469 C 50.679688 29.980469 51.113281 30.414062 51.113281 30.949219 C 51.113281 31.484375 50.679688 31.921875 50.148438 31.921875 L 49.179688 31.921875 Z M 42.152344 12.007812 C 41.527344 10.007812 39.703125 8.609375 37.5625 8.609375 C 35.421875 8.609375 33.59375 10.007812 32.972656 12.007812 C 22.132812 14.183594 14.328125 23.671875 14.328125 34.835938 L 14.328125 66.890625 C 14.328125 67.425781 14.765625 67.859375 15.296875 67.859375 L 59.828125 67.859375 C 60.359375 67.859375 60.796875 67.425781 60.796875 66.890625 L 60.796875 34.835938 C 60.796875 23.671875 52.992188 14.183594 42.152344 12.007812 " fill-opacity="1" fill-rule="nonzero"/></g></svg>