<svg xmlns="http://www.w3.org/2000/svg" xmlns:xlink="http://www.w3.org/1999/xlink" width="100" zoomAndPan="magnify" viewBox="0 0 75 74.999997" height="100" preserveAspectRatio="xMidYMid meet" version="1.0"><defs><clipPath id="6831a233ba"><path d="M 14 43 L 64.886719 43 L 64.886719 66.144531 L 14 66.144531 Z M 14 43 " clip-rule="nonzero"/></clipPath><clipPath id="e89b3757a8"><path d="M 10.136719 42 L 17 42 L 17 65 L 10.136719 65 Z M 10.136719 42 " clip-rule="nonzero"/></clipPath><clipPath id="05875e327e"><path d="M 32 9.144531 L 43 9.144531 L 43 28 L 32 28 Z M 32 9.144531 " clip-rule="nonzero"/></clipPath></defs><g clip-path="url(#6831a233ba)"><path fill="#000000" d="M 37.316406 66.140625 C 35.417969 66.132812 33.574219 65.816406 31.785156 65.1875 C 31.753906 65.179688 31.726562 65.167969 31.699219 65.15625 L 25.042969 62.207031 C 24.136719 61.871094 21.660156 61.003906 20.59375 60.851562 C 17.742188 60.441406 16.515625 60.6875 16.039062 60.871094 C 15.871094 60.933594 15.699219 60.953125 15.519531 60.933594 C 15.339844 60.910156 15.179688 60.847656 15.03125 60.746094 C 14.882812 60.644531 14.769531 60.511719 14.6875 60.351562 C 14.601562 60.191406 14.5625 60.023438 14.5625 59.84375 L 14.5625 47.585938 C 14.5625 47.441406 14.589844 47.300781 14.644531 47.167969 C 14.699219 47.03125 14.777344 46.914062 14.882812 46.8125 C 14.984375 46.710938 15.101562 46.628906 15.234375 46.574219 C 15.367188 46.519531 15.507812 46.492188 15.652344 46.492188 C 15.796875 46.492188 15.933594 46.519531 16.066406 46.574219 C 16.203125 46.628906 16.320312 46.710938 16.421875 46.8125 C 16.523438 46.914062 16.601562 47.03125 16.65625 47.167969 C 16.710938 47.300781 16.738281 47.441406 16.738281 47.585938 L 16.738281 58.5 C 17.839844 58.382812 19.230469 58.445312 20.898438 58.683594 C 22.40625 58.898438 25.484375 60.039062 25.832031 60.167969 C 25.851562 60.171875 25.871094 60.183594 25.890625 60.191406 L 32.535156 63.132812 C 35.417969 64.121094 37.863281 64.035156 39.410156 63.785156 C 40.839844 63.550781 42.945312 62.839844 43.742188 62.570312 L 43.875 62.523438 C 52.875 59.492188 61.050781 50.484375 62.414062 48.925781 C 62.535156 47.972656 62.511719 46.828125 61.871094 46.21875 C 61.164062 45.558594 59.851562 45.617188 59.207031 45.722656 L 48.453125 53.515625 C 48.335938 53.601562 48.207031 53.660156 48.066406 53.691406 C 47.925781 53.726562 47.785156 53.730469 47.640625 53.707031 C 47.5 53.683594 47.367188 53.632812 47.242188 53.558594 C 47.121094 53.480469 47.015625 53.382812 46.933594 53.265625 C 46.847656 53.148438 46.789062 53.019531 46.757812 52.875 C 46.722656 52.734375 46.71875 52.59375 46.742188 52.449219 C 46.765625 52.304688 46.8125 52.171875 46.890625 52.050781 C 46.964844 51.925781 47.0625 51.820312 47.179688 51.738281 L 58.125 43.804688 C 58.238281 43.71875 58.367188 43.660156 58.503906 43.628906 C 58.8125 43.554688 61.570312 42.945312 63.347656 44.609375 C 64.488281 45.675781 64.882812 47.34375 64.519531 49.574219 C 64.484375 49.773438 64.40625 49.949219 64.273438 50.101562 C 64.179688 50.214844 61.929688 52.878906 58.382812 56.007812 C 53.589844 60.230469 48.941406 63.121094 44.566406 64.59375 L 44.433594 64.636719 C 43.59375 64.921875 41.363281 65.675781 39.753906 65.9375 C 38.949219 66.070312 38.132812 66.136719 37.316406 66.140625 Z M 37.316406 66.140625 " fill-opacity="1" fill-rule="nonzero"/></g><path fill="#000000" d="M 44.289062 57.316406 L 32.554688 57.316406 C 32.410156 57.316406 32.269531 57.289062 32.136719 57.234375 C 32.003906 57.179688 31.886719 57.097656 31.78125 56.996094 C 31.679688 56.894531 31.601562 56.777344 31.546875 56.640625 C 31.492188 56.507812 31.464844 56.367188 31.464844 56.222656 C 31.464844 56.078125 31.492188 55.9375 31.546875 55.804688 C 31.601562 55.671875 31.679688 55.550781 31.78125 55.449219 C 31.886719 55.347656 32.003906 55.269531 32.136719 55.210938 C 32.269531 55.15625 32.410156 55.128906 32.554688 55.128906 L 44.289062 55.128906 C 44.578125 55.125 44.859375 55.0625 45.128906 54.949219 C 45.394531 54.832031 45.632812 54.667969 45.835938 54.460938 C 46.039062 54.25 46.199219 54.011719 46.308594 53.738281 C 46.417969 53.46875 46.476562 53.1875 46.476562 52.890625 C 46.476562 52.597656 46.417969 52.316406 46.308594 52.046875 C 46.199219 51.773438 46.039062 51.535156 45.835938 51.324219 C 45.632812 51.117188 45.394531 50.953125 45.128906 50.835938 C 44.859375 50.722656 44.578125 50.660156 44.289062 50.65625 L 32.523438 50.65625 C 32.425781 50.65625 30.066406 50.574219 27.125 49.296875 L 26.941406 49.214844 C 24.214844 48.015625 22.214844 47.402344 20.996094 47.390625 C 19.121094 47.382812 17.5 47.746094 16.183594 48.476562 C 16.058594 48.546875 15.921875 48.59375 15.777344 48.609375 C 15.636719 48.625 15.492188 48.613281 15.355469 48.574219 C 15.214844 48.53125 15.089844 48.46875 14.976562 48.378906 C 14.863281 48.285156 14.773438 48.179688 14.703125 48.050781 C 14.632812 47.925781 14.589844 47.789062 14.574219 47.644531 C 14.558594 47.5 14.570312 47.359375 14.609375 47.21875 C 14.648438 47.078125 14.714844 46.953125 14.804688 46.839844 C 14.894531 46.726562 15 46.632812 15.128906 46.5625 C 16.773438 45.648438 18.753906 45.1875 21.007812 45.203125 C 23.058594 45.21875 25.875 46.355469 27.816406 47.207031 L 27.988281 47.285156 C 30.425781 48.34375 32.40625 48.457031 32.574219 48.464844 L 44.289062 48.464844 C 44.574219 48.46875 44.859375 48.5 45.140625 48.558594 C 45.417969 48.621094 45.691406 48.707031 45.957031 48.820312 C 46.21875 48.929688 46.46875 49.070312 46.707031 49.230469 C 46.945312 49.394531 47.164062 49.578125 47.367188 49.78125 C 47.566406 49.988281 47.746094 50.210938 47.90625 50.449219 C 48.0625 50.691406 48.199219 50.945312 48.308594 51.210938 C 48.414062 51.476562 48.496094 51.75 48.554688 52.035156 C 48.609375 52.316406 48.636719 52.601562 48.636719 52.890625 C 48.636719 53.179688 48.609375 53.464844 48.554688 53.746094 C 48.496094 54.03125 48.414062 54.304688 48.308594 54.570312 C 48.199219 54.839844 48.0625 55.09375 47.90625 55.332031 C 47.746094 55.574219 47.566406 55.796875 47.367188 56 C 47.164062 56.207031 46.945312 56.390625 46.707031 56.550781 C 46.46875 56.714844 46.21875 56.851562 45.957031 56.964844 C 45.691406 57.074219 45.417969 57.164062 45.140625 57.222656 C 44.859375 57.28125 44.574219 57.3125 44.289062 57.316406 Z M 44.289062 57.316406 " fill-opacity="1" fill-rule="nonzero"/><g clip-path="url(#e89b3757a8)"><path fill="#000000" d="M 15.65625 64.175781 L 11.226562 64.175781 C 11.082031 64.175781 10.941406 64.148438 10.808594 64.089844 C 10.675781 64.035156 10.558594 63.957031 10.457031 63.855469 C 10.355469 63.75 10.277344 63.632812 10.21875 63.5 C 10.164062 63.367188 10.136719 63.226562 10.136719 63.082031 L 10.136719 43.84375 C 10.136719 43.699219 10.164062 43.5625 10.21875 43.425781 C 10.277344 43.292969 10.355469 43.175781 10.457031 43.070312 C 10.558594 42.96875 10.675781 42.890625 10.808594 42.835938 C 10.941406 42.777344 11.082031 42.75 11.226562 42.75 L 15.65625 42.75 C 15.800781 42.75 15.9375 42.777344 16.070312 42.835938 C 16.207031 42.890625 16.324219 42.96875 16.425781 43.070312 C 16.527344 43.175781 16.605469 43.292969 16.660156 43.425781 C 16.714844 43.5625 16.746094 43.699219 16.746094 43.84375 L 16.746094 63.082031 C 16.746094 63.226562 16.714844 63.367188 16.660156 63.5 C 16.605469 63.632812 16.527344 63.75 16.425781 63.855469 C 16.324219 63.957031 16.207031 64.035156 16.070312 64.089844 C 15.9375 64.148438 15.800781 64.175781 15.65625 64.175781 Z M 12.316406 61.988281 L 14.566406 61.988281 L 14.566406 44.941406 L 12.316406 44.941406 Z M 12.316406 61.988281 " fill-opacity="1" fill-rule="nonzero"/></g><g clip-path="url(#05875e327e)"><path fill="#000000" d="M 37.394531 27.984375 C 37.117188 27.984375 36.871094 27.890625 36.664062 27.703125 C 36.484375 27.539062 32.214844 23.613281 32.214844 18.613281 C 32.214844 13.613281 36.484375 9.6875 36.664062 9.523438 C 36.871094 9.335938 37.117188 9.242188 37.394531 9.242188 C 37.671875 9.242188 37.917969 9.335938 38.125 9.523438 C 38.304688 9.6875 42.574219 13.613281 42.574219 18.613281 C 42.574219 23.613281 38.304688 27.539062 38.125 27.703125 C 37.917969 27.890625 37.671875 27.984375 37.394531 27.984375 Z M 37.394531 11.914062 C 36.308594 13.144531 34.390625 15.722656 34.390625 18.613281 C 34.390625 21.519531 36.304688 24.09375 37.390625 25.316406 C 38.476562 24.085938 40.394531 21.503906 40.394531 18.613281 C 40.394531 15.707031 38.484375 13.136719 37.394531 11.910156 Z M 37.394531 11.914062 " fill-opacity="1" fill-rule="nonzero"/></g><path fill="#000000" d="M 30.363281 31.5625 C 28.683594 31.5625 24.476562 31.253906 21.757812 28.394531 C 18.386719 24.851562 18.765625 18.917969 18.785156 18.667969 C 18.804688 18.394531 18.90625 18.164062 19.097656 17.972656 C 19.289062 17.78125 19.515625 17.675781 19.785156 17.652344 C 20.027344 17.632812 25.722656 17.234375 29.109375 20.800781 C 32.476562 24.339844 32.101562 30.273438 32.082031 30.527344 C 32.0625 30.796875 31.960938 31.027344 31.769531 31.21875 C 31.578125 31.410156 31.351562 31.519531 31.082031 31.539062 C 31.035156 31.542969 30.777344 31.5625 30.363281 31.5625 Z M 31 30.449219 Z M 20.949219 19.832031 C 21 21.488281 21.359375 24.808594 23.332031 26.882812 C 25.265625 28.914062 28.347656 29.304688 29.921875 29.363281 C 29.871094 27.703125 29.511719 24.382812 27.539062 22.3125 C 25.605469 20.28125 22.527344 19.890625 20.949219 19.832031 Z M 20.949219 19.832031 " fill-opacity="1" fill-rule="nonzero"/><path fill="#000000" d="M 37.394531 38.269531 C 37.070312 38.269531 36.804688 38.148438 36.585938 37.90625 L 24.648438 25.351562 C 24.542969 25.246094 24.464844 25.128906 24.410156 24.992188 C 24.351562 24.855469 24.328125 24.710938 24.328125 24.566406 C 24.328125 24.417969 24.359375 24.277344 24.417969 24.140625 C 24.476562 24.007812 24.558594 23.886719 24.664062 23.785156 C 24.769531 23.683594 24.890625 23.605469 25.027344 23.554688 C 25.167969 23.503906 25.308594 23.476562 25.453125 23.484375 C 25.601562 23.488281 25.742188 23.523438 25.875 23.585938 C 26.007812 23.644531 26.125 23.730469 26.222656 23.839844 L 38.179688 36.417969 C 38.332031 36.574219 38.425781 36.761719 38.464844 36.976562 C 38.503906 37.195312 38.480469 37.402344 38.394531 37.601562 C 38.308594 37.804688 38.175781 37.964844 37.996094 38.085938 C 37.8125 38.207031 37.613281 38.269531 37.394531 38.269531 Z M 37.394531 38.269531 " fill-opacity="1" fill-rule="nonzero"/><path fill="#000000" d="M 44.425781 31.5625 C 44.011719 31.5625 43.753906 31.542969 43.703125 31.539062 C 43.4375 31.519531 43.207031 31.410156 43.015625 31.21875 C 42.828125 31.027344 42.722656 30.796875 42.703125 30.527344 C 42.6875 30.273438 42.308594 24.339844 45.675781 20.800781 C 49.066406 17.234375 54.761719 17.632812 55.003906 17.652344 C 55.273438 17.675781 55.503906 17.78125 55.691406 17.972656 C 55.882812 18.164062 55.988281 18.398438 56.003906 18.667969 C 56.023438 18.917969 56.402344 24.851562 53.035156 28.394531 C 50.3125 31.253906 46.105469 31.5625 44.425781 31.5625 Z M 53.839844 19.832031 C 52.265625 19.890625 49.183594 20.277344 47.25 22.3125 C 45.28125 24.382812 44.917969 27.703125 44.867188 29.363281 C 46.441406 29.304688 49.523438 28.914062 51.457031 26.882812 C 53.429688 24.808594 53.789062 21.488281 53.839844 19.832031 Z M 53.839844 19.832031 " fill-opacity="1" fill-rule="nonzero"/><path fill="#000000" d="M 37.394531 38.269531 C 37.25 38.269531 37.109375 38.238281 36.976562 38.183594 C 36.84375 38.128906 36.726562 38.050781 36.625 37.949219 C 36.523438 37.84375 36.445312 37.726562 36.386719 37.59375 C 36.332031 37.457031 36.304688 37.320312 36.304688 37.171875 C 36.304688 36.882812 36.40625 36.628906 36.605469 36.417969 L 42.980469 29.714844 C 42.988281 29.707031 42.992188 29.699219 43 29.691406 L 48.566406 23.839844 C 48.664062 23.734375 48.78125 23.648438 48.914062 23.589844 C 49.046875 23.53125 49.1875 23.496094 49.332031 23.492188 C 49.476562 23.488281 49.617188 23.511719 49.753906 23.566406 C 49.890625 23.617188 50.007812 23.695312 50.113281 23.796875 C 50.21875 23.898438 50.300781 24.015625 50.359375 24.148438 C 50.417969 24.28125 50.449219 24.421875 50.453125 24.566406 C 50.453125 24.714844 50.429688 24.855469 50.375 24.992188 C 50.320312 25.128906 50.242188 25.246094 50.140625 25.351562 L 44.597656 31.179688 L 44.578125 31.203125 L 38.191406 37.917969 C 37.976562 38.152344 37.710938 38.269531 37.394531 38.269531 Z M 37.394531 38.269531 " fill-opacity="1" fill-rule="nonzero"/><path fill="#000000" d="M 37.394531 46.738281 C 37.25 46.738281 37.109375 46.710938 36.976562 46.65625 C 36.84375 46.601562 36.726562 46.523438 36.625 46.417969 C 36.523438 46.316406 36.445312 46.199219 36.386719 46.0625 C 36.332031 45.929688 36.304688 45.789062 36.304688 45.644531 L 36.304688 18.609375 C 36.304688 18.464844 36.332031 18.328125 36.386719 18.191406 C 36.445312 18.058594 36.523438 17.941406 36.625 17.835938 C 36.726562 17.734375 36.84375 17.65625 36.976562 17.601562 C 37.109375 17.542969 37.25 17.515625 37.394531 17.515625 C 37.539062 17.515625 37.679688 17.542969 37.8125 17.601562 C 37.945312 17.65625 38.0625 17.734375 38.164062 17.835938 C 38.265625 17.941406 38.34375 18.058594 38.402344 18.191406 C 38.457031 18.328125 38.484375 18.464844 38.484375 18.609375 L 38.484375 45.644531 C 38.484375 45.789062 38.457031 45.929688 38.402344 46.0625 C 38.34375 46.199219 38.265625 46.316406 38.164062 46.417969 C 38.0625 46.523438 37.945312 46.601562 37.8125 46.65625 C 37.679688 46.710938 37.539062 46.738281 37.394531 46.738281 Z M 37.394531 46.738281 " fill-opacity="1" fill-rule="nonzero"/></svg>