<svg xmlns="http://www.w3.org/2000/svg" xmlns:xlink="http://www.w3.org/1999/xlink" width="100" zoomAndPan="magnify" viewBox="0 0 75 74.999997" height="100" preserveAspectRatio="xMidYMid meet" version="1.0"><defs><clipPath id="343f30be4e"><path d="M 10.761719 34 L 64.011719 34 L 64.011719 64.863281 L 10.761719 64.863281 Z M 10.761719 34 " clip-rule="nonzero"/></clipPath><clipPath id="8d5eee4092"><path d="M 13 10.113281 L 32 10.113281 L 32 37 L 13 37 Z M 13 10.113281 " clip-rule="nonzero"/></clipPath><clipPath id="8445be07a2"><path d="M 41 10.113281 L 61 10.113281 L 61 37 L 41 37 Z M 41 10.113281 " clip-rule="nonzero"/></clipPath><clipPath id="a397a3fb09"><path d="M 10.761719 25 L 14 25 L 14 29 L 10.761719 29 Z M 10.761719 25 " clip-rule="nonzero"/></clipPath></defs><path fill="#000000" d="M 19.933594 31.988281 C 21.375 31.988281 22.546875 30.796875 22.546875 29.335938 C 22.546875 28.15625 21.070312 26.058594 20.617188 25.445312 C 20.457031 25.226562 20.203125 25.097656 19.933594 25.097656 C 19.664062 25.097656 19.410156 25.226562 19.25 25.445312 C 18.796875 26.058594 17.320312 28.15625 17.320312 29.335938 C 17.320312 30.796875 18.492188 31.988281 19.933594 31.988281 Z M 19.933594 27.464844 C 20.460938 28.296875 20.84375 29.0625 20.84375 29.335938 C 20.84375 29.855469 20.4375 30.277344 19.933594 30.277344 C 19.429688 30.277344 19.019531 29.855469 19.019531 29.335938 C 19.023438 29.0625 19.40625 28.296875 19.933594 27.464844 Z M 19.933594 27.464844 " fill-opacity="1" fill-rule="nonzero"/><path fill="#000000" d="M 40.265625 56.03125 C 40.265625 56.257812 40.222656 56.476562 40.132812 56.683594 C 40.042969 56.894531 39.917969 57.078125 39.753906 57.238281 C 39.589844 57.398438 39.402344 57.523438 39.1875 57.609375 C 38.976562 57.695312 38.753906 57.738281 38.519531 57.738281 C 38.289062 57.738281 38.066406 57.695312 37.851562 57.609375 C 37.640625 57.523438 37.449219 57.398438 37.289062 57.238281 C 37.125 57.078125 36.996094 56.894531 36.910156 56.683594 C 36.820312 56.476562 36.777344 56.257812 36.777344 56.03125 C 36.777344 55.804688 36.820312 55.585938 36.910156 55.375 C 36.996094 55.167969 37.125 54.980469 37.289062 54.820312 C 37.449219 54.660156 37.640625 54.539062 37.851562 54.449219 C 38.066406 54.363281 38.289062 54.320312 38.519531 54.320312 C 38.753906 54.320312 38.976562 54.363281 39.1875 54.449219 C 39.402344 54.539062 39.589844 54.660156 39.753906 54.820312 C 39.917969 54.980469 40.042969 55.167969 40.132812 55.375 C 40.222656 55.585938 40.265625 55.804688 40.265625 56.03125 Z M 40.265625 56.03125 " fill-opacity="1" fill-rule="nonzero"/><g clip-path="url(#343f30be4e)"><path fill="#000000" d="M 60.542969 43.324219 C 60.464844 43.324219 60.390625 43.332031 60.316406 43.335938 C 60.636719 42.910156 60.828125 42.382812 60.828125 41.8125 C 60.828125 40.398438 59.664062 39.246094 58.234375 39.246094 C 57.761719 39.246094 57.320312 39.375 56.941406 39.589844 C 54.261719 37.363281 50.429688 35.679688 45.804688 34.761719 C 45.808594 35.335938 45.835938 35.921875 45.875 36.511719 C 50.035156 37.371094 53.464844 38.875 55.835938 40.835938 C 55.707031 41.136719 55.636719 41.464844 55.636719 41.8125 C 55.636719 43.167969 56.707031 44.277344 58.054688 44.367188 C 57.449219 44.984375 57.074219 45.820312 57.074219 46.742188 C 57.074219 47.578125 57.378906 48.34375 57.882812 48.9375 C 57.664062 48.902344 57.441406 48.878906 57.214844 48.878906 C 54.820312 48.878906 52.875 50.796875 52.875 53.15625 C 52.875 53.246094 52.882812 53.335938 52.890625 53.425781 C 51.859375 52.371094 50.417969 51.710938 48.816406 51.710938 C 46.191406 51.710938 43.988281 53.484375 43.355469 55.875 C 42.347656 53.613281 40.050781 52.03125 37.386719 52.03125 C 34.71875 52.03125 32.421875 53.613281 31.414062 55.875 C 30.78125 53.484375 28.578125 51.710938 25.953125 51.710938 C 24.351562 51.710938 22.910156 52.371094 21.882812 53.425781 C 21.886719 53.335938 21.894531 53.246094 21.894531 53.15625 C 21.894531 50.796875 19.949219 48.878906 17.554688 48.878906 C 17.328125 48.878906 17.105469 48.902344 16.886719 48.9375 C 17.390625 48.34375 17.695312 47.578125 17.695312 46.742188 C 17.695312 45.785156 17.292969 44.917969 16.648438 44.296875 C 17.945312 44.160156 18.960938 43.070312 18.960938 41.75 C 18.960938 41.460938 18.910156 41.1875 18.820312 40.929688 C 20.882812 39.1875 23.773438 37.796875 27.269531 36.890625 C 27.320312 36.292969 27.347656 35.703125 27.363281 35.125 C 23.4375 36.09375 20.164062 37.640625 17.800781 39.613281 C 17.386719 39.34375 16.894531 39.183594 16.363281 39.183594 C 14.933594 39.183594 13.769531 40.335938 13.769531 41.75 C 13.769531 42.34375 13.976562 42.894531 14.324219 43.328125 C 14.292969 43.328125 14.261719 43.324219 14.226562 43.324219 C 12.316406 43.324219 10.761719 44.859375 10.761719 46.742188 C 10.761719 48.628906 12.316406 50.164062 14.226562 50.164062 C 14.308594 50.164062 14.390625 50.15625 14.46875 50.152344 C 13.695312 50.925781 13.214844 51.984375 13.214844 53.15625 C 13.214844 55.511719 15.160156 57.429688 17.554688 57.429688 C 18.632812 57.429688 19.621094 57.035156 20.378906 56.390625 C 20.332031 56.679688 20.300781 56.96875 20.300781 57.269531 C 20.300781 60.332031 22.835938 62.824219 25.953125 62.824219 C 28.160156 62.824219 30.070312 61.570312 31 59.746094 C 31.613281 62.660156 34.242188 64.855469 37.386719 64.855469 C 40.527344 64.855469 43.15625 62.660156 43.769531 59.746094 C 44.699219 61.570312 46.609375 62.824219 48.816406 62.824219 C 51.933594 62.824219 54.46875 60.332031 54.46875 57.269531 C 54.46875 56.96875 54.4375 56.679688 54.390625 56.390625 C 55.148438 57.035156 56.136719 57.429688 57.214844 57.429688 C 59.609375 57.429688 61.554688 55.511719 61.554688 53.15625 C 61.554688 51.984375 61.074219 50.925781 60.300781 50.152344 C 60.378906 50.15625 60.460938 50.164062 60.542969 50.164062 C 62.453125 50.164062 64.011719 48.628906 64.011719 46.742188 C 64.011719 44.859375 62.453125 43.324219 60.542969 43.324219 Z M 16.363281 40.894531 C 16.855469 40.894531 17.257812 41.277344 17.257812 41.75 C 17.257812 42.21875 16.855469 42.605469 16.363281 42.605469 C 15.871094 42.605469 15.46875 42.21875 15.46875 41.75 C 15.46875 41.277344 15.871094 40.894531 16.363281 40.894531 Z M 14.226562 48.453125 C 13.253906 48.453125 12.460938 47.6875 12.460938 46.742188 C 12.460938 45.800781 13.253906 45.035156 14.226562 45.035156 C 15.203125 45.035156 15.996094 45.800781 15.996094 46.742188 C 15.996094 47.6875 15.203125 48.453125 14.226562 48.453125 Z M 17.554688 55.71875 C 16.097656 55.71875 14.914062 54.566406 14.914062 53.15625 C 14.914062 51.742188 16.097656 50.589844 17.554688 50.589844 C 19.007812 50.589844 20.195312 51.742188 20.195312 53.15625 C 20.195312 54.566406 19.007812 55.71875 17.554688 55.71875 Z M 25.953125 61.113281 C 23.773438 61.113281 22.003906 59.386719 22.003906 57.269531 C 22.003906 55.148438 23.773438 53.421875 25.953125 53.421875 C 28.128906 53.421875 29.898438 55.148438 29.898438 57.269531 C 29.898438 59.386719 28.128906 61.113281 25.953125 61.113281 Z M 37.386719 63.144531 C 34.726562 63.144531 32.566406 61.035156 32.566406 58.441406 C 32.566406 55.851562 34.726562 53.742188 37.386719 53.742188 C 40.042969 53.742188 42.207031 55.851562 42.207031 58.441406 C 42.207031 61.035156 40.042969 63.144531 37.386719 63.144531 Z M 48.816406 61.113281 C 46.640625 61.113281 44.871094 59.386719 44.871094 57.269531 C 44.871094 55.148438 46.640625 53.421875 48.816406 53.421875 C 50.996094 53.421875 52.765625 55.148438 52.765625 57.269531 C 52.765625 59.386719 50.996094 61.113281 48.816406 61.113281 Z M 57.339844 41.8125 C 57.339844 41.339844 57.738281 40.957031 58.234375 40.957031 C 58.726562 40.957031 59.128906 41.339844 59.128906 41.8125 C 59.128906 42.28125 58.726562 42.667969 58.234375 42.667969 C 57.738281 42.667969 57.339844 42.28125 57.339844 41.8125 Z M 57.214844 55.71875 C 55.761719 55.71875 54.578125 54.566406 54.578125 53.15625 C 54.578125 51.742188 55.761719 50.589844 57.214844 50.589844 C 58.671875 50.589844 59.855469 51.742188 59.855469 53.15625 C 59.855469 54.566406 58.671875 55.71875 57.214844 55.71875 Z M 60.542969 48.453125 C 59.566406 48.453125 58.773438 47.6875 58.773438 46.742188 C 58.773438 45.800781 59.566406 45.035156 60.542969 45.035156 C 61.515625 45.035156 62.308594 45.800781 62.308594 46.742188 C 62.308594 47.6875 61.515625 48.453125 60.542969 48.453125 Z M 60.542969 48.453125 " fill-opacity="1" fill-rule="nonzero"/></g><g clip-path="url(#8d5eee4092)"><path fill="#000000" d="M 19.351562 36.523438 C 22.578125 36.523438 25.199219 33.859375 25.199219 30.578125 C 25.199219 28.453125 22.878906 24.640625 21.335938 22.335938 C 21.746094 21.863281 22 21.246094 22 20.566406 C 22 19.417969 21.285156 18.441406 20.285156 18.054688 L 20.285156 16.714844 C 20.417969 16.726562 20.550781 16.734375 20.683594 16.734375 L 31.945312 16.734375 L 31.945312 15.027344 L 22.476562 15.027344 C 22.46875 14.941406 22.453125 14.855469 22.417969 14.773438 C 22.011719 13.8125 21.136719 13.289062 20.238281 13.472656 C 19.746094 13.574219 19.203125 13.921875 18.875 14.574219 C 17.597656 13.902344 16.71875 12.542969 16.71875 10.976562 C 16.71875 10.503906 16.335938 10.121094 15.867188 10.121094 C 15.398438 10.121094 15.015625 10.503906 15.015625 10.976562 C 15.015625 13.398438 16.496094 15.46875 18.582031 16.320312 L 18.582031 17.996094 C 17.496094 18.332031 16.703125 19.355469 16.703125 20.566406 C 16.703125 21.246094 16.957031 21.863281 17.367188 22.335938 C 15.820312 24.640625 13.5 28.453125 13.5 30.578125 C 13.5 33.859375 16.125 36.523438 19.351562 36.523438 Z M 19.351562 19.589844 C 19.871094 19.589844 20.296875 20.027344 20.296875 20.566406 C 20.296875 21.101562 19.871094 21.539062 19.351562 21.539062 C 18.828125 21.539062 18.40625 21.101562 18.40625 20.566406 C 18.40625 20.027344 18.828125 19.589844 19.351562 19.589844 Z M 18.84375 23.199219 C 19.007812 23.230469 19.175781 23.25 19.351562 23.25 C 19.523438 23.25 19.695312 23.230469 19.859375 23.199219 C 21.582031 25.765625 23.5 29.097656 23.5 30.578125 C 23.5 32.914062 21.636719 34.8125 19.351562 34.8125 C 17.0625 34.8125 15.203125 32.914062 15.203125 30.578125 C 15.203125 29.101562 17.121094 25.765625 18.84375 23.199219 Z M 18.84375 23.199219 " fill-opacity="1" fill-rule="nonzero"/></g><path fill="#000000" d="M 53.804688 25.445312 C 53.351562 26.058594 51.875 28.15625 51.875 29.335938 C 51.875 30.796875 53.046875 31.988281 54.488281 31.988281 C 55.929688 31.988281 57.101562 30.796875 57.101562 29.335938 C 57.101562 28.15625 55.625 26.058594 55.171875 25.445312 C 54.851562 25.007812 54.125 25.007812 53.804688 25.445312 Z M 54.488281 30.277344 C 53.984375 30.277344 53.578125 29.855469 53.578125 29.335938 C 53.578125 29.0625 53.960938 28.296875 54.488281 27.464844 C 55.011719 28.296875 55.398438 29.066406 55.402344 29.335938 C 55.402344 29.855469 54.992188 30.277344 54.488281 30.277344 Z M 54.488281 30.277344 " fill-opacity="1" fill-rule="nonzero"/><path fill="#000000" d="M 44.324219 22.402344 C 44.289062 22.507812 44.230469 22.679688 44.15625 22.917969 C 43.285156 23.757812 40.441406 24.613281 36.621094 24.613281 C 36.34375 24.613281 36.070312 24.609375 35.804688 24.597656 C 35.53125 24.589844 35.269531 24.578125 35.011719 24.5625 C 31.625 24.347656 29.523438 23.476562 28.972656 22.796875 C 28.933594 22.671875 28.902344 22.570312 28.875 22.492188 C 29.015625 22.097656 30.050781 21.460938 31.945312 21.023438 L 31.945312 19.277344 C 29.277344 19.816406 27.226562 20.875 27.160156 22.503906 C 27.160156 22.519531 27.15625 22.539062 27.15625 22.554688 C 27.15625 22.5625 27.15625 22.570312 27.15625 22.582031 C 27.15625 22.613281 27.160156 22.648438 27.164062 22.683594 C 27.164062 22.691406 27.164062 22.699219 27.164062 22.707031 C 27.183594 23 27.273438 23.28125 27.425781 23.542969 C 27.691406 24.414062 28.105469 25.9375 28.449219 27.878906 C 28.453125 27.882812 28.453125 27.890625 28.453125 27.898438 C 28.777344 29.714844 29.035156 31.898438 29.046875 34.253906 C 29.046875 34.273438 29.046875 34.292969 29.046875 34.316406 C 29.050781 35.316406 29.011719 36.347656 28.910156 37.394531 C 28.910156 37.402344 28.90625 37.410156 28.90625 37.417969 C 28.8125 38.398438 28.667969 39.394531 28.457031 40.390625 C 28.457031 40.398438 28.453125 40.402344 28.453125 40.410156 C 28.226562 41.492188 27.925781 42.574219 27.53125 43.640625 C 27.285156 44 27.15625 44.394531 27.15625 44.789062 C 27.15625 44.789062 27.15625 44.789062 27.15625 44.792969 C 27.15625 44.796875 27.15625 44.800781 27.15625 44.808594 C 27.179688 47.367188 32.074219 48.53125 36.621094 48.53125 C 41.179688 48.53125 46.089844 47.359375 46.089844 44.789062 C 46.089844 44.453125 45.992188 43.964844 45.570312 43.460938 C 42.6875 35.351562 44.871094 26.484375 45.683594 23.746094 C 45.945312 23.382812 46.089844 22.984375 46.089844 22.582031 C 46.089844 20.847656 43.855469 19.75 41.007812 19.21875 L 41.007812 20.964844 C 42.941406 21.371094 44.058594 21.984375 44.324219 22.402344 Z M 44.316406 44.96875 C 43.894531 45.636719 41.292969 46.820312 36.621094 46.820312 C 31.75 46.820312 29.125 45.53125 28.878906 44.882812 C 28.949219 44.707031 29.023438 44.53125 29.085938 44.351562 C 29.085938 44.347656 29.085938 44.347656 29.085938 44.34375 C 29.089844 44.34375 29.089844 44.339844 29.089844 44.335938 C 29.09375 44.332031 29.09375 44.332031 29.09375 44.332031 C 29.320312 43.722656 29.507812 43.109375 29.683594 42.492188 C 31.449219 43.691406 34.78125 44.25 37.878906 44.25 C 38.351562 44.25 38.730469 43.867188 38.730469 43.394531 C 38.730469 42.925781 38.351562 42.542969 37.878906 42.542969 C 33.179688 42.542969 30.402344 41.300781 30.144531 40.597656 C 30.238281 40.148438 30.316406 39.695312 30.386719 39.246094 C 32.207031 40.328125 35.351562 40.828125 38.300781 40.828125 C 38.769531 40.828125 39.152344 40.445312 39.152344 39.972656 C 39.152344 39.5 38.769531 39.117188 38.300781 39.117188 C 34.007812 39.117188 31.152344 38.066406 30.621094 37.269531 C 30.660156 36.84375 30.6875 36.421875 30.707031 36 C 30.722656 36.007812 30.738281 36.019531 30.753906 36.027344 C 32.46875 36.890625 35.289062 37.40625 38.300781 37.40625 C 38.769531 37.40625 39.152344 37.023438 39.152344 36.550781 C 39.152344 36.078125 38.769531 35.695312 38.300781 35.695312 C 35.542969 35.695312 33.007812 35.246094 31.511719 34.496094 C 31.105469 34.292969 30.871094 34.113281 30.738281 33.980469 C 30.734375 33.570312 30.722656 33.167969 30.703125 32.769531 C 32.429688 33.527344 35.019531 33.984375 37.878906 33.984375 C 38.351562 33.984375 38.730469 33.601562 38.730469 33.128906 C 38.730469 32.65625 38.351562 32.273438 37.878906 32.273438 C 34.203125 32.273438 31.597656 31.515625 30.558594 30.753906 C 30.511719 30.289062 30.460938 29.839844 30.402344 29.402344 C 32.125 30.125 34.65625 30.558594 37.460938 30.558594 C 37.929688 30.558594 38.3125 30.175781 38.3125 29.703125 C 38.3125 29.230469 37.929688 28.847656 37.460938 28.847656 C 33.84375 28.847656 31.089844 28.082031 30.066406 27.28125 C 29.925781 26.515625 29.777344 25.8125 29.628906 25.195312 C 29.667969 25.210938 29.710938 25.222656 29.75 25.238281 C 29.910156 25.300781 30.074219 25.359375 30.242188 25.417969 C 30.308594 25.4375 30.371094 25.460938 30.4375 25.484375 C 30.667969 25.554688 30.910156 25.625 31.15625 25.691406 C 31.195312 25.699219 31.238281 25.707031 31.277344 25.71875 C 31.488281 25.773438 31.707031 25.820312 31.929688 25.867188 C 32.011719 25.882812 32.09375 25.898438 32.179688 25.917969 C 32.371094 25.953125 32.570312 25.988281 32.765625 26.019531 C 32.847656 26.03125 32.925781 26.046875 33.003906 26.058594 C 33.277344 26.097656 33.550781 26.136719 33.828125 26.167969 C 33.851562 26.171875 33.878906 26.171875 33.90625 26.175781 C 34.160156 26.203125 34.414062 26.226562 34.667969 26.246094 C 34.753906 26.253906 34.839844 26.257812 34.925781 26.261719 C 35.132812 26.277344 35.335938 26.289062 35.542969 26.296875 C 35.625 26.300781 35.707031 26.304688 35.792969 26.308594 C 36.070312 26.316406 36.347656 26.324219 36.621094 26.324219 C 36.933594 26.324219 37.238281 26.316406 37.539062 26.304688 C 37.632812 26.300781 37.722656 26.296875 37.8125 26.292969 C 38.03125 26.285156 38.246094 26.273438 38.457031 26.257812 C 38.546875 26.25 38.640625 26.246094 38.730469 26.238281 C 38.980469 26.21875 39.226562 26.195312 39.472656 26.167969 C 39.507812 26.164062 39.546875 26.160156 39.582031 26.15625 C 39.863281 26.125 40.136719 26.085938 40.40625 26.042969 C 40.472656 26.03125 40.535156 26.019531 40.597656 26.011719 C 40.804688 25.976562 41.003906 25.9375 41.203125 25.898438 C 41.273438 25.886719 41.34375 25.871094 41.410156 25.855469 C 41.625 25.8125 41.835938 25.761719 42.039062 25.710938 C 42.070312 25.703125 42.105469 25.695312 42.136719 25.683594 C 42.378906 25.621094 42.613281 25.554688 42.835938 25.480469 C 42.863281 25.472656 42.886719 25.464844 42.914062 25.453125 C 43.105469 25.390625 43.289062 25.324219 43.464844 25.253906 C 43.488281 25.246094 43.511719 25.238281 43.53125 25.230469 C 42.574219 29.289062 41.414062 37 44.023438 44.183594 C 44.023438 44.183594 44.023438 44.1875 44.023438 44.1875 C 44.023438 44.191406 44.027344 44.195312 44.027344 44.199219 C 44.027344 44.199219 44.027344 44.203125 44.027344 44.203125 C 44.113281 44.445312 44.210938 44.699219 44.316406 44.96875 Z M 44.316406 44.96875 " fill-opacity="1" fill-rule="nonzero"/><g clip-path="url(#8445be07a2)"><path fill="#000000" d="M 54.179688 16.667969 L 54.179688 18.042969 C 53.15625 18.414062 52.421875 19.402344 52.421875 20.566406 C 52.421875 21.246094 52.675781 21.863281 53.085938 22.335938 C 51.542969 24.640625 49.222656 28.453125 49.222656 30.578125 C 49.222656 33.859375 51.84375 36.523438 55.070312 36.523438 C 58.296875 36.523438 60.917969 33.859375 60.917969 30.578125 C 60.917969 28.453125 58.597656 24.640625 57.054688 22.335938 C 57.464844 21.863281 57.71875 21.246094 57.71875 20.566406 C 57.71875 19.371094 56.945312 18.359375 55.878906 18.011719 L 55.878906 16.128906 C 57.742188 15.183594 59.03125 13.234375 59.03125 10.976562 C 59.03125 10.503906 58.648438 10.121094 58.179688 10.121094 C 57.710938 10.121094 57.328125 10.503906 57.328125 10.976562 C 57.328125 12.449219 56.550781 13.738281 55.394531 14.449219 C 55.066406 14 54.628906 13.746094 54.222656 13.664062 C 53.324219 13.480469 52.449219 14.003906 52.046875 14.964844 C 52.039062 14.984375 52.035156 15.003906 52.027344 15.027344 L 41.007812 15.027344 L 41.007812 16.734375 L 53.363281 16.734375 C 53.640625 16.734375 53.910156 16.707031 54.179688 16.667969 Z M 59.21875 30.578125 C 59.21875 32.914062 57.359375 34.8125 55.070312 34.8125 C 52.785156 34.8125 50.921875 32.914062 50.921875 30.578125 C 50.921875 29.101562 52.839844 25.765625 54.5625 23.199219 C 54.726562 23.230469 54.898438 23.25 55.070312 23.25 C 55.246094 23.25 55.414062 23.230469 55.578125 23.199219 C 57.300781 25.765625 59.21875 29.097656 59.21875 30.578125 Z M 55.070312 19.589844 C 55.59375 19.589844 56.015625 20.027344 56.015625 20.566406 C 56.015625 21.101562 55.59375 21.539062 55.070312 21.539062 C 54.550781 21.539062 54.125 21.101562 54.125 20.566406 C 54.125 20.027344 54.550781 19.589844 55.070312 19.589844 Z M 55.070312 19.589844 " fill-opacity="1" fill-rule="nonzero"/></g><path fill="#000000" d="M 34.476562 23.324219 L 38.476562 23.324219 C 38.945312 23.324219 39.328125 22.941406 39.328125 22.46875 L 39.328125 15.117188 C 39.328125 13.539062 38.046875 12.253906 36.476562 12.253906 C 34.90625 12.253906 33.625 13.539062 33.625 15.117188 L 33.625 22.46875 C 33.625 22.941406 34.007812 23.324219 34.476562 23.324219 Z M 35.328125 15.117188 C 35.328125 14.480469 35.84375 13.960938 36.476562 13.960938 C 37.109375 13.960938 37.625 14.480469 37.625 15.117188 L 37.625 16.90625 L 35.328125 16.90625 Z M 35.328125 18.617188 L 37.625 18.617188 L 37.625 21.613281 L 35.328125 21.613281 Z M 35.328125 18.617188 " fill-opacity="1" fill-rule="nonzero"/><path fill="#000000" d="M 62.390625 28.003906 L 62.785156 27.265625 L 63.507812 26.863281 L 62.785156 26.457031 L 62.390625 25.722656 L 61.992188 26.457031 L 61.269531 26.863281 L 61.992188 27.265625 Z M 62.390625 28.003906 " fill-opacity="1" fill-rule="nonzero"/><path fill="#000000" d="M 49.394531 24.078125 L 50.167969 24.371094 L 49.992188 23.546875 L 50.277344 22.757812 L 49.46875 22.941406 L 48.695312 22.652344 L 48.871094 23.472656 L 48.585938 24.261719 Z M 49.394531 24.078125 " fill-opacity="1" fill-rule="nonzero"/><path fill="#000000" d="M 60.675781 35.847656 L 59.902344 35.558594 L 60.078125 36.378906 L 59.792969 37.167969 L 60.601562 36.988281 L 61.375 37.277344 L 61.195312 36.457031 L 61.480469 35.667969 Z M 60.675781 35.847656 " fill-opacity="1" fill-rule="nonzero"/><path fill="#000000" d="M 42.5 50.503906 L 41.726562 50.214844 L 41.902344 51.035156 L 41.617188 51.824219 L 42.425781 51.640625 L 43.199219 51.929688 L 43.023438 51.109375 L 43.308594 50.320312 Z M 42.5 50.503906 " fill-opacity="1" fill-rule="nonzero"/><g clip-path="url(#a397a3fb09)"><path fill="#000000" d="M 11.886719 28.003906 L 12.285156 27.265625 L 13.007812 26.863281 L 12.285156 26.457031 L 11.886719 25.722656 L 11.492188 26.457031 L 10.765625 26.863281 L 11.492188 27.265625 Z M 11.886719 28.003906 " fill-opacity="1" fill-rule="nonzero"/></g><path fill="#000000" d="M 24.882812 24.078125 L 25.6875 24.261719 L 25.402344 23.472656 L 25.582031 22.652344 L 24.808594 22.941406 L 24 22.757812 L 24.285156 23.546875 L 24.105469 24.371094 Z M 24.882812 24.078125 " fill-opacity="1" fill-rule="nonzero"/><path fill="#000000" d="M 13.675781 36.988281 L 14.480469 37.167969 L 14.199219 36.378906 L 14.375 35.558594 L 13.601562 35.847656 L 12.792969 35.667969 L 13.078125 36.457031 L 12.902344 37.277344 Z M 13.675781 36.988281 " fill-opacity="1" fill-rule="nonzero"/></svg>