<svg xmlns="http://www.w3.org/2000/svg" xmlns:xlink="http://www.w3.org/1999/xlink" width="100" zoomAndPan="magnify" viewBox="0 0 75 74.999997" height="100" preserveAspectRatio="xMidYMid meet" version="1.0"><defs><clipPath id="c1e16eb5f3"><path d="M 18 9.90625 L 67.460938 9.90625 L 67.460938 65.40625 L 18 65.40625 Z M 18 9.90625 " clip-rule="nonzero"/></clipPath><clipPath id="4af139f84f"><path d="M 9.710938 21 L 23 21 L 23 65.40625 L 9.710938 65.40625 Z M 9.710938 21 " clip-rule="nonzero"/></clipPath></defs><g clip-path="url(#c1e16eb5f3)"><path fill="#000000" d="M 30.761719 10.03125 C 26.488281 10.464844 22.945312 11.59375 19.851562 13.519531 C 18.582031 14.3125 18.164062 14.695312 18.164062 15.09375 C 18.164062 15.25 19.839844 18.691406 21.875 22.730469 L 25.589844 30.078125 L 25.589844 64.128906 L 25.847656 64.515625 C 25.980469 64.730469 26.320312 65.011719 26.601562 65.148438 L 27.09375 65.410156 L 43.851562 65.339844 C 62.574219 65.273438 61.652344 65.316406 63.363281 64.480469 C 64.128906 64.117188 64.511719 63.835938 65.230469 63.101562 C 66.703125 61.628906 67.410156 59.886719 67.421875 57.792969 C 67.421875 57 67.390625 56.875 67.140625 56.636719 L 66.871094 56.355469 L 52.972656 56.355469 L 53.804688 55.890625 C 56.535156 54.398438 59.066406 51.894531 60.550781 49.238281 C 64.230469 42.660156 63.226562 34.511719 58.078125 29.035156 C 55.1875 25.96875 51.441406 24.144531 47.179688 23.75 C 45.773438 23.613281 43.546875 23.714844 42.703125 23.941406 C 42.390625 24.03125 42.1875 24.542969 44.59375 19.257812 C 46.011719 16.121094 46.394531 15.183594 46.335938 14.957031 C 46.246094 14.582031 45.671875 14.050781 44.503906 13.269531 C 41.277344 11.097656 36.96875 9.910156 32.515625 9.976562 C 31.773438 9.976562 30.976562 10.011719 30.761719 10.03125 Z M 31.660156 16.621094 C 31.660156 19.234375 31.695312 21.453125 31.726562 21.554688 C 31.808594 21.757812 32.347656 22.0625 32.617188 22.0625 C 32.71875 22.0625 32.953125 21.917969 33.132812 21.734375 L 33.460938 21.40625 L 33.460938 11.84375 L 34.5625 11.910156 C 36.621094 12.058594 38.800781 12.558594 40.703125 13.335938 C 41.792969 13.789062 43.335938 14.652344 43.941406 15.160156 L 44.277344 15.441406 L 41.199219 22.234375 L 38.105469 29.023438 L 27.140625 29.023438 L 23.722656 22.246094 C 21.832031 18.519531 20.300781 15.453125 20.324219 15.441406 C 20.820312 15 22.628906 14.0625 24.113281 13.460938 C 26.148438 12.648438 29.253906 11.957031 31.132812 11.890625 L 31.660156 11.878906 Z M 48.023438 25.515625 C 50.207031 25.84375 52.488281 26.738281 54.378906 28.003906 C 55.535156 28.785156 57.359375 30.574219 58.203125 31.761719 C 59.496094 33.59375 60.429688 35.78125 60.867188 37.988281 C 61.160156 39.503906 61.125 42.355469 60.800781 43.90625 C 59.539062 49.800781 55.300781 54.261719 49.464844 55.8125 C 48.179688 56.152344 48.046875 56.171875 45.773438 56.171875 C 43.175781 56.183594 42.289062 56.039062 40.410156 55.3125 L 39.53125 54.984375 L 39.53125 52.890625 C 39.53125 51.75 39.554688 50.808594 39.589844 50.808594 C 39.621094 50.808594 40.039062 51 40.523438 51.25 C 44.898438 53.457031 50.125 52.6875 53.65625 49.316406 C 56.144531 46.925781 57.335938 44.132812 57.324219 40.738281 C 57.300781 34.558594 52.535156 29.511719 46.359375 29.125 C 44.402344 29.011719 42.511719 29.410156 40.578125 30.335938 C 40.074219 30.574219 39.632812 30.777344 39.601562 30.777344 C 39.410156 30.777344 39.632812 30.144531 40.535156 28.164062 C 41.511719 26.011719 41.546875 25.96875 41.960938 25.820312 C 43.277344 25.367188 46.101562 25.230469 48.023438 25.515625 Z M 48.449219 31.164062 C 50.148438 31.671875 51.332031 32.351562 52.625 33.59375 C 54.019531 34.941406 54.894531 36.449219 55.410156 38.371094 C 55.761719 39.683594 55.761719 41.960938 55.402344 43.285156 C 54.199219 47.789062 50.304688 50.808594 45.71875 50.808594 C 43.75 50.808594 42.1875 50.367188 40.464844 49.304688 L 39.53125 48.738281 L 39.53125 45.195312 L 40.074219 44.6875 C 40.367188 44.402344 42.378906 42.605469 44.539062 40.679688 C 49.171875 36.582031 49.203125 36.550781 49.203125 36.097656 C 49.203125 35.621094 48.765625 35.191406 48.269531 35.191406 C 47.945312 35.191406 47.4375 35.597656 43.773438 38.871094 C 41.5 40.894531 39.621094 42.546875 39.589844 42.546875 C 39.554688 42.546875 39.53125 41.789062 39.53125 40.863281 L 39.53125 39.175781 L 41.941406 37.015625 C 43.265625 35.8125 44.378906 34.761719 44.414062 34.671875 C 44.640625 34.082031 44.199219 33.378906 43.605469 33.378906 C 43.210938 33.378906 42.984375 33.550781 41.140625 35.214844 C 40.332031 35.949219 39.632812 36.550781 39.601562 36.550781 C 39.566406 36.550781 39.53125 35.734375 39.53125 34.738281 L 39.53125 32.929688 L 40.015625 32.578125 C 41.027344 31.832031 42.683594 31.152344 44.109375 30.890625 C 44.402344 30.835938 45.28125 30.8125 46.054688 30.835938 C 47.144531 30.855469 47.675781 30.9375 48.449219 31.164062 Z M 37.734375 32.871094 L 37.734375 34.398438 L 27.386719 34.398438 L 27.386719 31.34375 L 37.734375 31.34375 Z M 37.734375 47.472656 L 37.734375 58.617188 L 27.386719 58.617188 L 27.386719 36.324219 L 37.734375 36.324219 Z M 65.734375 58.425781 C 65.734375 59.988281 64.285156 62.160156 62.722656 62.964844 C 61.441406 63.621094 61.789062 63.597656 50.195312 63.597656 L 39.53125 63.597656 L 39.53125 58.050781 L 65.734375 58.050781 Z M 37.734375 61.957031 L 37.734375 63.484375 L 27.386719 63.484375 L 27.386719 60.429688 L 37.734375 60.429688 Z M 37.734375 61.957031 " fill-opacity="1" fill-rule="nonzero"/></g><g clip-path="url(#4af139f84f)"><path fill="#000000" d="M 13.21875 27.878906 L 13.21875 33.945312 L 12.496094 33.945312 C 11.363281 33.945312 11.417969 33.707031 11.417969 38.609375 L 11.417969 42.773438 L 10.820312 42.773438 C 9.753906 42.773438 9.84375 41.6875 9.84375 54.125 L 9.84375 65.058594 L 10.089844 65.226562 C 10.316406 65.386719 11.082031 65.410156 16.210938 65.410156 C 21.742188 65.410156 22.078125 65.398438 22.246094 65.203125 C 22.429688 65.011719 22.4375 64.074219 22.4375 54 C 22.4375 43.25 22.4375 43 22.226562 42.886719 C 22.101562 42.832031 21.71875 42.773438 21.382812 42.773438 L 20.753906 42.773438 L 20.753906 38.550781 C 20.753906 33.699219 20.808594 33.945312 19.761719 33.945312 L 19.179688 33.945312 L 19.179688 25.878906 L 18.707031 25.265625 C 17.414062 23.570312 15.285156 22.144531 13.691406 21.882812 L 13.21875 21.804688 Z M 19.515625 38.984375 L 19.515625 42.773438 L 12.65625 42.773438 L 12.65625 35.191406 L 19.515625 35.191406 Z M 19.515625 38.984375 " fill-opacity="1" fill-rule="nonzero"/></g></svg>