<svg xmlns="http://www.w3.org/2000/svg" xmlns:xlink="http://www.w3.org/1999/xlink" width="100" zoomAndPan="magnify" viewBox="0 0 75 74.999997" height="100" preserveAspectRatio="xMidYMid meet" version="1.0"><defs><clipPath id="c58cbca3b0"><path d="M 7.5 12.355469 L 67.5 12.355469 L 67.5 62.605469 L 7.5 62.605469 Z M 7.5 12.355469 " clip-rule="nonzero"/></clipPath></defs><g clip-path="url(#c58cbca3b0)"><path fill="#000000" d="M 66.511719 56.804688 L 61.675781 56.804688 L 61.675781 38.929688 C 61.675781 38.480469 61.589844 38.050781 61.417969 37.636719 C 61.246094 37.222656 61 36.855469 60.683594 36.539062 C 60.367188 36.222656 60 35.976562 59.585938 35.804688 C 59.171875 35.632812 58.738281 35.546875 58.289062 35.546875 L 41.367188 35.546875 L 41.367188 28.78125 C 41.367188 28.515625 41.273438 28.289062 41.085938 28.097656 C 40.894531 27.910156 40.667969 27.816406 40.402344 27.816406 L 38.46875 27.816406 L 38.46875 25.785156 C 39.011719 25.675781 39.523438 25.472656 40 25.1875 C 40.476562 24.898438 40.890625 24.539062 41.242188 24.105469 C 41.597656 23.675781 41.867188 23.199219 42.054688 22.671875 C 42.242188 22.148438 42.335938 21.609375 42.335938 21.050781 C 42.335938 18.734375 38.96875 13.746094 38.296875 12.769531 C 38.207031 12.640625 38.089844 12.539062 37.949219 12.464844 C 37.808594 12.390625 37.660156 12.355469 37.5 12.355469 C 37.339844 12.355469 37.191406 12.390625 37.050781 12.464844 C 36.910156 12.539062 36.796875 12.640625 36.703125 12.769531 C 36.03125 13.746094 32.664062 18.734375 32.664062 21.050781 C 32.664062 21.609375 32.757812 22.148438 32.945312 22.671875 C 33.132812 23.199219 33.402344 23.675781 33.757812 24.105469 C 34.109375 24.539062 34.523438 24.898438 35 25.1875 C 35.476562 25.472656 35.988281 25.675781 36.53125 25.785156 L 36.53125 27.816406 L 34.597656 27.816406 C 34.332031 27.816406 34.105469 27.910156 33.914062 28.097656 C 33.726562 28.289062 33.632812 28.515625 33.632812 28.78125 L 33.632812 35.546875 L 16.710938 35.546875 C 16.261719 35.546875 15.828125 35.632812 15.414062 35.804688 C 15 35.976562 14.632812 36.222656 14.316406 36.539062 C 14 36.855469 13.753906 37.222656 13.582031 37.636719 C 13.410156 38.050781 13.324219 38.480469 13.324219 38.929688 L 13.324219 56.804688 L 8.488281 56.804688 C 8.222656 56.804688 7.996094 56.902344 7.804688 57.089844 C 7.617188 57.277344 7.523438 57.507812 7.523438 57.773438 L 7.523438 61.636719 C 7.523438 61.90625 7.617188 62.132812 7.804688 62.320312 C 7.996094 62.511719 8.222656 62.605469 8.488281 62.605469 L 66.511719 62.605469 C 66.777344 62.605469 67.003906 62.511719 67.195312 62.320312 C 67.382812 62.132812 67.476562 61.90625 67.476562 61.636719 L 67.476562 57.773438 C 67.476562 57.507812 67.382812 57.277344 67.195312 57.089844 C 67.003906 56.902344 66.777344 56.804688 66.511719 56.804688 Z M 34.597656 21.050781 C 34.597656 19.996094 36.109375 17.242188 37.5 15.070312 C 38.890625 17.242188 40.402344 19.996094 40.402344 21.050781 C 40.402344 21.4375 40.328125 21.804688 40.179688 22.160156 C 40.03125 22.515625 39.824219 22.828125 39.550781 23.101562 C 39.28125 23.375 38.964844 23.582031 38.609375 23.730469 C 38.253906 23.878906 37.882812 23.949219 37.5 23.949219 C 37.117188 23.949219 36.746094 23.878906 36.390625 23.730469 C 36.035156 23.582031 35.71875 23.375 35.449219 23.101562 C 35.175781 22.828125 34.96875 22.515625 34.820312 22.160156 C 34.671875 21.804688 34.597656 21.4375 34.597656 21.050781 Z M 35.566406 29.75 L 39.433594 29.75 L 39.433594 35.546875 L 35.566406 35.546875 Z M 15.257812 38.929688 C 15.257812 38.738281 15.296875 38.550781 15.371094 38.375 C 15.441406 38.195312 15.546875 38.039062 15.683594 37.90625 C 15.820312 37.769531 15.976562 37.664062 16.152344 37.589844 C 16.332031 37.515625 16.515625 37.480469 16.710938 37.480469 L 58.289062 37.480469 C 58.484375 37.480469 58.667969 37.515625 58.847656 37.589844 C 59.023438 37.664062 59.179688 37.769531 59.316406 37.90625 C 59.453125 38.039062 59.558594 38.195312 59.628906 38.375 C 59.703125 38.550781 59.742188 38.738281 59.742188 38.929688 L 59.742188 43.296875 C 57.308594 43.390625 55.933594 43.851562 54.601562 44.292969 C 53.183594 44.765625 51.847656 45.210938 49.105469 45.210938 C 46.359375 45.210938 45.023438 44.765625 43.609375 44.292969 C 42.109375 43.792969 40.558594 43.277344 37.5 43.277344 C 34.441406 43.277344 32.890625 43.792969 31.390625 44.292969 C 29.976562 44.765625 28.640625 45.210938 25.894531 45.210938 C 23.152344 45.210938 21.816406 44.765625 20.398438 44.292969 C 19.066406 43.851562 17.691406 43.390625 15.257812 43.296875 Z M 15.257812 45.230469 C 17.371094 45.324219 18.550781 45.714844 19.789062 46.128906 C 21.285156 46.625 22.835938 47.144531 25.894531 47.144531 C 28.953125 47.144531 30.503906 46.625 32.003906 46.128906 C 33.417969 45.65625 34.753906 45.210938 37.5 45.210938 C 40.242188 45.210938 41.582031 45.65625 42.996094 46.128906 C 44.496094 46.625 46.046875 47.144531 49.105469 47.144531 C 52.164062 47.144531 53.710938 46.625 55.210938 46.128906 C 56.449219 45.714844 57.628906 45.324219 59.742188 45.230469 L 59.742188 56.804688 L 15.257812 56.804688 Z M 65.542969 60.671875 L 9.457031 60.671875 L 9.457031 58.738281 L 65.542969 58.738281 Z M 65.542969 60.671875 " fill-opacity="1" fill-rule="nonzero"/></g></svg>