<svg xmlns="http://www.w3.org/2000/svg" xmlns:xlink="http://www.w3.org/1999/xlink" width="100" zoomAndPan="magnify" viewBox="0 0 75 74.999997" height="100" preserveAspectRatio="xMidYMid meet" version="1.0"><defs><clipPath id="2622505c73"><path d="M 7.5 11 L 67.5 11 L 67.5 65.8125 L 7.5 65.8125 Z M 7.5 11 " clip-rule="nonzero"/></clipPath></defs><g clip-path="url(#2622505c73)"><path fill="#000000" d="M 66.457031 36.949219 L 65.082031 36.949219 C 65.199219 36.640625 65.273438 36.308594 65.273438 35.957031 L 65.273438 34.167969 C 65.273438 33.929688 65.179688 33.71875 65.042969 33.542969 C 65.1875 33.207031 65.273438 32.839844 65.273438 32.449219 L 65.273438 30.660156 C 65.273438 30.421875 65.179688 30.210938 65.042969 30.035156 C 65.414062 29.363281 65.230469 27.890625 65.273438 27.152344 C 65.273438 26.578125 64.8125 26.117188 64.246094 26.117188 C 64.246094 26.117188 47.769531 26.117188 47.769531 26.117188 C 47.203125 26.117188 46.742188 26.578125 46.742188 27.152344 C 46.753906 27.894531 46.632812 29.367188 46.972656 30.035156 C 46.835938 30.210938 46.742188 30.421875 46.742188 30.660156 C 46.753906 31.390625 46.632812 32.882812 46.972656 33.542969 C 46.835938 33.71875 46.742188 33.929688 46.742188 34.167969 L 46.742188 35.957031 C 46.742188 36.308594 46.8125 36.640625 46.933594 36.949219 L 40.019531 36.949219 L 40.019531 34.460938 L 40.128906 34.460938 C 42.707031 34.460938 44.808594 32.347656 44.808594 29.75 C 44.808594 29.75 44.808594 28.648438 44.808594 28.648438 C 45.679688 28.644531 46.386719 27.929688 46.386719 27.050781 L 46.386719 24.707031 C 46.371094 23.539062 45.351562 22.980469 44.289062 23.109375 C 43.773438 18.53125 39.910156 14.960938 35.226562 14.960938 L 30.933594 14.960938 C 30.933594 14.960938 30.933594 14.414062 30.933594 14.414062 C 30.800781 9.960938 24.355469 9.9375 24.214844 14.414062 C 24.214844 14.414062 24.214844 14.960938 24.214844 14.960938 L 20.886719 14.960938 C 16.203125 14.960938 12.339844 18.53125 11.828125 23.109375 C 10.777344 22.984375 9.742188 23.527344 9.726562 24.707031 C 9.726562 24.707031 9.726562 27.050781 9.726562 27.050781 C 9.726562 27.929688 10.4375 28.644531 11.308594 28.648438 C 11.308594 28.648438 11.308594 29.75 11.308594 29.75 C 11.308594 32.050781 12.957031 33.964844 15.128906 34.375 L 15.128906 36.949219 L 8.542969 36.949219 C 7.976562 36.949219 7.515625 37.414062 7.515625 37.984375 C 7.515625 37.984375 7.515625 64.339844 7.515625 64.339844 C 7.515625 64.914062 7.976562 65.375 8.542969 65.375 L 66.457031 65.375 C 67.023438 65.375 67.484375 64.914062 67.484375 64.339844 C 67.484375 64.339844 67.484375 37.984375 67.484375 37.984375 C 67.484375 37.414062 67.023438 36.949219 66.457031 36.949219 Z M 63.21875 31.691406 C 63.21875 32.261719 63.34375 33.101562 62.539062 33.132812 C 62.539062 33.132812 49.476562 33.132812 49.476562 33.132812 C 48.671875 33.097656 48.796875 32.265625 48.796875 31.691406 C 48.796875 31.691406 63.21875 31.691406 63.21875 31.691406 Z M 48.796875 35.203125 C 49.285156 35.203125 62.726562 35.203125 63.21875 35.203125 C 63.21875 35.769531 63.34375 36.609375 62.539062 36.640625 C 62.539062 36.640625 49.476562 36.640625 49.476562 36.640625 C 48.671875 36.609375 48.796875 35.773438 48.796875 35.203125 Z M 48.796875 28.183594 L 63.21875 28.183594 C 63.21875 28.753906 63.34375 29.59375 62.539062 29.625 C 62.539062 29.625 49.476562 29.625 49.476562 29.625 C 48.671875 29.589844 48.796875 28.757812 48.796875 28.183594 Z M 37.964844 36.640625 L 36.867188 36.640625 L 36.867188 34.460938 L 37.964844 34.460938 Z M 11.78125 26.582031 L 11.78125 25.179688 L 44.332031 25.179688 L 44.332031 26.582031 Z M 26.269531 14.414062 C 26.300781 12.691406 28.847656 12.691406 28.878906 14.414062 C 28.878906 14.414062 28.878906 14.960938 28.878906 14.960938 L 26.269531 14.960938 Z M 20.886719 17.03125 C 23.128906 17.03125 35.226562 17.03125 35.226562 17.03125 C 38.777344 17.03125 41.722656 19.675781 42.21875 23.109375 L 13.894531 23.109375 C 14.394531 19.675781 17.339844 17.03125 20.886719 17.03125 Z M 13.363281 29.75 C 13.363281 29.75 13.363281 28.648438 13.363281 28.648438 L 42.753906 28.648438 L 42.753906 29.75 C 42.753906 31.207031 41.574219 32.394531 40.128906 32.394531 L 38.992188 32.394531 C 34.597656 32.394531 20.550781 32.394531 16.15625 32.394531 C 14.652344 32.480469 13.355469 31.273438 13.363281 29.75 Z M 17.183594 34.460938 L 18.28125 34.460938 L 18.28125 36.640625 L 17.183594 36.640625 Z M 20.335938 34.460938 L 34.8125 34.460938 L 34.8125 36.949219 L 20.335938 36.949219 Z M 65.429688 39.019531 L 65.429688 44.980469 C 63.96875 45.167969 63.078125 45.730469 62.28125 46.242188 C 60.648438 47.570312 57.765625 47.566406 56.140625 46.242188 C 53.933594 44.484375 49.984375 44.496094 47.792969 46.242188 C 46.921875 46.800781 46.234375 47.246094 44.726562 47.246094 C 41.355469 47.164062 41.273438 44.84375 37.492188 44.914062 C 33.707031 44.84375 33.625 47.164062 30.253906 47.246094 C 26.878906 47.164062 26.800781 44.84375 23.015625 44.914062 C 19.230469 44.84375 19.148438 47.164062 15.777344 47.246094 C 12.828125 47.234375 12.507812 45.308594 9.570312 44.980469 C 9.570312 44.980469 9.570312 39.019531 9.570312 39.019531 Z M 9.570312 63.308594 C 9.570312 63.308594 9.570312 47.066406 9.570312 47.066406 C 10.417969 47.222656 10.964844 47.570312 11.605469 47.984375 C 13.828125 49.746094 17.753906 49.730469 19.949219 47.984375 C 21.574219 46.65625 24.464844 46.660156 26.078125 47.984375 C 27.046875 48.605469 28.140625 49.3125 30.253906 49.3125 C 32.363281 49.3125 33.457031 48.609375 34.425781 47.984375 C 36.03125 46.660156 38.949219 46.660156 40.554688 47.984375 C 41.519531 48.609375 42.617188 49.3125 44.726562 49.3125 C 48.511719 49.382812 48.59375 47.0625 51.964844 46.980469 C 53.476562 46.980469 54.164062 47.425781 55.035156 47.984375 C 57.199219 49.730469 61.207031 49.742188 63.386719 47.984375 C 64.03125 47.570312 64.578125 47.222656 65.429688 47.066406 L 65.429688 63.308594 Z M 9.570312 63.308594 " fill-opacity="1" fill-rule="nonzero"/></g></svg>