<svg xmlns="http://www.w3.org/2000/svg" xmlns:xlink="http://www.w3.org/1999/xlink" width="100" zoomAndPan="magnify" viewBox="0 0 75 74.999997" height="100" preserveAspectRatio="xMidYMid meet" version="1.0"><defs><clipPath id="7e7b993f5e"><path d="M 8.011719 10 L 67.261719 10 L 67.261719 65.242188 L 8.011719 65.242188 Z M 8.011719 10 " clip-rule="nonzero"/></clipPath></defs><g clip-path="url(#7e7b993f5e)"><path fill="#000000" d="M 55.425781 18.285156 C 56.128906 19.574219 57.179688 20.648438 58.457031 21.371094 C 57.179688 22.09375 56.128906 23.171875 55.425781 24.457031 C 54.734375 23.171875 53.675781 22.09375 52.398438 21.371094 C 53.675781 20.648438 54.734375 19.574219 55.425781 18.285156 Z M 49.921875 22.183594 C 52.339844 22.714844 54.222656 24.714844 54.605469 27.152344 C 54.753906 28.089844 56.113281 28.074219 56.257812 27.152344 C 56.632812 24.714844 58.515625 22.71875 60.9375 22.183594 C 61.800781 21.992188 61.800781 20.75 60.9375 20.5625 C 58.515625 20.027344 56.632812 18.03125 56.257812 15.59375 C 56.113281 14.667969 54.753906 14.652344 54.605469 15.59375 C 54.222656 18.03125 52.339844 20.027344 49.921875 20.5625 C 49.050781 20.753906 49.050781 21.988281 49.921875 22.183594 Z M 22.578125 20.855469 C 22.980469 21.472656 23.507812 22.007812 24.113281 22.417969 C 23.507812 22.832031 22.980469 23.367188 22.578125 23.984375 C 22.171875 23.367188 21.644531 22.832031 21.03125 22.417969 C 21.644531 22.007812 22.171875 21.472656 22.578125 20.855469 Z M 18.789062 23.230469 C 20.320312 23.570312 21.507812 24.832031 21.746094 26.371094 C 21.894531 27.296875 23.25 27.3125 23.398438 26.371094 C 23.636719 24.832031 24.828125 23.570312 26.363281 23.230469 C 27.222656 23.039062 27.226562 21.800781 26.363281 21.609375 C 24.828125 21.269531 23.636719 20.007812 23.398438 18.46875 C 23.25 17.53125 21.890625 17.542969 21.746094 18.46875 C 21.507812 20.007812 20.320312 21.269531 18.789062 21.609375 C 17.917969 21.800781 17.921875 23.039062 18.789062 23.230469 Z M 49.386719 53.453125 C 49.171875 51.589844 47.492188 50.21875 45.601562 50.378906 L 39.707031 50.875 C 39.230469 50.464844 38.738281 50.097656 38.246094 49.777344 L 55.289062 49.777344 Z M 47.597656 59.902344 L 60.464844 51 L 60.175781 50.542969 C 59.714844 49.816406 58.738281 49.589844 58.003906 50.046875 L 48.855469 55.746094 C 48.269531 56.679688 47.28125 57.285156 46.175781 57.378906 L 41.328125 57.789062 C 40.867188 57.824219 40.464844 57.484375 40.425781 57.03125 C 40.390625 56.574219 40.730469 56.171875 41.191406 56.132812 L 46.03125 55.722656 C 46.652344 55.671875 47.203125 55.308594 47.496094 54.757812 C 47.503906 54.753906 47.503906 54.75 47.503906 54.746094 C 47.503906 54.742188 47.777344 54.339844 47.734375 53.6875 C 47.636719 52.6875 46.753906 51.949219 45.746094 52.035156 L 39.480469 52.5625 C 39.25 52.582031 39.019531 52.503906 38.847656 52.347656 C 36.914062 50.589844 34.910156 49.765625 32.605469 49.78125 C 30.933594 49.800781 29.140625 50.308594 27.230469 51.296875 C 21.574219 54.859375 16.207031 58.988281 11.25 63.589844 L 23.816406 63.589844 L 28.449219 59.496094 C 30.425781 58.015625 33.339844 59.078125 36.167969 60.113281 C 37.46875 60.585938 38.8125 61.078125 40.007812 61.304688 C 40.519531 61.402344 40.96875 61.40625 41.480469 61.320312 L 45.886719 60.589844 C 46.539062 60.484375 47.058594 60.269531 47.597656 59.902344 Z M 15.84375 48.117188 C 14.085938 48.117188 12.613281 46.894531 12.230469 45.261719 L 65.46875 45.261719 C 65.089844 46.894531 63.609375 48.117188 61.855469 48.117188 Z M 38.847656 25.824219 C 48.5 25.824219 56.914062 33.398438 58.761719 43.601562 L 18.933594 43.601562 C 20.789062 33.398438 29.199219 25.824219 38.847656 25.824219 Z M 32.816406 13.125 C 33.617188 12.332031 34.523438 11.972656 35.507812 12.132812 C 36.40625 12.273438 37.359375 12.820312 38.261719 13.71875 C 38.585938 14.042969 39.117188 14.039062 39.4375 13.71875 C 40.339844 12.820312 41.292969 12.273438 42.195312 12.132812 C 43.160156 11.980469 44.0625 12.3125 44.886719 13.125 C 46.21875 14.457031 46.21875 16.621094 44.886719 17.949219 L 38.847656 23.953125 L 32.816406 17.949219 C 31.480469 16.621094 31.480469 14.457031 32.816406 13.125 Z M 67.238281 44.429688 C 67.238281 43.976562 66.871094 43.601562 66.402344 43.601562 L 60.457031 43.601562 C 58.769531 33.601562 51.078125 25.292969 40.894531 24.265625 L 46.0625 19.125 C 48.054688 17.144531 48.054688 13.929688 46.0625 11.949219 C 43.847656 9.746094 41.117188 10.101562 38.847656 12 C 36.585938 10.09375 33.847656 9.753906 31.640625 11.949219 C 29.648438 13.929688 29.648438 17.144531 31.640625 19.125 L 36.804688 24.265625 C 26.625 25.292969 18.929688 33.601562 17.246094 43.601562 L 11.300781 43.601562 C 10.832031 43.601562 10.460938 43.976562 10.460938 44.429688 C 10.46875 47.378906 12.878906 49.777344 15.84375 49.777344 L 26.550781 49.777344 L 26.363281 49.875 C 20.023438 53.863281 14.035156 58.558594 8.578125 63.824219 C 8.035156 64.347656 8.417969 65.25 9.15625 65.25 L 24.136719 65.25 C 24.34375 65.25 24.539062 65.175781 24.691406 65.039062 L 29.480469 60.804688 C 30.738281 59.898438 33.203125 60.800781 35.59375 61.671875 C 36.957031 62.167969 38.363281 62.683594 39.699219 62.9375 C 40.40625 63.070312 41.039062 63.078125 41.753906 62.960938 L 46.164062 62.230469 C 47.050781 62.082031 47.808594 61.773438 48.550781 61.265625 L 62.066406 51.914062 C 62.433594 51.660156 62.535156 51.167969 62.296875 50.789062 L 61.660156 49.777344 L 61.855469 49.777344 C 64.820312 49.777344 67.230469 47.378906 67.238281 44.429688 Z M 67.238281 44.429688 " fill-opacity="1" fill-rule="evenodd"/></g></svg>