<svg xmlns="http://www.w3.org/2000/svg" xmlns:xlink="http://www.w3.org/1999/xlink" width="100" zoomAndPan="magnify" viewBox="0 0 75 74.999997" height="100" preserveAspectRatio="xMidYMid meet" version="1.0"><defs><clipPath id="ba0cd86483"><path d="M 11 48 L 64 48 L 64 67.238281 L 11 67.238281 Z M 11 48 " clip-rule="nonzero"/></clipPath><clipPath id="8fbc05a12c"><path d="M 8 8 L 67.238281 8 L 67.238281 25 L 8 25 Z M 8 8 " clip-rule="nonzero"/></clipPath></defs><g clip-path="url(#ba0cd86483)"><path fill="#000000" d="M 62.699219 67.238281 L 12.539062 67.238281 C 12.40625 67.238281 12.277344 67.210938 12.152344 67.160156 C 12.027344 67.109375 11.917969 67.035156 11.820312 66.941406 C 11.726562 66.84375 11.652344 66.734375 11.601562 66.609375 C 11.550781 66.484375 11.523438 66.355469 11.523438 66.222656 L 11.523438 49.035156 C 11.523438 48.902344 11.550781 48.769531 11.601562 48.648438 C 11.652344 48.523438 11.726562 48.410156 11.820312 48.316406 C 11.917969 48.222656 12.027344 48.148438 12.152344 48.097656 C 12.277344 48.042969 12.40625 48.019531 12.539062 48.019531 C 12.675781 48.019531 12.804688 48.042969 12.929688 48.097656 C 13.054688 48.148438 13.164062 48.222656 13.257812 48.316406 C 13.355469 48.410156 13.429688 48.523438 13.480469 48.648438 C 13.53125 48.769531 13.558594 48.902344 13.558594 49.035156 L 13.558594 65.203125 L 61.679688 65.203125 L 61.679688 49.035156 C 61.679688 48.902344 61.707031 48.769531 61.757812 48.648438 C 61.808594 48.523438 61.882812 48.410156 61.980469 48.316406 C 62.074219 48.222656 62.183594 48.148438 62.308594 48.097656 C 62.433594 48.042969 62.5625 48.019531 62.699219 48.019531 C 62.832031 48.019531 62.960938 48.042969 63.085938 48.097656 C 63.210938 48.148438 63.320312 48.222656 63.417969 48.316406 C 63.511719 48.410156 63.585938 48.523438 63.636719 48.648438 C 63.6875 48.769531 63.714844 48.902344 63.714844 49.035156 L 63.714844 66.222656 C 63.714844 66.355469 63.6875 66.484375 63.636719 66.609375 C 63.585938 66.734375 63.511719 66.84375 63.417969 66.941406 C 63.320312 67.035156 63.210938 67.109375 63.085938 67.160156 C 62.960938 67.210938 62.832031 67.238281 62.699219 67.238281 Z M 62.699219 67.238281 " fill-opacity="1" fill-rule="nonzero"/></g><path fill="#000000" d="M 64.953125 50.050781 L 10.285156 50.050781 C 10.148438 50.050781 10.019531 50.023438 9.894531 49.972656 C 9.769531 49.921875 9.660156 49.847656 9.566406 49.753906 C 9.472656 49.65625 9.398438 49.546875 9.34375 49.421875 C 9.292969 49.296875 9.269531 49.167969 9.269531 49.035156 L 9.269531 44.171875 C 9.269531 44.035156 9.292969 43.90625 9.34375 43.78125 C 9.398438 43.65625 9.472656 43.546875 9.566406 43.453125 C 9.660156 43.359375 9.769531 43.285156 9.894531 43.230469 C 10.019531 43.179688 10.148438 43.15625 10.285156 43.15625 L 64.953125 43.15625 C 65.089844 43.15625 65.21875 43.179688 65.34375 43.230469 C 65.46875 43.285156 65.578125 43.359375 65.671875 43.453125 C 65.769531 43.546875 65.839844 43.65625 65.894531 43.78125 C 65.945312 43.90625 65.96875 44.035156 65.96875 44.171875 L 65.96875 49.035156 C 65.96875 49.167969 65.945312 49.296875 65.894531 49.421875 C 65.839844 49.546875 65.769531 49.65625 65.671875 49.753906 C 65.578125 49.847656 65.46875 49.921875 65.34375 49.972656 C 65.21875 50.023438 65.089844 50.050781 64.953125 50.050781 Z M 11.300781 48.019531 L 63.9375 48.019531 L 63.9375 45.1875 L 11.300781 45.1875 Z M 11.300781 48.019531 " fill-opacity="1" fill-rule="nonzero"/><path fill="#000000" d="M 62.699219 45.1875 C 62.5625 45.1875 62.433594 45.164062 62.308594 45.109375 C 62.183594 45.058594 62.074219 44.984375 61.980469 44.890625 C 61.882812 44.796875 61.808594 44.683594 61.757812 44.558594 C 61.707031 44.4375 61.679688 44.304688 61.679688 44.171875 L 61.679688 23.957031 C 61.679688 23.824219 61.707031 23.695312 61.757812 23.570312 C 61.808594 23.445312 61.882812 23.335938 61.980469 23.238281 C 62.074219 23.144531 62.183594 23.070312 62.308594 23.019531 C 62.433594 22.96875 62.5625 22.941406 62.699219 22.941406 C 62.832031 22.941406 62.960938 22.96875 63.085938 23.019531 C 63.210938 23.070312 63.320312 23.144531 63.417969 23.238281 C 63.511719 23.335938 63.585938 23.445312 63.636719 23.570312 C 63.6875 23.695312 63.714844 23.824219 63.714844 23.957031 L 63.714844 44.171875 C 63.714844 44.304688 63.6875 44.4375 63.636719 44.558594 C 63.585938 44.683594 63.511719 44.796875 63.417969 44.890625 C 63.320312 44.984375 63.210938 45.058594 63.085938 45.109375 C 62.960938 45.164062 62.832031 45.1875 62.699219 45.1875 Z M 58.1875 45.1875 C 58.050781 45.1875 57.921875 45.164062 57.796875 45.109375 C 57.671875 45.058594 57.5625 44.984375 57.46875 44.890625 C 57.371094 44.796875 57.300781 44.683594 57.246094 44.558594 C 57.195312 44.4375 57.171875 44.304688 57.171875 44.171875 L 57.171875 23.957031 C 57.171875 23.824219 57.195312 23.695312 57.246094 23.570312 C 57.300781 23.445312 57.371094 23.335938 57.46875 23.238281 C 57.5625 23.144531 57.671875 23.070312 57.796875 23.019531 C 57.921875 22.96875 58.050781 22.941406 58.1875 22.941406 C 58.320312 22.941406 58.449219 22.96875 58.574219 23.019531 C 58.699219 23.070312 58.808594 23.144531 58.90625 23.238281 C 59 23.335938 59.074219 23.445312 59.125 23.570312 C 59.175781 23.695312 59.203125 23.824219 59.203125 23.957031 L 59.203125 44.171875 C 59.203125 44.304688 59.175781 44.4375 59.125 44.558594 C 59.074219 44.683594 59 44.796875 58.90625 44.890625 C 58.808594 44.984375 58.699219 45.058594 58.574219 45.109375 C 58.449219 45.164062 58.320312 45.1875 58.1875 45.1875 Z M 58.1875 45.1875 " fill-opacity="1" fill-rule="nonzero"/><g clip-path="url(#8fbc05a12c)"><path fill="#000000" d="M 66.132812 24.976562 L 53.023438 24.976562 C 52.890625 24.976562 52.761719 24.949219 52.636719 24.898438 C 52.511719 24.847656 52.402344 24.773438 52.304688 24.675781 C 52.210938 24.582031 52.136719 24.472656 52.085938 24.347656 C 52.035156 24.222656 52.007812 24.09375 52.007812 23.957031 C 52.007812 23.824219 52.035156 23.695312 52.085938 23.570312 C 52.136719 23.445312 52.210938 23.335938 52.304688 23.238281 C 52.402344 23.144531 52.511719 23.070312 52.636719 23.019531 C 52.761719 22.96875 52.890625 22.941406 53.023438 22.941406 L 61.996094 22.941406 L 37.617188 10.1875 L 13.242188 22.941406 L 22.210938 22.941406 C 22.347656 22.941406 22.476562 22.96875 22.601562 23.019531 C 22.726562 23.070312 22.835938 23.144531 22.929688 23.238281 C 23.027344 23.335938 23.101562 23.445312 23.152344 23.570312 C 23.203125 23.695312 23.230469 23.824219 23.230469 23.957031 C 23.230469 24.09375 23.203125 24.222656 23.152344 24.347656 C 23.101562 24.472656 23.027344 24.582031 22.929688 24.675781 C 22.835938 24.773438 22.726562 24.847656 22.601562 24.898438 C 22.476562 24.949219 22.347656 24.976562 22.210938 24.976562 L 9.101562 24.976562 C 8.867188 24.976562 8.660156 24.902344 8.476562 24.757812 C 8.292969 24.613281 8.171875 24.429688 8.117188 24.199219 C 8.058594 23.972656 8.078125 23.753906 8.175781 23.539062 C 8.273438 23.328125 8.425781 23.164062 8.632812 23.058594 L 37.148438 8.140625 C 37.460938 7.976562 37.777344 7.976562 38.089844 8.140625 L 66.605469 23.058594 C 66.8125 23.164062 66.964844 23.328125 67.0625 23.539062 C 67.15625 23.753906 67.179688 23.972656 67.121094 24.199219 C 67.066406 24.429688 66.945312 24.613281 66.761719 24.757812 C 66.578125 24.902344 66.367188 24.976562 66.132812 24.976562 Z M 66.132812 24.976562 " fill-opacity="1" fill-rule="nonzero"/></g><path fill="#000000" d="M 51.339844 21.652344 L 23.894531 21.652344 C 23.761719 21.652344 23.632812 21.625 23.507812 21.574219 C 23.382812 21.523438 23.273438 21.449219 23.175781 21.351562 C 23.082031 21.257812 23.007812 21.148438 22.957031 21.023438 C 22.90625 20.898438 22.878906 20.769531 22.878906 20.632812 C 22.878906 20.5 22.90625 20.371094 22.957031 20.246094 C 23.007812 20.121094 23.082031 20.011719 23.175781 19.914062 C 23.273438 19.820312 23.382812 19.746094 23.507812 19.695312 C 23.632812 19.644531 23.761719 19.617188 23.894531 19.617188 L 51.339844 19.617188 C 51.476562 19.617188 51.605469 19.644531 51.730469 19.695312 C 51.855469 19.746094 51.964844 19.820312 52.0625 19.914062 C 52.15625 20.011719 52.230469 20.121094 52.28125 20.246094 C 52.332031 20.371094 52.359375 20.5 52.359375 20.632812 C 52.359375 20.769531 52.332031 20.898438 52.28125 21.023438 C 52.230469 21.148438 52.15625 21.257812 52.0625 21.351562 C 51.964844 21.449219 51.855469 21.523438 51.730469 21.574219 C 51.605469 21.625 51.476562 21.652344 51.339844 21.652344 Z M 51.339844 21.652344 " fill-opacity="1" fill-rule="nonzero"/><path fill="#000000" d="M 23.289062 32.847656 C 20.746094 32.847656 18.6875 31.082031 18.6875 28.90625 C 18.6875 28.746094 18.726562 28.59375 18.796875 28.449219 L 22.992188 20.171875 C 23.050781 20.046875 23.132812 19.941406 23.234375 19.851562 C 23.335938 19.761719 23.453125 19.695312 23.582031 19.652344 C 23.710938 19.605469 23.84375 19.589844 23.980469 19.601562 C 24.117188 19.609375 24.246094 19.644531 24.367188 19.707031 C 24.488281 19.769531 24.59375 19.851562 24.679688 19.957031 C 24.769531 20.058594 24.835938 20.175781 24.875 20.304688 C 24.917969 20.4375 24.929688 20.570312 24.917969 20.707031 C 24.90625 20.839844 24.867188 20.96875 24.804688 21.089844 L 20.738281 29.117188 C 20.882812 30.054688 21.992188 30.808594 23.289062 30.808594 C 23.992188 30.824219 24.621094 30.613281 25.179688 30.183594 C 25.613281 29.828125 25.855469 29.375 25.855469 28.914062 C 25.855469 28.8125 25.867188 28.710938 25.898438 28.617188 L 28.410156 20.339844 C 28.449219 20.210938 28.511719 20.09375 28.597656 19.992188 C 28.683594 19.886719 28.785156 19.804688 28.90625 19.738281 C 29.023438 19.675781 29.152344 19.636719 29.285156 19.625 C 29.417969 19.609375 29.550781 19.625 29.679688 19.664062 C 29.808594 19.703125 29.925781 19.765625 30.03125 19.851562 C 30.132812 19.9375 30.21875 20.039062 30.28125 20.15625 C 30.34375 20.277344 30.382812 20.402344 30.394531 20.535156 C 30.410156 20.671875 30.394531 20.800781 30.355469 20.929688 L 27.882812 29.078125 C 27.835938 30.105469 27.335938 31.054688 26.464844 31.765625 C 25.535156 32.5 24.476562 32.859375 23.289062 32.847656 Z M 23.289062 32.847656 " fill-opacity="1" fill-rule="nonzero"/><path fill="#000000" d="M 30.453125 32.847656 C 27.914062 32.847656 25.855469 31.082031 25.855469 28.90625 C 25.855469 28.773438 25.878906 28.644531 25.929688 28.519531 C 25.984375 28.394531 26.054688 28.285156 26.152344 28.1875 C 26.246094 28.09375 26.355469 28.019531 26.480469 27.96875 C 26.605469 27.917969 26.734375 27.890625 26.871094 27.890625 C 27.003906 27.890625 27.136719 27.917969 27.257812 27.96875 C 27.382812 28.019531 27.492188 28.09375 27.589844 28.1875 C 27.683594 28.285156 27.757812 28.394531 27.808594 28.519531 C 27.859375 28.644531 27.886719 28.773438 27.886719 28.90625 C 27.886719 29.9375 29.0625 30.8125 30.453125 30.8125 C 31.84375 30.8125 33.019531 29.941406 33.019531 28.90625 C 33.019531 28.871094 33.019531 28.839844 33.019531 28.804688 L 33.859375 20.527344 C 33.871094 20.394531 33.910156 20.265625 33.972656 20.148438 C 34.039062 20.03125 34.121094 19.925781 34.226562 19.839844 C 34.332031 19.757812 34.449219 19.695312 34.578125 19.65625 C 34.707031 19.617188 34.839844 19.601562 34.972656 19.617188 C 35.109375 19.628906 35.234375 19.667969 35.355469 19.734375 C 35.472656 19.796875 35.574219 19.878906 35.660156 19.984375 C 35.746094 20.089844 35.808594 20.207031 35.847656 20.335938 C 35.886719 20.464844 35.898438 20.597656 35.886719 20.730469 L 35.050781 28.960938 C 35.015625 31.109375 32.96875 32.847656 30.453125 32.847656 Z M 30.453125 32.847656 " fill-opacity="1" fill-rule="nonzero"/><path fill="#000000" d="M 37.617188 32.847656 C 35.078125 32.847656 33.019531 31.082031 33.019531 28.90625 C 33.019531 28.773438 33.042969 28.644531 33.097656 28.519531 C 33.148438 28.394531 33.222656 28.285156 33.316406 28.1875 C 33.414062 28.09375 33.523438 28.019531 33.648438 27.96875 C 33.769531 27.917969 33.902344 27.890625 34.035156 27.890625 C 34.171875 27.890625 34.300781 27.917969 34.425781 27.96875 C 34.550781 28.019531 34.660156 28.09375 34.753906 28.1875 C 34.851562 28.285156 34.921875 28.394531 34.976562 28.519531 C 35.027344 28.644531 35.050781 28.773438 35.050781 28.90625 C 35.050781 29.9375 36.226562 30.8125 37.617188 30.8125 C 38.324219 30.828125 38.953125 30.617188 39.511719 30.1875 C 39.929688 29.84375 40.171875 29.40625 40.183594 28.957031 L 39.351562 20.730469 C 39.339844 20.597656 39.351562 20.464844 39.390625 20.335938 C 39.429688 20.207031 39.488281 20.089844 39.574219 19.984375 C 39.660156 19.882812 39.761719 19.796875 39.882812 19.734375 C 40 19.667969 40.125 19.628906 40.261719 19.617188 C 40.394531 19.605469 40.527344 19.617188 40.65625 19.65625 C 40.785156 19.695312 40.902344 19.757812 41.007812 19.839844 C 41.109375 19.925781 41.195312 20.027344 41.257812 20.148438 C 41.324219 20.265625 41.363281 20.394531 41.375 20.527344 L 42.214844 28.804688 C 42.214844 28.835938 42.214844 28.871094 42.214844 28.90625 C 42.214844 29.996094 41.707031 31.011719 40.789062 31.757812 C 39.859375 32.496094 38.804688 32.855469 37.617188 32.847656 Z M 37.617188 32.847656 " fill-opacity="1" fill-rule="nonzero"/><path fill="#000000" d="M 44.785156 32.847656 C 42.242188 32.847656 40.183594 31.082031 40.183594 28.90625 C 40.183594 28.773438 40.210938 28.644531 40.261719 28.519531 C 40.316406 28.394531 40.386719 28.285156 40.484375 28.1875 C 40.578125 28.09375 40.6875 28.019531 40.8125 27.96875 C 40.9375 27.917969 41.066406 27.890625 41.203125 27.890625 C 41.335938 27.890625 41.464844 27.917969 41.589844 27.96875 C 41.714844 28.019531 41.824219 28.09375 41.921875 28.1875 C 42.015625 28.285156 42.089844 28.394531 42.140625 28.519531 C 42.191406 28.644531 42.21875 28.773438 42.21875 28.90625 C 42.21875 29.9375 43.394531 30.8125 44.785156 30.8125 C 46.117188 30.8125 47.25 30.015625 47.34375 29.035156 L 44.878906 20.925781 C 44.839844 20.792969 44.828125 20.664062 44.839844 20.527344 C 44.855469 20.394531 44.894531 20.269531 44.957031 20.148438 C 45.019531 20.03125 45.105469 19.929688 45.207031 19.84375 C 45.3125 19.757812 45.429688 19.695312 45.558594 19.65625 C 45.6875 19.617188 45.820312 19.605469 45.953125 19.617188 C 46.085938 19.628906 46.214844 19.667969 46.332031 19.730469 C 46.449219 19.796875 46.554688 19.878906 46.640625 19.984375 C 46.722656 20.085938 46.785156 20.203125 46.824219 20.332031 L 49.339844 28.609375 C 49.367188 28.707031 49.382812 28.804688 49.382812 28.90625 C 49.382812 31.082031 47.320312 32.847656 44.785156 32.847656 Z M 44.785156 32.847656 " fill-opacity="1" fill-rule="nonzero"/><path fill="#000000" d="M 51.949219 32.847656 C 49.414062 32.847656 47.351562 31.082031 47.351562 28.90625 C 47.351562 28.773438 47.375 28.644531 47.429688 28.519531 C 47.480469 28.394531 47.554688 28.285156 47.648438 28.1875 C 47.742188 28.09375 47.855469 28.019531 47.976562 27.96875 C 48.101562 27.917969 48.230469 27.890625 48.367188 27.890625 C 48.503906 27.890625 48.632812 27.917969 48.757812 27.96875 C 48.878906 28.019531 48.992188 28.09375 49.085938 28.1875 C 49.179688 28.285156 49.253906 28.394531 49.304688 28.519531 C 49.359375 28.644531 49.382812 28.773438 49.382812 28.90625 C 49.382812 29.9375 50.558594 30.8125 51.949219 30.8125 C 52.652344 30.828125 53.285156 30.617188 53.839844 30.1875 C 54.199219 29.917969 54.417969 29.5625 54.5 29.121094 L 50.433594 21.09375 C 50.3125 20.84375 50.296875 20.589844 50.386719 20.328125 C 50.472656 20.0625 50.640625 19.871094 50.890625 19.746094 C 51.136719 19.621094 51.390625 19.597656 51.65625 19.683594 C 51.917969 19.765625 52.117188 19.929688 52.246094 20.175781 L 56.441406 28.453125 C 56.511719 28.597656 56.546875 28.75 56.550781 28.910156 C 56.550781 30.003906 56.039062 31.015625 55.125 31.761719 C 54.195312 32.5 53.136719 32.859375 51.949219 32.847656 Z M 51.949219 32.847656 " fill-opacity="1" fill-rule="nonzero"/><path fill="#000000" d="M 53.785156 56.097656 L 21.453125 56.097656 C 21.316406 56.097656 21.1875 56.070312 21.0625 56.019531 C 20.9375 55.96875 20.828125 55.894531 20.734375 55.800781 C 20.636719 55.703125 20.5625 55.59375 20.511719 55.46875 C 20.460938 55.347656 20.433594 55.214844 20.433594 55.082031 C 20.433594 54.945312 20.460938 54.816406 20.511719 54.691406 C 20.5625 54.566406 20.636719 54.457031 20.734375 54.363281 C 20.828125 54.265625 20.9375 54.195312 21.0625 54.140625 C 21.1875 54.089844 21.316406 54.066406 21.453125 54.066406 L 53.785156 54.066406 C 53.921875 54.066406 54.050781 54.089844 54.175781 54.140625 C 54.300781 54.195312 54.410156 54.265625 54.503906 54.363281 C 54.601562 54.457031 54.675781 54.566406 54.726562 54.691406 C 54.777344 54.816406 54.804688 54.945312 54.804688 55.082031 C 54.804688 55.214844 54.777344 55.347656 54.726562 55.46875 C 54.675781 55.59375 54.601562 55.703125 54.503906 55.800781 C 54.410156 55.894531 54.300781 55.96875 54.175781 56.019531 C 54.050781 56.070312 53.921875 56.097656 53.785156 56.097656 Z M 53.785156 56.097656 " fill-opacity="1" fill-rule="nonzero"/><path fill="#000000" d="M 53.785156 61.191406 L 21.453125 61.191406 C 21.316406 61.191406 21.1875 61.164062 21.0625 61.113281 C 20.9375 61.0625 20.828125 60.988281 20.734375 60.894531 C 20.636719 60.796875 20.5625 60.6875 20.511719 60.5625 C 20.460938 60.4375 20.433594 60.308594 20.433594 60.175781 C 20.433594 60.039062 20.460938 59.910156 20.511719 59.785156 C 20.5625 59.660156 20.636719 59.550781 20.734375 59.457031 C 20.828125 59.359375 20.9375 59.285156 21.0625 59.234375 C 21.1875 59.183594 21.316406 59.15625 21.453125 59.15625 L 53.785156 59.15625 C 53.921875 59.15625 54.050781 59.183594 54.175781 59.234375 C 54.300781 59.285156 54.410156 59.359375 54.503906 59.457031 C 54.601562 59.550781 54.675781 59.660156 54.726562 59.785156 C 54.777344 59.910156 54.804688 60.039062 54.804688 60.175781 C 54.804688 60.308594 54.777344 60.4375 54.726562 60.5625 C 54.675781 60.6875 54.601562 60.796875 54.503906 60.894531 C 54.410156 60.988281 54.300781 61.0625 54.175781 61.113281 C 54.050781 61.164062 53.921875 61.191406 53.785156 61.191406 Z M 53.785156 61.191406 " fill-opacity="1" fill-rule="nonzero"/><path fill="#000000" d="M 17.050781 45.1875 C 16.917969 45.1875 16.785156 45.164062 16.660156 45.109375 C 16.539062 45.058594 16.425781 44.984375 16.332031 44.890625 C 16.238281 44.796875 16.164062 44.683594 16.113281 44.558594 C 16.058594 44.4375 16.035156 44.304688 16.035156 44.171875 L 16.035156 23.957031 C 16.035156 23.824219 16.058594 23.695312 16.113281 23.570312 C 16.164062 23.445312 16.238281 23.335938 16.332031 23.238281 C 16.425781 23.144531 16.539062 23.070312 16.660156 23.019531 C 16.785156 22.96875 16.917969 22.941406 17.050781 22.941406 C 17.1875 22.941406 17.316406 22.96875 17.441406 23.019531 C 17.566406 23.070312 17.675781 23.144531 17.769531 23.238281 C 17.863281 23.335938 17.9375 23.445312 17.988281 23.570312 C 18.042969 23.695312 18.066406 23.824219 18.066406 23.957031 L 18.066406 44.171875 C 18.066406 44.304688 18.042969 44.4375 17.988281 44.558594 C 17.9375 44.683594 17.863281 44.796875 17.769531 44.890625 C 17.675781 44.984375 17.566406 45.058594 17.441406 45.109375 C 17.316406 45.164062 17.1875 45.1875 17.050781 45.1875 Z M 12.539062 45.1875 C 12.40625 45.1875 12.277344 45.164062 12.152344 45.109375 C 12.027344 45.058594 11.917969 44.984375 11.820312 44.890625 C 11.726562 44.796875 11.652344 44.683594 11.601562 44.558594 C 11.550781 44.4375 11.523438 44.304688 11.523438 44.171875 L 11.523438 23.957031 C 11.523438 23.824219 11.550781 23.695312 11.601562 23.570312 C 11.652344 23.445312 11.726562 23.335938 11.820312 23.238281 C 11.917969 23.144531 12.027344 23.070312 12.152344 23.019531 C 12.277344 22.96875 12.40625 22.941406 12.539062 22.941406 C 12.675781 22.941406 12.804688 22.96875 12.929688 23.019531 C 13.054688 23.070312 13.164062 23.144531 13.257812 23.238281 C 13.355469 23.335938 13.429688 23.445312 13.480469 23.570312 C 13.53125 23.695312 13.558594 23.824219 13.558594 23.957031 L 13.558594 44.171875 C 13.558594 44.304688 13.53125 44.4375 13.480469 44.558594 C 13.429688 44.683594 13.355469 44.796875 13.257812 44.890625 C 13.164062 44.984375 13.054688 45.058594 12.929688 45.109375 C 12.804688 45.164062 12.675781 45.1875 12.539062 45.1875 Z M 12.539062 45.1875 " fill-opacity="1" fill-rule="nonzero"/></svg>