<svg xmlns="http://www.w3.org/2000/svg" xmlns:xlink="http://www.w3.org/1999/xlink" width="100" zoomAndPan="magnify" viewBox="0 0 75 74.999997" height="100" preserveAspectRatio="xMidYMid meet" version="1.0"><defs><clipPath id="5ee733e136"><path d="M 12 33 L 40 33 L 40 66.148438 L 12 66.148438 Z M 12 33 " clip-rule="nonzero"/></clipPath><clipPath id="2d2e82efa4"><path d="M 9.148438 24 L 39 24 L 39 48 L 9.148438 48 Z M 9.148438 24 " clip-rule="nonzero"/></clipPath><clipPath id="822a0b4155"><path d="M 39 16 L 66.148438 16 L 66.148438 66.148438 L 39 66.148438 Z M 39 16 " clip-rule="nonzero"/></clipPath><clipPath id="a2a50380a3"><path d="M 9.148438 9.148438 L 23 9.148438 L 23 23 L 9.148438 23 Z M 9.148438 9.148438 " clip-rule="nonzero"/></clipPath><clipPath id="9bd75fd56d"><path d="M 45 9.148438 L 61 9.148438 L 61 21 L 45 21 Z M 45 9.148438 " clip-rule="nonzero"/></clipPath></defs><g clip-path="url(#5ee733e136)"><path fill="#100f0d" d="M 38.945312 33.621094 C 38.414062 33.566406 37.957031 33.941406 37.898438 34.457031 L 37.738281 35.90625 C 37.699219 36.269531 37.453125 36.582031 37.109375 36.699219 L 30.804688 38.890625 C 30.425781 39.023438 30.171875 39.382812 30.171875 39.785156 L 30.171875 48.246094 C 30.171875 48.496094 30.269531 48.734375 30.445312 48.910156 L 35.578125 54.070312 C 35.753906 54.253906 35.851562 54.488281 35.851562 54.742188 L 35.851562 63.261719 C 35.851562 63.785156 35.425781 64.207031 34.902344 64.207031 C 34.382812 64.207031 33.957031 63.785156 33.957031 63.261719 L 33.957031 55.519531 C 33.957031 55.273438 33.859375 55.03125 33.683594 54.855469 L 28.199219 49.335938 C 28.019531 49.160156 27.78125 49.058594 27.527344 49.058594 L 25.4375 49.058594 C 24.914062 49.058594 24.488281 49.484375 24.488281 50.007812 L 24.488281 57.582031 C 24.488281 57.898438 24.332031 58.191406 24.066406 58.367188 L 15.546875 64.050781 C 15.125 64.332031 14.511719 64.207031 14.234375 63.789062 C 13.945312 63.355469 14.0625 62.761719 14.496094 62.472656 L 22.171875 57.355469 C 22.4375 57.179688 22.59375 56.886719 22.59375 56.566406 L 22.59375 50.007812 C 22.59375 49.484375 22.167969 49.058594 21.648438 49.058594 C 21.125 49.058594 20.703125 49.484375 20.703125 50.007812 L 20.703125 56.0625 L 13.445312 60.898438 C 12.144531 61.769531 11.789062 63.535156 12.65625 64.835938 C 13.1875 65.628906 14.070312 66.101562 15.019531 66.101562 C 15.582031 66.101562 16.128906 65.9375 16.597656 65.625 L 25.117188 59.945312 C 25.910156 59.414062 26.382812 58.53125 26.382812 57.582031 L 26.382812 50.953125 L 27.132812 50.953125 L 32.0625 55.914062 L 32.0625 63.261719 C 32.0625 64.832031 33.335938 66.101562 34.902344 66.101562 C 36.472656 66.101562 37.746094 64.832031 37.746094 63.261719 L 37.746094 54.742188 C 37.746094 53.984375 37.453125 53.273438 36.917969 52.738281 L 32.0625 47.855469 L 32.0625 40.460938 L 37.730469 38.484375 C 38.757812 38.128906 39.5 37.199219 39.621094 36.117188 L 39.78125 34.664062 C 39.839844 34.148438 39.464844 33.675781 38.945312 33.621094 " fill-opacity="1" fill-rule="nonzero"/></g><g clip-path="url(#2d2e82efa4)"><path fill="#100f0d" d="M 19.644531 45.261719 L 20.703125 44.417969 L 20.703125 46.21875 C 20.703125 46.742188 21.125 47.164062 21.648438 47.164062 C 22.167969 47.164062 22.59375 46.742188 22.59375 46.21875 L 22.59375 42.457031 C 22.59375 42.09375 22.386719 41.761719 22.058594 41.605469 C 21.734375 41.449219 21.34375 41.488281 21.058594 41.71875 L 18.464844 43.777344 C 18.257812 43.941406 17.992188 44.011719 17.730469 43.972656 L 12.035156 43.113281 C 11.984375 43.105469 11.933594 43.09375 11.882812 43.074219 C 11.445312 42.933594 11.175781 42.496094 11.246094 42.035156 C 11.28125 41.785156 11.414062 41.566406 11.617188 41.414062 C 11.820312 41.265625 12.070312 41.203125 12.320312 41.242188 L 17.199219 41.980469 C 17.460938 42.011719 17.722656 41.945312 17.929688 41.785156 L 22.792969 37.917969 C 23.066406 37.808594 23.414062 37.699219 23.542969 37.699219 L 24.488281 37.699219 C 25.011719 37.699219 25.4375 37.273438 25.4375 36.75 L 25.4375 36.351562 C 25.4375 35.972656 25.214844 35.632812 24.871094 35.480469 C 23.488281 34.878906 22.59375 33.519531 22.59375 32.015625 C 22.59375 29.925781 24.292969 28.230469 26.382812 28.230469 C 28.472656 28.230469 30.171875 29.925781 30.171875 32.015625 C 30.171875 33.519531 29.277344 34.878906 27.894531 35.480469 C 27.550781 35.632812 27.328125 35.972656 27.328125 36.351562 L 27.328125 36.75 C 27.328125 37.273438 27.753906 37.699219 28.277344 37.699219 L 28.855469 37.699219 C 29.105469 37.699219 29.339844 37.601562 29.515625 37.429688 C 29.617188 37.332031 29.734375 37.261719 29.859375 37.214844 L 35.359375 35.300781 C 35.703125 35.183594 35.945312 34.875 35.988281 34.511719 L 36.804688 27.179688 C 36.859375 26.660156 37.335938 26.28125 37.847656 26.34375 C 38.371094 26.390625 38.839844 26.019531 38.894531 25.503906 C 38.953125 24.984375 38.578125 24.515625 38.058594 24.460938 C 36.5 24.289062 35.09375 25.414062 34.921875 26.96875 L 34.171875 33.710938 L 31.402344 34.675781 C 31.828125 33.871094 32.0625 32.964844 32.0625 32.015625 C 32.0625 28.882812 29.515625 26.335938 26.382812 26.335938 C 23.25 26.335938 20.703125 28.882812 20.703125 32.015625 C 20.703125 33.558594 21.328125 35 22.382812 36.046875 C 22.175781 36.121094 22.011719 36.191406 21.925781 36.230469 C 21.851562 36.261719 21.78125 36.308594 21.71875 36.355469 L 17.078125 40.046875 L 12.605469 39.367188 C 11.855469 39.257812 11.105469 39.441406 10.492188 39.890625 C 9.882812 40.34375 9.484375 41 9.367188 41.753906 C 9.160156 43.128906 9.972656 44.449219 11.300781 44.875 C 11.445312 44.925781 11.597656 44.960938 11.753906 44.988281 L 17.449219 45.84375 C 18.226562 45.964844 19.027344 45.753906 19.644531 45.261719 " fill-opacity="1" fill-rule="nonzero"/></g><g clip-path="url(#822a0b4155)"><path fill="#100f0d" d="M 65.152344 17.542969 C 64.511719 17.003906 63.671875 16.765625 62.839844 16.902344 C 61.488281 17.125 60.46875 18.371094 60.46875 19.808594 L 60.46875 32.015625 L 58.070312 32.015625 C 59.203125 30.746094 59.742188 29 59.4375 27.230469 C 59.046875 24.96875 57.289062 23.140625 55.054688 22.671875 C 53.339844 22.320312 51.597656 22.734375 50.261719 23.820312 C 48.925781 24.902344 48.160156 26.507812 48.160156 28.230469 C 48.160156 29.175781 48.398438 30.085938 48.820312 30.886719 L 46.050781 29.921875 L 45.3125 23.289062 C 45.148438 21.804688 43.90625 20.652344 42.484375 20.652344 L 42.453125 20.652344 C 41.648438 20.660156 40.886719 21.011719 40.351562 21.613281 C 39.824219 22.210938 39.566406 23.015625 39.65625 23.808594 L 40.605469 32.332031 C 40.722656 33.410156 41.464844 34.34375 42.492188 34.699219 L 48.160156 36.671875 L 48.160156 44.066406 L 43.304688 48.953125 C 42.769531 49.484375 42.480469 50.199219 42.480469 50.953125 L 42.480469 59.375 C 42.480469 60.808594 43.5 62.054688 44.851562 62.277344 C 45.683594 62.410156 46.519531 62.179688 47.15625 61.636719 C 47.792969 61.097656 48.160156 60.3125 48.160156 59.476562 L 48.160156 52.125 L 53.089844 47.164062 L 53.839844 47.164062 L 53.839844 63.164062 C 53.839844 64.597656 54.863281 65.84375 56.210938 66.066406 C 56.367188 66.089844 56.523438 66.101562 56.679688 66.101562 C 57.351562 66.101562 58.003906 65.867188 58.523438 65.425781 C 59.15625 64.886719 59.523438 64.097656 59.523438 63.261719 L 59.523438 40.539062 C 59.523438 40.015625 59.097656 39.589844 58.574219 39.589844 C 58.054688 39.589844 57.628906 40.015625 57.628906 40.539062 L 57.628906 63.261719 C 57.628906 63.539062 57.507812 63.800781 57.296875 63.984375 C 57.078125 64.167969 56.800781 64.238281 56.515625 64.195312 C 56.078125 64.125 55.734375 63.667969 55.734375 63.164062 L 55.734375 46.21875 C 55.734375 45.699219 55.308594 45.273438 54.789062 45.273438 L 52.695312 45.273438 C 52.441406 45.273438 52.203125 45.371094 52.023438 45.550781 L 46.539062 51.066406 C 46.367188 51.246094 46.265625 51.484375 46.265625 51.734375 L 46.265625 59.476562 C 46.265625 59.753906 46.144531 60.015625 45.933594 60.195312 C 45.714844 60.382812 45.4375 60.453125 45.152344 60.40625 C 44.714844 60.335938 44.371094 59.882812 44.371094 59.375 L 44.371094 50.953125 C 44.371094 50.703125 44.46875 50.464844 44.644531 50.285156 L 49.78125 45.125 C 49.953125 44.945312 50.054688 44.710938 50.054688 44.457031 L 50.054688 36 C 50.054688 35.597656 49.796875 35.238281 49.417969 35.105469 L 43.113281 32.910156 C 42.769531 32.792969 42.523438 32.480469 42.484375 32.121094 L 41.539062 23.597656 C 41.507812 23.332031 41.589844 23.070312 41.773438 22.867188 C 41.949219 22.664062 42.203125 22.550781 42.476562 22.546875 C 42.964844 22.578125 43.375 22.96875 43.433594 23.5 L 44.234375 30.726562 C 44.277344 31.089844 44.519531 31.394531 44.863281 31.511719 L 50.363281 33.429688 C 50.488281 33.472656 50.605469 33.542969 50.707031 33.644531 C 50.882812 33.8125 51.117188 33.910156 51.367188 33.910156 L 51.949219 33.910156 C 52.46875 33.910156 52.894531 33.484375 52.894531 32.964844 L 52.894531 32.5625 C 52.894531 32.1875 52.671875 31.847656 52.328125 31.695312 C 50.945312 31.089844 50.054688 29.730469 50.054688 28.230469 C 50.054688 27.082031 50.5625 26.007812 51.457031 25.289062 C 52.359375 24.550781 53.496094 24.28125 54.667969 24.53125 C 56.125 24.832031 57.316406 26.078125 57.570312 27.546875 C 57.867188 29.289062 56.957031 30.996094 55.355469 31.695312 C 55.011719 31.847656 54.789062 32.1875 54.789062 32.5625 L 54.789062 32.964844 C 54.789062 33.484375 55.214844 33.910156 55.734375 33.910156 L 60.46875 33.910156 C 61.511719 33.910156 62.363281 33.058594 62.363281 32.015625 L 62.363281 19.808594 C 62.363281 19.300781 62.707031 18.84375 63.144531 18.773438 C 63.429688 18.730469 63.707031 18.800781 63.921875 18.984375 C 64.132812 19.167969 64.257812 19.429688 64.257812 19.707031 L 64.257812 32.015625 C 64.257812 34.105469 62.558594 35.804688 60.46875 35.804688 L 58.574219 35.804688 C 58.054688 35.804688 57.628906 36.230469 57.628906 36.75 C 57.628906 37.273438 58.054688 37.699219 58.574219 37.699219 L 60.46875 37.699219 C 63.601562 37.699219 66.148438 35.148438 66.148438 32.015625 L 66.148438 19.707031 C 66.148438 18.871094 65.785156 18.082031 65.152344 17.542969 " fill-opacity="1" fill-rule="nonzero"/></g><g clip-path="url(#a2a50380a3)"><path fill="#100f0d" d="M 12.179688 16.867188 C 12.703125 16.867188 13.125 17.292969 13.125 17.8125 C 13.125 18.335938 12.703125 18.761719 12.179688 18.761719 C 11.660156 18.761719 11.234375 18.335938 11.234375 17.8125 C 11.234375 17.292969 11.660156 16.867188 12.179688 16.867188 Z M 15.019531 11.1875 L 20.703125 11.1875 L 20.703125 13.078125 L 15.019531 13.078125 Z M 19.753906 20.652344 C 19.234375 20.652344 18.808594 20.230469 18.808594 19.707031 C 18.808594 19.1875 19.234375 18.761719 19.753906 18.761719 C 20.277344 18.761719 20.703125 19.1875 20.703125 19.707031 C 20.703125 20.230469 20.277344 20.652344 19.753906 20.652344 Z M 12.179688 20.652344 C 13.75 20.652344 15.019531 19.382812 15.019531 17.8125 L 15.019531 14.972656 L 20.703125 14.972656 L 20.703125 17.039062 C 20.402344 16.9375 20.085938 16.867188 19.753906 16.867188 C 18.1875 16.867188 16.914062 18.140625 16.914062 19.707031 C 16.914062 21.277344 18.1875 22.546875 19.753906 22.546875 C 21.324219 22.546875 22.59375 21.277344 22.59375 19.707031 L 22.59375 10.238281 C 22.59375 9.71875 22.167969 9.292969 21.648438 9.292969 L 14.074219 9.292969 C 13.550781 9.292969 13.125 9.71875 13.125 10.238281 L 13.125 15.148438 C 12.832031 15.042969 12.511719 14.972656 12.179688 14.972656 C 10.613281 14.972656 9.339844 16.246094 9.339844 17.8125 C 9.339844 19.382812 10.613281 20.652344 12.179688 20.652344 " fill-opacity="1" fill-rule="nonzero"/></g><g clip-path="url(#9bd75fd56d)"><path fill="#100f0d" d="M 47.246094 16.691406 C 47.425781 16.410156 47.730469 16.257812 48.046875 16.257812 C 48.21875 16.257812 48.398438 16.304688 48.550781 16.40625 C 48.765625 16.542969 48.914062 16.753906 48.96875 17 C 49.023438 17.242188 48.976562 17.5 48.839844 17.714844 C 48.707031 17.925781 48.496094 18.074219 48.25 18.128906 C 47.996094 18.183594 47.746094 18.140625 47.535156 18.003906 C 47.09375 17.722656 46.964844 17.132812 47.246094 16.691406 Z M 55.019531 11.546875 L 58.210938 13.582031 L 57.195312 15.179688 L 54.003906 13.140625 Z M 46.519531 19.601562 C 46.980469 19.890625 47.5 20.042969 48.039062 20.042969 C 48.246094 20.042969 48.453125 20.023438 48.660156 19.976562 C 49.398438 19.816406 50.03125 19.371094 50.4375 18.730469 C 50.4375 18.730469 50.4375 18.730469 50.4375 18.726562 L 52.984375 14.738281 L 56.972656 17.285156 C 57.132812 17.382812 57.308594 17.433594 57.484375 17.433594 C 57.792969 17.433594 58.101562 17.28125 58.28125 16.996094 L 60.320312 13.804688 C 60.453125 13.589844 60.5 13.335938 60.445312 13.089844 C 60.390625 12.84375 60.242188 12.632812 60.03125 12.496094 L 55.242188 9.441406 C 54.800781 9.160156 54.214844 9.289062 53.933594 9.726562 L 51.898438 12.925781 L 50.277344 15.460938 C 50.078125 15.210938 49.847656 14.984375 49.570312 14.808594 C 48.253906 13.96875 46.492188 14.355469 45.648438 15.675781 C 44.808594 16.996094 45.199219 18.757812 46.519531 19.601562 " fill-opacity="1" fill-rule="nonzero"/></g><path fill="#100f0d" d="M 30.246094 17.007812 C 30.378906 16.792969 30.59375 16.644531 30.839844 16.59375 C 30.910156 16.578125 30.976562 16.566406 31.046875 16.566406 C 31.222656 16.566406 31.402344 16.617188 31.554688 16.71875 C 31.992188 17 32.121094 17.585938 31.84375 18.023438 C 31.707031 18.238281 31.496094 18.386719 31.25 18.441406 C 31.003906 18.496094 30.746094 18.449219 30.535156 18.3125 C 30.320312 18.179688 30.175781 17.96875 30.121094 17.722656 C 30.066406 17.472656 30.109375 17.222656 30.246094 17.007812 Z M 28.273438 18.128906 C 28.433594 18.871094 28.878906 19.503906 29.515625 19.910156 C 29.976562 20.207031 30.503906 20.359375 31.039062 20.359375 C 31.246094 20.359375 31.453125 20.335938 31.660156 20.289062 C 32.398438 20.128906 33.023438 19.683594 33.4375 19.050781 C 33.4375 19.050781 33.441406 19.046875 33.441406 19.046875 L 36.496094 14.253906 C 36.777344 13.816406 36.648438 13.226562 36.207031 12.945312 C 35.765625 12.664062 35.179688 12.792969 34.902344 13.234375 L 33.277344 15.78125 C 33.085938 15.527344 32.855469 15.300781 32.574219 15.121094 C 31.933594 14.714844 31.175781 14.578125 30.433594 14.742188 C 29.6875 14.90625 29.058594 15.351562 28.648438 15.988281 C 28.242188 16.625 28.109375 17.386719 28.273438 18.128906 " fill-opacity="1" fill-rule="nonzero"/><path fill="#100f0d" d="M 41.53125 16.867188 C 42.054688 16.867188 42.480469 16.441406 42.480469 15.921875 L 42.480469 12.132812 C 42.480469 11.609375 42.054688 11.1875 41.53125 11.1875 C 41.011719 11.1875 40.585938 11.609375 40.585938 12.132812 L 40.585938 15.921875 C 40.585938 16.441406 41.011719 16.867188 41.53125 16.867188 " fill-opacity="1" fill-rule="nonzero"/><path fill="#100f0d" d="M 12.179688 28.230469 L 12.179688 31.070312 C 12.179688 31.589844 12.605469 32.015625 13.125 32.015625 C 13.648438 32.015625 14.074219 31.589844 14.074219 31.070312 L 14.074219 28.230469 C 14.074219 27.707031 13.648438 27.28125 13.125 27.28125 C 12.605469 27.28125 12.179688 27.707031 12.179688 28.230469 " fill-opacity="1" fill-rule="nonzero"/><path fill="#100f0d" d="M 31.117188 24.441406 C 31.117188 24.964844 31.542969 25.386719 32.0625 25.386719 C 32.585938 25.386719 33.011719 24.964844 33.011719 24.441406 C 33.011719 23.921875 32.585938 23.496094 32.0625 23.496094 C 31.542969 23.496094 31.117188 23.921875 31.117188 24.441406 " fill-opacity="1" fill-rule="nonzero"/><path fill="#100f0d" d="M 27.328125 12.132812 C 27.851562 12.132812 28.277344 11.707031 28.277344 11.1875 C 28.277344 10.664062 27.851562 10.238281 27.328125 10.238281 C 26.808594 10.238281 26.382812 10.664062 26.382812 11.1875 C 26.382812 11.707031 26.808594 12.132812 27.328125 12.132812 " fill-opacity="1" fill-rule="nonzero"/></svg>