<svg xmlns="http://www.w3.org/2000/svg" xmlns:xlink="http://www.w3.org/1999/xlink" width="100" zoomAndPan="magnify" viewBox="0 0 75 74.999997" height="100" preserveAspectRatio="xMidYMid meet" version="1.0"><defs><clipPath id="24f6b18dfe"><path d="M 41 11.722656 L 65.9375 11.722656 L 65.9375 40 L 41 40 Z M 41 11.722656 " clip-rule="nonzero"/></clipPath><clipPath id="e9001569de"><path d="M 44 40 L 64 40 L 64 63.472656 L 44 63.472656 Z M 44 40 " clip-rule="nonzero"/></clipPath><clipPath id="4d0772af00"><path d="M 8.9375 11.722656 L 35 11.722656 L 35 63.472656 L 8.9375 63.472656 Z M 8.9375 11.722656 " clip-rule="nonzero"/></clipPath></defs><g clip-path="url(#24f6b18dfe)"><path fill="#000000" d="M 59.828125 14.957031 L 59.097656 14.957031 L 59.097656 12.492188 C 59.097656 12.074219 58.757812 11.730469 58.339844 11.730469 L 49.410156 11.730469 C 48.992188 11.730469 48.652344 12.074219 48.652344 12.492188 L 48.652344 14.957031 L 47.921875 14.957031 C 47.265625 14.957031 46.632812 15.066406 46.039062 15.257812 C 46.035156 15.261719 46.027344 15.261719 46.023438 15.265625 C 43.585938 16.070312 41.820312 18.378906 41.820312 21.09375 L 41.820312 35.582031 C 41.820312 36.003906 42.160156 36.34375 42.578125 36.34375 L 45.011719 36.34375 L 44.753906 38.285156 C 44.726562 38.503906 44.789062 38.722656 44.933594 38.886719 C 45.078125 39.050781 45.285156 39.144531 45.503906 39.144531 L 62.246094 39.144531 C 62.464844 39.144531 62.671875 39.050781 62.816406 38.886719 C 62.960938 38.722656 63.023438 38.503906 62.996094 38.285156 L 62.738281 36.34375 L 65.175781 36.34375 C 65.589844 36.34375 65.929688 36.003906 65.929688 35.582031 L 65.929688 21.09375 C 65.929688 17.710938 63.191406 14.957031 59.828125 14.957031 Z M 59.972656 16.492188 L 56.917969 19.5 C 56.738281 19.679688 56.660156 19.9375 56.707031 20.1875 L 56.921875 21.300781 L 55.257812 22.519531 L 57.175781 16.476562 L 59.828125 16.476562 C 59.878906 16.476562 59.925781 16.492188 59.972656 16.492188 Z M 50.992188 19.5 L 47.921875 16.476562 L 50.574219 16.476562 L 52.445312 22.367188 L 50.992188 21.300781 L 51.203125 20.1875 C 51.253906 19.9375 51.171875 19.679688 50.992188 19.5 Z M 52.160156 16.476562 L 55.589844 16.476562 L 53.875 21.871094 Z M 50.164062 13.253906 L 57.585938 13.253906 L 57.585938 14.957031 L 50.164062 14.957031 Z M 47.675781 27.722656 C 47.734375 27.304688 47.441406 26.921875 47.027344 26.867188 C 46.613281 26.8125 46.234375 27.105469 46.179688 27.519531 L 45.210938 34.824219 L 43.332031 34.824219 L 43.332031 21.09375 C 43.332031 19.1875 44.488281 17.546875 46.132812 16.84375 L 49.644531 20.300781 L 49.414062 21.488281 C 49.359375 21.777344 49.476562 22.070312 49.710938 22.246094 L 53.121094 24.738281 L 53.121094 37.625 L 46.367188 37.625 Z M 64.417969 34.824219 L 62.539062 34.824219 L 61.570312 27.519531 C 61.515625 27.105469 61.132812 26.8125 60.722656 26.867188 C 60.308594 26.921875 60.019531 27.304688 60.074219 27.722656 L 61.382812 37.625 L 54.628906 37.625 L 54.628906 24.855469 L 58.199219 22.246094 C 58.433594 22.070312 58.550781 21.777344 58.496094 21.488281 L 58.265625 20.300781 L 61.71875 16.898438 C 63.308594 17.625 64.417969 19.226562 64.417969 21.09375 Z M 64.417969 34.824219 " fill-opacity="1" fill-rule="nonzero"/></g><path fill="#000000" d="M 57.15625 32.246094 C 56.742188 32.246094 56.40625 32.585938 56.40625 33.003906 C 56.40625 33.421875 56.742188 33.761719 57.15625 33.761719 C 57.574219 33.761719 57.910156 33.421875 57.910156 33.003906 C 57.910156 32.585938 57.574219 32.246094 57.15625 32.246094 Z M 57.15625 32.246094 " fill-opacity="1" fill-rule="nonzero"/><path fill="#000000" d="M 57.15625 29.480469 C 56.742188 29.480469 56.40625 29.820312 56.40625 30.238281 C 56.40625 30.65625 56.742188 30.996094 57.15625 30.996094 C 57.574219 30.996094 57.910156 30.65625 57.910156 30.238281 C 57.910156 29.820312 57.574219 29.480469 57.15625 29.480469 Z M 57.15625 29.480469 " fill-opacity="1" fill-rule="nonzero"/><g clip-path="url(#e9001569de)"><path fill="#000000" d="M 47.90625 63.476562 L 52.144531 63.476562 C 52.527344 63.476562 52.851562 63.1875 52.894531 62.804688 L 53.855469 54.671875 L 54.816406 62.804688 C 54.863281 63.1875 55.183594 63.476562 55.566406 63.476562 L 59.804688 63.476562 C 60.191406 63.476562 60.511719 63.1875 60.554688 62.800781 L 63 40.992188 C 63.023438 40.777344 62.953125 40.5625 62.8125 40.398438 C 62.667969 40.238281 62.460938 40.148438 62.246094 40.148438 L 45.464844 40.148438 C 45.25 40.148438 45.042969 40.238281 44.902344 40.398438 C 44.757812 40.5625 44.691406 40.777344 44.714844 40.992188 L 47.15625 62.800781 C 47.199219 63.1875 47.523438 63.476562 47.90625 63.476562 Z M 61.402344 41.667969 L 59.128906 61.957031 L 56.238281 61.957031 L 54.625 48.304688 C 54.578125 47.910156 54.242188 47.628906 53.855469 47.632812 C 53.46875 47.625 53.132812 47.910156 53.085938 48.304688 L 51.472656 61.957031 L 48.582031 61.957031 L 46.308594 41.667969 Z M 61.402344 41.667969 " fill-opacity="1" fill-rule="nonzero"/></g><g clip-path="url(#4d0772af00)"><path fill="#000000" d="M 34.578125 62.71875 C 34.578125 45.3125 29.75 38.179688 28.699219 36.832031 L 28.699219 34.171875 L 31.761719 22.042969 C 31.84375 21.726562 31.882812 21.375 31.882812 21 C 31.882812 19.949219 31.484375 18.914062 30.777344 18.152344 C 30.617188 17.984375 30.445312 17.84375 30.273438 17.707031 L 30.273438 12.488281 C 30.273438 12.066406 29.9375 11.726562 29.519531 11.726562 L 26.371094 11.726562 C 25.953125 11.726562 25.613281 12.066406 25.613281 12.488281 L 25.613281 17.417969 C 24.644531 17.933594 23.765625 18.578125 23.011719 19.347656 L 21.765625 20.601562 L 20.519531 19.347656 C 19.742188 18.5625 18.863281 17.925781 17.90625 17.417969 L 17.90625 12.488281 C 17.90625 12.066406 17.566406 11.726562 17.148438 11.726562 L 14.015625 11.726562 C 13.597656 11.726562 13.257812 12.066406 13.257812 12.488281 L 13.257812 17.695312 C 13.078125 17.835938 12.902344 17.984375 12.734375 18.160156 C 11.785156 19.1875 11.410156 20.671875 11.757812 22.035156 L 14.820312 34.125 L 14.847656 36.800781 C 13.855469 38.054688 8.941406 45.15625 8.941406 62.714844 C 8.941406 63.136719 9.28125 63.476562 9.699219 63.476562 L 33.824219 63.476562 C 34.238281 63.476562 34.578125 63.136719 34.578125 62.71875 Z M 27.125 13.246094 L 28.761719 13.246094 L 28.761719 16.957031 C 28.480469 16.886719 28.183594 16.847656 27.886719 16.839844 C 27.882812 16.839844 27.882812 16.839844 27.878906 16.839844 C 27.832031 16.835938 27.785156 16.828125 27.738281 16.828125 C 27.535156 16.828125 27.328125 16.847656 27.125 16.878906 Z M 14.769531 13.246094 L 16.394531 13.246094 L 16.394531 16.878906 C 15.847656 16.792969 15.292969 16.824219 14.769531 16.953125 Z M 13.832031 19.203125 C 14.078125 18.945312 14.339844 18.75 14.636719 18.613281 C 15.28125 18.289062 16.117188 18.253906 16.835938 18.582031 C 16.871094 18.597656 16.90625 18.613281 16.941406 18.621094 C 17.859375 19.066406 18.703125 19.671875 19.449219 20.421875 L 21.230469 22.210938 C 21.527344 22.507812 22.003906 22.507812 22.300781 22.210938 L 24.085938 20.414062 C 24.800781 19.683594 25.644531 19.078125 26.496094 18.65625 C 26.527344 18.644531 26.554688 18.632812 26.582031 18.621094 C 26.617188 18.609375 26.648438 18.597656 26.679688 18.582031 C 27.171875 18.359375 27.71875 18.316406 28.21875 18.40625 C 28.453125 18.449219 28.6875 18.515625 28.902344 18.625 C 29.175781 18.75 29.441406 18.945312 29.679688 19.199219 C 30.121094 19.675781 30.375 20.332031 30.375 21 C 30.375 21.246094 30.347656 21.464844 30.296875 21.660156 L 27.363281 33.285156 L 16.167969 33.285156 L 13.222656 21.660156 C 13 20.789062 13.238281 19.847656 13.832031 19.203125 Z M 27.1875 34.804688 L 27.1875 36.34375 L 16.355469 36.34375 L 16.339844 34.804688 Z M 10.457031 61.957031 C 10.59375 46.015625 14.960938 39.195312 15.941406 37.867188 L 27.578125 37.867188 C 28.558594 39.195312 32.929688 46.015625 33.0625 61.957031 Z M 10.457031 61.957031 " fill-opacity="1" fill-rule="nonzero"/></g></svg>