<svg xmlns="http://www.w3.org/2000/svg" xmlns:xlink="http://www.w3.org/1999/xlink" width="100" zoomAndPan="magnify" viewBox="0 0 75 74.999997" height="100" preserveAspectRatio="xMidYMid meet" version="1.0"><defs><clipPath id="832a1c7136"><path d="M 8.816406 15.09375 L 65.816406 15.09375 L 65.816406 29 L 8.816406 29 Z M 8.816406 15.09375 " clip-rule="nonzero"/></clipPath><clipPath id="b6193ac797"><path d="M 8.816406 58 L 65.816406 58 L 65.816406 60.09375 L 8.816406 60.09375 Z M 8.816406 58 " clip-rule="nonzero"/></clipPath></defs><g clip-path="url(#832a1c7136)"><path fill="#000000" d="M 63.835938 28.503906 L 50.578125 28.503906 L 50.578125 26.589844 L 63.835938 26.589844 L 58.3125 17.019531 L 15.546875 17.019531 L 10.8125 26.589844 L 24.066406 26.589844 L 24.066406 28.503906 L 10.8125 28.503906 C 10.148438 28.503906 9.546875 28.164062 9.199219 27.59375 C 8.851562 27.027344 8.820312 26.332031 9.117188 25.734375 L 13.851562 16.164062 C 14.175781 15.511719 14.824219 15.105469 15.542969 15.105469 L 58.3125 15.105469 C 58.980469 15.105469 59.609375 15.46875 59.945312 16.054688 L 65.472656 25.625 C 65.816406 26.222656 65.820312 26.941406 65.476562 27.542969 C 65.136719 28.144531 64.523438 28.503906 63.835938 28.503906 Z M 63.835938 28.503906 " fill-opacity="1" fill-rule="nonzero"/></g><path fill="#000000" d="M 52.472656 38.074219 L 22.171875 38.074219 C 21.128906 38.074219 20.28125 37.214844 20.28125 36.160156 L 20.28125 34.246094 C 20.28125 33.191406 21.128906 32.332031 22.171875 32.332031 L 35.429688 32.332031 L 35.429688 34.246094 L 22.171875 34.246094 L 22.171875 36.160156 L 52.472656 36.160156 L 52.472656 34.246094 L 41.113281 34.246094 L 41.113281 32.332031 L 52.472656 32.332031 C 53.519531 32.332031 54.367188 33.191406 54.367188 34.246094 L 54.367188 36.160156 C 54.367188 37.214844 53.519531 38.074219 52.472656 38.074219 Z M 52.472656 38.074219 " fill-opacity="1" fill-rule="nonzero"/><path fill="#000000" d="M 52.472656 34.242188 L 37.324219 22.761719 L 22.171875 34.242188 L 21.035156 32.714844 L 36.1875 21.230469 C 36.847656 20.730469 37.800781 20.730469 38.457031 21.230469 L 53.609375 32.714844 L 52.472656 34.246094 Z M 52.472656 34.242188 " fill-opacity="1" fill-rule="nonzero"/><path fill="#000000" d="M 37.324219 32.332031 L 39.21875 32.332031 L 39.21875 34.242188 L 37.324219 34.242188 Z M 37.324219 32.332031 " fill-opacity="1" fill-rule="nonzero"/><g clip-path="url(#b6193ac797)"><path fill="#000000" d="M 8.914062 58.167969 L 65.730469 58.167969 L 65.730469 60.082031 L 8.914062 60.082031 Z M 8.914062 58.167969 " fill-opacity="1" fill-rule="nonzero"/></g><path fill="#000000" d="M 43.953125 59.125 L 42.058594 59.125 L 42.058594 47.640625 C 42.058594 45.003906 39.933594 42.859375 37.324219 42.859375 C 34.710938 42.859375 32.589844 45.003906 32.589844 47.640625 L 32.589844 59.125 L 30.695312 59.125 L 30.695312 47.640625 C 30.695312 43.949219 33.667969 40.945312 37.324219 40.945312 C 40.976562 40.945312 43.953125 43.949219 43.953125 47.640625 Z M 43.953125 59.125 " fill-opacity="1" fill-rule="nonzero"/><path fill="#000000" d="M 31.640625 54.339844 L 43.953125 54.339844 L 43.953125 56.253906 L 31.640625 56.253906 Z M 31.640625 54.339844 " fill-opacity="1" fill-rule="nonzero"/><path fill="#000000" d="M 34.484375 49.554688 L 36.378906 49.554688 L 36.378906 52.425781 L 34.484375 52.425781 Z M 34.484375 49.554688 " fill-opacity="1" fill-rule="nonzero"/><path fill="#000000" d="M 23.121094 37.113281 L 25.011719 37.113281 L 25.011719 59.125 L 23.121094 59.125 Z M 23.121094 37.113281 " fill-opacity="1" fill-rule="nonzero"/><path fill="#000000" d="M 49.632812 37.113281 L 51.527344 37.113281 L 51.527344 59.125 L 49.632812 59.125 Z M 49.632812 37.113281 " fill-opacity="1" fill-rule="nonzero"/><path fill="#000000" d="M 58.15625 52.425781 L 60.050781 52.425781 L 60.050781 59.125 L 58.15625 59.125 Z M 58.15625 52.425781 " fill-opacity="1" fill-rule="nonzero"/><path fill="#000000" d="M 61.941406 27.546875 L 63.835938 27.546875 L 63.835938 40.945312 L 61.941406 40.945312 Z M 61.941406 27.546875 " fill-opacity="1" fill-rule="nonzero"/><path fill="#000000" d="M 61.941406 50.511719 L 63.835938 50.511719 L 63.835938 59.125 L 61.941406 59.125 Z M 61.941406 50.511719 " fill-opacity="1" fill-rule="nonzero"/><path fill="#000000" d="M 59.101562 53.382812 C 55.96875 53.382812 53.421875 50.808594 53.421875 47.640625 L 53.421875 43.8125 C 53.421875 40.648438 55.96875 38.074219 59.101562 38.074219 C 62.234375 38.074219 64.785156 40.648438 64.785156 43.8125 L 64.785156 47.640625 C 64.785156 50.808594 62.234375 53.382812 59.101562 53.382812 Z M 59.101562 39.984375 C 57.015625 39.984375 55.316406 41.703125 55.316406 43.8125 L 55.316406 47.640625 C 55.316406 49.75 57.015625 51.46875 59.101562 51.46875 C 61.191406 51.46875 62.890625 49.75 62.890625 47.640625 L 62.890625 43.8125 C 62.890625 41.703125 61.191406 39.984375 59.101562 39.984375 Z M 59.101562 39.984375 " fill-opacity="1" fill-rule="nonzero"/><path fill="#000000" d="M 15.542969 55.296875 C 12.410156 55.296875 9.863281 52.722656 9.863281 49.554688 L 9.863281 47.640625 C 9.863281 44.476562 12.410156 41.898438 15.542969 41.898438 C 18.675781 41.898438 21.226562 44.476562 21.226562 47.640625 L 21.226562 49.554688 C 21.226562 52.722656 18.675781 55.296875 15.542969 55.296875 Z M 15.542969 43.8125 C 13.457031 43.8125 11.757812 45.53125 11.757812 47.640625 L 11.757812 49.554688 C 11.757812 51.667969 13.457031 53.382812 15.542969 53.382812 C 17.632812 53.382812 19.332031 51.667969 19.332031 49.554688 L 19.332031 47.640625 C 19.332031 45.53125 17.632812 43.8125 15.542969 43.8125 Z M 15.542969 43.8125 " fill-opacity="1" fill-rule="nonzero"/><path fill="#000000" d="M 10.808594 27.546875 L 12.703125 27.546875 L 12.703125 44.773438 L 10.808594 44.773438 Z M 10.808594 27.546875 " fill-opacity="1" fill-rule="nonzero"/><path fill="#000000" d="M 10.808594 52.425781 L 12.703125 52.425781 L 12.703125 59.125 L 10.808594 59.125 Z M 10.808594 52.425781 " fill-opacity="1" fill-rule="nonzero"/><path fill="#000000" d="M 14.597656 54.339844 L 16.492188 54.339844 L 16.492188 59.125 L 14.597656 59.125 Z M 14.597656 54.339844 " fill-opacity="1" fill-rule="nonzero"/></svg>