<svg xmlns="http://www.w3.org/2000/svg" xmlns:xlink="http://www.w3.org/1999/xlink" width="100" zoomAndPan="magnify" viewBox="0 0 75 74.999997" height="100" preserveAspectRatio="xMidYMid meet" version="1.0"><defs><clipPath id="5b6b769f8f"><path d="M 7.363281 20.925781 L 67.363281 20.925781 L 67.363281 53.925781 L 7.363281 53.925781 Z M 7.363281 20.925781 " clip-rule="nonzero"/></clipPath></defs><path fill="#000000" d="M 40.257812 26.230469 C 39.519531 26.230469 38.917969 26.847656 38.917969 27.582031 L 38.917969 29.175781 C 38.917969 29.910156 39.519531 30.535156 40.257812 30.535156 L 47.804688 30.535156 C 48.183594 30.535156 48.539062 30.359375 48.757812 30.070312 C 48.976562 29.78125 49.042969 29.382812 48.933594 29.015625 L 48.417969 27.238281 C 48.324219 26.90625 48.101562 26.625 47.832031 26.457031 C 47.5625 26.289062 47.261719 26.226562 46.964844 26.226562 L 40.257812 26.226562 Z M 40.257812 27.359375 L 47.058594 27.359375 C 47.273438 27.359375 47.308594 27.488281 47.328125 27.554688 L 47.847656 29.332031 C 47.871094 29.402344 47.808594 29.398438 47.804688 29.398438 L 40.257812 29.398438 C 40.144531 29.398438 40.054688 29.316406 40.054688 29.175781 L 40.054688 27.582031 C 40.054688 27.441406 40.144531 27.359375 40.257812 27.359375 Z M 40.257812 27.359375 " fill-opacity="1" fill-rule="evenodd"/><path fill="#000000" d="M 20.28125 31.878906 C 19.226562 31.878906 18.375 32.757812 18.375 33.8125 C 18.375 34.871094 19.230469 35.75 20.28125 35.75 L 21.136719 35.75 C 22.1875 35.75 23.039062 34.867188 23.039062 33.8125 C 23.039062 32.757812 22.191406 31.878906 21.136719 31.878906 Z M 20.28125 33.015625 L 21.136719 33.015625 C 21.566406 33.015625 21.902344 33.355469 21.902344 33.8125 C 21.902344 34.273438 21.566406 34.613281 21.136719 34.613281 L 20.28125 34.613281 C 19.851562 34.613281 19.511719 34.273438 19.511719 33.8125 C 19.511719 33.355469 19.851562 33.015625 20.28125 33.015625 Z M 20.28125 33.015625 " fill-opacity="1" fill-rule="evenodd"/><path fill="#000000" d="M 27.167969 31.878906 C 26.113281 31.878906 25.257812 32.757812 25.257812 33.8125 C 25.257812 34.871094 26.113281 35.75 27.167969 35.75 L 28.015625 35.75 C 29.066406 35.75 29.921875 34.867188 29.921875 33.8125 C 29.921875 32.757812 29.070312 31.878906 28.015625 31.878906 Z M 27.167969 33.015625 L 28.015625 33.015625 C 28.445312 33.015625 28.785156 33.355469 28.785156 33.8125 C 28.785156 34.273438 28.445312 34.613281 28.015625 34.613281 L 27.167969 34.613281 C 26.734375 34.613281 26.394531 34.273438 26.394531 33.8125 C 26.394531 33.355469 26.738281 33.015625 27.167969 33.015625 Z M 27.167969 33.015625 " fill-opacity="1" fill-rule="evenodd"/><path fill="#000000" d="M 34.046875 31.878906 C 32.992188 31.878906 32.144531 32.757812 32.144531 33.8125 C 32.144531 34.871094 32.992188 35.75 34.046875 35.75 L 34.902344 35.75 C 35.953125 35.75 36.808594 34.871094 36.808594 33.8125 C 36.808594 32.757812 35.953125 31.878906 34.902344 31.878906 Z M 34.046875 33.015625 L 34.902344 33.015625 C 35.332031 33.015625 35.671875 33.355469 35.671875 33.8125 C 35.671875 34.273438 35.332031 34.613281 34.902344 34.613281 L 34.046875 34.613281 C 33.617188 34.613281 33.28125 34.273438 33.28125 33.8125 C 33.28125 33.355469 33.617188 33.015625 34.046875 33.015625 Z M 34.046875 33.015625 " fill-opacity="1" fill-rule="evenodd"/><path fill="#000000" d="M 48.320312 40.90625 C 46.945312 40.90625 45.824219 42.035156 45.824219 43.410156 C 45.824219 44.78125 46.949219 45.90625 48.320312 45.90625 C 49.691406 45.90625 50.816406 44.78125 50.816406 43.410156 C 50.816406 42.035156 49.691406 40.90625 48.320312 40.90625 Z M 48.320312 42.042969 C 49.078125 42.042969 49.679688 42.652344 49.679688 43.410156 C 49.679688 44.167969 49.078125 44.769531 48.320312 44.769531 C 47.5625 44.769531 46.960938 44.167969 46.960938 43.410156 C 46.960938 42.648438 47.5625 42.042969 48.320312 42.042969 Z M 48.320312 42.042969 " fill-opacity="1" fill-rule="evenodd"/><path fill="#000000" d="M 54.921875 40.910156 C 53.550781 40.910156 52.425781 42.03125 52.425781 43.402344 C 52.425781 44.777344 53.550781 45.90625 54.921875 45.90625 C 56.292969 45.90625 57.417969 44.773438 57.417969 43.402344 C 57.417969 42.03125 56.292969 40.910156 54.921875 40.910156 Z M 54.921875 42.042969 C 55.679688 42.042969 56.28125 42.644531 56.28125 43.402344 C 56.28125 44.164062 55.679688 44.769531 54.921875 44.769531 C 54.164062 44.769531 53.5625 44.160156 53.5625 43.402344 C 53.5625 42.644531 54.164062 42.042969 54.921875 42.042969 Z M 54.921875 42.042969 " fill-opacity="1" fill-rule="evenodd"/><g clip-path="url(#5b6b769f8f)"><path fill="#000000" d="M 17.835938 20.957031 C 17.40625 20.957031 16.96875 21.128906 16.675781 21.46875 C 16.382812 21.808594 16.28125 22.304688 16.386719 22.738281 L 16.375 22.703125 L 17.378906 27.542969 L 15.859375 27.542969 C 14.675781 27.542969 13.636719 28.523438 13.636719 29.742188 L 13.636719 31 C 13.636719 32.125 14.332031 32.765625 14.550781 33.144531 C 14.617188 33.257812 14.601562 33.253906 14.59375 33.308594 L 12.632812 38.992188 L 10.207031 38.992188 C 9.378906 38.992188 8.601562 39.007812 8.035156 39.609375 C 7.375 40.3125 7.429688 41.15625 7.644531 41.945312 L 10.207031 51.367188 C 10.410156 52.128906 10.734375 52.8125 11.316406 53.285156 C 11.902344 53.761719 12.667969 53.953125 13.53125 53.953125 C 13.53125 53.953125 40.417969 53.953125 53.863281 53.953125 C 54.851562 53.953125 55.671875 53.851562 56.382812 53.5625 C 57.089844 53.277344 57.675781 52.785156 58.0625 52.144531 L 66.675781 37.816406 C 67.222656 36.910156 67.324219 35.933594 66.851562 35.238281 C 66.375 34.546875 65.585938 34.332031 64.859375 34.332031 L 54.652344 34.332031 L 51.960938 25.300781 C 51.789062 24.609375 51.503906 23.933594 51.011719 23.386719 C 50.519531 22.839844 49.769531 22.445312 48.921875 22.445312 L 36.554688 22.445312 C 36.019531 22.445312 35.496094 22.605469 35.089844 22.964844 C 34.683594 23.324219 34.441406 23.882812 34.441406 24.457031 L 34.441406 27.535156 L 32.402344 27.542969 L 30.878906 24.609375 C 30.460938 23.804688 29.835938 23.386719 29.125 23.386719 L 26.382812 23.386719 C 25.957031 23.386719 25.519531 23.550781 25.222656 23.890625 C 24.929688 24.230469 24.773438 24.746094 24.929688 25.164062 L 25.820312 27.542969 L 24.351562 27.542969 L 22.332031 22.175781 C 22.09375 21.550781 21.460938 20.957031 20.570312 20.957031 Z M 18.105469 22.664062 L 20.570312 22.664062 C 20.570312 22.664062 20.710938 22.746094 20.773438 22.886719 L 22.53125 27.542969 L 19.117188 27.542969 Z M 36.554688 24.152344 L 48.917969 24.152344 C 49.296875 24.152344 49.515625 24.257812 49.742188 24.523438 C 50.070312 24.914062 50.199219 25.359375 50.316406 25.75 L 52.886719 34.332031 L 45.054688 34.332031 C 44.871094 34.332031 44.695312 34.386719 44.546875 34.496094 L 38.464844 38.992188 L 14.4375 38.992188 L 16.082031 34.257812 C 16.191406 33.984375 16.222656 33.746094 16.28125 33.527344 C 16.328125 33.171875 16.265625 32.699219 16.027344 32.289062 C 15.617188 31.578125 15.34375 31.402344 15.34375 31 L 15.34375 29.742188 C 15.34375 29.375 15.488281 29.25 15.859375 29.25 L 34.441406 29.25 C 34.875 29.25 35.371094 29.199219 35.75 28.796875 C 36.128906 28.394531 36.144531 27.929688 36.144531 27.539062 L 36.144531 24.617188 C 36.144531 24.3125 36.386719 24.152344 36.554688 24.152344 Z M 26.71875 25.089844 L 29.210938 25.089844 L 30.480469 27.542969 L 27.644531 27.542969 Z M 45.335938 36.035156 L 64.859375 36.035156 C 65.421875 36.035156 65.449219 36.554688 65.21875 36.9375 L 56.621094 51.230469 C 56.023438 52.226562 55.199219 52.242188 54.273438 52.242188 L 13.53125 52.242188 C 12.4375 52.242188 12.058594 51.691406 11.847656 50.921875 L 9.296875 41.515625 C 9.101562 40.804688 9.53125 40.695312 10.207031 40.695312 L 38.75 40.695312 C 38.933594 40.695312 39.109375 40.636719 39.253906 40.527344 Z M 45.335938 36.035156 " fill-opacity="1" fill-rule="evenodd"/></g></svg>