<svg xmlns="http://www.w3.org/2000/svg" xmlns:xlink="http://www.w3.org/1999/xlink" width="100" zoomAndPan="magnify" viewBox="0 0 75 74.999997" height="100" preserveAspectRatio="xMidYMid meet" version="1.0"><defs><clipPath id="cb3d1689d5"><path d="M 11.136719 18 L 23 18 L 23 31 L 11.136719 31 Z M 11.136719 18 " clip-rule="nonzero"/></clipPath><clipPath id="71103e0383"><path d="M 54 35 L 63.636719 35 L 63.636719 45 L 54 45 Z M 54 35 " clip-rule="nonzero"/></clipPath><clipPath id="5cbc7b9d34"><path d="M 34 7.5 L 56 7.5 L 56 33 L 34 33 Z M 34 7.5 " clip-rule="nonzero"/></clipPath><clipPath id="f2056793f9"><path d="M 29 65 L 50 65 L 50 67.5 L 29 67.5 Z M 29 65 " clip-rule="nonzero"/></clipPath></defs><path stroke-linecap="round" transform="matrix(1.661108, 0, 0, 1.668153, -284.539458, -78.509116)" fill="none" stroke-linejoin="round" d="M 181.350432 60.44611 C 181.138788 60.464843 180.953012 60.757551 180.880113 60.923809 C 180.649657 61.455366 180.922442 62.462281 181.649084 62.394373 C 182.215818 62.340514 182.76374 61.483466 182.432165 60.9683 C 182.20406 60.612368 181.679655 60.612368 181.3034 60.595976 " stroke="#000000" stroke-width="0.65" stroke-opacity="1" stroke-miterlimit="1.5"/><path stroke-linecap="round" transform="matrix(1.661108, 0, 0, 1.668153, -284.539458, -78.509116)" fill="none" stroke-linejoin="round" d="M 181.190523 60.464843 C 181.190523 60.469526 181.190523 60.469526 181.190523 60.471868 " stroke="#000000" stroke-width="0.65" stroke-opacity="1" stroke-miterlimit="1.5"/><g clip-path="url(#cb3d1689d5)"><path stroke-linecap="round" transform="matrix(1.661108, 0, 0, 1.668153, -284.539458, -78.509116)" fill="none" stroke-linejoin="round" d="M 181.3034 60.443768 C 181.239907 60.336052 181.249313 60.132327 181.246962 60.017585 C 181.228149 59.549253 181.326916 59.062187 181.585591 58.668788 C 181.724335 58.453355 182.051207 58.111472 182.326343 58.31988 C 182.799013 58.678155 182.627347 59.62887 182.552096 60.120619 C 182.523877 60.303268 182.490955 60.485918 182.455681 60.666226 C 182.446274 60.715401 182.436868 60.764576 182.429813 60.813751 C 182.42511 60.841851 182.387485 60.902734 182.413352 60.895709 C 182.568557 60.841851 182.707301 60.706034 182.888374 60.663884 C 183.438647 60.530409 184.508622 60.640468 184.52038 61.401508 C 184.532138 62.171915 183.516249 62.265581 182.95657 62.310073 C 182.810771 62.324123 182.664973 62.331148 182.516822 62.333489 C 182.436868 62.333489 182.27696 62.251531 182.27696 62.331148 C 182.27696 62.370956 182.375727 62.478672 182.396891 62.513797 C 182.486251 62.668347 182.561502 62.832263 182.610886 63.005546 C 182.817826 63.708045 182.549745 64.825018 181.691413 64.956151 C 180.905981 65.077918 180.800159 63.750195 180.826026 63.242054 C 180.833081 63.09453 180.856597 62.949347 180.908332 62.808847 C 180.913035 62.79948 180.967122 62.684739 180.962419 62.677714 C 180.945958 62.661322 180.781346 62.726889 180.769588 62.72923 C 180.581461 62.780747 180.38863 62.801822 180.193448 62.804164 C 179.574979 62.81353 178.241625 62.473989 178.323931 61.626307 C 178.432104 60.528068 180.099384 60.382885 180.924793 60.499968 " stroke="#000000" stroke-width="0.65" stroke-opacity="1" stroke-miterlimit="1.5"/></g><path stroke-linecap="round" transform="matrix(1.661108, 0, 0, 1.668153, -284.539458, -78.509116)" fill="none" stroke-linejoin="round" d="M 184.094741 56.53085 C 183.876043 56.5449 183.687916 56.814191 183.615016 56.989816 C 183.403373 57.48859 183.796089 58.045906 184.351065 57.949898 C 184.513325 57.921798 184.677937 57.844523 184.809626 57.746173 C 184.936612 57.652507 185.05184 57.51669 185.120036 57.373849 C 185.366954 56.858683 184.776704 56.568317 184.360472 56.505092 C 184.329901 56.500409 183.998326 56.519142 183.98892 56.505092 C 183.913669 56.395034 183.918372 56.139793 183.901911 56.015685 C 183.838418 55.568427 183.779628 55.071995 183.88545 54.627079 C 183.934833 54.425696 184.061819 54.07913 184.320494 54.088497 C 184.501567 54.095522 184.614444 54.27583 184.68264 54.421013 C 184.870767 54.830804 184.924854 55.315528 184.938964 55.760443 C 184.946018 55.931385 184.946018 56.102326 184.931909 56.270926 C 184.927206 56.315417 184.922502 56.359909 184.917799 56.404401 C 184.913096 56.432501 184.906041 56.519142 184.906041 56.4887 C 184.906041 56.324784 185.345789 56.231118 185.442205 56.217068 C 185.867843 56.153843 186.841403 56.289659 186.933115 56.83995 C 187.031882 57.455807 185.910172 57.65719 185.508049 57.739148 C 185.411634 57.757881 185.178826 57.760223 185.098872 57.828131 C 185.09652 57.830473 185.178826 57.863256 185.185881 57.867939 C 185.251726 57.898381 185.312867 57.938189 185.369305 57.982681 C 185.545675 58.120839 185.689122 58.31988 185.757318 58.535313 C 185.917227 59.045796 185.566839 59.598428 185.11063 59.816202 C 184.235837 60.23536 183.866637 59.378312 183.76787 58.664105 C 183.756112 58.58683 183.789034 58.125522 183.739651 58.076347 C 183.72319 58.059956 183.610313 58.099764 183.5915 58.104447 C 183.433944 58.141914 183.274035 58.170014 183.114127 58.184064 C 182.556799 58.230897 181.42098 58.066981 181.371596 57.327015 C 181.350432 57.010891 181.68671 56.914883 181.935979 56.865708 C 182.486251 56.753308 183.06004 56.624517 183.626774 56.624517 " stroke="#000000" stroke-width="0.65" stroke-opacity="1" stroke-miterlimit="1.5"/><path stroke-linecap="round" transform="matrix(1.661108, 0, 0, 1.668153, -284.539458, -78.509116)" fill="none" stroke-linejoin="round" d="M 205.635339 75.121307 C 205.334335 75.292248 205.033331 75.442115 205.030979 75.863614 C 205.028628 76.472446 205.698832 76.865845 206.159744 76.418588 C 206.380794 76.203155 206.43488 75.882347 206.291433 75.610714 C 205.995132 75.039349 205.503649 75.16814 205.411937 74.460958 C 205.393125 74.301725 205.393125 74.140151 205.404882 73.980918 C 205.418992 73.77251 205.451914 73.222219 205.705886 73.137919 C 205.861092 73.084061 205.992781 73.304177 206.053922 73.409552 C 206.244401 73.751435 206.298488 74.165909 206.263214 74.552283 C 206.249105 74.690441 206.218534 74.823916 206.18326 74.957391 C 206.16915 75.018274 206.091548 75.184532 206.136228 75.14004 C 206.517186 74.758349 207.627138 74.290017 207.972823 74.985491 C 208.226795 75.498315 207.474285 75.865956 207.107436 75.983039 C 206.959286 76.029872 206.808784 76.064997 206.65593 76.100122 C 206.648875 76.102464 206.453693 76.146955 206.456045 76.15398 C 206.458396 76.161005 206.884035 76.163347 206.912254 76.16803 C 207.330838 76.235938 207.848188 76.519279 207.749421 77.020395 C 207.631842 77.626886 206.851113 78.106926 206.260863 77.903202 C 206.016297 77.818902 205.821115 77.640936 205.687074 77.420819 C 205.642393 77.345886 205.604768 77.263928 205.576549 77.18197 C 205.560088 77.137478 205.541275 76.996979 205.541275 77.043812 C 205.541275 77.753335 204.720569 78.568234 203.979817 78.308309 C 203.12854 78.008577 203.500092 76.811987 204.137374 76.500546 C 204.30904 76.416246 204.499519 76.37878 204.689998 76.353021 C 204.701756 76.35068 204.819336 76.324921 204.828742 76.338971 C 204.864016 76.39283 204.699404 76.353021 204.635911 76.35068 C 204.504222 76.345996 204.379588 76.315555 204.257305 76.273405 C 203.921027 76.15398 203.420137 75.856589 203.462466 75.439773 C 203.540069 74.636583 204.69235 74.563991 205.237919 74.847333 " stroke="#000000" stroke-width="0.65" stroke-opacity="1" stroke-miterlimit="1.5"/><path stroke-linecap="round" transform="matrix(1.661108, 0, 0, 1.668153, -284.539458, -78.509116)" fill="none" stroke-linejoin="round" d="M 202.126761 72.360487 C 201.915118 72.313654 201.849273 72.887361 201.853976 72.995078 C 201.884547 73.78656 202.695847 73.957501 203.11443 73.327594 C 203.40838 72.887361 203.297855 72.308971 202.702901 72.290237 C 202.547696 72.287896 202.392491 72.299604 202.241989 72.330046 C 202.234934 72.330046 202.122058 72.351121 202.122058 72.362829 C 202.122058 72.42137 202.115003 72.248087 202.103245 72.194229 C 202.067971 72.051388 202.0374 71.908546 202.013885 71.763363 C 201.957446 71.379331 201.93393 70.950807 202.112651 70.592532 C 202.192606 70.430958 202.350162 70.22255 202.557103 70.260016 C 202.735824 70.290458 202.841645 70.480132 202.905139 70.629999 C 203.079156 71.037448 203.093266 71.515147 203.076805 71.950696 C 203.072102 72.037338 202.999202 72.311312 203.036828 72.388587 C 203.050937 72.416687 203.065047 72.334729 203.08386 72.308971 C 203.107376 72.269162 203.135595 72.231696 203.166165 72.196571 C 203.286097 72.058413 203.431895 71.94133 203.594155 71.864055 C 204.005684 71.665014 204.746436 71.608814 204.918103 72.159104 C 204.995705 72.400296 204.85461 72.622753 204.66413 72.763253 C 204.318446 73.018494 203.805799 73.126211 203.391918 73.229244 C 203.370754 73.233927 203.434247 73.222219 203.455411 73.222219 C 203.507146 73.217536 203.558882 73.222219 203.610617 73.226902 C 203.758767 73.240952 203.899863 73.283102 204.033903 73.35101 C 204.41251 73.545368 204.713514 73.955159 204.534793 74.390708 C 204.259656 75.065107 203.286097 74.788791 202.832239 74.489058 C 202.731121 74.42115 202.58297 74.203375 202.474797 74.168251 C 202.465391 74.165909 202.481852 74.254892 202.481852 74.257234 C 202.49361 74.313434 202.500664 74.371975 202.505368 74.432858 C 202.521829 74.622533 202.505368 74.812208 202.427765 74.987832 C 202.22788 75.43509 201.691716 75.753556 201.200233 75.645839 C 200.424207 75.470215 200.28076 74.669366 200.572358 74.030092 C 200.680531 73.798268 200.835736 73.585177 201.023864 73.411894 C 201.042676 73.395502 201.376603 73.182411 201.376603 73.194119 C 201.376603 73.212852 201.259023 73.222219 201.249617 73.222219 C 201.082653 73.243294 200.913339 73.226902 200.748727 73.194119 C 200.254893 73.093428 199.554118 72.690662 199.826903 72.077146 C 200.174938 71.292689 201.310758 71.665014 201.856328 71.967088 " stroke="#000000" stroke-width="0.65" stroke-opacity="1" stroke-miterlimit="1.5"/><g clip-path="url(#71103e0383)"><path stroke-linecap="round" transform="matrix(1.661108, 0, 0, 1.668153, -284.539458, -78.509116)" fill="none" stroke-linejoin="round" d="M 206.719423 70.517599 C 206.578328 70.421591 206.291433 70.889923 206.260863 70.964857 C 206.021 71.536222 206.700611 72.070121 207.203852 71.718872 C 207.591865 71.444897 207.782344 70.679174 207.203852 70.510574 C 207.079217 70.475449 206.952231 70.470766 206.825245 70.480132 C 206.811135 70.480132 206.613602 70.519941 206.608898 70.512916 C 206.573624 70.379441 206.615953 70.173375 206.618305 70.0399 C 206.623008 69.604351 206.620656 68.798819 207.15682 68.644269 C 207.448417 68.562311 207.638896 68.869069 207.718851 69.100893 C 207.902275 69.634792 207.803508 70.08205 207.608326 70.571457 C 207.587161 70.625316 207.709444 70.515257 207.763531 70.496524 C 207.869353 70.454374 207.982229 70.426274 208.095106 70.409883 C 208.39611 70.367733 209.108642 70.372416 209.23798 70.740057 C 209.315583 70.948465 209.056907 71.149848 208.911108 71.243514 C 208.476064 71.526855 208.015151 71.515147 207.551887 71.672039 C 207.52602 71.679064 207.598919 71.695455 207.620084 71.711847 C 207.650654 71.735263 207.681225 71.761022 207.711796 71.78678 C 207.817617 71.873422 207.918736 71.96943 208.008097 72.074804 C 208.262069 72.365171 208.574831 72.88502 208.111567 73.142602 C 207.667115 73.390819 207.003966 73.243294 206.757049 72.779645 C 206.691204 72.655537 206.726478 72.369854 206.632414 72.273846 C 206.592437 72.234037 206.543054 72.344096 206.496022 72.374537 C 206.392552 72.447129 206.289082 72.508012 206.171502 72.552504 C 205.821115 72.683637 205.383718 72.540795 205.197942 72.208279 C 204.986299 71.826588 205.259084 71.524514 205.614174 71.409772 C 205.684722 71.384014 205.901069 71.367622 205.955155 71.313764 C 205.966913 71.302056 205.91753 71.311423 205.901069 71.309081 C 205.854037 71.304398 205.809357 71.295031 205.764676 71.285664 C 205.616526 71.250539 205.473079 71.196681 205.341389 71.121748 C 205.035682 70.950807 204.473651 70.491841 204.715866 70.084392 C 205.073308 69.484926 205.997484 69.9556 206.359629 70.285774 " stroke="#000000" stroke-width="0.65" stroke-opacity="1" stroke-miterlimit="1.5"/></g><path stroke-linecap="round" transform="matrix(1.661108, 0, 0, 1.668153, -284.539458, -78.509116)" fill="none" stroke-linejoin="round" d="M 179.299842 62.818214 C 179.304545 62.818214 179.335116 63.146046 179.337468 63.155413 C 179.3845 63.682287 179.386851 64.211503 179.386851 64.740718 C 179.382148 66.796698 179.299842 68.852677 179.205778 70.906315 C 178.963564 76.11183 178.958861 81.315004 178.909478 86.525202 " stroke="#000000" stroke-width="0.65" stroke-opacity="1" stroke-miterlimit="1.5"/><path stroke-linecap="round" transform="matrix(1.661108, 0, 0, 1.668153, -284.539458, -78.509116)" fill="none" stroke-linejoin="round" d="M 182.239334 64.750085 C 182.241686 64.747743 182.258147 64.972543 182.258147 64.986593 C 182.26285 65.141142 182.26285 65.295692 182.265202 65.450242 C 182.272256 66.000533 182.274608 66.548482 182.269905 67.098772 C 182.258147 68.733252 182.255795 70.365391 182.265202 71.999871 C 182.293421 76.683196 182.189951 81.345445 182.074723 86.026428 " stroke="#000000" stroke-width="0.65" stroke-opacity="1" stroke-miterlimit="1.5"/><path stroke-linecap="round" transform="matrix(1.661108, 0, 0, 1.668153, -284.539458, -78.509116)" fill="none" stroke-linejoin="round" d="M 179.219888 86.66336 C 179.226943 86.686777 179.645526 86.682094 179.666691 86.682094 C 180.228722 86.693802 180.786049 86.707852 181.34808 86.670385 C 181.573833 86.656335 181.801938 86.639944 182.030042 86.604819 C 182.154677 86.586086 182.498009 86.630577 182.406297 86.539252 " stroke="#000000" stroke-width="0.65" stroke-opacity="1" stroke-miterlimit="1.5"/><path stroke-linecap="round" transform="matrix(1.661108, 0, 0, 1.668153, -284.539458, -78.509116)" fill="none" stroke-linejoin="round" d="M 201.388361 58.422913 C 201.524753 58.429938 201.809296 58.837388 201.886898 58.924029 C 202.408952 59.483686 202.876919 60.078469 203.260229 60.741159 C 204.838148 63.448121 205.221458 66.738156 205.517759 69.805734 " stroke="#000000" stroke-width="0.65" stroke-opacity="1" stroke-miterlimit="1.5"/><path stroke-linecap="round" transform="matrix(1.661108, 0, 0, 1.668153, -284.539458, -78.509116)" fill="none" stroke-linejoin="round" d="M 200.887471 53.86838 C 201.886898 54.577904 202.851052 55.235911 203.685868 56.163209 C 206.023352 58.753088 207.116843 62.17894 207.394331 65.609475 C 207.471933 66.548482 207.387276 67.466413 207.387276 68.403078 " stroke="#000000" stroke-width="0.65" stroke-opacity="1" stroke-miterlimit="1.5"/><path stroke-linecap="round" transform="matrix(1.661108, 0, 0, 1.668153, -284.539458, -78.509116)" fill="none" stroke-linejoin="round" d="M 186.55686 53.702122 C 186.714417 53.463273 187.194142 53.322773 187.438708 53.243157 C 188.562769 52.877857 189.472836 53.14949 190.060734 54.196213 C 190.693313 55.329578 191.107194 56.584709 191.612786 57.778956 C 192.40057 59.645261 193.268308 61.640357 194.37826 63.340404 C 195.372984 64.860143 196.849785 66.190207 198.357157 67.19478 " stroke="#000000" stroke-width="0.65" stroke-opacity="1" stroke-miterlimit="1.5"/><path stroke-linecap="round" transform="matrix(1.661108, 0, 0, 1.668153, -284.539458, -78.509116)" fill="none" stroke-linejoin="round" d="M 186.411061 53.945655 C 186.331107 54.296905 186.43928 54.78397 186.505125 55.128195 C 186.744987 56.373959 187.469278 57.483907 187.95841 58.64303 C 188.506331 59.933286 189.054252 61.216517 189.816169 62.403739 C 191.469339 64.981909 193.682188 67.030864 196.069056 68.918244 C 196.896817 69.573909 197.762203 70.189766 198.662864 70.742399 C 199.137886 71.032765 199.73519 71.402747 200.304276 71.461289 " stroke="#000000" stroke-width="0.65" stroke-opacity="1" stroke-miterlimit="1.5"/><path stroke-linecap="round" transform="matrix(1.661108, 0, 0, 1.668153, -284.539458, -78.509116)" fill="none" stroke-linejoin="round" d="M 188.983705 52.908299 C 188.986056 52.908299 189.254138 52.767799 189.265896 52.763116 C 189.458726 52.685841 189.660963 52.634324 189.863201 52.594516 C 190.575733 52.451675 191.490503 52.322883 192.03137 52.915324 C 192.753309 53.711489 193.160135 54.828462 193.592828 55.790885 C 194.556981 57.926481 195.309491 60.115935 196.917981 61.876865 " stroke="#000000" stroke-width="0.65" stroke-opacity="1" stroke-miterlimit="1.5"/><g clip-path="url(#5cbc7b9d34)"><path stroke-linecap="round" transform="matrix(1.661108, 0, 0, 1.668153, -284.539458, -78.509116)" fill="none" stroke-linejoin="round" d="M 192.09016 52.400158 C 193.075477 52.130867 194.237165 52.2339 195.250701 52.112134 C 195.951476 52.027834 196.659306 51.887334 197.369487 51.927142 C 197.896244 51.957584 198.404188 52.10745 198.865101 52.362691 C 199.149644 52.517241 199.422428 52.692866 199.688158 52.880199 C 199.836309 52.985574 199.984459 53.09329 200.123203 53.210373 C 200.776946 53.770031 200.696992 53.933947 200.581764 54.71372 C 200.555897 54.894028 200.532381 55.076678 200.513568 55.256986 C 200.478294 55.61526 200.464184 55.973535 200.454778 56.331809 C 200.435965 57.053041 200.44302 57.771931 200.504161 58.493163 C 200.741672 61.282083 201.962149 64.731352 204.461893 66.26514 " stroke="#000000" stroke-width="0.65" stroke-opacity="1" stroke-miterlimit="1.5"/></g><path stroke-linecap="round" transform="matrix(1.661108, 0, 0, 1.668153, -284.539458, -78.509116)" fill="none" stroke-linejoin="round" d="M 197.924463 55.58716 C 197.77161 55.893918 197.893893 56.467625 197.922112 56.779067 C 198.013824 57.720415 198.197248 58.650055 198.411243 59.567986 C 198.973274 61.979898 199.815145 64.171694 201.139092 66.26514 C 202.020939 67.656088 202.95217 68.847994 204.35372 69.723776 " stroke="#000000" stroke-width="0.65" stroke-opacity="1" stroke-miterlimit="1.5"/><path stroke-linecap="round" transform="matrix(1.661108, 0, 0, 1.668153, -284.539458, -78.509116)" fill="none" stroke-linejoin="round" d="M 204.755843 78.451151 C 204.645318 79.331616 204.682943 80.235497 204.657076 81.130012 C 204.621802 82.293819 204.513629 83.455283 204.466597 84.619089 C 204.443081 85.15533 204.443081 85.693912 204.478355 86.230153 C 204.480706 86.258253 204.476003 86.646969 204.508925 86.66336 C 204.661779 86.740635 205.078011 86.651652 205.240271 86.646969 C 205.825818 86.632919 206.411365 86.60716 206.999263 86.579061 C 207.055701 86.574377 207.789398 86.595452 207.815266 86.543936 C 207.890517 86.394069 207.77764 85.953837 207.765882 85.799287 C 207.718851 85.12723 207.667115 84.455173 207.641248 83.783116 C 207.563645 81.78802 207.657709 79.785898 207.657709 77.793144 " stroke="#000000" stroke-width="0.65" stroke-opacity="1" stroke-miterlimit="1.5"/><path stroke-linecap="round" transform="matrix(1.661108, 0, 0, 1.668153, -284.539458, -78.509116)" fill="none" stroke-linejoin="round" d="M 184.043006 83.443575 C 186.665033 83.740966 189.327037 83.656666 191.95847 83.724574 C 194.890908 83.801849 197.828048 83.998549 200.760485 83.846341 " stroke="#000000" stroke-width="0.65" stroke-opacity="1" stroke-miterlimit="1.5"/><path stroke-linecap="round" transform="matrix(1.661108, 0, 0, 1.668153, -284.539458, -78.509116)" fill="none" stroke-linejoin="round" d="M 187.965465 85.534679 C 189.750324 85.668154 191.615138 85.433988 193.397646 85.349688 C 195.796271 85.234946 198.1996 85.19748 200.598225 85.089763 " stroke="#000000" stroke-width="0.65" stroke-opacity="1" stroke-miterlimit="1.5"/><g clip-path="url(#f2056793f9)"><path stroke-linecap="round" transform="matrix(1.661108, 0, 0, 1.668153, -284.539458, -78.509116)" fill="none" stroke-linejoin="round" d="M 189.616283 87.141059 C 189.663315 87.094226 190.114821 87.155109 190.168908 87.155109 C 190.834409 87.138718 191.49991 87.094226 192.165411 87.054418 C 194.992026 86.885818 197.818642 86.672727 200.647609 86.534569 " stroke="#000000" stroke-width="0.65" stroke-opacity="1" stroke-miterlimit="1.5"/></g></svg>