<svg xmlns="http://www.w3.org/2000/svg" xmlns:xlink="http://www.w3.org/1999/xlink" width="100" zoomAndPan="magnify" viewBox="0 0 75 74.999997" height="100" preserveAspectRatio="xMidYMid meet" version="1.0"><defs><clipPath id="316d8dbbd5"><path d="M 28 9.039062 L 45 9.039062 L 45 30 L 28 30 Z M 28 9.039062 " clip-rule="nonzero"/></clipPath><clipPath id="18233c1f71"><path d="M 23 45 L 49 45 L 49 66.039062 L 23 66.039062 Z M 23 45 " clip-rule="nonzero"/></clipPath><clipPath id="e4ac90cd31"><path d="M 59 46 L 64.355469 46 L 64.355469 53 L 59 53 Z M 59 46 " clip-rule="nonzero"/></clipPath><clipPath id="9aa99a3531"><path d="M 56 9.039062 L 59 9.039062 L 59 14 L 56 14 Z M 56 9.039062 " clip-rule="nonzero"/></clipPath><clipPath id="938eb270fc"><path d="M 14 62 L 17 62 L 17 66.039062 L 14 66.039062 Z M 14 62 " clip-rule="nonzero"/></clipPath><clipPath id="daac65a8e5"><path d="M 10.355469 58 L 14 58 L 14 62 L 10.355469 62 Z M 10.355469 58 " clip-rule="nonzero"/></clipPath></defs><path fill="#000000" d="M 40.351562 17.929688 L 42.351562 17.929688 L 42.351562 22.75 L 40.351562 22.75 Z M 40.351562 17.929688 " fill-opacity="1" fill-rule="nonzero"/><g clip-path="url(#316d8dbbd5)"><path fill="#000000" d="M 35.351562 29.796875 C 31.492188 29.796875 28.351562 26.632812 28.351562 22.75 L 28.351562 17.714844 C 28.351562 14.382812 31.042969 11.675781 34.351562 11.675781 L 37.351562 11.675781 C 39.90625 11.675781 41.628906 9.972656 41.644531 9.957031 L 42.550781 9.042969 L 43.207031 10.148438 C 43.328125 10.347656 44.351562 12.113281 44.351562 13.6875 C 44.351562 16.472656 42.78125 19.726562 38.351562 19.726562 L 38.351562 17.714844 C 41.960938 17.714844 42.351562 14.898438 42.351562 13.6875 C 42.351562 13.246094 42.1875 12.699219 41.996094 12.222656 C 41.007812 12.882812 39.386719 13.6875 37.351562 13.6875 L 34.351562 13.6875 C 32.144531 13.6875 30.351562 15.492188 30.351562 17.714844 L 30.351562 22.75 C 30.351562 25.523438 32.59375 27.78125 35.351562 27.78125 C 38.109375 27.78125 40.351562 25.523438 40.351562 22.75 L 40.351562 21.742188 L 42.351562 21.742188 L 42.351562 22.75 C 42.351562 26.632812 39.210938 29.796875 35.351562 29.796875 Z M 35.351562 29.796875 " fill-opacity="1" fill-rule="nonzero"/></g><path fill="#000000" d="M 29.195312 49.097656 L 28.167969 47.371094 C 28.828125 46.972656 29.539062 46.652344 30.289062 46.410156 C 31.765625 45.941406 33.15625 44.980469 34.308594 43.640625 C 35.824219 41.878906 38.027344 40.871094 40.347656 40.867188 L 40.355469 40.867188 C 41.628906 40.867188 42.894531 41.179688 44.023438 41.769531 L 43.101562 43.554688 C 42.246094 43.109375 41.320312 42.882812 40.355469 42.882812 L 40.351562 42.882812 C 38.609375 42.882812 36.957031 43.640625 35.820312 44.960938 C 34.425781 46.582031 32.722656 47.746094 30.894531 48.332031 C 30.292969 48.523438 29.722656 48.78125 29.195312 49.097656 Z M 29.195312 49.097656 " fill-opacity="1" fill-rule="nonzero"/><g clip-path="url(#18233c1f71)"><path fill="#000000" d="M 33.351562 66.035156 L 33.347656 66.035156 C 27.835938 66.035156 23.351562 61.519531 23.351562 55.96875 C 23.351562 54.449219 23.730469 52.84375 24.417969 51.4375 L 26.210938 52.332031 C 25.65625 53.460938 25.351562 54.753906 25.351562 55.96875 C 25.351562 60.410156 28.9375 64.023438 33.347656 64.023438 L 33.351562 64.023438 C 36.839844 64.023438 39.890625 61.746094 40.949219 58.359375 C 41.542969 56.449219 42.636719 54.8125 44.105469 53.632812 C 45.53125 52.484375 46.351562 50.765625 46.351562 48.921875 C 46.351562 47.964844 46.117188 47.007812 45.675781 46.15625 L 47.453125 45.226562 C 48.039062 46.363281 48.351562 47.644531 48.351562 48.921875 C 48.351562 51.382812 47.257812 53.671875 45.355469 55.203125 C 44.210938 56.121094 43.328125 57.457031 42.855469 58.960938 C 41.539062 63.195312 37.71875 66.035156 33.351562 66.035156 Z M 33.351562 66.035156 " fill-opacity="1" fill-rule="nonzero"/></g><path fill="#000000" d="M 36.125 48.105469 L 37.539062 46.679688 L 42.621094 51.796875 L 41.207031 53.222656 Z M 36.125 48.105469 " fill-opacity="1" fill-rule="nonzero"/><path fill="#000000" d="M 55.121094 26.960938 L 56.535156 25.535156 L 58.558594 27.574219 L 57.144531 28.996094 Z M 55.121094 26.960938 " fill-opacity="1" fill-rule="nonzero"/><path fill="#000000" d="M 52.113281 29.96875 L 53.515625 28.535156 L 55.570312 30.570312 L 54.167969 32.007812 Z M 52.113281 29.96875 " fill-opacity="1" fill-rule="nonzero"/><path fill="#000000" d="M 34.140625 59.988281 L 34.011719 57.980469 C 35.324219 57.894531 36.351562 56.792969 36.351562 55.46875 C 36.351562 54.144531 35.230469 52.949219 33.851562 52.949219 C 33.238281 52.949219 32.644531 53.179688 32.1875 53.589844 L 30.855469 52.085938 C 31.679688 51.34375 32.746094 50.9375 33.851562 50.9375 C 36.332031 50.9375 38.351562 52.96875 38.351562 55.464844 C 38.351562 57.964844 36.5 59.835938 34.140625 59.988281 Z M 34.140625 59.988281 " fill-opacity="1" fill-rule="nonzero"/><path fill="#000000" d="M 18.351562 30.800781 C 16.144531 30.800781 14.351562 28.996094 14.351562 26.773438 C 14.351562 24.554688 16.144531 22.75 18.351562 22.75 C 20.554688 22.75 22.351562 24.554688 22.351562 26.773438 C 22.351562 28.996094 20.554688 30.800781 18.351562 30.800781 Z M 18.351562 24.761719 C 17.246094 24.761719 16.351562 25.664062 16.351562 26.773438 C 16.351562 27.886719 17.246094 28.789062 18.351562 28.789062 C 19.453125 28.789062 20.351562 27.886719 20.351562 26.773438 C 20.351562 25.664062 19.453125 24.761719 18.351562 24.761719 Z M 18.351562 24.761719 " fill-opacity="1" fill-rule="nonzero"/><path fill="#000000" d="M 20.351562 16.707031 L 22.351562 16.707031 L 22.351562 26.773438 L 20.351562 26.773438 Z M 20.351562 16.707031 " fill-opacity="1" fill-rule="nonzero"/><path fill="#000000" d="M 25.351562 22.75 L 23.351562 22.75 C 23.351562 21.65625 22.84375 21.144531 22.144531 20.441406 C 21.34375 19.636719 20.351562 18.632812 20.351562 16.707031 L 22.351562 16.707031 C 22.351562 17.800781 22.855469 18.3125 23.558594 19.015625 C 24.355469 19.820312 25.351562 20.820312 25.351562 22.75 Z M 25.351562 22.75 " fill-opacity="1" fill-rule="nonzero"/><path fill="#000000" d="M 57.351562 61.003906 C 55.148438 61.003906 53.351562 59.199219 53.351562 56.976562 C 53.351562 54.757812 55.148438 52.949219 57.351562 52.949219 C 59.558594 52.949219 61.351562 54.757812 61.351562 56.976562 C 61.351562 59.199219 59.558594 61.003906 57.351562 61.003906 Z M 57.351562 54.964844 C 56.25 54.964844 55.351562 55.867188 55.351562 56.976562 C 55.351562 58.085938 56.25 58.992188 57.351562 58.992188 C 58.457031 58.992188 59.351562 58.085938 59.351562 56.976562 C 59.351562 55.867188 58.457031 54.964844 57.351562 54.964844 Z M 57.351562 54.964844 " fill-opacity="1" fill-rule="nonzero"/><path fill="#000000" d="M 59.351562 46.910156 L 61.351562 46.910156 L 61.351562 56.976562 L 59.351562 56.976562 Z M 59.351562 46.910156 " fill-opacity="1" fill-rule="nonzero"/><g clip-path="url(#e4ac90cd31)"><path fill="#000000" d="M 64.351562 52.949219 L 62.351562 52.949219 C 62.351562 51.855469 61.847656 51.347656 61.144531 50.640625 C 60.347656 49.835938 59.351562 48.835938 59.351562 46.910156 L 61.351562 46.910156 C 61.351562 48.003906 61.859375 48.511719 62.558594 49.21875 C 63.359375 50.023438 64.351562 51.023438 64.351562 52.949219 Z M 64.351562 52.949219 " fill-opacity="1" fill-rule="nonzero"/></g><path fill="#000000" d="M 32.351562 61.003906 C 31.402344 61.003906 30.53125 60.5625 29.957031 59.792969 L 23.042969 50.511719 C 22.589844 49.890625 22.351562 49.167969 22.351562 48.421875 C 22.351562 48.328125 22.359375 48.234375 22.375 48.140625 L 23.398438 38.3125 C 23.667969 35.726562 25.328125 33.523438 27.734375 32.566406 L 31.089844 31.230469 C 31.25 31.167969 31.351562 31.015625 31.351562 30.84375 L 31.351562 27.980469 L 33.351562 27.980469 L 33.351562 30.84375 C 33.351562 31.84375 32.753906 32.730469 31.828125 33.101562 L 28.46875 34.4375 C 26.761719 35.121094 25.578125 36.683594 25.386719 38.523438 L 24.355469 48.421875 C 24.351562 48.820312 24.515625 49.125 24.652344 49.3125 L 31.558594 58.585938 C 31.75 58.84375 32.039062 58.992188 32.351562 58.992188 C 32.90625 58.992188 33.351562 58.542969 33.351562 57.984375 C 33.351562 57.800781 33.300781 57.625 33.199219 57.460938 L 27.382812 48.039062 L 28.445312 40.929688 L 30.425781 41.230469 L 29.46875 47.605469 L 34.898438 56.394531 C 35.195312 56.878906 35.351562 57.429688 35.351562 57.988281 C 35.351562 59.652344 34.007812 61.007812 32.351562 61.007812 Z M 32.351562 61.003906 " fill-opacity="1" fill-rule="nonzero"/><path fill="#000000" d="M 53.851562 44.894531 L 48.351562 44.894531 L 48.351562 42.882812 L 53.851562 42.882812 C 54.277344 42.882812 54.671875 42.703125 54.964844 42.375 L 59.84375 36.757812 L 61.351562 38.085938 L 56.464844 43.707031 C 55.789062 44.464844 54.839844 44.894531 53.851562 44.894531 Z M 53.851562 44.894531 " fill-opacity="1" fill-rule="nonzero"/><path fill="#000000" d="M 48.644531 37.554688 L 46.875 35.769531 C 45.589844 34.476562 43.890625 33.621094 42.09375 33.363281 L 39.277344 32.957031 C 38.179688 32.800781 37.351562 31.839844 37.351562 30.722656 L 37.351562 27.980469 L 39.351562 27.980469 L 39.351562 30.722656 C 39.351562 30.847656 39.441406 30.949219 39.558594 30.964844 L 42.375 31.371094 C 44.597656 31.691406 46.699219 32.75 48.289062 34.347656 L 50.058594 36.128906 Z M 48.644531 37.554688 " fill-opacity="1" fill-rule="nonzero"/><path fill="#000000" d="M 35.351562 33.824219 C 33.976562 33.824219 32.484375 33.449219 31.355469 32.820312 L 32.320312 31.058594 C 32.976562 31.417969 34.113281 31.808594 35.351562 31.808594 C 36.589844 31.808594 37.699219 31.511719 38.488281 30.996094 L 39.582031 32.679688 C 38.464844 33.414062 36.960938 33.820312 35.351562 33.820312 Z M 35.351562 33.824219 " fill-opacity="1" fill-rule="nonzero"/><path fill="#000000" d="M 41.351562 37.847656 L 43.351562 37.847656 L 43.351562 42.171875 L 41.351562 42.171875 Z M 41.351562 37.847656 " fill-opacity="1" fill-rule="nonzero"/><g clip-path="url(#9aa99a3531)"><path fill="#000000" d="M 56.351562 9.660156 L 58.351562 9.660156 L 58.351562 13.6875 L 56.351562 13.6875 Z M 56.351562 9.660156 " fill-opacity="1" fill-rule="nonzero"/></g><path fill="#000000" d="M 56.351562 17.714844 L 58.351562 17.714844 L 58.351562 21.742188 L 56.351562 21.742188 Z M 56.351562 17.714844 " fill-opacity="1" fill-rule="nonzero"/><path fill="#000000" d="M 59.351562 14.695312 L 62.351562 14.695312 L 62.351562 16.707031 L 59.351562 16.707031 Z M 59.351562 14.695312 " fill-opacity="1" fill-rule="nonzero"/><path fill="#000000" d="M 52.351562 14.695312 L 55.351562 14.695312 L 55.351562 16.707031 L 52.351562 16.707031 Z M 52.351562 14.695312 " fill-opacity="1" fill-rule="nonzero"/><path fill="#000000" d="M 14.351562 53.957031 L 16.351562 53.957031 L 16.351562 57.984375 L 14.351562 57.984375 Z M 14.351562 53.957031 " fill-opacity="1" fill-rule="nonzero"/><g clip-path="url(#938eb270fc)"><path fill="#000000" d="M 14.351562 62.011719 L 16.351562 62.011719 L 16.351562 66.035156 L 14.351562 66.035156 Z M 14.351562 62.011719 " fill-opacity="1" fill-rule="nonzero"/></g><path fill="#000000" d="M 17.351562 58.988281 L 20.351562 58.988281 L 20.351562 61.003906 L 17.351562 61.003906 Z M 17.351562 58.988281 " fill-opacity="1" fill-rule="nonzero"/><g clip-path="url(#daac65a8e5)"><path fill="#000000" d="M 10.351562 58.988281 L 13.351562 58.988281 L 13.351562 61.003906 L 10.351562 61.003906 Z M 10.351562 58.988281 " fill-opacity="1" fill-rule="nonzero"/></g><path fill="#000000" d="M 40.144531 50.730469 L 56.808594 33.953125 L 58.222656 35.378906 L 41.558594 52.152344 Z M 40.144531 50.730469 " fill-opacity="1" fill-rule="nonzero"/><path fill="#000000" d="M 38.558594 49.132812 L 37.144531 47.707031 L 58.277344 26.433594 C 59.132812 25.574219 60.621094 25.574219 61.472656 26.433594 L 62.691406 27.660156 C 63.117188 28.089844 63.351562 28.660156 63.351562 29.269531 C 63.351562 29.878906 63.117188 30.449219 62.691406 30.878906 L 61.058594 32.519531 L 59.644531 31.09375 L 61.277344 29.453125 C 61.339844 29.390625 61.351562 29.316406 61.351562 29.269531 C 61.351562 29.21875 61.339844 29.148438 61.277344 29.082031 L 60.058594 27.855469 C 59.929688 27.726562 59.816406 27.730469 59.691406 27.855469 L 38.558594 49.128906 Z M 38.558594 49.132812 " fill-opacity="1" fill-rule="nonzero"/><path fill="#000000" d="M 59.351562 38.855469 C 57.699219 38.855469 56.351562 37.5 56.351562 35.835938 C 56.351562 33.25 58.296875 30.800781 60.351562 30.800781 C 62.007812 30.800781 63.351562 32.15625 63.351562 33.824219 C 63.351562 36.152344 61.605469 38.855469 59.351562 38.855469 Z M 60.351562 32.816406 C 59.5 32.816406 58.351562 34.308594 58.351562 35.835938 C 58.351562 36.394531 58.800781 36.84375 59.355469 36.84375 C 60.289062 36.84375 61.355469 35.234375 61.355469 33.824219 C 61.355469 33.265625 60.90625 32.816406 60.351562 32.816406 Z M 60.351562 32.816406 " fill-opacity="1" fill-rule="nonzero"/></svg>