<svg xmlns="http://www.w3.org/2000/svg" xmlns:xlink="http://www.w3.org/1999/xlink" width="100" zoomAndPan="magnify" viewBox="0 0 75 74.999997" height="100" preserveAspectRatio="xMidYMid meet" version="1.0"><defs><clipPath id="66d8fbac49"><path d="M 7.832031 9.167969 L 67.082031 9.167969 L 67.082031 66.167969 L 7.832031 66.167969 Z M 7.832031 9.167969 " clip-rule="nonzero"/></clipPath></defs><g clip-path="url(#66d8fbac49)"><path fill="#000000" d="M 57.214844 37.164062 C 55.957031 37.164062 54.929688 36.132812 54.929688 34.863281 C 54.929688 33.59375 55.957031 32.558594 57.214844 32.558594 C 58.476562 32.558594 59.503906 33.59375 59.503906 34.863281 C 59.503906 36.132812 58.476562 37.164062 57.214844 37.164062 Z M 57.214844 30.949219 C 55.074219 30.949219 53.332031 32.707031 53.332031 34.863281 C 53.332031 37.019531 55.074219 38.773438 57.214844 38.773438 C 59.355469 38.773438 61.097656 37.019531 61.097656 34.863281 C 61.097656 32.707031 59.355469 30.949219 57.214844 30.949219 Z M 61.511719 38.386719 L 61.988281 38.386719 C 63.917969 38.386719 65.484375 36.804688 65.484375 34.863281 C 65.484375 32.917969 63.917969 31.339844 61.988281 31.339844 L 61.511719 31.339844 C 61.070312 31.339844 60.714844 30.976562 60.714844 30.535156 L 60.714844 30.054688 C 60.714844 28.109375 59.144531 26.53125 57.214844 26.53125 C 55.289062 26.53125 53.71875 28.109375 53.71875 30.054688 L 53.71875 30.535156 C 53.71875 30.976562 53.359375 31.339844 52.921875 31.339844 L 52.441406 31.339844 C 50.515625 31.339844 48.945312 32.917969 48.945312 34.863281 C 48.945312 36.804688 50.515625 38.386719 52.441406 38.386719 L 52.921875 38.386719 C 53.359375 38.386719 53.71875 38.746094 53.71875 39.191406 L 53.71875 39.671875 C 53.71875 41.613281 55.289062 43.195312 57.214844 43.195312 C 59.144531 43.195312 60.714844 41.613281 60.714844 39.671875 L 60.714844 39.191406 C 60.714844 38.746094 61.070312 38.386719 61.511719 38.386719 Z M 60.867188 56.925781 C 59.195312 56.925781 57.832031 55.554688 57.832031 53.867188 L 57.832031 44.761719 C 58.757812 44.648438 59.609375 44.285156 60.3125 43.742188 L 62.140625 56.925781 Z M 55.765625 60.6875 L 55.765625 53.347656 C 55.921875 53.386719 56.078125 53.417969 56.238281 53.449219 L 56.238281 53.867188 C 56.238281 55.078125 56.699219 56.183594 57.453125 57.015625 L 57.453125 60.6875 Z M 63.203125 64.546875 L 11.714844 64.546875 L 11.714844 62.296875 L 63.203125 62.296875 Z M 17.460938 57.015625 C 18.214844 56.183594 18.675781 55.078125 18.675781 53.867188 L 18.675781 53.449219 C 18.835938 53.417969 18.992188 53.386719 19.148438 53.347656 L 19.148438 60.6875 L 17.460938 60.6875 Z M 12.777344 56.925781 L 14.601562 43.742188 C 15.304688 44.285156 16.15625 44.648438 17.082031 44.761719 L 17.082031 53.867188 C 17.082031 55.554688 15.71875 56.925781 14.046875 56.925781 Z M 9.429688 34.863281 C 9.429688 32.917969 10.996094 31.339844 12.925781 31.339844 L 13.402344 31.339844 C 13.84375 31.339844 14.199219 30.976562 14.199219 30.535156 L 14.199219 30.054688 C 14.199219 28.109375 15.769531 26.53125 17.699219 26.53125 C 19.628906 26.53125 21.195312 28.109375 21.195312 30.054688 L 21.195312 30.535156 C 21.195312 30.976562 21.554688 31.339844 21.996094 31.339844 L 22.472656 31.339844 C 24.398438 31.339844 25.96875 32.917969 25.96875 34.863281 C 25.96875 36.804688 24.398438 38.386719 22.472656 38.386719 L 21.996094 38.386719 C 21.554688 38.386719 21.195312 38.746094 21.195312 39.191406 L 21.195312 39.671875 C 21.195312 41.613281 19.628906 43.195312 17.699219 43.195312 C 15.769531 43.195312 14.199219 41.613281 14.199219 39.671875 L 14.199219 39.191406 C 14.199219 38.746094 13.84375 38.386719 13.402344 38.386719 L 12.925781 38.386719 C 10.996094 38.386719 9.429688 36.804688 9.429688 34.863281 Z M 24.972656 21.382812 C 23.347656 22.699219 21.949219 24.242188 20.796875 25.984375 C 21.261719 26.34375 21.660156 26.78125 21.980469 27.277344 C 23.101562 25.492188 24.523438 23.902344 26.175781 22.59375 Z M 23.191406 15.589844 C 23.191406 14.480469 23.617188 13.4375 24.390625 12.660156 C 27.015625 10.015625 29.8125 12.261719 30.894531 13.351562 C 31.203125 13.664062 31.710938 13.664062 32.019531 13.351562 C 32.734375 12.632812 33.949219 11.636719 35.347656 11.441406 C 34.214844 12.554688 33.597656 13.988281 33.597656 15.589844 C 33.597656 17.132812 34.1875 18.574219 35.261719 19.65625 L 36.332031 20.734375 L 31.457031 25.640625 L 24.390625 18.523438 C 23.617188 17.742188 23.191406 16.703125 23.191406 15.589844 Z M 42.894531 13.351562 C 41.214844 11.664062 38.671875 10.363281 36.390625 12.660156 C 34.789062 14.269531 34.792969 16.914062 36.390625 18.523438 L 43.457031 25.640625 L 50.527344 18.523438 C 52.125 16.910156 52.125 14.269531 50.527344 12.660156 C 47.898438 10.015625 45.101562 12.261719 44.023438 13.351562 C 43.710938 13.664062 43.203125 13.664062 42.894531 13.351562 Z M 48.769531 31.3125 C 47.574219 29.21875 46.945312 26.859375 46.929688 24.417969 L 47.601562 23.738281 C 49.496094 25.207031 51.070312 27.074219 52.195312 29.1875 C 52.167969 29.367188 52.144531 29.550781 52.132812 29.742188 C 50.8125 29.820312 49.628906 30.410156 48.769531 31.3125 Z M 51.683594 45.171875 C 42.871094 41.222656 37.65625 32.246094 38.308594 22.726562 L 42.625 27.074219 C 43.085938 27.539062 43.828125 27.539062 44.289062 27.074219 L 45.414062 25.941406 C 45.660156 28.378906 46.46875 30.710938 47.789062 32.78125 C 46.351562 36.050781 48.597656 39.769531 52.132812 39.984375 C 52.164062 40.515625 52.277344 41.023438 52.457031 41.5 Z M 27.5625 34.863281 C 27.5625 37.585938 25.445312 39.820312 22.78125 39.984375 C 22.75 40.515625 22.636719 41.023438 22.457031 41.5 L 23.230469 45.171875 C 31.925781 41.257812 37.246094 32.140625 36.601562 22.730469 L 32.289062 27.074219 C 31.828125 27.539062 31.085938 27.539062 30.625 27.074219 L 29.5 25.941406 C 29.253906 28.378906 28.445312 30.710938 27.125 32.78125 C 27.40625 33.417969 27.5625 34.121094 27.5625 34.863281 Z M 27.984375 24.417969 L 27.3125 23.738281 C 25.417969 25.207031 23.84375 27.074219 22.71875 29.1875 C 22.75 29.367188 22.773438 29.550781 22.78125 29.742188 C 24.101562 29.820312 25.285156 30.410156 26.148438 31.3125 C 27.339844 29.21875 27.96875 26.859375 27.984375 24.417969 Z M 18.675781 44.707031 C 19.652344 44.515625 20.527344 44.039062 21.21875 43.371094 L 22.554688 49.714844 C 21.339844 50.8125 20.0625 51.503906 18.675781 51.808594 Z M 20.742188 60.6875 L 20.742188 52.808594 C 21.886719 52.304688 22.972656 51.554688 23.984375 50.570312 C 24.183594 50.378906 24.265625 50.097656 24.210938 49.824219 L 23.566406 46.773438 C 30.417969 43.8125 35.550781 37.816406 37.449219 30.558594 C 39.351562 37.789062 44.496094 43.808594 51.347656 46.773438 L 50.703125 49.824219 C 50.648438 50.097656 50.734375 50.378906 50.929688 50.570312 C 51.945312 51.554688 53.027344 52.304688 54.171875 52.808594 L 54.171875 60.6875 Z M 56.238281 51.808594 L 56.238281 44.707031 C 55.261719 44.515625 54.386719 44.039062 53.695312 43.375 L 52.359375 49.714844 C 53.574219 50.8125 54.855469 51.503906 56.238281 51.808594 Z M 54.117188 25.984375 C 53.65625 26.34375 53.253906 26.78125 52.9375 27.277344 C 51.8125 25.492188 50.390625 23.902344 48.738281 22.59375 L 49.941406 21.382812 C 51.566406 22.699219 52.964844 24.242188 54.117188 25.984375 Z M 67.082031 34.863281 C 67.082031 32.136719 64.960938 29.902344 62.300781 29.742188 C 62.097656 26.339844 58.699219 24.085938 55.523438 25.214844 C 54.296875 23.332031 52.808594 21.664062 51.074219 20.242188 L 51.652344 19.65625 C 52.726562 18.574219 53.320312 17.132812 53.320312 15.589844 C 53.320312 14.050781 52.726562 12.605469 51.652344 11.523438 C 49.320312 9.175781 46.230469 9.257812 43.457031 11.683594 C 41.492188 9.964844 39.371094 9.425781 37.472656 10.089844 C 35.558594 9.402344 33.410156 9.976562 31.457031 11.683594 C 28.683594 9.257812 25.59375 9.175781 23.261719 11.523438 C 21.039062 13.765625 21.039062 17.417969 23.261719 19.65625 L 23.839844 20.242188 C 22.105469 21.664062 20.617188 23.332031 19.390625 25.214844 C 16.21875 24.085938 12.820312 26.339844 12.613281 29.742188 C 9.953125 29.902344 7.832031 32.136719 7.832031 34.863281 C 7.832031 37.585938 9.953125 39.820312 12.613281 39.984375 C 12.660156 40.746094 12.875 41.46875 13.21875 42.105469 L 11.070312 57.617188 C 11 58.101562 11.378906 58.53125 11.859375 58.53125 L 14.046875 58.53125 C 14.691406 58.53125 15.308594 58.394531 15.867188 58.15625 L 15.867188 60.6875 L 11.464844 60.6875 C 10.722656 60.6875 10.121094 61.296875 10.121094 62.042969 L 10.121094 64.800781 C 10.121094 65.546875 10.722656 66.15625 11.464844 66.15625 L 63.449219 66.15625 C 64.1875 66.15625 64.792969 65.546875 64.792969 64.800781 L 64.792969 62.042969 C 64.792969 61.296875 64.1875 60.6875 63.449219 60.6875 L 59.050781 60.6875 L 59.050781 58.15625 C 59.609375 58.394531 60.222656 58.53125 60.867188 58.53125 L 63.058594 58.53125 C 63.53125 58.53125 63.914062 58.105469 63.84375 57.617188 L 61.699219 42.105469 C 62.039062 41.46875 62.25 40.746094 62.300781 39.984375 C 64.960938 39.820312 67.082031 37.585938 67.082031 34.863281 Z M 17.699219 32.558594 C 16.4375 32.558594 15.410156 33.59375 15.410156 34.863281 C 15.410156 36.132812 16.4375 37.164062 17.699219 37.164062 C 18.960938 37.164062 19.984375 36.132812 19.984375 34.863281 C 19.984375 33.59375 18.960938 32.558594 17.699219 32.558594 Z M 17.699219 38.773438 C 19.839844 38.773438 21.582031 37.019531 21.582031 34.863281 C 21.582031 32.707031 19.839844 30.949219 17.699219 30.949219 C 15.558594 30.949219 13.816406 32.707031 13.816406 34.863281 C 13.816406 37.019531 15.558594 38.773438 17.699219 38.773438 Z M 17.699219 38.773438 " fill-opacity="1" fill-rule="evenodd"/></g></svg>