<svg xmlns="http://www.w3.org/2000/svg" xmlns:xlink="http://www.w3.org/1999/xlink" width="100" zoomAndPan="magnify" viewBox="0 0 75 74.999997" height="100" preserveAspectRatio="xMidYMid meet" version="1.0"><defs><clipPath id="b54dcee662"><path d="M 9.136719 34 L 66 34 L 66 65.597656 L 9.136719 65.597656 Z M 9.136719 34 " clip-rule="nonzero"/></clipPath><clipPath id="9e934c253a"><path d="M 44 9.347656 L 66 9.347656 L 66 34 L 44 34 Z M 44 9.347656 " clip-rule="nonzero"/></clipPath><clipPath id="d4ad51cb27"><path d="M 34 9.347656 L 49 9.347656 L 49 33 L 34 33 Z M 34 9.347656 " clip-rule="nonzero"/></clipPath><clipPath id="3a94adaa5a"><path d="M 21 9.347656 L 40 9.347656 L 40 34 L 21 34 Z M 21 9.347656 " clip-rule="nonzero"/></clipPath></defs><g clip-path="url(#b54dcee662)"><path fill="#000000" d="M 65.765625 60.597656 L 62.507812 38.886719 C 62.449219 38.339844 62.296875 37.820312 62.050781 37.328125 C 61.800781 36.835938 61.46875 36.40625 61.058594 36.035156 C 60.648438 35.667969 60.1875 35.382812 59.671875 35.183594 C 59.15625 34.984375 58.621094 34.886719 58.066406 34.882812 L 17.03125 34.882812 C 16.480469 34.882812 15.949219 34.984375 15.433594 35.179688 C 14.917969 35.375 14.457031 35.65625 14.046875 36.023438 C 13.640625 36.386719 13.308594 36.816406 13.058594 37.300781 C 12.808594 37.789062 12.652344 38.304688 12.59375 38.851562 L 9.328125 60.636719 C 9.261719 61.269531 9.324219 61.894531 9.523438 62.5 C 9.71875 63.109375 10.03125 63.652344 10.460938 64.128906 C 10.882812 64.59375 11.382812 64.957031 11.957031 65.210938 C 12.535156 65.46875 13.136719 65.597656 13.769531 65.597656 L 61.328125 65.597656 C 61.957031 65.597656 62.5625 65.46875 63.136719 65.210938 C 63.714844 64.957031 64.214844 64.59375 64.632812 64.128906 C 65.066406 63.648438 65.382812 63.097656 65.578125 62.484375 C 65.773438 61.867188 65.835938 61.238281 65.765625 60.597656 Z M 29.605469 36.640625 L 45.492188 36.640625 L 45.492188 43.660156 C 45.492188 44.175781 45.441406 44.691406 45.339844 45.199219 C 45.234375 45.707031 45.085938 46.199219 44.886719 46.679688 C 44.683594 47.15625 44.441406 47.613281 44.148438 48.042969 C 43.859375 48.472656 43.53125 48.871094 43.160156 49.238281 C 42.792969 49.605469 42.390625 49.929688 41.957031 50.21875 C 41.523438 50.507812 41.066406 50.75 40.585938 50.949219 C 40.105469 51.144531 39.609375 51.296875 39.097656 51.394531 C 38.585938 51.496094 38.070312 51.546875 37.546875 51.546875 C 37.027344 51.546875 36.511719 51.496094 36 51.394531 C 35.488281 51.296875 34.992188 51.144531 34.511719 50.949219 C 34.027344 50.75 33.570312 50.507812 33.136719 50.21875 C 32.703125 49.929688 32.304688 49.605469 31.933594 49.238281 C 31.566406 48.871094 31.238281 48.472656 30.945312 48.042969 C 30.65625 47.613281 30.410156 47.15625 30.210938 46.679688 C 30.011719 46.199219 29.859375 45.707031 29.757812 45.199219 C 29.65625 44.691406 29.605469 44.175781 29.605469 43.660156 Z M 35.449219 63.84375 L 35.589844 62.65625 C 35.660156 61.84375 36.519531 61.210938 37.550781 61.210938 C 38.578125 61.210938 39.4375 61.84375 39.507812 62.683594 L 39.644531 63.84375 Z M 63.320312 62.953125 C 62.792969 63.550781 62.128906 63.84375 61.328125 63.84375 L 41.421875 63.84375 L 41.265625 62.507812 C 41.121094 60.796875 39.488281 59.457031 37.546875 59.457031 C 35.605469 59.457031 33.976562 60.796875 33.835938 62.480469 L 33.675781 63.84375 L 13.769531 63.84375 C 12.96875 63.84375 12.304688 63.550781 11.773438 62.953125 C 11.234375 62.355469 11 61.65625 11.078125 60.855469 L 14.34375 39.074219 C 14.378906 38.742188 14.46875 38.425781 14.621094 38.128906 C 14.769531 37.828125 14.96875 37.566406 15.21875 37.34375 C 15.464844 37.117188 15.746094 36.945312 16.058594 36.824219 C 16.371094 36.703125 16.695312 36.640625 17.03125 36.640625 L 20.777344 36.640625 L 20.777344 41.027344 C 20.535156 41.027344 20.324219 41.113281 20.152344 41.285156 C 19.980469 41.457031 19.894531 41.664062 19.894531 41.90625 C 19.894531 42.148438 19.980469 42.355469 20.152344 42.523438 C 20.324219 42.695312 20.535156 42.78125 20.777344 42.78125 L 22.542969 42.78125 C 22.785156 42.78125 22.996094 42.695312 23.167969 42.523438 C 23.339844 42.355469 23.425781 42.148438 23.425781 41.90625 C 23.425781 41.664062 23.339844 41.457031 23.167969 41.285156 C 22.996094 41.113281 22.785156 41.027344 22.542969 41.027344 L 22.542969 36.640625 L 27.839844 36.640625 L 27.839844 43.660156 C 27.839844 44.292969 27.902344 44.921875 28.027344 45.542969 C 28.152344 46.164062 28.335938 46.765625 28.578125 47.351562 C 28.824219 47.9375 29.125 48.492188 29.476562 49.019531 C 29.832031 49.546875 30.234375 50.03125 30.683594 50.480469 C 31.136719 50.929688 31.625 51.328125 32.15625 51.679688 C 32.6875 52.03125 33.246094 52.328125 33.835938 52.570312 C 34.421875 52.8125 35.03125 52.996094 35.65625 53.121094 C 36.28125 53.242188 36.910156 53.304688 37.546875 53.304688 C 38.1875 53.304688 38.816406 53.242188 39.441406 53.121094 C 40.066406 52.996094 40.671875 52.8125 41.261719 52.570312 C 41.851562 52.328125 42.410156 52.03125 42.941406 51.679688 C 43.46875 51.328125 43.960938 50.929688 44.410156 50.480469 C 44.863281 50.03125 45.265625 49.546875 45.617188 49.019531 C 45.972656 48.492188 46.273438 47.9375 46.515625 47.351562 C 46.761719 46.765625 46.945312 46.164062 47.070312 45.542969 C 47.195312 44.921875 47.257812 44.292969 47.257812 43.660156 L 47.257812 36.640625 L 52.554688 36.640625 L 52.554688 41.027344 C 52.308594 41.027344 52.101562 41.113281 51.929688 41.285156 C 51.757812 41.457031 51.671875 41.664062 51.671875 41.90625 C 51.671875 42.148438 51.757812 42.355469 51.929688 42.523438 C 52.101562 42.695312 52.308594 42.78125 52.554688 42.78125 L 54.320312 42.78125 C 54.5625 42.78125 54.769531 42.695312 54.945312 42.523438 C 55.117188 42.355469 55.203125 42.148438 55.203125 41.90625 C 55.203125 41.664062 55.117188 41.457031 54.945312 41.285156 C 54.769531 41.113281 54.5625 41.027344 54.320312 41.027344 L 54.320312 36.640625 L 58.066406 36.640625 C 58.40625 36.640625 58.730469 36.707031 59.046875 36.828125 C 59.359375 36.953125 59.640625 37.128906 59.890625 37.359375 C 60.140625 37.585938 60.339844 37.851562 60.488281 38.152344 C 60.636719 38.453125 60.726562 38.773438 60.757812 39.109375 L 64.011719 60.820312 C 64.101562 61.632812 63.871094 62.34375 63.320312 62.953125 Z M 63.320312 62.953125 " fill-opacity="1" fill-rule="nonzero"/></g><g clip-path="url(#9e934c253a)"><path fill="#000000" d="M 46.441406 33.101562 L 51.035156 25.910156 L 53.207031 27.34375 L 49.527344 33.101562 L 51.621094 33.101562 L 55.285156 27.367188 C 57.859375 26.226562 62.511719 23.8125 64.816406 20.226562 C 65.113281 19.785156 65.34375 19.316406 65.507812 18.8125 C 65.671875 18.308594 65.765625 17.792969 65.785156 17.265625 C 65.808594 16.734375 65.757812 16.214844 65.632812 15.699219 C 65.507812 15.183594 65.320312 14.695312 65.058594 14.234375 C 63.597656 11.457031 60.144531 9.4375 56.898438 9.4375 C 56.707031 9.4375 56.515625 9.441406 56.324219 9.457031 C 54.203125 9.617188 52.769531 11.34375 51.847656 13.097656 C 50.148438 16.335938 50.148438 20.671875 49.925781 24.371094 L 44.347656 33.101562 Z M 51.773438 23.015625 C 51.941406 19.757812 52.113281 16.390625 53.417969 13.90625 C 54.03125 12.734375 55.058594 11.3125 56.457031 11.207031 C 56.601562 11.195312 56.75 11.1875 56.898438 11.1875 C 59.5 11.1875 62.335938 12.847656 63.492188 15.046875 C 63.875 15.710938 64.054688 16.425781 64.023438 17.1875 C 63.992188 17.953125 63.761719 18.652344 63.324219 19.285156 C 61.269531 22.488281 56.84375 24.769531 54.347656 25.859375 C 53.601562 25.371094 52.480469 24.636719 51.714844 24.132812 C 51.734375 23.765625 51.753906 23.394531 51.773438 23.015625 Z M 51.773438 23.015625 " fill-opacity="1" fill-rule="nonzero"/></g><g clip-path="url(#d4ad51cb27)"><path fill="#000000" d="M 37.871094 20.996094 C 37.628906 21.171875 37.503906 21.40625 37.503906 21.707031 L 37.503906 25.210938 C 37.503906 25.453125 37.59375 25.660156 37.765625 25.832031 C 37.9375 26.003906 38.144531 26.089844 38.390625 26.089844 L 38.390625 28.152344 L 40.15625 31.457031 L 40.15625 26.089844 L 42.808594 26.089844 L 42.808594 32.234375 L 44.578125 29.46875 L 44.578125 26.089844 C 44.820312 26.089844 45.027344 26.003906 45.199219 25.832031 C 45.375 25.660156 45.460938 25.453125 45.460938 25.210938 L 45.460938 21.707031 C 45.460938 21.519531 45.40625 21.351562 45.296875 21.199219 C 45.1875 21.046875 45.042969 20.941406 44.867188 20.882812 L 48.363281 13.042969 C 48.527344 12.632812 48.585938 12.210938 48.535156 11.773438 C 48.488281 11.335938 48.339844 10.933594 48.089844 10.570312 C 47.847656 10.214844 47.535156 9.9375 47.15625 9.738281 C 46.777344 9.539062 46.371094 9.4375 45.9375 9.4375 C 45.867188 9.4375 45.796875 9.445312 45.730469 9.460938 L 36.683594 11.65625 C 36.226562 11.738281 35.8125 11.921875 35.445312 12.207031 C 35.078125 12.492188 34.796875 12.847656 34.601562 13.269531 C 34.4375 13.738281 34.382812 14.21875 34.449219 14.710938 C 34.511719 15.203125 34.683594 15.65625 34.960938 16.070312 Z M 43.691406 24.335938 L 39.273438 24.335938 L 39.273438 22.582031 L 43.691406 22.582031 Z M 36.234375 13.941406 C 36.4375 13.613281 36.734375 13.417969 37.117188 13.355469 L 46.027344 11.191406 C 46.285156 11.222656 46.484375 11.34375 46.628906 11.558594 C 46.804688 11.808594 46.839844 12.078125 46.734375 12.367188 L 42.957031 20.832031 L 39.824219 20.832031 L 36.488281 15.183594 C 36.210938 14.808594 36.125 14.394531 36.234375 13.941406 Z M 36.234375 13.941406 " fill-opacity="1" fill-rule="nonzero"/></g><path fill="#000000" d="M 18.242188 33.101562 C 18.480469 32.5 18.800781 31.945312 19.207031 31.4375 C 19.613281 30.933594 20.082031 30.496094 20.621094 30.132812 C 21.15625 29.769531 21.738281 29.488281 22.359375 29.300781 C 22.980469 29.109375 23.617188 29.011719 24.265625 29.011719 L 24.265625 28.996094 L 24.265625 29.011719 C 24.871094 29.011719 25.460938 29.089844 26.042969 29.253906 C 26.621094 29.414062 27.167969 29.652344 27.683594 29.964844 C 28.195312 30.28125 28.65625 30.660156 29.0625 31.101562 C 29.46875 31.542969 29.804688 32.035156 30.074219 32.570312 C 30.164062 32.746094 30.238281 32.921875 30.308594 33.101562 L 32.171875 33.101562 C 31.929688 32.273438 31.5625 31.503906 31.070312 30.792969 C 30.578125 30.082031 29.988281 29.464844 29.300781 28.941406 C 28.613281 28.417969 27.859375 28.011719 27.039062 27.726562 C 26.222656 27.441406 25.378906 27.285156 24.511719 27.269531 L 24.132812 27.261719 C 23.253906 27.277344 22.402344 27.425781 21.570312 27.710938 C 20.742188 27.996094 19.980469 28.402344 19.28125 28.929688 C 18.582031 29.457031 17.984375 30.078125 17.484375 30.796875 C 16.984375 31.515625 16.613281 32.292969 16.363281 33.128906 C 16.558594 33.109375 16.757812 33.101562 16.957031 33.101562 Z M 18.242188 33.101562 " fill-opacity="1" fill-rule="nonzero"/><g clip-path="url(#3a94adaa5a)"><path fill="#000000" d="M 22.59375 16.320312 C 22.726562 17.105469 23.144531 17.6875 23.851562 18.058594 C 24.472656 18.394531 25.121094 18.453125 25.792969 18.230469 L 28.246094 22.671875 L 27.585938 23.019531 C 27.4375 23.101562 27.308594 23.207031 27.203125 23.339844 C 27.09375 23.472656 27.015625 23.621094 26.964844 23.78125 C 26.917969 23.945312 26.898438 24.109375 26.914062 24.28125 C 26.929688 24.449219 26.976562 24.609375 27.050781 24.761719 L 27.804688 26.152344 C 28.808594 26.535156 29.734375 27.0625 30.574219 27.730469 C 30.625 27.769531 30.683594 27.808594 30.734375 27.851562 L 33.460938 26.417969 L 37.035156 33.101562 L 39.035156 33.101562 L 34.773438 25.132812 C 34.644531 24.894531 34.460938 24.710938 34.21875 24.585938 C 33.976562 24.460938 33.722656 24.414062 33.453125 24.445312 L 32.164062 22.0625 C 32.082031 21.914062 31.976562 21.785156 31.84375 21.675781 C 31.710938 21.566406 31.5625 21.488281 31.394531 21.441406 C 31.230469 21.390625 31.0625 21.375 30.894531 21.390625 C 30.722656 21.40625 30.5625 21.453125 30.410156 21.535156 L 29.808594 21.851562 L 27.355469 17.414062 C 27.871094 16.976562 28.167969 16.421875 28.25 15.753906 C 28.289062 15.386719 28.242188 15.035156 28.109375 14.691406 C 27.976562 14.351562 27.773438 14.054688 27.5 13.808594 L 23.085938 9.675781 C 22.949219 9.546875 22.785156 9.46875 22.597656 9.441406 C 22.410156 9.417969 22.230469 9.449219 22.0625 9.539062 C 21.894531 9.625 21.769531 9.753906 21.6875 9.925781 C 21.601562 10.09375 21.574219 10.269531 21.605469 10.457031 Z M 30.828125 23.296875 L 31.851562 25.191406 L 29.863281 26.25 L 28.832031 24.347656 Z M 26.289062 15.085938 C 26.441406 15.210938 26.507812 15.375 26.492188 15.570312 C 26.4375 15.859375 26.285156 16.078125 26.03125 16.222656 L 25.304688 16.539062 C 25.097656 16.632812 24.890625 16.625 24.691406 16.515625 C 24.492188 16.414062 24.375 16.25 24.339844 16.03125 L 23.785156 12.738281 Z M 26.289062 15.085938 " fill-opacity="1" fill-rule="nonzero"/></g></svg>