<svg xmlns="http://www.w3.org/2000/svg" xmlns:xlink="http://www.w3.org/1999/xlink" width="100" zoomAndPan="magnify" viewBox="0 0 75 74.999997" height="100" preserveAspectRatio="xMidYMid meet" version="1.0"><defs><clipPath id="ec0b972f37"><path d="M 12.722656 25.542969 L 62.34375 25.542969 L 62.34375 62.101562 L 12.722656 62.101562 Z M 12.722656 25.542969 " clip-rule="nonzero"/></clipPath><clipPath id="facc262fbd"><path d="M 7.515625 16.269531 L 67.492188 16.269531 L 67.492188 27.660156 L 7.515625 27.660156 Z M 7.515625 16.269531 " clip-rule="nonzero"/></clipPath><clipPath id="97039d6f6a"><path d="M 22 9.601562 L 39 9.601562 L 39 19 L 22 19 Z M 22 9.601562 " clip-rule="nonzero"/></clipPath><clipPath id="933d805b52"><path d="M 36 9.601562 L 53 9.601562 L 53 19 L 36 19 Z M 36 9.601562 " clip-rule="nonzero"/></clipPath></defs><g clip-path="url(#ec0b972f37)"><path fill="#000000" d="M 62.191406 26.621094 L 62.191406 57.609375 C 62.191406 58.847656 61.6875 59.972656 60.871094 60.785156 C 60.058594 61.601562 58.933594 62.105469 57.695312 62.105469 L 17.308594 62.105469 C 16.074219 62.105469 14.949219 61.601562 14.136719 60.785156 C 13.320312 59.972656 12.816406 58.847656 12.816406 57.609375 L 12.816406 25.683594 L 62.191406 25.683594 Z M 60.316406 57.609375 L 60.316406 27.558594 L 14.691406 27.558594 L 14.691406 57.609375 C 14.691406 58.332031 14.984375 58.984375 15.460938 59.460938 C 15.933594 59.9375 16.589844 60.230469 17.308594 60.230469 L 57.695312 60.230469 C 58.417969 60.230469 59.070312 59.9375 59.546875 59.460938 C 60.023438 58.984375 60.316406 58.332031 60.316406 57.609375 " fill-opacity="1" fill-rule="nonzero"/></g><g clip-path="url(#facc262fbd)"><path fill="#000000" d="M 10.339844 25.683594 L 64.667969 25.683594 C 64.925781 25.683594 65.164062 25.578125 65.335938 25.40625 C 65.507812 25.230469 65.617188 24.996094 65.617188 24.734375 L 65.617188 19.238281 C 65.617188 18.976562 65.507812 18.738281 65.335938 18.566406 C 65.164062 18.394531 64.925781 18.289062 64.667969 18.289062 L 10.339844 18.289062 C 10.082031 18.289062 9.84375 18.394531 9.671875 18.566406 C 9.496094 18.738281 9.390625 18.976562 9.390625 19.238281 L 9.390625 24.734375 C 9.390625 24.996094 9.496094 25.230469 9.671875 25.40625 C 9.84375 25.578125 10.082031 25.683594 10.339844 25.683594 Z M 64.667969 27.558594 L 10.339844 27.558594 C 9.5625 27.558594 8.855469 27.242188 8.34375 26.730469 C 7.832031 26.21875 7.515625 25.511719 7.515625 24.734375 L 7.515625 19.238281 C 7.515625 18.460938 7.832031 17.753906 8.34375 17.242188 C 8.855469 16.730469 9.5625 16.414062 10.339844 16.414062 L 64.667969 16.414062 C 65.445312 16.414062 66.148438 16.730469 66.660156 17.242188 C 67.171875 17.753906 67.492188 18.460938 67.492188 19.238281 L 67.492188 24.734375 C 67.492188 25.511719 67.171875 26.21875 66.660156 26.730469 C 66.148438 27.242188 65.445312 27.558594 64.667969 27.558594 " fill-opacity="1" fill-rule="nonzero"/></g><path fill="#000000" d="M 37.503906 35.894531 C 37.925781 35.253906 38.382812 34.722656 38.90625 34.304688 C 39.847656 33.554688 40.945312 33.179688 42.394531 33.179688 C 44 33.179688 45.457031 33.832031 46.511719 34.886719 C 47.566406 35.941406 48.21875 37.394531 48.21875 39.003906 C 48.21875 41.679688 46.921875 44.300781 44.972656 46.898438 C 43.085938 49.417969 40.625 51.878906 38.164062 54.335938 L 37.503906 53.675781 L 38.167969 54.335938 C 37.800781 54.703125 37.207031 54.703125 36.839844 54.335938 L 36.835938 54.332031 C 34.378906 51.875 31.921875 49.414062 30.03125 46.898438 C 28.085938 44.300781 26.785156 41.679688 26.785156 39.003906 C 26.785156 37.394531 27.4375 35.941406 28.492188 34.886719 C 29.546875 33.832031 31.003906 33.179688 32.613281 33.179688 C 34.058594 33.179688 35.160156 33.554688 36.097656 34.304688 C 36.625 34.722656 37.078125 35.253906 37.503906 35.894531 Z M 40.070312 35.761719 C 39.445312 36.261719 38.917969 37.054688 38.375 38.125 C 38.292969 38.332031 38.136719 38.511719 37.921875 38.621094 C 37.460938 38.851562 36.894531 38.664062 36.664062 38.203125 L 37.503906 37.78125 L 36.667969 38.199219 C 36.113281 37.09375 35.578125 36.273438 34.933594 35.761719 C 34.34375 35.289062 33.613281 35.050781 32.613281 35.050781 C 31.523438 35.050781 30.535156 35.496094 29.820312 36.210938 C 29.105469 36.925781 28.660156 37.914062 28.660156 39.003906 C 28.660156 41.21875 29.808594 43.488281 31.527344 45.78125 C 33.144531 47.9375 35.296875 50.140625 37.503906 52.347656 C 39.707031 50.140625 41.863281 47.9375 43.480469 45.78125 C 45.199219 43.488281 46.347656 41.21875 46.347656 39.003906 C 46.347656 37.914062 45.902344 36.925781 45.1875 36.210938 C 44.472656 35.496094 43.484375 35.050781 42.394531 35.050781 C 41.394531 35.050781 40.660156 35.289062 40.070312 35.761719 " fill-opacity="1" fill-rule="nonzero"/><g clip-path="url(#97039d6f6a)"><path fill="#000000" d="M 25.054688 18.15625 C 25.5 18.417969 26.070312 18.265625 26.332031 17.820312 C 26.59375 17.378906 26.441406 16.804688 26 16.542969 C 25.453125 16.222656 25.050781 15.894531 24.796875 15.511719 C 24.566406 15.15625 24.449219 14.710938 24.449219 14.125 C 24.449219 13.394531 24.746094 12.730469 25.226562 12.25 C 25.707031 11.769531 26.371094 11.472656 27.101562 11.472656 C 28.609375 11.472656 30.167969 12.238281 31.75 13.398438 C 33.429688 14.632812 35.136719 16.308594 36.84375 18.011719 C 37.210938 18.375 37.800781 18.375 38.167969 18.007812 C 38.53125 17.644531 38.527344 17.050781 38.164062 16.6875 C 36.402344 14.929688 34.640625 13.199219 32.855469 11.890625 C 30.96875 10.511719 29.0625 9.601562 27.101562 9.601562 C 25.851562 9.601562 24.71875 10.105469 23.902344 10.925781 C 23.082031 11.746094 22.574219 12.875 22.574219 14.125 C 22.574219 15.09375 22.792969 15.867188 23.230469 16.535156 C 23.652344 17.179688 24.257812 17.6875 25.054688 18.15625 " fill-opacity="1" fill-rule="nonzero"/></g><g clip-path="url(#933d805b52)"><path fill="#000000" d="M 49.007812 16.542969 C 48.5625 16.804688 48.414062 17.378906 48.675781 17.820312 C 48.9375 18.265625 49.507812 18.417969 49.953125 18.15625 C 50.75 17.6875 51.355469 17.179688 51.773438 16.535156 C 52.210938 15.867188 52.433594 15.09375 52.433594 14.125 C 52.433594 12.875 51.925781 11.746094 51.105469 10.925781 C 50.285156 10.105469 49.15625 9.601562 47.90625 9.601562 C 45.945312 9.601562 44.035156 10.511719 42.152344 11.890625 C 40.367188 13.199219 38.605469 14.929688 36.84375 16.6875 C 36.476562 17.050781 36.476562 17.644531 36.839844 18.007812 C 37.203125 18.375 37.796875 18.375 38.164062 18.011719 C 39.871094 16.308594 41.574219 14.632812 43.257812 13.398438 C 44.839844 12.238281 46.398438 11.472656 47.90625 11.472656 C 48.636719 11.472656 49.300781 11.769531 49.78125 12.25 C 50.261719 12.730469 50.558594 13.394531 50.558594 14.125 C 50.558594 14.710938 50.441406 15.15625 50.207031 15.511719 C 49.957031 15.894531 49.554688 16.222656 49.007812 16.542969 " fill-opacity="1" fill-rule="nonzero"/></g></svg>