<svg xmlns="http://www.w3.org/2000/svg" xmlns:xlink="http://www.w3.org/1999/xlink" width="100" zoomAndPan="magnify" viewBox="0 0 75 74.999997" height="100" preserveAspectRatio="xMidYMid meet" version="1.0"><defs><clipPath id="4a81bd4ff9"><path d="M 17.210938 8 L 57.710938 8 L 57.710938 67.5 L 17.210938 67.5 Z M 17.210938 8 " clip-rule="nonzero"/></clipPath></defs><g clip-path="url(#4a81bd4ff9)"><path fill="#000000" d="M 57.554688 45.335938 C 57.414062 44.984375 57.074219 44.753906 56.699219 44.753906 C 56.699219 44.753906 56.695312 44.753906 56.695312 44.753906 C 52.519531 44.773438 48.863281 45.515625 45.828125 46.960938 C 43.367188 48.132812 41.308594 49.765625 39.710938 51.816406 C 39.109375 52.582031 38.621094 53.351562 38.222656 54.082031 C 38.167969 52.195312 38.175781 50.480469 38.363281 49.128906 C 38.613281 47.285156 38.652344 45.933594 38.609375 44.972656 C 39.796875 45.441406 41.0625 45.683594 42.335938 45.683594 C 43.671875 45.683594 45.015625 45.421875 46.285156 44.886719 C 49.511719 43.527344 51.695312 40.625 52.136719 37.117188 C 52.191406 36.671875 52.222656 36.253906 52.230469 35.855469 C 53.386719 35.546875 54.523438 34.695312 55.390625 33.4375 C 57.34375 30.613281 57.515625 26.464844 55.859375 22.058594 C 55.171875 20.226562 54.121094 18.914062 52.730469 18.140625 C 51.945312 13.855469 50.144531 10.960938 47.375 9.527344 C 43.441406 7.496094 38.875 9.121094 37.46875 9.714844 C 35.078125 8.65625 32.382812 8.570312 30.09375 9.179688 C 25.742188 10.339844 21.4375 13.945312 21.902344 19.199219 C 21.601562 19.414062 21.304688 19.648438 21.011719 19.910156 C 18.519531 22.125 17.226562 24.78125 17.265625 27.589844 C 17.304688 30.191406 18.515625 32.820312 20.527344 34.738281 C 20.523438 36.496094 21.433594 38.527344 23.042969 40.277344 C 24.449219 41.808594 27.011719 43.835938 31.238281 44.804688 C 32.101562 45 32.894531 45.097656 33.621094 45.097656 C 34.847656 45.097656 35.875 44.816406 36.695312 44.253906 C 36.789062 44.980469 36.863281 46.433594 36.527344 48.878906 C 36.394531 49.839844 36.347656 50.945312 36.34375 52.140625 C 35.496094 51.097656 34.230469 50.0625 32.28125 49.339844 C 30.121094 48.535156 28.511719 47.351562 26.953125 46.207031 C 25.292969 44.988281 23.726562 43.839844 21.695312 43.28125 C 21.359375 43.1875 21 43.292969 20.765625 43.554688 C 20.53125 43.8125 20.464844 44.183594 20.589844 44.507812 C 20.609375 44.558594 22.632812 49.839844 23.351562 53.570312 C 23.742188 55.609375 25.675781 57.753906 28.402344 59.167969 C 30.300781 60.152344 32.289062 60.65625 34.132812 60.65625 C 34.996094 60.65625 35.828125 60.542969 36.605469 60.320312 C 36.664062 62.394531 36.671875 64.480469 36.519531 66.503906 C 36.484375 67.015625 36.863281 67.460938 37.375 67.496094 C 37.398438 67.5 37.421875 67.5 37.445312 67.5 C 37.921875 67.5 38.328125 67.128906 38.363281 66.640625 C 38.414062 65.96875 38.445312 65.285156 38.464844 64.597656 C 40.589844 65.382812 42.320312 65.734375 43.769531 65.734375 C 46.566406 65.734375 48.339844 64.4375 49.96875 62.4375 C 51.308594 60.792969 51.859375 58.308594 52.394531 55.90625 C 52.820312 53.988281 53.261719 52.007812 54.074219 50.691406 C 55.902344 47.738281 57.320312 46.363281 57.332031 46.351562 C 57.609375 46.089844 57.699219 45.6875 57.554688 45.335938 Z M 38.367188 28.21875 C 38.804688 29.0625 38.917969 30.617188 38.398438 31.28125 C 38.351562 31.339844 38.269531 31.441406 38.101562 31.511719 C 38.101562 31.515625 38.097656 31.515625 38.09375 31.515625 C 37.910156 31.589844 37.628906 31.621094 37.179688 31.515625 C 35.792969 31.179688 34.988281 30.105469 34.90625 29.21875 C 34.863281 28.757812 34.992188 28.128906 35.847656 27.75 C 36.742188 27.351562 37.746094 27.03125 38.367188 28.21875 Z M 50.300781 36.886719 C 49.941406 39.773438 48.21875 42.066406 45.570312 43.183594 C 43.113281 44.214844 40.328125 44.003906 38.105469 42.664062 C 38.902344 41.183594 39.09375 39.078125 38.664062 36.382812 C 38.480469 35.238281 38.21875 34.195312 37.996094 33.421875 C 38.152344 33.40625 38.296875 33.382812 38.433594 33.347656 C 39.109375 33.582031 41.210938 34.507812 42.425781 37.289062 C 42.578125 37.636719 42.917969 37.84375 43.273438 37.84375 C 43.398438 37.84375 43.523438 37.816406 43.644531 37.765625 C 44.109375 37.558594 44.324219 37.015625 44.117188 36.546875 C 43.019531 34.03125 41.308594 32.722656 40.089844 32.066406 C 40.117188 32.015625 40.144531 31.964844 40.171875 31.910156 C 40.9375 32.113281 41.847656 32.265625 42.902344 32.289062 C 43.417969 32.300781 43.980469 32.273438 44.578125 32.246094 C 46.464844 32.15625 48.605469 32.050781 49.636719 33.167969 C 50.296875 33.882812 50.519531 35.132812 50.300781 36.886719 Z M 54.128906 22.710938 C 55.570312 26.542969 55.472656 30.066406 53.871094 32.386719 C 53.28125 33.246094 52.617188 33.734375 52.050781 33.964844 C 51.855469 33.144531 51.503906 32.464844 50.996094 31.910156 C 49.378906 30.160156 46.667969 30.289062 44.492188 30.394531 C 43.929688 30.421875 43.398438 30.449219 42.945312 30.4375 C 42.023438 30.414062 41.234375 30.277344 40.585938 30.101562 C 40.597656 29.816406 40.585938 29.53125 40.550781 29.246094 C 41.121094 28.707031 42.914062 27.230469 45.382812 27.398438 C 45.890625 27.433594 46.332031 27.046875 46.367188 26.535156 C 46.402344 26.027344 46.015625 25.582031 45.507812 25.546875 C 43.257812 25.394531 41.476562 26.253906 40.34375 27.039062 C 41.261719 25.761719 42.496094 23.710938 43.058594 21.304688 C 43.394531 21.09375 44.425781 20.480469 45.765625 19.964844 C 47.214844 19.40625 49.316406 18.859375 51.078125 19.433594 C 52.476562 19.886719 53.472656 20.960938 54.128906 22.710938 Z M 46.535156 11.179688 C 48.550781 12.222656 49.945312 14.328125 50.695312 17.441406 C 47.96875 16.984375 45.054688 18.152344 43.363281 19.011719 C 43.394531 17.703125 43.179688 16.339844 42.585938 14.96875 C 41.835938 13.238281 40.769531 11.914062 39.53125 10.949219 C 41.289062 10.421875 44.132812 9.929688 46.535156 11.179688 Z M 25.457031 14.007812 C 26.6875 12.617188 28.550781 11.507812 30.570312 10.972656 C 34.140625 10.019531 38.894531 11.09375 40.890625 15.703125 C 42.644531 19.753906 40.234375 24 38.800781 25.996094 C 38.519531 25.820312 38.191406 25.679688 37.808594 25.605469 C 37.964844 22.96875 37.839844 20.890625 37.425781 19.421875 C 37.046875 18.078125 36.523438 17.617188 36.3125 17.484375 C 35.886719 17.207031 35.3125 17.328125 35.035156 17.761719 C 34.777344 18.164062 34.871094 18.691406 35.234375 18.984375 C 35.332031 19.101562 36.296875 20.40625 35.945312 25.742188 C 35.785156 25.789062 35.621094 25.84375 35.449219 25.910156 C 35.105469 25.484375 34.667969 24.878906 34.164062 24.03125 C 33.183594 22.378906 30.5 18.480469 26.78125 17.90625 C 25.746094 17.746094 24.726562 17.851562 23.722656 18.222656 C 23.789062 16.328125 24.660156 14.914062 25.457031 14.007812 Z M 21.082031 32.628906 C 19.859375 31.160156 19.140625 29.351562 19.117188 27.566406 C 19.082031 25.277344 20.136719 23.171875 22.238281 21.296875 C 22.609375 20.96875 22.976562 20.691406 23.339844 20.464844 C 23.359375 20.457031 23.378906 20.445312 23.394531 20.433594 C 24.429688 19.804688 25.453125 19.574219 26.5 19.738281 C 29.523438 20.207031 31.914062 23.867188 32.574219 24.980469 C 33.0625 25.800781 33.503906 26.433594 33.878906 26.914062 C 33.703125 27.105469 33.554688 27.3125 33.433594 27.535156 C 30.476562 26.09375 28.054688 24.636719 28.027344 24.621094 C 27.589844 24.359375 27.019531 24.5 26.757812 24.9375 C 26.496094 25.375 26.636719 25.945312 27.074219 26.207031 C 27.191406 26.277344 29.839844 27.871094 33.070312 29.417969 C 33.085938 29.589844 33.113281 29.761719 33.15625 29.929688 C 32.871094 30.007812 32.558594 30.085938 32.214844 30.160156 C 30.703125 30.5 28.210938 30.882812 24.945312 30.808594 C 23.171875 30.765625 21.800781 31.4375 21.082031 32.628906 Z M 31.648438 42.996094 C 25.667969 41.628906 22.5625 37.632812 22.386719 35.003906 C 22.578125 34.722656 22.597656 34.375 22.460938 34.082031 C 22.777344 32.875 23.941406 32.632812 24.90625 32.660156 C 28.515625 32.742188 31.253906 32.292969 32.914062 31.902344 C 33.230469 31.828125 33.609375 31.730469 34.003906 31.613281 C 34.058594 31.679688 34.113281 31.742188 34.171875 31.804688 C 34.167969 31.808594 34.164062 31.8125 34.160156 31.816406 C 32.566406 33.90625 30.664062 35.847656 30.078125 35.992188 C 29.578125 36.023438 29.191406 36.449219 29.214844 36.953125 C 29.234375 37.453125 29.644531 37.839844 30.136719 37.839844 C 30.148438 37.839844 30.164062 37.839844 30.175781 37.839844 C 30.78125 37.8125 31.675781 37.484375 33.703125 35.246094 C 34.742188 34.105469 35.59375 32.988281 35.628906 32.941406 C 35.636719 32.933594 35.640625 32.921875 35.648438 32.914062 C 35.746094 32.964844 35.847656 33.007812 35.949219 33.050781 C 36.15625 33.667969 36.585938 35.074219 36.839844 36.671875 C 37.265625 39.339844 37.011719 41.292969 36.113281 42.316406 C 35.285156 43.257812 33.785156 43.488281 31.648438 42.996094 Z M 29.253906 57.523438 C 27.054688 56.378906 25.449219 54.691406 25.167969 53.222656 C 24.695312 50.757812 23.714844 47.746094 23.035156 45.808594 C 23.984375 46.316406 24.882812 46.976562 25.863281 47.699219 C 27.445312 48.863281 29.238281 50.183594 31.640625 51.074219 C 35.046875 52.339844 35.839844 54.707031 36.261719 55.980469 C 36.332031 56.195312 36.394531 56.378906 36.460938 56.539062 C 36.46875 56.71875 36.476562 56.898438 36.484375 57.078125 C 36.503906 57.515625 36.523438 57.957031 36.539062 58.398438 C 34.496094 59.164062 31.804688 58.847656 29.253906 57.523438 Z M 52.503906 49.71875 C 51.527344 51.300781 51.050781 53.4375 50.59375 55.503906 C 50.105469 57.695312 49.601562 59.964844 48.539062 61.269531 C 46.675781 63.554688 44.75 65.109375 38.496094 62.625 C 38.496094 62.625 38.496094 62.625 38.492188 62.625 C 38.488281 61.367188 38.453125 60.117188 38.410156 58.90625 C 38.554688 58.113281 39.167969 55.480469 41.222656 52.882812 C 42.648438 51.082031 44.484375 49.640625 46.679688 48.605469 C 48.945312 47.535156 51.601562 46.890625 54.605469 46.683594 C 54.023438 47.429688 53.300781 48.433594 52.503906 49.71875 Z M 52.503906 49.71875 " fill-opacity="1" fill-rule="nonzero"/></g></svg>