<svg xmlns="http://www.w3.org/2000/svg" xmlns:xlink="http://www.w3.org/1999/xlink" width="100" zoomAndPan="magnify" viewBox="0 0 75 74.999997" height="100" preserveAspectRatio="xMidYMid meet" version="1.0"><defs><clipPath id="2fa75afedd"><path d="M 16 45 L 59 45 L 59 63.542969 L 16 63.542969 Z M 16 45 " clip-rule="nonzero"/></clipPath><clipPath id="52716b5803"><path d="M 57 16 L 66.445312 16 L 66.445312 24 L 57 24 Z M 57 16 " clip-rule="nonzero"/></clipPath><clipPath id="f28e184d24"><path d="M 57 21 L 66.445312 21 L 66.445312 28 L 57 28 Z M 57 21 " clip-rule="nonzero"/></clipPath></defs><path fill="#000000" d="M 59.347656 47.179688 L 15.015625 47.179688 C 14.574219 47.179688 14.238281 46.847656 14.238281 46.402344 L 14.238281 42.507812 C 14.238281 42.0625 14.574219 41.726562 15.015625 41.726562 L 59.347656 41.726562 C 59.792969 41.726562 60.125 42.0625 60.125 42.507812 L 60.125 46.402344 C 60.125 46.847656 59.792969 47.179688 59.347656 47.179688 Z M 15.792969 45.625 L 58.570312 45.625 L 58.570312 43.285156 L 15.792969 43.285156 Z M 15.792969 45.625 " fill-opacity="1" fill-rule="evenodd"/><g clip-path="url(#2fa75afedd)"><path fill="#000000" d="M 57.683594 63.542969 L 50.039062 63.542969 C 49.816406 63.542969 49.59375 63.429688 49.484375 63.207031 L 47.15625 60.3125 L 27.429688 60.3125 L 25.101562 63.207031 C 24.878906 63.429688 24.65625 63.542969 24.4375 63.542969 L 16.789062 63.542969 C 16.347656 63.542969 16.011719 63.207031 16.011719 62.761719 L 16.011719 46.402344 C 16.011719 45.957031 16.347656 45.625 16.789062 45.625 C 17.234375 45.625 17.566406 45.957031 17.566406 46.402344 L 17.566406 61.984375 L 24.105469 61.984375 L 26.429688 59.089844 C 26.542969 58.867188 26.765625 58.753906 26.984375 58.753906 L 47.488281 58.753906 C 47.710938 58.753906 47.933594 58.867188 48.152344 59.089844 L 50.480469 61.984375 L 56.910156 61.984375 L 56.910156 46.402344 C 56.910156 45.957031 57.242188 45.625 57.683594 45.625 C 58.128906 45.625 58.460938 45.957031 58.460938 46.402344 L 58.460938 62.761719 C 58.460938 63.207031 58.128906 63.542969 57.683594 63.542969 Z M 57.683594 63.542969 " fill-opacity="1" fill-rule="evenodd"/></g><path fill="#000000" d="M 50.8125 53.746094 L 23.660156 53.746094 C 23.21875 53.746094 22.886719 53.414062 22.886719 52.96875 C 22.886719 52.523438 23.21875 52.191406 23.660156 52.191406 L 50.8125 52.191406 C 51.257812 52.191406 51.589844 52.523438 51.589844 52.96875 C 51.589844 53.414062 51.257812 53.746094 50.8125 53.746094 Z M 50.8125 53.746094 " fill-opacity="1" fill-rule="evenodd"/><path fill="#000000" d="M 21.445312 16.578125 C 21.332031 16.578125 21.113281 16.464844 21 16.355469 C 19.449219 15.128906 16.679688 14.574219 15.347656 15.910156 C 15.015625 16.242188 14.574219 16.132812 14.238281 15.910156 C 13.90625 15.574219 14.019531 15.019531 14.238281 14.796875 C 15.238281 13.90625 16.566406 13.460938 18.121094 13.570312 C 19.558594 13.792969 21 14.351562 22 15.242188 C 22.332031 15.464844 22.332031 16.019531 22 16.242188 C 21.886719 16.464844 21.664062 16.578125 21.445312 16.578125 Z M 21.445312 16.578125 " fill-opacity="1" fill-rule="evenodd"/><path fill="#000000" d="M 18.230469 29.820312 C 14.683594 29.820312 11.914062 27.484375 10.582031 23.367188 C 10.582031 23.253906 8.699219 16.019531 10.359375 13.347656 C 10.804688 12.792969 11.246094 12.460938 11.914062 12.347656 C 12.023438 12.347656 12.023438 12.347656 12.132812 12.347656 C 14.351562 12.570312 16.125 15.128906 17.453125 20.027344 C 17.785156 21.027344 18.007812 22.03125 18.230469 23.144531 C 18.453125 22.03125 18.671875 21.027344 19.003906 20.027344 C 20.335938 15.128906 22.109375 12.570312 24.324219 12.347656 C 24.4375 12.347656 24.4375 12.347656 24.546875 12.347656 C 25.101562 12.460938 25.65625 12.792969 25.988281 13.238281 C 26.984375 14.796875 26.984375 18.023438 25.878906 23.144531 L 25.878906 23.253906 C 25.878906 23.367188 25.878906 23.367188 25.878906 23.367188 C 24.65625 27.484375 21.886719 29.820312 18.230469 29.820312 Z M 12.023438 13.90625 C 11.914062 13.90625 11.800781 14.015625 11.691406 14.238281 C 10.695312 15.796875 11.582031 21.027344 12.132812 22.921875 C 12.6875 24.699219 14.128906 27.816406 17.453125 28.152344 C 17.34375 26.59375 16.898438 23.367188 16.011719 20.472656 C 14.90625 16.578125 13.464844 14.128906 12.023438 13.90625 Z M 24.4375 13.90625 C 22.996094 14.128906 21.554688 16.578125 20.445312 20.472656 C 19.671875 23.367188 19.226562 26.59375 19.117188 28.152344 C 22.441406 27.816406 23.769531 24.8125 24.324219 22.921875 L 24.4375 22.808594 C 25.765625 16.578125 25.101562 14.683594 24.769531 14.128906 C 24.65625 14.015625 24.546875 13.90625 24.4375 13.90625 Z M 24.4375 13.90625 " fill-opacity="1" fill-rule="evenodd"/><path fill="#000000" d="M 18.671875 43.285156 C 18.230469 43.285156 17.898438 42.839844 17.898438 42.394531 C 18.007812 40.949219 18.007812 39.390625 18.007812 37.832031 L 17.453125 29.042969 C 17.453125 28.597656 17.785156 28.261719 18.230469 28.261719 C 18.5625 28.261719 19.003906 28.597656 19.003906 28.929688 L 19.558594 37.722656 C 19.558594 37.722656 19.558594 37.832031 19.558594 37.832031 C 19.558594 39.390625 19.558594 40.949219 19.449219 42.507812 C 19.449219 42.953125 19.117188 43.285156 18.671875 43.285156 Z M 18.671875 43.285156 " fill-opacity="1" fill-rule="evenodd"/><path fill="#000000" d="M 18.671875 43.285156 C 18.671875 43.285156 18.671875 43.285156 18.5625 43.285156 C 18.230469 43.175781 17.898438 42.839844 17.898438 42.394531 C 18.894531 33.714844 23.328125 30.710938 23.4375 30.597656 C 23.882812 30.375 24.324219 30.488281 24.546875 30.820312 C 24.769531 31.15625 24.65625 31.710938 24.324219 31.933594 C 24.324219 31.933594 20.335938 34.71875 19.449219 42.617188 C 19.449219 42.953125 19.117188 43.285156 18.671875 43.285156 Z M 18.671875 43.285156 " fill-opacity="1" fill-rule="evenodd"/><path fill="#000000" d="M 57.90625 23.253906 C 57.683594 23.253906 57.574219 23.144531 57.351562 23.03125 C 57.132812 22.699219 57.019531 22.253906 57.351562 21.917969 C 58.351562 20.917969 58.792969 19.46875 58.792969 17.914062 C 58.792969 16.6875 58.460938 15.6875 57.90625 14.683594 C 57.351562 15.6875 57.019531 16.6875 57.019531 17.914062 C 57.019531 18.578125 57.132812 19.136719 57.351562 19.804688 C 57.464844 20.136719 57.242188 20.582031 56.796875 20.804688 C 56.464844 20.917969 56.023438 20.695312 55.800781 20.25 C 55.578125 19.46875 55.46875 18.800781 55.46875 17.914062 C 55.46875 16.019531 56.132812 14.238281 57.351562 12.902344 C 57.464844 12.792969 57.683594 12.679688 57.90625 12.679688 C 58.128906 12.679688 58.351562 12.792969 58.460938 12.902344 C 59.679688 14.238281 60.34375 16.019531 60.34375 17.914062 C 60.34375 19.914062 59.679688 21.585938 58.460938 23.03125 C 58.351562 23.144531 58.128906 23.253906 57.90625 23.253906 Z M 57.90625 23.253906 " fill-opacity="1" fill-rule="evenodd"/><g clip-path="url(#52716b5803)"><path fill="#000000" d="M 59.347656 23.367188 C 58.792969 23.367188 58.238281 23.367188 57.796875 23.253906 C 57.351562 23.144531 57.019531 22.699219 57.132812 22.253906 C 57.242188 21.917969 57.683594 21.585938 58.128906 21.695312 C 59.457031 22.03125 61.011719 21.808594 62.339844 21.027344 C 63.335938 20.359375 64.113281 19.46875 64.558594 18.578125 C 63.449219 18.46875 62.339844 18.691406 61.34375 19.359375 C 60.789062 19.582031 60.34375 20.136719 59.902344 20.582031 C 59.570312 20.804688 59.125 20.804688 58.792969 20.582031 C 58.460938 20.25 58.460938 19.804688 58.792969 19.46875 C 59.238281 19.023438 59.902344 18.359375 60.457031 18.023438 C 60.457031 18.023438 60.566406 18.023438 60.566406 18.023438 C 62.230469 17.023438 64.003906 16.6875 65.777344 17.132812 C 65.996094 17.132812 66.21875 17.246094 66.328125 17.46875 C 66.441406 17.691406 66.441406 17.914062 66.441406 18.136719 C 65.886719 19.804688 64.777344 21.25 63.117188 22.363281 C 63.003906 22.363281 63.003906 22.363281 63.003906 22.363281 C 61.898438 23.03125 60.566406 23.367188 59.347656 23.367188 Z M 59.347656 23.367188 " fill-opacity="1" fill-rule="evenodd"/></g><g clip-path="url(#f28e184d24)"><path fill="#000000" d="M 64.335938 27.816406 C 63.003906 27.816406 61.675781 27.484375 60.566406 26.816406 C 59.015625 25.925781 57.683594 24.367188 57.132812 22.699219 C 57.019531 22.253906 57.242188 21.808594 57.683594 21.695312 C 58.128906 21.585938 58.570312 21.808594 58.683594 22.253906 C 59.015625 23.589844 60.011719 24.8125 61.230469 25.480469 C 61.230469 25.480469 61.230469 25.480469 61.34375 25.480469 C 62.339844 26.035156 63.449219 26.371094 64.558594 26.257812 C 64.113281 25.257812 63.226562 24.476562 62.339844 23.921875 C 62.339844 23.921875 62.230469 23.921875 62.230469 23.921875 C 61.785156 23.589844 61.230469 23.367188 60.566406 23.253906 C 60.125 23.144531 59.792969 22.808594 59.902344 22.363281 C 60.011719 21.917969 60.34375 21.585938 60.789062 21.695312 C 61.675781 21.808594 62.339844 22.140625 63.117188 22.585938 C 64.667969 23.367188 65.886719 24.921875 66.441406 26.703125 C 66.441406 26.925781 66.441406 27.148438 66.328125 27.261719 C 66.21875 27.484375 65.996094 27.59375 65.777344 27.707031 C 65.332031 27.816406 64.777344 27.816406 64.335938 27.816406 Z M 64.335938 27.816406 " fill-opacity="1" fill-rule="evenodd"/></g><path fill="#000000" d="M 57.90625 32.269531 C 57.683594 32.269531 57.464844 32.15625 57.351562 32.046875 C 56.132812 30.597656 55.46875 28.929688 55.46875 26.925781 C 55.46875 25.035156 56.132812 23.253906 57.351562 21.917969 C 57.683594 21.585938 58.128906 21.585938 58.460938 21.917969 C 58.792969 22.140625 58.792969 22.699219 58.460938 23.03125 C 57.574219 24.035156 57.019531 25.367188 57.019531 26.925781 C 57.019531 28.152344 57.351562 29.265625 57.90625 30.152344 C 58.460938 29.265625 58.792969 28.152344 58.792969 26.925781 C 58.792969 26.257812 58.683594 25.480469 58.570312 24.921875 C 58.570312 24.476562 58.792969 24.144531 59.238281 24.035156 C 59.679688 23.921875 60.011719 24.253906 60.125 24.699219 C 60.234375 25.367188 60.34375 26.148438 60.34375 26.925781 C 60.34375 28.929688 59.679688 30.710938 58.460938 32.046875 C 58.351562 32.15625 58.128906 32.269531 57.90625 32.269531 Z M 57.90625 32.269531 " fill-opacity="1" fill-rule="evenodd"/><path fill="#000000" d="M 51.589844 27.816406 C 51.035156 27.816406 50.480469 27.816406 50.039062 27.707031 C 49.816406 27.59375 49.59375 27.484375 49.484375 27.261719 C 49.375 27.039062 49.375 26.816406 49.484375 26.59375 C 49.816406 25.589844 50.8125 23.589844 52.808594 22.585938 C 54.472656 21.585938 56.246094 21.363281 58.128906 21.695312 C 58.460938 21.808594 58.792969 22.253906 58.683594 22.585938 C 58.570312 23.03125 58.128906 23.367188 57.796875 23.253906 C 56.355469 22.921875 54.914062 23.144531 53.585938 23.921875 C 53.472656 23.921875 53.472656 23.921875 53.472656 23.921875 C 52.476562 24.476562 51.699219 25.480469 51.257812 26.257812 C 52.367188 26.371094 53.472656 26.035156 54.472656 25.480469 C 55.023438 25.144531 55.46875 24.699219 56.023438 24.253906 C 56.355469 23.921875 56.796875 23.921875 57.132812 24.253906 C 57.464844 24.589844 57.464844 25.035156 57.132812 25.367188 C 56.578125 25.925781 55.910156 26.480469 55.359375 26.816406 C 54.140625 27.484375 52.808594 27.816406 51.589844 27.816406 Z M 51.589844 27.816406 " fill-opacity="1" fill-rule="evenodd"/><path fill="#000000" d="M 57.90625 23.253906 C 57.574219 23.253906 57.242188 23.03125 57.132812 22.699219 C 56.796875 21.363281 55.910156 20.136719 54.582031 19.359375 C 53.472656 18.800781 52.367188 18.46875 51.257812 18.578125 C 51.8125 19.582031 52.585938 20.359375 53.585938 21.027344 C 54.140625 21.363281 54.804688 21.585938 55.246094 21.695312 C 55.691406 21.808594 56.023438 22.140625 55.910156 22.585938 C 55.910156 23.03125 55.46875 23.253906 55.023438 23.253906 C 54.25 23.144531 53.472656 22.699219 52.808594 22.363281 C 51.257812 21.363281 50.039062 19.914062 49.484375 18.136719 C 49.375 17.914062 49.375 17.691406 49.484375 17.578125 C 49.59375 17.355469 49.816406 17.246094 50.039062 17.132812 C 51.8125 16.800781 53.695312 17.023438 55.359375 18.023438 C 57.019531 19.023438 58.238281 20.582031 58.683594 22.253906 C 58.792969 22.699219 58.570312 23.144531 58.128906 23.253906 C 58.019531 23.253906 58.019531 23.253906 57.90625 23.253906 Z M 57.90625 23.253906 " fill-opacity="1" fill-rule="evenodd"/><path fill="#000000" d="M 56.464844 43.285156 C 56.132812 43.285156 55.800781 43.0625 55.691406 42.730469 C 52.699219 31.265625 55.691406 24.8125 55.800781 24.589844 C 55.910156 24.144531 56.464844 24.035156 56.796875 24.253906 C 57.242188 24.367188 57.351562 24.8125 57.132812 25.257812 C 57.132812 25.257812 54.359375 31.488281 57.242188 42.285156 C 57.351562 42.730469 57.132812 43.175781 56.6875 43.285156 C 56.578125 43.285156 56.578125 43.285156 56.464844 43.285156 Z M 56.464844 43.285156 " fill-opacity="1" fill-rule="evenodd"/><path fill="#000000" d="M 56.464844 43.285156 C 56.132812 43.285156 55.800781 42.953125 55.691406 42.617188 C 54.914062 34.605469 50.925781 31.933594 50.8125 31.933594 C 50.480469 31.710938 50.371094 31.15625 50.59375 30.820312 C 50.8125 30.488281 51.367188 30.375 51.699219 30.597656 C 51.921875 30.710938 56.355469 33.714844 57.242188 42.394531 C 57.351562 42.839844 57.019531 43.175781 56.578125 43.285156 C 56.578125 43.285156 56.464844 43.285156 56.464844 43.285156 Z M 56.464844 43.285156 " fill-opacity="1" fill-rule="evenodd"/><path fill="#000000" d="M 37.183594 43.285156 C 36.847656 43.285156 36.515625 43.0625 36.40625 42.730469 C 34.964844 37.164062 36.40625 26.703125 36.40625 26.257812 C 36.40625 26.257812 36.40625 26.257812 36.40625 26.148438 C 37.402344 21.472656 39.507812 19.136719 41.0625 18.023438 C 42.835938 16.800781 44.386719 16.6875 44.496094 16.6875 C 44.941406 16.6875 45.273438 17.023438 45.273438 17.355469 C 45.273438 17.800781 44.941406 18.246094 44.605469 18.246094 C 44.386719 18.246094 39.621094 18.691406 37.957031 26.480469 C 37.847656 27.039062 36.628906 37.164062 37.957031 42.285156 C 38.070312 42.730469 37.847656 43.175781 37.402344 43.285156 C 37.292969 43.285156 37.292969 43.285156 37.183594 43.285156 Z M 37.183594 43.285156 " fill-opacity="1" fill-rule="evenodd"/><path fill="#000000" d="M 36.628906 38.722656 C 36.515625 38.722656 36.40625 38.722656 36.296875 38.613281 C 35.960938 38.5 35.742188 38.054688 35.960938 37.609375 C 37.957031 33.160156 40.726562 31.378906 42.722656 30.710938 C 43.167969 30.597656 43.609375 30.820312 43.722656 31.265625 C 43.832031 31.601562 43.609375 32.046875 43.167969 32.15625 C 40.839844 33.046875 38.734375 35.050781 37.402344 38.277344 C 37.183594 38.5 36.960938 38.722656 36.628906 38.722656 Z M 36.628906 38.722656 " fill-opacity="1" fill-rule="evenodd"/><path fill="#000000" d="M 36.628906 34.050781 C 36.296875 34.050781 35.960938 33.828125 35.851562 33.382812 C 35.628906 32.492188 34.964844 30.488281 32.417969 28.261719 C 32.195312 27.929688 32.082031 27.484375 32.417969 27.148438 C 32.75 26.816406 33.191406 26.816406 33.523438 27.148438 C 36.183594 29.488281 37.070312 31.710938 37.402344 33.046875 C 37.515625 33.492188 37.183594 33.9375 36.847656 34.050781 C 36.738281 34.050781 36.738281 34.050781 36.628906 34.050781 Z M 36.628906 34.050781 " fill-opacity="1" fill-rule="evenodd"/><path fill="#000000" d="M 40.617188 26.59375 C 39.507812 26.59375 38.402344 26.148438 37.183594 25.367188 C 34.632812 23.921875 33.636719 21.25 34.632812 18.578125 C 35.296875 16.464844 37.070312 14.574219 39.507812 13.460938 C 42.28125 12.125 45.714844 11.792969 49.484375 12.460938 C 49.816406 12.460938 50.039062 12.792969 50.148438 13.015625 C 50.257812 13.347656 50.039062 13.683594 49.816406 13.90625 C 49.261719 14.128906 48.597656 16.019531 47.933594 17.578125 C 46.601562 21.140625 44.941406 25.480469 41.835938 26.371094 C 41.394531 26.480469 41.0625 26.59375 40.617188 26.59375 Z M 46.046875 13.683594 C 40.726562 13.683594 37.070312 16.242188 36.074219 19.023438 C 35.410156 21.140625 36.074219 22.921875 38.070312 24.035156 C 39.289062 24.921875 40.394531 25.257812 41.394531 24.921875 C 43.722656 24.253906 45.382812 20.027344 46.492188 17.023438 C 47.046875 15.6875 47.488281 14.574219 47.933594 13.792969 C 47.265625 13.792969 46.714844 13.683594 46.046875 13.683594 Z M 46.046875 13.683594 " fill-opacity="1" fill-rule="evenodd"/><path fill="#000000" d="M 42.167969 35.386719 C 41.28125 35.386719 40.507812 34.941406 39.839844 34.160156 C 38.734375 32.9375 38.511719 31.378906 39.398438 30.042969 C 40.617188 28.261719 43.722656 27.148438 47.710938 28.929688 C 48.042969 29.152344 48.152344 29.375 48.152344 29.710938 C 48.152344 30.042969 47.933594 30.265625 47.710938 30.375 C 47.488281 30.488281 46.933594 31.265625 46.601562 31.710938 C 45.492188 33.382812 44.054688 35.273438 42.167969 35.386719 Z M 43.832031 29.597656 C 42.167969 29.597656 41.171875 30.265625 40.617188 30.933594 C 40.175781 31.601562 40.285156 32.378906 40.949219 33.046875 C 40.949219 33.046875 40.949219 33.046875 41.0625 33.046875 C 41.613281 33.828125 42.058594 33.828125 42.167969 33.828125 C 43.167969 33.828125 44.496094 32.046875 45.382812 30.820312 C 45.605469 30.488281 45.828125 30.265625 46.046875 29.929688 C 45.160156 29.710938 44.496094 29.597656 43.832031 29.597656 Z M 47.710938 30.375 Z M 47.710938 30.375 " fill-opacity="1" fill-rule="evenodd"/><path fill="#000000" d="M 32.527344 31.378906 C 32.527344 31.378906 32.417969 31.378906 32.417969 31.378906 C 30.53125 31.265625 28.980469 29.152344 27.761719 27.484375 C 27.316406 26.925781 26.765625 26.148438 26.542969 25.925781 C 26.210938 25.8125 25.988281 25.589844 25.988281 25.257812 C 25.988281 24.921875 26.210938 24.699219 26.429688 24.589844 C 30.644531 22.585938 34.078125 23.8125 35.410156 25.703125 C 36.40625 27.148438 36.183594 28.820312 34.964844 30.042969 C 34.300781 30.933594 33.414062 31.378906 32.527344 31.378906 Z M 28.203125 25.480469 C 28.425781 25.8125 28.648438 26.148438 28.980469 26.480469 C 29.976562 27.929688 31.308594 29.710938 32.527344 29.820312 C 32.96875 29.820312 33.414062 29.488281 33.855469 28.929688 C 34.632812 28.261719 34.632812 27.371094 34.078125 26.59375 C 33.191406 25.257812 30.976562 24.589844 28.203125 25.480469 Z M 26.542969 25.925781 Z M 26.542969 25.925781 Z M 26.542969 25.925781 " fill-opacity="1" fill-rule="evenodd"/></svg>