<svg xmlns="http://www.w3.org/2000/svg" xmlns:xlink="http://www.w3.org/1999/xlink" width="100" zoomAndPan="magnify" viewBox="0 0 75 74.999997" height="100" preserveAspectRatio="xMidYMid meet" version="1.0"><defs><clipPath id="8d5bcecca6"><path d="M 8.410156 11.136719 L 66.910156 11.136719 L 66.910156 63.636719 L 8.410156 63.636719 Z M 8.410156 11.136719 " clip-rule="nonzero"/></clipPath></defs><path fill="#000000" d="M 59.582031 44.78125 C 59.40625 44.605469 59.191406 44.515625 58.9375 44.515625 C 58.6875 44.515625 58.472656 44.601562 58.292969 44.777344 C 58.023438 45.042969 57.8125 45.351562 57.667969 45.699219 C 57.519531 46.050781 57.445312 46.414062 57.445312 46.789062 C 57.445312 47.167969 57.519531 47.53125 57.667969 47.878906 C 57.8125 48.230469 58.023438 48.535156 58.292969 48.800781 C 58.472656 48.976562 58.6875 49.066406 58.9375 49.0625 C 59.191406 49.0625 59.40625 48.972656 59.582031 48.796875 C 59.757812 48.621094 59.847656 48.410156 59.847656 48.160156 C 59.847656 47.910156 59.757812 47.699219 59.578125 47.523438 C 59.480469 47.425781 59.402344 47.3125 59.351562 47.1875 C 59.296875 47.058594 59.269531 46.929688 59.269531 46.789062 C 59.269531 46.652344 59.296875 46.519531 59.351562 46.394531 C 59.402344 46.265625 59.480469 46.15625 59.578125 46.058594 C 59.757812 45.882812 59.847656 45.671875 59.847656 45.421875 C 59.847656 45.171875 59.761719 44.960938 59.582031 44.78125 Z M 59.582031 44.78125 " fill-opacity="1" fill-rule="nonzero"/><path fill="#000000" d="M 45.105469 32.105469 C 45.414062 31.898438 45.753906 31.777344 46.125 31.746094 C 45.988281 31.957031 45.921875 32.191406 45.921875 32.441406 C 45.921875 32.621094 45.957031 32.792969 46.027344 32.957031 C 46.097656 33.121094 46.195312 33.269531 46.324219 33.394531 C 46.449219 33.519531 46.597656 33.617188 46.765625 33.683594 C 46.933594 33.753906 47.105469 33.785156 47.285156 33.785156 C 47.464844 33.785156 47.640625 33.753906 47.808594 33.683594 C 47.972656 33.617188 48.121094 33.519531 48.25 33.394531 C 48.375 33.269531 48.476562 33.121094 48.546875 32.957031 C 48.617188 32.792969 48.652344 32.621094 48.652344 32.441406 C 48.652344 32.332031 48.636719 32.222656 48.605469 32.113281 C 48.816406 32.203125 48.996094 32.335938 49.144531 32.515625 C 49.28125 32.722656 49.476562 32.851562 49.722656 32.898438 C 49.972656 32.949219 50.199219 32.902344 50.410156 32.765625 C 50.621094 32.625 50.75 32.433594 50.796875 32.1875 C 50.84375 31.945312 50.800781 31.71875 50.65625 31.511719 C 50.144531 30.753906 49.089844 30.199219 47.757812 29.988281 C 46.257812 29.75 44.84375 30.011719 43.980469 30.683594 C 43.78125 30.839844 43.664062 31.039062 43.636719 31.285156 C 43.605469 31.535156 43.667969 31.757812 43.824219 31.953125 C 43.980469 32.148438 44.183594 32.261719 44.433594 32.292969 C 44.683594 32.320312 44.90625 32.257812 45.105469 32.105469 Z M 45.105469 32.105469 " fill-opacity="1" fill-rule="nonzero"/><path fill="#000000" d="M 44.789062 44.453125 C 45.621094 44.378906 46.222656 44.324219 46.855469 44.617188 C 47.265625 44.804688 47.648438 45.011719 48.019531 45.210938 C 48.804688 45.671875 49.636719 46.03125 50.511719 46.289062 C 50.757812 46.355469 50.984375 46.324219 51.203125 46.199219 C 51.421875 46.078125 51.5625 45.894531 51.628906 45.65625 C 51.695312 45.414062 51.664062 45.1875 51.542969 44.96875 C 51.417969 44.753906 51.234375 44.613281 50.992188 44.546875 C 50.253906 44.324219 49.550781 44.019531 48.890625 43.625 C 48.496094 43.414062 48.085938 43.191406 47.625 42.980469 C 46.65625 42.585938 45.660156 42.480469 44.628906 42.652344 C 43.613281 42.792969 42.609375 42.734375 41.621094 42.476562 C 41.378906 42.410156 41.148438 42.4375 40.929688 42.558594 C 40.710938 42.679688 40.566406 42.863281 40.5 43.101562 C 40.429688 43.339844 40.460938 43.570312 40.582031 43.785156 C 40.703125 44.003906 40.886719 44.144531 41.128906 44.210938 C 42.332031 44.53125 43.550781 44.609375 44.789062 44.453125 Z M 44.789062 44.453125 " fill-opacity="1" fill-rule="nonzero"/><g clip-path="url(#8d5bcecca6)"><path fill="#000000" d="M 10.046875 55.414062 L 23.226562 40.890625 C 26.410156 37.390625 29.964844 34.308594 33.890625 31.648438 L 33.890625 31.953125 C 33.890625 32.203125 33.980469 32.414062 34.160156 32.589844 C 34.335938 32.765625 34.550781 32.855469 34.804688 32.855469 L 38.449219 32.855469 C 38.824219 32.855469 39.09375 32.6875 39.261719 32.351562 L 53.773438 44.015625 C 52.898438 45.261719 52.351562 46.636719 52.132812 48.136719 C 51.867188 48 51.59375 47.890625 51.335938 47.785156 C 51.210938 47.734375 51.082031 47.683594 50.960938 47.628906 C 50.355469 47.347656 49.773438 47.027344 49.214844 46.671875 C 48.851562 46.453125 48.488281 46.234375 48.113281 46.03125 C 46.90625 45.441406 45.632812 45.222656 44.292969 45.367188 C 44.285156 45.367188 44.28125 45.371094 44.273438 45.371094 C 44.265625 45.371094 44.257812 45.371094 44.25 45.371094 C 43.304688 45.507812 42.371094 45.453125 41.449219 45.210938 C 40.523438 44.96875 39.6875 44.558594 38.933594 43.976562 C 37.5 42.820312 36.644531 41.054688 36.453125 38.878906 C 36.433594 38.632812 36.324219 38.425781 36.132812 38.265625 C 35.941406 38.105469 35.71875 38.035156 35.46875 38.058594 C 35.21875 38.078125 35.011719 38.183594 34.847656 38.375 C 34.6875 38.566406 34.617188 38.785156 34.640625 39.035156 C 34.734375 40.242188 35.035156 41.394531 35.542969 42.492188 C 30.398438 45.65625 27.933594 52.824219 26.285156 57.613281 C 25.6875 59.355469 24.941406 61.527344 24.539062 61.832031 C 24.316406 61.945312 24.164062 62.125 24.089844 62.363281 C 24.015625 62.597656 24.035156 62.828125 24.152344 63.050781 C 24.269531 63.269531 24.449219 63.417969 24.691406 63.492188 C 24.929688 63.566406 25.160156 63.542969 25.382812 63.429688 C 26.351562 62.925781 26.917969 61.375 28.011719 58.195312 C 29.574219 53.660156 31.90625 46.871094 36.480469 44.039062 C 36.660156 44.269531 36.847656 44.488281 37.046875 44.695312 C 31.664062 49.148438 28.84375 58.339844 28.84375 60.824219 C 28.84375 61.074219 28.933594 61.285156 29.113281 61.464844 C 29.289062 61.640625 29.503906 61.726562 29.757812 61.726562 C 30.007812 61.726562 30.222656 61.640625 30.402344 61.464844 C 30.578125 61.285156 30.667969 61.074219 30.667969 60.824219 C 30.667969 58.59375 33.4375 49.800781 38.476562 45.871094 C 39.941406 46.796875 41.542969 47.25 43.277344 47.234375 C 43.660156 47.230469 44.039062 47.210938 44.414062 47.167969 L 44.417969 47.167969 C 45.398438 47.050781 46.339844 47.199219 47.234375 47.613281 C 47.585938 47.800781 47.925781 48.007812 48.265625 48.214844 C 48.894531 48.609375 49.546875 48.964844 50.226562 49.277344 C 50.359375 49.339844 50.5 49.394531 50.640625 49.453125 C 51.125 49.597656 51.546875 49.84375 51.90625 50.191406 C 52.042969 50.394531 52.148438 50.613281 52.230469 50.84375 C 52.300781 51.027344 52.375 51.207031 52.464844 51.382812 C 52.871094 52.121094 53.386719 52.773438 54.011719 53.339844 C 54.527344 53.941406 55.160156 54.371094 55.914062 54.632812 C 56.1875 54.703125 56.46875 54.738281 56.753906 54.738281 C 57.082031 54.730469 57.40625 54.703125 57.730469 54.648438 C 58.601562 54.59375 59.371094 54.289062 60.042969 53.738281 C 60.09375 53.738281 60.148438 53.742188 60.195312 53.746094 C 60.363281 53.753906 60.53125 53.765625 60.703125 53.765625 C 61.402344 53.761719 62.042969 53.574219 62.632812 53.207031 C 62.882812 53.0625 63.121094 52.902344 63.34375 52.726562 C 63.441406 52.652344 63.53125 52.578125 63.625 52.5 C 64.1875 51.972656 64.59375 51.347656 64.839844 50.621094 C 65.089844 49.890625 65.148438 49.148438 65.019531 48.390625 C 65.003906 48.105469 65.0625 47.832031 65.199219 47.578125 C 65.210938 47.546875 65.222656 47.519531 65.234375 47.488281 C 65.933594 47.183594 66.414062 46.675781 66.667969 45.964844 C 66.789062 45.558594 66.796875 45.148438 66.703125 44.734375 C 66.605469 44.324219 66.414062 43.960938 66.128906 43.644531 C 65.882812 43.359375 65.613281 43.101562 65.316406 42.875 C 64.199219 41.976562 63.25 40.925781 62.476562 39.726562 C 62.390625 39.582031 62.304688 39.433594 62.222656 39.289062 C 61.746094 38.273438 61.046875 37.449219 60.117188 36.8125 C 60.027344 36.742188 59.933594 36.671875 59.84375 36.601562 C 58.167969 35.285156 57.039062 33.609375 56.453125 31.578125 C 56.386719 31.355469 56.332031 31.128906 56.273438 30.902344 C 56.109375 30.039062 55.796875 29.226562 55.34375 28.46875 C 54.667969 27.582031 53.839844 26.878906 52.851562 26.355469 C 52.613281 26.207031 52.378906 26.058594 52.148438 25.902344 C 51.730469 25.621094 50.824219 24.929688 50.628906 24.121094 C 52.457031 22.195312 53.546875 18.386719 50.984375 13.425781 C 50.976562 13.410156 50.964844 13.398438 50.953125 13.382812 C 50.9375 13.355469 50.921875 13.328125 50.902344 13.300781 C 50.882812 13.277344 50.867188 13.257812 50.847656 13.238281 C 50.828125 13.214844 50.804688 13.191406 50.78125 13.171875 C 50.761719 13.152344 50.738281 13.136719 50.714844 13.117188 C 50.691406 13.101562 50.667969 13.082031 50.640625 13.066406 C 50.613281 13.050781 50.585938 13.039062 50.558594 13.023438 C 50.539062 13.015625 50.523438 13.007812 50.507812 13 C 50.496094 12.996094 50.488281 12.996094 50.480469 12.992188 C 50.449219 12.980469 50.417969 12.972656 50.390625 12.964844 C 50.359375 12.960938 50.332031 12.953125 50.300781 12.949219 C 50.277344 12.945312 50.25 12.941406 50.222656 12.941406 C 50.191406 12.9375 50.15625 12.9375 50.125 12.9375 C 50.101562 12.941406 50.074219 12.945312 50.046875 12.949219 C 50.015625 12.953125 49.984375 12.957031 49.949219 12.964844 C 49.925781 12.972656 49.902344 12.980469 49.878906 12.988281 C 49.847656 13 49.8125 13.011719 49.78125 13.027344 C 49.773438 13.03125 49.765625 13.03125 49.757812 13.035156 C 49.742188 13.042969 49.730469 13.054688 49.714844 13.0625 C 49.6875 13.078125 49.65625 13.097656 49.628906 13.117188 C 49.605469 13.132812 49.585938 13.152344 49.566406 13.167969 C 49.542969 13.191406 49.519531 13.210938 49.5 13.234375 C 49.480469 13.257812 49.460938 13.277344 49.445312 13.300781 C 49.425781 13.324219 49.410156 13.347656 49.394531 13.375 C 49.378906 13.402344 49.363281 13.429688 49.347656 13.460938 C 49.34375 13.476562 49.332031 13.488281 49.324219 13.507812 C 48.964844 14.285156 48.464844 14.964844 47.820312 15.539062 C 46.976562 16.402344 46.039062 17.367188 45.761719 19.039062 C 45.609375 19.019531 45.457031 19.011719 45.304688 19.011719 C 45.609375 16.375 45.054688 13.488281 43.820312 11.609375 C 43.820312 11.605469 43.816406 11.601562 43.8125 11.597656 C 43.792969 11.570312 43.769531 11.539062 43.742188 11.511719 C 43.726562 11.496094 43.714844 11.476562 43.699219 11.460938 C 43.675781 11.441406 43.652344 11.421875 43.628906 11.402344 C 43.605469 11.382812 43.582031 11.363281 43.558594 11.347656 C 43.535156 11.335938 43.515625 11.324219 43.492188 11.3125 C 43.460938 11.296875 43.429688 11.28125 43.398438 11.265625 C 43.390625 11.265625 43.386719 11.261719 43.382812 11.257812 C 43.363281 11.25 43.34375 11.25 43.324219 11.242188 C 43.292969 11.234375 43.257812 11.222656 43.226562 11.21875 C 43.199219 11.210938 43.171875 11.210938 43.144531 11.207031 C 43.113281 11.203125 43.082031 11.203125 43.050781 11.203125 C 43.019531 11.203125 42.992188 11.207031 42.964844 11.207031 C 42.933594 11.210938 42.902344 11.214844 42.875 11.21875 C 42.84375 11.226562 42.820312 11.234375 42.792969 11.242188 C 42.761719 11.253906 42.734375 11.261719 42.707031 11.273438 C 42.675781 11.285156 42.644531 11.300781 42.617188 11.316406 C 42.597656 11.328125 42.578125 11.335938 42.5625 11.347656 C 42.558594 11.347656 42.554688 11.351562 42.550781 11.355469 C 42.519531 11.375 42.492188 11.398438 42.464844 11.421875 C 42.449219 11.4375 42.425781 11.453125 42.410156 11.46875 C 42.390625 11.492188 42.371094 11.515625 42.351562 11.539062 C 42.332031 11.5625 42.3125 11.582031 42.296875 11.609375 C 42.285156 11.628906 42.273438 11.652344 42.261719 11.675781 C 42.242188 11.707031 42.226562 11.734375 42.214844 11.765625 C 42.210938 11.769531 42.210938 11.777344 42.207031 11.78125 C 41.75 12.882812 41.0625 13.816406 40.148438 14.59375 C 39.210938 15.390625 38.5 16.355469 38.027344 17.484375 C 37.191406 17.5 36.359375 17.570312 35.535156 17.695312 L 35.527344 17.695312 C 31.101562 18.386719 28.589844 20.589844 26.152344 22.734375 C 25.265625 23.515625 24.425781 24.253906 23.492188 24.925781 C 19.832031 25.761719 18.085938 27.695312 17.058594 29.285156 C 13.757812 30.847656 11.574219 33.140625 10.9375 35.050781 C 9.644531 36.238281 8.828125 37.6875 8.488281 39.398438 L 8.484375 39.414062 C 8.480469 39.421875 8.480469 39.433594 8.476562 39.441406 C 8.472656 39.460938 8.472656 39.480469 8.472656 39.5 C 8.464844 39.535156 8.460938 39.566406 8.460938 39.601562 C 8.457031 39.628906 8.460938 39.65625 8.460938 39.6875 C 8.464844 39.714844 8.464844 39.746094 8.46875 39.773438 C 8.476562 39.804688 8.484375 39.832031 8.492188 39.859375 C 8.496094 39.886719 8.503906 39.914062 8.515625 39.941406 C 8.523438 39.96875 8.539062 39.996094 8.550781 40.019531 C 8.5625 40.046875 8.578125 40.074219 8.589844 40.101562 C 8.605469 40.125 8.625 40.148438 8.640625 40.171875 C 8.660156 40.195312 8.675781 40.21875 8.695312 40.238281 C 8.71875 40.261719 8.742188 40.285156 8.769531 40.304688 C 8.785156 40.320312 8.796875 40.335938 8.816406 40.347656 C 8.820312 40.351562 8.824219 40.351562 8.824219 40.355469 C 8.898438 40.40625 8.972656 40.445312 9.054688 40.476562 C 9.074219 40.480469 9.09375 40.488281 9.113281 40.492188 C 9.132812 40.5 9.152344 40.507812 9.175781 40.511719 C 9.238281 40.527344 9.300781 40.53125 9.363281 40.53125 L 9.367188 40.535156 C 9.429688 40.53125 9.492188 40.527344 9.550781 40.511719 C 9.570312 40.507812 9.585938 40.503906 9.601562 40.5 C 9.648438 40.488281 9.691406 40.472656 9.730469 40.457031 C 9.75 40.449219 9.765625 40.441406 9.785156 40.433594 C 9.839844 40.40625 9.890625 40.371094 9.9375 40.335938 C 9.945312 40.328125 9.949219 40.324219 9.953125 40.320312 C 10 40.28125 10.039062 40.242188 10.074219 40.195312 C 10.082031 40.191406 10.085938 40.1875 10.09375 40.179688 C 10.777344 39.292969 12.4375 38.710938 13.179688 38.921875 C 13.421875 38.988281 13.652344 38.964844 13.871094 38.84375 C 14.09375 38.722656 14.238281 38.542969 14.308594 38.304688 C 14.375 38.0625 14.351562 37.835938 14.230469 37.617188 C 14.105469 37.398438 13.925781 37.253906 13.683594 37.1875 C 12.886719 37.003906 12.105469 37.050781 11.335938 37.320312 C 12.015625 36.386719 12.890625 35.703125 13.964844 35.261719 C 14.003906 35.246094 14.046875 35.226562 14.085938 35.210938 C 15.09375 34.8125 16.140625 34.578125 17.226562 34.5 C 17.242188 34.5 17.257812 34.496094 17.273438 34.492188 C 17.304688 34.488281 17.339844 34.480469 17.371094 34.472656 C 17.398438 34.46875 17.425781 34.457031 17.449219 34.449219 C 17.480469 34.4375 17.507812 34.425781 17.535156 34.414062 C 17.5625 34.402344 17.589844 34.386719 17.613281 34.375 C 17.636719 34.359375 17.664062 34.34375 17.6875 34.324219 C 17.710938 34.308594 17.730469 34.289062 17.753906 34.269531 C 17.773438 34.25 17.796875 34.230469 17.816406 34.210938 C 17.835938 34.1875 17.851562 34.167969 17.871094 34.144531 C 17.886719 34.121094 17.90625 34.097656 17.921875 34.070312 C 17.9375 34.046875 17.949219 34.023438 17.960938 34 C 17.976562 33.972656 17.988281 33.945312 17.996094 33.914062 C 18.007812 33.890625 18.015625 33.863281 18.023438 33.832031 C 18.03125 33.804688 18.039062 33.773438 18.042969 33.746094 C 18.046875 33.714844 18.050781 33.6875 18.050781 33.65625 C 18.054688 33.636719 18.058594 33.621094 18.058594 33.601562 C 18.058594 33.589844 18.054688 33.574219 18.054688 33.5625 C 18.054688 33.550781 18.054688 33.539062 18.054688 33.523438 C 18.050781 33.507812 18.046875 33.492188 18.042969 33.476562 C 18.035156 33.414062 18.023438 33.351562 18 33.296875 C 17.992188 33.269531 17.980469 33.246094 17.96875 33.222656 C 17.953125 33.1875 17.9375 33.15625 17.917969 33.128906 C 17.90625 33.109375 17.898438 33.09375 17.886719 33.078125 C 17.859375 33.042969 17.832031 33.011719 17.804688 32.980469 C 17.796875 32.972656 17.789062 32.964844 17.777344 32.957031 C 17.742188 32.921875 17.703125 32.890625 17.664062 32.859375 L 17.648438 32.851562 C 17.605469 32.820312 17.558594 32.796875 17.507812 32.773438 L 17.496094 32.769531 C 17.445312 32.75 17.398438 32.734375 17.34375 32.722656 C 17.335938 32.722656 17.328125 32.71875 17.316406 32.71875 C 17.273438 32.710938 17.226562 32.703125 17.183594 32.703125 C 17.171875 32.703125 17.160156 32.699219 17.144531 32.699219 C 16.230469 32.722656 15.335938 32.875 14.464844 33.160156 C 16.316406 31.515625 18.449219 30.40625 20.867188 29.828125 C 21.335938 29.742188 21.804688 29.699219 22.28125 29.695312 C 22.53125 29.695312 22.746094 29.609375 22.925781 29.429688 C 23.101562 29.253906 23.191406 29.042969 23.191406 28.792969 C 23.191406 28.542969 23.101562 28.332031 22.925781 28.15625 C 22.746094 27.980469 22.53125 27.890625 22.28125 27.890625 C 21.757812 27.894531 21.238281 27.9375 20.722656 28.019531 C 22 27.140625 23.828125 26.464844 26.597656 26.335938 C 26.820312 26.324219 27.011719 26.246094 27.175781 26.09375 C 27.339844 25.945312 27.433594 25.761719 27.460938 25.542969 C 27.484375 25.324219 27.4375 25.121094 27.3125 24.9375 C 27.1875 24.753906 27.019531 24.632812 26.804688 24.574219 C 26.992188 24.410156 27.179688 24.246094 27.363281 24.082031 C 29.472656 22.226562 31.496094 20.445312 34.78125 19.675781 L 35.421875 27.441406 L 34.804688 27.441406 C 34.550781 27.441406 34.335938 27.527344 34.160156 27.707031 C 33.980469 27.882812 33.890625 28.09375 33.890625 28.34375 L 33.890625 29.488281 C 29.4375 32.371094 25.433594 35.769531 21.871094 39.683594 L 8.691406 54.207031 C 8.523438 54.390625 8.445312 54.609375 8.457031 54.859375 C 8.472656 55.105469 8.570312 55.316406 8.757812 55.480469 C 8.945312 55.648438 9.164062 55.726562 9.417969 55.710938 C 9.667969 55.699219 9.878906 55.597656 10.046875 55.414062 Z M 37.535156 31.050781 L 35.714844 31.050781 L 35.714844 29.246094 L 37.535156 29.246094 Z M 64.15625 44.265625 C 64.355469 44.417969 64.539062 44.589844 64.707031 44.777344 C 64.890625 44.953125 64.964844 45.164062 64.933594 45.410156 C 64.796875 45.6875 64.574219 45.855469 64.269531 45.921875 C 63.949219 46.007812 63.742188 46.210938 63.644531 46.527344 C 63.597656 46.671875 63.546875 46.808594 63.496094 46.941406 C 63.226562 47.507812 63.140625 48.101562 63.226562 48.722656 C 63.292969 49.160156 63.261719 49.585938 63.125 50.007812 C 62.988281 50.429688 62.765625 50.796875 62.457031 51.113281 C 62.378906 51.179688 62.296875 51.246094 62.214844 51.308594 C 62.0625 51.429688 61.898438 51.542969 61.726562 51.640625 C 61.292969 51.929688 60.816406 52.03125 60.300781 51.941406 C 60.101562 51.933594 59.886719 51.921875 59.632812 51.917969 L 59.628906 51.917969 C 59.621094 51.917969 59.613281 51.921875 59.605469 51.921875 C 59.570312 51.921875 59.535156 51.925781 59.5 51.929688 C 59.476562 51.933594 59.449219 51.9375 59.425781 51.945312 C 59.394531 51.949219 59.363281 51.960938 59.335938 51.972656 C 59.308594 51.980469 59.28125 51.988281 59.257812 52 C 59.230469 52.011719 59.203125 52.027344 59.175781 52.042969 C 59.152344 52.054688 59.128906 52.070312 59.105469 52.085938 C 59.082031 52.101562 59.058594 52.121094 59.035156 52.140625 C 59.011719 52.160156 58.992188 52.179688 58.972656 52.199219 C 58.953125 52.21875 58.9375 52.242188 58.917969 52.261719 C 58.898438 52.289062 58.878906 52.3125 58.859375 52.339844 C 58.855469 52.347656 58.847656 52.355469 58.84375 52.363281 C 58.644531 52.699219 57.855469 52.808594 57.476562 52.863281 C 57.117188 52.941406 56.757812 52.949219 56.398438 52.890625 C 55.96875 52.707031 55.605469 52.433594 55.308594 52.074219 C 54.828125 51.640625 54.425781 51.148438 54.101562 50.589844 C 54.035156 50.457031 53.976562 50.316406 53.921875 50.175781 C 53.878906 50.066406 53.832031 49.957031 53.78125 49.84375 C 53.820312 49.738281 53.839844 49.632812 53.84375 49.523438 C 53.84375 49.015625 53.894531 48.511719 53.992188 48.011719 C 54.09375 47.511719 54.238281 47.027344 54.433594 46.554688 C 54.628906 46.085938 54.867188 45.636719 55.152344 45.210938 C 55.433594 44.789062 55.757812 44.394531 56.117188 44.03125 C 56.476562 43.667969 56.867188 43.34375 57.292969 43.054688 C 57.71875 42.765625 58.164062 42.523438 58.636719 42.320312 C 59.109375 42.121094 59.597656 41.964844 60.097656 41.859375 C 60.601562 41.75 61.109375 41.691406 61.625 41.679688 C 62.371094 42.636719 63.214844 43.496094 64.15625 44.265625 Z M 36.585938 19.375 C 36.921875 19.339844 37.269531 19.316406 37.628906 19.300781 C 37.589844 19.730469 37.578125 20.160156 37.59375 20.589844 C 37.601562 20.832031 37.695312 21.039062 37.871094 21.207031 C 38.046875 21.378906 38.257812 21.460938 38.503906 21.460938 C 38.515625 21.460938 38.527344 21.460938 38.535156 21.460938 C 38.789062 21.453125 39 21.359375 39.171875 21.175781 C 39.34375 20.992188 39.425781 20.777344 39.417969 20.527344 C 39.328125 17.921875 40.253906 17.019531 41.425781 15.878906 C 42.015625 15.339844 42.542969 14.746094 43.015625 14.101562 C 43.648438 16.023438 43.742188 17.96875 43.296875 19.941406 C 43.292969 19.953125 43.292969 19.960938 43.292969 19.972656 C 43.285156 20.003906 43.28125 20.039062 43.277344 20.070312 C 43.277344 20.097656 43.273438 20.125 43.273438 20.148438 C 43.273438 20.179688 43.277344 20.210938 43.28125 20.242188 C 43.28125 20.269531 43.285156 20.300781 43.289062 20.328125 C 43.296875 20.355469 43.304688 20.382812 43.3125 20.40625 C 43.320312 20.4375 43.332031 20.46875 43.34375 20.5 C 43.347656 20.507812 43.347656 20.519531 43.355469 20.527344 C 43.359375 20.542969 43.371094 20.558594 43.378906 20.570312 C 43.394531 20.601562 43.410156 20.628906 43.429688 20.65625 C 43.445312 20.679688 43.460938 20.699219 43.480469 20.722656 C 43.5 20.746094 43.519531 20.769531 43.539062 20.789062 C 43.5625 20.808594 43.582031 20.828125 43.605469 20.847656 C 43.628906 20.867188 43.652344 20.882812 43.675781 20.898438 C 43.699219 20.917969 43.726562 20.929688 43.75 20.945312 C 43.777344 20.957031 43.804688 20.972656 43.832031 20.984375 C 43.859375 20.996094 43.890625 21.003906 43.921875 21.015625 C 43.9375 21.019531 43.953125 21.027344 43.96875 21.03125 C 43.976562 21.03125 43.988281 21.03125 43.996094 21.035156 C 44.042969 21.042969 44.09375 21.050781 44.144531 21.050781 C 44.15625 21.050781 44.171875 21.054688 44.183594 21.054688 C 44.1875 21.054688 44.191406 21.054688 44.195312 21.054688 C 44.214844 21.054688 44.234375 21.050781 44.253906 21.050781 C 44.289062 21.046875 44.328125 21.042969 44.363281 21.035156 C 44.382812 21.03125 44.402344 21.027344 44.421875 21.019531 C 44.457031 21.011719 44.492188 21 44.527344 20.984375 C 44.539062 20.980469 44.550781 20.980469 44.5625 20.972656 C 44.964844 20.804688 45.382812 20.769531 45.808594 20.867188 C 46.238281 20.964844 46.597656 21.179688 46.886719 21.507812 C 47.0625 21.679688 47.277344 21.765625 47.527344 21.765625 C 47.777344 21.765625 47.992188 21.675781 48.167969 21.5 C 48.34375 21.324219 48.433594 21.113281 48.433594 20.863281 C 48.433594 20.617188 48.347656 20.402344 48.171875 20.226562 C 47.96875 20.035156 47.753906 19.859375 47.519531 19.707031 C 47.625 18.351562 48.292969 17.652344 49.128906 16.792969 C 49.425781 16.488281 49.742188 16.164062 50.039062 15.796875 C 51.253906 19.148438 50.515625 21.824219 49.074219 23.109375 C 49.023438 23.15625 48.976562 23.207031 48.941406 23.261719 C 48.921875 23.285156 48.910156 23.308594 48.894531 23.332031 C 48.882812 23.355469 48.867188 23.378906 48.855469 23.402344 C 48.808594 23.503906 48.78125 23.609375 48.773438 23.722656 L 48.773438 23.734375 C 48.773438 23.742188 48.769531 23.753906 48.769531 23.761719 C 48.746094 25.070312 49.582031 26.359375 51.121094 27.394531 C 51.371094 27.5625 51.625 27.722656 51.882812 27.882812 C 52.640625 28.277344 53.285156 28.804688 53.824219 29.464844 C 54.15625 30.050781 54.382812 30.675781 54.503906 31.335938 C 54.566406 31.582031 54.628906 31.828125 54.699219 32.070312 C 55.394531 34.476562 56.730469 36.457031 58.710938 38.015625 C 58.8125 38.09375 58.910156 38.167969 59.011719 38.246094 C 59.273438 38.433594 59.519531 38.636719 59.75 38.859375 C 60.050781 39.195312 60.304688 39.5625 60.511719 39.960938 C 58.355469 40.234375 56.5 41.128906 54.949219 42.636719 L 39.359375 30.105469 L 39.359375 28.34375 C 39.359375 28.09375 39.269531 27.882812 39.09375 27.707031 C 38.914062 27.527344 38.699219 27.441406 38.449219 27.441406 L 37.25 27.441406 Z M 36.585938 19.375 " fill-opacity="1" fill-rule="nonzero"/></g></svg>