<svg xmlns="http://www.w3.org/2000/svg" xmlns:xlink="http://www.w3.org/1999/xlink" width="100" zoomAndPan="magnify" viewBox="0 0 75 74.999997" height="100" preserveAspectRatio="xMidYMid meet" version="1.0"><defs><clipPath id="56c180e980"><path d="M 9 11.070312 L 66 11.070312 L 66 67.320312 L 9 67.320312 Z M 9 11.070312 " clip-rule="nonzero"/></clipPath></defs><g clip-path="url(#56c180e980)"><path fill="#100f0d" d="M 12.414062 56.511719 L 32.324219 36.773438 L 40.34375 44.722656 L 20.433594 64.464844 C 19.191406 65.699219 17.167969 65.699219 15.921875 64.464844 L 12.414062 60.984375 C 11.167969 59.75 11.167969 57.746094 12.414062 56.511719 Z M 36.304688 32.824219 C 36.714844 32.417969 37.378906 32.417969 37.789062 32.824219 L 44.328125 39.304688 C 44.53125 39.503906 44.640625 39.765625 44.640625 40.039062 C 44.640625 40.316406 44.53125 40.578125 44.328125 40.777344 L 41.71875 43.363281 L 33.695312 35.410156 Z M 43.871094 17 C 44.902344 15.65625 46.832031 13.148438 48.46875 13.402344 C 50.875 13.777344 54.554688 15.027344 58.414062 18.855469 C 62.277344 22.683594 63.539062 26.332031 63.917969 28.71875 C 64.175781 30.351562 61.644531 32.253906 60.285156 33.277344 C 56.71875 35.960938 48.078125 38.050781 46.136719 38.496094 C 46.011719 38.300781 45.875 38.113281 45.703125 37.945312 L 44.828125 37.074219 L 51.03125 32.941406 C 51.472656 32.640625 51.59375 32.042969 51.296875 31.605469 C 50.996094 31.164062 50.394531 31.042969 49.945312 31.339844 L 43.429688 35.691406 L 41.441406 33.714844 L 45.824219 27.253906 C 46.121094 26.808594 46.003906 26.210938 45.558594 25.914062 C 45.113281 25.617188 44.511719 25.738281 44.210938 26.179688 L 40.039062 32.328125 L 39.164062 31.460938 C 38.992188 31.292969 38.804688 31.152344 38.605469 31.035156 C 39.054688 29.105469 41.160156 20.542969 43.871094 17 Z M 36.6875 54.175781 C 35.351562 54.953125 34.238281 56.0625 33.453125 57.382812 C 33.078125 56.75 32.59375 56.183594 32.070312 55.652344 L 34.945312 52.804688 C 35.476562 53.328125 36.046875 53.804688 36.6875 54.175781 Z M 14.550781 65.828125 C 15.550781 66.820312 16.863281 67.3125 18.179688 67.3125 C 19.496094 67.3125 20.808594 66.820312 21.808594 65.828125 L 30.707031 57.003906 C 31.566406 57.871094 32.1875 58.921875 32.511719 60.113281 C 32.625 60.53125 33.007812 60.828125 33.449219 60.828125 C 33.886719 60.828125 34.277344 60.53125 34.390625 60.113281 C 35.046875 57.671875 36.980469 55.753906 39.4375 55.105469 C 39.863281 54.992188 40.160156 54.609375 40.160156 54.175781 C 40.160156 53.738281 39.863281 53.355469 39.4375 53.242188 C 38.242188 52.925781 37.179688 52.304688 36.300781 51.457031 C 37.175781 50.59375 32.984375 54.746094 45.703125 42.136719 C 46.1875 41.65625 46.472656 41.039062 46.546875 40.382812 C 48.550781 39.925781 57.523438 37.773438 61.460938 34.8125 C 63.261719 33.457031 66.273438 31.191406 65.839844 28.417969 C 65.414062 25.75 64.019531 21.691406 59.789062 17.496094 C 55.558594 13.296875 51.460938 11.917969 48.769531 11.496094 C 45.988281 11.0625 43.6875 14.050781 42.320312 15.839844 C 39.332031 19.746094 37.164062 28.644531 36.703125 30.625 C 36.058594 30.695312 35.429688 30.96875 34.9375 31.460938 C 32.648438 33.726562 13.628906 52.582031 11.039062 55.148438 C 9.039062 57.132812 9.039062 60.359375 11.039062 62.347656 L 14.550781 65.828125 " fill-opacity="1" fill-rule="nonzero"/></g><path fill="#100f0d" d="M 28.355469 25.476562 C 27.570312 24.148438 26.449219 23.039062 25.109375 22.257812 C 26.449219 21.480469 27.570312 20.367188 28.355469 19.039062 C 29.144531 20.367188 30.265625 21.480469 31.601562 22.257812 C 30.265625 23.039062 29.144531 24.148438 28.355469 25.476562 Z M 29.296875 16.320312 C 29.183594 15.898438 28.796875 15.605469 28.355469 15.605469 C 27.914062 15.605469 27.53125 15.898438 27.417969 16.320312 C 26.761719 18.757812 24.824219 20.675781 22.367188 21.328125 C 21.941406 21.441406 21.644531 21.820312 21.644531 22.257812 C 21.644531 22.695312 21.941406 23.078125 22.367188 23.191406 C 24.824219 23.84375 26.761719 25.761719 27.417969 28.199219 C 27.53125 28.621094 27.914062 28.914062 28.355469 28.914062 C 28.796875 28.914062 29.183594 28.621094 29.296875 28.199219 C 29.953125 25.761719 31.886719 23.84375 34.347656 23.191406 C 34.773438 23.078125 35.070312 22.695312 35.070312 22.257812 C 35.070312 21.824219 34.773438 21.441406 34.347656 21.328125 C 31.886719 20.675781 29.953125 18.757812 29.296875 16.320312 " fill-opacity="1" fill-rule="nonzero"/><path fill="#100f0d" d="M 54.136719 52.28125 C 53.351562 50.953125 52.234375 49.84375 50.894531 49.066406 C 52.234375 48.285156 53.351562 47.175781 54.136719 45.847656 C 54.925781 47.175781 56.042969 48.285156 57.382812 49.066406 C 56.042969 49.84375 54.925781 50.953125 54.136719 52.28125 Z M 55.074219 43.128906 C 54.964844 42.707031 54.578125 42.414062 54.136719 42.414062 C 53.699219 42.414062 53.316406 42.707031 53.203125 43.128906 C 52.542969 45.566406 50.609375 47.484375 48.148438 48.136719 C 47.726562 48.25 47.429688 48.628906 47.429688 49.066406 C 47.429688 49.5 47.726562 49.886719 48.148438 50 C 50.609375 50.648438 52.542969 52.566406 53.203125 55.007812 C 53.316406 55.425781 53.699219 55.722656 54.136719 55.722656 C 54.578125 55.722656 54.964844 55.425781 55.074219 55.007812 C 55.734375 52.566406 57.667969 50.648438 60.128906 50 C 60.550781 49.886719 60.847656 49.5 60.847656 49.066406 C 60.847656 48.628906 60.550781 48.25 60.128906 48.136719 C 57.667969 47.484375 55.734375 45.566406 55.074219 43.128906 " fill-opacity="1" fill-rule="nonzero"/></svg>