<svg xmlns="http://www.w3.org/2000/svg" xmlns:xlink="http://www.w3.org/1999/xlink" width="100" zoomAndPan="magnify" viewBox="0 0 75 74.999997" height="100" preserveAspectRatio="xMidYMid meet" version="1.0"><defs><clipPath id="ab8281291c"><path d="M 8.289062 49 L 66.789062 49 L 66.789062 67.574219 L 8.289062 67.574219 Z M 8.289062 49 " clip-rule="nonzero"/></clipPath><clipPath id="abea1f2a54"><path d="M 17 9.074219 L 58 9.074219 L 58 51 L 17 51 Z M 17 9.074219 " clip-rule="nonzero"/></clipPath><clipPath id="94957739c2"><path d="M 28 56 L 47 56 L 47 67.574219 L 28 67.574219 Z M 28 56 " clip-rule="nonzero"/></clipPath></defs><path fill="#000000" d="M 43.9375 26.441406 L 43.9375 24.613281 C 39.398438 24.613281 35.710938 20.925781 35.710938 16.386719 L 33.882812 16.386719 C 33.882812 21.929688 38.390625 26.441406 43.9375 26.441406 Z M 43.9375 26.441406 " fill-opacity="1" fill-rule="nonzero"/><path fill="#000000" d="M 48.507812 26.441406 L 48.507812 24.613281 C 46.488281 24.613281 44.851562 22.972656 44.851562 20.957031 L 43.023438 20.957031 C 43.023438 23.984375 45.480469 26.441406 48.507812 26.441406 Z M 48.507812 26.441406 " fill-opacity="1" fill-rule="nonzero"/><g clip-path="url(#ab8281291c)"><path fill="#000000" d="M 65.972656 56.613281 L 49.886719 54.824219 L 45.550781 49.621094 C 45.28125 49.296875 44.820312 49.199219 44.441406 49.390625 L 37.539062 52.84375 L 30.632812 49.390625 C 30.253906 49.199219 29.792969 49.296875 29.523438 49.621094 L 25.1875 54.824219 L 9.101562 56.613281 C 8.636719 56.664062 8.289062 57.054688 8.289062 57.519531 L 8.289062 58.433594 L 10.117188 58.433594 L 10.117188 58.339844 L 14.6875 57.832031 L 14.6875 67.574219 L 16.515625 67.574219 L 16.515625 57.628906 L 20.171875 57.222656 L 20.171875 67.574219 L 22 67.574219 L 22 57.019531 L 25.753906 56.601562 C 25.988281 56.574219 26.207031 56.460938 26.355469 56.277344 L 30.464844 51.347656 L 37.128906 54.679688 C 37.386719 54.808594 37.6875 54.808594 37.945312 54.679688 L 44.613281 51.347656 L 48.71875 56.277344 C 48.871094 56.457031 49.085938 56.574219 49.320312 56.601562 L 53.078125 57.019531 L 53.078125 67.574219 L 54.90625 67.574219 L 54.90625 57.222656 L 58.5625 57.628906 L 58.5625 67.574219 L 60.390625 67.574219 L 60.390625 57.832031 L 64.960938 58.339844 L 64.960938 58.433594 L 66.789062 58.433594 L 66.789062 57.519531 C 66.789062 57.054688 66.4375 56.664062 65.972656 56.613281 Z M 65.972656 56.613281 " fill-opacity="1" fill-rule="nonzero"/></g><path fill="#000000" d="M 37.539062 42.894531 C 36.433594 42.894531 35.386719 42.363281 34.585938 41.398438 L 33.175781 42.5625 C 34.332031 43.957031 35.878906 44.722656 37.539062 44.722656 C 39.195312 44.722656 40.742188 43.957031 41.898438 42.566406 L 40.488281 41.398438 C 39.6875 42.363281 38.640625 42.894531 37.539062 42.894531 Z M 37.539062 42.894531 " fill-opacity="1" fill-rule="nonzero"/><path fill="#000000" d="M 33.882812 30.097656 C 33.882812 30.339844 33.835938 30.574219 33.742188 30.796875 C 33.648438 31.023438 33.515625 31.21875 33.347656 31.390625 C 33.175781 31.5625 32.976562 31.695312 32.753906 31.789062 C 32.527344 31.878906 32.296875 31.925781 32.054688 31.925781 C 31.8125 31.925781 31.578125 31.878906 31.355469 31.789062 C 31.128906 31.695312 30.933594 31.5625 30.761719 31.390625 C 30.589844 31.21875 30.457031 31.023438 30.363281 30.796875 C 30.269531 30.574219 30.226562 30.339844 30.226562 30.097656 C 30.226562 29.855469 30.269531 29.621094 30.363281 29.398438 C 30.457031 29.175781 30.589844 28.976562 30.761719 28.804688 C 30.933594 28.632812 31.128906 28.503906 31.355469 28.410156 C 31.578125 28.316406 31.8125 28.269531 32.054688 28.269531 C 32.296875 28.269531 32.527344 28.316406 32.753906 28.410156 C 32.976562 28.503906 33.175781 28.632812 33.347656 28.804688 C 33.515625 28.976562 33.648438 29.175781 33.742188 29.398438 C 33.835938 29.621094 33.882812 29.855469 33.882812 30.097656 Z M 33.882812 30.097656 " fill-opacity="1" fill-rule="nonzero"/><path fill="#000000" d="M 44.851562 30.097656 C 44.851562 30.339844 44.804688 30.574219 44.710938 30.796875 C 44.617188 31.023438 44.484375 31.21875 44.316406 31.390625 C 44.144531 31.5625 43.945312 31.695312 43.722656 31.789062 C 43.496094 31.878906 43.265625 31.925781 43.023438 31.925781 C 42.78125 31.925781 42.546875 31.878906 42.324219 31.789062 C 42.097656 31.695312 41.902344 31.5625 41.730469 31.390625 C 41.558594 31.21875 41.425781 31.023438 41.332031 30.796875 C 41.238281 30.574219 41.195312 30.339844 41.195312 30.097656 C 41.195312 29.855469 41.238281 29.621094 41.332031 29.398438 C 41.425781 29.175781 41.558594 28.976562 41.730469 28.804688 C 41.902344 28.632812 42.097656 28.503906 42.324219 28.410156 C 42.546875 28.316406 42.78125 28.269531 43.023438 28.269531 C 43.265625 28.269531 43.496094 28.316406 43.722656 28.410156 C 43.945312 28.503906 44.144531 28.632812 44.316406 28.804688 C 44.484375 28.976562 44.617188 29.175781 44.710938 29.398438 C 44.804688 29.621094 44.851562 29.855469 44.851562 30.097656 Z M 44.851562 30.097656 " fill-opacity="1" fill-rule="nonzero"/><g clip-path="url(#abea1f2a54)"><path fill="#000000" d="M 21.085938 36.40625 L 21.085938 38.238281 C 21.085938 41.421875 22.949219 44.347656 25.832031 45.691406 L 35.324219 50.121094 C 35.445312 50.179688 35.574219 50.207031 35.710938 50.207031 L 39.367188 50.207031 C 39.5 50.207031 39.628906 50.179688 39.753906 50.121094 L 49.242188 45.691406 C 52.125 44.347656 53.992188 41.421875 53.992188 38.238281 L 53.992188 36.40625 C 56.074219 35.980469 57.648438 34.132812 57.648438 31.925781 C 57.648438 29.71875 56.074219 27.875 53.992188 27.449219 L 53.992188 17.300781 C 53.992188 12.765625 50.300781 9.074219 45.765625 9.074219 L 22 9.074219 C 21.492188 9.074219 21.085938 9.484375 21.085938 9.988281 L 21.085938 27.449219 C 19 27.875 17.429688 29.71875 17.429688 31.925781 C 17.429688 34.132812 19 35.980469 21.085938 36.40625 Z M 48.46875 44.035156 L 39.164062 48.378906 L 35.910156 48.378906 L 26.605469 44.035156 C 24.359375 42.988281 22.914062 40.714844 22.914062 38.238281 L 22.914062 33.878906 L 26.898438 37.199219 C 27.0625 37.335938 27.269531 37.410156 27.484375 37.410156 L 47.59375 37.410156 C 47.804688 37.410156 48.011719 37.335938 48.175781 37.199219 L 52.164062 33.878906 L 52.164062 38.238281 C 52.164062 40.714844 50.714844 42.988281 48.46875 44.035156 Z M 55.820312 31.925781 C 55.820312 33.117188 55.050781 34.121094 53.992188 34.5 L 53.992188 29.351562 C 55.050781 29.730469 55.820312 30.738281 55.820312 31.925781 Z M 22.914062 19.46875 C 25.355469 23.34375 30.042969 26.441406 35.710938 26.441406 L 35.710938 24.613281 C 29.792969 24.613281 22.914062 19.824219 22.914062 13.644531 L 22.914062 10.902344 L 45.765625 10.902344 C 49.292969 10.902344 52.164062 13.773438 52.164062 17.300781 L 52.164062 31.496094 L 47.261719 35.582031 L 27.8125 35.582031 L 22.914062 31.496094 Z M 21.085938 29.351562 L 21.085938 34.5 C 20.023438 34.121094 19.257812 33.117188 19.257812 31.925781 C 19.257812 30.734375 20.023438 29.730469 21.085938 29.351562 Z M 21.085938 29.351562 " fill-opacity="1" fill-rule="nonzero"/></g><g clip-path="url(#94957739c2)"><path fill="#000000" d="M 46.273438 56.761719 C 46.019531 56.589844 45.695312 56.558594 45.414062 56.675781 L 39.605469 59.078125 C 39.015625 58.675781 38.304688 58.433594 37.539062 58.433594 C 36.769531 58.433594 36.058594 58.675781 35.46875 59.078125 L 29.660156 56.675781 C 29.378906 56.558594 29.058594 56.589844 28.800781 56.761719 C 28.546875 56.929688 28.398438 57.214844 28.398438 57.519531 L 28.398438 66.660156 C 28.398438 66.964844 28.546875 67.25 28.800781 67.421875 C 28.957031 67.523438 29.132812 67.574219 29.3125 67.574219 C 29.429688 67.574219 29.546875 67.550781 29.660156 67.503906 L 35.46875 65.101562 C 36.058594 65.507812 36.769531 65.746094 37.539062 65.746094 C 38.304688 65.746094 39.015625 65.507812 39.605469 65.101562 L 45.414062 67.503906 C 45.527344 67.550781 45.644531 67.574219 45.765625 67.574219 C 45.941406 67.574219 46.121094 67.523438 46.273438 67.421875 C 46.527344 67.25 46.679688 66.964844 46.679688 66.660156 L 46.679688 57.519531 C 46.679688 57.214844 46.527344 56.929688 46.273438 56.761719 Z M 30.226562 58.886719 L 34.234375 60.546875 C 34.015625 61.015625 33.882812 61.539062 33.882812 62.089844 C 33.882812 62.644531 34.015625 63.164062 34.234375 63.632812 L 30.226562 65.292969 Z M 37.539062 63.917969 C 36.527344 63.917969 35.710938 63.097656 35.710938 62.089844 C 35.710938 61.082031 36.527344 60.261719 37.539062 60.261719 C 38.546875 60.261719 39.367188 61.082031 39.367188 62.089844 C 39.367188 63.097656 38.546875 63.917969 37.539062 63.917969 Z M 44.851562 65.292969 L 40.839844 63.632812 C 41.0625 63.164062 41.195312 62.644531 41.195312 62.089844 C 41.195312 61.539062 41.0625 61.015625 40.839844 60.546875 L 44.851562 58.886719 Z M 44.851562 65.292969 " fill-opacity="1" fill-rule="nonzero"/></g></svg>