<svg xmlns="http://www.w3.org/2000/svg" xmlns:xlink="http://www.w3.org/1999/xlink" width="100" zoomAndPan="magnify" viewBox="0 0 75 74.999997" height="100" preserveAspectRatio="xMidYMid meet" version="1.0"><defs><clipPath id="d4b10f4666"><path d="M 8.378906 12.273438 L 66.878906 12.273438 L 66.878906 62.523438 L 8.378906 62.523438 Z M 8.378906 12.273438 " clip-rule="nonzero"/></clipPath></defs><g clip-path="url(#d4b10f4666)"><path fill="#000000" d="M 15.382812 12.273438 C 13.792969 12.273438 12.480469 13.574219 12.480469 15.152344 L 12.480469 17.167969 C 10.28125 17.613281 8.613281 19.554688 8.613281 21.863281 C 8.613281 24.171875 10.28125 26.113281 12.480469 26.5625 L 12.480469 28.675781 C 10.28125 29.121094 8.613281 31.0625 8.613281 33.371094 C 8.613281 35.679688 10.28125 37.621094 12.480469 38.070312 L 12.480469 40.183594 C 10.28125 40.628906 8.613281 42.570312 8.613281 44.878906 C 8.613281 47.1875 10.28125 49.128906 12.480469 49.578125 L 12.480469 51.59375 C 12.480469 53.167969 13.792969 54.46875 15.382812 54.46875 L 45.203125 54.46875 L 43.246094 57.828125 C 42.449219 59.195312 42.933594 60.972656 44.308594 61.761719 C 45.6875 62.550781 47.476562 62.070312 48.273438 60.707031 L 51.90625 54.46875 L 63.746094 54.46875 C 65.335938 54.46875 66.648438 53.167969 66.648438 51.59375 L 66.648438 15.152344 C 66.648438 13.574219 65.335938 12.273438 63.746094 12.273438 Z M 15.382812 14.191406 L 63.746094 14.191406 C 64.296875 14.191406 64.710938 14.605469 64.710938 15.152344 L 64.710938 51.59375 C 64.710938 52.140625 64.296875 52.550781 63.746094 52.550781 L 53.023438 52.550781 L 59.878906 40.777344 C 60.824219 41.316406 61.132812 42.460938 60.589844 43.394531 L 57.203125 49.207031 C 57.070312 49.4375 57.035156 49.679688 57.105469 49.9375 C 57.175781 50.191406 57.324219 50.386719 57.554688 50.519531 C 57.789062 50.652344 58.03125 50.683594 58.289062 50.613281 C 58.546875 50.546875 58.742188 50.398438 58.875 50.167969 L 62.261719 44.355469 C 63.324219 42.527344 62.6875 40.167969 60.847656 39.113281 L 61.332031 38.285156 C 62.125 36.917969 61.648438 35.144531 60.269531 34.355469 C 59.582031 33.960938 58.789062 33.882812 58.066406 34.074219 C 57.347656 34.265625 56.703125 34.722656 56.304688 35.40625 L 51.34375 43.921875 L 26.988281 43.921875 C 26.457031 43.921875 26.023438 44.351562 26.023438 44.878906 C 26.023438 45.410156 26.457031 45.839844 26.988281 45.839844 L 50.226562 45.839844 L 46.320312 52.550781 L 15.382812 52.550781 C 14.832031 52.550781 14.417969 52.140625 14.417969 51.59375 L 14.417969 42.167969 C 15.546875 42.558594 16.351562 43.617188 16.351562 44.878906 C 16.351562 45.144531 16.445312 45.371094 16.632812 45.558594 C 16.824219 45.746094 17.050781 45.839844 17.316406 45.839844 C 17.585938 45.839844 17.8125 45.746094 18 45.558594 C 18.191406 45.371094 18.285156 45.144531 18.285156 44.878906 C 18.285156 42.570312 16.617188 40.628906 14.417969 40.183594 L 14.417969 30.660156 C 15.546875 31.050781 16.351562 32.109375 16.351562 33.371094 C 16.351562 33.636719 16.445312 33.863281 16.632812 34.050781 C 16.824219 34.238281 17.050781 34.332031 17.316406 34.332031 C 17.585938 34.332031 17.8125 34.238281 18 34.050781 C 18.191406 33.863281 18.285156 33.636719 18.285156 33.371094 C 18.285156 31.0625 16.617188 29.121094 14.417969 28.675781 L 14.417969 19.152344 C 15.546875 19.542969 16.351562 20.601562 16.351562 21.863281 C 16.351562 22.128906 16.445312 22.355469 16.632812 22.542969 C 16.824219 22.730469 17.050781 22.824219 17.316406 22.824219 C 17.585938 22.824219 17.8125 22.730469 18 22.542969 C 18.191406 22.355469 18.285156 22.128906 18.285156 21.863281 C 18.285156 19.554688 16.617188 17.617188 14.417969 17.167969 L 14.417969 15.152344 C 14.417969 14.605469 14.832031 14.191406 15.382812 14.191406 Z M 12.480469 19.152344 L 12.480469 24.578125 C 11.351562 24.1875 10.546875 23.128906 10.546875 21.863281 C 10.546875 20.601562 11.351562 19.542969 12.480469 19.152344 Z M 43.636719 20.90625 C 42.085938 20.914062 40.554688 21.703125 39.464844 23.050781 C 38.421875 21.828125 37.101562 20.960938 35.648438 20.910156 C 34.421875 20.871094 33.171875 21.320312 32.273438 22.296875 C 31.378906 23.269531 30.859375 24.710938 30.859375 26.53125 C 30.859375 29.042969 32.242188 31.214844 33.957031 32.757812 C 35.675781 34.300781 37.722656 35.289062 39.566406 35.289062 C 41.40625 35.289062 43.453125 34.300781 45.171875 32.757812 C 46.890625 31.214844 48.269531 29.042969 48.269531 26.53125 C 48.269531 23.292969 46.457031 21.261719 44.296875 20.953125 C 44.078125 20.921875 43.855469 20.90625 43.636719 20.90625 Z M 35.582031 22.828125 C 36.710938 22.863281 38 23.597656 38.699219 25.003906 C 38.875 25.363281 39.164062 25.539062 39.566406 25.539062 C 39.964844 25.539062 40.253906 25.363281 40.433594 25.003906 C 41.230469 23.398438 42.792969 22.675781 44.019531 22.851562 C 45.246094 23.027344 46.335938 23.921875 46.335938 26.53125 C 46.335938 28.328125 45.296875 30.054688 43.871094 31.335938 C 42.445312 32.617188 40.625 33.371094 39.566406 33.371094 C 38.503906 33.371094 36.683594 32.617188 35.257812 31.335938 C 33.832031 30.054688 32.792969 28.328125 32.792969 26.53125 C 32.792969 25.0625 33.195312 24.140625 33.703125 23.589844 C 34.210938 23.039062 34.855469 22.804688 35.582031 22.828125 Z M 12.480469 30.65625 L 12.480469 36.085938 C 11.351562 35.695312 10.546875 34.636719 10.546875 33.371094 C 10.546875 32.109375 11.351562 31.050781 12.480469 30.65625 Z M 58.746094 35.878906 C 58.929688 35.867188 59.121094 35.910156 59.300781 36.015625 C 59.78125 36.289062 59.929688 36.847656 59.65625 37.324219 L 46.597656 59.746094 C 46.320312 60.222656 45.753906 60.375 45.277344 60.101562 C 44.796875 59.824219 44.644531 59.261719 44.921875 58.789062 L 57.980469 36.363281 C 58.117188 36.128906 58.328125 35.972656 58.566406 35.910156 C 58.625 35.894531 58.683594 35.882812 58.746094 35.878906 Z M 29.890625 39.125 C 29.625 39.125 29.398438 39.21875 29.207031 39.40625 C 29.019531 39.59375 28.925781 39.820312 28.925781 40.085938 C 28.925781 40.347656 29.019531 40.574219 29.207031 40.761719 C 29.398438 40.949219 29.625 41.042969 29.890625 41.042969 L 49.238281 41.042969 C 49.503906 41.042969 49.730469 40.949219 49.921875 40.761719 C 50.109375 40.574219 50.203125 40.347656 50.203125 40.085938 C 50.203125 39.820312 50.109375 39.59375 49.921875 39.40625 C 49.730469 39.21875 49.503906 39.125 49.238281 39.125 Z M 12.480469 42.164062 L 12.480469 47.59375 C 11.351562 47.203125 10.546875 46.144531 10.546875 44.878906 C 10.546875 43.617188 11.351562 42.558594 12.480469 42.164062 Z M 12.480469 42.164062 " fill-opacity="1" fill-rule="nonzero"/></g></svg>