<svg xmlns="http://www.w3.org/2000/svg" xmlns:xlink="http://www.w3.org/1999/xlink" width="100" zoomAndPan="magnify" viewBox="0 0 75 74.999997" height="100" preserveAspectRatio="xMidYMid meet" version="1.0"><defs><clipPath id="0fe2038040"><path d="M 7.5 7.5 L 66 7.5 L 66 66 L 7.5 66 Z M 7.5 7.5 " clip-rule="nonzero"/></clipPath></defs><path fill="#000000" d="M 23.101562 36.75 L 29.519531 36.75 L 32.160156 39.390625 C 32.34375 39.574219 32.589844 39.675781 32.851562 39.675781 L 47.476562 39.675781 C 49.085938 39.675781 50.398438 38.363281 50.398438 36.75 C 50.398438 36 50.105469 35.320312 49.640625 34.800781 C 50.109375 34.28125 50.398438 33.601562 50.398438 32.851562 C 50.398438 32.097656 50.105469 31.417969 49.640625 30.898438 C 50.109375 30.382812 50.398438 29.703125 50.398438 28.949219 C 50.398438 28.195312 50.105469 27.511719 49.628906 26.988281 C 50.003906 26.585938 50.269531 26.089844 50.359375 25.535156 C 50.5 24.675781 50.261719 23.808594 49.703125 23.15625 C 49.148438 22.5 48.335938 22.125 47.476562 22.125 L 41.027344 22.125 L 41.574219 20.484375 C 41.609375 20.382812 41.625 20.28125 41.625 20.175781 L 41.625 16.128906 C 41.625 14.058594 39.941406 12.375 37.871094 12.375 C 36.203125 12.375 34.71875 13.496094 34.261719 15.097656 L 32.976562 19.589844 L 29.601562 22.125 L 23.101562 22.125 C 22.5625 22.125 22.125 22.5625 22.125 23.101562 L 22.125 35.773438 C 22.125 36.3125 22.5625 36.75 23.101562 36.75 Z M 34.410156 20.953125 C 34.582031 20.828125 34.703125 20.648438 34.761719 20.441406 L 36.136719 15.632812 C 36.355469 14.863281 37.070312 14.324219 37.871094 14.324219 C 38.867188 14.324219 39.675781 15.132812 39.675781 16.128906 L 39.675781 20.015625 L 38.75 22.792969 C 38.648438 23.089844 38.699219 23.414062 38.882812 23.671875 C 39.066406 23.925781 39.363281 24.074219 39.675781 24.074219 L 47.476562 24.074219 C 47.761719 24.074219 48.03125 24.199219 48.21875 24.417969 C 48.40625 24.640625 48.484375 24.925781 48.4375 25.21875 C 48.363281 25.671875 47.894531 26.023438 47.371094 26.023438 L 41.625 26.023438 L 41.625 27.976562 L 47.476562 27.976562 C 48.011719 27.976562 48.449219 28.414062 48.449219 28.949219 C 48.449219 29.488281 48.011719 29.925781 47.476562 29.925781 L 41.625 29.925781 L 41.625 31.875 L 47.476562 31.875 C 48.011719 31.875 48.449219 32.3125 48.449219 32.851562 C 48.449219 33.386719 48.011719 33.824219 47.476562 33.824219 L 41.625 33.824219 L 41.625 35.773438 L 47.476562 35.773438 C 48.011719 35.773438 48.449219 36.210938 48.449219 36.75 C 48.449219 37.289062 48.011719 37.726562 47.476562 37.726562 L 33.253906 37.726562 L 30.898438 35.371094 L 30.898438 23.585938 Z M 24.074219 24.074219 L 28.949219 24.074219 L 28.949219 34.800781 L 24.074219 34.800781 Z M 24.074219 24.074219 " fill-opacity="1" fill-rule="nonzero"/><g clip-path="url(#0fe2038040)"><path fill="#000000" d="M 65.023438 58.199219 L 58.917969 58.199219 C 59.191406 57.589844 59.339844 56.925781 59.339844 56.25 C 59.339844 53.667969 57.320312 51.546875 54.78125 51.382812 C 54.101562 49.949219 52.949219 48.824219 51.5625 48.15625 C 56.417969 43.722656 59.175781 37.53125 59.175781 30.898438 C 59.175781 17.996094 48.675781 7.5 35.773438 7.5 C 22.871094 7.5 12.375 17.996094 12.375 30.898438 C 12.375 36.59375 14.410156 41.972656 18.132812 46.234375 C 15.441406 45.050781 12.839844 44.589844 12.707031 44.566406 C 12.441406 44.519531 12.171875 44.582031 11.960938 44.742188 C 11.746094 44.898438 11.605469 45.136719 11.570312 45.402344 C 11.539062 45.65625 10.796875 51.652344 12.675781 54.800781 C 13.410156 56.03125 14.390625 57.1875 15.535156 58.199219 L 8.476562 58.199219 C 7.9375 58.199219 7.5 58.636719 7.5 59.175781 C 7.5 62.941406 10.5625 66 14.324219 66 L 59.175781 66 C 62.9375 66 66 62.941406 66 59.175781 C 66 58.636719 65.5625 58.199219 65.023438 58.199219 Z M 53.214844 52.703125 C 53.363281 53.125 53.796875 53.390625 54.214844 53.355469 L 54.464844 53.324219 C 56.078125 53.324219 57.390625 54.636719 57.390625 56.25 C 57.390625 56.980469 57.121094 57.660156 56.625 58.199219 L 52.160156 58.199219 C 51.976562 58.132812 51.785156 58.128906 51.597656 58.199219 L 47.59375 58.199219 C 47.59375 58.179688 47.589844 58.164062 47.585938 58.144531 C 47.574219 58.015625 47.550781 57.886719 47.535156 57.753906 C 47.507812 57.558594 47.480469 57.363281 47.445312 57.171875 C 47.410156 57.003906 47.371094 56.839844 47.332031 56.671875 C 47.296875 56.523438 47.257812 56.375 47.214844 56.226562 C 47.164062 56.046875 47.109375 55.871094 47.046875 55.695312 C 47.003906 55.570312 46.957031 55.445312 46.910156 55.320312 C 46.839844 55.136719 46.765625 54.957031 46.683594 54.777344 C 46.632812 54.664062 46.578125 54.554688 46.523438 54.445312 C 46.4375 54.265625 46.347656 54.082031 46.246094 53.90625 C 46.191406 53.8125 46.128906 53.71875 46.070312 53.621094 C 45.960938 53.441406 45.851562 53.257812 45.734375 53.085938 C 45.6875 53.019531 45.636719 52.957031 45.585938 52.890625 C 45.265625 52.449219 44.917969 52.027344 44.535156 51.640625 C 44.535156 51.640625 44.539062 51.636719 44.539062 51.636719 C 44.554688 51.613281 44.578125 51.589844 44.59375 51.5625 C 44.699219 51.40625 44.8125 51.257812 44.933594 51.117188 C 44.984375 51.058594 45.039062 51.007812 45.089844 50.953125 C 45.1875 50.851562 45.285156 50.75 45.390625 50.660156 C 45.457031 50.601562 45.523438 50.550781 45.589844 50.496094 C 45.691406 50.414062 45.796875 50.335938 45.90625 50.261719 C 45.976562 50.214844 46.054688 50.167969 46.128906 50.125 C 46.238281 50.058594 46.351562 49.996094 46.46875 49.9375 C 46.546875 49.898438 46.625 49.859375 46.707031 49.824219 C 46.828125 49.773438 46.953125 49.726562 47.078125 49.6875 C 47.160156 49.660156 47.238281 49.628906 47.320312 49.609375 C 47.457031 49.570312 47.601562 49.542969 47.746094 49.515625 C 47.816406 49.5 47.886719 49.484375 47.957031 49.472656 C 48.171875 49.441406 48.390625 49.425781 48.613281 49.425781 C 48.875 49.425781 49.144531 49.449219 49.4375 49.5 C 51.164062 49.796875 52.625 51.007812 53.214844 52.703125 Z M 23.429688 58.199219 C 23.351562 58.121094 23.273438 58.042969 23.199219 57.953125 C 23.113281 57.855469 23.027344 57.757812 22.945312 57.648438 C 22.835938 57.511719 22.734375 57.359375 22.628906 57.207031 C 22.542969 57.082031 22.457031 56.957031 22.375 56.824219 C 22.277344 56.667969 22.1875 56.5 22.097656 56.335938 C 22.015625 56.1875 21.933594 56.039062 21.855469 55.882812 C 21.769531 55.710938 21.691406 55.535156 21.613281 55.359375 C 21.539062 55.191406 21.464844 55.027344 21.394531 54.851562 C 21.320312 54.667969 21.257812 54.476562 21.1875 54.289062 C 21.125 54.113281 21.058594 53.9375 21.003906 53.761719 C 20.9375 53.554688 20.886719 53.347656 20.832031 53.140625 C 20.785156 52.96875 20.730469 52.800781 20.691406 52.628906 C 20.632812 52.386719 20.59375 52.148438 20.546875 51.90625 C 20.519531 51.765625 20.488281 51.621094 20.464844 51.480469 C 20.40625 51.097656 20.363281 50.714844 20.339844 50.339844 C 20.320312 50.050781 20.328125 49.734375 20.363281 49.398438 C 20.363281 49.394531 20.363281 49.394531 20.367188 49.390625 C 20.402344 49.050781 20.464844 48.691406 20.554688 48.3125 C 20.558594 48.300781 20.554688 48.292969 20.558594 48.28125 C 20.648438 47.914062 20.757812 47.542969 20.886719 47.171875 C 20.894531 47.152344 20.90625 47.136719 20.910156 47.117188 C 21.609375 45.113281 22.769531 43.164062 23.46875 42.089844 C 24.074219 42.621094 24.953125 43.449219 25.839844 44.457031 C 25.902344 44.53125 25.96875 44.601562 26.03125 44.675781 C 26.042969 44.6875 26.050781 44.695312 26.058594 44.707031 C 27.632812 46.558594 29.152344 48.96875 29.117188 51.359375 C 29.113281 51.515625 29.105469 51.675781 29.09375 51.835938 C 28.953125 51.988281 28.824219 52.144531 28.695312 52.296875 C 28.671875 52.324219 28.648438 52.351562 28.625 52.378906 C 27.972656 53.171875 27.445312 54.046875 27.046875 54.980469 C 27.035156 55.007812 27.023438 55.039062 27.011719 55.066406 C 26.898438 55.339844 26.796875 55.617188 26.707031 55.898438 C 26.683594 55.964844 26.664062 56.035156 26.644531 56.105469 C 26.570312 56.351562 26.507812 56.601562 26.449219 56.855469 C 26.429688 56.945312 26.410156 57.03125 26.394531 57.121094 C 26.34375 57.375 26.308594 57.632812 26.277344 57.890625 C 26.265625 57.972656 26.253906 58.050781 26.246094 58.132812 C 26.242188 58.15625 26.238281 58.179688 26.234375 58.203125 L 23.429688 58.203125 Z M 28.242188 57.882812 C 28.265625 57.71875 28.289062 57.554688 28.320312 57.394531 C 28.324219 57.371094 28.332031 57.351562 28.335938 57.328125 C 28.554688 56.324219 28.941406 55.382812 29.46875 54.539062 C 29.492188 54.503906 29.511719 54.464844 29.535156 54.429688 C 29.644531 54.265625 29.761719 54.105469 29.878906 53.945312 C 29.925781 53.882812 29.972656 53.816406 30.023438 53.753906 C 30.128906 53.613281 30.246094 53.480469 30.363281 53.347656 C 30.417969 53.289062 30.472656 53.230469 30.527344 53.171875 C 30.527344 53.167969 30.53125 53.167969 30.53125 53.167969 C 30.738281 52.945312 30.953125 52.742188 31.179688 52.546875 C 31.195312 52.53125 31.214844 52.519531 31.230469 52.503906 C 31.421875 52.339844 31.621094 52.183594 31.824219 52.039062 C 31.890625 51.988281 31.964844 51.941406 32.035156 51.894531 C 32.1875 51.789062 32.34375 51.691406 32.5 51.601562 C 32.605469 51.539062 32.710938 51.480469 32.816406 51.421875 C 32.949219 51.355469 33.082031 51.289062 33.214844 51.226562 C 33.339844 51.167969 33.46875 51.105469 33.601562 51.054688 C 33.722656 51.003906 33.847656 50.957031 33.972656 50.914062 C 34.113281 50.863281 34.25 50.8125 34.394531 50.769531 C 34.523438 50.730469 34.65625 50.699219 34.789062 50.667969 C 34.929688 50.632812 35.066406 50.59375 35.207031 50.566406 C 35.371094 50.535156 35.535156 50.511719 35.695312 50.492188 C 35.8125 50.472656 35.929688 50.453125 36.046875 50.441406 C 36.332031 50.414062 36.621094 50.398438 36.914062 50.398438 C 37.183594 50.398438 37.453125 50.414062 37.71875 50.4375 C 37.894531 50.453125 38.066406 50.484375 38.242188 50.507812 C 38.324219 50.523438 38.410156 50.53125 38.496094 50.546875 C 38.714844 50.585938 38.933594 50.636719 39.152344 50.695312 C 39.183594 50.707031 39.21875 50.710938 39.25 50.722656 C 39.488281 50.785156 39.722656 50.863281 39.953125 50.949219 C 39.964844 50.953125 39.976562 50.957031 39.988281 50.960938 C 40.226562 51.050781 40.460938 51.152344 40.691406 51.261719 C 40.695312 51.265625 40.703125 51.265625 40.707031 51.269531 C 40.9375 51.378906 41.164062 51.503906 41.382812 51.632812 C 41.386719 51.636719 41.394531 51.640625 41.398438 51.640625 C 41.617188 51.773438 41.828125 51.914062 42.035156 52.0625 C 42.042969 52.066406 42.050781 52.070312 42.058594 52.074219 C 42.261719 52.226562 42.460938 52.382812 42.652344 52.550781 C 42.660156 52.558594 42.671875 52.566406 42.679688 52.570312 C 43.148438 52.984375 43.570312 53.441406 43.941406 53.933594 C 43.957031 53.953125 43.96875 53.976562 43.984375 53.996094 C 44.144531 54.214844 44.292969 54.441406 44.433594 54.671875 C 44.460938 54.714844 44.484375 54.761719 44.511719 54.808594 C 44.636719 55.023438 44.75 55.238281 44.851562 55.460938 C 44.878906 55.515625 44.902344 55.570312 44.925781 55.625 C 45.027344 55.847656 45.117188 56.078125 45.199219 56.3125 C 45.214844 56.363281 45.234375 56.410156 45.253906 56.460938 C 45.335938 56.714844 45.40625 56.976562 45.464844 57.238281 C 45.472656 57.269531 45.480469 57.296875 45.488281 57.328125 C 45.550781 57.613281 45.597656 57.90625 45.632812 58.199219 L 28.195312 58.199219 C 28.207031 58.09375 28.226562 57.988281 28.242188 57.882812 Z M 35.773438 9.449219 C 47.601562 9.449219 57.226562 19.074219 57.226562 30.898438 C 57.226562 37.382812 54.355469 43.417969 49.332031 47.515625 C 49.207031 47.503906 49.085938 47.507812 48.960938 47.5 C 48.84375 47.496094 48.730469 47.476562 48.613281 47.476562 C 48.582031 47.476562 48.550781 47.480469 48.519531 47.480469 C 48.253906 47.484375 47.996094 47.507812 47.738281 47.539062 C 47.699219 47.542969 47.65625 47.542969 47.617188 47.550781 C 46.023438 47.777344 44.59375 48.570312 43.539062 49.75 C 43.46875 49.828125 43.410156 49.917969 43.339844 50 C 43.238281 50.125 43.128906 50.242188 43.035156 50.378906 C 43.027344 50.375 43.019531 50.371094 43.015625 50.367188 C 42.867188 50.265625 42.71875 50.171875 42.566406 50.078125 C 42.457031 50.011719 42.347656 49.941406 42.234375 49.878906 C 42.082031 49.789062 41.925781 49.707031 41.765625 49.625 C 41.648438 49.566406 41.53125 49.507812 41.414062 49.453125 C 41.253906 49.378906 41.09375 49.304688 40.929688 49.238281 C 40.789062 49.179688 40.640625 49.132812 40.496094 49.078125 C 40.253906 48.996094 40.011719 48.917969 39.765625 48.847656 C 39.585938 48.800781 39.410156 48.75 39.226562 48.710938 C 39.097656 48.679688 38.964844 48.65625 38.828125 48.632812 C 38.628906 48.59375 38.429688 48.566406 38.226562 48.539062 C 38.109375 48.527344 38 48.511719 37.882812 48.5 C 37.5625 48.46875 37.238281 48.449219 36.914062 48.449219 C 36.578125 48.449219 36.25 48.472656 35.921875 48.5 C 35.839844 48.507812 35.757812 48.519531 35.675781 48.527344 C 35.402344 48.558594 35.128906 48.601562 34.859375 48.652344 C 34.808594 48.664062 34.757812 48.671875 34.707031 48.683594 C 34.050781 48.820312 33.414062 49.019531 32.800781 49.273438 C 32.757812 49.292969 32.714844 49.3125 32.671875 49.328125 C 32.402344 49.445312 32.140625 49.574219 31.878906 49.710938 C 31.84375 49.730469 31.808594 49.746094 31.773438 49.765625 C 31.507812 49.914062 31.246094 50.070312 30.992188 50.238281 C 30.945312 49.898438 30.878906 49.558594 30.789062 49.222656 C 30.78125 49.183594 30.765625 49.144531 30.753906 49.101562 C 30.671875 48.800781 30.578125 48.5 30.46875 48.203125 C 30.421875 48.085938 30.371094 47.96875 30.320312 47.855469 C 30.234375 47.636719 30.144531 47.421875 30.042969 47.210938 C 29.980469 47.078125 29.910156 46.949219 29.84375 46.820312 C 29.742188 46.628906 29.644531 46.441406 29.539062 46.253906 C 29.460938 46.121094 29.378906 45.988281 29.296875 45.855469 C 29.191406 45.683594 29.085938 45.507812 28.972656 45.339844 C 28.882812 45.207031 28.792969 45.078125 28.703125 44.949219 C 28.589844 44.789062 28.476562 44.628906 28.359375 44.476562 C 28.265625 44.347656 28.171875 44.222656 28.074219 44.101562 C 27.957031 43.953125 27.839844 43.804688 27.722656 43.664062 C 27.625 43.542969 27.527344 43.429688 27.425781 43.3125 C 27.308594 43.175781 27.195312 43.042969 27.078125 42.914062 C 26.976562 42.804688 26.882812 42.699219 26.78125 42.59375 C 26.667969 42.46875 26.554688 42.347656 26.441406 42.234375 C 26.347656 42.132812 26.25 42.035156 26.15625 41.941406 C 26.046875 41.832031 25.941406 41.726562 25.835938 41.625 C 25.746094 41.539062 25.65625 41.449219 25.570312 41.367188 C 25.46875 41.273438 25.375 41.1875 25.28125 41.097656 C 25.199219 41.023438 25.117188 40.949219 25.039062 40.878906 C 24.949219 40.796875 24.871094 40.726562 24.789062 40.65625 C 24.71875 40.59375 24.648438 40.53125 24.582031 40.476562 C 24.507812 40.410156 24.445312 40.359375 24.375 40.304688 C 24.324219 40.257812 24.269531 40.210938 24.222656 40.175781 C 24.15625 40.121094 24.109375 40.085938 24.0625 40.042969 C 24.03125 40.019531 23.996094 39.992188 23.972656 39.972656 C 23.910156 39.921875 23.867188 39.890625 23.851562 39.875 C 23.640625 39.71875 23.378906 39.648438 23.121094 39.6875 C 23.121094 39.6875 23.117188 39.6875 23.117188 39.6875 C 23.0625 39.695312 23.011719 39.726562 22.957031 39.746094 C 22.890625 39.765625 22.816406 39.78125 22.753906 39.816406 C 22.753906 39.816406 22.75 39.820312 22.746094 39.824219 C 22.640625 39.886719 22.546875 39.972656 22.472656 40.074219 C 22.378906 40.203125 21.179688 41.859375 20.101562 44.03125 C 20.097656 44.039062 20.09375 44.046875 20.089844 44.054688 C 19.945312 44.347656 19.804688 44.644531 19.671875 44.949219 C 19.660156 44.972656 19.648438 44.992188 19.640625 45.015625 C 16.203125 41.097656 14.324219 36.140625 14.324219 30.898438 C 14.324219 19.074219 23.949219 9.449219 35.773438 9.449219 Z M 14.351562 53.800781 C 13.300781 52.042969 13.273438 48.699219 13.40625 46.710938 C 14.605469 47 16.65625 47.589844 18.507812 48.582031 C 18.503906 48.605469 18.503906 48.628906 18.5 48.65625 C 18.457031 48.902344 18.433594 49.144531 18.414062 49.390625 C 18.40625 49.453125 18.394531 49.523438 18.390625 49.582031 C 18.375 49.882812 18.371094 50.175781 18.390625 50.464844 C 18.417969 50.871094 18.464844 51.28125 18.527344 51.691406 C 18.546875 51.816406 18.566406 51.9375 18.589844 52.058594 C 18.640625 52.363281 18.703125 52.664062 18.773438 52.96875 C 18.800781 53.089844 18.828125 53.210938 18.859375 53.335938 C 18.953125 53.710938 19.058594 54.082031 19.175781 54.445312 C 19.1875 54.480469 19.195312 54.515625 19.207031 54.546875 C 19.339844 54.945312 19.488281 55.335938 19.644531 55.714844 C 19.6875 55.824219 19.734375 55.925781 19.78125 56.035156 C 19.902344 56.308594 20.027344 56.574219 20.160156 56.835938 C 20.214844 56.949219 20.273438 57.058594 20.332031 57.171875 C 20.480469 57.449219 20.636719 57.71875 20.800781 57.976562 C 20.839844 58.039062 20.878906 58.105469 20.917969 58.167969 C 20.925781 58.179688 20.929688 58.191406 20.9375 58.199219 L 18.78125 58.199219 C 16.957031 57.066406 15.351562 55.476562 14.351562 53.800781 Z M 59.175781 64.050781 L 14.324219 64.050781 C 11.96875 64.050781 10 62.371094 9.546875 60.148438 L 63.953125 60.148438 C 63.5 62.371094 61.53125 64.050781 59.175781 64.050781 Z M 59.175781 64.050781 " fill-opacity="1" fill-rule="nonzero"/></g><path fill="#000000" d="M 35.9375 52.351562 L 37.890625 52.351562 L 37.890625 55.273438 L 35.9375 55.273438 Z M 35.9375 52.351562 " fill-opacity="1" fill-rule="nonzero"/><path fill="#000000" d="M 30.375 54.988281 L 31.753906 53.609375 L 33.703125 55.558594 L 32.324219 56.9375 Z M 30.375 54.988281 " fill-opacity="1" fill-rule="nonzero"/><path fill="#000000" d="M 40.125 55.558594 L 42.074219 53.609375 L 43.453125 54.988281 L 41.503906 56.9375 Z M 40.125 55.558594 " fill-opacity="1" fill-rule="nonzero"/></svg>