<svg xmlns="http://www.w3.org/2000/svg" xmlns:xlink="http://www.w3.org/1999/xlink" width="100" zoomAndPan="magnify" viewBox="0 0 75 74.999997" height="100" preserveAspectRatio="xMidYMid meet" version="1.0"><defs><clipPath id="946fd900cc"><path d="M 9 8.398438 L 54 8.398438 L 54 63.148438 L 9 63.148438 Z M 9 8.398438 " clip-rule="nonzero"/></clipPath><clipPath id="370fd2f2f5"><path d="M 56 8.398438 L 63.75 8.398438 L 63.75 63.148438 L 56 63.148438 Z M 56 8.398438 " clip-rule="nonzero"/></clipPath></defs><g clip-path="url(#946fd900cc)"><path fill="#000000" d="M 12.648438 62.238281 C 12.648438 62.742188 13.058594 63.148438 13.5625 63.148438 L 52.800781 63.148438 C 53.304688 63.148438 53.710938 62.742188 53.710938 62.238281 L 53.710938 9.3125 C 53.710938 8.808594 53.304688 8.398438 52.800781 8.398438 L 13.5625 8.398438 C 13.058594 8.398438 12.648438 8.808594 12.648438 9.3125 L 12.648438 14.789062 L 11.738281 14.789062 C 10.226562 14.789062 9 16.015625 9 17.523438 C 9 19.035156 10.226562 20.261719 11.738281 20.261719 L 12.648438 20.261719 L 12.648438 23.914062 L 11.738281 23.914062 C 10.226562 23.914062 9 25.140625 9 26.648438 C 9 28.160156 10.226562 29.386719 11.738281 29.386719 L 12.648438 29.386719 L 12.648438 33.039062 L 11.738281 33.039062 C 10.226562 33.039062 9 34.265625 9 35.773438 C 9 37.285156 10.226562 38.511719 11.738281 38.511719 L 12.648438 38.511719 L 12.648438 42.164062 L 11.738281 42.164062 C 10.226562 42.164062 9 43.390625 9 44.898438 C 9 46.410156 10.226562 47.636719 11.738281 47.636719 L 12.648438 47.636719 L 12.648438 51.289062 L 11.738281 51.289062 C 10.226562 51.289062 9 52.515625 9 54.023438 C 9 55.535156 10.226562 56.761719 11.738281 56.761719 L 12.648438 56.761719 Z M 11.738281 18.4375 C 11.234375 18.4375 10.824219 18.027344 10.824219 17.523438 C 10.824219 17.023438 11.234375 16.613281 11.738281 16.613281 L 12.648438 16.613281 L 12.648438 18.4375 Z M 14.476562 16.613281 L 17.210938 16.613281 C 17.714844 16.613281 18.125 17.023438 18.125 17.523438 C 18.125 18.027344 17.714844 18.4375 17.210938 18.4375 L 14.476562 18.4375 Z M 11.738281 27.5625 C 11.234375 27.5625 10.824219 27.152344 10.824219 26.648438 C 10.824219 26.148438 11.234375 25.738281 11.738281 25.738281 L 12.648438 25.738281 L 12.648438 27.5625 Z M 14.476562 25.738281 L 17.210938 25.738281 C 17.714844 25.738281 18.125 26.148438 18.125 26.648438 C 18.125 27.152344 17.714844 27.5625 17.210938 27.5625 L 14.476562 27.5625 Z M 11.738281 36.6875 C 11.234375 36.6875 10.824219 36.277344 10.824219 35.773438 C 10.824219 35.273438 11.234375 34.863281 11.738281 34.863281 L 12.648438 34.863281 L 12.648438 36.6875 Z M 14.476562 34.863281 L 17.210938 34.863281 C 17.714844 34.863281 18.125 35.273438 18.125 35.773438 C 18.125 36.277344 17.714844 36.6875 17.210938 36.6875 L 14.476562 36.6875 Z M 11.738281 45.8125 C 11.234375 45.8125 10.824219 45.402344 10.824219 44.898438 C 10.824219 44.398438 11.234375 43.988281 11.738281 43.988281 L 12.648438 43.988281 L 12.648438 45.8125 Z M 14.476562 43.988281 L 17.210938 43.988281 C 17.714844 43.988281 18.125 44.398438 18.125 44.898438 C 18.125 45.402344 17.714844 45.8125 17.210938 45.8125 L 14.476562 45.8125 Z M 14.476562 47.636719 L 17.210938 47.636719 C 18.722656 47.636719 19.949219 46.410156 19.949219 44.898438 C 19.949219 43.390625 18.722656 42.164062 17.210938 42.164062 L 14.476562 42.164062 L 14.476562 38.511719 L 17.210938 38.511719 C 18.722656 38.511719 19.949219 37.285156 19.949219 35.773438 C 19.949219 34.265625 18.722656 33.039062 17.210938 33.039062 L 14.476562 33.039062 L 14.476562 29.386719 L 17.210938 29.386719 C 18.722656 29.386719 19.949219 28.160156 19.949219 26.648438 C 19.949219 25.140625 18.722656 23.914062 17.210938 23.914062 L 14.476562 23.914062 L 14.476562 20.261719 L 17.210938 20.261719 C 18.722656 20.261719 19.949219 19.035156 19.949219 17.523438 C 19.949219 16.015625 18.722656 14.789062 17.210938 14.789062 L 14.476562 14.789062 L 14.476562 10.226562 L 51.886719 10.226562 L 51.886719 61.324219 L 14.476562 61.324219 L 14.476562 56.761719 L 17.210938 56.761719 C 18.722656 56.761719 19.949219 55.535156 19.949219 54.023438 C 19.949219 52.515625 18.722656 51.289062 17.210938 51.289062 L 14.476562 51.289062 Z M 14.476562 54.9375 L 14.476562 53.113281 L 17.210938 53.113281 C 17.714844 53.113281 18.125 53.523438 18.125 54.023438 C 18.125 54.527344 17.714844 54.9375 17.210938 54.9375 Z M 11.738281 54.9375 C 11.234375 54.9375 10.824219 54.527344 10.824219 54.023438 C 10.824219 53.523438 11.234375 53.113281 11.738281 53.113281 L 12.648438 53.113281 L 12.648438 54.9375 Z M 11.738281 54.9375 " fill-opacity="1" fill-rule="nonzero"/></g><g clip-path="url(#370fd2f2f5)"><path fill="#000000" d="M 60.101562 8.398438 C 58.085938 8.398438 56.449219 10.035156 56.449219 12.050781 L 56.449219 59.5 C 56.449219 59.742188 56.546875 59.972656 56.71875 60.144531 L 59.453125 62.882812 C 59.632812 63.0625 59.867188 63.148438 60.101562 63.148438 C 60.332031 63.148438 60.566406 63.0625 60.746094 62.882812 L 63.484375 60.144531 C 63.652344 59.972656 63.75 59.742188 63.75 59.5 L 63.75 12.050781 C 63.75 10.035156 62.113281 8.398438 60.101562 8.398438 Z M 60.101562 10.226562 C 61.105469 10.226562 61.925781 11.042969 61.925781 12.050781 L 61.925781 30.300781 L 58.273438 30.300781 L 58.273438 12.050781 C 58.273438 11.042969 59.09375 10.226562 60.101562 10.226562 Z M 61.925781 32.125 L 61.925781 33.949219 L 58.273438 33.949219 L 58.273438 32.125 Z M 60.101562 60.945312 L 58.273438 59.121094 L 58.273438 35.773438 L 61.925781 35.773438 L 61.925781 59.121094 Z M 60.101562 60.945312 " fill-opacity="1" fill-rule="nonzero"/></g><path fill="#000000" d="M 59.1875 13.875 L 61.011719 13.875 L 61.011719 23.914062 L 59.1875 23.914062 Z M 59.1875 13.875 " fill-opacity="1" fill-rule="nonzero"/><path fill="#000000" d="M 33.972656 44.695312 C 34.140625 44.832031 34.34375 44.898438 34.550781 44.898438 C 34.753906 44.898438 34.960938 44.832031 35.128906 44.695312 L 42.339844 38.792969 C 44.296875 37.191406 44.675781 34.328125 43.207031 32.273438 C 42.433594 31.1875 41.230469 30.46875 39.90625 30.296875 C 38.585938 30.128906 37.238281 30.519531 36.214844 31.375 L 34.550781 32.761719 L 32.882812 31.375 C 31.859375 30.523438 30.519531 30.128906 29.191406 30.300781 C 27.871094 30.46875 26.664062 31.191406 25.890625 32.273438 C 24.425781 34.328125 24.804688 37.191406 26.761719 38.792969 Z M 27.375 33.335938 C 27.863281 32.652344 28.59375 32.214844 29.425781 32.109375 C 29.554688 32.09375 29.6875 32.082031 29.816406 32.082031 C 30.507812 32.082031 31.171875 32.324219 31.714844 32.777344 L 33.964844 34.652344 C 34.304688 34.933594 34.792969 34.933594 35.132812 34.652344 L 37.382812 32.777344 C 38.027344 32.238281 38.839844 32 39.675781 32.109375 C 40.507812 32.214844 41.234375 32.652344 41.722656 33.335938 C 42.632812 34.609375 42.398438 36.386719 41.183594 37.382812 L 34.550781 42.808594 L 27.914062 37.378906 C 26.703125 36.386719 26.464844 34.609375 27.375 33.335938 Z M 27.375 33.335938 " fill-opacity="1" fill-rule="nonzero"/><path fill="#000000" d="M 34.550781 50.375 C 42.097656 50.375 48.238281 44.234375 48.238281 36.6875 C 48.238281 29.140625 42.097656 23 34.550781 23 C 27.003906 23 20.863281 29.140625 20.863281 36.6875 C 20.863281 44.234375 27.003906 50.375 34.550781 50.375 Z M 34.550781 24.824219 C 41.089844 24.824219 46.414062 30.148438 46.414062 36.6875 C 46.414062 43.226562 41.089844 48.550781 34.550781 48.550781 C 28.007812 48.550781 22.6875 43.226562 22.6875 36.6875 C 22.6875 30.148438 28.007812 24.824219 34.550781 24.824219 Z M 34.550781 24.824219 " fill-opacity="1" fill-rule="nonzero"/></svg>