<svg xmlns="http://www.w3.org/2000/svg" xmlns:xlink="http://www.w3.org/1999/xlink" width="100" zoomAndPan="magnify" viewBox="0 0 75 74.999997" height="100" preserveAspectRatio="xMidYMid meet" version="1.0"><defs><clipPath id="866fafe091"><path d="M 15.355469 10.941406 L 59.605469 10.941406 L 59.605469 64.191406 L 15.355469 64.191406 Z M 15.355469 10.941406 " clip-rule="nonzero"/></clipPath></defs><g clip-path="url(#866fafe091)"><path fill="#040606" d="M 45.441406 22.480469 L 45.441406 61.527344 C 45.441406 62.019531 45.042969 62.417969 44.558594 62.417969 L 35.714844 62.417969 L 35.714844 55.316406 C 35.714844 54.339844 34.917969 53.542969 33.945312 53.542969 L 28.636719 53.542969 C 27.664062 53.542969 26.867188 54.339844 26.867188 55.316406 L 26.867188 62.417969 L 18.023438 62.417969 C 17.535156 62.417969 17.140625 62.019531 17.140625 61.527344 L 17.140625 22.480469 C 17.140625 21.992188 17.535156 21.589844 18.023438 21.589844 L 44.558594 21.589844 C 45.042969 21.589844 45.441406 21.992188 45.441406 22.480469 Z M 56.054688 26.027344 C 57.03125 26.027344 57.824219 26.828125 57.824219 27.804688 L 57.824219 54.429688 C 57.824219 55.40625 57.03125 56.203125 56.054688 56.203125 L 47.210938 56.203125 L 47.210938 26.027344 Z M 33.945312 62.417969 L 28.636719 62.417969 L 28.636719 55.316406 L 33.945312 55.316406 Z M 26.867188 14.824219 C 26.867188 13.664062 27.757812 12.714844 28.847656 12.714844 C 29.535156 12.714844 30.164062 13.085938 30.53125 13.707031 C 30.847656 14.246094 31.734375 14.246094 32.050781 13.707031 C 32.417969 13.085938 33.046875 12.714844 33.734375 12.714844 C 34.824219 12.714844 35.714844 13.664062 35.714844 14.824219 C 35.714844 17.550781 32.34375 19.269531 31.289062 19.742188 C 30.238281 19.269531 26.867188 17.550781 26.867188 14.824219 Z M 15.371094 22.480469 L 15.371094 61.527344 C 15.371094 63 16.558594 64.191406 18.023438 64.191406 L 44.558594 64.191406 C 46.023438 64.191406 47.210938 63 47.210938 61.527344 L 47.210938 57.980469 L 56.054688 57.980469 C 58.007812 57.980469 59.59375 56.386719 59.59375 54.429688 L 59.59375 27.804688 C 59.59375 25.84375 58.007812 24.253906 56.054688 24.253906 L 47.210938 24.253906 L 47.210938 22.480469 C 47.210938 21.007812 46.023438 19.816406 44.558594 19.816406 L 34.628906 19.816406 C 36.070312 18.707031 37.480469 17.050781 37.480469 14.824219 C 37.480469 12.683594 35.800781 10.941406 33.734375 10.941406 C 32.816406 10.941406 31.960938 11.277344 31.289062 11.875 C 30.621094 11.277344 29.765625 10.941406 28.847656 10.941406 C 26.78125 10.941406 25.101562 12.683594 25.101562 14.824219 C 25.101562 17.050781 26.511719 18.707031 27.953125 19.816406 L 18.023438 19.816406 C 16.558594 19.816406 15.371094 21.007812 15.371094 22.480469 " fill-opacity="1" fill-rule="nonzero"/></g><path fill="#040606" d="M 20.675781 29.578125 L 20.675781 26.027344 L 24.214844 26.027344 L 24.21875 29.578125 Z M 24.214844 24.253906 L 20.675781 24.253906 C 19.703125 24.253906 18.910156 25.050781 18.910156 26.027344 L 18.910156 29.578125 C 18.910156 30.558594 19.703125 31.355469 20.675781 31.355469 L 24.214844 31.355469 C 25.191406 31.355469 25.984375 30.558594 25.984375 29.578125 L 25.984375 26.027344 C 25.984375 25.050781 25.191406 24.253906 24.214844 24.253906 " fill-opacity="1" fill-rule="nonzero"/><path fill="#040606" d="M 38.367188 26.027344 L 41.902344 26.027344 L 41.90625 29.578125 L 38.367188 29.578125 Z M 38.367188 31.355469 L 41.902344 31.355469 C 42.878906 31.355469 43.671875 30.558594 43.671875 29.578125 L 43.671875 26.027344 C 43.671875 25.050781 42.878906 24.253906 41.902344 24.253906 L 38.367188 24.253906 C 37.390625 24.253906 36.597656 25.050781 36.597656 26.027344 L 36.597656 29.578125 C 36.597656 30.558594 37.390625 31.355469 38.367188 31.355469 " fill-opacity="1" fill-rule="nonzero"/><path fill="#040606" d="M 33.0625 29.578125 L 29.523438 29.578125 L 29.523438 26.027344 L 33.058594 26.027344 Z M 27.753906 26.027344 L 27.753906 29.578125 C 27.753906 30.558594 28.546875 31.355469 29.523438 31.355469 L 33.058594 31.355469 C 34.035156 31.355469 34.828125 30.558594 34.828125 29.578125 L 34.828125 26.027344 C 34.828125 25.050781 34.035156 24.253906 33.058594 24.253906 L 29.523438 24.253906 C 28.546875 24.253906 27.753906 25.050781 27.753906 26.027344 " fill-opacity="1" fill-rule="nonzero"/><path fill="#040606" d="M 20.675781 39.339844 L 20.675781 35.792969 L 24.214844 35.792969 L 24.21875 39.339844 Z M 24.214844 34.015625 L 20.675781 34.015625 C 19.703125 34.015625 18.910156 34.8125 18.910156 35.792969 L 18.910156 39.339844 C 18.910156 40.320312 19.703125 41.117188 20.675781 41.117188 L 24.214844 41.117188 C 25.191406 41.117188 25.984375 40.320312 25.984375 39.339844 L 25.984375 35.792969 C 25.984375 34.8125 25.191406 34.015625 24.214844 34.015625 " fill-opacity="1" fill-rule="nonzero"/><path fill="#040606" d="M 38.367188 35.792969 L 41.902344 35.792969 L 41.90625 39.339844 L 38.367188 39.339844 Z M 38.367188 41.117188 L 41.902344 41.117188 C 42.878906 41.117188 43.671875 40.320312 43.671875 39.339844 L 43.671875 35.792969 C 43.671875 34.8125 42.878906 34.015625 41.902344 34.015625 L 38.367188 34.015625 C 37.390625 34.015625 36.597656 34.8125 36.597656 35.792969 L 36.597656 39.339844 C 36.597656 40.320312 37.390625 41.117188 38.367188 41.117188 " fill-opacity="1" fill-rule="nonzero"/><path fill="#040606" d="M 29.523438 39.339844 L 29.523438 35.792969 L 33.058594 35.792969 L 33.0625 39.339844 Z M 33.058594 34.015625 L 29.523438 34.015625 C 28.546875 34.015625 27.753906 34.8125 27.753906 35.792969 L 27.753906 39.339844 C 27.753906 40.320312 28.546875 41.117188 29.523438 41.117188 L 33.058594 41.117188 C 34.035156 41.117188 34.828125 40.320312 34.828125 39.339844 L 34.828125 35.792969 C 34.828125 34.8125 34.035156 34.015625 33.058594 34.015625 " fill-opacity="1" fill-rule="nonzero"/><path fill="#040606" d="M 20.675781 49.105469 L 20.675781 45.554688 L 24.214844 45.554688 L 24.21875 49.105469 Z M 24.214844 43.777344 L 20.675781 43.777344 C 19.703125 43.777344 18.910156 44.578125 18.910156 45.554688 L 18.910156 49.105469 C 18.910156 50.082031 19.703125 50.878906 20.675781 50.878906 L 24.214844 50.878906 C 25.191406 50.878906 25.984375 50.082031 25.984375 49.105469 L 25.984375 45.554688 C 25.984375 44.578125 25.191406 43.777344 24.214844 43.777344 " fill-opacity="1" fill-rule="nonzero"/><path fill="#040606" d="M 38.367188 45.554688 L 41.902344 45.554688 L 41.90625 49.105469 L 38.367188 49.105469 Z M 38.367188 50.878906 L 41.902344 50.878906 C 42.878906 50.878906 43.671875 50.082031 43.671875 49.105469 L 43.671875 45.554688 C 43.671875 44.578125 42.878906 43.777344 41.902344 43.777344 L 38.367188 43.777344 C 37.390625 43.777344 36.597656 44.578125 36.597656 45.554688 L 36.597656 49.105469 C 36.597656 50.082031 37.390625 50.878906 38.367188 50.878906 " fill-opacity="1" fill-rule="nonzero"/><path fill="#040606" d="M 29.523438 49.105469 L 29.523438 45.554688 L 33.058594 45.554688 L 33.0625 49.105469 Z M 33.058594 43.777344 L 29.523438 43.777344 C 28.546875 43.777344 27.753906 44.578125 27.753906 45.554688 L 27.753906 49.105469 C 27.753906 50.082031 28.546875 50.878906 29.523438 50.878906 L 33.058594 50.878906 C 34.035156 50.878906 34.828125 50.082031 34.828125 49.105469 L 34.828125 45.554688 C 34.828125 44.578125 34.035156 43.777344 33.058594 43.777344 " fill-opacity="1" fill-rule="nonzero"/><path fill="#040606" d="M 51.707031 31.777344 C 51.851562 31.699219 51.976562 31.574219 52.054688 31.425781 L 52.519531 30.582031 L 52.980469 31.425781 C 53.058594 31.574219 53.183594 31.699219 53.328125 31.777344 L 54.171875 32.242188 L 53.328125 32.707031 C 53.183594 32.785156 53.058594 32.910156 52.980469 33.054688 L 52.519531 33.902344 L 52.054688 33.054688 C 51.976562 32.910156 51.851562 32.785156 51.707031 32.707031 L 50.863281 32.242188 Z M 49.84375 33.707031 L 50.628906 34.136719 L 51.054688 34.921875 C 51.351562 35.457031 51.910156 35.792969 52.519531 35.792969 C 53.125 35.792969 53.683594 35.457031 53.980469 34.925781 L 54.40625 34.136719 L 55.1875 33.707031 C 55.722656 33.414062 56.054688 32.851562 56.054688 32.242188 C 56.054688 31.632812 55.722656 31.070312 55.191406 30.773438 L 54.40625 30.34375 L 53.980469 29.5625 C 53.683594 29.023438 53.125 28.691406 52.519531 28.691406 C 51.910156 28.691406 51.351562 29.023438 51.054688 29.558594 L 50.628906 30.34375 L 49.847656 30.773438 C 49.3125 31.070312 48.980469 31.632812 48.980469 32.242188 C 48.980469 32.851562 49.3125 33.414062 49.84375 33.707031 " fill-opacity="1" fill-rule="nonzero"/><path fill="#040606" d="M 51.707031 40.652344 C 51.851562 40.574219 51.976562 40.449219 52.054688 40.300781 L 52.519531 39.457031 L 52.980469 40.300781 C 53.058594 40.449219 53.183594 40.574219 53.328125 40.652344 L 54.171875 41.117188 L 53.328125 41.582031 C 53.183594 41.660156 53.058594 41.785156 52.980469 41.929688 L 52.519531 42.777344 L 52.054688 41.929688 C 51.976562 41.785156 51.851562 41.660156 51.707031 41.582031 L 50.863281 41.117188 Z M 49.84375 42.582031 L 50.628906 43.011719 L 51.054688 43.796875 C 51.351562 44.332031 51.910156 44.667969 52.519531 44.667969 C 53.125 44.667969 53.683594 44.332031 53.980469 43.800781 L 54.40625 43.011719 L 55.1875 42.582031 C 55.722656 42.289062 56.054688 41.726562 56.054688 41.117188 C 56.054688 40.507812 55.722656 39.945312 55.191406 39.648438 L 54.40625 39.21875 L 53.980469 38.4375 C 53.683594 37.898438 53.125 37.566406 52.519531 37.566406 C 51.910156 37.566406 51.351562 37.898438 51.054688 38.433594 L 50.628906 39.21875 L 49.847656 39.648438 C 49.3125 39.945312 48.980469 40.507812 48.980469 41.117188 C 48.980469 41.726562 49.3125 42.289062 49.84375 42.582031 " fill-opacity="1" fill-rule="nonzero"/><path fill="#040606" d="M 53.328125 50.457031 C 53.183594 50.535156 53.058594 50.660156 52.980469 50.804688 L 52.519531 51.652344 L 52.054688 50.804688 C 51.976562 50.660156 51.851562 50.535156 51.707031 50.457031 L 50.863281 49.992188 L 51.707031 49.527344 C 51.851562 49.449219 51.976562 49.324219 52.054688 49.175781 L 52.519531 48.332031 L 52.980469 49.175781 C 53.058594 49.324219 53.183594 49.449219 53.328125 49.527344 L 54.171875 49.992188 Z M 55.191406 48.523438 L 54.40625 48.09375 L 53.980469 47.3125 C 53.683594 46.773438 53.125 46.441406 52.519531 46.441406 C 51.910156 46.441406 51.351562 46.773438 51.054688 47.308594 L 50.628906 48.09375 L 49.847656 48.523438 C 49.3125 48.820312 48.980469 49.382812 48.980469 49.992188 C 48.980469 50.601562 49.3125 51.164062 49.84375 51.457031 L 50.628906 51.886719 L 51.054688 52.671875 C 51.351562 53.207031 51.910156 53.542969 52.519531 53.542969 C 53.125 53.542969 53.683594 53.207031 53.980469 52.675781 L 54.40625 51.886719 L 55.1875 51.457031 C 55.722656 51.164062 56.054688 50.601562 56.054688 49.992188 C 56.054688 49.382812 55.722656 48.820312 55.191406 48.523438 " fill-opacity="1" fill-rule="nonzero"/></svg>