<svg xmlns="http://www.w3.org/2000/svg" xmlns:xlink="http://www.w3.org/1999/xlink" width="100" zoomAndPan="magnify" viewBox="0 0 75 74.999997" height="100" preserveAspectRatio="xMidYMid meet" version="1.0"><defs><clipPath id="2eedccbca5"><path d="M 7.5 7.5 L 65.25 7.5 L 65.25 65.25 L 7.5 65.25 Z M 7.5 7.5 " clip-rule="nonzero"/></clipPath></defs><g clip-path="url(#2eedccbca5)"><path fill="#000000" d="M 64.929688 35.765625 L 54.042969 24.878906 L 54.042969 18.753906 C 54.042969 18.238281 53.628906 17.824219 53.113281 17.824219 L 46.988281 17.824219 L 37.03125 7.867188 C 36.667969 7.5 36.082031 7.5 35.71875 7.867188 L 25.761719 17.824219 L 19.636719 17.824219 C 19.121094 17.824219 18.707031 18.238281 18.707031 18.753906 L 18.707031 24.878906 L 7.820312 35.765625 C 7.644531 35.9375 7.546875 36.175781 7.546875 36.421875 L 7.546875 64.320312 C 7.546875 64.835938 7.960938 65.25 8.476562 65.25 L 64.273438 65.25 C 64.789062 65.25 65.203125 64.835938 65.203125 64.320312 L 65.203125 36.421875 C 65.203125 36.175781 65.105469 35.9375 64.929688 35.765625 Z M 23.148438 48.335938 L 9.40625 62.074219 L 9.40625 38.257812 Z M 24.664062 49.445312 L 35.824219 57.628906 C 35.988281 57.75 36.179688 57.808594 36.375 57.808594 C 36.570312 57.808594 36.761719 57.75 36.925781 57.632812 L 48.085938 49.449219 L 62.027344 63.390625 L 10.722656 63.390625 Z M 49.601562 48.335938 L 63.34375 38.257812 L 63.34375 62.074219 Z M 62.847656 36.3125 L 54.042969 42.769531 L 54.042969 27.507812 Z M 36.375 9.839844 L 44.359375 17.824219 L 28.390625 17.824219 Z M 52.183594 19.683594 L 52.183594 44.132812 L 36.375 55.726562 L 20.566406 44.132812 L 20.566406 19.683594 Z M 18.707031 42.769531 L 9.902344 36.3125 L 18.707031 27.507812 Z M 18.707031 42.769531 " fill-opacity="1" fill-rule="nonzero"/></g><path fill="#000000" d="M 29.328125 32.332031 L 35.757812 38.046875 C 35.933594 38.203125 36.15625 38.28125 36.375 38.28125 C 36.59375 38.28125 36.816406 38.203125 36.992188 38.046875 L 43.421875 32.332031 C 44.851562 31.058594 45.675781 29.230469 45.675781 27.316406 C 45.675781 24.328125 43.433594 21.800781 40.570312 21.5625 C 39.019531 21.429688 37.507812 21.953125 36.375 22.980469 C 35.109375 21.835938 33.386719 21.328125 31.664062 21.628906 C 29.003906 22.09375 27.074219 24.488281 27.074219 27.316406 C 27.074219 29.230469 27.898438 31.058594 29.328125 32.332031 Z M 31.984375 23.460938 C 32.210938 23.421875 32.4375 23.402344 32.65625 23.402344 C 33.828125 23.402344 34.90625 23.941406 35.628906 24.914062 C 35.980469 25.382812 36.769531 25.386719 37.121094 24.914062 C 37.898438 23.867188 39.132812 23.320312 40.414062 23.414062 C 42.320312 23.574219 43.816406 25.289062 43.816406 27.316406 C 43.816406 28.699219 43.21875 30.023438 42.1875 30.941406 L 36.375 36.105469 L 30.566406 30.941406 C 29.53125 30.023438 28.933594 28.699219 28.933594 27.316406 C 28.933594 25.421875 30.246094 23.765625 31.984375 23.460938 Z M 31.984375 23.460938 " fill-opacity="1" fill-rule="nonzero"/><path fill="#000000" d="M 22.425781 40.140625 L 50.324219 40.140625 L 50.324219 42 L 22.425781 42 Z M 22.425781 40.140625 " fill-opacity="1" fill-rule="nonzero"/><path fill="#000000" d="M 26.144531 43.859375 L 46.605469 43.859375 L 46.605469 45.722656 L 26.144531 45.722656 Z M 26.144531 43.859375 " fill-opacity="1" fill-rule="nonzero"/></svg>