<svg xmlns="http://www.w3.org/2000/svg" xmlns:xlink="http://www.w3.org/1999/xlink" width="100" zoomAndPan="magnify" viewBox="0 0 75 74.999997" height="100" preserveAspectRatio="xMidYMid meet" version="1.0"><defs><clipPath id="95971255ad"><path d="M 12.175781 9.359375 L 63.175781 9.359375 L 63.175781 65.609375 L 12.175781 65.609375 Z M 12.175781 9.359375 " clip-rule="nonzero"/></clipPath></defs><g clip-path="url(#95971255ad)"><path fill="#040606" d="M 14.0625 50.609375 C 14.0625 49.058594 15.332031 47.796875 16.898438 47.796875 L 58.453125 47.796875 C 60.015625 47.796875 61.285156 49.058594 61.285156 50.609375 L 61.285156 60.921875 C 61.285156 62.476562 60.015625 63.734375 58.453125 63.734375 L 16.898438 63.734375 C 15.332031 63.734375 14.0625 62.476562 14.0625 60.921875 Z M 29.597656 42.171875 L 45.75 42.171875 C 51.359375 42.171875 53.480469 44.492188 54.257812 45.921875 L 21.097656 45.921875 C 21.878906 44.496094 24.007812 42.171875 29.597656 42.171875 Z M 39.027344 24.359375 L 36.320312 24.359375 L 34.140625 20.757812 L 35.230469 19.671875 L 40.117188 19.671875 L 41.207031 20.757812 Z M 44.285156 35.609375 C 44.285156 31.992188 41.320312 29.046875 37.675781 29.046875 C 34.03125 29.046875 31.0625 31.992188 31.0625 35.609375 C 31.0625 37.445312 31.828125 39.105469 33.054688 40.296875 L 30.621094 40.296875 C 29.675781 38.910156 29.175781 37.296875 29.175781 35.609375 C 29.175781 31.90625 31.566406 28.675781 35.125 27.5625 C 35.519531 27.4375 35.785156 27.078125 35.785156 26.667969 L 35.785156 26.234375 L 39.5625 26.234375 L 39.5625 26.667969 C 39.5625 27.078125 39.828125 27.4375 40.222656 27.5625 C 43.785156 28.675781 46.175781 31.90625 46.175781 35.609375 C 46.175781 37.296875 45.671875 38.910156 44.726562 40.296875 L 42.292969 40.296875 C 43.523438 39.105469 44.285156 37.445312 44.285156 35.609375 Z M 32.953125 35.609375 C 32.953125 33.023438 35.070312 30.921875 37.675781 30.921875 C 40.277344 30.921875 42.394531 33.023438 42.394531 35.609375 C 42.394531 38.195312 40.277344 40.296875 37.675781 40.296875 C 35.070312 40.296875 32.953125 38.195312 32.953125 35.609375 Z M 54.671875 43.339844 C 53.296875 41.925781 50.921875 40.570312 46.902344 40.34375 C 47.664062 38.890625 48.0625 37.28125 48.0625 35.609375 C 48.0625 31.316406 45.429688 27.53125 41.4375 25.996094 C 41.382812 25.578125 41.183594 25.203125 40.894531 24.917969 L 42.828125 21.71875 C 43.269531 20.980469 43.15625 20.039062 42.542969 19.429688 L 41.453125 18.347656 C 41.101562 18 40.613281 17.796875 40.117188 17.796875 L 35.230469 17.796875 C 34.734375 17.796875 34.246094 18 33.898438 18.347656 L 32.804688 19.429688 C 32.191406 20.039062 32.078125 20.980469 32.519531 21.71875 L 34.453125 24.917969 C 34.167969 25.203125 33.96875 25.578125 33.910156 25.996094 C 29.921875 27.53125 27.285156 31.316406 27.285156 35.609375 C 27.285156 37.28125 27.683594 38.890625 28.449219 40.34375 C 24.425781 40.570312 22.050781 41.925781 20.675781 43.339844 L 20.675781 15.921875 C 20.675781 15.40625 21.097656 14.984375 21.621094 14.984375 L 53.730469 14.984375 C 54.25 14.984375 54.671875 15.40625 54.671875 15.921875 Z M 16.898438 15.921875 C 16.898438 13.335938 19.015625 11.234375 21.621094 11.234375 L 53.730469 11.234375 C 56.332031 11.234375 58.453125 13.335938 58.453125 15.921875 L 58.453125 45.921875 L 56.5625 45.921875 L 56.5625 15.921875 C 56.5625 14.371094 55.292969 13.109375 53.730469 13.109375 L 21.621094 13.109375 C 20.054688 13.109375 18.785156 14.371094 18.785156 15.921875 L 18.785156 45.921875 L 16.898438 45.921875 Z M 16.898438 65.609375 L 58.453125 65.609375 C 61.054688 65.609375 63.171875 63.507812 63.171875 60.921875 L 63.171875 50.609375 C 63.171875 48.695312 62.003906 47.046875 60.339844 46.320312 L 60.339844 15.921875 C 60.339844 12.304688 57.375 9.359375 53.730469 9.359375 L 21.621094 9.359375 C 17.976562 9.359375 15.007812 12.304688 15.007812 15.921875 L 15.007812 46.320312 C 13.34375 47.046875 12.175781 48.695312 12.175781 50.609375 L 12.175781 60.921875 C 12.175781 63.507812 14.292969 65.609375 16.898438 65.609375 " fill-opacity="1" fill-rule="nonzero"/></g></svg>