<svg xmlns="http://www.w3.org/2000/svg" xmlns:xlink="http://www.w3.org/1999/xlink" width="100" zoomAndPan="magnify" viewBox="0 0 75 74.999997" height="100" preserveAspectRatio="xMidYMid meet" version="1.0"><defs><clipPath id="a1b79c25c4"><path d="M 10.351562 10.351562 L 64.351562 10.351562 L 64.351562 64.351562 L 10.351562 64.351562 Z M 10.351562 10.351562 " clip-rule="nonzero"/></clipPath></defs><g clip-path="url(#a1b79c25c4)"><path fill="#000000" d="M 62.832031 61.6875 L 57.585938 61.6875 L 57.585938 30.101562 L 62.832031 30.101562 C 63.144531 30.101562 63.421875 30 63.660156 29.796875 C 63.898438 29.589844 64.039062 29.335938 64.082031 29.023438 C 64.128906 28.714844 64.066406 28.425781 63.898438 28.164062 C 63.730469 27.898438 63.496094 27.722656 63.195312 27.636719 C 49.496094 23.539062 38.269531 11.019531 38.171875 10.902344 C 38.046875 10.773438 37.90625 10.671875 37.742188 10.601562 C 37.578125 10.53125 37.40625 10.496094 37.226562 10.496094 C 37.050781 10.496094 36.878906 10.53125 36.714844 10.601562 C 36.550781 10.671875 36.40625 10.773438 36.285156 10.902344 C 36.175781 11.027344 24.960938 23.539062 11.261719 27.636719 C 10.960938 27.722656 10.726562 27.898438 10.558594 28.164062 C 10.386719 28.425781 10.328125 28.714844 10.371094 29.023438 C 10.417969 29.335938 10.558594 29.59375 10.796875 29.796875 C 11.035156 30 11.308594 30.101562 11.621094 30.101562 L 16.867188 30.101562 L 16.867188 61.6875 L 11.621094 61.6875 C 11.457031 61.6875 11.296875 61.71875 11.140625 61.78125 C 10.988281 61.847656 10.851562 61.9375 10.734375 62.054688 C 10.617188 62.171875 10.523438 62.308594 10.460938 62.464844 C 10.398438 62.617188 10.363281 62.777344 10.363281 62.945312 C 10.363281 63.113281 10.398438 63.273438 10.460938 63.425781 C 10.523438 63.582031 10.617188 63.71875 10.734375 63.835938 C 10.851562 63.953125 10.988281 64.042969 11.140625 64.109375 C 11.296875 64.171875 11.457031 64.203125 11.621094 64.203125 L 62.832031 64.203125 C 63 64.203125 63.160156 64.171875 63.3125 64.109375 C 63.46875 64.042969 63.605469 63.953125 63.722656 63.835938 C 63.839844 63.71875 63.929688 63.582031 63.996094 63.425781 C 64.058594 63.273438 64.089844 63.113281 64.089844 62.945312 C 64.089844 62.777344 64.058594 62.617188 63.996094 62.464844 C 63.929688 62.308594 63.839844 62.171875 63.722656 62.054688 C 63.605469 61.9375 63.46875 61.847656 63.3125 61.78125 C 63.160156 61.71875 63 61.6875 62.832031 61.6875 Z M 22.46875 61.6875 L 19.390625 61.6875 L 19.390625 30.101562 L 22.46875 30.101562 Z M 49.472656 61.6875 L 24.984375 61.6875 L 24.984375 30.101562 L 49.472656 30.101562 Z M 55.066406 61.6875 L 51.988281 61.6875 L 51.988281 30.101562 L 55.066406 30.101562 Z M 18.304688 27.578125 C 25.40625 23.988281 31.714844 19.324219 37.226562 13.582031 C 42.738281 19.324219 49.046875 23.988281 56.152344 27.578125 Z M 18.304688 27.578125 " fill-opacity="1" fill-rule="nonzero"/></g><path fill="#000000" d="M 36.386719 53.03125 C 36.625 53.246094 36.90625 53.351562 37.226562 53.351562 C 37.550781 53.351562 37.828125 53.246094 38.070312 53.03125 C 40.363281 51.019531 42.550781 48.894531 44.632812 46.660156 C 45.082031 46.070312 45.378906 45.410156 45.527344 44.679688 C 45.675781 43.953125 45.660156 43.226562 45.472656 42.507812 C 45.265625 41.691406 44.890625 40.964844 44.351562 40.320312 C 43.808594 39.675781 43.152344 39.183594 42.382812 38.84375 C 41.957031 38.664062 41.511719 38.550781 41.050781 38.5 C 40.589844 38.449219 40.132812 38.460938 39.675781 38.539062 C 39.21875 38.617188 38.785156 38.757812 38.367188 38.960938 C 37.949219 39.164062 37.570312 39.421875 37.226562 39.730469 C 36.882812 39.421875 36.503906 39.164062 36.089844 38.960938 C 35.671875 38.757812 35.234375 38.617188 34.777344 38.539062 C 34.324219 38.460938 33.863281 38.449219 33.402344 38.5 C 32.945312 38.550781 32.5 38.664062 32.070312 38.84375 C 31.304688 39.183594 30.648438 39.675781 30.105469 40.320312 C 29.5625 40.964844 29.1875 41.691406 28.980469 42.507812 C 28.796875 43.226562 28.78125 43.953125 28.925781 44.679688 C 29.074219 45.410156 29.375 46.070312 29.824219 46.660156 C 31.902344 48.894531 34.089844 51.019531 36.386719 53.03125 Z M 31.429688 43.101562 C 31.542969 42.660156 31.75 42.265625 32.046875 41.917969 C 32.34375 41.570312 32.703125 41.304688 33.121094 41.121094 C 33.355469 41.015625 33.597656 40.960938 33.855469 40.957031 C 34.824219 41.089844 35.617188 41.527344 36.246094 42.273438 C 36.5 42.582031 36.824219 42.730469 37.222656 42.726562 C 37.621094 42.730469 37.945312 42.578125 38.199219 42.277344 C 38.214844 42.257812 39.789062 40.410156 41.335938 41.121094 C 41.753906 41.304688 42.113281 41.570312 42.410156 41.917969 C 42.707031 42.265625 42.914062 42.660156 43.027344 43.101562 C 43.226562 43.839844 43.097656 44.511719 42.640625 45.125 C 40.925781 46.972656 39.121094 48.730469 37.226562 50.394531 C 35.335938 48.730469 33.53125 46.972656 31.816406 45.125 C 31.363281 44.511719 31.230469 43.839844 31.429688 43.101562 Z M 31.429688 43.101562 " fill-opacity="1" fill-rule="nonzero"/></svg>