<svg xmlns="http://www.w3.org/2000/svg" xmlns:xlink="http://www.w3.org/1999/xlink" width="100" zoomAndPan="magnify" viewBox="0 0 75 74.999997" height="100" preserveAspectRatio="xMidYMid meet" version="1.0"><defs><clipPath id="e4987f612f"><path d="M 10.613281 10.613281 L 64.613281 10.613281 L 64.613281 64.613281 L 10.613281 64.613281 Z M 10.613281 10.613281 " clip-rule="nonzero"/></clipPath></defs><g clip-path="url(#e4987f612f)"><path fill="#000000" d="M 63.742188 36.742188 L 48.003906 36.742188 L 50.527344 32.28125 C 51.140625 31.214844 51.605469 30.085938 51.921875 28.898438 C 52.242188 27.710938 52.40625 26.5 52.414062 25.269531 C 52.425781 24.039062 52.277344 22.828125 51.972656 21.636719 C 51.667969 20.445312 51.21875 19.308594 50.625 18.234375 C 50.03125 17.132812 49.308594 16.128906 48.457031 15.214844 C 47.601562 14.300781 46.648438 13.511719 45.589844 12.84375 C 44.535156 12.175781 43.410156 11.652344 42.21875 11.273438 C 41.027344 10.898438 39.808594 10.675781 38.5625 10.613281 C 37.929688 10.578125 37.296875 10.578125 36.664062 10.613281 C 35.414062 10.675781 34.195312 10.898438 33.003906 11.273438 C 31.8125 11.652344 30.691406 12.175781 29.632812 12.84375 C 28.578125 13.511719 27.621094 14.300781 26.769531 15.214844 C 25.917969 16.128906 25.195312 17.132812 24.601562 18.234375 C 24.003906 19.308594 23.554688 20.445312 23.25 21.636719 C 22.949219 22.828125 22.800781 24.039062 22.808594 25.269531 C 22.816406 26.5 22.980469 27.710938 23.300781 28.898438 C 23.621094 30.085938 24.085938 31.214844 24.695312 32.28125 L 27.222656 36.742188 L 11.484375 36.742188 C 11.242188 36.742188 11.039062 36.828125 10.867188 36.996094 C 10.699219 37.167969 10.613281 37.371094 10.613281 37.613281 L 10.613281 63.742188 C 10.613281 63.980469 10.699219 64.1875 10.867188 64.355469 C 11.039062 64.527344 11.242188 64.613281 11.484375 64.613281 L 63.742188 64.613281 C 63.980469 64.613281 64.1875 64.527344 64.355469 64.355469 C 64.527344 64.1875 64.613281 63.980469 64.613281 63.742188 L 64.613281 37.613281 C 64.613281 37.371094 64.527344 37.167969 64.355469 36.996094 C 64.1875 36.828125 63.980469 36.742188 63.742188 36.742188 Z M 26.125 19.0625 C 26.648438 18.09375 27.285156 17.210938 28.039062 16.40625 C 28.789062 15.605469 29.628906 14.910156 30.558594 14.324219 C 31.488281 13.734375 32.476562 13.277344 33.523438 12.941406 C 34.570312 12.609375 35.644531 12.414062 36.742188 12.355469 C 37.027344 12.355469 37.308594 12.355469 37.613281 12.355469 C 37.917969 12.355469 38.179688 12.355469 38.484375 12.355469 C 39.582031 12.414062 40.652344 12.609375 41.703125 12.941406 C 42.75 13.277344 43.738281 13.734375 44.667969 14.324219 C 45.597656 14.910156 46.4375 15.605469 47.1875 16.40625 C 47.9375 17.210938 48.578125 18.09375 49.101562 19.0625 C 49.625 20.007812 50.019531 21.007812 50.285156 22.058594 C 50.550781 23.105469 50.679688 24.171875 50.671875 25.257812 C 50.664062 26.339844 50.519531 27.402344 50.238281 28.449219 C 49.957031 29.496094 49.550781 30.488281 49.011719 31.429688 L 37.613281 51.546875 L 26.210938 31.429688 C 25.675781 30.488281 25.265625 29.496094 24.984375 28.449219 C 24.703125 27.402344 24.558594 26.339844 24.550781 25.257812 C 24.542969 24.171875 24.671875 23.105469 24.941406 22.058594 C 25.207031 21.007812 25.601562 20.007812 26.125 19.0625 Z M 36.855469 53.714844 C 37.023438 54.011719 37.273438 54.160156 37.613281 54.160156 C 37.949219 54.160156 38.203125 54.011719 38.371094 53.714844 L 45.042969 41.96875 L 59.386719 41.96875 L 59.386719 59.386719 L 15.839844 59.386719 L 15.839844 41.96875 L 30.183594 41.96875 Z M 62.871094 62.871094 L 12.355469 62.871094 L 12.355469 38.484375 L 28.207031 38.484375 L 29.199219 40.226562 L 14.96875 40.226562 C 14.726562 40.226562 14.523438 40.308594 14.351562 40.480469 C 14.179688 40.652344 14.097656 40.855469 14.097656 41.097656 L 14.097656 60.257812 C 14.097656 60.5 14.179688 60.703125 14.351562 60.875 C 14.523438 61.042969 14.726562 61.128906 14.96875 61.128906 L 60.257812 61.128906 C 60.5 61.128906 60.703125 61.042969 60.875 60.875 C 61.042969 60.703125 61.128906 60.5 61.128906 60.257812 L 61.128906 41.097656 C 61.128906 40.855469 61.042969 40.652344 60.875 40.480469 C 60.703125 40.308594 60.5 40.226562 60.257812 40.226562 L 46.027344 40.226562 L 47.019531 38.484375 L 62.871094 38.484375 Z M 62.871094 62.871094 " fill-opacity="1" fill-rule="nonzero"/></g><path fill="#000000" d="M 49.804688 54.160156 L 56.773438 54.160156 C 57.015625 54.160156 57.21875 54.074219 57.390625 53.90625 C 57.558594 53.734375 57.644531 53.53125 57.644531 53.289062 L 57.644531 48.933594 C 57.644531 48.734375 57.585938 48.554688 57.460938 48.394531 L 53.976562 44.039062 C 53.894531 43.9375 53.792969 43.855469 53.675781 43.800781 C 53.554688 43.742188 53.429688 43.714844 53.296875 43.714844 C 53.167969 43.714844 53.039062 43.742188 52.921875 43.800781 C 52.804688 43.855469 52.703125 43.9375 52.621094 44.039062 L 49.136719 48.394531 C 49.003906 48.550781 48.9375 48.730469 48.933594 48.933594 L 48.933594 53.289062 C 48.933594 53.53125 49.019531 53.734375 49.191406 53.90625 C 49.359375 54.074219 49.566406 54.160156 49.804688 54.160156 Z M 50.675781 52.417969 L 50.675781 49.804688 L 55.902344 49.804688 L 55.902344 52.417969 Z M 53.289062 45.972656 L 54.960938 48.0625 L 51.617188 48.0625 Z M 53.289062 45.972656 " fill-opacity="1" fill-rule="nonzero"/><path fill="#000000" d="M 18.453125 57.644531 L 25.417969 57.644531 C 25.660156 57.644531 25.863281 57.558594 26.035156 57.390625 C 26.203125 57.21875 26.289062 57.015625 26.289062 56.773438 L 26.289062 52.417969 C 26.292969 52.21875 26.230469 52.039062 26.105469 51.878906 L 22.625 47.523438 C 22.539062 47.421875 22.441406 47.339844 22.320312 47.285156 C 22.203125 47.226562 22.074219 47.199219 21.945312 47.199219 C 21.8125 47.199219 21.6875 47.226562 21.566406 47.285156 C 21.449219 47.339844 21.347656 47.421875 21.265625 47.523438 L 17.78125 51.878906 C 17.652344 52.035156 17.582031 52.214844 17.582031 52.417969 L 17.582031 56.773438 C 17.582031 57.015625 17.664062 57.21875 17.835938 57.390625 C 18.003906 57.558594 18.210938 57.644531 18.453125 57.644531 Z M 19.320312 55.902344 L 19.320312 53.289062 L 24.546875 53.289062 L 24.546875 55.902344 Z M 21.933594 49.457031 L 23.605469 51.546875 L 20.261719 51.546875 Z M 21.933594 49.457031 " fill-opacity="1" fill-rule="nonzero"/><path fill="#000000" d="M 37.613281 57.644531 C 37.957031 57.644531 38.296875 57.609375 38.632812 57.542969 C 38.96875 57.476562 39.296875 57.378906 39.613281 57.246094 C 39.929688 57.117188 40.230469 56.953125 40.515625 56.765625 C 40.800781 56.574219 41.066406 56.355469 41.308594 56.113281 C 41.550781 55.871094 41.765625 55.609375 41.957031 55.320312 C 42.148438 55.035156 42.308594 54.734375 42.441406 54.417969 C 42.570312 54.101562 42.671875 53.773438 42.738281 53.4375 C 42.804688 53.101562 42.839844 52.761719 42.839844 52.417969 L 41.097656 52.417969 C 41.097656 52.882812 41.007812 53.324219 40.832031 53.753906 C 40.65625 54.179688 40.402344 54.554688 40.074219 54.882812 C 39.75 55.210938 39.371094 55.460938 38.945312 55.636719 C 38.519531 55.8125 38.074219 55.902344 37.613281 55.902344 C 37.152344 55.902344 36.707031 55.8125 36.277344 55.636719 C 35.851562 55.460938 35.476562 55.210938 35.148438 54.882812 C 34.824219 54.554688 34.570312 54.179688 34.394531 53.753906 C 34.21875 53.324219 34.128906 52.882812 34.128906 52.417969 L 32.386719 52.417969 C 32.386719 52.761719 32.421875 53.101562 32.488281 53.4375 C 32.554688 53.773438 32.652344 54.101562 32.785156 54.417969 C 32.914062 54.734375 33.078125 55.035156 33.265625 55.320312 C 33.457031 55.609375 33.675781 55.871094 33.917969 56.113281 C 34.160156 56.355469 34.425781 56.574219 34.710938 56.765625 C 34.996094 56.953125 35.296875 57.117188 35.613281 57.246094 C 35.929688 57.378906 36.257812 57.476562 36.59375 57.542969 C 36.929688 57.609375 37.269531 57.644531 37.613281 57.644531 Z M 37.613281 57.644531 " fill-opacity="1" fill-rule="nonzero"/><path fill="#000000" d="M 48.933594 25.417969 C 48.933594 24.675781 48.863281 23.9375 48.71875 23.210938 C 48.574219 22.480469 48.359375 21.773438 48.074219 21.085938 C 47.789062 20.398438 47.441406 19.746094 47.027344 19.128906 C 46.613281 18.511719 46.144531 17.9375 45.617188 17.414062 C 45.09375 16.886719 44.519531 16.417969 43.902344 16.003906 C 43.285156 15.589844 42.632812 15.242188 41.945312 14.957031 C 41.257812 14.671875 40.550781 14.457031 39.820312 14.3125 C 39.09375 14.167969 38.355469 14.097656 37.613281 14.097656 C 36.867188 14.097656 36.132812 14.167969 35.402344 14.3125 C 34.675781 14.457031 33.964844 14.671875 33.28125 14.957031 C 32.59375 15.242188 31.941406 15.589844 31.320312 16.003906 C 30.703125 16.417969 30.132812 16.886719 29.605469 17.414062 C 29.082031 17.9375 28.609375 18.511719 28.199219 19.128906 C 27.785156 19.746094 27.4375 20.398438 27.152344 21.085938 C 26.867188 21.773438 26.652344 22.480469 26.507812 23.210938 C 26.363281 23.9375 26.289062 24.675781 26.289062 25.417969 C 26.289062 26.164062 26.363281 26.898438 26.507812 27.628906 C 26.652344 28.355469 26.867188 29.066406 27.152344 29.75 C 27.4375 30.4375 27.785156 31.089844 28.199219 31.710938 C 28.609375 32.328125 29.082031 32.898438 29.605469 33.425781 C 30.132812 33.949219 30.703125 34.421875 31.320312 34.832031 C 31.941406 35.246094 32.59375 35.59375 33.28125 35.878906 C 33.964844 36.164062 34.675781 36.378906 35.402344 36.523438 C 36.132812 36.667969 36.867188 36.742188 37.613281 36.742188 C 38.355469 36.742188 39.09375 36.667969 39.820312 36.523438 C 40.550781 36.378906 41.257812 36.164062 41.945312 35.878906 C 42.632812 35.59375 43.285156 35.246094 43.902344 34.832031 C 44.519531 34.421875 45.09375 33.949219 45.617188 33.425781 C 46.144531 32.898438 46.613281 32.328125 47.027344 31.710938 C 47.441406 31.089844 47.789062 30.4375 48.074219 29.75 C 48.359375 29.066406 48.574219 28.355469 48.71875 27.628906 C 48.863281 26.898438 48.933594 26.164062 48.933594 25.417969 Z M 28.03125 25.417969 C 28.03125 24.789062 28.09375 24.167969 28.214844 23.550781 C 28.339844 22.933594 28.519531 22.332031 28.761719 21.753906 C 29 21.171875 29.296875 20.621094 29.644531 20.097656 C 29.996094 19.574219 30.394531 19.089844 30.839844 18.644531 C 31.28125 18.199219 31.765625 17.800781 32.289062 17.453125 C 32.8125 17.101562 33.363281 16.808594 33.945312 16.566406 C 34.527344 16.328125 35.125 16.144531 35.742188 16.023438 C 36.359375 15.898438 36.984375 15.839844 37.613281 15.839844 C 38.242188 15.839844 38.863281 15.898438 39.480469 16.023438 C 40.097656 16.144531 40.699219 16.328125 41.277344 16.566406 C 41.859375 16.808594 42.414062 17.101562 42.933594 17.453125 C 43.457031 17.800781 43.941406 18.199219 44.386719 18.644531 C 44.832031 19.089844 45.230469 19.574219 45.578125 20.097656 C 45.929688 20.621094 46.222656 21.171875 46.464844 21.753906 C 46.703125 22.332031 46.886719 22.933594 47.007812 23.550781 C 47.132812 24.167969 47.191406 24.789062 47.191406 25.417969 C 47.191406 26.046875 47.132812 26.671875 47.007812 27.289062 C 46.886719 27.90625 46.703125 28.503906 46.464844 29.085938 C 46.222656 29.667969 45.929688 30.21875 45.578125 30.742188 C 45.230469 31.265625 44.832031 31.75 44.386719 32.195312 C 43.941406 32.636719 43.457031 33.035156 42.933594 33.386719 C 42.414062 33.734375 41.859375 34.03125 41.277344 34.269531 C 40.699219 34.511719 40.097656 34.691406 39.480469 34.816406 C 38.863281 34.9375 38.242188 35 37.613281 35 C 36.984375 35 36.359375 34.9375 35.742188 34.816406 C 35.125 34.691406 34.527344 34.511719 33.945312 34.269531 C 33.363281 34.03125 32.8125 33.734375 32.289062 33.386719 C 31.765625 33.035156 31.28125 32.636719 30.839844 32.195312 C 30.394531 31.75 29.996094 31.265625 29.648438 30.742188 C 29.296875 30.21875 29 29.667969 28.761719 29.085938 C 28.519531 28.503906 28.339844 27.90625 28.214844 27.289062 C 28.09375 26.671875 28.03125 26.046875 28.03125 25.417969 Z M 28.03125 25.417969 " fill-opacity="1" fill-rule="nonzero"/><path fill="#000000" d="M 38.230469 31.261719 L 42.21875 27.265625 C 42.699219 26.789062 43.066406 26.242188 43.324219 25.621094 C 43.582031 25 43.710938 24.351562 43.710938 23.675781 L 43.710938 23.527344 C 43.710938 22.902344 43.59375 22.300781 43.351562 21.722656 C 43.113281 21.144531 42.769531 20.632812 42.324219 20.191406 C 42.042969 19.921875 41.71875 19.714844 41.355469 19.570312 C 40.992188 19.425781 40.617188 19.351562 40.226562 19.351562 C 39.835938 19.351562 39.457031 19.425781 39.09375 19.570312 C 38.730469 19.714844 38.410156 19.921875 38.125 20.191406 L 37.613281 20.707031 L 37.097656 20.191406 C 36.816406 19.921875 36.492188 19.714844 36.128906 19.570312 C 35.765625 19.425781 35.390625 19.351562 35 19.351562 C 34.609375 19.351562 34.230469 19.425781 33.867188 19.570312 C 33.507812 19.714844 33.183594 19.921875 32.902344 20.191406 C 32.453125 20.632812 32.113281 21.144531 31.871094 21.722656 C 31.632812 22.300781 31.511719 22.902344 31.515625 23.527344 L 31.515625 23.675781 C 31.515625 24.351562 31.644531 25 31.902344 25.621094 C 32.160156 26.242188 32.527344 26.789062 33.003906 27.265625 L 36.992188 31.261719 C 37.164062 31.433594 37.371094 31.519531 37.613281 31.519531 C 37.855469 31.519531 38.058594 31.433594 38.230469 31.261719 Z M 34.234375 26.039062 C 33.582031 25.386719 33.257812 24.597656 33.257812 23.675781 L 33.257812 23.527344 C 33.257812 22.707031 33.550781 22.003906 34.128906 21.421875 C 34.246094 21.304688 34.378906 21.21875 34.527344 21.15625 C 34.679688 21.09375 34.835938 21.0625 35 21.0625 C 35.164062 21.0625 35.320312 21.09375 35.46875 21.15625 C 35.621094 21.21875 35.753906 21.304688 35.871094 21.421875 L 36.992188 22.554688 C 37.164062 22.726562 37.371094 22.8125 37.613281 22.8125 C 37.855469 22.8125 38.058594 22.726562 38.230469 22.554688 L 39.355469 21.421875 C 39.472656 21.308594 39.605469 21.226562 39.757812 21.164062 C 39.90625 21.105469 40.0625 21.074219 40.226562 21.074219 C 40.386719 21.074219 40.542969 21.105469 40.695312 21.164062 C 40.84375 21.226562 40.976562 21.308594 41.097656 21.421875 C 41.675781 22.003906 41.964844 22.707031 41.96875 23.527344 L 41.96875 23.675781 C 41.96875 24.597656 41.640625 25.386719 40.992188 26.039062 L 37.613281 29.417969 Z M 34.234375 26.039062 " fill-opacity="1" fill-rule="nonzero"/></svg>