<svg xmlns="http://www.w3.org/2000/svg" xmlns:xlink="http://www.w3.org/1999/xlink" width="100" zoomAndPan="magnify" viewBox="0 0 75 74.999997" height="100" preserveAspectRatio="xMidYMid meet" version="1.0"><defs><clipPath id="c468a795fc"><path d="M 10.089844 9.742188 L 64.839844 9.742188 L 64.839844 65.242188 L 10.089844 65.242188 Z M 10.089844 9.742188 " clip-rule="nonzero"/></clipPath></defs><g clip-path="url(#c468a795fc)"><path fill="#000000" d="M 29.738281 54.453125 L 43.335938 49.914062 L 29.757812 49.914062 C 29.167969 49.914062 28.6875 49.4375 28.6875 48.84375 C 28.6875 48.253906 29.167969 47.773438 29.757812 47.773438 L 44.171875 47.773438 C 45.15625 47.773438 45.984375 48.480469 46.148438 49.453125 C 46.308594 50.433594 45.742188 51.371094 44.796875 51.683594 L 30.394531 56.492188 C 30.160156 56.5625 29.953125 56.59375 29.757812 56.59375 C 29.167969 56.59375 28.6875 56.113281 28.6875 55.523438 C 28.6875 54.9375 29.160156 54.460938 29.738281 54.453125 Z M 44.675781 60.707031 C 44.652344 60.734375 42.25 63.066406 37.570312 63.066406 C 33.574219 63.066406 31.242188 61.371094 30.625 60.855469 L 44.8125 56.125 C 45.375 55.9375 45.675781 55.332031 45.492188 54.769531 C 45.304688 54.207031 44.699219 53.910156 44.136719 54.09375 L 29.734375 58.898438 C 29.074219 59.113281 28.570312 59.667969 28.414062 60.339844 C 28.253906 61.011719 28.457031 61.730469 28.945312 62.214844 C 29.066406 62.339844 31.96875 65.207031 37.570312 65.207031 C 43.164062 65.207031 46.070312 62.339844 46.191406 62.214844 C 46.605469 61.796875 46.601562 61.125 46.1875 60.707031 C 45.769531 60.289062 45.09375 60.292969 44.675781 60.707031 Z M 37.433594 12.1875 C 28.382812 12.1875 21.019531 19.554688 21.019531 28.609375 C 21.019531 33.1875 23.398438 36.726562 25.515625 39.875 C 26.96875 42.03125 28.226562 43.894531 28.226562 45.441406 C 28.226562 46.03125 28.703125 46.511719 29.292969 46.511719 C 29.886719 46.511719 30.363281 46.03125 30.363281 45.441406 C 30.363281 43.238281 28.9375 41.125 27.273438 38.65625 C 25.34375 35.785156 23.15625 32.535156 23.15625 28.609375 C 23.15625 20.734375 29.5625 14.328125 37.433594 14.328125 C 45.304688 14.328125 51.703125 20.734375 51.703125 28.609375 C 51.703125 32.539062 49.515625 35.792969 47.585938 38.664062 C 45.929688 41.113281 44.5 43.234375 44.5 45.441406 C 44.5 46.03125 44.980469 46.511719 45.570312 46.511719 C 46.160156 46.511719 46.640625 46.03125 46.640625 45.441406 C 46.640625 43.886719 47.898438 42.023438 49.355469 39.859375 C 51.457031 36.734375 53.839844 33.195312 53.839844 28.609375 C 53.839844 19.554688 46.480469 12.1875 37.433594 12.1875 Z M 38.222656 19.109375 C 38.222656 18.519531 37.746094 18.039062 37.15625 18.039062 C 31.480469 18.039062 26.867188 22.660156 26.867188 28.335938 C 26.867188 28.929688 27.347656 29.40625 27.9375 29.40625 C 28.527344 29.40625 29.007812 28.929688 29.007812 28.335938 C 29.007812 23.839844 32.660156 20.179688 37.15625 20.179688 C 37.746094 20.179688 38.222656 19.703125 38.222656 19.109375 Z M 19.003906 28.609375 C 19.003906 28.019531 18.527344 27.539062 17.9375 27.539062 L 11.128906 27.539062 C 10.539062 27.539062 10.0625 28.019531 10.0625 28.609375 C 10.0625 29.203125 10.539062 29.679688 11.128906 29.679688 L 17.9375 29.679688 C 18.527344 29.679688 19.003906 29.203125 19.003906 28.609375 Z M 63.734375 27.539062 L 56.925781 27.539062 C 56.332031 27.539062 55.855469 28.019531 55.855469 28.609375 C 55.855469 29.203125 56.332031 29.679688 56.925781 29.679688 L 63.734375 29.679688 C 64.324219 29.679688 64.800781 29.203125 64.800781 28.609375 C 64.800781 28.019531 64.324219 27.539062 63.734375 27.539062 Z M 22.085938 15.921875 C 22.273438 16.058594 22.492188 16.125 22.714844 16.125 C 23.042969 16.125 23.367188 15.972656 23.578125 15.683594 C 23.925781 15.203125 23.820312 14.535156 23.34375 14.1875 L 17.835938 10.183594 C 17.359375 9.839844 16.6875 9.941406 16.34375 10.421875 C 15.996094 10.902344 16.101562 11.570312 16.578125 11.917969 Z M 22.085938 41.304688 L 16.578125 45.308594 C 16.097656 45.65625 15.996094 46.324219 16.339844 46.804688 C 16.550781 47.09375 16.875 47.246094 17.207031 47.246094 C 17.425781 47.246094 17.644531 47.179688 17.835938 47.042969 L 23.339844 43.039062 C 23.820312 42.691406 23.921875 42.023438 23.578125 41.542969 C 23.230469 41.0625 22.5625 40.960938 22.085938 41.304688 Z M 52.148438 16.125 C 52.371094 16.125 52.589844 16.058594 52.777344 15.921875 L 58.285156 11.917969 C 58.765625 11.570312 58.867188 10.902344 58.523438 10.421875 C 58.175781 9.941406 57.503906 9.839844 57.027344 10.183594 L 51.523438 14.1875 C 51.042969 14.535156 50.941406 15.203125 51.285156 15.683594 C 51.496094 15.972656 51.820312 16.125 52.148438 16.125 Z M 52.777344 41.304688 C 52.304688 40.960938 51.632812 41.0625 51.285156 41.542969 C 50.9375 42.023438 51.042969 42.691406 51.523438 43.039062 L 57.027344 47.042969 C 57.21875 47.179688 57.4375 47.246094 57.65625 47.246094 C 57.988281 47.246094 58.3125 47.09375 58.523438 46.804688 C 58.867188 46.324219 58.765625 45.65625 58.285156 45.308594 Z M 52.777344 41.304688 " fill-opacity="1" fill-rule="nonzero"/></g></svg>