<svg xmlns="http://www.w3.org/2000/svg" xmlns:xlink="http://www.w3.org/1999/xlink" width="100" zoomAndPan="magnify" viewBox="0 0 75 74.999997" height="100" preserveAspectRatio="xMidYMid meet" version="1.0"><defs><clipPath id="3b10f475be"><path d="M 9 19.367188 L 66 19.367188 L 66 55.367188 L 9 55.367188 Z M 9 19.367188 " clip-rule="nonzero"/></clipPath></defs><g clip-path="url(#3b10f475be)"><path fill="#000000" d="M 12.894531 19.339844 C 11.972656 19.339844 11.066406 19.5625 10.359375 20.144531 C 9.652344 20.722656 9.230469 21.660156 9.230469 22.761719 L 9.230469 45.386719 C 9.230469 47.589844 10.800781 49.503906 12.894531 49.503906 L 17.03125 49.503906 C 17.445312 52.765625 20.257812 55.304688 23.65625 55.304688 C 27.050781 55.304688 29.871094 52.765625 30.285156 49.503906 L 44.769531 49.503906 C 45.183594 52.765625 47.996094 55.304688 51.390625 55.304688 C 54.789062 55.304688 57.601562 52.765625 58.015625 49.503906 L 62.496094 49.503906 C 63.363281 49.503906 64.199219 49.207031 64.8125 48.617188 C 65.425781 48.027344 65.777344 47.15625 65.777344 46.179688 L 65.777344 38.976562 C 65.777344 37.816406 65.667969 36.542969 64.644531 35.699219 L 64.617188 35.679688 L 59.632812 32.332031 L 51.152344 22.292969 C 49.195312 19.980469 46.96875 19.339844 44.851562 19.339844 Z M 12.894531 20.992188 L 44.847656 20.992188 C 46.679688 20.992188 48.199219 21.378906 49.878906 23.359375 L 58.507812 33.578125 L 63.582031 36.980469 C 64.019531 37.34375 64.113281 37.914062 64.113281 38.976562 L 64.113281 39.859375 C 64.101562 39.859375 64.089844 39.859375 64.082031 39.859375 L 62.511719 39.859375 C 61.144531 39.859375 60.03125 40.972656 60.03125 42.332031 C 60.03125 43.6875 61.144531 44.804688 62.511719 44.804688 L 64.082031 44.804688 C 64.089844 44.804688 64.101562 44.800781 64.113281 44.800781 L 64.113281 46.179688 C 64.113281 46.777344 63.925781 47.160156 63.652344 47.421875 C 63.378906 47.6875 62.988281 47.851562 62.496094 47.851562 L 58.015625 47.851562 C 57.832031 46.398438 57.171875 45.035156 56.117188 43.992188 C 54.863281 42.75 53.164062 42.050781 51.390625 42.050781 C 47.992188 42.050781 45.179688 44.589844 44.765625 47.851562 L 30.285156 47.851562 C 30.101562 46.398438 29.441406 45.035156 28.382812 43.992188 C 27.132812 42.75 25.429688 42.050781 23.65625 42.050781 C 20.257812 42.050781 17.441406 44.589844 17.027344 47.851562 L 14.535156 47.851562 L 14.535156 42.035156 C 14.535156 41.023438 14.296875 40.011719 13.632812 39.226562 C 13.035156 38.519531 12.105469 38.054688 10.894531 37.96875 L 10.894531 22.761719 C 10.894531 22.042969 11.105469 21.679688 11.421875 21.421875 C 11.742188 21.160156 12.25 20.992188 12.894531 20.992188 Z M 10.898438 39.226562 C 11.769531 39.300781 12.316406 39.59375 12.671875 40.015625 C 13.085938 40.507812 13.285156 41.222656 13.285156 42.035156 L 13.285156 47.851562 L 12.894531 47.851562 C 11.851562 47.851562 10.898438 46.828125 10.898438 45.386719 Z M 62.511719 41.101562 L 64.113281 41.101562 L 64.113281 43.558594 L 62.511719 43.558594 C 61.816406 43.558594 61.277344 43.023438 61.277344 42.332031 C 61.277344 41.636719 61.816406 41.101562 62.511719 41.101562 Z M 23.65625 43.703125 C 24.984375 43.703125 26.265625 44.234375 27.207031 45.164062 C 28.148438 46.097656 28.675781 47.359375 28.675781 48.675781 C 28.675781 51.429688 26.433594 53.648438 23.65625 53.648438 C 20.875 53.648438 18.640625 51.425781 18.640625 48.675781 C 18.640625 45.921875 20.875 43.703125 23.65625 43.703125 Z M 51.390625 43.703125 C 52.722656 43.703125 53.996094 44.234375 54.9375 45.164062 C 55.878906 46.097656 56.410156 47.359375 56.410156 48.675781 C 56.410156 51.429688 54.171875 53.648438 51.390625 53.648438 C 48.609375 53.648438 46.375 51.425781 46.375 48.675781 C 46.375 45.921875 48.609375 43.703125 51.390625 43.703125 Z M 51.390625 43.703125 " fill-opacity="1" fill-rule="nonzero"/></g><path fill="#000000" d="M 23.65625 46.28125 C 22.328125 46.28125 21.238281 47.359375 21.238281 48.675781 C 21.238281 49.992188 22.328125 51.074219 23.65625 51.074219 C 24.984375 51.074219 26.078125 49.992188 26.078125 48.675781 C 26.078125 47.355469 24.984375 46.28125 23.65625 46.28125 Z M 23.65625 47.519531 C 24.308594 47.519531 24.824219 48.03125 24.824219 48.675781 C 24.824219 49.320312 24.308594 49.832031 23.65625 49.832031 C 23.003906 49.832031 22.488281 49.320312 22.488281 48.675781 C 22.488281 48.03125 23.003906 47.519531 23.65625 47.519531 Z M 23.65625 47.519531 " fill-opacity="1" fill-rule="nonzero"/><path fill="#000000" d="M 51.390625 46.28125 C 50.066406 46.28125 48.976562 47.359375 48.976562 48.675781 C 48.976562 49.992188 50.066406 51.074219 51.390625 51.074219 C 52.71875 51.074219 53.808594 49.992188 53.808594 48.675781 C 53.808594 47.355469 52.71875 46.28125 51.390625 46.28125 Z M 51.390625 47.519531 C 52.042969 47.519531 52.558594 48.03125 52.558594 48.675781 C 52.558594 49.320312 52.042969 49.832031 51.390625 49.832031 C 50.742188 49.832031 50.226562 49.320312 50.226562 48.675781 C 50.226562 48.03125 50.742188 47.519531 51.390625 47.519531 Z M 51.390625 47.519531 " fill-opacity="1" fill-rule="nonzero"/><path fill="#000000" d="M 39.578125 23.457031 C 38.585938 23.457031 37.777344 24.273438 37.777344 25.257812 L 37.777344 27.15625 C 37.777344 29.179688 38.242188 31.0625 39.398438 32.472656 C 40.558594 33.878906 42.402344 34.734375 44.894531 34.734375 L 51.707031 34.734375 C 52.609375 34.734375 53.359375 34.203125 53.589844 33.480469 C 53.820312 32.753906 53.597656 31.925781 53.015625 31.261719 L 47.386719 24.847656 C 47.007812 24.417969 46.707031 24.066406 46.257812 23.808594 C 45.808594 23.550781 45.277344 23.457031 44.589844 23.457031 Z M 39.578125 24.699219 L 44.589844 24.699219 C 45.636719 24.699219 45.984375 25.148438 46.441406 25.667969 L 52.070312 32.078125 C 52.421875 32.476562 52.46875 32.871094 52.394531 33.101562 C 52.324219 33.332031 52.191406 33.488281 51.707031 33.488281 L 44.894531 33.488281 C 42.679688 33.488281 41.277344 32.796875 40.367188 31.6875 C 39.453125 30.582031 39.03125 28.988281 39.03125 27.15625 L 39.03125 25.257812 C 39.03125 24.933594 39.265625 24.699219 39.578125 24.699219 Z M 39.578125 24.699219 " fill-opacity="1" fill-rule="nonzero"/></svg>