<svg xmlns="http://www.w3.org/2000/svg" xmlns:xlink="http://www.w3.org/1999/xlink" width="100" zoomAndPan="magnify" viewBox="0 0 75 74.999997" height="100" preserveAspectRatio="xMidYMid meet" version="1.0"><defs><clipPath id="787cb84bb2"><path d="M 7.5 7.5 L 65.25 7.5 L 65.25 65 L 7.5 65 Z M 7.5 7.5 " clip-rule="nonzero"/></clipPath></defs><path fill="#1d1d1b" d="M 22.289062 46.695312 C 22.464844 46.871094 22.675781 46.957031 22.925781 46.957031 C 23.171875 46.957031 23.382812 46.871094 23.558594 46.695312 L 31.148438 39.101562 C 31.410156 38.828125 31.648438 38.535156 31.855469 38.214844 C 32.0625 37.898438 32.238281 37.5625 32.378906 37.210938 C 32.523438 36.855469 32.632812 36.492188 32.703125 36.121094 C 32.777344 35.746094 32.8125 35.371094 32.8125 34.992188 C 32.8125 34.609375 32.777344 34.234375 32.703125 33.859375 C 32.628906 33.488281 32.523438 33.125 32.378906 32.773438 C 32.234375 32.417969 32.0625 32.085938 31.851562 31.765625 C 31.644531 31.449219 31.410156 31.152344 31.144531 30.878906 C 30.878906 30.605469 30.589844 30.363281 30.277344 30.144531 C 29.964844 29.925781 29.636719 29.742188 29.289062 29.589844 C 28.941406 29.4375 28.582031 29.316406 28.210938 29.234375 C 27.839844 29.148438 27.464844 29.101562 27.082031 29.089844 C 26.703125 29.078125 26.324219 29.105469 25.949219 29.167969 C 25.574219 29.230469 25.210938 29.324219 24.851562 29.457031 C 24.496094 29.589844 24.15625 29.753906 23.832031 29.953125 C 23.507812 30.152344 23.203125 30.378906 22.925781 30.636719 C 22.644531 30.367188 22.34375 30.128906 22.019531 29.921875 C 21.691406 29.714844 21.351562 29.539062 20.988281 29.398438 C 20.628906 29.257812 20.261719 29.152344 19.878906 29.082031 C 19.5 29.015625 19.117188 28.984375 18.730469 28.992188 C 18.34375 29 17.960938 29.042969 17.585938 29.125 C 17.207031 29.207031 16.839844 29.324219 16.488281 29.476562 C 16.132812 29.632812 15.796875 29.816406 15.476562 30.039062 C 15.160156 30.257812 14.867188 30.503906 14.597656 30.78125 C 14.328125 31.058594 14.089844 31.359375 13.878906 31.683594 C 13.667969 32.007812 13.492188 32.351562 13.347656 32.710938 C 13.207031 33.070312 13.101562 33.4375 13.03125 33.820312 C 12.960938 34.199219 12.925781 34.582031 12.929688 34.96875 C 12.9375 35.355469 12.976562 35.738281 13.058594 36.113281 C 13.136719 36.492188 13.253906 36.859375 13.40625 37.214844 C 13.558594 37.570312 13.742188 37.90625 13.960938 38.226562 C 14.179688 38.542969 14.425781 38.839844 14.699219 39.109375 Z M 15.96875 32.019531 C 16.160156 31.828125 16.367188 31.660156 16.589844 31.507812 C 16.816406 31.359375 17.054688 31.230469 17.300781 31.128906 C 17.550781 31.023438 17.808594 30.945312 18.074219 30.894531 C 18.339844 30.839844 18.605469 30.816406 18.875 30.816406 C 19.144531 30.816406 19.414062 30.839844 19.679688 30.894531 C 19.941406 30.945312 20.199219 31.023438 20.449219 31.128906 C 20.699219 31.230469 20.9375 31.359375 21.160156 31.507812 C 21.386719 31.660156 21.59375 31.828125 21.785156 32.019531 L 22.289062 32.527344 C 22.464844 32.703125 22.675781 32.789062 22.925781 32.789062 C 23.171875 32.789062 23.382812 32.703125 23.558594 32.527344 L 24.066406 32.019531 C 24.457031 31.648438 24.902344 31.359375 25.40625 31.160156 C 25.910156 30.957031 26.429688 30.859375 26.972656 30.859375 C 27.511719 30.859375 28.035156 30.957031 28.539062 31.160156 C 29.039062 31.359375 29.488281 31.648438 29.878906 32.019531 C 30.070312 32.210938 30.238281 32.417969 30.386719 32.644531 C 30.539062 32.867188 30.664062 33.105469 30.765625 33.355469 C 30.867188 33.605469 30.945312 33.863281 31 34.125 C 31.050781 34.390625 31.078125 34.65625 31.078125 34.925781 C 31.078125 35.199219 31.050781 35.464844 31 35.730469 C 30.945312 35.992188 30.867188 36.25 30.765625 36.5 C 30.664062 36.75 30.539062 36.984375 30.386719 37.210938 C 30.238281 37.4375 30.070312 37.644531 29.878906 37.835938 L 22.925781 44.792969 L 15.96875 37.835938 C 15.777344 37.644531 15.609375 37.4375 15.460938 37.210938 C 15.308594 36.984375 15.183594 36.75 15.082031 36.5 C 14.980469 36.25 14.902344 35.992188 14.847656 35.730469 C 14.796875 35.464844 14.769531 35.199219 14.769531 34.925781 C 14.769531 34.65625 14.796875 34.390625 14.847656 34.125 C 14.902344 33.863281 14.980469 33.605469 15.082031 33.355469 C 15.183594 33.105469 15.308594 32.867188 15.460938 32.644531 C 15.609375 32.417969 15.777344 32.210938 15.96875 32.019531 Z M 15.96875 32.019531 " fill-opacity="1" fill-rule="nonzero"/><path fill="#1d1d1b" d="M 48.929688 46.339844 C 48.464844 45.953125 47.949219 45.664062 47.378906 45.46875 C 46.808594 45.273438 46.21875 45.183594 45.617188 45.207031 C 45.015625 45.226562 44.433594 45.355469 43.878906 45.589844 C 43.324219 45.824219 42.828125 46.148438 42.390625 46.566406 C 42.167969 46.789062 41.96875 47.03125 41.796875 47.292969 C 41.621094 47.554688 41.472656 47.832031 41.351562 48.121094 C 41.230469 48.414062 41.140625 48.710938 41.078125 49.019531 C 41.019531 49.328125 40.988281 49.640625 40.988281 49.957031 C 40.988281 50.269531 41.019531 50.582031 41.078125 50.890625 C 41.140625 51.199219 41.230469 51.5 41.351562 51.789062 C 41.472656 52.082031 41.621094 52.355469 41.796875 52.617188 C 41.96875 52.878906 42.167969 53.121094 42.390625 53.34375 L 48.292969 59.25 C 48.46875 59.425781 48.679688 59.511719 48.929688 59.511719 C 49.175781 59.511719 49.390625 59.425781 49.5625 59.25 L 55.464844 53.34375 C 55.6875 53.121094 55.886719 52.878906 56.0625 52.617188 C 56.238281 52.355469 56.386719 52.082031 56.507812 51.789062 C 56.625 51.5 56.71875 51.199219 56.777344 50.890625 C 56.839844 50.582031 56.871094 50.269531 56.871094 49.957031 C 56.871094 49.640625 56.839844 49.328125 56.777344 49.019531 C 56.71875 48.710938 56.625 48.414062 56.507812 48.121094 C 56.386719 47.832031 56.238281 47.554688 56.0625 47.292969 C 55.886719 47.03125 55.6875 46.789062 55.464844 46.566406 C 55.03125 46.148438 54.535156 45.824219 53.980469 45.589844 C 53.421875 45.355469 52.84375 45.226562 52.242188 45.207031 C 51.636719 45.1875 51.050781 45.273438 50.480469 45.46875 C 49.910156 45.664062 49.394531 45.957031 48.929688 46.339844 Z M 54.199219 52.082031 L 48.929688 57.347656 L 43.660156 52.074219 C 43.378906 51.792969 43.164062 51.46875 43.011719 51.101562 C 42.859375 50.734375 42.78125 50.351562 42.78125 49.953125 C 42.78125 49.554688 42.859375 49.171875 43.011719 48.804688 C 43.164062 48.4375 43.378906 48.113281 43.660156 47.832031 C 43.941406 47.550781 44.269531 47.335938 44.636719 47.183594 C 45.003906 47.03125 45.386719 46.957031 45.78125 46.957031 C 46.179688 46.957031 46.5625 47.03125 46.929688 47.183594 C 47.296875 47.335938 47.621094 47.554688 47.902344 47.835938 L 48.296875 48.226562 C 48.472656 48.402344 48.683594 48.488281 48.929688 48.488281 C 49.175781 48.488281 49.386719 48.402344 49.5625 48.226562 L 49.957031 47.835938 C 50.242188 47.5625 50.566406 47.351562 50.933594 47.203125 C 51.300781 47.058594 51.679688 46.984375 52.074219 46.984375 C 52.472656 46.984375 52.851562 47.058594 53.21875 47.203125 C 53.585938 47.351562 53.910156 47.5625 54.195312 47.835938 C 54.476562 48.117188 54.695312 48.441406 54.847656 48.808594 C 55 49.175781 55.074219 49.558594 55.074219 49.957031 C 55.074219 50.351562 55 50.734375 54.847656 51.101562 C 54.695312 51.46875 54.476562 51.792969 54.195312 52.074219 Z M 54.199219 52.082031 " fill-opacity="1" fill-rule="nonzero"/><g clip-path="url(#787cb84bb2)"><path fill="#1d1d1b" d="M 60.585938 39.78125 L 57.898438 39.78125 L 57.898438 37.09375 C 57.898438 36.796875 57.867188 36.507812 57.8125 36.21875 C 57.753906 35.929688 57.667969 35.648438 57.554688 35.375 C 57.441406 35.105469 57.304688 34.847656 57.140625 34.601562 C 56.976562 34.355469 56.792969 34.128906 56.582031 33.921875 C 56.375 33.714844 56.148438 33.527344 55.902344 33.363281 C 55.660156 33.199219 55.402344 33.0625 55.128906 32.949219 C 54.855469 32.835938 54.578125 32.753906 54.289062 32.695312 C 54 32.636719 53.707031 32.609375 53.414062 32.609375 L 44.445312 32.609375 C 44.152344 32.609375 43.859375 32.636719 43.570312 32.695312 C 43.28125 32.753906 43 32.835938 42.730469 32.949219 C 42.457031 33.0625 42.199219 33.199219 41.953125 33.363281 C 41.710938 33.527344 41.484375 33.714844 41.273438 33.921875 C 41.066406 34.128906 40.882812 34.355469 40.71875 34.601562 C 40.554688 34.847656 40.414062 35.105469 40.304688 35.375 C 40.191406 35.648438 40.105469 35.929688 40.046875 36.21875 C 39.992188 36.507812 39.960938 36.796875 39.960938 37.09375 L 39.960938 39.78125 L 38.167969 39.78125 L 38.167969 24.539062 C 38.167969 24.242188 38.140625 23.953125 38.082031 23.664062 C 38.023438 23.375 37.941406 23.09375 37.828125 22.820312 C 37.714844 22.550781 37.578125 22.292969 37.414062 22.046875 C 37.25 21.800781 37.0625 21.574219 36.855469 21.367188 C 36.648438 21.160156 36.421875 20.972656 36.175781 20.808594 C 35.929688 20.644531 35.671875 20.507812 35.402344 20.394531 C 35.128906 20.28125 34.847656 20.199219 34.558594 20.140625 C 34.269531 20.082031 33.980469 20.054688 33.683594 20.054688 L 32.789062 20.054688 L 32.789062 11.984375 C 32.789062 11.6875 32.757812 11.398438 32.703125 11.109375 C 32.644531 10.820312 32.558594 10.539062 32.445312 10.269531 C 32.335938 9.996094 32.195312 9.738281 32.03125 9.492188 C 31.867188 9.246094 31.683594 9.019531 31.476562 8.8125 C 31.265625 8.605469 31.039062 8.417969 30.796875 8.253906 C 30.550781 8.09375 30.292969 7.953125 30.019531 7.839844 C 29.75 7.730469 29.46875 7.644531 29.179688 7.585938 C 28.890625 7.527344 28.597656 7.5 28.304688 7.5 L 17.542969 7.5 C 17.25 7.5 16.957031 7.527344 16.667969 7.585938 C 16.378906 7.644531 16.101562 7.730469 15.828125 7.839844 C 15.554688 7.953125 15.296875 8.09375 15.050781 8.253906 C 14.808594 8.417969 14.582031 8.605469 14.371094 8.8125 C 14.164062 9.019531 13.980469 9.246094 13.816406 9.492188 C 13.652344 9.738281 13.515625 9.996094 13.402344 10.269531 C 13.289062 10.539062 13.203125 10.820312 13.144531 11.109375 C 13.089844 11.398438 13.058594 11.6875 13.058594 11.984375 L 13.058594 20.054688 L 12.164062 20.054688 C 11.867188 20.054688 11.578125 20.082031 11.289062 20.140625 C 11 20.199219 10.71875 20.28125 10.445312 20.394531 C 10.175781 20.507812 9.917969 20.644531 9.671875 20.808594 C 9.425781 20.972656 9.199219 21.160156 8.992188 21.367188 C 8.785156 21.574219 8.597656 21.800781 8.433594 22.046875 C 8.269531 22.292969 8.132812 22.550781 8.019531 22.820312 C 7.90625 23.09375 7.824219 23.375 7.765625 23.664062 C 7.707031 23.953125 7.679688 24.242188 7.679688 24.539062 L 7.679688 55.027344 C 7.679688 55.542969 7.765625 56.046875 7.941406 56.53125 C 8.113281 57.019531 8.363281 57.460938 8.691406 57.863281 C 9.015625 58.261719 9.402344 58.597656 9.84375 58.863281 C 10.285156 59.128906 10.761719 59.316406 11.265625 59.417969 L 11.265625 61.304688 C 11.265625 61.78125 11.355469 62.238281 11.539062 62.675781 C 11.722656 63.117188 11.980469 63.503906 12.316406 63.839844 C 12.652344 64.175781 13.042969 64.4375 13.480469 64.617188 C 13.921875 64.800781 14.378906 64.890625 14.851562 64.890625 C 15.328125 64.890625 15.785156 64.800781 16.226562 64.617188 C 16.664062 64.4375 17.054688 64.175781 17.390625 63.839844 C 17.726562 63.503906 17.984375 63.117188 18.167969 62.675781 C 18.347656 62.238281 18.441406 61.78125 18.441406 61.304688 L 18.441406 59.511719 L 27.40625 59.511719 L 27.40625 61.304688 C 27.410156 61.683594 27.46875 62.054688 27.589844 62.417969 C 27.707031 62.777344 27.878906 63.113281 28.105469 63.417969 C 28.332031 63.726562 28.597656 63.988281 28.90625 64.210938 C 29.214844 64.429688 29.550781 64.597656 29.914062 64.714844 C 30.277344 64.828125 30.648438 64.882812 31.03125 64.878906 C 31.410156 64.875 31.78125 64.8125 32.140625 64.691406 C 32.5 64.570312 32.832031 64.394531 33.140625 64.167969 C 33.445312 63.941406 33.707031 63.671875 33.925781 63.363281 C 34.347656 63.847656 34.847656 64.222656 35.433594 64.488281 C 36.015625 64.753906 36.628906 64.890625 37.273438 64.890625 L 60.585938 64.890625 C 60.882812 64.890625 61.171875 64.863281 61.460938 64.804688 C 61.75 64.746094 62.03125 64.664062 62.304688 64.550781 C 62.574219 64.4375 62.832031 64.300781 63.078125 64.136719 C 63.324219 63.972656 63.550781 63.785156 63.757812 63.578125 C 63.964844 63.371094 64.152344 63.144531 64.316406 62.898438 C 64.480469 62.652344 64.617188 62.394531 64.730469 62.125 C 64.84375 61.851562 64.925781 61.570312 64.984375 61.28125 C 65.042969 60.992188 65.070312 60.703125 65.070312 60.40625 L 65.070312 44.265625 C 65.070312 43.972656 65.042969 43.679688 64.984375 43.390625 C 64.925781 43.101562 64.84375 42.824219 64.730469 42.550781 C 64.617188 42.277344 64.480469 42.019531 64.316406 41.773438 C 64.152344 41.53125 63.964844 41.304688 63.757812 41.097656 C 63.550781 40.886719 63.324219 40.703125 63.078125 40.539062 C 62.832031 40.375 62.574219 40.238281 62.304688 40.125 C 62.03125 40.011719 61.75 39.925781 61.460938 39.867188 C 61.171875 39.8125 60.882812 39.78125 60.585938 39.78125 Z M 57.898438 62.199219 L 57.898438 63.097656 L 39.960938 63.097656 L 39.960938 62.199219 C 39.960938 61.90625 39.933594 61.613281 39.875 61.328125 C 39.820312 61.039062 39.734375 60.757812 39.621094 60.484375 C 39.507812 60.214844 39.371094 59.953125 39.207031 59.710938 C 39.042969 59.464844 38.855469 59.238281 38.648438 59.03125 C 38.441406 58.824219 38.214844 58.636719 37.96875 58.472656 C 37.722656 58.308594 37.464844 58.171875 37.195312 58.058594 C 36.921875 57.945312 36.640625 57.859375 36.351562 57.804688 C 36.0625 57.746094 35.773438 57.71875 35.476562 57.71875 L 34.582031 57.71875 L 34.582031 46.957031 L 35.476562 46.957031 C 35.773438 46.957031 36.0625 46.929688 36.351562 46.871094 C 36.640625 46.8125 36.921875 46.726562 37.195312 46.613281 C 37.464844 46.503906 37.722656 46.363281 37.96875 46.199219 C 38.214844 46.039062 38.441406 45.851562 38.648438 45.644531 C 38.855469 45.433594 39.042969 45.207031 39.207031 44.964844 C 39.371094 44.71875 39.507812 44.460938 39.621094 44.1875 C 39.734375 43.917969 39.820312 43.636719 39.875 43.347656 C 39.933594 43.058594 39.960938 42.765625 39.960938 42.472656 L 39.960938 41.574219 L 57.898438 41.574219 L 57.898438 42.472656 C 57.898438 42.765625 57.925781 43.058594 57.984375 43.347656 C 58.039062 43.636719 58.125 43.917969 58.238281 44.1875 C 58.351562 44.460938 58.488281 44.71875 58.652344 44.964844 C 58.816406 45.207031 59 45.433594 59.210938 45.644531 C 59.417969 45.851562 59.644531 46.039062 59.890625 46.199219 C 60.132812 46.363281 60.394531 46.503906 60.664062 46.613281 C 60.9375 46.726562 61.21875 46.8125 61.503906 46.871094 C 61.792969 46.929688 62.085938 46.957031 62.378906 46.957031 L 63.277344 46.957031 L 63.277344 57.71875 L 62.378906 57.71875 C 62.085938 57.71875 61.792969 57.746094 61.503906 57.804688 C 61.21875 57.859375 60.9375 57.945312 60.664062 58.058594 C 60.394531 58.171875 60.132812 58.308594 59.890625 58.472656 C 59.644531 58.636719 59.417969 58.824219 59.210938 59.03125 C 59 59.238281 58.816406 59.464844 58.652344 59.710938 C 58.488281 59.953125 58.351562 60.214844 58.238281 60.484375 C 58.125 60.757812 58.039062 61.039062 57.984375 61.328125 C 57.925781 61.613281 57.898438 61.90625 57.898438 62.199219 Z M 38.167969 41.574219 L 38.167969 42.472656 C 38.167969 42.828125 38.101562 43.171875 37.964844 43.503906 C 37.828125 43.832031 37.632812 44.121094 37.378906 44.375 C 37.128906 44.628906 36.835938 44.820312 36.507812 44.957031 C 36.179688 45.09375 35.835938 45.164062 35.476562 45.164062 L 34.582031 45.164062 L 34.582031 44.265625 C 34.582031 43.910156 34.648438 43.566406 34.785156 43.238281 C 34.921875 42.90625 35.117188 42.617188 35.371094 42.363281 C 35.621094 42.113281 35.914062 41.917969 36.242188 41.78125 C 36.570312 41.644531 36.914062 41.574219 37.273438 41.574219 Z M 63.277344 44.265625 L 63.277344 45.164062 L 62.378906 45.164062 C 62.023438 45.164062 61.679688 45.09375 61.351562 44.957031 C 61.019531 44.820312 60.730469 44.628906 60.476562 44.375 C 60.226562 44.121094 60.03125 43.832031 59.894531 43.503906 C 59.757812 43.171875 59.691406 42.828125 59.691406 42.472656 L 59.691406 41.574219 L 60.585938 41.574219 C 60.945312 41.574219 61.285156 41.644531 61.617188 41.78125 C 61.945312 41.917969 62.238281 42.113281 62.488281 42.363281 C 62.742188 42.617188 62.9375 42.90625 63.074219 43.238281 C 63.207031 43.566406 63.277344 43.910156 63.277344 44.265625 Z M 41.753906 37.09375 C 41.753906 36.734375 41.824219 36.390625 41.960938 36.0625 C 42.097656 35.734375 42.292969 35.441406 42.542969 35.191406 C 42.796875 34.9375 43.085938 34.742188 43.417969 34.605469 C 43.746094 34.46875 44.089844 34.402344 44.445312 34.402344 L 53.414062 34.402344 C 53.769531 34.402344 54.113281 34.46875 54.441406 34.605469 C 54.773438 34.742188 55.0625 34.9375 55.316406 35.191406 C 55.566406 35.441406 55.761719 35.734375 55.898438 36.0625 C 56.035156 36.390625 56.101562 36.734375 56.101562 37.09375 L 56.101562 39.78125 L 41.753906 39.78125 Z M 14.851562 11.984375 C 14.851562 11.625 14.921875 11.285156 15.058594 10.953125 C 15.195312 10.625 15.390625 10.332031 15.640625 10.082031 C 15.894531 9.828125 16.183594 9.636719 16.515625 9.5 C 16.84375 9.363281 17.1875 9.292969 17.542969 9.292969 L 28.304688 9.292969 C 28.660156 9.292969 29.003906 9.363281 29.332031 9.5 C 29.664062 9.636719 29.953125 9.828125 30.207031 10.082031 C 30.457031 10.332031 30.652344 10.625 30.789062 10.953125 C 30.925781 11.285156 30.996094 11.625 30.996094 11.984375 L 30.996094 20.054688 L 14.851562 20.054688 Z M 12.164062 21.847656 L 33.683594 21.847656 C 34.042969 21.847656 34.382812 21.917969 34.714844 22.050781 C 35.042969 22.1875 35.335938 22.382812 35.585938 22.636719 C 35.839844 22.886719 36.035156 23.179688 36.171875 23.507812 C 36.308594 23.839844 36.375 24.179688 36.375 24.539062 L 36.375 39.871094 C 36.101562 39.929688 35.832031 40.011719 35.574219 40.121094 C 35.496094 40.152344 35.421875 40.199219 35.34375 40.238281 C 35.171875 40.3125 35.011719 40.402344 34.855469 40.5 C 34.765625 40.558594 34.683594 40.625 34.601562 40.679688 C 34.464844 40.78125 34.339844 40.886719 34.214844 41 C 34.136719 41.074219 34.058594 41.152344 33.984375 41.234375 C 33.875 41.355469 33.773438 41.480469 33.675781 41.609375 C 33.609375 41.699219 33.542969 41.789062 33.484375 41.882812 C 33.398438 42.023438 33.320312 42.171875 33.246094 42.320312 C 33.199219 42.417969 33.152344 42.511719 33.109375 42.613281 C 33.042969 42.789062 32.988281 42.96875 32.945312 43.152344 C 32.921875 43.242188 32.890625 43.332031 32.875 43.417969 C 32.816406 43.699219 32.789062 43.980469 32.789062 44.265625 L 32.789062 50.542969 L 9.472656 50.542969 L 9.472656 24.539062 C 9.472656 24.179688 9.542969 23.839844 9.675781 23.507812 C 9.8125 23.179688 10.007812 22.886719 10.261719 22.636719 C 10.511719 22.382812 10.804688 22.1875 11.132812 22.050781 C 11.464844 21.917969 11.804688 21.847656 12.164062 21.847656 Z M 9.472656 55.027344 L 9.472656 52.335938 L 32.789062 52.335938 L 32.789062 57.71875 L 12.164062 57.71875 C 11.804688 57.71875 11.464844 57.648438 11.132812 57.511719 C 10.804688 57.375 10.511719 57.183594 10.261719 56.929688 C 10.007812 56.675781 9.8125 56.386719 9.675781 56.058594 C 9.542969 55.726562 9.472656 55.382812 9.472656 55.027344 Z M 16.648438 61.304688 C 16.648438 61.542969 16.601562 61.769531 16.511719 61.992188 C 16.417969 62.210938 16.289062 62.40625 16.121094 62.574219 C 15.953125 62.742188 15.757812 62.871094 15.539062 62.960938 C 15.320312 63.050781 15.089844 63.097656 14.851562 63.097656 C 14.617188 63.097656 14.386719 63.050781 14.167969 62.960938 C 13.945312 62.871094 13.753906 62.742188 13.585938 62.574219 C 13.417969 62.40625 13.289062 62.210938 13.195312 61.992188 C 13.105469 61.769531 13.058594 61.542969 13.058594 61.304688 L 13.058594 59.511719 L 16.648438 59.511719 Z M 32.789062 61.304688 C 32.789062 61.542969 32.742188 61.769531 32.652344 61.992188 C 32.558594 62.210938 32.429688 62.40625 32.261719 62.574219 C 32.09375 62.742188 31.902344 62.871094 31.679688 62.960938 C 31.460938 63.050781 31.230469 63.097656 30.996094 63.097656 C 30.757812 63.097656 30.527344 63.050781 30.308594 62.960938 C 30.089844 62.871094 29.894531 62.742188 29.726562 62.574219 C 29.558594 62.40625 29.429688 62.210938 29.335938 61.992188 C 29.246094 61.769531 29.199219 61.542969 29.199219 61.304688 L 29.199219 59.511719 L 32.789062 59.511719 Z M 34.582031 60.40625 L 34.582031 59.511719 L 35.476562 59.511719 C 35.835938 59.511719 36.179688 59.578125 36.507812 59.714844 C 36.835938 59.851562 37.128906 60.046875 37.378906 60.296875 C 37.632812 60.550781 37.828125 60.84375 37.964844 61.171875 C 38.101562 61.5 38.167969 61.84375 38.167969 62.199219 L 38.167969 63.097656 L 37.273438 63.097656 C 36.914062 63.097656 36.570312 63.03125 36.242188 62.894531 C 35.914062 62.757812 35.621094 62.5625 35.371094 62.308594 C 35.117188 62.058594 34.921875 61.765625 34.785156 61.4375 C 34.648438 61.109375 34.582031 60.765625 34.582031 60.40625 Z M 60.585938 63.097656 L 59.691406 63.097656 L 59.691406 62.199219 C 59.691406 61.84375 59.757812 61.5 59.894531 61.171875 C 60.03125 60.84375 60.226562 60.550781 60.476562 60.296875 C 60.730469 60.046875 61.019531 59.851562 61.351562 59.714844 C 61.679688 59.578125 62.023438 59.511719 62.378906 59.511719 L 63.277344 59.511719 L 63.277344 60.40625 C 63.277344 60.765625 63.207031 61.109375 63.074219 61.4375 C 62.9375 61.765625 62.742188 62.058594 62.488281 62.308594 C 62.238281 62.5625 61.945312 62.757812 61.617188 62.894531 C 61.285156 63.03125 60.945312 63.097656 60.585938 63.097656 Z M 60.585938 63.097656 " fill-opacity="1" fill-rule="nonzero"/></g></svg>