<svg xmlns="http://www.w3.org/2000/svg" xmlns:xlink="http://www.w3.org/1999/xlink" width="100" zoomAndPan="magnify" viewBox="0 0 75 74.999997" height="100" preserveAspectRatio="xMidYMid meet" version="1.0"><defs><clipPath id="4083157786"><path d="M 13.980469 12.378906 L 61.230469 12.378906 L 61.230469 62.628906 L 13.980469 62.628906 Z M 13.980469 12.378906 " clip-rule="nonzero"/></clipPath></defs><path fill="#000000" d="M 32.722656 39.9375 C 26.785156 39.9375 22.136719 42.429688 22.136719 45.609375 L 22.136719 48.042969 C 22.136719 51.222656 26.785156 53.714844 32.722656 53.714844 C 38.65625 53.714844 43.304688 51.222656 43.304688 48.042969 L 43.304688 45.609375 C 43.304688 42.429688 38.65625 39.9375 32.722656 39.9375 Z M 32.722656 52.09375 C 28.175781 52.09375 24.824219 50.507812 23.980469 48.84375 C 25.871094 50.328125 29.046875 51.285156 32.722656 51.285156 C 36.394531 51.285156 39.574219 50.328125 41.464844 48.84375 C 40.617188 50.507812 37.269531 52.09375 32.722656 52.09375 Z M 32.722656 49.664062 C 27.445312 49.664062 23.765625 47.527344 23.765625 45.609375 C 23.765625 43.691406 27.445312 41.558594 32.722656 41.558594 C 38 41.558594 41.675781 43.691406 41.675781 45.609375 C 41.675781 47.527344 38 49.664062 32.722656 49.664062 Z M 32.722656 49.664062 " fill-opacity="1" fill-rule="nonzero"/><path fill="#000000" d="M 31.90625 44.800781 L 33.535156 44.800781 L 33.535156 46.421875 L 31.90625 46.421875 Z M 31.90625 44.800781 " fill-opacity="1" fill-rule="nonzero"/><g clip-path="url(#4083157786)"><path fill="#000000" d="M 61.210938 55.335938 C 61.210938 55.242188 61.199219 55.148438 61.167969 55.058594 L 54.714844 37.390625 L 56.332031 13.246094 C 56.347656 13.011719 56.273438 12.808594 56.113281 12.636719 C 55.953125 12.464844 55.753906 12.378906 55.519531 12.378906 L 19.695312 12.378906 C 19.460938 12.378906 19.261719 12.464844 19.101562 12.636719 C 18.9375 12.808594 18.867188 13.011719 18.882812 13.246094 L 20.5 37.390625 L 14.046875 55.058594 C 14.015625 55.148438 14 55.242188 14.003906 55.335938 L 13.996094 55.335938 L 13.996094 61.820312 C 13.996094 62.042969 14.078125 62.234375 14.234375 62.394531 C 14.394531 62.550781 14.585938 62.628906 14.8125 62.628906 L 60.402344 62.628906 C 60.628906 62.628906 60.820312 62.550781 60.976562 62.394531 C 61.136719 62.234375 61.214844 62.042969 61.214844 61.820312 L 61.214844 55.335938 Z M 54.648438 14 L 53.128906 36.695312 L 22.085938 36.695312 L 20.566406 14 Z M 21.894531 38.316406 L 53.320312 38.316406 L 59.238281 54.527344 L 15.972656 54.527344 Z M 15.625 61.007812 L 15.625 56.144531 L 59.589844 56.144531 L 59.589844 61.007812 Z M 15.625 61.007812 " fill-opacity="1" fill-rule="nonzero"/></g><path fill="#000000" d="M 29.464844 58.578125 C 29.464844 58.792969 29.425781 59 29.339844 59.199219 C 29.257812 59.398438 29.140625 59.570312 28.988281 59.722656 C 28.835938 59.875 28.660156 59.992188 28.460938 60.074219 C 28.261719 60.15625 28.054688 60.199219 27.835938 60.199219 C 27.621094 60.199219 27.414062 60.15625 27.214844 60.074219 C 27.015625 59.992188 26.839844 59.875 26.6875 59.722656 C 26.53125 59.570312 26.414062 59.398438 26.332031 59.199219 C 26.25 59 26.207031 58.792969 26.207031 58.578125 C 26.207031 58.363281 26.25 58.15625 26.332031 57.957031 C 26.414062 57.757812 26.53125 57.582031 26.6875 57.433594 C 26.839844 57.28125 27.015625 57.164062 27.214844 57.082031 C 27.414062 56.996094 27.621094 56.957031 27.835938 56.957031 C 28.054688 56.957031 28.261719 56.996094 28.460938 57.082031 C 28.660156 57.164062 28.835938 57.28125 28.988281 57.433594 C 29.140625 57.582031 29.257812 57.757812 29.339844 57.957031 C 29.425781 58.15625 29.464844 58.363281 29.464844 58.578125 Z M 29.464844 58.578125 " fill-opacity="1" fill-rule="nonzero"/><path fill="#000000" d="M 39.234375 58.578125 C 39.234375 58.792969 39.195312 59 39.109375 59.199219 C 39.027344 59.398438 38.910156 59.570312 38.757812 59.722656 C 38.605469 59.875 38.429688 59.992188 38.230469 60.074219 C 38.03125 60.15625 37.824219 60.199219 37.605469 60.199219 C 37.390625 60.199219 37.183594 60.15625 36.984375 60.074219 C 36.785156 59.992188 36.609375 59.875 36.457031 59.722656 C 36.300781 59.570312 36.183594 59.398438 36.101562 59.199219 C 36.019531 59 35.976562 58.792969 35.976562 58.578125 C 35.976562 58.363281 36.019531 58.15625 36.101562 57.957031 C 36.183594 57.757812 36.300781 57.582031 36.457031 57.433594 C 36.609375 57.28125 36.785156 57.164062 36.984375 57.082031 C 37.183594 56.996094 37.390625 56.957031 37.605469 56.957031 C 37.824219 56.957031 38.03125 56.996094 38.230469 57.082031 C 38.429688 57.164062 38.605469 57.28125 38.757812 57.433594 C 38.910156 57.582031 39.027344 57.757812 39.109375 57.957031 C 39.195312 58.15625 39.234375 58.363281 39.234375 58.578125 Z M 39.234375 58.578125 " fill-opacity="1" fill-rule="nonzero"/><path fill="#000000" d="M 49.003906 58.578125 C 49.003906 58.792969 48.964844 59 48.878906 59.199219 C 48.796875 59.398438 48.679688 59.570312 48.527344 59.722656 C 48.375 59.875 48.199219 59.992188 48 60.074219 C 47.800781 60.15625 47.59375 60.199219 47.375 60.199219 C 47.160156 60.199219 46.953125 60.15625 46.753906 60.074219 C 46.554688 59.992188 46.378906 59.875 46.226562 59.722656 C 46.070312 59.570312 45.953125 59.398438 45.871094 59.199219 C 45.789062 59 45.746094 58.792969 45.746094 58.578125 C 45.746094 58.363281 45.789062 58.15625 45.871094 57.957031 C 45.953125 57.757812 46.070312 57.582031 46.226562 57.433594 C 46.378906 57.28125 46.554688 57.164062 46.753906 57.082031 C 46.953125 56.996094 47.160156 56.957031 47.375 56.957031 C 47.59375 56.957031 47.800781 56.996094 48 57.082031 C 48.199219 57.164062 48.375 57.28125 48.527344 57.433594 C 48.679688 57.582031 48.796875 57.757812 48.878906 57.957031 C 48.964844 58.15625 49.003906 58.363281 49.003906 58.578125 Z M 49.003906 58.578125 " fill-opacity="1" fill-rule="nonzero"/><path fill="#000000" d="M 53.953125 48.082031 L 50.757812 42.257812 C 51.957031 42.085938 53.074219 41.683594 53.074219 40.746094 C 53.074219 39.335938 50.523438 39.125 49.003906 39.125 C 47.484375 39.125 44.933594 39.335938 44.933594 40.746094 C 44.933594 42.15625 47.441406 42.363281 48.964844 42.367188 L 52.316406 48.488281 C 52.265625 48.527344 52.210938 48.570312 52.164062 48.613281 L 50.058594 50.710938 C 49.898438 50.867188 49.820312 51.058594 49.820312 51.285156 C 49.820312 51.507812 49.898438 51.699219 50.058594 51.855469 L 51.683594 53.476562 C 51.84375 53.636719 52.035156 53.714844 52.261719 53.714844 C 52.484375 53.714844 52.675781 53.636719 52.835938 53.476562 L 54.941406 51.382812 C 55.199219 51.128906 55.371094 50.824219 55.457031 50.476562 C 55.546875 50.128906 55.539062 49.78125 55.433594 49.4375 C 55.332031 49.09375 55.148438 48.800781 54.882812 48.554688 C 54.613281 48.3125 54.304688 48.15625 53.953125 48.082031 Z M 53.789062 50.234375 L 52.261719 51.757812 L 51.785156 51.285156 L 53.3125 49.761719 C 53.421875 49.667969 53.542969 49.648438 53.675781 49.703125 C 53.804688 49.757812 53.878906 49.855469 53.890625 50 C 53.890625 50.089844 53.855469 50.167969 53.789062 50.234375 Z M 53.789062 50.234375 " fill-opacity="1" fill-rule="nonzero"/><path fill="#000000" d="M 24.582031 26.96875 L 50.632812 26.96875 C 50.957031 26.96875 51.269531 26.90625 51.566406 26.785156 C 51.867188 26.660156 52.128906 26.484375 52.359375 26.257812 C 52.589844 26.027344 52.765625 25.765625 52.890625 25.46875 C 53.011719 25.171875 53.074219 24.859375 53.074219 24.539062 C 53.074219 24.214844 53.011719 23.90625 52.890625 23.605469 C 52.765625 23.308594 52.589844 23.046875 52.359375 22.816406 C 52.128906 22.589844 51.867188 22.414062 51.566406 22.292969 C 51.269531 22.167969 50.957031 22.105469 50.632812 22.105469 L 24.582031 22.105469 C 24.257812 22.105469 23.945312 22.167969 23.644531 22.292969 C 23.347656 22.414062 23.082031 22.589844 22.855469 22.816406 C 22.625 23.046875 22.449219 23.308594 22.324219 23.605469 C 22.199219 23.90625 22.136719 24.214844 22.136719 24.539062 C 22.136719 24.859375 22.199219 25.171875 22.324219 25.46875 C 22.449219 25.765625 22.625 26.027344 22.855469 26.257812 C 23.082031 26.484375 23.347656 26.660156 23.644531 26.785156 C 23.945312 26.90625 24.257812 26.96875 24.582031 26.96875 Z M 24.582031 23.726562 L 50.632812 23.726562 C 50.859375 23.726562 51.050781 23.804688 51.207031 23.964844 C 51.367188 24.121094 51.445312 24.3125 51.445312 24.539062 C 51.445312 24.761719 51.367188 24.953125 51.207031 25.109375 C 51.050781 25.269531 50.859375 25.347656 50.632812 25.347656 L 24.582031 25.347656 C 24.355469 25.347656 24.164062 25.269531 24.003906 25.109375 C 23.847656 24.953125 23.765625 24.761719 23.765625 24.539062 C 23.765625 24.3125 23.847656 24.121094 24.003906 23.964844 C 24.164062 23.804688 24.355469 23.726562 24.582031 23.726562 Z M 24.582031 23.726562 " fill-opacity="1" fill-rule="nonzero"/></svg>