<svg xmlns="http://www.w3.org/2000/svg" xmlns:xlink="http://www.w3.org/1999/xlink" width="100" zoomAndPan="magnify" viewBox="0 0 75 74.999997" height="100" preserveAspectRatio="xMidYMid meet" version="1.0"><defs><clipPath id="ff96684858"><path d="M 15.777344 15 L 59.277344 15 L 59.277344 68.773438 L 15.777344 68.773438 Z M 15.777344 15 " clip-rule="nonzero"/></clipPath><clipPath id="0dc89ba2c1"><path d="M 15.777344 6.523438 L 52 6.523438 L 52 18 L 15.777344 18 Z M 15.777344 6.523438 " clip-rule="nonzero"/></clipPath></defs><g clip-path="url(#ff96684858)"><path fill="#000000" d="M 17.484375 67.148438 L 57.65625 67.148438 L 57.65625 17.410156 L 17.484375 17.410156 Z M 58.464844 68.773438 L 16.675781 68.773438 C 16.230469 68.773438 15.867188 68.410156 15.867188 67.960938 L 15.867188 16.597656 C 15.867188 16.152344 16.230469 15.789062 16.675781 15.789062 L 58.464844 15.789062 C 58.910156 15.789062 59.273438 16.152344 59.273438 16.597656 L 59.273438 67.960938 C 59.273438 68.40625 58.910156 68.773438 58.464844 68.773438 Z M 58.464844 68.773438 " fill-opacity="1" fill-rule="evenodd"/></g><g clip-path="url(#0dc89ba2c1)"><path fill="#000000" d="M 16.675781 17.410156 C 16.320312 17.410156 15.996094 17.171875 15.898438 16.8125 C 15.78125 16.382812 16.03125 15.933594 16.464844 15.816406 L 50.027344 6.589844 C 50.269531 6.523438 50.53125 6.574219 50.730469 6.726562 C 50.929688 6.878906 51.050781 7.117188 51.050781 7.371094 L 51.050781 16.597656 C 51.050781 17.046875 50.6875 17.410156 50.242188 17.410156 C 49.792969 17.410156 49.433594 17.046875 49.433594 16.597656 L 49.433594 8.433594 L 16.890625 17.382812 C 16.820312 17.402344 16.746094 17.410156 16.675781 17.410156 Z M 16.675781 17.410156 " fill-opacity="1" fill-rule="evenodd"/></g><path fill="#000000" d="M 29.265625 52.175781 C 29.042969 52.175781 28.828125 52.082031 28.675781 51.917969 C 24.421875 47.335938 20.023438 42.597656 20.023438 37.734375 C 20.023438 34.785156 22.277344 32.382812 25.050781 32.382812 C 27.101562 32.382812 28.316406 33.335938 29.265625 34.871094 C 30.214844 33.335938 31.429688 32.382812 33.484375 32.382812 C 34.292969 32.382812 35.09375 32.589844 35.808594 32.988281 C 36.199219 33.203125 36.339844 33.699219 36.121094 34.089844 C 35.90625 34.484375 35.414062 34.625 35.023438 34.40625 C 34.542969 34.140625 34.023438 34.003906 33.484375 34.003906 C 31.878906 34.003906 31.03125 34.71875 30 36.941406 C 29.867188 37.230469 29.582031 37.410156 29.265625 37.410156 C 28.953125 37.410156 28.667969 37.230469 28.535156 36.941406 C 27.5 34.71875 26.65625 34.003906 25.050781 34.003906 C 23.167969 34.003906 21.640625 35.679688 21.640625 37.734375 C 21.640625 41.753906 25.421875 46.023438 29.265625 50.175781 C 31.648438 47.601562 34.027344 44.964844 35.464844 42.402344 C 35.683594 42.015625 36.175781 41.875 36.566406 42.097656 C 36.953125 42.316406 37.09375 42.8125 36.871094 43.203125 C 35.222656 46.140625 32.496094 49.078125 29.859375 51.917969 C 29.707031 52.082031 29.492188 52.175781 29.265625 52.175781 Z M 29.265625 52.175781 " fill-opacity="1" fill-rule="evenodd"/><path fill="#000000" d="M 39.386719 32.371094 C 37.089844 32.371094 35.222656 34.414062 35.222656 36.921875 C 35.222656 41.753906 39.769531 46.851562 44.363281 51.804688 C 48.953125 46.851562 53.5 41.753906 53.5 36.921875 C 53.5 34.414062 51.632812 32.375 49.335938 32.375 C 47.398438 32.375 46.328125 33.269531 45.09375 35.921875 C 44.960938 36.210938 44.675781 36.390625 44.363281 36.390625 C 44.046875 36.390625 43.761719 36.210938 43.628906 35.921875 C 42.398438 33.269531 41.328125 32.371094 39.386719 32.371094 Z M 44.363281 53.808594 C 44.136719 53.808594 43.921875 53.714844 43.769531 53.550781 C 38.773438 48.164062 33.605469 42.597656 33.605469 36.921875 C 33.605469 33.519531 36.199219 30.75 39.386719 30.75 C 41.832031 30.75 43.246094 31.933594 44.363281 33.824219 C 45.476562 31.933594 46.890625 30.75 49.335938 30.75 C 52.523438 30.75 55.117188 33.519531 55.117188 36.921875 C 55.117188 42.597656 49.949219 48.164062 44.953125 53.550781 C 44.800781 53.714844 44.585938 53.808594 44.363281 53.808594 Z M 44.363281 53.808594 " fill-opacity="1" fill-rule="evenodd"/></svg>