<svg xmlns="http://www.w3.org/2000/svg" xmlns:xlink="http://www.w3.org/1999/xlink" width="100" zoomAndPan="magnify" viewBox="0 0 75 74.999997" height="100" preserveAspectRatio="xMidYMid meet" version="1.0"><defs><clipPath id="1ecd42a530"><path d="M 7.5 8.550781 L 66.75 8.550781 L 66.75 65.550781 L 7.5 65.550781 Z M 7.5 8.550781 " clip-rule="nonzero"/></clipPath></defs><g clip-path="url(#1ecd42a530)"><path fill="#000000" d="M 37.160156 11.34375 L 42.507812 20.359375 L 31.601562 20.363281 Z M 37.175781 25.300781 C 36.648438 25.300781 36.222656 25.726562 36.222656 26.25 L 36.222656 30.996094 C 36.222656 31.523438 36.648438 31.949219 37.175781 31.949219 C 37.703125 31.949219 38.132812 31.523438 38.132812 30.996094 L 38.132812 26.25 C 38.132812 25.726562 37.703125 25.300781 37.175781 25.300781 Z M 40.984375 22.261719 L 40.984375 39.539062 L 33.371094 39.539062 L 33.371094 22.261719 Z M 41.929688 41.441406 C 41.929688 41.441406 41.933594 41.441406 41.9375 41.441406 C 41.941406 41.441406 41.945312 41.441406 41.949219 41.441406 Z M 18.132812 44.285156 C 17.605469 44.285156 17.179688 44.710938 17.179688 45.234375 L 17.179688 49.980469 C 17.179688 50.507812 17.605469 50.933594 18.132812 50.933594 C 18.660156 50.933594 19.085938 50.507812 19.085938 49.980469 L 19.085938 45.234375 C 19.085938 44.710938 18.660156 44.285156 18.132812 44.285156 Z M 56.222656 44.285156 C 55.695312 44.285156 55.269531 44.710938 55.269531 45.234375 L 55.269531 49.980469 C 55.269531 50.507812 55.695312 50.933594 56.222656 50.933594 C 56.75 50.933594 57.175781 50.507812 57.175781 49.980469 L 57.175781 45.234375 C 57.175781 44.710938 56.75 44.285156 56.222656 44.285156 Z M 37.175781 46.566406 L 37.492188 46.582031 L 37.804688 46.621094 L 38.113281 46.683594 L 38.414062 46.773438 L 38.707031 46.886719 L 38.988281 47.023438 L 39.257812 47.183594 L 39.515625 47.367188 L 39.753906 47.570312 L 39.976562 47.792969 L 40.179688 48.03125 L 40.363281 48.285156 L 40.523438 48.554688 L 40.664062 48.835938 L 40.777344 49.128906 L 40.867188 49.429688 L 40.929688 49.738281 L 40.96875 50.046875 L 40.984375 50.382812 L 40.984375 55.046875 L 40.972656 55.046875 C 40.949219 55.042969 40.925781 55.042969 40.90625 55.039062 L 39.585938 54.953125 C 39.5625 54.953125 39.542969 54.949219 39.523438 54.949219 C 39.519531 54.949219 39.519531 54.949219 39.519531 54.949219 L 38.195312 54.953125 C 38.171875 54.953125 38.152344 54.957031 38.128906 54.957031 L 36.808594 55.054688 C 36.789062 55.054688 36.765625 55.058594 36.742188 55.058594 L 35.433594 55.246094 C 35.410156 55.25 35.390625 55.253906 35.367188 55.257812 L 34.09375 55.53125 C 34.070312 55.535156 34.050781 55.539062 34.03125 55.546875 L 33.492188 55.699219 L 33.371094 50.371094 L 33.382812 50.046875 L 33.421875 49.738281 L 33.488281 49.429688 L 33.578125 49.128906 L 33.691406 48.835938 L 33.828125 48.554688 L 33.992188 48.285156 L 34.171875 48.03125 L 34.375 47.792969 L 34.597656 47.570312 L 34.839844 47.367188 L 35.09375 47.183594 L 35.367188 47.023438 L 35.648438 46.886719 L 35.941406 46.773438 L 36.242188 46.683594 L 36.550781 46.621094 L 36.863281 46.582031 Z M 60.027344 36.695312 L 60.027344 54.726562 C 60.027344 54.757812 60.03125 54.789062 60.035156 54.820312 L 60.03125 54.820312 L 59.554688 54.929688 C 59.539062 54.933594 59.523438 54.9375 59.507812 54.941406 L 58.34375 55.273438 C 58.328125 55.277344 58.3125 55.28125 58.300781 55.289062 L 57.15625 55.675781 C 57.140625 55.683594 57.125 55.6875 57.109375 55.695312 L 55.988281 56.140625 C 55.972656 56.144531 55.957031 56.152344 55.945312 56.160156 L 54.816406 56.675781 C 54.800781 56.683594 54.785156 56.691406 54.769531 56.699219 L 53.671875 57.277344 C 53.65625 57.285156 53.640625 57.292969 53.628906 57.300781 L 52.558594 57.933594 C 52.546875 57.941406 52.53125 57.949219 52.519531 57.960938 L 52.414062 58.027344 L 52.414062 36.695312 L 56.207031 36.695312 C 56.214844 36.695312 56.21875 36.695312 56.222656 36.695312 C 56.226562 36.695312 56.230469 36.695312 56.234375 36.695312 L 56.210938 36.695312 Z M 14.324219 36.695312 L 18.128906 36.695312 L 18.125 36.695312 C 18.128906 36.695312 18.128906 36.695312 18.132812 36.695312 C 18.132812 36.695312 18.136719 36.695312 18.136719 36.695312 L 21.9375 36.695312 L 21.9375 55.308594 L 20.78125 55.527344 C 20.757812 55.53125 20.738281 55.535156 20.71875 55.542969 L 19.417969 55.878906 C 19.398438 55.882812 19.378906 55.886719 19.359375 55.894531 L 18.085938 56.3125 C 18.066406 56.320312 18.046875 56.328125 18.027344 56.332031 L 16.78125 56.832031 C 16.761719 56.839844 16.746094 56.847656 16.730469 56.855469 L 15.726562 57.328125 C 15.710938 57.335938 15.695312 57.34375 15.679688 57.351562 L 14.703125 57.875 C 14.6875 57.882812 14.671875 57.890625 14.660156 57.902344 L 14.324219 58.105469 Z M 50.507812 41.441406 L 50.507812 58.636719 L 50.035156 58.300781 C 50.015625 58.289062 50 58.277344 49.980469 58.265625 L 48.851562 57.570312 C 48.835938 57.558594 48.816406 57.550781 48.796875 57.539062 L 47.625 56.925781 C 47.605469 56.917969 47.582031 56.90625 47.5625 56.898438 L 46.351562 56.367188 C 46.332031 56.359375 46.3125 56.351562 46.289062 56.34375 L 45.042969 55.898438 C 45.023438 55.890625 45.003906 55.882812 44.980469 55.878906 L 43.707031 55.519531 C 43.6875 55.515625 43.664062 55.511719 43.644531 55.503906 L 42.890625 55.347656 L 42.890625 55.351562 L 42.890625 50.398438 C 42.894531 50.371094 42.894531 50.347656 42.890625 50.324219 L 42.875 49.929688 C 42.875 49.90625 42.871094 49.878906 42.867188 49.851562 L 42.820312 49.464844 C 42.816406 49.4375 42.8125 49.410156 42.808594 49.386719 L 42.726562 49 C 42.722656 48.976562 42.714844 48.949219 42.707031 48.925781 L 42.59375 48.550781 C 42.585938 48.523438 42.578125 48.5 42.570312 48.476562 L 42.425781 48.109375 C 42.417969 48.085938 42.40625 48.0625 42.394531 48.039062 L 42.222656 47.683594 C 42.210938 47.660156 42.199219 47.636719 42.183594 47.617188 L 41.984375 47.277344 C 41.96875 47.257812 41.953125 47.234375 41.941406 47.214844 L 41.710938 46.894531 C 41.695312 46.871094 41.679688 46.851562 41.664062 46.832031 L 41.40625 46.53125 C 41.390625 46.511719 41.375 46.492188 41.355469 46.476562 L 41.078125 46.199219 C 41.058594 46.179688 41.039062 46.160156 41.019531 46.144531 L 40.71875 45.890625 C 40.699219 45.875 40.675781 45.859375 40.65625 45.84375 L 40.335938 45.613281 C 40.3125 45.597656 40.292969 45.585938 40.269531 45.570312 L 39.929688 45.371094 C 39.910156 45.355469 39.886719 45.34375 39.863281 45.332031 L 39.507812 45.160156 C 39.484375 45.148438 39.460938 45.140625 39.4375 45.128906 L 39.070312 44.988281 C 39.046875 44.976562 39.019531 44.96875 38.996094 44.960938 L 38.617188 44.847656 C 38.59375 44.839844 38.566406 44.835938 38.542969 44.828125 L 38.15625 44.75 C 38.128906 44.742188 38.105469 44.738281 38.078125 44.738281 L 37.6875 44.6875 C 37.664062 44.683594 37.636719 44.683594 37.609375 44.679688 L 37.214844 44.664062 C 37.203125 44.664062 37.191406 44.664062 37.175781 44.664062 C 37.164062 44.664062 37.152344 44.664062 37.136719 44.664062 L 36.746094 44.679688 C 36.71875 44.683594 36.691406 44.683594 36.664062 44.6875 L 36.277344 44.738281 C 36.25 44.738281 36.222656 44.742188 36.199219 44.75 L 35.8125 44.828125 C 35.785156 44.835938 35.761719 44.839844 35.734375 44.847656 L 35.359375 44.960938 C 35.332031 44.96875 35.308594 44.976562 35.285156 44.988281 L 34.917969 45.128906 C 34.894531 45.140625 34.867188 45.148438 34.84375 45.160156 L 34.492188 45.332031 C 34.46875 45.34375 34.445312 45.355469 34.421875 45.371094 L 34.085938 45.570312 C 34.0625 45.585938 34.039062 45.597656 34.019531 45.613281 L 33.699219 45.84375 C 33.675781 45.859375 33.65625 45.875 33.636719 45.890625 L 33.335938 46.144531 C 33.316406 46.160156 33.296875 46.179688 33.277344 46.199219 L 33 46.476562 C 32.980469 46.492188 32.964844 46.511719 32.945312 46.53125 L 32.691406 46.832031 C 32.675781 46.851562 32.660156 46.871094 32.644531 46.894531 L 32.414062 47.214844 C 32.398438 47.234375 32.386719 47.257812 32.371094 47.277344 L 32.171875 47.617188 C 32.15625 47.636719 32.144531 47.660156 32.132812 47.683594 L 31.960938 48.039062 C 31.949219 48.0625 31.9375 48.085938 31.929688 48.109375 L 31.785156 48.476562 C 31.777344 48.5 31.765625 48.523438 31.757812 48.550781 L 31.648438 48.925781 C 31.640625 48.949219 31.632812 48.976562 31.628906 49 L 31.546875 49.386719 C 31.542969 49.410156 31.539062 49.4375 31.535156 49.464844 L 31.484375 49.851562 C 31.480469 49.878906 31.480469 49.90625 31.480469 49.929688 L 31.460938 50.324219 C 31.460938 50.355469 31.460938 50.386719 31.464844 50.417969 L 31.460938 50.417969 L 31.585938 55.867188 L 30.53125 55.585938 C 30.507812 55.578125 30.488281 55.574219 30.46875 55.570312 L 29.152344 55.308594 C 29.132812 55.304688 29.113281 55.300781 29.09375 55.296875 L 27.761719 55.121094 C 27.742188 55.117188 27.71875 55.113281 27.699219 55.113281 L 26.359375 55.019531 C 26.339844 55.019531 26.320312 55.019531 26.296875 55.019531 L 24.957031 55.011719 C 24.953125 55.011719 24.953125 55.011719 24.953125 55.011719 C 24.933594 55.011719 24.914062 55.015625 24.894531 55.015625 L 23.847656 55.078125 L 23.847656 41.441406 L 32.40625 41.441406 C 32.410156 41.441406 32.414062 41.441406 32.414062 41.441406 C 32.417969 41.441406 32.421875 41.441406 32.425781 41.441406 L 32.417969 41.441406 Z M 37.175781 8.546875 C 36.847656 8.546875 36.539062 8.71875 36.363281 9 L 29.082031 20.8125 C 28.902344 21.109375 28.894531 21.476562 29.0625 21.777344 C 29.230469 22.078125 29.550781 22.261719 29.894531 22.261719 L 31.460938 22.261719 L 31.460938 39.539062 L 23.847656 39.539062 L 23.847656 30.996094 C 23.847656 30.472656 23.421875 30.046875 22.894531 30.046875 C 22.367188 30.046875 21.9375 30.472656 21.9375 30.996094 L 21.9375 34.792969 L 19.085938 34.792969 L 19.085938 30.996094 C 19.085938 30.472656 18.660156 30.046875 18.132812 30.046875 C 17.605469 30.046875 17.179688 30.472656 17.179688 30.996094 L 17.179688 34.792969 L 14.324219 34.792969 L 14.324219 30.996094 C 14.324219 30.472656 13.898438 30.046875 13.371094 30.046875 C 12.84375 30.046875 12.417969 30.472656 12.417969 30.996094 L 12.417969 59.386719 L 11.828125 59.835938 C 11.816406 59.84375 11.804688 59.855469 11.789062 59.867188 L 10.945312 60.585938 C 10.933594 60.597656 10.921875 60.609375 10.910156 60.621094 L 10.105469 61.382812 C 10.09375 61.394531 10.082031 61.40625 10.070312 61.417969 L 9.304688 62.222656 C 9.296875 62.234375 9.285156 62.246094 9.273438 62.261719 L 8.554688 63.105469 C 8.542969 63.117188 8.53125 63.128906 8.523438 63.144531 L 7.851562 64.023438 C 7.53125 64.441406 7.613281 65.039062 8.03125 65.359375 C 8.203125 65.488281 8.40625 65.550781 8.609375 65.550781 C 8.898438 65.550781 9.179688 65.421875 9.371094 65.175781 L 10.027344 64.316406 L 10.710938 63.511719 L 11.4375 62.742188 L 12.207031 62.015625 L 13.011719 61.328125 L 13.851562 60.6875 L 14.726562 60.089844 L 15.628906 59.539062 L 16.5625 59.039062 L 17.519531 58.585938 L 18.710938 58.109375 L 19.925781 57.710938 L 21.167969 57.390625 L 22.425781 57.152344 L 23.699219 56.992188 L 24.976562 56.914062 L 26.257812 56.921875 L 27.539062 57.007812 L 28.808594 57.179688 L 29.476562 57.3125 L 29.019531 57.554688 C 29 57.5625 28.980469 57.574219 28.960938 57.585938 L 27.851562 58.269531 C 27.832031 58.28125 27.8125 58.292969 27.796875 58.304688 L 26.734375 59.0625 C 26.71875 59.074219 26.699219 59.089844 26.683594 59.101562 L 25.675781 59.929688 C 25.660156 59.945312 25.644531 59.957031 25.628906 59.972656 L 24.679688 60.867188 C 24.664062 60.882812 24.648438 60.898438 24.636719 60.914062 L 23.75 61.871094 C 23.738281 61.886719 23.722656 61.90625 23.707031 61.921875 L 22.894531 62.9375 C 22.878906 62.953125 22.867188 62.972656 22.855469 62.988281 L 22.109375 64.058594 C 21.808594 64.488281 21.917969 65.082031 22.347656 65.382812 C 22.515625 65.496094 22.703125 65.550781 22.894531 65.550781 C 23.195312 65.550781 23.492188 65.410156 23.675781 65.144531 L 24.402344 64.101562 L 25.179688 63.136719 L 26.015625 62.226562 L 26.917969 61.375 L 26.917969 61.378906 L 27.875 60.589844 L 28.882812 59.871094 L 29.9375 59.222656 L 31.03125 58.644531 L 32.167969 58.144531 L 33.332031 57.722656 L 34.523438 57.382812 L 35.738281 57.125 L 36.980469 56.949219 L 38.234375 56.855469 L 39.492188 56.851562 L 40.746094 56.9375 L 41.992188 57.105469 L 43.222656 57.359375 L 44.433594 57.699219 L 45.617188 58.125 L 46.765625 58.625 L 47.878906 59.207031 L 48.949219 59.867188 L 49.464844 60.230469 L 49.464844 60.234375 L 49.457031 60.238281 C 49.441406 60.25 49.429688 60.261719 49.417969 60.273438 L 48.503906 61.113281 C 48.492188 61.125 48.480469 61.136719 48.46875 61.148438 L 47.601562 62.035156 C 47.589844 62.046875 47.582031 62.058594 47.570312 62.070312 L 46.75 63 C 46.738281 63.015625 46.730469 63.027344 46.71875 63.039062 L 45.949219 64.011719 C 45.625 64.425781 45.695312 65.023438 46.109375 65.347656 C 46.285156 65.484375 46.492188 65.550781 46.699219 65.550781 C 46.980469 65.550781 47.261719 65.425781 47.449219 65.1875 L 48.203125 64.238281 L 48.988281 63.34375 L 49.820312 62.492188 L 50.695312 61.683594 L 51.609375 60.925781 L 52.566406 60.214844 L 53.558594 59.554688 L 54.582031 58.949219 L 55.636719 58.394531 L 56.71875 57.898438 L 57.796875 57.46875 L 58.890625 57.097656 L 60.007812 56.777344 L 61.136719 56.519531 L 62.277344 56.316406 L 63.425781 56.171875 L 64.582031 56.085938 L 65.765625 56.058594 C 66.292969 56.046875 66.710938 55.609375 66.699219 55.085938 C 66.6875 54.570312 66.261719 54.15625 65.746094 54.15625 C 65.738281 54.15625 65.730469 54.15625 65.722656 54.15625 L 64.515625 54.183594 C 64.5 54.1875 64.480469 54.1875 64.464844 54.1875 L 63.261719 54.277344 C 63.246094 54.277344 63.230469 54.28125 63.214844 54.28125 L 62.015625 54.433594 C 62 54.433594 61.984375 54.4375 61.96875 54.4375 L 61.9375 54.445312 L 61.9375 30.996094 C 61.9375 30.472656 61.511719 30.046875 60.984375 30.046875 C 60.457031 30.046875 60.027344 30.472656 60.027344 30.996094 L 60.027344 34.792969 L 57.175781 34.792969 L 57.175781 30.996094 C 57.175781 30.472656 56.75 30.046875 56.222656 30.046875 C 55.695312 30.046875 55.269531 30.472656 55.269531 30.996094 L 55.269531 34.792969 L 52.414062 34.792969 L 52.414062 30.996094 C 52.414062 30.472656 51.988281 30.046875 51.460938 30.046875 C 50.933594 30.046875 50.507812 30.472656 50.507812 30.996094 L 50.507812 39.539062 L 42.890625 39.539062 L 42.890625 22.261719 L 44.179688 22.261719 C 44.519531 22.261719 44.835938 22.082031 45.007812 21.785156 C 45.175781 21.488281 45.175781 21.121094 45 20.828125 L 38 9.015625 C 37.828125 8.726562 37.519531 8.550781 37.183594 8.546875 C 37.183594 8.546875 37.179688 8.546875 37.175781 8.546875 Z M 37.175781 8.546875 " fill-opacity="1" fill-rule="nonzero"/></g></svg>