<svg xmlns="http://www.w3.org/2000/svg" xmlns:xlink="http://www.w3.org/1999/xlink" width="100" zoomAndPan="magnify" viewBox="0 0 75 74.999997" height="100" preserveAspectRatio="xMidYMid meet" version="1.0"><defs><clipPath id="3ed38c0229"><path d="M 19.367188 7.5 L 55.367188 7.5 L 55.367188 70.5 L 19.367188 70.5 Z M 19.367188 7.5 " clip-rule="nonzero"/></clipPath></defs><g clip-path="url(#3ed38c0229)"><path fill="#000000" d="M 32.125 30.800781 L 32.125 33.832031 L 19.644531 68.910156 C 19.445312 69.472656 19.734375 70.09375 20.289062 70.296875 C 20.847656 70.5 21.460938 70.207031 21.660156 69.644531 L 33.960938 35.074219 L 36.296875 35.074219 L 36.308594 69.277344 C 36.308594 69.875 36.785156 70.363281 37.378906 70.363281 C 37.96875 70.359375 38.445312 69.875 38.445312 69.277344 L 38.433594 35.074219 L 40.792969 35.074219 L 53.09375 69.644531 C 53.292969 70.207031 53.90625 70.5 54.464844 70.296875 C 55.019531 70.09375 55.308594 69.472656 55.105469 68.910156 L 42.628906 33.832031 L 42.628906 30.800781 L 52.027344 30.800781 C 52.613281 30.800781 53.171875 30.566406 53.582031 30.148438 C 53.996094 29.734375 54.226562 29.167969 54.226562 28.574219 L 54.226562 11.441406 C 54.226562 10.847656 53.996094 10.285156 53.582031 9.867188 C 53.171875 9.449219 52.613281 9.214844 52.027344 9.214844 L 49.21875 9.214844 C 49.21875 9.214844 48.40625 7.984375 48.40625 7.984375 C 48.207031 7.679688 47.875 7.5 47.515625 7.5 L 31.726562 7.5 C 31.367188 7.5 31.035156 7.679688 30.835938 7.984375 L 30.023438 9.214844 C 30.023438 9.214844 22.703125 9.214844 22.703125 9.214844 C 22.117188 9.214844 21.558594 9.449219 21.148438 9.867188 C 20.734375 10.285156 20.503906 10.847656 20.503906 11.441406 C 20.503906 14.882812 20.503906 25.132812 20.503906 28.574219 C 20.503906 29.167969 20.734375 29.734375 21.148438 30.148438 C 21.558594 30.566406 22.117188 30.800781 22.703125 30.800781 Z M 40.488281 32.90625 L 34.265625 32.90625 C 34.265625 32.90625 34.265625 30.839844 34.265625 30.839844 L 40.488281 30.839844 Z M 26.070312 11.382812 L 26.074219 28.632812 L 22.703125 28.632812 C 22.6875 28.632812 22.671875 28.628906 22.660156 28.617188 C 22.648438 28.605469 22.644531 28.589844 22.644531 28.574219 L 22.644531 11.441406 C 22.644531 11.425781 22.648438 11.410156 22.660156 11.398438 C 22.671875 11.386719 22.6875 11.382812 22.703125 11.382812 Z M 28.214844 28.632812 L 28.207031 11.382812 L 30.597656 11.382812 C 30.957031 11.382812 31.289062 11.199219 31.488281 10.898438 L 32.296875 9.667969 C 32.296875 9.667969 46.945312 9.667969 46.945312 9.667969 C 46.945312 9.667969 47.753906 10.898438 47.753906 10.898438 C 47.953125 11.199219 48.285156 11.382812 48.644531 11.382812 L 52.027344 11.382812 C 52.042969 11.382812 52.058594 11.386719 52.070312 11.398438 C 52.082031 11.410156 52.085938 11.425781 52.085938 11.441406 L 52.085938 28.574219 C 52.085938 28.589844 52.082031 28.605469 52.070312 28.617188 C 52.058594 28.628906 52.042969 28.632812 52.027344 28.632812 Z M 39.621094 12.917969 C 35.894531 12.917969 32.871094 15.984375 32.871094 19.757812 C 32.871094 23.53125 35.894531 26.59375 39.621094 26.59375 C 43.347656 26.59375 46.371094 23.53125 46.371094 19.757812 C 46.371094 15.984375 43.347656 12.917969 39.621094 12.917969 Z M 39.621094 15.085938 C 42.167969 15.085938 44.234375 17.179688 44.234375 19.757812 C 44.234375 22.335938 42.167969 24.429688 39.621094 24.429688 C 37.074219 24.429688 35.007812 22.335938 35.007812 19.757812 C 35.007812 17.179688 37.074219 15.085938 39.621094 15.085938 Z M 39.835938 18.398438 L 39.621094 18.613281 C 39.621094 18.613281 39.40625 18.398438 39.40625 18.398438 C 38.941406 17.925781 38.183594 17.925781 37.714844 18.398438 C 37.25 18.871094 37.25 19.640625 37.714844 20.113281 L 39.621094 22.042969 L 41.527344 20.113281 C 41.992188 19.640625 41.992188 18.871094 41.527344 18.398438 C 41.058594 17.925781 40.300781 17.925781 39.835938 18.398438 Z M 48.570312 13.515625 C 49.347656 13.515625 49.980469 14.15625 49.980469 14.941406 C 49.980469 15.730469 49.347656 16.371094 48.570312 16.371094 C 47.792969 16.371094 47.160156 15.730469 47.160156 14.941406 C 47.160156 14.15625 47.792969 13.515625 48.570312 13.515625 Z M 48.570312 13.515625 " fill-opacity="1" fill-rule="evenodd"/></g></svg>