<svg xmlns="http://www.w3.org/2000/svg" xmlns:xlink="http://www.w3.org/1999/xlink" width="100" zoomAndPan="magnify" viewBox="0 0 75 74.999997" height="100" preserveAspectRatio="xMidYMid meet" version="1.0"><defs><clipPath id="df505ae92e"><path d="M 7.5 26 L 67.5 26 L 67.5 46 L 7.5 46 Z M 7.5 26 " clip-rule="nonzero"/></clipPath><clipPath id="171327796e"><path d="M 10 59 L 65 59 L 65 66.1875 L 10 66.1875 Z M 10 59 " clip-rule="nonzero"/></clipPath><clipPath id="1f07bd1fa3"><path d="M 25 61 L 50 61 L 50 66.1875 L 25 66.1875 Z M 25 61 " clip-rule="nonzero"/></clipPath><clipPath id="9591e1349c"><path d="M 22 9.1875 L 53 9.1875 L 53 21 L 22 21 Z M 22 9.1875 " clip-rule="nonzero"/></clipPath></defs><g clip-path="url(#df505ae92e)"><path stroke-linecap="round" transform="matrix(0.00949157, 0, 0, 0.00955443, 7.606306, 9.234894)" fill="none" stroke-linejoin="round" d="M 1303.700542 3743.711397 C 778.563385 3616.561551 348.905712 3428.494254 106.503059 3179.100664 C 93.745025 3166.017722 90.452629 3147.619834 98.272069 3131.266156 C 106.09151 3114.912478 122.14194 3105.509113 140.250118 3106.735639 C 536.983831 3137.807627 969.522351 3030.282195 1282.299968 2775.982502 M 1565.85757 2445.229364 C 1639.52493 2318.079518 1693.849464 2170.078732 1722.657928 1999.182797 C 1727.596522 1969.337335 1742.412304 1945.624502 1767.105274 1928.861982 C 1791.798243 1911.69062 1819.37206 1905.966832 1848.592074 1912.099462 C 2716.138411 2085.039606 3583.273198 2080.542345 4450.407985 1911.281778 C 4480.039549 1905.55799 4507.201815 1911.281778 4531.894785 1928.45314 C 4556.587755 1945.21566 4571.403537 1968.928493 4576.342131 1998.365113 C 4724.088399 2883.099093 5564.884019 3152.934779 6158.749941 3106.735639 C 6176.858119 3105.509113 6192.908549 3114.912478 6200.72799 3131.266156 C 6208.54743 3147.619834 6205.255034 3166.017722 6192.497 3179.100664 C 5958.325337 3419.908573 5549.656688 3603.478608 5049.212501 3730.219613 " stroke="#1d1819" stroke-width="188.16" stroke-opacity="1" stroke-miterlimit="22.926001"/></g><path stroke-linecap="round" transform="matrix(0.00949157, 0, 0, 0.00955443, 7.606306, 9.234894)" fill="none" stroke-linejoin="round" d="M 4177.550669 3598.572505 C 4326.943136 3653.766168 4501.851672 3671.755214 4647.540193 3663.987217 C 4656.594282 3663.578375 4664.413723 3666.84911 4668.529218 3672.164056 C 4672.233163 3677.479001 4670.586965 3683.61163 4664.413723 3688.108892 C 4171.377427 4026.630026 2127.622632 4026.630026 1634.586336 3688.108892 C 1628.413094 3683.61163 1626.766896 3677.479001 1630.470841 3672.164056 C 1634.586336 3666.84911 1642.405777 3663.578375 1651.459865 3663.987217 C 1792.209793 3671.346372 1953.125646 3655.401536 2094.287123 3607.97587 " stroke="#1d1819" stroke-width="188.16" stroke-opacity="1" stroke-miterlimit="22.926001"/><path stroke-linecap="round" transform="matrix(0.00949157, 0, 0, 0.00955443, 7.606306, 9.234894)" fill="none" stroke-linejoin="round" d="M 2652.759788 3013.928517 C 2516.948455 3150.072886 2372.494582 3274.360839 2214.459575 3376.162484 C 2484.436045 3475.102236 2814.910289 3523.754428 3149.500029 3522.11906 C 3484.089769 3523.754428 3814.564014 3475.102236 4084.540483 3376.162484 C 3719.084531 3140.260679 3425.238191 2786.612392 3149.500029 2437.870209 C 3075.009571 2531.903858 2999.696013 2625.937506 2921.501609 2718.335787 " stroke="#1d1819" stroke-width="188.16" stroke-opacity="1" stroke-miterlimit="22.926001"/><g clip-path="url(#171327796e)"><path fill="#1d1819" d="M 23.246094 64.378906 C 23.742188 64.378906 24.140625 64.78125 24.140625 65.28125 C 24.140625 65.78125 23.742188 66.183594 23.246094 66.183594 Z M 12.804688 64.378906 L 23.246094 64.378906 L 23.246094 66.183594 L 12.804688 66.183594 Z M 12.804688 66.183594 C 12.3125 66.183594 11.910156 65.78125 11.910156 65.28125 C 11.910156 64.78125 12.3125 64.378906 12.804688 64.378906 Z M 10.898438 63.953125 L 12.683594 63.953125 L 12.683594 63.984375 L 12.699219 64.109375 L 12.707031 64.136719 L 12.710938 64.164062 L 12.71875 64.1875 L 12.730469 64.210938 L 12.746094 64.257812 L 12.757812 64.277344 L 12.765625 64.296875 L 12.777344 64.3125 L 12.785156 64.328125 L 12.796875 64.339844 L 12.8125 64.363281 L 12.820312 64.371094 L 12.828125 64.375 L 12.832031 64.378906 L 12.839844 64.382812 L 12.839844 64.386719 L 12.835938 64.382812 L 12.824219 64.382812 L 12.820312 64.378906 L 12.804688 64.378906 L 12.804688 66.183594 L 12.695312 66.179688 L 12.585938 66.167969 L 12.476562 66.152344 L 12.371094 66.125 L 12.269531 66.09375 L 12.167969 66.058594 L 12.074219 66.015625 L 11.980469 65.96875 L 11.890625 65.914062 L 11.726562 65.796875 L 11.648438 65.730469 L 11.578125 65.664062 L 11.507812 65.59375 L 11.441406 65.519531 L 11.324219 65.363281 L 11.269531 65.28125 L 11.21875 65.195312 L 11.171875 65.109375 L 11.128906 65.023438 L 11.089844 64.933594 L 11.054688 64.84375 L 11.023438 64.75 L 10.992188 64.652344 L 10.96875 64.558594 L 10.949219 64.460938 L 10.929688 64.359375 L 10.917969 64.261719 L 10.90625 64.15625 Z M 10.898438 63.953125 C 10.898438 63.453125 11.296875 63.050781 11.792969 63.050781 C 12.285156 63.050781 12.683594 63.453125 12.683594 63.953125 Z M 12.683594 61.296875 L 12.683594 63.953125 L 10.898438 63.953125 L 10.898438 61.296875 Z M 10.898438 61.296875 C 10.898438 60.796875 11.296875 60.394531 11.792969 60.394531 C 12.285156 60.394531 12.683594 60.796875 12.683594 61.296875 Z M 12.804688 59.0625 L 12.804688 60.867188 L 12.824219 60.867188 L 12.832031 60.863281 L 12.839844 60.863281 L 12.839844 60.859375 L 12.839844 60.863281 L 12.832031 60.867188 L 12.804688 60.894531 L 12.796875 60.90625 L 12.785156 60.917969 L 12.777344 60.933594 L 12.765625 60.953125 L 12.757812 60.96875 L 12.746094 60.988281 L 12.730469 61.035156 L 12.71875 61.058594 L 12.710938 61.085938 L 12.707031 61.113281 L 12.699219 61.140625 L 12.695312 61.167969 L 12.683594 61.261719 L 12.683594 61.296875 L 10.898438 61.296875 L 10.902344 61.191406 L 10.90625 61.089844 L 10.929688 60.886719 L 10.96875 60.691406 L 10.992188 60.59375 L 11.054688 60.40625 L 11.089844 60.3125 L 11.128906 60.222656 L 11.171875 60.136719 L 11.21875 60.050781 L 11.269531 59.964844 L 11.324219 59.882812 L 11.382812 59.804688 L 11.441406 59.730469 L 11.507812 59.65625 L 11.578125 59.582031 L 11.648438 59.515625 L 11.726562 59.449219 L 11.890625 59.332031 L 11.980469 59.28125 L 12.074219 59.230469 L 12.167969 59.191406 L 12.269531 59.152344 L 12.371094 59.121094 L 12.476562 59.097656 L 12.585938 59.078125 L 12.695312 59.066406 Z M 12.804688 59.0625 C 13.296875 59.0625 13.699219 59.46875 13.699219 59.964844 C 13.699219 60.464844 13.296875 60.867188 12.804688 60.867188 Z M 26.003906 60.867188 L 12.804688 60.867188 L 12.804688 59.0625 L 26.003906 59.0625 Z M 26.003906 59.0625 C 26.496094 59.0625 26.898438 59.46875 26.898438 59.964844 C 26.898438 60.464844 26.496094 60.867188 26.003906 60.867188 Z M 48.996094 60.867188 C 48.503906 60.867188 48.101562 60.464844 48.101562 59.964844 C 48.101562 59.46875 48.503906 59.0625 48.996094 59.0625 Z M 62.195312 60.867188 L 48.996094 60.867188 L 48.996094 59.0625 L 62.195312 59.0625 Z M 62.195312 59.0625 C 62.6875 59.0625 63.089844 59.46875 63.089844 59.964844 C 63.089844 60.464844 62.6875 60.867188 62.195312 60.867188 Z M 64.101562 61.296875 L 62.316406 61.296875 L 62.316406 61.261719 L 62.304688 61.167969 L 62.300781 61.140625 L 62.292969 61.113281 L 62.289062 61.085938 L 62.28125 61.058594 L 62.269531 61.035156 L 62.253906 60.988281 L 62.242188 60.96875 L 62.234375 60.953125 L 62.222656 60.933594 L 62.214844 60.917969 L 62.203125 60.90625 L 62.195312 60.894531 L 62.167969 60.867188 L 62.160156 60.863281 L 62.15625 60.859375 L 62.160156 60.859375 L 62.160156 60.863281 L 62.167969 60.863281 L 62.175781 60.867188 L 62.195312 60.867188 L 62.195312 59.0625 L 62.304688 59.066406 L 62.414062 59.078125 L 62.523438 59.097656 L 62.628906 59.121094 L 62.730469 59.152344 L 62.832031 59.191406 L 62.925781 59.230469 L 63.019531 59.28125 L 63.109375 59.332031 L 63.273438 59.449219 L 63.351562 59.515625 L 63.421875 59.582031 L 63.492188 59.65625 L 63.558594 59.730469 L 63.617188 59.804688 L 63.675781 59.886719 L 63.730469 59.964844 L 63.78125 60.050781 L 63.828125 60.136719 L 63.871094 60.222656 L 63.910156 60.3125 L 63.945312 60.40625 L 64.007812 60.59375 L 64.03125 60.691406 L 64.070312 60.886719 L 64.09375 61.089844 L 64.097656 61.191406 Z M 64.101562 61.296875 C 64.101562 61.792969 63.703125 62.199219 63.207031 62.199219 C 62.714844 62.199219 62.316406 61.792969 62.316406 61.296875 Z M 62.316406 63.953125 L 62.316406 61.296875 L 64.101562 61.296875 L 64.101562 63.953125 Z M 64.101562 63.953125 C 64.101562 64.449219 63.703125 64.855469 63.207031 64.855469 C 62.714844 64.855469 62.316406 64.449219 62.316406 63.953125 Z M 62.195312 66.183594 L 62.195312 64.378906 L 62.179688 64.378906 L 62.175781 64.382812 L 62.164062 64.382812 L 62.160156 64.386719 L 62.15625 64.386719 L 62.160156 64.386719 L 62.160156 64.382812 L 62.164062 64.378906 L 62.179688 64.371094 L 62.1875 64.363281 L 62.203125 64.339844 L 62.214844 64.328125 L 62.222656 64.3125 L 62.234375 64.296875 L 62.242188 64.277344 L 62.253906 64.257812 L 62.269531 64.210938 L 62.28125 64.1875 L 62.289062 64.164062 L 62.292969 64.136719 L 62.300781 64.109375 L 62.316406 63.984375 L 62.316406 63.953125 L 64.101562 63.953125 L 64.09375 64.15625 L 64.082031 64.261719 L 64.070312 64.359375 L 64.050781 64.460938 L 64.03125 64.558594 L 64.007812 64.652344 L 63.976562 64.75 L 63.945312 64.84375 L 63.910156 64.933594 L 63.871094 65.023438 L 63.828125 65.109375 L 63.78125 65.195312 L 63.730469 65.28125 L 63.675781 65.363281 L 63.558594 65.519531 L 63.492188 65.59375 L 63.421875 65.664062 L 63.351562 65.730469 L 63.273438 65.796875 L 63.109375 65.914062 L 63.019531 65.96875 L 62.925781 66.015625 L 62.832031 66.058594 L 62.730469 66.09375 L 62.628906 66.125 L 62.523438 66.152344 L 62.414062 66.167969 L 62.304688 66.179688 Z M 62.195312 66.183594 C 61.703125 66.183594 61.300781 65.78125 61.300781 65.28125 C 61.300781 64.78125 61.703125 64.378906 62.195312 64.378906 Z M 51.925781 64.378906 L 62.195312 64.378906 L 62.195312 66.183594 L 51.925781 66.183594 Z M 51.925781 66.183594 C 51.433594 66.183594 51.03125 65.78125 51.03125 65.28125 C 51.03125 64.78125 51.433594 64.378906 51.925781 64.378906 Z M 51.925781 66.183594 " fill-opacity="1" fill-rule="nonzero"/></g><path stroke-linecap="round" transform="matrix(0.00949157, 0, 0, 0.00955443, 7.606306, 9.234894)" fill="none" stroke-linejoin="round" d="M 5619.208552 3789.501695 L 5619.208552 5083.486467 M 1014.381246 3910.927754 L 1014.381246 5083.486467 M 679.791506 5083.486467 L 679.791506 3789.501695 M 5284.618812 5083.486467 L 5284.618812 3910.927754 " stroke="#1d1819" stroke-width="188.16" stroke-opacity="1" stroke-miterlimit="22.926001"/><path stroke-linecap="round" transform="matrix(0.00949157, 0, 0, 0.00955443, 7.606306, 9.234894)" fill="none" stroke-linejoin="round" d="M 2225.982961 4101.856945 L 2225.982961 5379.079196 M 4073.017097 4101.856945 L 4073.017097 5379.079196 M 3794.809638 5379.079196 L 3794.809638 4125.569778 M 2504.19042 5379.079196 L 2504.19042 4125.569778 " stroke="#1d1819" stroke-width="188.16" stroke-opacity="1" stroke-miterlimit="22.926001"/><g clip-path="url(#1f07bd1fa3)"><path fill="#1d1819" d="M 48.425781 63.523438 L 26.574219 63.523438 L 26.574219 61.726562 L 48.425781 61.726562 Z M 48.425781 61.726562 C 48.910156 61.726562 49.304688 62.128906 49.304688 62.625 C 49.304688 63.121094 48.910156 63.523438 48.425781 63.523438 Z M 49.855469 63.179688 L 48.097656 63.179688 L 48.097656 63.214844 L 48.101562 63.230469 L 48.109375 63.269531 L 48.117188 63.300781 L 48.125 63.320312 L 48.132812 63.335938 L 48.140625 63.347656 L 48.15625 63.378906 L 48.167969 63.390625 L 48.175781 63.402344 L 48.199219 63.425781 L 48.207031 63.4375 L 48.21875 63.449219 L 48.230469 63.457031 L 48.246094 63.464844 L 48.257812 63.476562 L 48.273438 63.484375 L 48.285156 63.488281 L 48.316406 63.503906 L 48.378906 63.519531 L 48.394531 63.519531 L 48.410156 63.523438 L 48.425781 63.523438 L 48.425781 61.726562 L 48.5 61.726562 L 48.570312 61.730469 L 48.710938 61.753906 L 48.78125 61.769531 L 48.847656 61.789062 L 48.914062 61.8125 L 48.980469 61.839844 L 49.042969 61.867188 L 49.105469 61.898438 L 49.164062 61.933594 L 49.222656 61.972656 L 49.277344 62.011719 L 49.332031 62.054688 L 49.382812 62.097656 L 49.433594 62.144531 L 49.480469 62.195312 L 49.566406 62.304688 L 49.605469 62.359375 L 49.644531 62.417969 L 49.679688 62.480469 L 49.742188 62.605469 L 49.765625 62.671875 L 49.789062 62.742188 L 49.828125 62.882812 L 49.839844 62.957031 L 49.847656 63.027344 L 49.855469 63.101562 Z M 49.855469 63.179688 C 49.855469 63.675781 49.460938 64.078125 48.976562 64.078125 C 48.492188 64.078125 48.097656 63.675781 48.097656 63.179688 Z M 48.097656 64.726562 L 48.097656 63.179688 L 49.855469 63.179688 L 49.855469 64.726562 Z M 49.855469 64.726562 C 49.855469 65.222656 49.460938 65.625 48.976562 65.625 C 48.492188 65.625 48.097656 65.222656 48.097656 64.726562 Z M 48.425781 66.179688 L 48.425781 64.382812 L 48.394531 64.382812 L 48.316406 64.402344 L 48.300781 64.410156 L 48.285156 64.414062 L 48.273438 64.421875 L 48.257812 64.429688 L 48.246094 64.4375 L 48.230469 64.449219 L 48.21875 64.457031 L 48.175781 64.5 L 48.167969 64.515625 L 48.15625 64.527344 L 48.148438 64.542969 L 48.140625 64.554688 L 48.117188 64.601562 L 48.113281 64.621094 L 48.109375 64.636719 L 48.105469 64.65625 L 48.101562 64.671875 L 48.097656 64.691406 L 48.097656 64.726562 L 49.855469 64.726562 L 49.855469 64.800781 L 49.839844 64.949219 L 49.828125 65.023438 L 49.789062 65.164062 L 49.742188 65.296875 L 49.710938 65.363281 L 49.679688 65.425781 L 49.644531 65.488281 L 49.605469 65.546875 L 49.566406 65.601562 L 49.523438 65.65625 L 49.480469 65.707031 L 49.433594 65.757812 L 49.332031 65.851562 L 49.277344 65.894531 L 49.222656 65.933594 L 49.164062 65.972656 L 49.105469 66.007812 L 49.042969 66.039062 L 48.980469 66.066406 L 48.914062 66.09375 L 48.847656 66.117188 L 48.78125 66.136719 L 48.710938 66.152344 L 48.640625 66.164062 L 48.5 66.179688 Z M 48.425781 66.179688 C 47.941406 66.179688 47.546875 65.777344 47.546875 65.28125 C 47.546875 64.785156 47.941406 64.382812 48.425781 64.382812 Z M 26.574219 64.382812 L 48.425781 64.382812 L 48.425781 66.179688 L 26.574219 66.179688 Z M 26.574219 66.179688 C 26.089844 66.179688 25.695312 65.777344 25.695312 65.28125 C 25.695312 64.785156 26.089844 64.382812 26.574219 64.382812 Z M 25.144531 64.726562 L 26.902344 64.726562 L 26.902344 64.691406 L 26.898438 64.671875 L 26.894531 64.65625 L 26.890625 64.636719 L 26.886719 64.621094 L 26.882812 64.601562 L 26.859375 64.554688 L 26.851562 64.542969 L 26.84375 64.527344 L 26.832031 64.515625 L 26.824219 64.5 L 26.78125 64.457031 L 26.765625 64.449219 L 26.753906 64.4375 L 26.742188 64.429688 L 26.726562 64.421875 L 26.714844 64.414062 L 26.699219 64.410156 L 26.683594 64.402344 L 26.605469 64.382812 L 26.574219 64.382812 L 26.574219 66.179688 L 26.5 66.179688 L 26.359375 66.164062 L 26.289062 66.152344 L 26.21875 66.136719 L 26.152344 66.117188 L 26.085938 66.09375 L 26.019531 66.066406 L 25.957031 66.039062 L 25.894531 66.007812 L 25.835938 65.972656 L 25.777344 65.933594 L 25.722656 65.894531 L 25.667969 65.851562 L 25.566406 65.757812 L 25.519531 65.707031 L 25.476562 65.65625 L 25.390625 65.546875 L 25.355469 65.488281 L 25.320312 65.425781 L 25.289062 65.363281 L 25.257812 65.296875 L 25.210938 65.164062 L 25.171875 65.023438 L 25.160156 64.949219 L 25.144531 64.800781 Z M 25.144531 64.726562 C 25.144531 64.230469 25.539062 63.828125 26.023438 63.828125 C 26.507812 63.828125 26.902344 64.230469 26.902344 64.726562 Z M 26.902344 63.179688 L 26.902344 64.726562 L 25.144531 64.726562 L 25.144531 63.179688 Z M 25.144531 63.179688 C 25.144531 62.679688 25.539062 62.277344 26.023438 62.277344 C 26.507812 62.277344 26.902344 62.679688 26.902344 63.179688 Z M 26.574219 61.726562 L 26.574219 63.523438 L 26.589844 63.523438 L 26.605469 63.519531 L 26.621094 63.519531 L 26.683594 63.503906 L 26.714844 63.488281 L 26.726562 63.484375 L 26.742188 63.476562 L 26.753906 63.464844 L 26.765625 63.457031 L 26.78125 63.449219 L 26.792969 63.4375 L 26.800781 63.425781 L 26.824219 63.402344 L 26.832031 63.390625 L 26.84375 63.378906 L 26.859375 63.347656 L 26.867188 63.335938 L 26.875 63.320312 L 26.882812 63.300781 L 26.890625 63.269531 L 26.898438 63.230469 L 26.902344 63.214844 L 26.902344 63.179688 L 25.144531 63.179688 L 25.144531 63.101562 L 25.152344 63.027344 L 25.160156 62.957031 L 25.171875 62.882812 L 25.210938 62.742188 L 25.234375 62.671875 L 25.257812 62.605469 L 25.320312 62.480469 L 25.355469 62.417969 L 25.390625 62.359375 L 25.519531 62.195312 L 25.566406 62.144531 L 25.617188 62.097656 L 25.667969 62.054688 L 25.722656 62.011719 L 25.777344 61.972656 L 25.835938 61.933594 L 25.894531 61.898438 L 25.957031 61.867188 L 26.019531 61.839844 L 26.085938 61.8125 L 26.152344 61.789062 L 26.21875 61.769531 L 26.289062 61.753906 L 26.429688 61.730469 L 26.5 61.726562 Z M 26.574219 61.726562 C 27.058594 61.726562 27.453125 62.128906 27.453125 62.625 C 27.453125 63.121094 27.058594 63.523438 26.574219 63.523438 Z M 26.574219 61.726562 " fill-opacity="1" fill-rule="nonzero"/></g><path stroke-linecap="round" transform="matrix(0.00949157, 0, 0, 0.00955443, 7.606306, 9.234894)" fill="none" stroke-linejoin="round" d="M 3507.136541 5309.576065 L 3507.136541 4577.748975 C 3507.136541 4435.471976 3391.079583 4319.360862 3248.683458 4319.360862 L 3050.316601 4319.360862 C 2907.920475 4319.360862 2791.863518 4435.471976 2791.863518 4577.748975 L 2791.863518 5309.576065 Z M 3507.136541 5309.576065 " stroke="#1d1819" stroke-width="188.16" stroke-opacity="1" stroke-miterlimit="22.926001"/><path stroke-linecap="round" transform="matrix(0.00949157, 0, 0, 0.00955443, 7.606306, 9.234894)" fill="none" stroke-linejoin="round" d="M 4411.310783 4822.236461 L 4945.913578 4822.236461 L 4945.913578 4518.875734 C 4945.913578 4371.692632 4826.152674 4251.901941 4679.229504 4251.901941 L 4677.994856 4251.901941 C 4531.071686 4251.901941 4411.310783 4371.692632 4411.310783 4518.875734 Z M 4411.310783 4822.236461 " stroke="#1d1819" stroke-width="188.16" stroke-opacity="1" stroke-miterlimit="22.926001"/><path stroke-linecap="round" transform="matrix(0.00949157, 0, 0, 0.00955443, 7.606306, 9.234894)" fill="none" stroke-linejoin="round" d="M 1887.689276 4822.236461 L 1353.086481 4822.236461 L 1353.086481 4518.875734 C 1353.086481 4371.692632 1472.847384 4251.901941 1619.770554 4251.901941 L 1621.005203 4251.901941 C 1767.928373 4251.901941 1887.689276 4371.692632 1887.689276 4518.875734 Z M 1887.689276 4822.236461 " stroke="#1d1819" stroke-width="188.16" stroke-opacity="1" stroke-miterlimit="22.926001"/><path fill="#1d1819" d="M 37.410156 56.472656 C 37.410156 56.730469 37.316406 56.953125 37.136719 57.136719 C 36.953125 57.316406 36.734375 57.410156 36.476562 57.410156 C 36.222656 57.410156 36 57.316406 35.820312 57.136719 C 35.636719 56.953125 35.546875 56.730469 35.546875 56.472656 C 35.546875 56.214844 35.636719 55.992188 35.820312 55.808594 C 36 55.628906 36.222656 55.535156 36.476562 55.535156 C 36.734375 55.535156 36.953125 55.628906 37.136719 55.808594 C 37.316406 55.992188 37.410156 56.214844 37.410156 56.472656 Z M 37.410156 56.472656 " fill-opacity="1" fill-rule="nonzero"/><g clip-path="url(#9591e1349c)"><path stroke-linecap="round" transform="matrix(0.00949157, 0, 0, 0.00955443, 7.606306, 9.234894)" fill="none" stroke-linejoin="round" d="M 2392.660507 326.201538 C 2423.938269 268.145981 2446.98504 201.504744 2459.743075 125.868983 C 2462.212372 111.559515 2469.620263 100.11194 2481.555198 91.935101 C 2493.490133 83.758262 2506.659717 80.896368 2521.06395 83.758262 C 2940.021336 167.16202 3358.978723 165.11781 3778.347659 83.34942 C 3792.340341 80.487526 3805.509925 83.34942 3817.444861 91.526259 C 3829.379796 99.703098 3836.787687 111.150673 3838.845434 125.460141 C 3910.455047 553.10882 4317.065948 683.529402 4603.915947 661.043095 C 4612.558486 660.225411 4620.377927 665.131515 4624.081872 672.899512 C 4627.785818 680.667509 4626.551169 689.662032 4620.377927 696.203503 C 4141.745863 1187.631527 2157.254196 1187.631527 1678.622132 696.203503 C 1672.44889 689.662032 1671.214241 680.667509 1674.918187 672.899512 C 1678.622132 665.131515 1686.441573 660.225411 1695.084112 661.043095 C 1817.725862 670.44646 1962.179735 652.457414 2093.052474 594.810699 " stroke="#1d1819" stroke-width="164.639999" stroke-opacity="1" stroke-miterlimit="22.926001"/></g><path stroke-linecap="round" transform="matrix(0.00949157, 0, 0, 0.00955443, 7.606306, 9.234894)" fill="none" stroke-linejoin="round" d="M 4027.335103 1692.142493 L 4027.335103 1201.532153 " stroke="#1d1819" stroke-width="141.119995" stroke-opacity="1" stroke-miterlimit="22.926001"/><path stroke-linecap="round" transform="matrix(0.00949157, 0, 0, 0.00955443, 7.606306, 9.234894)" fill="none" stroke-linejoin="round" d="M 2034.612446 1637.766513 L 2034.612446 1094.00672 " stroke="#1d1819" stroke-width="141.119995" stroke-opacity="1" stroke-miterlimit="22.926001"/><path stroke-linecap="round" transform="matrix(0.00949157, 0, 0, 0.00955443, 7.606306, 9.234894)" fill="none" stroke-linejoin="round" d="M 2271.664955 1201.532153 L 2271.664955 1692.142493 " stroke="#1d1819" stroke-width="141.119995" stroke-opacity="1" stroke-miterlimit="22.926001"/><path stroke-linecap="round" transform="matrix(0.00949157, 0, 0, 0.00955443, 7.606306, 9.234894)" fill="none" stroke-linejoin="round" d="M 4264.387613 1094.00672 L 4264.387613 1637.766513 " stroke="#1d1819" stroke-width="141.119995" stroke-opacity="1" stroke-miterlimit="22.926001"/></svg>