<svg xmlns="http://www.w3.org/2000/svg" xmlns:xlink="http://www.w3.org/1999/xlink" width="100" zoomAndPan="magnify" viewBox="0 0 75 74.999997" height="100" preserveAspectRatio="xMidYMid meet" version="1.0"><defs><clipPath id="871c95341b"><path d="M 7.5 17.441406 L 66 17.441406 L 66 57.191406 L 7.5 57.191406 Z M 7.5 17.441406 " clip-rule="nonzero"/></clipPath></defs><g clip-path="url(#871c95341b)"><path fill="#000000" d="M 12.167969 57.164062 C 9.242188 57.140625 7.5 55.382812 7.5 52.46875 C 7.5 43.464844 7.5 34.464844 7.5 25.460938 C 7.5 22.628906 9.300781 20.835938 12.132812 20.8125 C 14.484375 20.789062 16.871094 20.636719 19.222656 20.859375 C 21.328125 21.070312 22.722656 20.472656 23.421875 18.449219 C 23.679688 17.75 24.183594 17.597656 24.910156 17.597656 C 29.707031 17.621094 34.527344 17.726562 39.324219 17.550781 C 41.382812 17.46875 42.789062 17.910156 43.464844 19.914062 C 43.722656 20.648438 44.273438 20.800781 45.035156 20.800781 C 50.402344 20.753906 55.773438 20.777344 61.144531 20.777344 C 64.269531 20.777344 66 22.535156 66 25.609375 C 66 34.464844 66 43.339844 66 52.191406 C 66 55.441406 64.328125 57.117188 61.027344 57.117188 C 52.941406 57.117188 44.835938 57.117188 36.75 57.117188 C 28.558594 57.140625 20.347656 57.164062 12.167969 57.164062 Z M 47.980469 35.523438 C 49.046875 41.265625 47.621094 46.238281 43.335938 50.234375 C 40.285156 53.0625 36.5625 54.355469 32.386719 54.230469 C 23.691406 53.972656 15.925781 45.878906 17.960938 35.546875 C 15.328125 35.546875 12.695312 35.546875 10.003906 35.546875 C 9.980469 35.941406 9.957031 36.28125 9.957031 36.628906 C 9.957031 41.871094 9.957031 47.113281 9.957031 52.351562 C 9.957031 54.113281 10.589844 54.742188 12.402344 54.742188 C 28.617188 54.742188 44.835938 54.742188 61.050781 54.742188 C 62.851562 54.742188 63.507812 54.113281 63.507812 52.351562 C 63.507812 47.066406 63.507812 41.8125 63.507812 36.523438 C 63.507812 36.210938 63.460938 35.90625 63.449219 35.511719 C 58.253906 35.5 53.175781 35.5 47.980469 35.523438 Z M 18.371094 32.984375 C 18.683594 32.984375 19.09375 32.519531 19.28125 32.179688 C 22.3125 26.660156 26.992188 23.699219 33.285156 23.816406 C 39.335938 23.898438 43.816406 26.855469 46.660156 32.167969 C 47.023438 32.84375 47.386719 33.054688 48.097656 33.054688 C 52.871094 33.007812 57.632812 33.03125 62.40625 33.03125 C 62.722656 33.03125 63.027344 33.03125 63.507812 33.03125 C 63.507812 31.890625 63.507812 30.816406 63.507812 29.734375 C 63.507812 28.277344 63.53125 26.832031 63.507812 25.402344 C 63.484375 23.96875 62.804688 23.292969 61.34375 23.292969 C 55.445312 23.292969 49.539062 23.269531 43.640625 23.316406 C 42.8125 23.316406 42.261719 23.105469 42.003906 22.347656 C 41.347656 20.359375 39.96875 19.9375 37.945312 20.019531 C 34.058594 20.207031 30.175781 20.101562 26.289062 20.066406 C 25.554688 20.066406 25.0625 20.242188 24.804688 20.929688 C 24.078125 22.933594 22.699219 23.503906 20.582031 23.339844 C 17.820312 23.128906 15 23.292969 12.214844 23.292969 C 10.601562 23.292969 9.945312 23.945312 9.945312 25.507812 C 9.945312 27.953125 9.945312 30.410156 9.945312 33.007812 C 12.871094 33.007812 15.632812 33.03125 18.371094 32.984375 Z M 20.148438 38.980469 C 20.148438 46.0625 25.914062 51.804688 33.007812 51.78125 C 40.097656 51.757812 45.863281 45.992188 45.851562 38.9375 C 45.828125 31.855469 40.0625 26.171875 32.925781 26.191406 C 25.855469 26.238281 20.125 31.945312 20.148438 38.980469 Z M 20.148438 38.980469 " fill-opacity="1" fill-rule="nonzero"/></g><path fill="#000000" d="M 51.949219 29.664062 C 51.117188 29.6875 50.542969 29.328125 50.519531 28.476562 C 50.496094 27.613281 51.09375 27.253906 51.925781 27.253906 C 53.925781 27.253906 55.890625 27.253906 57.867188 27.253906 C 58.699219 27.230469 59.308594 27.589844 59.308594 28.441406 C 59.308594 29.351562 58.675781 29.6875 57.796875 29.664062 C 56.839844 29.640625 55.890625 29.664062 54.933594 29.664062 C 53.960938 29.664062 52.964844 29.652344 51.949219 29.664062 Z M 51.949219 29.664062 " fill-opacity="1" fill-rule="nonzero"/><path fill="#000000" d="M 43.113281 38.945312 C 43.136719 44.503906 38.632812 49.046875 33.054688 49.070312 C 27.449219 49.09375 22.910156 44.609375 22.886719 39.050781 C 22.863281 33.472656 27.34375 28.976562 32.949219 28.953125 C 38.550781 28.90625 43.078125 33.367188 43.113281 38.945312 Z M 40.65625 38.96875 C 40.65625 34.824219 37.195312 31.386719 33.019531 31.363281 C 28.851562 31.339844 25.355469 34.765625 25.308594 38.914062 C 25.261719 43.117188 28.722656 46.589844 32.972656 46.597656 C 37.21875 46.609375 40.679688 43.175781 40.65625 38.96875 Z M 40.65625 38.96875 " fill-opacity="1" fill-rule="nonzero"/></svg>