<svg xmlns="http://www.w3.org/2000/svg" xmlns:xlink="http://www.w3.org/1999/xlink" width="100" zoomAndPan="magnify" viewBox="0 0 75 74.999997" height="100" preserveAspectRatio="xMidYMid meet" version="1.0"><defs><clipPath id="bb1dfa0718"><path d="M 10.574219 10.574219 L 64.574219 10.574219 L 64.574219 52 L 10.574219 52 Z M 10.574219 10.574219 " clip-rule="nonzero"/></clipPath><clipPath id="632a6adcfb"><path d="M 10.574219 53 L 64.574219 53 L 64.574219 57 L 10.574219 57 Z M 10.574219 53 " clip-rule="nonzero"/></clipPath><clipPath id="ec6f046c51"><path d="M 10.574219 57 L 64.574219 57 L 64.574219 61 L 10.574219 61 Z M 10.574219 57 " clip-rule="nonzero"/></clipPath><clipPath id="f4a3f72ff4"><path d="M 10.574219 61 L 64.574219 61 L 64.574219 64.574219 L 10.574219 64.574219 Z M 10.574219 61 " clip-rule="nonzero"/></clipPath></defs><g clip-path="url(#bb1dfa0718)"><path fill="#000000" d="M 63.648438 49.351562 C 63.648438 49.351562 63.609375 49.351562 63.609375 49.351562 C 64.15625 36.566406 59.78125 27.441406 57.761719 23.949219 C 60.453125 24.539062 63.230469 26.09375 63.230469 26.136719 C 63.523438 26.304688 63.945312 26.261719 64.195312 26.050781 C 64.449219 25.800781 64.574219 25.421875 64.40625 25.085938 C 63.019531 21.71875 60.789062 20.246094 59.191406 19.574219 C 61.335938 17.765625 63.945312 16.503906 63.984375 16.460938 C 64.324219 16.292969 64.492188 15.957031 64.449219 15.621094 C 64.40625 15.285156 64.15625 14.992188 63.816406 14.90625 C 59.023438 13.8125 56.5 15.453125 55.238281 16.546875 C 53.386719 14.527344 52.671875 11.375 52.632812 11.332031 C 52.589844 10.953125 52.292969 10.660156 51.875 10.660156 C 51.496094 10.660156 51.160156 10.910156 51.03125 11.289062 C 50.277344 13.980469 50.148438 16.210938 50.65625 17.851562 C 48.046875 18.0625 45.691406 19.449219 43.632812 21.886719 C 43.378906 22.183594 43.378906 22.5625 43.546875 22.855469 C 43.757812 23.148438 44.09375 23.316406 44.472656 23.234375 C 44.515625 23.234375 47.585938 22.476562 50.402344 22.5625 C 49.5625 24.03125 48.929688 26.386719 49.769531 29.753906 C 49.855469 30.089844 50.148438 30.339844 50.527344 30.382812 C 50.527344 30.382812 50.570312 30.382812 50.570312 30.382812 C 50.90625 30.382812 51.199219 30.171875 51.371094 29.878906 C 51.371094 29.835938 52.460938 27.269531 54.144531 25.253906 C 55.699219 29.164062 58.5625 38.332031 56.753906 50.109375 C 56.246094 50.148438 55.660156 50.148438 54.945312 50.148438 C 52.839844 50.148438 51.832031 49.941406 50.738281 49.730469 C 50.066406 49.601562 49.394531 49.476562 48.46875 49.394531 L 48.46875 42.621094 C 48.46875 42.160156 48.089844 41.78125 47.625 41.78125 L 46.785156 41.78125 L 46.785156 38.835938 L 50.148438 38.835938 C 50.484375 38.835938 50.78125 38.625 50.90625 38.332031 C 51.03125 38.039062 50.992188 37.660156 50.738281 37.40625 L 38.121094 23.949219 C 37.785156 23.613281 37.195312 23.613281 36.902344 23.949219 L 24.285156 37.40625 C 24.074219 37.660156 23.992188 37.996094 24.117188 38.332031 C 24.242188 38.667969 24.539062 38.835938 24.875 38.835938 L 28.238281 38.835938 L 28.238281 41.78125 L 27.398438 41.78125 C 26.933594 41.78125 26.554688 42.160156 26.554688 42.621094 L 26.554688 49.433594 C 25.632812 49.519531 24.957031 49.644531 24.285156 49.769531 C 23.191406 49.980469 22.183594 50.191406 20.078125 50.191406 C 19.363281 50.191406 18.777344 50.148438 18.269531 50.148438 C 16.460938 38.417969 19.324219 29.207031 20.878906 25.292969 C 22.5625 27.269531 23.613281 29.878906 23.65625 29.921875 C 23.78125 30.257812 24.074219 30.425781 24.453125 30.425781 C 24.453125 30.425781 24.496094 30.425781 24.496094 30.425781 C 24.875 30.382812 25.167969 30.132812 25.253906 29.792969 C 26.09375 26.386719 25.460938 24.074219 24.621094 22.601562 C 27.441406 22.519531 30.507812 23.277344 30.550781 23.277344 C 30.886719 23.359375 31.265625 23.234375 31.476562 22.898438 C 31.6875 22.601562 31.644531 22.183594 31.394531 21.929688 C 29.332031 19.449219 26.933594 18.101562 24.371094 17.894531 C 24.875 16.253906 24.746094 14.023438 23.992188 11.332031 C 23.90625 10.953125 23.570312 10.699219 23.148438 10.699219 C 22.855469 10.660156 22.5625 10.953125 22.433594 11.332031 C 22.433594 11.375 21.679688 14.527344 19.871094 16.546875 C 18.648438 15.453125 16.085938 13.8125 11.289062 14.90625 C 10.953125 14.992188 10.699219 15.285156 10.660156 15.621094 C 10.617188 15.957031 10.828125 16.335938 11.121094 16.460938 C 11.164062 16.460938 13.769531 17.765625 15.917969 19.574219 C 14.359375 20.246094 12.132812 21.71875 10.699219 25.085938 C 10.574219 25.378906 10.660156 25.757812 10.953125 26.007812 C 11.246094 26.261719 11.625 26.304688 11.921875 26.09375 C 11.960938 26.09375 14.695312 24.496094 17.386719 23.90625 C 15.371094 27.441406 10.996094 36.566406 11.542969 49.351562 C 11.542969 49.351562 11.5 49.351562 11.5 49.351562 C 11.039062 49.351562 10.660156 49.730469 10.660156 50.191406 C 10.660156 50.65625 11.039062 51.03125 11.5 51.03125 C 13.601562 51.03125 14.613281 51.242188 15.707031 51.453125 C 16.800781 51.664062 17.976562 51.875 20.207031 51.875 C 22.476562 51.875 23.613281 51.664062 24.707031 51.453125 C 25.800781 51.242188 26.808594 51.03125 28.910156 51.03125 C 31.015625 51.03125 32.023438 51.242188 33.117188 51.453125 C 34.210938 51.664062 35.386719 51.875 37.617188 51.875 C 39.886719 51.875 41.023438 51.664062 42.117188 51.453125 C 43.210938 51.242188 44.21875 51.03125 46.324219 51.03125 C 48.425781 51.03125 49.433594 51.242188 50.527344 51.453125 C 51.621094 51.664062 52.800781 51.875 55.027344 51.875 C 57.257812 51.875 58.433594 51.664062 59.527344 51.453125 C 60.621094 51.242188 61.632812 51.03125 63.734375 51.03125 C 64.195312 51.03125 64.574219 50.65625 64.574219 50.191406 C 64.574219 49.730469 64.113281 49.351562 63.648438 49.351562 Z M 13.601562 23.445312 C 15.199219 21.425781 17.050781 20.921875 17.722656 20.792969 C 18.019531 20.753906 18.269531 20.5 18.355469 20.207031 C 18.441406 19.910156 18.355469 19.574219 18.144531 19.363281 C 16.925781 18.101562 15.371094 17.007812 14.109375 16.210938 C 17.136719 16.125 18.566406 17.554688 19.238281 18.230469 L 19.28125 18.269531 C 19.574219 18.566406 20.078125 18.609375 20.417969 18.3125 C 21.59375 17.304688 22.433594 15.917969 23.023438 14.65625 C 23.191406 16.632812 22.769531 17.683594 22.433594 18.144531 C 22.265625 18.398438 22.222656 18.777344 22.394531 19.027344 C 22.5625 19.324219 22.855469 19.492188 23.191406 19.449219 C 25 19.363281 26.683594 19.871094 28.238281 21.046875 C 26.683594 20.835938 24.746094 20.710938 23.023438 21.003906 C 22.730469 21.046875 22.476562 21.257812 22.351562 21.550781 C 22.265625 21.847656 22.308594 22.183594 22.519531 22.394531 C 23.148438 23.109375 24.03125 24.453125 24.03125 26.722656 C 23.109375 25.125 21.679688 23.148438 19.910156 22.097656 C 19.785156 22.015625 19.660156 21.972656 19.53125 21.972656 C 19.40625 21.972656 19.28125 21.972656 19.15625 21.972656 C 17.304688 22.054688 15.199219 22.730469 13.601562 23.445312 Z M 16 49.769531 C 15.199219 49.601562 14.402344 49.476562 13.222656 49.394531 C 12.636719 35.640625 18.0625 26.050781 19.449219 23.824219 C 19.53125 23.863281 19.617188 23.949219 19.699219 23.992188 C 18.144531 27.609375 14.824219 37.15625 16.671875 49.898438 C 16.421875 49.855469 16.210938 49.8125 16 49.769531 Z M 26.894531 37.15625 L 37.574219 25.757812 L 48.257812 37.15625 Z M 45.144531 38.835938 L 45.144531 41.78125 L 42.621094 41.78125 L 42.621094 38.835938 Z M 40.941406 38.835938 L 40.941406 41.78125 L 38.417969 41.78125 L 38.417969 38.835938 Z M 36.734375 38.835938 L 36.734375 41.78125 L 34.210938 41.78125 L 34.210938 38.835938 Z M 32.527344 38.835938 L 32.527344 41.78125 L 30.003906 41.78125 L 30.003906 38.835938 Z M 30.425781 49.394531 C 29.960938 49.351562 29.457031 49.351562 28.871094 49.351562 C 28.660156 49.351562 28.492188 49.351562 28.324219 49.351562 L 28.324219 43.460938 L 30.425781 43.460938 Z M 34.632812 50.023438 C 34.167969 49.941406 33.789062 49.898438 33.371094 49.8125 C 32.949219 49.730469 32.570312 49.644531 32.109375 49.601562 L 32.109375 47.667969 L 34.632812 47.667969 Z M 34.632812 45.984375 L 32.109375 45.984375 L 32.109375 43.460938 L 34.632812 43.460938 Z M 46.828125 49.351562 C 46.660156 49.351562 46.449219 49.351562 46.28125 49.351562 C 44.007812 49.351562 42.875 49.5625 41.78125 49.769531 C 40.6875 49.980469 39.679688 50.191406 37.574219 50.191406 C 37.113281 50.191406 36.691406 50.191406 36.3125 50.148438 L 36.3125 43.460938 L 46.828125 43.460938 Z M 51.074219 26.765625 C 51.074219 24.496094 51.957031 23.148438 52.589844 22.433594 C 52.800781 22.222656 52.882812 21.886719 52.757812 21.59375 C 52.671875 21.300781 52.421875 21.089844 52.085938 21.046875 C 51.371094 20.921875 50.65625 20.878906 49.898438 20.878906 C 48.847656 20.878906 47.792969 20.960938 46.871094 21.089844 C 48.425781 19.910156 50.109375 19.363281 51.917969 19.492188 C 52.253906 19.53125 52.546875 19.363281 52.714844 19.070312 C 52.882812 18.777344 52.839844 18.441406 52.671875 18.1875 C 52.335938 17.683594 51.917969 16.671875 52.085938 14.695312 C 52.671875 15.957031 53.515625 17.347656 54.691406 18.355469 C 55.027344 18.648438 55.53125 18.609375 55.828125 18.3125 L 55.871094 18.269531 C 56.542969 17.597656 57.972656 16.167969 61 16.253906 C 59.738281 17.050781 58.183594 18.144531 56.960938 19.40625 C 56.753906 19.617188 56.667969 19.953125 56.753906 20.246094 C 56.835938 20.542969 57.089844 20.753906 57.382812 20.835938 C 58.054688 20.960938 59.90625 21.46875 61.503906 23.484375 C 59.78125 22.769531 57.507812 22.015625 55.492188 22.097656 C 55.363281 22.097656 55.238281 22.140625 55.113281 22.222656 C 53.429688 23.191406 52 25.167969 51.074219 26.765625 Z M 61.925781 49.394531 C 60.746094 49.476562 59.949219 49.644531 59.148438 49.769531 C 58.941406 49.8125 58.730469 49.855469 58.519531 49.898438 C 60.328125 37.15625 57.046875 27.609375 55.492188 23.992188 C 55.574219 23.90625 55.660156 23.863281 55.742188 23.824219 C 57.089844 26.050781 62.515625 35.640625 61.925781 49.394531 Z M 61.925781 49.394531 " fill-opacity="1" fill-rule="nonzero"/></g><g clip-path="url(#632a6adcfb)"><path fill="#000000" d="M 63.648438 53.554688 C 61.378906 53.554688 60.242188 53.765625 59.148438 53.976562 C 58.054688 54.1875 57.046875 54.398438 54.945312 54.398438 C 52.839844 54.398438 51.832031 54.1875 50.738281 53.976562 C 49.644531 53.765625 48.46875 53.554688 46.238281 53.554688 C 43.96875 53.554688 42.832031 53.765625 41.738281 53.976562 C 40.644531 54.1875 39.636719 54.398438 37.53125 54.398438 C 35.429688 54.398438 34.421875 54.1875 33.328125 53.976562 C 32.234375 53.765625 31.054688 53.554688 28.828125 53.554688 C 26.597656 53.554688 25.421875 53.765625 24.328125 53.976562 C 23.234375 54.1875 22.222656 54.398438 20.121094 54.398438 C 18.019531 54.398438 17.007812 54.1875 15.917969 53.976562 C 14.824219 53.765625 13.644531 53.554688 11.417969 53.554688 C 10.953125 53.554688 10.574219 53.933594 10.574219 54.398438 C 10.574219 54.859375 10.953125 55.238281 11.417969 55.238281 C 13.519531 55.238281 14.527344 55.449219 15.621094 55.660156 C 16.714844 55.871094 17.894531 56.078125 20.121094 56.078125 C 22.394531 56.078125 23.527344 55.871094 24.621094 55.660156 C 25.714844 55.449219 26.722656 55.238281 28.828125 55.238281 C 30.929688 55.238281 31.941406 55.449219 33.03125 55.660156 C 34.125 55.871094 35.304688 56.078125 37.53125 56.078125 C 39.804688 56.078125 40.941406 55.871094 42.03125 55.660156 C 43.125 55.449219 44.136719 55.238281 46.238281 55.238281 C 48.339844 55.238281 49.351562 55.449219 50.445312 55.660156 C 51.539062 55.871094 52.714844 56.078125 54.945312 56.078125 C 57.171875 56.078125 58.351562 55.871094 59.445312 55.660156 C 60.539062 55.449219 61.546875 55.238281 63.648438 55.238281 C 64.113281 55.238281 64.492188 54.859375 64.492188 54.398438 C 64.492188 53.933594 64.113281 53.554688 63.648438 53.554688 Z M 63.648438 53.554688 " fill-opacity="1" fill-rule="nonzero"/></g><g clip-path="url(#ec6f046c51)"><path fill="#000000" d="M 63.648438 57.761719 C 61.378906 57.761719 60.242188 57.972656 59.148438 58.183594 C 58.054688 58.394531 57.046875 58.601562 54.945312 58.601562 C 52.839844 58.601562 51.832031 58.394531 50.738281 58.183594 C 49.644531 57.972656 48.46875 57.761719 46.238281 57.761719 C 43.96875 57.761719 42.832031 57.972656 41.738281 58.183594 C 40.644531 58.394531 39.636719 58.601562 37.53125 58.601562 C 35.429688 58.601562 34.421875 58.394531 33.328125 58.183594 C 32.234375 57.972656 31.054688 57.761719 28.828125 57.761719 C 26.597656 57.761719 25.421875 57.972656 24.328125 58.183594 C 23.234375 58.394531 22.222656 58.601562 20.121094 58.601562 C 18.019531 58.601562 17.007812 58.394531 15.917969 58.183594 C 14.824219 57.972656 13.644531 57.761719 11.417969 57.761719 C 10.953125 57.761719 10.574219 58.140625 10.574219 58.601562 C 10.574219 59.066406 10.953125 59.445312 11.417969 59.445312 C 13.519531 59.445312 14.527344 59.65625 15.621094 59.863281 C 16.714844 60.074219 17.894531 60.285156 20.121094 60.285156 C 22.394531 60.285156 23.527344 60.074219 24.621094 59.863281 C 25.714844 59.65625 26.722656 59.445312 28.828125 59.445312 C 30.929688 59.445312 31.941406 59.65625 33.03125 59.863281 C 34.125 60.074219 35.304688 60.285156 37.53125 60.285156 C 39.804688 60.285156 40.941406 60.074219 42.03125 59.863281 C 43.125 59.65625 44.136719 59.445312 46.238281 59.445312 C 48.339844 59.445312 49.351562 59.65625 50.445312 59.863281 C 51.539062 60.074219 52.714844 60.285156 54.945312 60.285156 C 57.171875 60.285156 58.351562 60.074219 59.445312 59.863281 C 60.539062 59.65625 61.546875 59.445312 63.648438 59.445312 C 64.113281 59.445312 64.492188 59.066406 64.492188 58.601562 C 64.492188 58.140625 64.113281 57.761719 63.648438 57.761719 Z M 63.648438 57.761719 " fill-opacity="1" fill-rule="nonzero"/></g><g clip-path="url(#f4a3f72ff4)"><path fill="#000000" d="M 63.648438 61.96875 C 61.378906 61.96875 60.242188 62.179688 59.148438 62.386719 C 58.054688 62.597656 57.046875 62.808594 54.945312 62.808594 C 52.839844 62.808594 51.832031 62.597656 50.738281 62.386719 C 49.644531 62.179688 48.46875 61.96875 46.238281 61.96875 C 43.96875 61.96875 42.832031 62.179688 41.738281 62.386719 C 40.644531 62.597656 39.636719 62.808594 37.53125 62.808594 C 35.429688 62.808594 34.421875 62.597656 33.328125 62.386719 C 32.234375 62.179688 31.054688 61.96875 28.828125 61.96875 C 26.597656 61.96875 25.421875 62.179688 24.328125 62.386719 C 23.234375 62.597656 22.222656 62.808594 20.121094 62.808594 C 18.019531 62.808594 17.007812 62.597656 15.917969 62.386719 C 14.824219 62.179688 13.644531 61.96875 11.417969 61.96875 C 10.953125 61.96875 10.574219 62.347656 10.574219 62.808594 C 10.574219 63.269531 10.953125 63.648438 11.417969 63.648438 C 13.519531 63.648438 14.527344 63.859375 15.621094 64.070312 C 16.714844 64.28125 17.894531 64.492188 20.121094 64.492188 C 22.394531 64.492188 23.527344 64.28125 24.621094 64.070312 C 25.714844 63.859375 26.722656 63.648438 28.828125 63.648438 C 30.929688 63.648438 31.941406 63.859375 33.03125 64.070312 C 34.125 64.28125 35.304688 64.492188 37.53125 64.492188 C 39.804688 64.492188 40.941406 64.28125 42.03125 64.070312 C 43.125 63.859375 44.136719 63.648438 46.238281 63.648438 C 48.339844 63.648438 49.351562 63.859375 50.445312 64.070312 C 51.539062 64.28125 52.714844 64.492188 54.945312 64.492188 C 57.171875 64.492188 58.351562 64.28125 59.445312 64.070312 C 60.539062 63.859375 61.546875 63.648438 63.648438 63.648438 C 64.113281 63.648438 64.492188 63.269531 64.492188 62.808594 C 64.492188 62.347656 64.113281 61.96875 63.648438 61.96875 Z M 63.648438 61.96875 " fill-opacity="1" fill-rule="nonzero"/></g><path fill="#000000" d="M 37.492188 12.339844 C 36.019531 12.507812 35.21875 13.265625 34.800781 14.066406 L 34.210938 14.234375 C 32.738281 13.769531 31.519531 14.191406 31.433594 14.191406 C 31.015625 14.359375 30.761719 14.824219 30.929688 15.242188 C 31.097656 15.664062 31.5625 15.917969 31.980469 15.789062 C 32.023438 15.789062 33.371094 15.328125 34.757812 16.378906 C 34.882812 16.503906 35.09375 16.546875 35.261719 16.546875 C 35.386719 16.546875 35.515625 16.503906 35.640625 16.460938 C 35.933594 16.292969 36.101562 16 36.101562 15.664062 C 36.101562 15.328125 36.1875 14.191406 37.742188 14.023438 C 38.207031 13.980469 38.542969 13.5625 38.457031 13.097656 C 38.332031 12.636719 37.953125 12.300781 37.492188 12.339844 Z M 37.492188 12.339844 " fill-opacity="1" fill-rule="nonzero"/><path fill="#000000" d="M 42.707031 18.230469 C 43.167969 18.1875 43.503906 17.765625 43.421875 17.304688 C 43.378906 16.839844 42.957031 16.503906 42.496094 16.589844 C 41.023438 16.757812 40.222656 17.515625 39.804688 18.3125 L 39.214844 18.480469 C 37.742188 18.019531 36.523438 18.441406 36.441406 18.441406 C 36.019531 18.609375 35.765625 19.070312 35.933594 19.492188 C 36.101562 19.910156 36.566406 20.164062 36.984375 20.039062 C 37.027344 20.039062 38.375 19.574219 39.761719 20.625 C 39.886719 20.753906 40.097656 20.792969 40.265625 20.792969 C 40.394531 20.792969 40.519531 20.753906 40.644531 20.710938 C 40.941406 20.542969 41.109375 20.246094 41.109375 19.910156 C 41.109375 19.53125 41.191406 18.398438 42.707031 18.230469 Z M 42.707031 18.230469 " fill-opacity="1" fill-rule="nonzero"/></svg>