<svg xmlns="http://www.w3.org/2000/svg" xmlns:xlink="http://www.w3.org/1999/xlink" width="100" zoomAndPan="magnify" viewBox="0 0 75 74.999997" height="100" preserveAspectRatio="xMidYMid meet" version="1.0"><defs><clipPath id="5025a80843"><path d="M 7.5 7.5 L 67.5 7.5 L 67.5 65.25 L 7.5 65.25 Z M 7.5 7.5 " clip-rule="nonzero"/></clipPath></defs><g clip-path="url(#5025a80843)"><path fill="#000000" d="M 63.3125 26.507812 L 62.503906 25.707031 L 64.804688 23.414062 L 65.609375 24.214844 Z M 51.457031 39.800781 L 62.84375 28.441406 L 60.574219 26.175781 L 49.183594 37.535156 Z M 48.636719 62.550781 C 48.636719 63.09375 48.191406 63.539062 47.644531 63.539062 L 10.195312 63.539062 C 9.648438 63.539062 9.203125 63.09375 9.203125 62.550781 L 9.203125 14.78125 C 9.203125 14.234375 9.648438 13.789062 10.195312 13.789062 L 22.238281 13.789062 L 22.238281 15.972656 C 22.238281 17.300781 23.320312 18.382812 24.652344 18.382812 L 33.1875 18.382812 C 34.519531 18.382812 35.601562 17.300781 35.601562 15.972656 L 35.601562 13.789062 L 47.644531 13.789062 C 48.191406 13.789062 48.636719 14.234375 48.636719 14.78125 L 48.636719 35.683594 L 41.304688 43 C 41.214844 43.089844 41.144531 43.199219 41.105469 43.320312 L 39.335938 48.425781 L 36.324219 51.433594 C 35.789062 51.96875 36.171875 52.878906 36.925781 52.878906 C 37.140625 52.878906 37.359375 52.796875 37.523438 52.632812 L 40.539062 49.625 L 45.65625 47.863281 C 45.777344 47.820312 45.890625 47.75 45.980469 47.660156 L 48.636719 45.007812 Z M 23.9375 9.910156 L 23.9375 15.972656 C 23.9375 16.367188 24.257812 16.6875 24.652344 16.6875 L 33.1875 16.6875 C 33.582031 16.6875 33.902344 16.367188 33.902344 15.972656 L 33.902344 9.910156 C 33.902344 9.519531 33.582031 9.199219 33.1875 9.199219 L 24.652344 9.199219 C 24.257812 9.199219 23.9375 9.519531 23.9375 9.910156 Z M 47.984375 38.734375 L 50.253906 41 L 44.917969 46.324219 L 41.445312 47.519531 L 42.644531 44.058594 Z M 66.878906 23.085938 L 65.941406 22.148438 C 65.3125 21.523438 64.296875 21.523438 63.671875 22.148438 L 61.261719 24.554688 C 60.695312 24.253906 59.996094 24.351562 59.539062 24.8125 L 50.335938 33.992188 L 50.335938 14.78125 C 50.335938 13.300781 49.128906 12.09375 47.644531 12.09375 L 35.601562 12.09375 L 35.601562 9.910156 C 35.601562 8.582031 34.519531 7.503906 33.1875 7.503906 L 24.652344 7.503906 C 23.320312 7.503906 22.238281 8.582031 22.238281 9.910156 L 22.238281 12.09375 L 10.195312 12.09375 C 8.710938 12.09375 7.503906 13.300781 7.503906 14.78125 L 7.503906 62.550781 C 7.503906 64.03125 8.710938 65.234375 10.195312 65.234375 L 47.644531 65.234375 C 49.128906 65.234375 50.335938 64.03125 50.335938 62.550781 L 50.335938 43.316406 L 52.058594 41.597656 L 64.046875 29.636719 L 64.488281 30.078125 C 64.777344 30.371094 64.777344 30.84375 64.488281 31.132812 L 57.367188 38.234375 C 56.832031 38.769531 57.21875 39.679688 57.96875 39.679688 C 58.183594 39.679688 58.402344 39.597656 58.570312 39.433594 L 65.6875 32.332031 C 66.640625 31.378906 66.640625 29.832031 65.6875 28.882812 L 64.511719 27.707031 L 66.878906 25.347656 C 67.503906 24.722656 67.503906 23.707031 66.878906 23.085938 Z M 44.195312 33.304688 C 44.195312 32.835938 43.816406 32.457031 43.347656 32.457031 L 32.296875 32.457031 C 31.828125 32.457031 31.445312 32.835938 31.445312 33.304688 C 31.445312 33.773438 31.828125 34.152344 32.296875 34.152344 L 43.347656 34.152344 C 43.816406 34.152344 44.195312 33.773438 44.195312 33.304688 Z M 13.644531 33.304688 C 13.644531 33.773438 14.023438 34.152344 14.492188 34.152344 L 25.542969 34.152344 C 26.011719 34.152344 26.394531 33.773438 26.394531 33.304688 C 26.394531 32.835938 26.011719 32.457031 25.542969 32.457031 L 14.492188 32.457031 C 14.023438 32.457031 13.644531 32.835938 13.644531 33.304688 Z M 15.34375 23.699219 L 15.34375 27.261719 C 15.34375 27.332031 15.402344 27.390625 15.46875 27.390625 L 42.371094 27.390625 C 42.4375 27.390625 42.496094 27.332031 42.496094 27.261719 L 42.496094 23.699219 C 42.496094 23.632812 42.4375 23.574219 42.371094 23.574219 L 15.46875 23.574219 C 15.402344 23.574219 15.34375 23.632812 15.34375 23.699219 Z M 15.46875 29.082031 L 42.371094 29.082031 C 43.378906 29.082031 44.195312 28.265625 44.195312 27.261719 L 44.195312 23.699219 C 44.195312 22.695312 43.378906 21.878906 42.371094 21.878906 L 15.46875 21.878906 C 14.460938 21.878906 13.644531 22.695312 13.644531 23.699219 L 13.644531 27.261719 C 13.644531 28.265625 14.460938 29.082031 15.46875 29.082031 Z M 32.757812 54.574219 C 32.171875 54.6875 31.796875 54.980469 31.574219 55.507812 C 32.179688 55.292969 33.066406 54.921875 33.3125 54.558594 C 33.164062 54.519531 32.949219 54.535156 32.757812 54.574219 Z M 41.589844 55.742188 C 41.230469 55.441406 40.695312 55.488281 40.390625 55.847656 C 39.476562 56.929688 38.6875 56.921875 37.398438 56.625 C 37.773438 55.875 37.816406 55.335938 37.542969 54.910156 C 36.996094 54.0625 35.5625 54.375 35.066406 55.507812 C 34.859375 55.976562 34.851562 56.472656 35.03125 56.917969 C 34.28125 57.328125 33.472656 57.484375 32.566406 57.390625 C 32.355469 57.351562 32.109375 57.289062 31.90625 57.1875 C 32.542969 56.972656 33.566406 56.578125 34.191406 56.070312 C 35.910156 54.683594 34.925781 52.421875 32.429688 52.910156 C 30.875 53.214844 29.898438 54.367188 29.71875 55.980469 C 28.796875 56.105469 28.328125 55.960938 28.25 55.863281 C 28.214844 55.816406 28.179688 55.441406 28.6875 54.582031 C 29.386719 53.390625 30.992188 52.457031 32.304688 51.585938 C 32.695312 51.328125 32.800781 50.800781 32.539062 50.410156 C 32.28125 50.023438 31.75 49.917969 31.363281 50.175781 C 29.890625 51.15625 28.132812 52.175781 27.222656 53.722656 C 26.425781 55.074219 26.320312 56.144531 26.910156 56.902344 C 27.574219 57.753906 28.867188 57.816406 30.015625 57.648438 C 30.445312 58.433594 31.210938 58.859375 32.300781 59.0625 L 33.054688 59.109375 C 34.085938 59.109375 35.050781 58.855469 35.9375 58.351562 L 36.300781 58.058594 C 36.710938 58.222656 37.171875 58.320312 37.632812 58.398438 C 39.367188 58.695312 40.578125 58.257812 41.691406 56.9375 C 41.992188 56.578125 41.945312 56.046875 41.589844 55.742188 Z M 17.6875 58.265625 L 21.433594 53.894531 C 22.265625 52.929688 22.265625 51.296875 21.433594 50.332031 C 21.035156 49.863281 20.632812 49.636719 20.210938 49.636719 C 19.636719 49.636719 18.972656 50.046875 18.332031 50.792969 C 17.992188 51.1875 17.382812 51.1875 17.042969 50.792969 C 16.402344 50.046875 15.738281 49.636719 15.164062 49.636719 C 14.742188 49.636719 14.339844 49.863281 13.941406 50.332031 C 13.113281 51.296875 13.113281 52.929688 13.941406 53.894531 Z M 14.976562 42.273438 C 13.660156 43.8125 13.652344 46.402344 14.953125 47.949219 C 15.917969 47.890625 16.816406 48.253906 17.6875 49.03125 C 18.492188 48.316406 19.351562 47.941406 20.210938 47.941406 C 21.84375 47.941406 23.34375 49.40625 23.675781 51.28125 L 26.507812 47.980469 C 27.832031 46.433594 27.832031 43.820312 26.507812 42.273438 C 25.851562 41.511719 25.152344 41.125 24.421875 41.125 C 23.472656 41.125 22.394531 41.769531 21.386719 42.945312 C 21.050781 43.339844 20.4375 43.339844 20.097656 42.945312 C 19.09375 41.769531 18.015625 41.125 17.0625 41.125 C 16.332031 41.125 15.632812 41.511719 14.976562 42.273438 Z M 27.796875 49.078125 C 29.667969 46.898438 29.667969 43.351562 27.796875 41.171875 C 25.703125 38.730469 23.011719 38.96875 20.742188 41.15625 C 18.472656 38.96875 15.78125 38.730469 13.6875 41.171875 C 11.953125 43.199219 11.828125 46.402344 13.316406 48.59375 C 11.320312 50.105469 11.078125 53.164062 12.648438 54.996094 L 16.886719 59.941406 C 17.3125 60.4375 18.0625 60.4375 18.488281 59.941406 Z M 27.796875 49.078125 " fill-opacity="1" fill-rule="evenodd"/></g></svg>