<svg xmlns="http://www.w3.org/2000/svg" xmlns:xlink="http://www.w3.org/1999/xlink" width="100" zoomAndPan="magnify" viewBox="0 0 75 74.999997" height="100" preserveAspectRatio="xMidYMid meet" version="1.0"><defs><clipPath id="5ca4cecb13"><path d="M 13 14 L 61 14 L 61 65.066406 L 13 65.066406 Z M 13 14 " clip-rule="nonzero"/></clipPath><clipPath id="02c0ea7457"><path d="M 39 63 L 42 63 L 42 65.066406 L 39 65.066406 Z M 39 63 " clip-rule="nonzero"/></clipPath><clipPath id="9662d1eff4"><path d="M 9.464844 23 L 23 23 L 23 39 L 9.464844 39 Z M 9.464844 23 " clip-rule="nonzero"/></clipPath><clipPath id="3e6c41b6cd"><path d="M 26 9.566406 L 29 9.566406 L 29 12 L 26 12 Z M 26 9.566406 " clip-rule="nonzero"/></clipPath><clipPath id="db7e9a7df1"><path d="M 9.464844 12 L 12 12 L 12 15 L 9.464844 15 Z M 9.464844 12 " clip-rule="nonzero"/></clipPath><clipPath id="7139bc9b8e"><path d="M 63 61 L 65.714844 61 L 65.714844 64 L 63 64 Z M 63 61 " clip-rule="nonzero"/></clipPath></defs><g clip-path="url(#5ca4cecb13)"><path fill="#000000" d="M 50.894531 36.011719 C 51.078125 35.828125 51.167969 35.609375 51.167969 35.355469 C 51.167969 35.101562 51.078125 34.882812 50.894531 34.703125 L 49.574219 33.394531 C 50.011719 33.457031 50.453125 33.488281 50.894531 33.488281 C 51.507812 33.488281 52.117188 33.425781 52.71875 33.308594 C 53.320312 33.191406 53.902344 33.015625 54.46875 32.78125 C 55.039062 32.550781 55.574219 32.265625 56.085938 31.929688 C 56.59375 31.589844 57.066406 31.207031 57.5 30.777344 C 57.933594 30.347656 58.320312 29.878906 58.664062 29.375 C 59.003906 28.871094 59.292969 28.335938 59.527344 27.777344 C 59.761719 27.214844 59.9375 26.636719 60.058594 26.042969 C 60.175781 25.445312 60.238281 24.84375 60.238281 24.238281 C 60.238281 23.628906 60.175781 23.027344 60.058594 22.433594 C 59.9375 21.835938 59.761719 21.257812 59.527344 20.695312 C 59.292969 20.136719 59.003906 19.601562 58.664062 19.097656 C 58.320312 18.59375 57.933594 18.125 57.5 17.695312 C 57.066406 17.265625 56.59375 16.882812 56.085938 16.546875 C 55.574219 16.207031 55.039062 15.921875 54.46875 15.691406 C 53.902344 15.457031 53.320312 15.28125 52.71875 15.164062 C 52.117188 15.046875 51.507812 14.988281 50.894531 14.988281 C 50.28125 14.988281 49.675781 15.046875 49.074219 15.164062 C 48.472656 15.28125 47.886719 15.457031 47.320312 15.691406 C 46.753906 15.921875 46.214844 16.207031 45.707031 16.546875 C 45.195312 16.882812 44.722656 17.265625 44.289062 17.695312 C 43.855469 18.125 43.46875 18.59375 43.128906 19.097656 C 42.789062 19.601562 42.5 20.136719 42.265625 20.695312 C 42.03125 21.257812 41.851562 21.835938 41.734375 22.433594 C 41.613281 23.027344 41.554688 23.628906 41.554688 24.238281 C 41.554688 24.675781 41.585938 25.109375 41.648438 25.542969 L 40.328125 24.238281 C 40.144531 24.054688 39.925781 23.964844 39.667969 23.964844 C 39.40625 23.964844 39.1875 24.054688 39.003906 24.238281 L 36.363281 26.851562 C 36.179688 27.035156 36.089844 27.25 36.089844 27.507812 C 36.089844 27.761719 36.179688 27.980469 36.363281 28.160156 L 38.363281 30.140625 L 15.867188 53.6875 C 15.695312 53.871094 15.609375 54.085938 15.613281 54.335938 C 15.617188 54.585938 15.707031 54.800781 15.886719 54.976562 L 17.207031 56.285156 L 14.972656 58.5 C 14.699219 58.769531 14.472656 59.070312 14.292969 59.40625 C 14.113281 59.742188 13.984375 60.097656 13.910156 60.46875 C 13.835938 60.84375 13.816406 61.21875 13.851562 61.597656 C 13.890625 61.976562 13.984375 62.339844 14.128906 62.691406 C 14.277344 63.042969 14.472656 63.367188 14.714844 63.660156 C 14.960938 63.957031 15.242188 64.207031 15.5625 64.417969 C 15.882812 64.632812 16.226562 64.792969 16.59375 64.902344 C 16.960938 65.011719 17.335938 65.066406 17.71875 65.066406 L 37.683594 65.066406 L 37.683594 63.21875 L 17.71875 63.21875 C 17.3125 63.21875 16.9375 63.105469 16.597656 62.882812 C 16.261719 62.65625 16.011719 62.359375 15.855469 61.984375 C 15.699219 61.609375 15.660156 61.226562 15.742188 60.832031 C 15.820312 60.433594 16.003906 60.09375 16.292969 59.808594 L 18.527344 57.59375 L 19.847656 58.902344 C 20.027344 59.078125 20.246094 59.167969 20.496094 59.171875 C 20.75 59.175781 20.96875 59.09375 21.152344 58.921875 L 44.933594 36.644531 L 46.933594 38.625 C 47.113281 38.808594 47.335938 38.898438 47.59375 38.898438 C 47.851562 38.898438 48.070312 38.808594 48.253906 38.625 Z M 56.179688 19.003906 C 56.5 19.320312 56.789062 19.660156 57.042969 20.027344 C 57.300781 20.398438 57.523438 20.785156 57.707031 21.191406 C 57.894531 21.597656 58.039062 22.019531 58.148438 22.453125 C 58.257812 22.886719 58.328125 23.328125 58.355469 23.773438 C 58.382812 24.21875 58.371094 24.664062 58.316406 25.109375 C 58.265625 25.550781 58.171875 25.988281 58.039062 26.414062 C 57.90625 26.839844 57.734375 27.253906 57.527344 27.648438 C 57.316406 28.046875 57.074219 28.421875 56.800781 28.773438 L 46.3125 18.390625 C 46.671875 18.117188 47.046875 17.878906 47.449219 17.671875 C 47.847656 17.464844 48.265625 17.296875 48.695312 17.164062 C 49.128906 17.03125 49.566406 16.941406 50.015625 16.886719 C 50.464844 16.835938 50.914062 16.824219 51.363281 16.851562 C 51.8125 16.878906 52.257812 16.945312 52.695312 17.054688 C 53.132812 17.164062 53.558594 17.308594 53.96875 17.492188 C 54.382812 17.675781 54.773438 17.894531 55.144531 18.148438 C 55.515625 18.402344 55.859375 18.6875 56.179688 19.003906 Z M 43.421875 24.238281 C 43.417969 22.546875 43.941406 21.03125 44.992188 19.699219 L 55.476562 30.082031 C 54.925781 30.507812 54.324219 30.847656 53.675781 31.105469 C 53.027344 31.363281 52.355469 31.527344 51.660156 31.597656 C 50.964844 31.667969 50.269531 31.640625 49.582031 31.519531 C 48.894531 31.398438 48.238281 31.1875 47.609375 30.882812 C 46.980469 30.578125 46.40625 30.195312 45.886719 29.730469 C 45.371094 29.265625 44.925781 28.738281 44.554688 28.152344 C 44.183594 27.566406 43.902344 26.9375 43.710938 26.273438 C 43.519531 25.609375 43.421875 24.929688 43.421875 24.238281 Z M 20.527344 56.957031 L 17.851562 54.304688 L 39.683594 31.449219 L 43.609375 35.335938 Z M 38.34375 27.507812 L 39.667969 26.199219 L 48.914062 35.355469 L 47.59375 36.664062 Z M 38.34375 27.507812 " fill-opacity="1" fill-rule="nonzero"/></g><path fill="#000000" d="M 38.34375 35.355469 L 39.667969 34.046875 L 40.988281 35.355469 L 39.667969 36.664062 Z M 38.34375 35.355469 " fill-opacity="1" fill-rule="nonzero"/><path fill="#000000" d="M 35.703125 37.972656 L 37.023438 36.664062 L 38.34375 37.972656 L 37.023438 39.28125 Z M 35.703125 37.972656 " fill-opacity="1" fill-rule="nonzero"/><g clip-path="url(#02c0ea7457)"><path fill="#000000" d="M 39.554688 63.21875 L 41.421875 63.21875 L 41.421875 65.066406 L 39.554688 65.066406 Z M 39.554688 63.21875 " fill-opacity="1" fill-rule="nonzero"/></g><g clip-path="url(#9662d1eff4)"><path fill="#000000" d="M 15.265625 35.46875 L 15.265625 29.808594 L 20.871094 29.117188 L 20.871094 31.003906 C 20.492188 30.871094 20.105469 30.820312 19.707031 30.851562 C 19.308594 30.882812 18.9375 30.996094 18.585938 31.1875 C 18.234375 31.375 17.941406 31.628906 17.699219 31.945312 C 17.460938 32.257812 17.292969 32.609375 17.203125 32.996094 C 17.113281 33.378906 17.109375 33.765625 17.1875 34.15625 C 17.261719 34.542969 17.417969 34.898438 17.648438 35.222656 C 17.878906 35.542969 18.164062 35.804688 18.507812 36.007812 C 18.851562 36.207031 19.222656 36.332031 19.617188 36.375 C 20.015625 36.421875 20.402344 36.382812 20.785156 36.261719 C 21.164062 36.144531 21.503906 35.953125 21.800781 35.6875 C 22.101562 35.425781 22.332031 35.113281 22.492188 34.753906 C 22.65625 34.390625 22.738281 34.011719 22.738281 33.617188 L 22.738281 24.367188 C 22.738281 24.234375 22.710938 24.109375 22.65625 23.988281 C 22.601562 23.867188 22.523438 23.761719 22.421875 23.675781 C 22.320312 23.585938 22.207031 23.523438 22.078125 23.484375 C 21.953125 23.445312 21.820312 23.433594 21.6875 23.449219 L 14.214844 24.375 C 13.980469 24.402344 13.785156 24.507812 13.628906 24.679688 C 13.472656 24.855469 13.394531 25.058594 13.394531 25.292969 L 13.394531 32.851562 C 13.019531 32.71875 12.632812 32.671875 12.234375 32.703125 C 11.835938 32.734375 11.460938 32.847656 11.113281 33.035156 C 10.761719 33.226562 10.46875 33.480469 10.226562 33.792969 C 9.984375 34.109375 9.820312 34.460938 9.730469 34.84375 C 9.640625 35.230469 9.636719 35.617188 9.710938 36.003906 C 9.789062 36.394531 9.941406 36.746094 10.175781 37.070312 C 10.40625 37.394531 10.691406 37.65625 11.035156 37.855469 C 11.378906 38.058594 11.75 38.179688 12.144531 38.226562 C 12.542969 38.269531 12.929688 38.234375 13.3125 38.113281 C 13.691406 37.992188 14.03125 37.800781 14.328125 37.539062 C 14.625 37.273438 14.855469 36.964844 15.019531 36.601562 C 15.183594 36.242188 15.265625 35.863281 15.265625 35.46875 Z M 19.933594 34.542969 C 19.675781 34.542969 19.457031 34.453125 19.273438 34.273438 C 19.09375 34.089844 19 33.875 19 33.617188 C 19 33.363281 19.09375 33.144531 19.273438 32.964844 C 19.457031 32.785156 19.675781 32.691406 19.933594 32.691406 C 20.191406 32.691406 20.414062 32.785156 20.597656 32.964844 C 20.777344 33.144531 20.871094 33.363281 20.871094 33.617188 C 20.871094 33.875 20.777344 34.089844 20.59375 34.273438 C 20.414062 34.453125 20.191406 34.542969 19.933594 34.542969 Z M 20.871094 25.414062 L 20.871094 27.25 L 15.265625 27.945312 L 15.265625 26.109375 Z M 11.527344 35.46875 C 11.527344 35.210938 11.617188 34.996094 11.800781 34.8125 C 11.984375 34.632812 12.203125 34.542969 12.460938 34.542969 C 12.71875 34.542969 12.941406 34.632812 13.121094 34.8125 C 13.304688 34.996094 13.394531 35.210938 13.394531 35.46875 C 13.394531 35.722656 13.304688 35.941406 13.121094 36.121094 C 12.941406 36.300781 12.71875 36.394531 12.460938 36.394531 C 12.203125 36.394531 11.984375 36.300781 11.800781 36.121094 C 11.621094 35.941406 11.527344 35.722656 11.527344 35.46875 Z M 11.527344 35.46875 " fill-opacity="1" fill-rule="nonzero"/></g><path fill="#000000" d="M 33.949219 20.667969 L 35.816406 20.667969 L 35.816406 18.816406 L 37.683594 18.816406 L 37.683594 16.96875 L 35.816406 16.96875 L 35.816406 15.117188 L 33.949219 15.117188 L 33.949219 16.96875 L 32.078125 16.96875 L 32.078125 18.816406 L 33.949219 18.816406 Z M 33.949219 20.667969 " fill-opacity="1" fill-rule="nonzero"/><path fill="#000000" d="M 27.410156 26.21875 L 29.277344 26.21875 L 29.277344 28.066406 L 27.410156 28.066406 Z M 27.410156 26.21875 " fill-opacity="1" fill-rule="nonzero"/><path fill="#000000" d="M 12.460938 46.375 L 14.332031 46.375 L 14.332031 48.222656 L 12.460938 48.222656 Z M 12.460938 46.375 " fill-opacity="1" fill-rule="nonzero"/><path fill="#000000" d="M 45.15625 11.417969 L 47.027344 11.417969 L 47.027344 13.269531 L 45.15625 13.269531 Z M 45.15625 11.417969 " fill-opacity="1" fill-rule="nonzero"/><g clip-path="url(#3e6c41b6cd)"><path fill="#000000" d="M 26.472656 9.566406 L 28.34375 9.566406 L 28.34375 11.417969 L 26.472656 11.417969 Z M 26.472656 9.566406 " fill-opacity="1" fill-rule="nonzero"/></g><g clip-path="url(#db7e9a7df1)"><path fill="#000000" d="M 9.660156 12.34375 L 11.527344 12.34375 L 11.527344 14.191406 L 9.660156 14.191406 Z M 9.660156 12.34375 " fill-opacity="1" fill-rule="nonzero"/></g><path fill="#000000" d="M 60.722656 46.800781 C 60.511719 46.613281 60.265625 46.539062 59.988281 46.574219 L 52.515625 47.5 C 52.28125 47.527344 52.085938 47.628906 51.929688 47.804688 C 51.773438 47.980469 51.695312 48.183594 51.695312 48.417969 L 51.695312 55.976562 C 51.320312 55.84375 50.933594 55.796875 50.535156 55.828125 C 50.136719 55.859375 49.765625 55.972656 49.414062 56.160156 C 49.0625 56.351562 48.769531 56.605469 48.527344 56.917969 C 48.285156 57.234375 48.121094 57.585938 48.03125 57.96875 C 47.941406 58.355469 47.9375 58.742188 48.011719 59.128906 C 48.089844 59.519531 48.246094 59.871094 48.476562 60.195312 C 48.707031 60.519531 48.992188 60.78125 49.335938 60.980469 C 49.679688 61.183594 50.050781 61.304688 50.445312 61.351562 C 50.84375 61.394531 51.230469 61.359375 51.613281 61.238281 C 51.992188 61.117188 52.332031 60.925781 52.628906 60.664062 C 52.925781 60.398438 53.15625 60.089844 53.320312 59.726562 C 53.484375 59.367188 53.566406 58.988281 53.566406 58.59375 L 53.566406 52.933594 L 59.171875 52.242188 L 59.171875 54.128906 C 58.792969 53.996094 58.40625 53.945312 58.007812 53.976562 C 57.609375 54.007812 57.238281 54.121094 56.886719 54.3125 C 56.539062 54.5 56.242188 54.753906 56 55.070312 C 55.761719 55.386719 55.59375 55.734375 55.503906 56.121094 C 55.414062 56.503906 55.410156 56.890625 55.488281 57.28125 C 55.5625 57.667969 55.71875 58.023438 55.949219 58.347656 C 56.179688 58.667969 56.464844 58.929688 56.808594 59.132812 C 57.152344 59.332031 57.523438 59.457031 57.917969 59.5 C 58.316406 59.546875 58.703125 59.507812 59.085938 59.386719 C 59.464844 59.269531 59.804688 59.078125 60.101562 58.8125 C 60.402344 58.550781 60.632812 58.238281 60.792969 57.878906 C 60.957031 57.515625 61.039062 57.136719 61.039062 56.742188 L 61.039062 47.492188 C 61.039062 47.214844 60.933594 46.984375 60.722656 46.800781 Z M 50.761719 59.519531 C 50.503906 59.519531 50.285156 59.425781 50.101562 59.246094 C 49.917969 59.066406 49.828125 58.847656 49.828125 58.59375 C 49.828125 58.335938 49.917969 58.121094 50.101562 57.9375 C 50.285156 57.757812 50.503906 57.667969 50.761719 57.667969 C 51.019531 57.667969 51.242188 57.757812 51.421875 57.9375 C 51.605469 58.121094 51.695312 58.335938 51.695312 58.59375 C 51.695312 58.847656 51.605469 59.066406 51.421875 59.246094 C 51.242188 59.425781 51.019531 59.519531 50.761719 59.519531 Z M 53.566406 51.070312 L 53.566406 49.234375 L 59.171875 48.539062 L 59.171875 50.375 Z M 58.234375 57.667969 C 57.976562 57.667969 57.757812 57.578125 57.574219 57.398438 C 57.394531 57.214844 57.300781 57 57.300781 56.742188 C 57.300781 56.488281 57.394531 56.269531 57.574219 56.089844 C 57.757812 55.910156 57.976562 55.816406 58.234375 55.816406 C 58.496094 55.816406 58.714844 55.910156 58.898438 56.089844 C 59.078125 56.269531 59.171875 56.488281 59.171875 56.742188 C 59.171875 57 59.078125 57.214844 58.894531 57.398438 C 58.714844 57.578125 58.492188 57.667969 58.234375 57.667969 Z M 58.234375 57.667969 " fill-opacity="1" fill-rule="nonzero"/><path fill="#000000" d="M 45.15625 44.71875 L 43.289062 44.71875 L 43.289062 46.566406 L 41.421875 46.566406 L 41.421875 48.417969 L 43.289062 48.417969 L 43.289062 50.269531 L 45.15625 50.269531 L 45.15625 48.417969 L 47.027344 48.417969 L 47.027344 46.566406 L 45.15625 46.566406 Z M 45.15625 44.71875 " fill-opacity="1" fill-rule="nonzero"/><g clip-path="url(#7139bc9b8e)"><path fill="#000000" d="M 63.839844 61.367188 L 65.710938 61.367188 L 65.710938 63.21875 L 63.839844 63.21875 Z M 63.839844 61.367188 " fill-opacity="1" fill-rule="nonzero"/></g><path fill="#000000" d="M 34.882812 53.96875 L 36.75 53.96875 L 36.75 55.816406 L 34.882812 55.816406 Z M 34.882812 53.96875 " fill-opacity="1" fill-rule="nonzero"/><path fill="#000000" d="M 62.90625 38.242188 L 64.777344 38.242188 L 64.777344 40.09375 L 62.90625 40.09375 Z M 62.90625 38.242188 " fill-opacity="1" fill-rule="nonzero"/><path fill="#000000" d="M 53.566406 41.019531 L 55.433594 41.019531 L 55.433594 42.867188 L 53.566406 42.867188 Z M 53.566406 41.019531 " fill-opacity="1" fill-rule="nonzero"/><path fill="#000000" d="M 61.972656 22.519531 L 63.839844 22.519531 L 63.839844 24.367188 L 61.972656 24.367188 Z M 61.972656 22.519531 " fill-opacity="1" fill-rule="nonzero"/><path fill="#000000" d="M 62.90625 10.492188 L 64.777344 10.492188 L 64.777344 12.34375 L 62.90625 12.34375 Z M 62.90625 10.492188 " fill-opacity="1" fill-rule="nonzero"/></svg>