<svg xmlns="http://www.w3.org/2000/svg" xmlns:xlink="http://www.w3.org/1999/xlink" width="100" zoomAndPan="magnify" viewBox="0 0 75 74.999997" height="100" preserveAspectRatio="xMidYMid meet" version="1.0"><defs><clipPath id="3233ae165f"><path d="M 11.738281 26 L 63.488281 26 L 63.488281 63.488281 L 11.738281 63.488281 Z M 11.738281 26 " clip-rule="nonzero"/></clipPath><clipPath id="7a1f5b90ba"><path d="M 11.738281 11.738281 L 63.488281 11.738281 L 63.488281 26 L 11.738281 26 Z M 11.738281 11.738281 " clip-rule="nonzero"/></clipPath></defs><path fill="#000000" d="M 57.644531 43.457031 C 58.105469 43.457031 58.480469 43.832031 58.480469 44.289062 C 58.480469 44.75 58.105469 45.125 57.644531 45.125 C 57.183594 45.125 56.808594 44.75 56.808594 44.289062 C 56.808594 43.832031 57.183594 43.457031 57.644531 43.457031 Z M 57.644531 46.792969 C 59.027344 46.792969 60.148438 45.671875 60.148438 44.289062 C 60.148438 42.90625 59.027344 41.785156 57.644531 41.785156 C 56.261719 41.785156 55.140625 42.90625 55.140625 44.289062 C 55.140625 45.671875 56.261719 46.792969 57.644531 46.792969 " fill-opacity="1" fill-rule="nonzero"/><path fill="#000000" d="M 17.582031 45.125 C 17.121094 45.125 16.746094 44.75 16.746094 44.289062 C 16.746094 43.832031 17.121094 43.457031 17.582031 43.457031 C 18.039062 43.457031 18.414062 43.832031 18.414062 44.289062 C 18.414062 44.75 18.039062 45.125 17.582031 45.125 Z M 17.582031 41.785156 C 16.199219 41.785156 15.078125 42.90625 15.078125 44.289062 C 15.078125 45.671875 16.199219 46.792969 17.582031 46.792969 C 18.960938 46.792969 20.085938 45.671875 20.085938 44.289062 C 20.085938 42.90625 18.960938 41.785156 17.582031 41.785156 " fill-opacity="1" fill-rule="nonzero"/><g clip-path="url(#3233ae165f)"><path fill="#000000" d="M 57.644531 38.445312 C 56.011719 38.445312 54.535156 39.121094 53.472656 40.207031 L 53.472656 36.777344 L 61.816406 36.777344 L 61.816406 40.207031 C 60.753906 39.121094 59.277344 38.445312 57.644531 38.445312 Z M 53.472656 44.289062 C 53.472656 41.988281 55.34375 40.117188 57.644531 40.117188 C 59.945312 40.117188 61.816406 41.988281 61.816406 44.289062 C 61.816406 46.59375 59.945312 48.464844 57.644531 48.464844 C 55.34375 48.464844 53.472656 46.59375 53.472656 44.289062 Z M 61.816406 51.800781 L 53.472656 51.800781 L 53.472656 48.371094 C 54.535156 49.457031 56.011719 50.132812 57.644531 50.132812 C 59.277344 50.132812 60.753906 49.457031 61.816406 48.371094 Z M 13.40625 61.816406 L 13.40625 60.148438 L 61.816406 60.148438 L 61.816406 61.816406 Z M 17.582031 50.132812 C 19.214844 50.132812 20.691406 49.457031 21.753906 48.371094 L 21.753906 51.800781 L 13.40625 51.800781 L 13.40625 48.371094 C 14.464844 49.457031 15.945312 50.132812 17.582031 50.132812 Z M 21.753906 44.289062 C 21.753906 46.59375 19.882812 48.464844 17.582031 48.464844 C 15.277344 48.464844 13.40625 46.59375 13.40625 44.289062 C 13.40625 41.988281 15.277344 40.117188 17.582031 40.117188 C 19.882812 40.117188 21.753906 41.988281 21.753906 44.289062 Z M 13.40625 36.777344 L 21.753906 36.777344 L 21.753906 40.207031 C 20.691406 39.121094 19.214844 38.445312 17.582031 38.445312 C 15.945312 38.445312 14.464844 39.121094 13.40625 40.207031 Z M 31.816406 48.464844 L 32.671875 50.460938 L 34.207031 49.804688 L 33.632812 48.464844 L 41.59375 48.464844 L 41.019531 49.804688 L 42.550781 50.460938 L 43.410156 48.464844 L 51.800781 48.464844 L 51.800781 51.800781 C 51.800781 52.722656 52.550781 53.472656 53.472656 53.472656 L 61.816406 53.472656 L 61.816406 58.480469 L 13.40625 58.480469 L 13.40625 53.472656 L 21.753906 53.472656 C 22.671875 53.472656 23.421875 52.722656 23.421875 51.800781 L 23.421875 48.464844 Z M 61.816406 35.109375 L 53.472656 35.109375 C 52.550781 35.109375 51.800781 35.859375 51.800781 36.777344 L 51.800781 46.792969 L 44.125 46.792969 L 52.566406 27.089844 L 51.035156 26.433594 L 42.308594 46.792969 L 32.917969 46.792969 L 24.1875 26.433594 L 22.65625 27.089844 L 31.101562 46.792969 L 23.421875 46.792969 L 23.421875 36.777344 C 23.421875 35.859375 22.671875 35.109375 21.753906 35.109375 L 13.40625 35.109375 C 12.488281 35.109375 11.738281 35.859375 11.738281 36.777344 L 11.738281 61.816406 C 11.738281 62.738281 12.488281 63.488281 13.40625 63.488281 L 61.816406 63.488281 C 62.738281 63.488281 63.488281 62.738281 63.488281 61.816406 L 63.488281 36.777344 C 63.488281 35.859375 62.738281 35.109375 61.816406 35.109375 " fill-opacity="1" fill-rule="nonzero"/></g><path fill="#000000" d="M 37.613281 56.808594 C 43.640625 56.808594 50.132812 55.507812 50.132812 52.636719 C 50.132812 51.316406 48.804688 50.261719 46.195312 49.496094 L 45.722656 51.101562 C 47.960938 51.753906 48.464844 52.445312 48.464844 52.636719 C 48.464844 53.386719 44.773438 55.140625 37.613281 55.140625 C 30.453125 55.140625 26.761719 53.386719 26.761719 52.636719 C 26.761719 52.355469 27.574219 51.574219 30.085938 50.941406 L 29.679688 49.324219 C 26.679688 50.082031 25.09375 51.226562 25.09375 52.636719 C 25.09375 55.507812 31.582031 56.808594 37.613281 56.808594 " fill-opacity="1" fill-rule="nonzero"/><path fill="#000000" d="M 15.910156 20.085938 C 15.449219 20.085938 15.078125 20.460938 15.078125 20.917969 C 15.078125 21.378906 15.449219 21.753906 15.910156 21.753906 C 16.371094 21.753906 16.746094 21.378906 16.746094 20.917969 C 16.746094 20.460938 16.371094 20.085938 15.910156 20.085938 " fill-opacity="1" fill-rule="nonzero"/><path fill="#000000" d="M 59.3125 20.085938 C 58.855469 20.085938 58.480469 20.460938 58.480469 20.917969 C 58.480469 21.378906 58.855469 21.753906 59.3125 21.753906 C 59.773438 21.753906 60.148438 21.378906 60.148438 20.917969 C 60.148438 20.460938 59.773438 20.085938 59.3125 20.085938 " fill-opacity="1" fill-rule="nonzero"/><g clip-path="url(#7a1f5b90ba)"><path fill="#000000" d="M 59.3125 23.421875 C 57.933594 23.421875 56.808594 22.300781 56.808594 20.917969 C 56.808594 19.535156 57.933594 18.414062 59.3125 18.414062 C 60.695312 18.414062 61.816406 19.535156 61.816406 20.917969 C 61.816406 22.300781 60.695312 23.421875 59.3125 23.421875 Z M 53.472656 23.421875 C 52.550781 23.421875 51.800781 22.671875 51.800781 21.753906 C 51.800781 20.835938 52.550781 20.085938 53.472656 20.085938 C 54.390625 20.085938 55.140625 20.835938 55.140625 21.753906 C 55.140625 22.671875 54.390625 23.421875 53.472656 23.421875 Z M 44.09375 20.085938 L 47.628906 14.195312 L 50.902344 19.648438 C 50.789062 19.789062 50.6875 19.929688 50.59375 20.085938 Z M 24.628906 20.085938 C 24.539062 19.929688 24.4375 19.789062 24.324219 19.648438 L 27.597656 14.195312 L 31.128906 20.085938 Z M 21.753906 23.421875 C 20.835938 23.421875 20.085938 22.671875 20.085938 21.753906 C 20.085938 20.835938 20.835938 20.085938 21.753906 20.085938 C 22.671875 20.085938 23.421875 20.835938 23.421875 21.753906 C 23.421875 22.671875 22.671875 23.421875 21.753906 23.421875 Z M 15.910156 23.421875 C 14.527344 23.421875 13.40625 22.300781 13.40625 20.917969 C 13.40625 19.535156 14.527344 18.414062 15.910156 18.414062 C 17.292969 18.414062 18.414062 19.535156 18.414062 20.917969 C 18.414062 22.300781 17.292969 23.421875 15.910156 23.421875 Z M 39.085938 13.40625 L 46.15625 13.40625 L 42.621094 19.296875 Z M 32.605469 19.296875 L 29.070312 13.40625 L 36.140625 13.40625 Z M 37.613281 14.195312 L 41.148438 20.085938 L 34.078125 20.085938 Z M 16.042969 16.757812 L 17.582031 14.195312 L 20.316406 18.753906 C 20.085938 18.863281 19.875 19 19.679688 19.160156 C 19.03125 17.777344 17.65625 16.8125 16.042969 16.757812 Z M 22.972656 18.652344 C 22.691406 18.542969 22.394531 18.480469 22.078125 18.449219 L 19.054688 13.40625 L 26.121094 13.40625 Z M 52.253906 18.652344 L 49.101562 13.40625 L 56.171875 13.40625 L 53.144531 18.449219 C 52.832031 18.480469 52.53125 18.542969 52.253906 18.652344 Z M 55.546875 19.160156 C 55.347656 19 55.136719 18.863281 54.910156 18.753906 L 57.644531 14.195312 L 59.183594 16.757812 C 57.570312 16.8125 56.195312 17.777344 55.546875 19.160156 Z M 63.488281 13.40625 L 63.488281 11.738281 L 11.738281 11.738281 L 11.738281 13.40625 L 16.105469 13.40625 L 13.71875 17.382812 C 12.535156 18.117188 11.738281 19.421875 11.738281 20.917969 C 11.738281 23.222656 13.609375 25.09375 15.910156 25.09375 C 17.152344 25.09375 18.261719 24.535156 19.023438 23.667969 C 19.632812 24.527344 20.625 25.09375 21.753906 25.09375 C 23.597656 25.09375 25.09375 23.597656 25.09375 21.753906 L 50.132812 21.753906 C 50.132812 23.597656 51.628906 25.09375 53.472656 25.09375 C 54.597656 25.09375 55.59375 24.527344 56.199219 23.667969 C 56.964844 24.535156 58.070312 25.09375 59.3125 25.09375 C 61.617188 25.09375 63.488281 23.222656 63.488281 20.917969 C 63.488281 19.421875 62.6875 18.117188 61.503906 17.382812 L 59.117188 13.40625 L 63.488281 13.40625 " fill-opacity="1" fill-rule="nonzero"/></g><path fill="#000000" d="M 18.371094 25.664062 L 16.789062 26.191406 L 19.292969 33.703125 L 20.875 33.175781 L 18.371094 25.664062 " fill-opacity="1" fill-rule="nonzero"/><path fill="#000000" d="M 56.851562 25.664062 L 54.347656 33.175781 L 55.933594 33.703125 L 58.4375 26.191406 L 56.851562 25.664062 " fill-opacity="1" fill-rule="nonzero"/><path fill="#000000" d="M 48.675781 24.535156 L 37.613281 36.902344 L 26.550781 24.535156 L 25.304688 25.648438 L 36.492188 38.152344 L 34.484375 40.394531 L 35.730469 41.507812 L 37.613281 39.40625 L 39.492188 41.507812 L 40.738281 40.394531 L 38.734375 38.152344 L 49.921875 25.648438 L 48.675781 24.535156 " fill-opacity="1" fill-rule="nonzero"/></svg>