<svg xmlns="http://www.w3.org/2000/svg" xmlns:xlink="http://www.w3.org/1999/xlink" width="100" zoomAndPan="magnify" viewBox="0 0 75 74.999997" height="100" preserveAspectRatio="xMidYMid meet" version="1.0"><defs><clipPath id="8dae9e000f"><path d="M 9.746094 10 L 62.246094 10 L 62.246094 62.660156 L 9.746094 62.660156 Z M 9.746094 10 " clip-rule="nonzero"/></clipPath></defs><g clip-path="url(#8dae9e000f)"><path fill="#000000" d="M 61.570312 57.097656 L 56.96875 50.046875 C 56.613281 49.519531 56.152344 49.109375 55.585938 48.808594 C 55.023438 48.511719 54.421875 48.367188 53.78125 48.367188 L 46.058594 48.367188 C 50.722656 42.558594 55.015625 34.894531 55.015625 29.570312 C 55.015625 27.847656 54.78125 26.15625 54.3125 24.496094 C 53.84375 22.835938 53.15625 21.269531 52.253906 19.800781 C 51.351562 18.328125 50.261719 17.003906 48.992188 15.828125 C 47.71875 14.652344 46.3125 13.667969 44.769531 12.875 C 43.222656 12.082031 41.601562 11.511719 39.898438 11.164062 C 38.195312 10.8125 36.476562 10.699219 34.742188 10.816406 C 33.007812 10.9375 31.324219 11.285156 29.683594 11.863281 C 28.046875 12.445312 26.519531 13.230469 25.101562 14.226562 C 24.972656 14.316406 24.867188 14.429688 24.785156 14.558594 C 24.703125 14.691406 24.648438 14.835938 24.625 14.988281 C 24.597656 15.140625 24.601562 15.292969 24.636719 15.441406 C 24.671875 15.59375 24.734375 15.734375 24.824219 15.859375 C 24.914062 15.984375 25.027344 16.089844 25.160156 16.171875 C 25.292969 16.257812 25.433594 16.3125 25.589844 16.335938 C 25.742188 16.363281 25.894531 16.359375 26.046875 16.328125 C 26.199219 16.292969 26.339844 16.234375 26.46875 16.144531 C 27.710938 15.273438 29.050781 14.585938 30.480469 14.078125 C 31.914062 13.570312 33.390625 13.265625 34.90625 13.160156 C 36.425781 13.058594 37.929688 13.15625 39.417969 13.464844 C 40.90625 13.769531 42.328125 14.269531 43.679688 14.960938 C 45.03125 15.65625 46.261719 16.515625 47.375 17.542969 C 48.488281 18.574219 49.4375 19.730469 50.230469 21.019531 C 51.019531 22.308594 51.621094 23.679688 52.03125 25.132812 C 52.441406 26.582031 52.648438 28.0625 52.644531 29.570312 C 52.644531 39.183594 38.472656 54.242188 36.054688 54.242188 C 33.636719 54.242188 19.464844 39.183594 19.464844 29.570312 C 19.464844 26.832031 20.113281 24.253906 21.410156 21.835938 C 21.488281 21.699219 21.535156 21.550781 21.550781 21.394531 C 21.570312 21.238281 21.554688 21.085938 21.511719 20.933594 C 21.464844 20.78125 21.394531 20.644531 21.292969 20.523438 C 21.191406 20.402344 21.070312 20.304688 20.933594 20.230469 C 20.792969 20.15625 20.644531 20.109375 20.484375 20.097656 C 20.328125 20.082031 20.171875 20.097656 20.019531 20.144531 C 19.871094 20.191406 19.734375 20.265625 19.609375 20.367188 C 19.488281 20.46875 19.394531 20.589844 19.320312 20.730469 C 17.835938 23.492188 17.09375 26.441406 17.09375 29.570312 C 17.09375 39.222656 31.210938 56.59375 36.054688 56.59375 C 37.847656 56.59375 40.914062 54.207031 44.0625 50.71875 L 53.78125 50.71875 C 54.289062 50.707031 54.6875 50.910156 54.976562 51.324219 L 59.578125 58.371094 C 59.820312 58.71875 59.832031 59.074219 59.625 59.4375 C 59.496094 59.65625 59.320312 59.828125 59.097656 59.949219 C 58.875 60.070312 58.636719 60.128906 58.382812 60.117188 L 13.730469 60.117188 C 13.472656 60.128906 13.234375 60.070312 13.011719 59.949219 C 12.789062 59.828125 12.613281 59.65625 12.488281 59.4375 C 12.277344 59.074219 12.292969 58.71875 12.53125 58.371094 L 17.132812 51.324219 C 17.421875 50.910156 17.820312 50.707031 18.328125 50.71875 L 23.019531 50.71875 C 23.175781 50.71875 23.328125 50.6875 23.472656 50.628906 C 23.617188 50.570312 23.746094 50.484375 23.855469 50.375 C 23.96875 50.265625 24.054688 50.136719 24.113281 49.992188 C 24.175781 49.847656 24.203125 49.699219 24.203125 49.542969 C 24.203125 49.386719 24.175781 49.238281 24.113281 49.09375 C 24.054688 48.949219 23.96875 48.824219 23.855469 48.714844 C 23.746094 48.601562 23.617188 48.519531 23.472656 48.457031 C 23.328125 48.398438 23.175781 48.367188 23.019531 48.367188 L 18.328125 48.367188 C 17.691406 48.367188 17.089844 48.511719 16.523438 48.808594 C 15.957031 49.109375 15.5 49.519531 15.144531 50.046875 L 10.539062 57.097656 C 10.195312 57.617188 10.007812 58.1875 9.984375 58.808594 C 9.960938 59.429688 10.101562 60.015625 10.40625 60.558594 C 10.742188 61.15625 11.207031 61.625 11.800781 61.96875 C 12.398438 62.308594 13.039062 62.476562 13.730469 62.46875 L 58.382812 62.46875 C 59.070312 62.472656 59.710938 62.308594 60.304688 61.964844 C 60.898438 61.625 61.363281 61.15625 61.699219 60.558594 C 62.003906 60.015625 62.144531 59.433594 62.121094 58.808594 C 62.097656 58.1875 61.914062 57.617188 61.570312 57.097656 Z M 61.570312 57.097656 " fill-opacity="1" fill-rule="nonzero"/></g><path fill="#000000" d="M 36.054688 40.144531 C 36.835938 40.136719 37.574219 39.960938 38.273438 39.617188 C 38.96875 39.273438 39.558594 38.796875 40.039062 38.183594 L 43.679688 33.691406 C 44.164062 33.09375 44.558594 32.4375 44.863281 31.730469 C 45.164062 31.019531 45.363281 30.285156 45.460938 29.523438 C 45.558594 28.757812 45.550781 27.996094 45.4375 27.234375 C 45.324219 26.476562 45.105469 25.742188 44.789062 25.042969 C 44.382812 24.066406 43.757812 23.253906 42.921875 22.601562 C 42.082031 21.949219 41.136719 21.542969 40.085938 21.382812 C 39.355469 21.300781 38.640625 21.367188 37.941406 21.582031 C 37.242188 21.792969 36.613281 22.136719 36.054688 22.609375 C 35.496094 22.136719 34.867188 21.792969 34.167969 21.582031 C 33.46875 21.367188 32.753906 21.300781 32.027344 21.382812 C 30.972656 21.542969 30.027344 21.949219 29.191406 22.601562 C 28.351562 23.253906 27.730469 24.066406 27.320312 25.042969 C 27.003906 25.742188 26.789062 26.476562 26.671875 27.234375 C 26.558594 27.996094 26.550781 28.757812 26.648438 29.523438 C 26.746094 30.285156 26.945312 31.019531 27.25 31.730469 C 27.550781 32.4375 27.945312 33.09375 28.429688 33.691406 L 32.074219 38.183594 C 32.550781 38.796875 33.140625 39.273438 33.839844 39.617188 C 34.535156 39.960938 35.277344 40.136719 36.054688 40.144531 Z M 29.460938 26.046875 C 29.699219 25.441406 30.070312 24.929688 30.574219 24.515625 C 31.082031 24.097656 31.65625 23.832031 32.300781 23.710938 C 32.851562 23.6875 33.375 23.789062 33.875 24.019531 C 34.375 24.246094 34.792969 24.574219 35.132812 25.003906 C 35.25 25.136719 35.386719 25.238281 35.550781 25.3125 C 35.710938 25.386719 35.878906 25.421875 36.058594 25.421875 C 36.234375 25.421875 36.402344 25.386719 36.5625 25.3125 C 36.726562 25.238281 36.863281 25.136719 36.980469 25.003906 C 37.304688 24.558594 37.71875 24.21875 38.226562 23.988281 C 38.730469 23.757812 39.257812 23.667969 39.8125 23.710938 C 40.457031 23.832031 41.03125 24.101562 41.535156 24.515625 C 42.039062 24.929688 42.410156 25.441406 42.648438 26.046875 C 42.867188 26.550781 43.015625 27.074219 43.09375 27.613281 C 43.171875 28.15625 43.171875 28.699219 43.101562 29.242188 C 43.03125 29.789062 42.886719 30.3125 42.671875 30.816406 C 42.457031 31.320312 42.175781 31.789062 41.832031 32.21875 L 38.1875 36.714844 C 38.0625 36.875 37.921875 37.023438 37.761719 37.152344 C 37.601562 37.28125 37.429688 37.394531 37.242188 37.484375 C 37.058594 37.574219 36.863281 37.644531 36.664062 37.6875 C 36.460938 37.734375 36.257812 37.757812 36.050781 37.757812 C 35.84375 37.757812 35.640625 37.734375 35.441406 37.6875 C 35.238281 37.644531 35.046875 37.574219 34.859375 37.484375 C 34.675781 37.394531 34.503906 37.28125 34.34375 37.152344 C 34.183594 37.023438 34.042969 36.875 33.914062 36.714844 L 30.273438 32.222656 C 29.929688 31.792969 29.652344 31.324219 29.4375 30.820312 C 29.222656 30.3125 29.078125 29.789062 29.003906 29.246094 C 28.933594 28.703125 28.9375 28.160156 29.015625 27.617188 C 29.09375 27.074219 29.242188 26.550781 29.460938 26.046875 Z M 29.460938 26.046875 " fill-opacity="1" fill-rule="nonzero"/><path fill="#000000" d="M 23.996094 17.824219 C 23.996094 17.980469 23.964844 18.128906 23.90625 18.273438 C 23.84375 18.417969 23.757812 18.542969 23.648438 18.652344 C 23.539062 18.765625 23.410156 18.847656 23.265625 18.910156 C 23.117188 18.96875 22.96875 19 22.808594 19 C 22.652344 19 22.503906 18.96875 22.355469 18.910156 C 22.210938 18.847656 22.082031 18.765625 21.972656 18.652344 C 21.859375 18.542969 21.777344 18.417969 21.714844 18.273438 C 21.65625 18.128906 21.625 17.980469 21.625 17.824219 C 21.625 17.667969 21.65625 17.515625 21.714844 17.375 C 21.777344 17.230469 21.859375 17.101562 21.972656 16.992188 C 22.082031 16.882812 22.210938 16.796875 22.355469 16.738281 C 22.503906 16.679688 22.652344 16.648438 22.808594 16.648438 C 22.96875 16.648438 23.117188 16.679688 23.265625 16.738281 C 23.410156 16.796875 23.539062 16.882812 23.648438 16.992188 C 23.757812 17.101562 23.84375 17.230469 23.90625 17.375 C 23.964844 17.515625 23.996094 17.667969 23.996094 17.824219 Z M 23.996094 17.824219 " fill-opacity="1" fill-rule="nonzero"/></svg>