<svg xmlns="http://www.w3.org/2000/svg" xmlns:xlink="http://www.w3.org/1999/xlink" width="100" zoomAndPan="magnify" viewBox="0 0 75 74.999997" height="100" preserveAspectRatio="xMidYMid meet" version="1.0"><defs><clipPath id="fbb33828b7"><path d="M 11.101562 11 L 66 11 L 66 65.429688 L 11.101562 65.429688 Z M 11.101562 11 " clip-rule="nonzero"/></clipPath></defs><g clip-path="url(#fbb33828b7)"><path fill="#000000" d="M 64.945312 24.519531 C 64.136719 23.613281 62.90625 23.289062 61.539062 23.613281 C 61.347656 23.417969 61.117188 23.351562 60.855469 23.410156 C 60.03125 23.625 60.164062 24.648438 60.804688 25.007812 C 61.078125 25.167969 61.367188 25.203125 61.671875 25.113281 C 64.21875 24.386719 64.757812 26.753906 63.988281 28.132812 C 63.980469 28.148438 63.972656 28.160156 63.964844 28.175781 C 63.910156 28.289062 62.570312 30.957031 57.636719 30.390625 C 57.230469 29.820312 56.882812 29.214844 56.59375 28.578125 C 56.164062 27.695312 54.871094 28.277344 55.242188 29.1875 C 55.417969 29.578125 55.617188 29.960938 55.835938 30.328125 L 54.746094 31.234375 C 54.078125 31.761719 54.1875 32.875 54.941406 33.265625 L 49.21875 38.910156 L 49.21875 38.886719 C 49.28125 38.8125 49.328125 38.730469 49.359375 38.636719 L 52.734375 28.160156 C 53.015625 28.257812 53.417969 28.453125 53.714844 28.433594 C 53.898438 28.433594 54.074219 28.398438 54.242188 28.328125 C 54.410156 28.257812 54.558594 28.160156 54.6875 28.03125 C 54.816406 27.90625 54.917969 27.757812 54.988281 27.589844 C 55.0625 27.421875 55.097656 27.246094 55.101562 27.0625 L 55.132812 24.957031 C 61.773438 24.105469 63.136719 19.890625 63.261719 19.457031 C 63.367188 19.125 64.285156 16.039062 61.902344 14.152344 C 60.683594 13.191406 59.046875 13.074219 57.382812 13.820312 C 55.625 9.929688 51.363281 10.527344 49.695312 13.359375 C 48.5625 11.21875 45.582031 10.667969 43.929688 13.066406 C 42.765625 12.371094 41.53125 12.300781 40.5 12.886719 C 38.417969 14.066406 38.75 16.558594 38.796875 16.855469 C 38.847656 17.234375 39.410156 20.53125 44.183594 21.972656 L 43.988281 23.382812 C 43.855469 24.21875 44.675781 24.964844 45.488281 24.75 L 46.101562 27.703125 C 45.179688 26.757812 44.109375 26.027344 42.894531 25.515625 C 41.679688 25.003906 40.414062 24.746094 39.097656 24.746094 L 26.59375 24.746094 C 25.976562 24.746094 25.363281 24.804688 24.757812 24.921875 C 24.148438 25.039062 23.558594 25.210938 22.984375 25.441406 C 22.410156 25.671875 21.863281 25.953125 21.339844 26.285156 C 20.816406 26.617188 20.332031 26.996094 19.878906 27.421875 C 19.429688 27.84375 19.023438 28.308594 18.65625 28.808594 C 18.292969 29.3125 17.980469 29.84375 17.714844 30.402344 C 17.449219 30.964844 17.242188 31.546875 17.085938 32.148438 C 16.929688 32.75 16.832031 33.359375 16.789062 33.976562 L 16.171875 43.542969 C 15.636719 43.90625 15.152344 44.328125 14.71875 44.808594 C 14.285156 45.292969 13.917969 45.820312 13.613281 46.390625 C 13.308594 46.964844 13.078125 47.5625 12.921875 48.195312 C 12.761719 48.824219 12.683594 49.460938 12.679688 50.113281 L 12.679688 52.984375 C 12.230469 53.101562 11.867188 53.34375 11.582031 53.710938 C 11.300781 54.078125 11.15625 54.496094 11.15625 54.960938 L 11.15625 56.996094 C 11.15625 57.265625 11.207031 57.527344 11.3125 57.777344 C 11.414062 58.03125 11.5625 58.25 11.753906 58.441406 C 11.945312 58.636719 12.164062 58.78125 12.414062 58.886719 C 12.664062 58.992188 12.921875 59.042969 13.195312 59.042969 L 16.296875 59.042969 L 16.296875 62.734375 C 16.296875 63.09375 16.363281 63.4375 16.5 63.765625 C 16.636719 64.097656 16.832031 64.390625 17.082031 64.640625 C 17.335938 64.894531 17.625 65.089844 17.953125 65.226562 C 18.285156 65.363281 18.625 65.433594 18.980469 65.433594 L 21.527344 65.433594 C 21.882812 65.433594 22.222656 65.363281 22.554688 65.226562 C 22.882812 65.089844 23.171875 64.894531 23.425781 64.640625 C 23.675781 64.390625 23.871094 64.097656 24.007812 63.765625 C 24.144531 63.4375 24.210938 63.09375 24.210938 62.734375 L 24.210938 61.496094 C 24.210938 61.289062 24.140625 61.113281 23.996094 60.96875 C 23.851562 60.824219 23.675781 60.753906 23.472656 60.753906 C 23.269531 60.753906 23.09375 60.824219 22.949219 60.96875 C 22.804688 61.113281 22.734375 61.289062 22.734375 61.496094 L 22.734375 62.734375 C 22.734375 62.894531 22.703125 63.050781 22.640625 63.199219 C 22.578125 63.347656 22.492188 63.476562 22.378906 63.59375 C 22.265625 63.707031 22.136719 63.792969 21.988281 63.855469 C 21.839844 63.917969 21.6875 63.949219 21.527344 63.949219 L 18.980469 63.949219 C 18.820312 63.949219 18.667969 63.917969 18.519531 63.855469 C 18.371094 63.792969 18.242188 63.707031 18.128906 63.59375 C 18.015625 63.476562 17.929688 63.347656 17.867188 63.199219 C 17.804688 63.050781 17.773438 62.894531 17.773438 62.734375 L 17.773438 59.042969 L 25.15625 59.042969 C 25.316406 59.359375 25.546875 59.613281 25.847656 59.800781 C 26.148438 59.988281 26.476562 60.082031 26.832031 60.082031 L 38.859375 60.082031 C 39.214844 60.082031 39.542969 59.988281 39.84375 59.800781 C 40.144531 59.613281 40.375 59.359375 40.535156 59.042969 L 41.480469 59.042969 L 41.480469 62.734375 C 41.480469 63.09375 41.546875 63.4375 41.683594 63.765625 C 41.820312 64.097656 42.015625 64.390625 42.265625 64.640625 C 42.519531 64.894531 42.808594 65.089844 43.136719 65.226562 C 43.46875 65.363281 43.808594 65.433594 44.164062 65.433594 L 46.707031 65.433594 C 47.0625 65.433594 47.40625 65.363281 47.734375 65.226562 C 48.066406 65.089844 48.355469 64.894531 48.605469 64.640625 C 48.859375 64.390625 49.050781 64.097656 49.1875 63.765625 C 49.324219 63.4375 49.394531 63.09375 49.394531 62.734375 L 49.394531 61.496094 C 49.398438 61.289062 49.324219 61.109375 49.179688 60.964844 C 49.035156 60.816406 48.859375 60.742188 48.65625 60.742188 C 48.449219 60.742188 48.273438 60.816406 48.128906 60.964844 C 47.984375 61.109375 47.914062 61.289062 47.914062 61.496094 L 47.914062 62.734375 C 47.914062 62.894531 47.882812 63.050781 47.824219 63.199219 C 47.761719 63.347656 47.675781 63.476562 47.5625 63.59375 C 47.449219 63.707031 47.316406 63.792969 47.171875 63.855469 C 47.023438 63.917969 46.867188 63.949219 46.707031 63.949219 L 44.164062 63.949219 C 44.003906 63.949219 43.851562 63.917969 43.703125 63.855469 C 43.554688 63.792969 43.425781 63.707031 43.3125 63.59375 C 43.199219 63.476562 43.113281 63.347656 43.050781 63.199219 C 42.988281 63.050781 42.957031 62.894531 42.957031 62.734375 L 42.957031 59.042969 L 52.496094 59.042969 C 52.765625 59.042969 53.027344 58.992188 53.277344 58.886719 C 53.527344 58.78125 53.746094 58.636719 53.9375 58.441406 C 54.128906 58.25 54.277344 58.03125 54.378906 57.777344 C 54.484375 57.527344 54.535156 57.265625 54.535156 56.996094 L 54.535156 54.960938 C 54.535156 54.496094 54.390625 54.078125 54.109375 53.710938 C 53.824219 53.34375 53.457031 53.101562 53.011719 52.984375 L 53.011719 50.113281 C 53.007812 49.460938 52.929688 48.824219 52.769531 48.195312 C 52.613281 47.566406 52.382812 46.964844 52.078125 46.390625 C 51.773438 45.820312 51.40625 45.292969 50.972656 44.808594 C 50.539062 44.328125 50.054688 43.90625 49.519531 43.542969 L 49.347656 40.867188 L 56.257812 34.046875 L 56.472656 34.175781 C 57.167969 34.617188 58.167969 34.164062 58.300781 33.347656 L 58.5625 31.949219 C 63.09375 32.214844 65.191406 29.273438 65.296875 28.828125 C 65.433594 28.5625 66.542969 26.308594 64.945312 24.519531 Z M 51.597656 26.140625 L 52.777344 24.753906 C 53.023438 24.984375 53.3125 25.097656 53.652344 25.085938 L 53.625 26.90625 Z M 50.597656 14.792969 C 50.605469 14.777344 50.613281 14.757812 50.621094 14.742188 C 50.628906 14.71875 51.542969 12.550781 53.535156 12.550781 C 54.972656 12.511719 55.832031 13.863281 56.125 14.644531 C 56.1875 14.796875 56.28125 14.933594 56.402344 15.054688 C 56.523438 15.171875 56.664062 15.257812 56.820312 15.316406 C 56.976562 15.378906 57.140625 15.402344 57.308594 15.394531 C 57.476562 15.386719 57.632812 15.347656 57.785156 15.273438 C 63.355469 12.597656 64.839844 23.042969 53.710938 23.59375 C 50.96875 21.042969 50.039062 17.859375 50.25 16.347656 C 50.265625 16.222656 50.277344 16.105469 50.285156 15.992188 C 50.328125 15.578125 50.433594 15.175781 50.597656 14.792969 Z M 40.265625 16.671875 C 40.25 16.558594 39.960938 14.917969 41.226562 14.179688 C 41.929688 13.738281 42.914062 14.117188 43.414062 14.5 C 43.539062 14.585938 43.675781 14.644531 43.824219 14.675781 C 43.972656 14.707031 44.121094 14.707031 44.269531 14.675781 C 44.417969 14.644531 44.554688 14.582031 44.675781 14.496094 C 44.800781 14.40625 44.902344 14.296875 44.980469 14.167969 C 46.378906 11.894531 48.382812 13.285156 48.730469 14.867188 C 48.8125 15.195312 48.839844 15.53125 48.8125 15.871094 C 48.800781 15.96875 48.792969 16.070312 48.785156 16.179688 C 48.632812 17.316406 47.953125 19.042969 45.554688 20.796875 C 41.125 19.933594 40.210938 16.9375 40.265625 16.671875 Z M 45.628906 22.308594 C 45.792969 22.308594 45.949219 22.277344 46.097656 22.207031 L 46.582031 23 L 45.503906 23.226562 Z M 47.242188 24.378906 C 48.054688 24.222656 48.484375 23.222656 48.03125 22.523438 L 47.285156 21.316406 C 48.003906 20.710938 48.625 20.015625 49.148438 19.234375 C 49.554688 20.554688 50.339844 22.066406 51.75 23.675781 L 50.386719 25.277344 C 49.765625 25.980469 50.070312 27.171875 50.953125 27.484375 L 51.351562 27.632812 L 48.96875 35.023438 L 48.902344 33.980469 C 48.898438 33.96875 48.898438 33.957031 48.898438 33.941406 C 48.835938 33.054688 48.660156 32.1875 48.363281 31.347656 L 46.933594 24.441406 Z M 26.59375 26.230469 L 39.097656 26.230469 C 39.953125 26.234375 40.789062 26.363281 41.601562 26.621094 C 42.417969 26.882812 43.175781 27.257812 43.875 27.75 C 44.578125 28.242188 45.1875 28.828125 45.710938 29.507812 C 46.230469 30.1875 46.640625 30.933594 46.933594 31.738281 L 47.429688 34.125 L 47.984375 42.742188 C 47.070312 42.386719 46.125 42.207031 45.148438 42.210938 L 43.292969 42.210938 C 42.902344 41.585938 42.367188 41.144531 41.683594 40.882812 C 38.105469 39.4375 34.527344 38.835938 30.785156 39.1875 C 28.441406 39.417969 26.183594 39.984375 24.007812 40.882812 C 23.324219 41.144531 22.789062 41.585938 22.398438 42.210938 L 20.542969 42.210938 C 19.566406 42.207031 18.621094 42.386719 17.707031 42.738281 L 18.265625 34.074219 C 18.300781 33.546875 18.382812 33.03125 18.515625 32.519531 C 18.648438 32.007812 18.828125 31.515625 19.050781 31.039062 C 19.277344 30.5625 19.542969 30.109375 19.851562 29.683594 C 20.164062 29.257812 20.507812 28.863281 20.890625 28.503906 C 21.273438 28.144531 21.6875 27.820312 22.128906 27.539062 C 22.574219 27.257812 23.039062 27.019531 23.527344 26.824219 C 24.015625 26.628906 24.515625 26.480469 25.03125 26.382812 C 25.546875 26.28125 26.066406 26.230469 26.59375 26.230469 Z M 39.566406 52.015625 C 39.339844 51.921875 39.105469 51.878906 38.859375 51.878906 L 35.578125 51.878906 L 35.578125 40.757812 C 37.492188 41.023438 39.34375 41.523438 41.132812 42.261719 C 41.75 42.511719 42.152344 42.96875 42.183594 43.457031 C 42.308594 45.46875 42.117188 49.167969 39.566406 52.015625 Z M 26.125 52.015625 C 23.574219 49.164062 23.382812 45.46875 23.511719 43.457031 C 23.539062 42.96875 23.941406 42.511719 24.5625 42.261719 C 26.351562 41.523438 28.203125 41.023438 30.117188 40.757812 L 30.117188 51.875 L 26.832031 51.875 C 26.585938 51.878906 26.351562 51.921875 26.125 52.015625 Z M 31.59375 40.613281 C 32.429688 40.5625 33.261719 40.5625 34.097656 40.613281 L 34.097656 51.875 L 31.59375 51.875 Z M 14.160156 50.113281 C 14.160156 49.691406 14.199219 49.273438 14.28125 48.859375 C 14.363281 48.445312 14.484375 48.046875 14.644531 47.65625 C 14.804688 47.265625 15 46.898438 15.234375 46.546875 C 15.46875 46.195312 15.730469 45.871094 16.027344 45.574219 C 16.324219 45.277344 16.648438 45.011719 16.996094 44.777344 C 17.34375 44.542969 17.710938 44.34375 18.101562 44.183594 C 18.488281 44.023438 18.886719 43.902344 19.296875 43.820312 C 19.707031 43.738281 20.125 43.695312 20.542969 43.695312 L 22.015625 43.695312 C 21.917969 45.980469 22.242188 49.832031 24.9375 52.914062 L 22.960938 52.914062 C 23.585938 50.429688 21.613281 47.90625 19.058594 47.941406 C 16.503906 47.90625 14.527344 50.429688 15.152344 52.914062 L 14.160156 52.914062 Z M 16.519531 51.976562 C 16.519531 51.636719 16.585938 51.3125 16.714844 51 C 16.84375 50.6875 17.027344 50.414062 17.265625 50.175781 C 17.503906 49.933594 17.777344 49.75 18.085938 49.621094 C 18.398438 49.492188 18.722656 49.425781 19.058594 49.425781 C 22.421875 49.566406 22.421875 54.386719 19.058594 54.523438 C 18.722656 54.523438 18.398438 54.460938 18.085938 54.332031 C 17.777344 54.203125 17.503906 54.015625 17.265625 53.777344 C 17.027344 53.539062 16.84375 53.261719 16.714844 52.953125 C 16.585938 52.640625 16.519531 52.3125 16.519531 51.976562 Z M 13.195312 57.558594 C 13.039062 57.554688 12.90625 57.5 12.800781 57.390625 C 12.691406 57.28125 12.636719 57.148438 12.636719 56.996094 L 12.636719 54.960938 C 12.636719 54.808594 12.691406 54.675781 12.800781 54.566406 C 12.90625 54.457031 13.039062 54.402344 13.195312 54.402344 L 15.851562 54.402344 C 17.410156 56.535156 20.707031 56.535156 22.265625 54.402344 L 24.953125 54.402344 L 24.953125 57.558594 Z M 38.859375 58.59375 L 26.832031 58.59375 C 26.722656 58.59375 26.628906 58.554688 26.550781 58.476562 C 26.472656 58.398438 26.433594 58.304688 26.433594 58.195312 L 26.433594 53.761719 C 26.433594 53.652344 26.472656 53.558594 26.550781 53.480469 C 26.628906 53.402344 26.722656 53.363281 26.832031 53.363281 L 38.859375 53.363281 C 38.96875 53.363281 39.0625 53.402344 39.140625 53.480469 C 39.21875 53.558594 39.257812 53.652344 39.257812 53.761719 L 39.257812 58.195312 C 39.257812 58.304688 39.21875 58.398438 39.140625 58.476562 C 39.0625 58.554688 38.96875 58.59375 38.859375 58.59375 Z M 53.054688 56.996094 C 53.054688 57.148438 53 57.28125 52.894531 57.390625 C 52.785156 57.5 52.652344 57.554688 52.496094 57.558594 L 40.738281 57.558594 L 40.738281 54.402344 L 43.445312 54.402344 C 45.007812 56.5 48.261719 56.5 49.820312 54.402344 L 52.496094 54.402344 C 52.652344 54.402344 52.78125 54.457031 52.890625 54.566406 C 53 54.675781 53.054688 54.808594 53.054688 54.960938 Z M 46.632812 54.5 C 46.296875 54.5 45.972656 54.433594 45.664062 54.304688 C 45.351562 54.175781 45.078125 53.992188 44.839844 53.75 C 44.601562 53.511719 44.417969 53.238281 44.289062 52.925781 C 44.164062 52.613281 44.097656 52.289062 44.097656 51.949219 C 44.238281 48.566406 49.03125 48.566406 49.171875 51.949219 C 49.171875 52.289062 49.105469 52.613281 48.976562 52.925781 C 48.847656 53.238281 48.664062 53.511719 48.425781 53.75 C 48.1875 53.992188 47.914062 54.175781 47.605469 54.304688 C 47.292969 54.433594 46.96875 54.5 46.632812 54.5 Z M 51.53125 50.113281 L 51.53125 52.914062 L 50.53125 52.914062 C 51.175781 50.425781 49.199219 47.878906 46.632812 47.914062 C 44.066406 47.878906 42.089844 50.425781 42.734375 52.914062 L 40.753906 52.914062 C 43.445312 49.835938 43.769531 45.980469 43.675781 43.695312 L 45.148438 43.695312 C 48.589844 43.640625 51.605469 46.648438 51.53125 50.113281 Z M 55.964844 32.148438 L 56.679688 31.554688 C 56.796875 31.667969 56.933594 31.746094 57.085938 31.796875 L 56.914062 32.710938 Z M 55.964844 32.148438 " fill-opacity="1" fill-rule="nonzero"/></g><path fill="#000000" d="M 20.757812 40.570312 C 20.960938 40.585938 21.140625 40.527344 21.292969 40.394531 C 21.449219 40.257812 21.535156 40.089844 21.550781 39.886719 L 21.929688 34.671875 C 22.441406 32.210938 25.351562 30.359375 28.722656 30.359375 L 36.96875 30.359375 C 40.34375 30.359375 43.253906 32.210938 43.761719 34.671875 L 44.144531 39.886719 C 44.15625 40.089844 44.242188 40.257812 44.398438 40.394531 C 44.550781 40.527344 44.730469 40.585938 44.933594 40.570312 C 45.136719 40.558594 45.308594 40.472656 45.441406 40.316406 C 45.574219 40.160156 45.632812 39.980469 45.617188 39.777344 L 45.230469 34.515625 C 45.230469 34.484375 45.226562 34.457031 45.21875 34.425781 C 44.59375 31.210938 41.121094 28.875 36.96875 28.875 L 28.726562 28.875 C 24.570312 28.875 21.101562 31.207031 20.472656 34.425781 C 20.464844 34.457031 20.460938 34.484375 20.460938 34.515625 L 20.074219 39.777344 C 20.058594 39.980469 20.117188 40.160156 20.25 40.316406 C 20.386719 40.472656 20.554688 40.558594 20.757812 40.570312 Z M 20.757812 40.570312 " fill-opacity="1" fill-rule="nonzero"/></svg>