<svg xmlns="http://www.w3.org/2000/svg" xmlns:xlink="http://www.w3.org/1999/xlink" width="100" zoomAndPan="magnify" viewBox="0 0 75 74.999997" height="100" preserveAspectRatio="xMidYMid meet" version="1.0"><defs><clipPath id="6d10277856"><path d="M 7.5 7.5 L 15 7.5 L 15 64 L 7.5 64 Z M 7.5 7.5 " clip-rule="nonzero"/></clipPath><clipPath id="5b62f08365"><path d="M 7.5 61 L 10 61 L 10 67.5 L 7.5 67.5 Z M 7.5 61 " clip-rule="nonzero"/></clipPath><clipPath id="0c0ac4268d"><path d="M 7.5 65 L 54 65 L 54 67.5 L 7.5 67.5 Z M 7.5 65 " clip-rule="nonzero"/></clipPath><clipPath id="2e211c0457"><path d="M 12 7.5 L 54 7.5 L 54 10 L 12 10 Z M 12 7.5 " clip-rule="nonzero"/></clipPath><clipPath id="7bbfc707b7"><path d="M 51 7.5 L 54 7.5 L 54 64 L 51 64 Z M 51 7.5 " clip-rule="nonzero"/></clipPath><clipPath id="c18fdd6949"><path d="M 51 61 L 54 61 L 54 67.5 L 51 67.5 Z M 51 61 " clip-rule="nonzero"/></clipPath><clipPath id="865c23ac2c"><path d="M 51 20 L 60.75 20 L 60.75 62 L 51 62 Z M 51 20 " clip-rule="nonzero"/></clipPath></defs><g clip-path="url(#6d10277856)"><path fill="#000000" d="M 13.117188 63.746094 L 8.449219 63.746094 C 8.191406 63.746094 7.972656 63.65625 7.789062 63.472656 C 7.609375 63.289062 7.515625 63.066406 7.515625 62.808594 L 7.515625 8.4375 C 7.515625 8.179688 7.609375 7.957031 7.789062 7.773438 C 7.972656 7.589844 8.191406 7.5 8.449219 7.5 L 13.117188 7.5 C 13.375 7.5 13.597656 7.589844 13.78125 7.773438 C 13.960938 7.957031 14.054688 8.179688 14.050781 8.4375 L 14.050781 62.808594 C 14.054688 63.066406 13.960938 63.289062 13.78125 63.472656 C 13.597656 63.65625 13.375 63.746094 13.117188 63.746094 Z M 9.382812 61.871094 L 12.183594 61.871094 L 12.183594 9.375 L 9.382812 9.375 Z M 9.382812 61.871094 " fill-opacity="1" fill-rule="nonzero"/></g><g clip-path="url(#5b62f08365)"><path fill="#000000" d="M 8.449219 67.5 C 8.191406 67.5 7.972656 67.410156 7.789062 67.226562 C 7.609375 67.042969 7.515625 66.820312 7.515625 66.5625 L 7.515625 62.808594 C 7.515625 62.550781 7.609375 62.328125 7.789062 62.144531 C 7.972656 61.960938 8.191406 61.871094 8.449219 61.871094 C 8.707031 61.871094 8.929688 61.960938 9.109375 62.144531 C 9.292969 62.328125 9.382812 62.550781 9.382812 62.808594 L 9.382812 66.5625 C 9.386719 66.820312 9.292969 67.042969 9.113281 67.226562 C 8.929688 67.410156 8.707031 67.5 8.449219 67.5 Z M 8.449219 67.5 " fill-opacity="1" fill-rule="nonzero"/></g><g clip-path="url(#0c0ac4268d)"><path fill="#000000" d="M 52.34375 67.5 L 8.449219 67.5 C 8.191406 67.5 7.972656 67.410156 7.789062 67.226562 C 7.609375 67.042969 7.515625 66.820312 7.515625 66.5625 C 7.515625 66.304688 7.609375 66.082031 7.789062 65.898438 C 7.972656 65.714844 8.191406 65.625 8.449219 65.625 L 52.34375 65.625 C 52.601562 65.625 52.824219 65.714844 53.003906 65.898438 C 53.1875 66.082031 53.277344 66.304688 53.277344 66.5625 C 53.277344 66.820312 53.1875 67.042969 53.003906 67.226562 C 52.824219 67.410156 52.601562 67.5 52.34375 67.5 Z M 52.34375 67.5 " fill-opacity="1" fill-rule="nonzero"/></g><path fill="#000000" d="M 52.34375 63.746094 L 13.117188 63.746094 C 12.859375 63.746094 12.640625 63.65625 12.457031 63.472656 C 12.277344 63.289062 12.183594 63.066406 12.183594 62.808594 C 12.183594 62.550781 12.277344 62.328125 12.457031 62.144531 C 12.640625 61.960938 12.859375 61.871094 13.117188 61.871094 L 52.34375 61.871094 C 52.601562 61.871094 52.824219 61.960938 53.003906 62.144531 C 53.1875 62.328125 53.277344 62.550781 53.277344 62.808594 C 53.277344 63.066406 53.1875 63.289062 53.003906 63.472656 C 52.824219 63.65625 52.601562 63.746094 52.34375 63.746094 Z M 52.34375 63.746094 " fill-opacity="1" fill-rule="nonzero"/><g clip-path="url(#2e211c0457)"><path fill="#000000" d="M 52.34375 9.375 L 13.117188 9.375 C 12.859375 9.375 12.640625 9.285156 12.457031 9.101562 C 12.277344 8.917969 12.183594 8.695312 12.183594 8.4375 C 12.183594 8.179688 12.277344 7.957031 12.457031 7.773438 C 12.640625 7.589844 12.859375 7.5 13.117188 7.5 L 52.34375 7.5 C 52.601562 7.5 52.824219 7.589844 53.003906 7.773438 C 53.1875 7.957031 53.277344 8.179688 53.277344 8.4375 C 53.277344 8.695312 53.1875 8.917969 53.003906 9.101562 C 52.824219 9.285156 52.601562 9.375 52.34375 9.375 Z M 52.34375 9.375 " fill-opacity="1" fill-rule="nonzero"/></g><g clip-path="url(#7bbfc707b7)"><path fill="#000000" d="M 52.34375 63.746094 C 52.085938 63.746094 51.867188 63.65625 51.683594 63.472656 C 51.503906 63.289062 51.410156 63.066406 51.410156 62.808594 L 51.410156 8.4375 C 51.410156 8.179688 51.503906 7.957031 51.683594 7.773438 C 51.867188 7.589844 52.085938 7.5 52.34375 7.5 C 52.601562 7.5 52.824219 7.589844 53.003906 7.773438 C 53.1875 7.957031 53.277344 8.179688 53.277344 8.4375 L 53.277344 62.808594 C 53.277344 63.066406 53.1875 63.289062 53.003906 63.472656 C 52.824219 63.65625 52.601562 63.746094 52.34375 63.746094 Z M 52.34375 63.746094 " fill-opacity="1" fill-rule="nonzero"/></g><g clip-path="url(#c18fdd6949)"><path fill="#000000" d="M 52.34375 67.5 C 52.085938 67.5 51.867188 67.410156 51.683594 67.226562 C 51.503906 67.042969 51.410156 66.820312 51.410156 66.5625 L 51.410156 62.808594 C 51.410156 62.550781 51.503906 62.328125 51.683594 62.144531 C 51.867188 61.960938 52.085938 61.871094 52.34375 61.871094 C 52.601562 61.871094 52.824219 61.960938 53.003906 62.144531 C 53.1875 62.328125 53.277344 62.550781 53.277344 62.808594 L 53.277344 66.5625 C 53.277344 66.820312 53.1875 67.042969 53.003906 67.226562 C 52.824219 67.410156 52.601562 67.5 52.34375 67.5 Z M 52.34375 67.5 " fill-opacity="1" fill-rule="nonzero"/></g><path fill="#000000" d="M 39.296875 49.710938 L 26.21875 49.710938 C 25.960938 49.710938 25.742188 49.617188 25.558594 49.4375 C 25.378906 49.253906 25.285156 49.03125 25.285156 48.773438 C 25.285156 48.515625 25.378906 48.292969 25.558594 48.109375 C 25.742188 47.925781 25.960938 47.835938 26.21875 47.835938 L 39.296875 47.835938 C 39.554688 47.835938 39.777344 47.925781 39.957031 48.109375 C 40.140625 48.292969 40.230469 48.515625 40.230469 48.773438 C 40.230469 49.03125 40.140625 49.253906 39.957031 49.4375 C 39.777344 49.617188 39.554688 49.710938 39.296875 49.710938 Z M 39.296875 49.710938 " fill-opacity="1" fill-rule="nonzero"/><path fill="#000000" d="M 45.832031 46.898438 L 19.679688 46.898438 C 19.421875 46.898438 19.203125 46.808594 19.019531 46.625 C 18.839844 46.441406 18.746094 46.222656 18.746094 45.960938 C 18.746094 45.703125 18.839844 45.480469 19.019531 45.300781 C 19.203125 45.117188 19.421875 45.023438 19.679688 45.023438 L 45.832031 45.023438 C 46.089844 45.023438 46.3125 45.117188 46.492188 45.300781 C 46.675781 45.480469 46.765625 45.703125 46.765625 45.960938 C 46.765625 46.222656 46.675781 46.441406 46.492188 46.625 C 46.3125 46.808594 46.089844 46.898438 45.832031 46.898438 Z M 45.832031 46.898438 " fill-opacity="1" fill-rule="nonzero"/><path fill="#000000" d="M 45.832031 44.074219 L 19.671875 44.074219 C 19.414062 44.074219 19.191406 43.980469 19.011719 43.796875 C 18.828125 43.613281 18.738281 43.394531 18.738281 43.136719 C 18.738281 42.875 18.828125 42.65625 19.011719 42.472656 C 19.191406 42.289062 19.414062 42.199219 19.671875 42.199219 L 45.832031 42.199219 C 46.089844 42.199219 46.3125 42.289062 46.492188 42.472656 C 46.675781 42.65625 46.765625 42.875 46.765625 43.136719 C 46.765625 43.394531 46.675781 43.613281 46.492188 43.796875 C 46.3125 43.980469 46.089844 44.074219 45.832031 44.074219 Z M 45.832031 44.074219 " fill-opacity="1" fill-rule="nonzero"/><path fill="#000000" d="M 29.003906 56.25 C 28.746094 56.253906 28.527344 56.160156 28.34375 55.980469 C 28.160156 55.796875 28.070312 55.578125 28.066406 55.320312 C 28.066406 55.058594 28.15625 54.839844 28.339844 54.65625 C 28.519531 54.472656 28.738281 54.378906 28.996094 54.375 L 29.003906 54.375 C 29.261719 54.375 29.484375 54.46875 29.664062 54.652344 C 29.847656 54.835938 29.9375 55.054688 29.9375 55.3125 C 29.9375 55.574219 29.847656 55.792969 29.664062 55.976562 C 29.484375 56.160156 29.261719 56.25 29.003906 56.25 Z M 29.003906 56.25 " fill-opacity="1" fill-rule="nonzero"/><path fill="#000000" d="M 32.738281 56.25 C 32.480469 56.253906 32.261719 56.160156 32.078125 55.980469 C 31.894531 55.796875 31.804688 55.578125 31.800781 55.320312 C 31.800781 55.058594 31.890625 54.839844 32.074219 54.65625 C 32.253906 54.472656 32.472656 54.378906 32.730469 54.375 L 32.738281 54.375 C 32.996094 54.375 33.21875 54.46875 33.398438 54.652344 C 33.582031 54.835938 33.671875 55.054688 33.671875 55.3125 C 33.671875 55.574219 33.582031 55.792969 33.398438 55.976562 C 33.21875 56.160156 32.996094 56.25 32.738281 56.25 Z M 32.738281 56.25 " fill-opacity="1" fill-rule="nonzero"/><path fill="#000000" d="M 36.472656 56.25 C 36.214844 56.253906 35.996094 56.160156 35.8125 55.980469 C 35.628906 55.796875 35.539062 55.578125 35.535156 55.320312 C 35.535156 55.058594 35.625 54.839844 35.808594 54.65625 C 35.988281 54.472656 36.207031 54.378906 36.464844 54.375 L 36.472656 54.375 C 36.730469 54.375 36.953125 54.46875 37.132812 54.652344 C 37.316406 54.835938 37.40625 55.054688 37.40625 55.3125 C 37.40625 55.574219 37.316406 55.792969 37.132812 55.976562 C 36.953125 56.160156 36.730469 56.25 36.472656 56.25 Z M 36.472656 56.25 " fill-opacity="1" fill-rule="nonzero"/><path fill="#000000" d="M 27.152344 37.5 C 26.601562 37.5 26.054688 37.445312 25.515625 37.335938 C 24.972656 37.230469 24.449219 37.070312 23.9375 36.855469 C 23.429688 36.644531 22.945312 36.386719 22.484375 36.078125 C 22.027344 35.769531 21.601562 35.417969 21.210938 35.027344 C 20.820312 34.636719 20.472656 34.210938 20.167969 33.75 C 19.859375 33.289062 19.601562 32.800781 19.390625 32.289062 C 19.179688 31.777344 19.019531 31.25 18.914062 30.707031 C 18.804688 30.164062 18.75 29.617188 18.75 29.0625 C 18.75 28.507812 18.804688 27.957031 18.914062 27.414062 C 19.019531 26.871094 19.179688 26.34375 19.390625 25.832031 C 19.601562 25.320312 19.859375 24.835938 20.167969 24.375 C 20.472656 23.914062 20.820312 23.488281 21.210938 23.09375 C 21.601562 22.703125 22.027344 22.355469 22.484375 22.046875 C 22.945312 21.738281 23.429688 21.476562 23.9375 21.265625 C 24.449219 21.054688 24.972656 20.894531 25.515625 20.785156 C 26.054688 20.679688 26.601562 20.625 27.152344 20.625 C 27.703125 20.625 28.25 20.679688 28.792969 20.785156 C 29.332031 20.894531 29.859375 21.054688 30.367188 21.265625 C 30.878906 21.476562 31.363281 21.738281 31.820312 22.046875 C 32.28125 22.355469 32.703125 22.703125 33.09375 23.09375 C 33.484375 23.488281 33.832031 23.914062 34.140625 24.375 C 34.445312 24.835938 34.703125 25.320312 34.914062 25.832031 C 35.128906 26.34375 35.285156 26.871094 35.394531 27.414062 C 35.5 27.957031 35.554688 28.507812 35.554688 29.0625 C 35.554688 29.617188 35.5 30.164062 35.390625 30.707031 C 35.285156 31.25 35.125 31.777344 34.914062 32.289062 C 34.703125 32.800781 34.441406 33.285156 34.136719 33.746094 C 33.828125 34.207031 33.480469 34.632812 33.09375 35.023438 C 32.703125 35.417969 32.277344 35.765625 31.820312 36.074219 C 31.359375 36.382812 30.875 36.640625 30.367188 36.855469 C 29.859375 37.066406 29.332031 37.226562 28.792969 37.335938 C 28.25 37.445312 27.703125 37.5 27.152344 37.5 Z M 27.152344 22.5 C 26.722656 22.5 26.300781 22.542969 25.878906 22.625 C 25.457031 22.710938 25.046875 22.832031 24.652344 23 C 24.253906 23.164062 23.878906 23.367188 23.523438 23.605469 C 23.164062 23.84375 22.835938 24.117188 22.53125 24.421875 C 22.230469 24.726562 21.957031 25.058594 21.71875 25.414062 C 21.480469 25.773438 21.28125 26.152344 21.117188 26.550781 C 20.953125 26.949219 20.828125 27.359375 20.742188 27.78125 C 20.660156 28.203125 20.617188 28.628906 20.617188 29.0625 C 20.617188 29.492188 20.660156 29.917969 20.742188 30.34375 C 20.828125 30.765625 20.953125 31.175781 21.117188 31.574219 C 21.28125 31.972656 21.480469 32.347656 21.71875 32.707031 C 21.957031 33.066406 22.230469 33.398438 22.53125 33.703125 C 22.835938 34.007812 23.164062 34.277344 23.523438 34.519531 C 23.878906 34.757812 24.253906 34.960938 24.652344 35.125 C 25.046875 35.289062 25.457031 35.414062 25.878906 35.496094 C 26.300781 35.582031 26.722656 35.625 27.152344 35.625 C 27.582031 35.625 28.007812 35.582031 28.429688 35.496094 C 28.847656 35.414062 29.257812 35.289062 29.652344 35.125 C 30.050781 34.960938 30.425781 34.757812 30.785156 34.519531 C 31.140625 34.277344 31.472656 34.007812 31.773438 33.703125 C 32.078125 33.398438 32.347656 33.066406 32.585938 32.707031 C 32.824219 32.347656 33.027344 31.972656 33.191406 31.574219 C 33.355469 31.175781 33.480469 30.765625 33.5625 30.34375 C 33.644531 29.917969 33.6875 29.492188 33.6875 29.0625 C 33.6875 28.628906 33.644531 28.203125 33.5625 27.78125 C 33.476562 27.359375 33.351562 26.949219 33.1875 26.550781 C 33.023438 26.152344 32.824219 25.777344 32.585938 25.417969 C 32.347656 25.058594 32.074219 24.726562 31.773438 24.421875 C 31.46875 24.117188 31.136719 23.847656 30.78125 23.609375 C 30.425781 23.367188 30.050781 23.164062 29.652344 23 C 29.257812 22.835938 28.847656 22.710938 28.425781 22.625 C 28.007812 22.542969 27.582031 22.5 27.152344 22.5 Z M 27.152344 22.5 " fill-opacity="1" fill-rule="nonzero"/><path fill="#000000" d="M 38.355469 37.5 C 37.804688 37.5 37.257812 37.445312 36.71875 37.335938 C 36.175781 37.230469 35.652344 37.070312 35.140625 36.855469 C 34.632812 36.644531 34.148438 36.386719 33.6875 36.078125 C 33.230469 35.769531 32.804688 35.417969 32.414062 35.027344 C 32.023438 34.636719 31.675781 34.210938 31.371094 33.75 C 31.0625 33.289062 30.804688 32.800781 30.59375 32.289062 C 30.382812 31.777344 30.222656 31.25 30.117188 30.707031 C 30.007812 30.164062 29.953125 29.617188 29.953125 29.0625 C 29.953125 28.507812 30.007812 27.957031 30.117188 27.414062 C 30.222656 26.871094 30.382812 26.34375 30.59375 25.832031 C 30.804688 25.320312 31.0625 24.835938 31.371094 24.375 C 31.675781 23.914062 32.023438 23.488281 32.414062 23.09375 C 32.804688 22.703125 33.230469 22.355469 33.6875 22.046875 C 34.148438 21.738281 34.632812 21.476562 35.140625 21.265625 C 35.652344 21.054688 36.175781 20.894531 36.71875 20.785156 C 37.257812 20.679688 37.804688 20.625 38.355469 20.625 C 38.90625 20.625 39.453125 20.679688 39.996094 20.785156 C 40.535156 20.894531 41.0625 21.054688 41.570312 21.265625 C 42.082031 21.476562 42.566406 21.738281 43.023438 22.046875 C 43.484375 22.355469 43.90625 22.703125 44.296875 23.09375 C 44.6875 23.488281 45.035156 23.914062 45.34375 24.375 C 45.648438 24.835938 45.90625 25.320312 46.117188 25.832031 C 46.332031 26.34375 46.488281 26.871094 46.597656 27.414062 C 46.703125 27.957031 46.757812 28.507812 46.757812 29.0625 C 46.757812 29.617188 46.703125 30.164062 46.59375 30.707031 C 46.488281 31.25 46.328125 31.777344 46.117188 32.289062 C 45.90625 32.800781 45.644531 33.285156 45.339844 33.746094 C 45.035156 34.207031 44.683594 34.632812 44.296875 35.023438 C 43.90625 35.417969 43.480469 35.765625 43.023438 36.074219 C 42.5625 36.382812 42.078125 36.640625 41.570312 36.855469 C 41.0625 37.066406 40.535156 37.226562 39.996094 37.335938 C 39.453125 37.445312 38.90625 37.5 38.355469 37.5 Z M 38.355469 22.5 C 37.925781 22.5 37.503906 22.542969 37.082031 22.625 C 36.660156 22.710938 36.25 22.832031 35.855469 23 C 35.457031 23.164062 35.082031 23.367188 34.726562 23.605469 C 34.367188 23.84375 34.039062 24.117188 33.734375 24.421875 C 33.433594 24.726562 33.160156 25.058594 32.921875 25.414062 C 32.683594 25.773438 32.484375 26.152344 32.320312 26.550781 C 32.15625 26.949219 32.03125 27.359375 31.945312 27.78125 C 31.863281 28.203125 31.820312 28.628906 31.820312 29.0625 C 31.820312 29.492188 31.863281 29.917969 31.945312 30.34375 C 32.03125 30.765625 32.15625 31.175781 32.320312 31.574219 C 32.484375 31.972656 32.683594 32.347656 32.921875 32.707031 C 33.160156 33.066406 33.433594 33.398438 33.734375 33.703125 C 34.039062 34.007812 34.367188 34.277344 34.726562 34.519531 C 35.082031 34.757812 35.457031 34.960938 35.855469 35.125 C 36.25 35.289062 36.660156 35.414062 37.082031 35.496094 C 37.503906 35.582031 37.925781 35.625 38.355469 35.625 C 38.785156 35.625 39.210938 35.582031 39.632812 35.496094 C 40.050781 35.414062 40.460938 35.289062 40.855469 35.125 C 41.253906 34.960938 41.628906 34.757812 41.988281 34.519531 C 42.34375 34.277344 42.675781 34.007812 42.976562 33.703125 C 43.28125 33.398438 43.550781 33.066406 43.789062 32.707031 C 44.027344 32.347656 44.230469 31.972656 44.394531 31.574219 C 44.558594 31.175781 44.683594 30.765625 44.765625 30.34375 C 44.847656 29.917969 44.890625 29.492188 44.890625 29.0625 C 44.890625 28.628906 44.847656 28.203125 44.765625 27.78125 C 44.679688 27.359375 44.554688 26.949219 44.390625 26.550781 C 44.226562 26.152344 44.027344 25.777344 43.789062 25.417969 C 43.550781 25.058594 43.277344 24.726562 42.976562 24.421875 C 42.671875 24.117188 42.339844 23.847656 41.984375 23.609375 C 41.628906 23.367188 41.253906 23.164062 40.855469 23 C 40.460938 22.835938 40.050781 22.710938 39.628906 22.625 C 39.210938 22.542969 38.785156 22.5 38.355469 22.5 Z M 38.355469 22.5 " fill-opacity="1" fill-rule="nonzero"/><path fill="#000000" d="M 38.355469 22.5 C 38.046875 22.5 37.796875 22.375 37.609375 22.125 L 34.808594 18.375 C 34.65625 18.167969 34.597656 17.9375 34.632812 17.679688 C 34.671875 17.425781 34.792969 17.222656 35 17.066406 C 35.203125 16.910156 35.433594 16.851562 35.6875 16.886719 C 35.941406 16.921875 36.148438 17.042969 36.300781 17.25 L 39.101562 21 C 39.332031 21.308594 39.363281 21.636719 39.191406 21.980469 C 39.019531 22.328125 38.742188 22.5 38.355469 22.5 Z M 38.355469 22.5 " fill-opacity="1" fill-rule="nonzero"/><path fill="#000000" d="M 38.355469 22.5 C 37.972656 22.5 37.691406 22.328125 37.523438 21.980469 C 37.351562 21.636719 37.378906 21.308594 37.609375 21 L 40.410156 17.25 C 40.566406 17.042969 40.769531 16.925781 41.023438 16.886719 C 41.277344 16.851562 41.507812 16.910156 41.714844 17.066406 C 41.917969 17.222656 42.039062 17.425781 42.078125 17.679688 C 42.113281 17.9375 42.058594 18.167969 41.902344 18.375 L 39.101562 22.125 C 38.917969 22.375 38.667969 22.5 38.355469 22.5 Z M 38.355469 22.5 " fill-opacity="1" fill-rule="nonzero"/><path fill="#000000" d="M 41.15625 18.75 L 35.554688 18.75 C 35.296875 18.75 35.078125 18.660156 34.894531 18.476562 C 34.714844 18.292969 34.621094 18.070312 34.621094 17.8125 C 34.621094 17.554688 34.714844 17.332031 34.894531 17.148438 C 35.078125 16.964844 35.296875 16.875 35.554688 16.875 L 41.15625 16.875 C 41.414062 16.875 41.636719 16.964844 41.816406 17.148438 C 42 17.332031 42.089844 17.554688 42.089844 17.8125 C 42.089844 18.070312 42 18.292969 41.816406 18.476562 C 41.636719 18.660156 41.414062 18.75 41.15625 18.75 Z M 41.15625 18.75 " fill-opacity="1" fill-rule="nonzero"/><g clip-path="url(#865c23ac2c)"><path fill="#000000" d="M 59.800781 61.875 L 52.34375 61.875 C 52.085938 61.875 51.867188 61.785156 51.683594 61.601562 C 51.503906 61.417969 51.410156 61.195312 51.410156 60.9375 C 51.410156 60.679688 51.503906 60.457031 51.683594 60.273438 C 51.867188 60.089844 52.085938 60 52.34375 60 L 58.867188 60 L 58.867188 22.5 L 55.144531 22.5 C 54.886719 22.5 54.667969 22.410156 54.484375 22.226562 C 54.304688 22.042969 54.210938 21.820312 54.210938 21.5625 C 54.210938 21.304688 54.304688 21.082031 54.484375 20.898438 C 54.667969 20.714844 54.886719 20.625 55.144531 20.625 L 59.800781 20.625 C 60.058594 20.625 60.277344 20.714844 60.460938 20.898438 C 60.640625 21.082031 60.734375 21.304688 60.734375 21.5625 L 60.734375 60.9375 C 60.734375 61.195312 60.640625 61.417969 60.460938 61.601562 C 60.277344 61.785156 60.058594 61.875 59.800781 61.875 Z M 59.800781 61.875 " fill-opacity="1" fill-rule="nonzero"/></g><path fill="#000000" d="M 55.132812 52.5 L 52.34375 52.5 C 52.085938 52.5 51.867188 52.410156 51.683594 52.226562 C 51.503906 52.042969 51.410156 51.820312 51.410156 51.5625 L 51.410156 10.3125 C 51.410156 10.054688 51.503906 9.832031 51.683594 9.648438 C 51.867188 9.464844 52.085938 9.375 52.34375 9.375 L 55.132812 9.375 C 55.390625 9.375 55.609375 9.464844 55.792969 9.648438 C 55.972656 9.832031 56.066406 10.054688 56.066406 10.3125 L 56.066406 51.5625 C 56.066406 51.820312 55.972656 52.042969 55.792969 52.226562 C 55.609375 52.410156 55.390625 52.5 55.132812 52.5 Z M 53.277344 50.625 L 54.199219 50.625 L 54.199219 11.25 L 53.277344 11.25 Z M 53.277344 50.625 " fill-opacity="1" fill-rule="nonzero"/></svg>