<svg xmlns="http://www.w3.org/2000/svg" xmlns:xlink="http://www.w3.org/1999/xlink" width="100" zoomAndPan="magnify" viewBox="0 0 75 74.999997" height="100" preserveAspectRatio="xMidYMid meet" version="1.0"><defs><clipPath id="bd16d907f5"><path d="M 8 17.195312 L 67.214844 17.195312 L 67.214844 57.695312 L 8 57.695312 Z M 8 17.195312 " clip-rule="nonzero"/></clipPath></defs><g clip-path="url(#bd16d907f5)"><path fill="#000000" d="M 62.527344 26.46875 L 51.441406 26.46875 L 51.441406 23.714844 L 56.894531 23.714844 C 56.894531 23.714844 61.417969 24.632812 61.417969 24.632812 C 61.972656 24.722656 62.527344 24.3125 62.527344 23.714844 C 62.527344 23.714844 62.527344 18.203125 62.527344 18.203125 C 62.527344 17.652344 61.972656 17.195312 61.417969 17.285156 L 56.894531 18.203125 L 28.8125 18.203125 C 27.289062 18.203125 26.042969 19.445312 26.042969 20.957031 C 26.042969 22.472656 27.289062 23.714844 28.8125 23.714844 L 40.359375 23.714844 L 40.359375 26.46875 L 29.273438 26.46875 C 26.734375 26.46875 24.65625 28.535156 24.65625 31.0625 L 24.65625 34.734375 L 17.496094 34.734375 C 17.496094 34.734375 10.753906 31.015625 10.753906 31.015625 C 9.554688 30.371094 8.03125 31.246094 8.03125 32.621094 C 8.03125 32.621094 8.03125 51.496094 8.03125 51.539062 C 8.03125 52.871094 9.601562 53.789062 10.753906 53.148438 L 17.496094 49.429688 L 24.65625 49.429688 L 24.65625 53.101562 C 24.65625 55.628906 26.734375 57.695312 29.273438 57.695312 L 62.527344 57.695312 C 65.066406 57.695312 67.144531 55.628906 67.144531 53.101562 L 67.144531 31.0625 C 67.144531 28.535156 65.066406 26.46875 62.527344 26.46875 Z M 57.910156 19.855469 L 60.679688 19.304688 L 60.679688 22.566406 L 57.910156 22.015625 Z M 15.417969 48.464844 L 9.878906 51.539062 L 9.878906 32.621094 L 15.417969 35.699219 Z M 20.039062 47.589844 L 17.265625 47.589844 L 17.265625 36.570312 L 20.039062 36.570312 Z M 24.65625 47.589844 L 21.886719 47.589844 L 21.886719 36.570312 L 24.65625 36.570312 Z M 35.277344 21.878906 L 28.8125 21.878906 C 28.304688 21.878906 27.890625 21.464844 27.890625 20.957031 C 27.890625 20.453125 28.304688 20.039062 28.8125 20.039062 L 35.277344 20.039062 Z M 37.125 21.878906 L 37.125 20.039062 L 56.0625 20.039062 L 56.0625 21.878906 Z M 49.597656 23.714844 L 49.597656 26.46875 L 42.207031 26.46875 L 42.207031 23.714844 Z M 65.296875 53.101562 C 65.296875 54.617188 64.050781 55.855469 62.527344 55.855469 L 29.273438 55.855469 C 27.75 55.855469 26.503906 54.617188 26.503906 53.101562 L 26.503906 31.0625 C 26.503906 29.546875 27.75 28.304688 29.273438 28.304688 L 62.527344 28.304688 C 64.050781 28.304688 65.296875 29.546875 65.296875 31.0625 Z M 65.296875 53.101562 " fill-opacity="1" fill-rule="nonzero"/></g><path fill="#000000" d="M 58.601562 33.816406 L 33.199219 33.816406 C 31.539062 33.816406 30.199219 35.054688 30.199219 36.570312 L 30.199219 51.265625 C 30.199219 52.78125 31.539062 54.019531 33.199219 54.019531 L 58.554688 54.019531 C 60.21875 54.019531 61.558594 52.78125 61.558594 51.265625 L 61.558594 36.570312 C 61.605469 35.054688 60.265625 33.816406 58.601562 33.816406 Z M 59.757812 51.265625 C 59.757812 51.769531 59.203125 52.183594 58.601562 52.183594 L 33.199219 52.183594 C 32.554688 52.183594 32.046875 51.769531 32.046875 51.265625 L 32.046875 36.570312 C 32.046875 36.066406 32.601562 35.652344 33.199219 35.652344 L 58.554688 35.652344 C 59.203125 35.652344 59.710938 36.066406 59.710938 36.570312 L 59.710938 51.265625 Z M 59.757812 51.265625 " fill-opacity="1" fill-rule="nonzero"/><path fill="#000000" d="M 30.199219 31.613281 C 30.199219 31.867188 30.109375 32.082031 29.929688 32.261719 C 29.746094 32.441406 29.53125 32.53125 29.273438 32.53125 C 29.019531 32.53125 28.800781 32.441406 28.621094 32.261719 C 28.441406 32.082031 28.351562 31.867188 28.351562 31.613281 C 28.351562 31.359375 28.441406 31.140625 28.621094 30.960938 C 28.800781 30.78125 29.019531 30.695312 29.273438 30.695312 C 29.53125 30.695312 29.746094 30.78125 29.929688 30.960938 C 30.109375 31.140625 30.199219 31.359375 30.199219 31.613281 Z M 30.199219 31.613281 " fill-opacity="1" fill-rule="nonzero"/><path fill="#000000" d="M 51.441406 31.980469 L 55.136719 31.980469 C 55.644531 31.980469 56.0625 31.566406 56.0625 31.0625 C 56.0625 30.554688 55.644531 30.140625 55.136719 30.140625 L 51.441406 30.140625 C 50.933594 30.140625 50.519531 30.554688 50.519531 31.0625 C 50.519531 31.566406 50.933594 31.980469 51.441406 31.980469 Z M 51.441406 31.980469 " fill-opacity="1" fill-rule="nonzero"/><path fill="#000000" d="M 62.527344 30.140625 L 58.832031 30.140625 C 58.324219 30.140625 57.910156 30.554688 57.910156 31.0625 C 57.910156 31.566406 58.324219 31.980469 58.832031 31.980469 L 62.527344 31.980469 C 63.035156 31.980469 63.453125 31.566406 63.453125 31.0625 C 63.453125 30.554688 63.035156 30.140625 62.527344 30.140625 Z M 62.527344 30.140625 " fill-opacity="1" fill-rule="nonzero"/></svg>