<svg xmlns="http://www.w3.org/2000/svg" xmlns:xlink="http://www.w3.org/1999/xlink" width="100" zoomAndPan="magnify" viewBox="0 0 75 74.999997" height="100" preserveAspectRatio="xMidYMid meet" version="1.0"><defs><clipPath id="c3cdf14242"><path d="M 11.550781 17 L 63.300781 17 L 63.300781 63.300781 L 11.550781 63.300781 Z M 11.550781 17 " clip-rule="nonzero"/></clipPath><clipPath id="369b47e1f8"><path d="M 26 11.550781 L 50 11.550781 L 50 33 L 26 33 Z M 26 11.550781 " clip-rule="nonzero"/></clipPath></defs><g clip-path="url(#c3cdf14242)"><path fill="#000000" d="M 62.914062 59.046875 L 58.878906 48.957031 C 58.765625 48.675781 58.617188 48.425781 58.4375 48.195312 C 58.96875 47.601562 59.300781 46.828125 59.300781 45.96875 L 59.300781 20.703125 C 59.300781 18.855469 57.792969 17.34375 55.945312 17.34375 L 48.90625 17.34375 L 46.414062 19.648438 L 55.945312 19.648438 C 56.523438 19.648438 56.996094 20.125 56.996094 20.703125 L 56.996094 45.96875 C 56.996094 46.542969 56.53125 47.015625 55.960938 47.027344 L 18.894531 47.027344 C 18.320312 47.015625 17.855469 46.542969 17.855469 45.96875 L 17.855469 20.703125 C 17.855469 20.125 18.328125 19.648438 18.914062 19.648438 L 37.128906 19.648438 L 39.265625 17.34375 L 18.914062 17.34375 C 17.058594 17.34375 15.546875 18.855469 15.546875 20.703125 L 15.546875 45.96875 C 15.546875 46.828125 15.882812 47.601562 16.414062 48.195312 C 16.234375 48.421875 16.085938 48.675781 15.972656 48.957031 L 11.9375 59.046875 C 11.558594 59.996094 11.671875 61.066406 12.246094 61.910156 C 12.816406 62.753906 13.765625 63.257812 14.785156 63.257812 L 60.0625 63.257812 C 61.082031 63.257812 62.035156 62.753906 62.605469 61.910156 C 63.175781 61.066406 63.292969 59.996094 62.914062 59.046875 Z M 60.699219 60.617188 C 60.632812 60.71875 60.429688 60.957031 60.0625 60.957031 L 14.785156 60.957031 C 14.417969 60.957031 14.21875 60.71875 14.152344 60.617188 C 14.082031 60.519531 13.9375 60.246094 14.074219 59.902344 L 18.109375 49.8125 C 18.226562 49.519531 18.507812 49.328125 18.824219 49.328125 L 56.027344 49.328125 C 56.34375 49.328125 56.621094 49.519531 56.738281 49.808594 L 60.777344 59.902344 C 60.914062 60.246094 60.769531 60.519531 60.699219 60.617188 Z M 60.699219 60.617188 " fill-opacity="1" fill-rule="nonzero"/></g><path fill="#000000" d="M 41.773438 54.496094 L 33.074219 54.496094 C 32.800781 54.496094 32.5625 54.691406 32.511719 54.960938 L 31.742188 58.992188 C 31.710938 59.160156 31.757812 59.335938 31.867188 59.46875 C 31.972656 59.597656 32.136719 59.675781 32.308594 59.675781 L 42.542969 59.675781 C 42.714844 59.675781 42.875 59.597656 42.984375 59.46875 C 43.09375 59.335938 43.140625 59.160156 43.105469 58.992188 L 42.339844 54.960938 C 42.289062 54.691406 42.050781 54.496094 41.773438 54.496094 Z M 33.003906 58.523438 L 33.550781 55.644531 L 41.296875 55.644531 L 41.847656 58.523438 Z M 33.003906 58.523438 " fill-opacity="1" fill-rule="nonzero"/><path fill="#000000" d="M 46.769531 27.949219 C 46.054688 27.175781 45.082031 26.742188 44.027344 26.710938 C 42.992188 26.679688 41.988281 27.058594 41.226562 27.773438 C 40.460938 28.496094 40.019531 29.460938 39.988281 30.511719 C 39.980469 31.042969 39.867188 31.5625 39.675781 32.0625 C 39.59375 32.277344 39.441406 32.550781 39.3125 32.777344 C 39.167969 33.003906 39 33.257812 38.789062 33.476562 C 38.050781 34.351562 36.933594 34.96875 35.746094 35.171875 C 34.445312 35.378906 33.070312 35.125 31.96875 34.472656 C 31.617188 34.269531 31.277344 34.03125 30.964844 33.75 C 30.742188 33.773438 30.507812 33.78125 30.265625 33.789062 L 30.113281 33.796875 C 29.777344 33.796875 29.0625 33.765625 28.242188 33.539062 C 28.941406 34.640625 29.890625 35.539062 30.988281 36.167969 C 32.46875 37.027344 34.308594 37.371094 36.058594 37.097656 C 37.722656 36.816406 39.226562 35.984375 40.253906 34.777344 C 40.550781 34.457031 40.765625 34.117188 40.976562 33.789062 C 41.160156 33.476562 41.363281 33.113281 41.492188 32.761719 C 41.761719 32.0625 41.917969 31.332031 41.941406 30.566406 C 41.957031 30.046875 42.171875 29.554688 42.558594 29.195312 C 42.945312 28.839844 43.441406 28.648438 43.972656 28.664062 C 44.503906 28.671875 44.984375 28.898438 45.355469 29.28125 C 45.707031 29.667969 45.902344 30.167969 45.886719 30.695312 C 45.875 30.816406 45.867188 30.9375 45.835938 31.042969 L 45.804688 31.242188 C 45.539062 32.40625 45.097656 33.484375 44.472656 34.464844 C 44.148438 34.996094 43.78125 35.429688 43.449219 35.804688 C 43.007812 36.304688 42.613281 36.671875 42.207031 36.980469 C 40.519531 38.34375 38.300781 39.117188 36.132812 39.082031 C 33.976562 39.042969 31.9375 38.304688 30.371094 36.988281 C 29.214844 36.03125 28.339844 34.800781 27.832031 33.410156 C 27.109375 33.148438 26.363281 32.738281 25.765625 32.046875 C 25.648438 31.917969 25.550781 31.773438 25.476562 31.621094 C 25.421875 31.871094 25.429688 32.132812 25.476562 32.382812 C 25.953125 34.769531 27.246094 36.9375 29.125 38.480469 C 31.015625 40.082031 33.496094 40.988281 36.097656 41.035156 L 36.253906 41.035156 C 38.855469 41.035156 41.394531 40.144531 43.417969 38.511719 C 43.902344 38.144531 44.367188 37.710938 44.914062 37.109375 C 45.289062 36.671875 45.730469 36.144531 46.125 35.507812 C 46.863281 34.34375 47.394531 33.050781 47.699219 31.667969 L 47.75 31.46875 C 47.796875 31.234375 47.828125 30.992188 47.835938 30.753906 C 47.871094 29.699219 47.492188 28.710938 46.769531 27.949219 Z M 46.769531 27.949219 " fill-opacity="1" fill-rule="nonzero"/><g clip-path="url(#369b47e1f8)"><path fill="#000000" d="M 48.652344 12.46875 C 47.699219 11.585938 46.203125 11.640625 45.316406 12.59375 L 33.589844 25.238281 C 30.445312 25.296875 28.800781 27.691406 28.320312 29.105469 C 28.226562 29.25 28.011719 29.496094 27.503906 29.496094 C 27.5 29.496094 27.492188 29.496094 27.488281 29.496094 C 27.054688 29.507812 26.691406 29.734375 26.515625 30.109375 C 26.339844 30.492188 26.402344 30.941406 26.675781 31.257812 C 27.746094 32.496094 29.589844 32.589844 30.113281 32.589844 C 30.171875 32.589844 30.214844 32.589844 30.238281 32.589844 C 32.152344 32.546875 33.652344 31.964844 34.695312 30.859375 C 35.796875 29.691406 36.066406 28.265625 36.128906 27.546875 L 48.652344 15.929688 C 48.695312 15.890625 48.738281 15.847656 48.78125 15.804688 C 49.207031 15.34375 49.429688 14.742188 49.40625 14.109375 C 49.382812 13.480469 49.117188 12.898438 48.652344 12.46875 Z M 30.191406 30.898438 C 29.957031 30.90625 29.492188 30.875 29.023438 30.75 C 29.351562 30.53125 29.625 30.238281 29.832031 29.875 L 29.902344 29.707031 C 29.9375 29.597656 30.703125 27.234375 33.222656 26.957031 C 33.296875 27.183594 33.414062 27.394531 33.582031 27.574219 C 33.789062 27.800781 34.050781 27.953125 34.335938 28.042969 C 34.214844 28.542969 33.96875 29.167969 33.46875 29.695312 C 32.746094 30.460938 31.644531 30.867188 30.191406 30.898438 Z M 47.503906 14.691406 L 35.285156 25.96875 L 35.25 25.9375 L 46.558594 13.742188 C 46.6875 13.601562 46.867188 13.53125 47.046875 13.53125 C 47.210938 13.53125 47.375 13.589844 47.503906 13.707031 C 47.636719 13.832031 47.710938 13.996094 47.71875 14.175781 C 47.726562 14.355469 47.660156 14.523438 47.503906 14.691406 Z M 47.503906 14.691406 " fill-opacity="1" fill-rule="nonzero"/></g></svg>