<svg xmlns="http://www.w3.org/2000/svg" xmlns:xlink="http://www.w3.org/1999/xlink" width="100" zoomAndPan="magnify" viewBox="0 0 75 74.999997" height="100" preserveAspectRatio="xMidYMid meet" version="1.0"><defs><clipPath id="1327e8024f"><path d="M 14.625 7.5 L 60.375 7.5 L 60.375 66.75 L 14.625 66.75 Z M 14.625 7.5 " clip-rule="nonzero"/></clipPath></defs><g clip-path="url(#1327e8024f)"><path fill="#000000" d="M 34.609375 53.109375 L 34.609375 59.453125 L 25.410156 59.453125 C 25.171875 59.441406 24.9375 59.453125 24.703125 59.488281 C 24.46875 59.523438 24.242188 59.582031 24.019531 59.664062 C 23.796875 59.746094 23.585938 59.847656 23.382812 59.976562 C 23.183594 60.101562 22.996094 60.246094 22.824219 60.410156 C 22.652344 60.574219 22.496094 60.753906 22.363281 60.945312 C 22.226562 61.140625 22.113281 61.347656 22.019531 61.566406 C 21.925781 61.785156 21.855469 62.011719 21.808594 62.246094 C 21.757812 62.480469 21.734375 62.714844 21.734375 62.953125 C 21.734375 63.191406 21.757812 63.425781 21.808594 63.660156 C 21.855469 63.894531 21.925781 64.117188 22.019531 64.335938 C 22.113281 64.554688 22.226562 64.761719 22.363281 64.957031 C 22.496094 65.152344 22.652344 65.332031 22.824219 65.496094 C 22.996094 65.660156 23.183594 65.804688 23.382812 65.929688 C 23.585938 66.058594 23.796875 66.160156 24.019531 66.242188 C 24.242188 66.324219 24.46875 66.382812 24.703125 66.417969 C 24.9375 66.453125 25.171875 66.464844 25.410156 66.453125 L 49.59375 66.453125 C 49.832031 66.464844 50.066406 66.453125 50.300781 66.417969 C 50.535156 66.382812 50.761719 66.324219 50.984375 66.242188 C 51.207031 66.160156 51.417969 66.058594 51.621094 65.929688 C 51.820312 65.804688 52.007812 65.660156 52.179688 65.496094 C 52.351562 65.332031 52.503906 65.152344 52.640625 64.957031 C 52.777344 64.761719 52.890625 64.554688 52.984375 64.335938 C 53.078125 64.117188 53.148438 63.894531 53.195312 63.660156 C 53.246094 63.425781 53.269531 63.191406 53.269531 62.953125 C 53.269531 62.714844 53.246094 62.480469 53.195312 62.246094 C 53.148438 62.011719 53.078125 61.785156 52.984375 61.566406 C 52.890625 61.347656 52.777344 61.140625 52.640625 60.945312 C 52.503906 60.753906 52.351562 60.574219 52.179688 60.410156 C 52.007812 60.246094 51.820312 60.101562 51.621094 59.976562 C 51.417969 59.847656 51.207031 59.746094 50.984375 59.664062 C 50.761719 59.582031 50.535156 59.523438 50.300781 59.488281 C 50.066406 59.453125 49.832031 59.441406 49.59375 59.453125 L 40.425781 59.453125 L 40.425781 53.109375 C 51.117188 51.539062 59.632812 41.441406 60.347656 28.796875 C 60.375 28.085938 60.152344 27.46875 59.671875 26.945312 C 59.324219 26.570312 58.90625 26.324219 58.414062 26.203125 C 57.921875 26.082031 57.433594 26.105469 56.957031 26.277344 C 56.480469 26.449219 56.085938 26.742188 55.78125 27.148438 C 55.476562 27.554688 55.308594 28.015625 55.277344 28.523438 C 55.277344 28.867188 55.21875 29.214844 55.175781 29.539062 L 54.308594 29.539062 C 54.410156 28.71875 54.464844 27.898438 54.472656 27.074219 C 54.421875 16.386719 46.832031 7.695312 37.5 7.695312 C 28.171875 7.695312 20.582031 16.386719 20.582031 27.074219 C 20.585938 27.894531 20.636719 28.710938 20.734375 29.527344 L 19.878906 29.527344 C 19.878906 29.171875 19.796875 28.816406 19.777344 28.464844 C 19.753906 28.125 19.667969 27.800781 19.519531 27.496094 C 19.371094 27.191406 19.167969 26.925781 18.914062 26.703125 C 18.660156 26.480469 18.371094 26.3125 18.050781 26.203125 C 17.730469 26.09375 17.402344 26.050781 17.066406 26.074219 C 16.726562 26.09375 16.40625 26.179688 16.105469 26.332031 C 15.800781 26.480469 15.539062 26.683594 15.316406 26.941406 C 15.09375 27.195312 14.925781 27.484375 14.816406 27.804688 C 14.707031 28.128906 14.664062 28.457031 14.6875 28.796875 C 15.402344 41.441406 23.917969 51.539062 34.609375 53.109375 Z M 51.105469 62.949219 C 51.105469 63.152344 51.066406 63.34375 50.988281 63.53125 C 50.914062 63.71875 50.804688 63.886719 50.664062 64.03125 C 50.519531 64.175781 50.359375 64.289062 50.171875 64.367188 C 49.988281 64.449219 49.796875 64.492188 49.59375 64.496094 L 25.410156 64.496094 C 25.183594 64.542969 24.957031 64.539062 24.734375 64.484375 C 24.507812 64.425781 24.308594 64.324219 24.128906 64.175781 C 23.949219 64.03125 23.8125 63.851562 23.710938 63.640625 C 23.613281 63.433594 23.5625 63.210938 23.5625 62.976562 C 23.5625 62.746094 23.613281 62.523438 23.710938 62.316406 C 23.8125 62.105469 23.949219 61.925781 24.128906 61.777344 C 24.308594 61.632812 24.507812 61.53125 24.734375 61.472656 C 24.957031 61.417969 25.183594 61.414062 25.410156 61.457031 L 49.59375 61.457031 C 49.792969 61.460938 49.980469 61.503906 50.160156 61.578125 C 50.34375 61.65625 50.503906 61.761719 50.644531 61.902344 C 50.785156 62.039062 50.894531 62.199219 50.976562 62.378906 C 51.054688 62.5625 51.097656 62.75 51.105469 62.949219 Z M 38.449219 59.453125 L 36.554688 59.453125 L 36.554688 53.285156 L 38.449219 53.285156 Z M 37.5 9.652344 C 45.753906 9.652344 52.464844 17.472656 52.464844 27.074219 C 52.464844 36.679688 45.753906 44.5 37.5 44.5 C 29.25 44.5 22.539062 36.679688 22.539062 27.074219 C 22.539062 17.472656 29.25 9.652344 37.5 9.652344 Z M 21.046875 31.472656 C 22.789062 40.042969 29.5 46.457031 37.5 46.457031 C 45.503906 46.457031 52.195312 40.113281 53.957031 31.503906 L 54.84375 31.503906 C 53.089844 40.824219 45.9375 47.710938 37.5 47.710938 C 29.066406 47.710938 21.921875 40.792969 20.160156 31.503906 Z M 16.792969 28.242188 C 16.914062 28.117188 17.0625 28.054688 17.238281 28.058594 C 17.390625 28.050781 17.523438 28.101562 17.636719 28.207031 C 17.753906 28.3125 17.8125 28.441406 17.820312 28.59375 C 17.820312 29.261719 17.933594 29.921875 18.023438 30.570312 C 19.503906 41.449219 27.746094 49.6875 37.5 49.6875 C 47.851562 49.6875 56.496094 40.425781 57.183594 28.59375 C 57.191406 28.441406 57.25 28.3125 57.363281 28.207031 C 57.480469 28.101562 57.613281 28.050781 57.765625 28.058594 C 57.941406 28.054688 58.089844 28.117188 58.210938 28.242188 C 58.328125 28.375 58.378906 28.527344 58.371094 28.707031 C 57.65625 40.660156 49.535156 50.183594 39.425781 51.257812 C 38.785156 51.328125 38.144531 51.367188 37.5 51.367188 C 36.863281 51.367188 36.222656 51.328125 35.585938 51.257812 C 25.46875 50.183594 17.347656 40.660156 16.632812 28.707031 C 16.625 28.527344 16.675781 28.375 16.792969 28.242188 Z M 16.792969 28.242188 " fill-opacity="1" fill-rule="nonzero"/></g><path fill="#000000" d="M 41.53125 34.796875 C 41.730469 35.027344 41.984375 35.144531 42.289062 35.148438 C 42.519531 35.152344 42.726562 35.078125 42.902344 34.925781 C 43.101562 34.75 43.21875 34.53125 43.246094 34.265625 C 43.273438 34 43.203125 33.761719 43.042969 33.550781 L 31.144531 18.910156 C 31.078125 18.769531 30.984375 18.648438 30.863281 18.550781 C 30.742188 18.453125 30.605469 18.386719 30.453125 18.355469 C 30.300781 18.320312 30.152344 18.320312 30 18.355469 C 29.847656 18.394531 29.714844 18.460938 29.59375 18.558594 C 29.472656 18.65625 29.378906 18.777344 29.316406 18.921875 C 29.25 19.0625 29.21875 19.210938 29.222656 19.367188 C 29.226562 19.523438 29.265625 19.671875 29.335938 19.808594 C 29.410156 19.949219 29.507812 20.0625 29.632812 20.15625 Z M 41.53125 34.796875 " fill-opacity="1" fill-rule="nonzero"/><path fill="#000000" d="M 41.007812 26.84375 C 41.183594 27.042969 41.402344 27.160156 41.664062 27.1875 C 41.929688 27.214844 42.167969 27.144531 42.378906 26.984375 C 42.582031 26.8125 42.699219 26.59375 42.730469 26.328125 C 42.761719 26.0625 42.699219 25.820312 42.539062 25.605469 L 34.71875 15.992188 C 34.65625 15.847656 34.5625 15.726562 34.441406 15.628906 C 34.324219 15.527344 34.1875 15.460938 34.035156 15.421875 C 33.882812 15.386719 33.730469 15.386719 33.578125 15.421875 C 33.425781 15.457031 33.289062 15.523438 33.167969 15.625 C 33.046875 15.722656 32.953125 15.84375 32.886719 15.988281 C 32.820312 16.128906 32.789062 16.28125 32.792969 16.4375 C 32.800781 16.59375 32.835938 16.742188 32.910156 16.882812 C 32.984375 17.019531 33.082031 17.136719 33.207031 17.226562 Z M 41.007812 26.84375 " fill-opacity="1" fill-rule="nonzero"/></svg>