<svg xmlns="http://www.w3.org/2000/svg" xmlns:xlink="http://www.w3.org/1999/xlink" width="100" zoomAndPan="magnify" viewBox="0 0 75 74.999997" height="100" preserveAspectRatio="xMidYMid meet" version="1.0"><defs><clipPath id="05023f84c6"><path d="M 8 10.582031 L 67.085938 10.582031 L 67.085938 64.582031 L 8 64.582031 Z M 8 10.582031 " clip-rule="nonzero"/></clipPath></defs><g clip-path="url(#05023f84c6)"><path fill="#000000" d="M 61.328125 42.707031 L 57.484375 47.414062 C 57.1875 47.773438 56.65625 47.824219 56.308594 47.523438 L 53.425781 45.066406 C 53.074219 44.769531 53.03125 44.246094 53.332031 43.894531 C 53.625 43.542969 54.148438 43.5 54.5 43.796875 L 56.738281 45.703125 L 60.050781 41.648438 C 60.335938 41.292969 60.859375 41.242188 61.210938 41.53125 C 61.570312 41.824219 61.621094 42.351562 61.328125 42.707031 Z M 61.328125 32.007812 L 57.484375 36.714844 C 57.1875 37.074219 56.65625 37.125 56.308594 36.824219 L 53.425781 34.371094 C 53.074219 34.074219 53.03125 33.546875 53.332031 33.195312 C 53.625 32.84375 54.148438 32.800781 54.5 33.097656 L 56.738281 35.003906 L 60.050781 30.949219 C 60.335938 30.59375 60.859375 30.542969 61.210938 30.835938 C 61.570312 31.128906 61.621094 31.652344 61.328125 32.007812 Z M 53.332031 22.496094 C 53.625 22.148438 54.148438 22.101562 54.5 22.402344 L 56.738281 24.308594 L 60.050781 20.253906 C 60.335938 19.898438 60.859375 19.847656 61.210938 20.136719 C 61.570312 20.429688 61.621094 20.953125 61.328125 21.3125 L 57.484375 26.019531 C 57.1875 26.375 56.65625 26.429688 56.308594 26.125 L 53.425781 23.671875 C 53.074219 23.375 53.03125 22.847656 53.332031 22.496094 Z M 65.421875 53.25 L 65.421875 14.417969 C 65.421875 13.226562 64.453125 12.261719 63.269531 12.261719 L 45.738281 12.261719 L 45.738281 19.480469 C 45.738281 21.589844 44.03125 23.300781 41.929688 23.300781 L 34.742188 23.300781 L 34.742188 35.320312 C 38.25 32.773438 41.964844 32.648438 45.003906 35.089844 C 46.734375 36.476562 47.800781 38.234375 48.183594 40.304688 C 48.683594 43.054688 47.824219 45.875 45.867188 47.839844 L 38.328125 55.40625 L 63.269531 55.40625 C 64.453125 55.40625 65.421875 54.441406 65.421875 53.25 Z M 33.46875 57.933594 L 30.640625 55.097656 L 31 54.734375 C 33.742188 51.976562 33.734375 47.5 31 44.753906 C 27.90625 41.648438 24.125 42.203125 20.976562 44.902344 C 20.257812 43.460938 20.070312 41.789062 20.464844 40.191406 C 20.910156 38.398438 21.835938 37.109375 23.476562 36.007812 C 27.4375 33.355469 31.375 36.59375 32.878906 38.105469 C 33.195312 38.429688 33.726562 38.433594 34.046875 38.105469 C 35.660156 36.488281 39.847656 33.082031 43.964844 36.390625 C 45.378906 37.523438 46.246094 38.941406 46.554688 40.605469 C 46.957031 42.820312 46.261719 45.082031 44.691406 46.660156 Z M 20.789062 62.636719 L 29.832031 53.554688 C 31.917969 51.457031 31.914062 48.027344 29.832031 45.933594 C 27.109375 43.195312 23.953125 44.21875 21.378906 46.800781 L 21.261719 46.898438 C 21.261719 46.898438 21.253906 46.898438 21.253906 46.902344 C 21.105469 46.984375 21.019531 47.035156 20.832031 47.042969 C 20.542969 47.058594 20.398438 46.957031 20.207031 46.808594 C 20.207031 46.804688 20.199219 46.804688 20.199219 46.800781 C 18.839844 45.429688 17.382812 44.589844 15.992188 44.367188 C 14.429688 44.121094 13.007812 44.667969 11.746094 45.933594 C 9.660156 48.027344 9.660156 51.464844 11.746094 53.554688 Z M 44.082031 13.441406 L 44.082031 19.480469 C 44.082031 20.667969 43.113281 21.636719 41.929688 21.636719 L 35.917969 21.636719 Z M 63.269531 10.59375 L 44.90625 10.59375 C 44.691406 10.59375 44.476562 10.683594 44.324219 10.839844 L 33.324219 21.878906 C 33.171875 22.035156 33.085938 22.246094 33.085938 22.46875 L 33.085938 36.03125 C 29.960938 33.367188 26.082031 32.261719 22.558594 34.621094 C 20.574219 35.949219 19.398438 37.59375 18.851562 39.789062 C 18.539062 41.066406 18.53125 42.378906 18.796875 43.632812 C 15.96875 42.070312 13.015625 42.300781 10.570312 44.757812 C 7.832031 47.503906 7.835938 51.988281 10.570312 54.734375 L 19.863281 64.0625 C 20.371094 64.578125 21.199219 64.578125 21.714844 64.0625 L 29.464844 56.277344 L 32.464844 59.28125 C 33.015625 59.839844 33.910156 59.839844 34.464844 59.28125 L 36.671875 57.066406 C 36.746094 57.070312 36.816406 57.074219 36.886719 57.074219 L 63.269531 57.074219 C 65.371094 57.074219 67.078125 55.359375 67.078125 53.25 L 67.078125 14.417969 C 67.078125 12.308594 65.371094 10.59375 63.269531 10.59375 Z M 63.269531 10.59375 " fill-opacity="1" fill-rule="evenodd"/></g></svg>