<svg xmlns="http://www.w3.org/2000/svg" xmlns:xlink="http://www.w3.org/1999/xlink" width="100" zoomAndPan="magnify" viewBox="0 0 75 74.999997" height="100" preserveAspectRatio="xMidYMid meet" version="1.0"><defs><clipPath id="9f1f285acc"><path d="M 9.601562 9.773438 L 54 9.773438 L 54 65.273438 L 9.601562 65.273438 Z M 9.601562 9.773438 " clip-rule="nonzero"/></clipPath></defs><path fill="#000000" d="M 40.921875 18.238281 C 39.5 16.785156 36.996094 16.605469 35.386719 17.855469 C 33.773438 16.601562 31.269531 16.789062 29.847656 18.238281 C 27.246094 15.574219 22.472656 17.589844 22.550781 21.335938 C 22.324219 25.324219 27.28125 28.902344 29.519531 29.769531 C 30.234375 30.1875 33.761719 27.886719 35.390625 25.894531 C 37.015625 27.898438 40.539062 30.183594 41.25 29.769531 C 43.464844 28.921875 48.476562 25.296875 48.21875 21.335938 C 48.296875 17.578125 43.523438 15.582031 40.921875 18.238281 Z M 34.679688 23.992188 C 33.875 25.617188 30.84375 27.664062 29.847656 28.066406 C 27.921875 27.125 24.171875 24.601562 24.222656 21.335938 C 24.203125 18.679688 27.820312 17.691406 29.125 20.011719 C 29.417969 20.570312 30.277344 20.570312 30.574219 20.011719 C 31.378906 18.507812 33.648438 18.242188 34.769531 19.539062 C 35.921875 20.761719 35.515625 22.636719 34.679688 23.992188 Z M 44.410156 25.648438 C 43.109375 26.90625 41.582031 27.738281 40.921875 28.066406 C 40.050781 27.71875 37.25 25.867188 36.355469 24.402344 C 37.21875 22.769531 37.515625 20.71875 36.53125 19.113281 C 37.730469 18.300781 39.503906 18.734375 40.195312 20.011719 C 40.496094 20.535156 41.347656 20.535156 41.644531 20.011719 C 42.949219 17.703125 46.566406 18.664062 46.550781 21.335938 C 46.550781 23.214844 45.390625 24.714844 44.410156 25.648438 Z M 44.410156 25.648438 " fill-opacity="1" fill-rule="nonzero"/><path fill="#000000" d="M 44.644531 40.730469 C 44.480469 40.566406 44.28125 40.484375 44.050781 40.484375 C 43.820312 40.484375 43.621094 40.566406 43.457031 40.730469 L 41.792969 42.421875 C 41.425781 42.6875 41.492188 44.199219 41.40625 44.621094 C 39.226562 43.21875 36.246094 42.980469 33.863281 44.039062 C 28.570312 41.648438 22.238281 45.917969 22.359375 51.777344 C 22.238281 57.636719 28.570312 61.910156 33.863281 59.519531 C 41.242188 62.699219 48.34375 54.183594 44.117188 47.367188 C 45.601562 47.1875 45.957031 47.335938 46.3125 46.972656 L 47.976562 45.285156 C 48.140625 45.121094 48.21875 44.921875 48.21875 44.691406 C 48.21875 44.460938 48.136719 44.261719 47.976562 44.097656 Z M 24.03125 51.777344 C 23.984375 47.609375 27.914062 44.332031 31.953125 45.191406 C 27.742188 48.367188 27.742188 55.191406 31.953125 58.367188 C 27.914062 59.226562 23.984375 55.949219 24.03125 51.777344 Z M 33.863281 57.640625 C 29.328125 55.191406 29.332031 48.363281 33.863281 45.914062 C 38.382812 48.367188 38.382812 55.1875 33.863281 57.640625 Z M 35.773438 58.363281 C 39.972656 55.1875 39.96875 48.367188 35.773438 45.191406 C 38.117188 44.699219 40.582031 45.640625 41.875 47.179688 C 46.175781 51.617188 42.269531 59.65625 35.773438 58.363281 Z M 45.339844 45.570312 L 42.980469 45.78125 L 43.191406 43.390625 L 44.054688 42.515625 L 46.207031 44.691406 Z M 45.339844 45.570312 " fill-opacity="1" fill-rule="nonzero"/><g clip-path="url(#9f1f285acc)"><path fill="#000000" d="M 13.007812 65.265625 C 15.277344 65.261719 46.675781 65.265625 49.929688 65.265625 C 50.378906 65.265625 50.808594 65.179688 51.222656 65.003906 C 51.636719 64.832031 52.003906 64.585938 52.320312 64.265625 C 52.636719 63.949219 52.882812 63.582031 53.054688 63.164062 C 53.226562 62.746094 53.3125 62.3125 53.3125 61.863281 C 53.292969 49.730469 53.328125 25.25 53.3125 13.175781 C 53.3125 12.722656 53.226562 12.289062 53.054688 11.875 C 52.882812 11.457031 52.636719 11.089844 52.320312 10.769531 C 52.003906 10.453125 51.636719 10.207031 51.222656 10.03125 C 50.808594 9.859375 50.378906 9.773438 49.929688 9.773438 C 46.527344 9.769531 15.421875 9.773438 13.007812 9.773438 C 12.5625 9.773438 12.128906 9.859375 11.714844 10.03125 C 11.300781 10.207031 10.9375 10.453125 10.617188 10.769531 C 10.300781 11.089844 10.058594 11.457031 9.886719 11.875 C 9.714844 12.289062 9.628906 12.722656 9.628906 13.175781 L 9.628906 61.863281 C 9.628906 62.3125 9.714844 62.746094 9.886719 63.164062 C 10.058594 63.582031 10.300781 63.949219 10.617188 64.265625 C 10.9375 64.585938 11.300781 64.832031 11.714844 65.003906 C 12.128906 65.179688 12.5625 65.265625 13.007812 65.265625 Z M 18.9375 11.453125 L 49.929688 11.453125 C 50.15625 11.453125 50.375 11.496094 50.585938 11.585938 C 50.792969 11.671875 50.980469 11.796875 51.140625 11.957031 C 51.300781 12.121094 51.425781 12.304688 51.511719 12.515625 C 51.597656 12.726562 51.640625 12.949219 51.640625 13.175781 L 51.640625 35.398438 L 18.9375 35.398438 Z M 18.9375 37.078125 L 51.640625 37.078125 L 51.640625 61.863281 C 51.640625 62.089844 51.597656 62.308594 51.511719 62.519531 C 51.425781 62.730469 51.300781 62.917969 51.140625 63.078125 C 50.980469 63.242188 50.792969 63.363281 50.585938 63.453125 C 50.375 63.539062 50.15625 63.582031 49.929688 63.582031 L 18.9375 63.582031 Z M 11.296875 13.175781 C 11.296875 12.949219 11.34375 12.726562 11.429688 12.515625 C 11.515625 12.304688 11.640625 12.121094 11.800781 11.957031 C 11.960938 11.796875 12.144531 11.671875 12.355469 11.585938 C 12.566406 11.496094 12.78125 11.453125 13.007812 11.453125 L 17.265625 11.453125 L 17.265625 63.582031 L 13.007812 63.582031 C 12.78125 63.582031 12.566406 63.539062 12.355469 63.453125 C 12.144531 63.363281 11.960938 63.242188 11.800781 63.078125 C 11.640625 62.917969 11.515625 62.730469 11.429688 62.519531 C 11.34375 62.308594 11.296875 62.089844 11.296875 61.863281 Z M 11.296875 13.175781 " fill-opacity="1" fill-rule="nonzero"/></g><path fill="#000000" d="M 60.753906 17.460938 C 58.535156 17.460938 56.734375 19.417969 56.734375 21.824219 L 56.734375 55.128906 C 56.734375 55.28125 56.773438 55.421875 56.847656 55.554688 L 60.03125 61.007812 C 60.328125 61.554688 61.175781 61.554688 61.472656 61.007812 C 61.484375 60.914062 65.070312 55.054688 64.769531 55.128906 L 64.769531 21.824219 C 64.769531 19.417969 62.96875 17.460938 60.753906 17.460938 Z M 63.101562 54.898438 L 60.753906 58.921875 L 58.40625 54.898438 L 58.40625 21.824219 C 58.492188 18.285156 63.015625 18.285156 63.101562 21.824219 Z M 63.101562 54.898438 " fill-opacity="1" fill-rule="nonzero"/></svg>