<svg xmlns="http://www.w3.org/2000/svg" xmlns:xlink="http://www.w3.org/1999/xlink" width="100" zoomAndPan="magnify" viewBox="0 0 75 74.999997" height="100" preserveAspectRatio="xMidYMid meet" version="1.0"><defs><clipPath id="fc88a2c2d7"><path d="M 10 10.265625 L 65 10.265625 L 65 65.015625 L 10 65.015625 Z M 10 10.265625 " clip-rule="nonzero"/></clipPath></defs><path fill="#040606" d="M 37.566406 36.695312 C 36.007812 36.015625 29.386719 32.800781 29.386719 27.425781 C 29.386719 25.046875 31.179688 23.109375 33.386719 23.109375 C 34.773438 23.109375 36.042969 23.871094 36.78125 25.140625 C 37.105469 25.703125 38.027344 25.703125 38.351562 25.140625 C 39.089844 23.871094 40.359375 23.109375 41.742188 23.109375 C 43.949219 23.109375 45.742188 25.046875 45.742188 27.425781 C 45.742188 32.800781 39.125 36.015625 37.566406 36.695312 Z M 41.742188 21.289062 C 40.140625 21.289062 38.648438 21.96875 37.566406 23.152344 C 36.484375 21.96875 34.992188 21.289062 33.386719 21.289062 C 30.179688 21.289062 27.570312 24.042969 27.570312 27.425781 C 27.570312 34.742188 36.84375 38.386719 37.242188 38.535156 C 37.34375 38.574219 37.457031 38.597656 37.566406 38.597656 C 37.675781 38.597656 37.785156 38.574219 37.890625 38.535156 C 38.285156 38.386719 47.558594 34.742188 47.558594 27.425781 C 47.558594 24.042969 44.953125 21.289062 41.742188 21.289062 " fill-opacity="1" fill-rule="nonzero"/><g clip-path="url(#fc88a2c2d7)"><path fill="#040606" d="M 12.496094 30.199219 C 12.078125 29.875 12 29.269531 12.324219 28.851562 L 20.027344 18.777344 C 20.136719 18.632812 20.28125 18.523438 20.449219 18.464844 L 37.238281 12.238281 C 37.449219 12.15625 37.683594 12.15625 37.890625 12.238281 L 54.679688 18.464844 C 54.851562 18.523438 54.996094 18.632812 55.105469 18.777344 L 62.808594 28.851562 C 63.128906 29.269531 63.054688 29.875 62.632812 30.199219 C 62.433594 30.355469 62.1875 30.421875 61.929688 30.390625 C 61.679688 30.359375 61.457031 30.226562 61.304688 30.023438 L 53.925781 20.378906 C 53.824219 20.242188 53.683594 20.140625 53.519531 20.078125 L 37.882812 14.28125 C 37.679688 14.203125 37.453125 14.203125 37.25 14.28125 L 21.613281 20.078125 C 21.449219 20.140625 21.308594 20.242188 21.203125 20.378906 L 13.828125 30.023438 C 13.675781 30.226562 13.449219 30.359375 13.199219 30.390625 C 12.941406 30.421875 12.699219 30.355469 12.496094 30.199219 Z M 59.371094 63.195312 L 54.828125 63.195312 L 54.828125 46.542969 C 55.367188 46.226562 55.738281 45.644531 55.738281 44.972656 L 55.738281 43.152344 C 55.738281 42.148438 54.921875 41.328125 53.921875 41.328125 L 21.210938 41.328125 C 20.210938 41.328125 19.394531 42.148438 19.394531 43.152344 L 19.394531 44.972656 C 19.394531 45.644531 19.761719 46.226562 20.300781 46.542969 L 20.300781 63.195312 L 15.757812 63.195312 C 15.257812 63.195312 14.851562 62.785156 14.851562 62.28125 L 14.851562 31.570312 C 15.003906 31.441406 15.144531 31.296875 15.273438 31.132812 L 22.488281 21.699219 L 37.566406 16.105469 L 52.644531 21.699219 L 59.859375 31.132812 C 59.984375 31.296875 60.128906 31.441406 60.28125 31.570312 L 60.28125 62.28125 C 60.28125 62.785156 59.871094 63.195312 59.371094 63.195312 Z M 24.738281 54.996094 L 22.121094 60.242188 L 22.121094 49.742188 Z M 21.210938 44.972656 L 21.210938 43.152344 L 53.921875 43.152344 L 53.925781 44.972656 Z M 50.394531 54.996094 L 53.011719 49.742188 L 53.011719 60.242188 Z M 49.378906 57.035156 L 52.453125 63.195312 L 46.304688 63.195312 Z M 48.363281 54.996094 L 45.742188 60.242188 L 45.742188 49.742188 Z M 46.304688 46.796875 L 52.453125 46.796875 L 49.378906 52.960938 Z M 31.207031 46.796875 L 43.925781 46.796875 L 43.925781 63.195312 L 31.207031 63.195312 Z M 28.828125 63.195312 L 22.679688 63.195312 L 25.753906 57.035156 Z M 25.753906 52.960938 L 22.679688 46.796875 L 28.828125 46.796875 Z M 29.386719 49.742188 L 29.386719 60.242188 L 26.769531 54.996094 Z M 15.757812 65.015625 L 59.371094 65.015625 C 60.878906 65.015625 62.097656 63.792969 62.097656 62.28125 L 62.097656 32.214844 C 62.691406 32.210938 63.265625 32.015625 63.746094 31.640625 C 64.953125 30.707031 65.179688 28.957031 64.25 27.742188 L 56.550781 17.667969 C 56.230469 17.253906 55.804688 16.9375 55.3125 16.753906 L 38.523438 10.53125 C 37.90625 10.300781 37.226562 10.300781 36.609375 10.53125 L 19.820312 16.753906 C 19.328125 16.9375 18.898438 17.253906 18.582031 17.667969 L 10.878906 27.742188 C 9.953125 28.957031 10.179688 30.707031 11.386719 31.640625 C 11.867188 32.015625 12.441406 32.203125 13.035156 32.210938 L 13.035156 62.28125 C 13.035156 63.792969 14.253906 65.015625 15.757812 65.015625 " fill-opacity="1" fill-rule="nonzero"/></g></svg>