<svg xmlns="http://www.w3.org/2000/svg" xmlns:xlink="http://www.w3.org/1999/xlink" width="100" zoomAndPan="magnify" viewBox="0 0 75 74.999997" height="100" preserveAspectRatio="xMidYMid meet" version="1.0"><defs><clipPath id="4fdd6e9fa5"><path d="M 10.699219 10.699219 L 63.949219 10.699219 L 63.949219 63.949219 L 10.699219 63.949219 Z M 10.699219 10.699219 " clip-rule="nonzero"/></clipPath></defs><g clip-path="url(#4fdd6e9fa5)"><path fill="#000000" d="M 63.949219 14.472656 C 63.949219 12.394531 62.253906 10.699219 60.171875 10.699219 C 58.648438 10.699219 57.28125 11.605469 56.691406 13.015625 L 53.296875 21.125 C 52.285156 20.171875 50.964844 19.570312 49.527344 19.570312 L 16.246094 19.570312 C 13.1875 19.570312 10.699219 22.058594 10.699219 25.117188 L 10.699219 58.398438 C 10.699219 61.457031 13.1875 63.945312 16.246094 63.945312 L 49.527344 63.945312 C 52.582031 63.945312 55.074219 61.457031 55.074219 58.398438 L 55.074219 34.113281 L 63.59375 16.140625 C 63.824219 15.644531 63.949219 15.09375 63.949219 14.472656 Z M 52.855469 58.398438 C 52.855469 60.234375 51.359375 61.726562 49.527344 61.726562 L 16.246094 61.726562 C 14.410156 61.726562 12.917969 60.234375 12.917969 58.398438 L 12.917969 25.117188 C 12.917969 23.28125 14.410156 21.789062 16.246094 21.789062 L 49.527344 21.789062 C 50.695312 21.789062 51.742188 22.421875 52.339844 23.410156 L 48.417969 32.789062 L 48.417969 27.335938 C 48.417969 26.722656 47.917969 26.226562 47.308594 26.226562 L 18.464844 26.226562 C 17.851562 26.226562 17.355469 26.722656 17.355469 27.335938 L 17.355469 36.210938 C 17.355469 36.824219 17.851562 37.320312 18.464844 37.320312 L 46.519531 37.320312 L 45.589844 39.539062 L 36.214844 39.539062 C 35.601562 39.539062 35.105469 40.035156 35.105469 40.648438 L 35.105469 53.960938 C 35.105469 53.988281 35.117188 54.015625 35.121094 54.042969 C 34.207031 54.851562 33.648438 55.125 33.609375 55.140625 C 33.257812 55.269531 32.996094 55.566406 32.910156 55.929688 C 32.828125 56.304688 32.9375 56.695312 33.210938 56.964844 C 34.816406 58.570312 37.03125 59.183594 39.199219 59.183594 C 41.972656 59.183594 44.65625 58.179688 45.871094 56.964844 C 47.613281 55.222656 48.890625 51.765625 47.925781 49.1875 L 52.855469 38.796875 Z M 38.753906 47.632812 C 38.0625 48.324219 37.636719 49.039062 37.324219 49.734375 L 37.324219 41.761719 L 44.664062 41.761719 L 42.960938 45.824219 C 41.476562 45.796875 39.988281 46.394531 38.753906 47.632812 Z M 37.273438 55.074219 C 38.203125 54.144531 38.53125 53.074219 38.84375 52.042969 C 39.152344 51.035156 39.441406 50.082031 40.324219 49.199219 C 41.894531 47.628906 43.84375 47.628906 45.414062 49.199219 C 46.816406 50.601562 45.746094 53.953125 44.304688 55.394531 C 43.101562 56.59375 38.824219 57.753906 35.957031 56.253906 C 36.335938 55.957031 36.777344 55.570312 37.273438 55.074219 Z M 46.429688 47.167969 C 46.019531 46.835938 45.59375 46.550781 45.148438 46.34375 L 48.136719 39.207031 L 49.8125 40.03125 Z M 46.199219 28.445312 L 46.199219 35.101562 L 19.574219 35.101562 L 19.574219 28.445312 Z M 61.585938 15.195312 L 50.761719 38.027344 L 48.992188 37.160156 L 54.617188 23.71875 L 58.738281 13.871094 C 58.980469 13.292969 59.542969 12.917969 60.171875 12.917969 C 61.03125 12.917969 61.726562 13.613281 61.726562 14.546875 C 61.726562 14.769531 61.679688 14.996094 61.585938 15.195312 Z M 61.585938 15.195312 " fill-opacity="1" fill-rule="nonzero"/></g><path fill="#000000" d="M 29.558594 39.539062 L 18.464844 39.539062 C 17.851562 39.539062 17.355469 40.035156 17.355469 40.648438 L 17.355469 56.179688 C 17.355469 56.792969 17.851562 57.289062 18.464844 57.289062 L 29.558594 57.289062 C 30.167969 57.289062 30.667969 56.792969 30.667969 56.179688 L 30.667969 40.648438 C 30.667969 40.035156 30.167969 39.539062 29.558594 39.539062 Z M 28.449219 55.070312 L 19.574219 55.070312 L 19.574219 41.757812 L 28.449219 41.757812 Z M 28.449219 55.070312 " fill-opacity="1" fill-rule="nonzero"/></svg>