<svg xmlns="http://www.w3.org/2000/svg" xmlns:xlink="http://www.w3.org/1999/xlink" width="100" zoomAndPan="magnify" viewBox="0 0 75 74.999997" height="100" preserveAspectRatio="xMidYMid meet" version="1.0"><defs><clipPath id="3cbf2d1341"><path d="M 15.375 7.5 L 59.625 7.5 L 59.625 67.5 L 15.375 67.5 Z M 15.375 7.5 " clip-rule="nonzero"/></clipPath></defs><g clip-path="url(#3cbf2d1341)"><path fill="#000000" d="M 52.238281 49.605469 L 43.816406 49.605469 L 43.816406 43.683594 C 47.585938 41.496094 50.132812 37.425781 50.132812 32.761719 L 50.65625 32.761719 C 52.691406 32.761719 54.34375 31.109375 54.34375 29.078125 C 54.34375 27.046875 52.691406 25.394531 50.65625 25.394531 L 50.089844 25.394531 L 49.691406 15.902344 C 49.691406 15.859375 49.6875 15.820312 49.679688 15.78125 C 49.226562 12.910156 47.503906 10.453125 44.957031 9.046875 C 42.410156 7.640625 39.414062 7.488281 36.742188 8.632812 L 32.015625 10.660156 C 27.472656 10.777344 23.816406 14.507812 23.816406 19.078125 C 23.816406 19.128906 23.820312 19.179688 23.828125 19.226562 L 24.707031 25.394531 L 24.34375 25.394531 C 22.308594 25.394531 20.65625 27.046875 20.65625 29.078125 C 20.65625 31.109375 22.308594 32.761719 24.34375 32.761719 L 24.867188 32.761719 C 24.867188 37.425781 27.414062 41.496094 31.183594 43.683594 L 31.183594 49.605469 L 22.761719 49.605469 C 18.699219 49.605469 15.394531 52.910156 15.394531 56.972656 L 15.394531 66.449219 C 15.394531 67.03125 15.867188 67.5 16.449219 67.5 L 58.550781 67.5 C 59.132812 67.5 59.605469 67.03125 59.605469 66.449219 L 59.605469 56.972656 C 59.605469 52.910156 56.300781 49.605469 52.238281 49.605469 Z M 52.238281 29.078125 C 52.238281 29.949219 51.527344 30.65625 50.65625 30.65625 L 50.132812 30.65625 L 50.132812 27.5 L 50.65625 27.5 C 51.527344 27.5 52.238281 28.207031 52.238281 29.078125 Z M 32.238281 12.761719 C 32.378906 12.761719 32.519531 12.734375 32.652344 12.679688 L 37.570312 10.570312 C 39.640625 9.679688 41.964844 9.796875 43.941406 10.886719 C 45.898438 11.96875 47.226562 13.847656 47.589844 16.050781 L 47.65625 17.660156 C 46.925781 16.425781 45.757812 15.511719 44.351562 15.101562 C 42.65625 14.601562 40.863281 14.90625 39.425781 15.933594 C 38.234375 16.785156 36.65625 16.832031 35.414062 16.058594 L 34.953125 15.769531 C 33.40625 14.804688 31.546875 14.628906 29.84375 15.292969 C 28.144531 15.960938 26.894531 17.351562 26.398438 19.167969 L 26.125 20.445312 L 25.921875 19.007812 C 25.960938 15.558594 28.777344 12.761719 32.238281 12.761719 Z M 24.34375 30.65625 C 23.472656 30.65625 22.761719 29.949219 22.761719 29.078125 C 22.761719 28.207031 23.472656 27.5 24.34375 27.5 L 24.867188 27.5 L 24.867188 30.65625 Z M 26.972656 32.761719 L 26.972656 26.558594 L 28.445312 19.667969 C 28.746094 18.554688 29.535156 17.675781 30.609375 17.253906 C 31.683594 16.835938 32.859375 16.945312 33.839844 17.554688 L 34.300781 17.84375 C 36.269531 19.074219 38.761719 18.996094 40.648438 17.644531 C 41.554688 16.996094 42.6875 16.804688 43.761719 17.121094 C 44.8125 17.429688 45.652344 18.179688 46.074219 19.1875 L 48.027344 26.582031 L 48.027344 32.761719 C 48.027344 38.566406 43.304688 43.289062 37.5 43.289062 C 31.695312 43.289062 26.972656 38.566406 26.972656 32.761719 Z M 37.5 45.394531 C 38.976562 45.394531 40.390625 45.125 41.710938 44.65625 L 41.710938 50.222656 L 37.5 54.433594 L 33.289062 50.222656 L 33.289062 44.65625 C 34.609375 45.125 36.023438 45.394531 37.5 45.394531 Z M 57.5 65.394531 L 17.5 65.394531 L 17.5 56.972656 C 17.5 54.070312 19.859375 51.710938 22.761719 51.710938 L 31.800781 51.710938 L 36.753906 56.664062 C 37.167969 57.078125 37.832031 57.078125 38.246094 56.664062 L 43.199219 51.710938 L 52.238281 51.710938 C 55.140625 51.710938 57.5 54.070312 57.5 56.972656 Z M 57.5 65.394531 " fill-opacity="1" fill-rule="nonzero"/></g><path fill="#000000" d="M 32.238281 27.761719 C 31.222656 27.761719 30.394531 28.589844 30.394531 29.605469 C 30.394531 30.621094 31.222656 31.449219 32.238281 31.449219 C 33.253906 31.449219 34.078125 30.621094 34.078125 29.605469 C 34.078125 28.589844 33.253906 27.761719 32.238281 27.761719 Z M 31.972656 29.605469 C 31.972656 29.460938 32.089844 29.34375 32.238281 29.34375 C 32.382812 29.34375 32.5 29.460938 32.5 29.605469 C 32.5 29.894531 31.972656 29.894531 31.972656 29.605469 Z M 31.972656 29.605469 " fill-opacity="1" fill-rule="nonzero"/><path fill="#000000" d="M 42.761719 31.449219 C 43.777344 31.449219 44.605469 30.621094 44.605469 29.605469 C 44.605469 28.589844 43.777344 27.761719 42.761719 27.761719 C 41.746094 27.761719 40.921875 28.589844 40.921875 29.605469 C 40.921875 30.621094 41.746094 31.449219 42.761719 31.449219 Z M 42.761719 29.34375 C 42.910156 29.34375 43.027344 29.460938 43.027344 29.605469 C 43.027344 29.894531 42.5 29.894531 42.5 29.605469 C 42.5 29.460938 42.617188 29.34375 42.761719 29.34375 Z M 42.761719 29.34375 " fill-opacity="1" fill-rule="nonzero"/><path fill="#000000" d="M 41.449219 34.867188 L 39.867188 34.867188 C 39.867188 36.171875 38.804688 37.238281 37.5 37.238281 C 36.195312 37.238281 35.132812 36.171875 35.132812 34.867188 L 33.550781 34.867188 C 33.550781 37.042969 35.324219 38.816406 37.5 38.816406 C 39.675781 38.816406 41.449219 37.042969 41.449219 34.867188 Z M 41.449219 34.867188 " fill-opacity="1" fill-rule="nonzero"/></svg>