<svg xmlns="http://www.w3.org/2000/svg" xmlns:xlink="http://www.w3.org/1999/xlink" width="100" zoomAndPan="magnify" viewBox="0 0 75 74.999997" height="100" preserveAspectRatio="xMidYMid meet" version="1.0"><defs><clipPath id="e9d0063a05"><path d="M 13.609375 8.628906 L 61.609375 8.628906 L 61.609375 66.378906 L 13.609375 66.378906 Z M 13.609375 8.628906 " clip-rule="nonzero"/></clipPath></defs><g clip-path="url(#e9d0063a05)"><path fill="#100f0d" d="M 28.019531 58.605469 L 21.433594 58.605469 L 21.433594 45.277344 C 21.433594 44.820312 21.15625 44.414062 20.730469 44.246094 L 16.238281 42.457031 L 21.332031 31.300781 C 21.398438 31.15625 21.433594 31 21.433594 30.839844 L 21.433594 29.730469 C 21.433594 19.316406 29.9375 10.847656 40.398438 10.847656 C 50.855469 10.847656 59.363281 19.316406 59.363281 29.730469 L 59.363281 32.472656 C 59.363281 39.273438 58.132812 41.308594 55.441406 45.773438 C 54.664062 47.050781 53.789062 48.5 52.804688 50.300781 C 52.714844 50.460938 52.667969 50.644531 52.667969 50.832031 L 52.667969 64.15625 L 34.820312 64.15625 L 34.820312 59.125 L 41.113281 53.90625 C 41.253906 53.785156 41.363281 53.636719 41.433594 53.464844 L 43.664062 47.910156 L 41.589844 47.085938 L 39.464844 52.378906 L 33.207031 57.570312 Z M 33.703125 66.378906 L 53.785156 66.378906 C 54.398438 66.378906 54.898438 65.878906 54.898438 65.269531 L 54.898438 51.117188 C 55.804688 49.472656 56.625 48.113281 57.351562 46.914062 C 60.085938 42.382812 61.59375 39.890625 61.59375 32.472656 L 61.59375 29.730469 C 61.59375 18.09375 52.085938 8.628906 40.398438 8.628906 C 28.710938 8.628906 19.203125 18.09375 19.203125 29.730469 L 19.203125 30.597656 L 13.726562 42.597656 C 13.597656 42.875 13.589844 43.1875 13.703125 43.46875 C 13.820312 43.75 14.042969 43.976562 14.328125 44.089844 L 19.203125 46.027344 L 19.203125 59.714844 C 19.203125 60.328125 19.703125 60.824219 20.316406 60.824219 L 28.125 60.824219 C 28.199219 60.824219 28.273438 60.816406 28.34375 60.804688 L 32.589844 59.957031 L 32.589844 65.269531 C 32.589844 65.878906 33.089844 66.378906 33.703125 66.378906 " fill-opacity="1" fill-rule="nonzero"/></g><path fill="#100f0d" d="M 34.308594 29.375 C 33.605469 28.730469 33.414062 27.6875 33.839844 26.835938 L 33.988281 26.539062 C 34.355469 25.8125 35.089844 25.355469 35.910156 25.355469 C 36.566406 25.355469 37.179688 25.652344 37.589844 26.164062 L 39.480469 28.515625 C 39.90625 29.039062 40.796875 29.039062 41.222656 28.515625 L 43.113281 26.160156 C 43.523438 25.652344 44.136719 25.355469 44.789062 25.355469 C 45.609375 25.355469 46.351562 25.8125 46.714844 26.546875 L 46.863281 26.835938 C 47.292969 27.6875 47.09375 28.730469 46.394531 29.375 L 40.355469 34.886719 Z M 47.902344 31.007812 C 49.335938 29.699219 49.726562 27.578125 48.859375 25.84375 L 48.710938 25.546875 C 47.960938 24.058594 46.464844 23.136719 44.789062 23.136719 C 43.453125 23.136719 42.207031 23.734375 41.371094 24.773438 L 40.355469 26.042969 L 39.335938 24.773438 C 38.496094 23.734375 37.25 23.136719 35.910156 23.136719 C 34.238281 23.136719 32.742188 24.058594 31.992188 25.546875 L 31.84375 25.84375 C 30.972656 27.574219 31.367188 29.699219 32.800781 31.007812 L 39.59375 37.210938 C 39.808594 37.402344 40.082031 37.503906 40.355469 37.503906 C 40.625 37.503906 40.894531 37.402344 41.109375 37.210938 L 47.902344 31.007812 " fill-opacity="1" fill-rule="nonzero"/><path fill="#100f0d" d="M 28.683594 29.730469 C 28.683594 23.300781 33.941406 18.066406 40.398438 18.066406 C 46.855469 18.066406 52.109375 23.300781 52.109375 29.730469 C 52.109375 36.160156 46.855469 41.390625 40.398438 41.390625 C 33.941406 41.390625 28.683594 36.160156 28.683594 29.730469 Z M 54.339844 29.730469 C 54.339844 22.070312 48.089844 15.847656 40.398438 15.847656 C 32.707031 15.847656 26.453125 22.070312 26.453125 29.730469 C 26.453125 37.386719 32.707031 43.613281 40.398438 43.613281 C 48.089844 43.613281 54.339844 37.386719 54.339844 29.730469 " fill-opacity="1" fill-rule="nonzero"/></svg>