<svg xmlns="http://www.w3.org/2000/svg" xmlns:xlink="http://www.w3.org/1999/xlink" width="100" zoomAndPan="magnify" viewBox="0 0 75 74.999997" height="100" preserveAspectRatio="xMidYMid meet" version="1.0"><defs><clipPath id="19113d7ab2"><path d="M 20.476562 7.5 L 54 7.5 L 54 67.5 L 20.476562 67.5 Z M 20.476562 7.5 " clip-rule="nonzero"/></clipPath></defs><g clip-path="url(#19113d7ab2)"><path fill="#100f0d" d="M 25.1875 65.429688 C 25.460938 64.722656 26.113281 64.207031 26.910156 64.136719 L 35.390625 63.359375 C 35.917969 63.308594 36.324219 62.863281 36.324219 62.328125 L 36.324219 47.109375 C 36.644531 47.222656 36.992188 47.285156 37.351562 47.285156 C 37.710938 47.285156 38.054688 47.222656 38.375 47.109375 L 38.375 62.328125 C 38.375 62.863281 38.78125 63.308594 39.308594 63.359375 L 47.792969 64.136719 C 48.589844 64.207031 49.238281 64.722656 49.515625 65.429688 Z M 33.027344 40.125 C 29.816406 39.476562 27.027344 37.621094 25.171875 34.894531 C 23.320312 32.171875 22.605469 28.878906 23.164062 25.625 L 23.253906 25.085938 L 47.28125 25.085938 L 47.496094 26.328125 C 47.707031 27.5625 47.648438 28.792969 47.328125 29.988281 L 49.304688 30.53125 C 49.707031 29.042969 49.777344 27.507812 49.515625 25.976562 L 49.363281 25.085938 L 51.445312 25.085938 L 51.539062 25.625 C 52.09375 28.878906 51.378906 32.171875 49.527344 34.894531 C 47.675781 37.621094 44.882812 39.476562 41.671875 40.125 C 39.761719 40.511719 38.375 42.214844 38.375 44.183594 C 38.375 44.753906 37.914062 45.214844 37.351562 45.214844 C 36.785156 45.214844 36.324219 44.753906 36.324219 44.183594 C 36.324219 42.214844 34.9375 40.511719 33.027344 40.125 Z M 25.90625 9.570312 L 48.792969 9.570312 L 51.089844 23.015625 L 49.011719 23.015625 L 47.390625 13.53125 L 45.367188 13.882812 L 46.929688 23.015625 L 23.609375 23.015625 Z M 47.976562 62.074219 L 40.425781 61.382812 L 40.425781 44.183594 C 40.425781 43.199219 41.121094 42.347656 42.074219 42.152344 C 45.8125 41.398438 49.0625 39.238281 51.21875 36.066406 C 53.375 32.894531 54.207031 29.0625 53.558594 25.273438 L 50.667969 8.359375 C 50.582031 7.863281 50.15625 7.5 49.65625 7.5 L 25.042969 7.5 C 24.542969 7.5 24.117188 7.863281 24.03125 8.359375 L 21.140625 25.273438 C 20.492188 29.0625 21.324219 32.894531 23.480469 36.066406 C 25.640625 39.238281 28.886719 41.398438 32.625 42.152344 C 33.578125 42.347656 34.273438 43.199219 34.273438 44.183594 L 34.273438 61.382812 L 26.722656 62.074219 C 24.597656 62.269531 22.992188 64.042969 22.992188 66.195312 L 22.992188 66.464844 C 22.992188 67.035156 23.449219 67.5 24.015625 67.5 L 50.683594 67.5 C 51.25 67.5 51.707031 67.035156 51.707031 66.464844 L 51.707031 66.195312 C 51.707031 64.042969 50.105469 62.269531 47.976562 62.074219 " fill-opacity="1" fill-rule="nonzero"/></g><path fill="#100f0d" d="M 47.835938 33.726562 C 48.03125 33.433594 48.21875 33.132812 48.382812 32.824219 L 46.585938 31.828125 C 46.453125 32.074219 46.304688 32.320312 46.144531 32.554688 C 45.871094 32.953125 45.566406 33.332031 45.234375 33.675781 L 46.707031 35.117188 C 47.117188 34.691406 47.5 34.222656 47.835938 33.726562 " fill-opacity="1" fill-rule="nonzero"/></svg>