<svg width="13" height="13" viewBox="0 0 13 13" fill="none" xmlns="http://www.w3.org/2000/svg">
<path d="M6.50012 1.625C6.90187 1.625 7.29459 1.74413 7.62862 1.96733C7.96266 2.19052 8.22301 2.50776 8.37675 2.87892C8.53049 3.25009 8.57072 3.6585 8.49234 4.05253C8.41397 4.44655 8.22051 4.80849 7.93643 5.09256C7.65236 5.37664 7.29042 5.57009 6.8964 5.64847C6.50238 5.72685 6.09396 5.68662 5.7228 5.53288C5.35163 5.37914 5.0344 5.11879 4.8112 4.78475C4.588 4.45072 4.46887 4.05799 4.46887 3.65625C4.46887 3.11753 4.68288 2.60087 5.06381 2.21994C5.44474 1.83901 5.9614 1.625 6.50012 1.625ZM6.50012 0.8125C5.93768 0.8125 5.38787 0.979283 4.92022 1.29176C4.45257 1.60423 4.08808 2.04837 3.87284 2.56799C3.6576 3.08762 3.60129 3.6594 3.71101 4.21104C3.82074 4.76267 4.09158 5.26938 4.48929 5.66709C4.88699 6.06479 5.3937 6.33563 5.94533 6.44536C6.49697 6.55509 7.06875 6.49877 7.58838 6.28353C8.10801 6.0683 8.55214 5.70381 8.86461 5.23615C9.17709 4.7685 9.34387 4.21869 9.34387 3.65625C9.34387 2.90204 9.04426 2.17872 8.51096 1.64542C7.97765 1.11211 7.25433 0.8125 6.50012 0.8125ZM10.5626 12.1875H9.75012V10.1563C9.75012 9.8895 9.69758 9.62537 9.5955 9.37892C9.49342 9.13248 9.3438 8.90856 9.15518 8.71994C8.96656 8.53132 8.74264 8.3817 8.4962 8.27962C8.24976 8.17754 7.98562 8.125 7.71887 8.125H5.28137C4.74265 8.125 4.22599 8.33901 3.84506 8.71994C3.46413 9.10087 3.25012 9.61753 3.25012 10.1563V12.1875H2.43762V10.1563C2.43762 9.40204 2.73723 8.67872 3.27054 8.14542C3.80384 7.61211 4.52716 7.3125 5.28137 7.3125H7.71887C8.47308 7.3125 9.1964 7.61211 9.72971 8.14542C10.263 8.67872 10.5626 9.40204 10.5626 10.1563V12.1875Z" fill="white"/>
</svg>
