<svg width="19" height="19" viewBox="0 0 19 19" fill="none" xmlns="http://www.w3.org/2000/svg">
<path d="M6.95012 8.81767H2.51408C1.81869 8.81767 1.25281 8.24804 1.25281 7.54889V3.0847C1.25281 2.38462 1.81869 1.81592 2.51408 1.81592H6.95012C7.64551 1.81592 8.21139 2.38462 8.21139 3.0847V7.54889C8.21139 8.24804 7.64551 8.81767 6.95012 8.81767ZM2.51408 2.46439C2.17342 2.46439 1.89752 2.74217 1.89752 3.0847V7.54889C1.89752 7.89049 2.17342 8.16921 2.51408 8.16921H6.95012C7.28984 8.16921 7.56668 7.89049 7.56668 7.54889V3.0847C7.56668 2.74217 7.28984 2.46439 6.95012 2.46439H2.51408Z" fill="black"/>
<path d="M14.9484 8.81767H10.5114C9.81604 8.81767 9.2511 8.24804 9.2511 7.54889V3.0847C9.2511 2.38462 9.81604 1.81592 10.5114 1.81592H14.9484C15.6438 1.81592 16.2087 2.38462 16.2087 3.0847V7.54889C16.2087 8.24804 15.6438 8.81767 14.9484 8.81767ZM10.5114 2.46439C10.1717 2.46439 9.89487 2.74217 9.89487 3.0847V7.54889C9.89487 7.89049 10.1717 8.16921 10.5114 8.16921H14.9484C15.2881 8.16921 15.565 7.89049 15.565 7.54889V3.0847C15.565 2.74217 15.2881 2.46439 14.9484 2.46439H10.5114Z" fill="black"/>
<path d="M6.95012 16.7559H2.51408C1.81869 16.7559 1.25281 16.1862 1.25281 15.4861V11.0229C1.25281 10.3228 1.81869 9.75317 2.51408 9.75317H6.95012C7.64551 9.75317 8.21139 10.3228 8.21139 11.0229V15.4861C8.21139 16.1862 7.64551 16.7559 6.95012 16.7559ZM2.51408 10.4016C2.17342 10.4016 1.89752 10.6804 1.89752 11.0229V15.4861C1.89752 15.8287 2.17342 16.1074 2.51408 16.1074H6.95012C7.28984 16.1074 7.56668 15.8287 7.56668 15.4861V11.0229C7.56668 10.6804 7.28984 10.4016 6.95012 10.4016H2.51408Z" fill="black"/>
<path d="M14.9484 16.7559H10.5114C9.81604 16.7559 9.2511 16.1862 9.2511 15.4861V11.0229C9.2511 10.3228 9.81604 9.75317 10.5114 9.75317H14.9484C15.6438 9.75317 16.2087 10.3228 16.2087 11.0229V15.4861C16.2087 16.1862 15.6438 16.7559 14.9484 16.7559ZM10.5114 10.4016C10.1717 10.4016 9.89487 10.6804 9.89487 11.0229V15.4861C9.89487 15.8287 10.1717 16.1074 10.5114 16.1074H14.9484C15.2881 16.1074 15.565 15.8287 15.565 15.4861V11.0229C15.565 10.6804 15.2881 10.4016 14.9484 10.4016H10.5114Z" fill="black"/>
</svg>
