<svg width="19" height="19" viewBox="0 0 19 19" fill="none" xmlns="http://www.w3.org/2000/svg">
<path d="M15.2799 3.36101H13.8478V2.58116C13.8478 2.51547 13.8412 2.45071 13.8281 2.38596C13.8149 2.32215 13.7962 2.25927 13.7708 2.19827C13.7455 2.13821 13.7155 2.08003 13.6789 2.0256C13.6423 1.97117 13.601 1.92049 13.5541 1.87451C13.5081 1.82758 13.4574 1.78629 13.403 1.74969C13.3485 1.71309 13.2903 1.68213 13.2293 1.65679C13.1693 1.63145 13.1064 1.61268 13.0426 1.59954C12.9778 1.58734 12.9131 1.58077 12.8474 1.57983H12.3237C12.2581 1.58077 12.1933 1.58734 12.1295 1.60048C12.0647 1.61362 12.0028 1.63239 11.9418 1.65773C11.8817 1.68306 11.8245 1.71403 11.7701 1.75063C11.7156 1.78723 11.665 1.82852 11.619 1.87544C11.573 1.92143 11.5317 1.97211 11.4951 2.02653C11.4585 2.08096 11.4275 2.13915 11.4031 2.19921C11.3778 2.26021 11.359 2.32215 11.3459 2.3869C11.3337 2.45071 11.3271 2.5164 11.3271 2.58116V3.36101H6.43874V2.58116C6.43874 2.5164 6.43218 2.45071 6.41998 2.3869C6.40684 2.32215 6.38807 2.26021 6.36273 2.19921C6.33833 2.13915 6.30736 2.08096 6.27076 2.02653C6.23416 1.97211 6.19287 1.92143 6.14689 1.87544C6.1009 1.82852 6.05023 1.78723 5.9958 1.75063C5.94137 1.71403 5.88412 1.68306 5.82406 1.65773C5.76306 1.63239 5.70112 1.61362 5.63637 1.60048C5.57256 1.58734 5.5078 1.58077 5.44211 1.57983H4.91846C4.85277 1.58077 4.78802 1.58734 4.72326 1.59954C4.65945 1.61268 4.59657 1.63145 4.53651 1.65679C4.47551 1.68213 4.41733 1.71309 4.3629 1.74969C4.30847 1.78629 4.25779 1.82758 4.21181 1.87451C4.16489 1.92049 4.12359 1.97117 4.087 2.0256C4.0504 2.08003 4.02037 2.13821 3.99503 2.19827C3.96969 2.25927 3.95092 2.32215 3.93778 2.38596C3.92464 2.45071 3.91807 2.51547 3.91807 2.58116V3.36101H2.486C2.40342 3.36101 2.32178 3.36945 2.24013 3.38541C2.15942 3.40136 2.0806 3.42576 2.00364 3.45767C1.92763 3.48864 1.85443 3.52805 1.78592 3.57403C1.71742 3.62002 1.6536 3.67257 1.59448 3.73076C1.5363 3.78894 1.48374 3.85275 1.43776 3.9222C1.39178 3.99071 1.3533 4.06297 1.32139 4.13992C1.28948 4.21593 1.26602 4.29476 1.24913 4.37641C1.23318 4.45711 1.22567 4.5397 1.22473 4.62228V15.635C1.22567 15.7175 1.23318 15.7992 1.24913 15.8808C1.26602 15.9615 1.28948 16.0404 1.32139 16.1173C1.3533 16.1933 1.39178 16.2665 1.43776 16.335C1.48374 16.4035 1.5363 16.4674 1.59448 16.5265C1.6536 16.5847 1.71742 16.6372 1.78592 16.6832C1.85443 16.7292 1.92763 16.7677 2.00364 16.7996C2.0806 16.8315 2.15942 16.8549 2.24013 16.8718C2.32178 16.8878 2.40342 16.8953 2.486 16.8953H15.2761C15.3596 16.8962 15.4413 16.8878 15.5229 16.8718C15.6046 16.8559 15.6834 16.8324 15.7594 16.8005C15.8364 16.7686 15.9096 16.7301 15.9781 16.6841C16.0475 16.6382 16.1113 16.5856 16.1695 16.5274C16.2286 16.4683 16.2812 16.4054 16.3272 16.336C16.3731 16.2675 16.4126 16.1943 16.4445 16.1183C16.4764 16.0413 16.4998 15.9625 16.5158 15.8808C16.5327 15.8001 16.5402 15.7175 16.5402 15.635V4.62228C16.5402 4.5397 16.5327 4.45711 16.5167 4.37641C16.4998 4.29476 16.4764 4.21593 16.4445 4.13992C16.4126 4.06297 16.3741 3.99071 16.3281 3.9222C16.2821 3.85275 16.2296 3.78894 16.1714 3.73076C16.1123 3.67257 16.0484 3.62002 15.9799 3.57403C15.9114 3.52805 15.8382 3.48864 15.7622 3.45767C15.6853 3.42576 15.6064 3.40136 15.5257 3.38541C15.4441 3.36945 15.3624 3.36101 15.2799 3.36101ZM11.9784 2.58116C11.9784 2.53517 11.9878 2.49107 12.0047 2.44884C12.0225 2.40661 12.0469 2.36813 12.0798 2.33622C12.1117 2.30338 12.1492 2.27804 12.1914 2.26021C12.2337 2.24144 12.2778 2.23299 12.3237 2.23205H12.8474C12.8934 2.23205 12.9375 2.24144 12.9807 2.25927C13.0229 2.2771 13.0614 2.3015 13.0933 2.33435C13.1261 2.36719 13.1515 2.40473 13.1693 2.4479C13.1871 2.49107 13.1956 2.53517 13.1956 2.58116V4.59976H11.9784V2.58116ZM4.57311 2.58116C4.57311 2.53517 4.5825 2.49107 4.59939 2.44884C4.61722 2.40661 4.64162 2.36813 4.67446 2.33622C4.70637 2.30338 4.74391 2.27804 4.78614 2.26021C4.82837 2.24144 4.87248 2.23299 4.91846 2.23205H5.44211C5.4881 2.23299 5.5322 2.24144 5.57443 2.26021C5.61666 2.27804 5.6542 2.30338 5.68611 2.33622C5.71896 2.36813 5.74335 2.40567 5.76119 2.44884C5.77808 2.49107 5.78746 2.53517 5.78746 2.58116V4.59976H4.5656L4.57311 2.58116ZM2.486 4.01323H3.91807V5.25198H6.43874V4.01323H11.3271V5.25198H13.8525V4.01323H15.2845C15.3653 4.01323 15.4422 4.02918 15.5163 4.06109C15.5905 4.09206 15.6552 4.13616 15.7115 4.19341C15.7688 4.25065 15.812 4.31635 15.8429 4.39048C15.8739 4.46462 15.8889 4.54157 15.8889 4.62228V7.16172H1.87695V4.62228C1.87695 4.54157 1.89291 4.46368 1.92387 4.38954C1.95484 4.31447 1.99895 4.24878 2.05526 4.19153C2.1125 4.13429 2.17819 4.09018 2.25327 4.05921C2.32741 4.02824 2.4053 4.01323 2.486 4.01323ZM15.2799 16.244H2.48976C2.40811 16.244 2.33022 16.229 2.25515 16.198C2.18007 16.168 2.11438 16.1239 2.05713 16.0666C1.99895 16.0094 1.95484 15.9437 1.92387 15.8686C1.89291 15.7936 1.87695 15.7157 1.87695 15.635V7.81394H15.8889V15.635C15.8889 15.7157 15.873 15.7936 15.842 15.8677C15.811 15.9428 15.7669 16.0085 15.7106 16.0657C15.6534 16.122 15.5877 16.1661 15.5126 16.1971C15.4385 16.2281 15.3606 16.244 15.2799 16.244Z" fill="black"/>
</svg>
