<svg width="19" height="19" viewBox="0 0 19 19" fill="none" xmlns="http://www.w3.org/2000/svg">
<path d="M11.4523 10.9239C11.8725 10.5038 12.1086 9.93386 12.1086 9.33963C12.1086 8.74539 11.8725 8.17549 11.4523 7.75531C11.0321 7.33512 10.4622 7.09906 9.86801 7.09906C9.27377 7.09906 8.70388 7.33512 8.28369 7.75531C7.8635 8.17549 7.62744 8.74539 7.62744 9.33963C7.62744 9.93386 7.8635 10.5038 8.28369 10.9239C8.70388 11.3441 9.27377 11.5802 9.86801 11.5802C10.4622 11.5802 11.0321 11.3441 11.4523 10.9239Z" stroke="#9CA3AF" stroke-width="1.79245" stroke-linecap="round" stroke-linejoin="round"/>
<path d="M2.7417 9.33963C3.69319 6.30964 6.52452 4.11164 9.86819 4.11164C13.2126 4.11164 16.0432 6.30964 16.9947 9.33963C16.0432 12.3696 13.2126 14.5676 9.86819 14.5676C6.52452 14.5676 3.69319 12.3696 2.7417 9.33963Z" stroke="#9CA3AF" stroke-width="1.79245" stroke-linecap="round" stroke-linejoin="round"/>
</svg>
