<svg width="23" height="23" viewBox="0 0 23 23" fill="none" xmlns="http://www.w3.org/2000/svg">
<path d="M20.897 9.62245H20.1251V9.58268H11.5001V13.416H16.9161C16.126 15.6475 14.0028 17.2493 11.5001 17.2493C8.32464 17.2493 5.75008 14.6748 5.75008 11.4993C5.75008 8.32391 8.32464 5.74935 11.5001 5.74935C12.9659 5.74935 14.2994 6.30231 15.3147 7.20554L18.0254 4.49489C16.3138 2.89974 14.0243 1.91602 11.5001 1.91602C6.20769 1.91602 1.91675 6.20695 1.91675 11.4993C1.91675 16.7917 6.20769 21.0827 11.5001 21.0827C16.7925 21.0827 21.0834 16.7917 21.0834 11.4993C21.0834 10.8568 21.0173 10.2296 20.897 9.62245Z" fill="#FFC107"/>
<path d="M3.02161 7.03879L6.17021 9.34789C7.02217 7.2386 9.08546 5.74935 11.5 5.74935C12.9658 5.74935 14.2993 6.30231 15.3146 7.20554L18.0253 4.49489C16.3137 2.89974 14.0242 1.91602 11.5 1.91602C7.81902 1.91602 4.62681 3.99416 3.02161 7.03879Z" fill="#FF3D00"/>
<path d="M11.4999 21.0837C13.9753 21.0837 16.2245 20.1363 17.9251 18.5958L14.9591 16.086C13.9646 16.8423 12.7494 17.2513 11.4999 17.2503C9.00732 17.2503 6.89084 15.6609 6.09351 13.4429L2.96838 15.8507C4.55443 18.9542 7.77538 21.0837 11.4999 21.0837Z" fill="#4CAF50"/>
<path d="M20.8969 9.62376H20.125V9.58398H11.5V13.4173H16.916C16.5381 14.4793 15.8572 15.4074 14.9577 16.0868L14.9591 16.0858L17.9251 18.5957C17.7153 18.7864 21.0833 16.2923 21.0833 11.5007C21.0833 10.8581 21.0172 10.2309 20.8969 9.62376Z" fill="#1976D2"/>
</svg>
