<svg width="30" height="30" viewBox="0 0 30 30" fill="none" xmlns="http://www.w3.org/2000/svg">
<path d="M3.38604 10.3469H5.43916L5.44697 8.27344C4.37822 8.41875 3.52979 9.27188 3.38604 10.3469ZM5.7626 10.9969H3.04072C2.86104 10.9969 2.71729 10.8516 2.71729 10.6719C2.71729 8.97969 4.0876 7.60156 5.77197 7.60156C5.85791 7.60156 5.93916 7.63594 6.0001 7.69688C6.06104 7.75781 6.09385 7.84063 6.09385 7.92813L6.08447 10.6734C6.08447 10.8531 5.93916 10.9969 5.7626 10.9969Z" fill="#84888C"/>
<path d="M24.5845 8.27344L24.5907 10.3469H26.6454C26.5017 9.27188 25.6532 8.41875 24.5845 8.27344ZM24.2704 10.9969C24.0907 10.9969 23.947 10.8531 23.9454 10.6734L23.936 7.92813C23.936 7.84063 23.9704 7.75781 24.0313 7.69688C24.0923 7.63594 24.1735 7.60156 24.2595 7.60156C25.9438 7.60156 27.3142 8.97969 27.3142 10.6719C27.3142 10.8516 27.1688 10.9969 26.9907 10.9969H24.2704Z" fill="#84888C"/>
<path d="M3.38603 22.3654C3.52978 23.4389 4.37822 24.292 5.44697 24.4389L5.43916 22.3639L3.38603 22.3654ZM5.77354 25.1092H5.77197C4.0876 25.1092 2.71729 23.7326 2.71729 22.0389C2.71729 21.8607 2.86104 21.7139 3.04072 21.7139H5.7626C5.93916 21.7139 6.08447 21.8592 6.08447 22.0373L6.09385 24.7373C6.09697 24.7529 6.09854 24.7686 6.09854 24.7842C6.09854 24.9639 5.95322 25.1092 5.77354 25.1092Z" fill="#84888C"/>
<path d="M24.5907 22.3639L24.5845 24.4389C25.6532 24.292 26.5017 23.4389 26.6454 22.3654L24.5907 22.3639ZM24.2595 25.1092C24.1735 25.1092 24.0923 25.0764 24.0313 25.0139C23.9704 24.9529 23.936 24.8701 23.936 24.7842L23.9454 22.0373C23.947 21.8592 24.0907 21.7139 24.2704 21.7139H26.9907C27.1688 21.7139 27.3142 21.8607 27.3142 22.0389C27.3142 23.7326 25.9438 25.1092 24.2595 25.1092Z" fill="#84888C"/>
<path d="M15.0157 6.34238C16.0516 6.34238 17.0829 6.48926 18.0797 6.77676C18.2016 6.80957 18.3422 6.74707 18.3797 6.6377L18.4094 6.55176C18.4282 6.49863 18.4125 6.4502 18.3969 6.41895C18.3641 6.35488 18.3 6.30488 18.2219 6.28145C16.136 5.67988 13.8954 5.67988 11.8094 6.28145C11.7313 6.30488 11.6672 6.35332 11.6344 6.41895C11.6188 6.4502 11.6016 6.49863 11.6204 6.5502C11.6313 6.57988 11.6422 6.61113 11.6516 6.64395C11.6875 6.74551 11.8266 6.81113 11.95 6.77676C12.9469 6.48926 13.9782 6.34238 15.0157 6.34238ZM18.1532 7.43613C18.0688 7.43613 17.9844 7.42363 17.9032 7.4002C16.0235 6.85957 14.0063 6.85957 12.1282 7.4002C12.0469 7.42363 11.9625 7.43613 11.8782 7.43613C11.4985 7.43613 11.1625 7.20176 11.0407 6.85488C11.0297 6.82207 11.0204 6.79551 11.011 6.76738C10.936 6.55488 10.9547 6.3252 11.061 6.12051C11.175 5.89707 11.3829 5.72832 11.6313 5.65645C13.8329 5.02207 16.1985 5.02207 18.4 5.65645C18.6485 5.72832 18.8563 5.89707 18.9704 6.12051C19.0766 6.32676 19.0938 6.55645 19.0204 6.76738L18.9891 6.85488C18.8672 7.20176 18.5313 7.43613 18.1532 7.43613Z" fill="#84888C"/>
<path d="M7.83428 9.19375L8.80771 10.1297L9.78271 9.19375V8.25156H7.83428V9.19375ZM8.80771 10.9047C8.72803 10.9047 8.64834 10.875 8.58584 10.8156L7.2874 9.56719C7.2249 9.50625 7.18896 9.42188 7.18896 9.33281V7.92656C7.18896 7.74688 7.33271 7.60156 7.5124 7.60156H10.1062C10.2843 7.60156 10.4296 7.74688 10.4296 7.92656V9.33281C10.4296 9.42188 10.3937 9.50625 10.3296 9.56719L9.03271 10.8156C8.97021 10.875 8.88896 10.9047 8.80771 10.9047Z" fill="#84888C"/>
<path d="M20.2469 9.19375L21.2219 10.1297L22.1953 9.19375V8.25156H20.2469V9.19375ZM21.2219 10.9047C21.1422 10.9047 21.0609 10.875 20.9984 10.8156L19.7 9.56719C19.6375 9.50625 19.6016 9.42188 19.6016 9.33281V7.92656C19.6016 7.74688 19.7453 7.60156 19.9234 7.60156H22.5187C22.6969 7.60156 22.8422 7.74688 22.8422 7.92656V9.33281C22.8422 9.42188 22.8062 9.50625 22.7422 9.56719L21.4453 10.8156C21.3828 10.875 21.3016 10.9047 21.2219 10.9047Z" fill="#84888C"/>
<path d="M7.83428 24.4594H9.78271V23.5188L8.80771 22.5813L7.83428 23.5188V24.4594ZM10.1062 25.1094H7.5124C7.33271 25.1094 7.18896 24.9641 7.18896 24.7844V23.3781C7.18896 23.2906 7.2249 23.2047 7.2874 23.1438L8.58584 21.8969C8.71084 21.7766 8.90771 21.7766 9.03271 21.8969L10.3296 23.1438C10.3937 23.2047 10.4296 23.2906 10.4296 23.3781V24.7844C10.4296 24.9641 10.2843 25.1094 10.1062 25.1094Z" fill="#84888C"/>
<path d="M20.2469 24.4594H22.1953V23.5188L21.2219 22.5813L20.2469 23.5188V24.4594ZM22.5187 25.1094H19.9234C19.7453 25.1094 19.6016 24.9641 19.6016 24.7844V23.3781C19.6016 23.2906 19.6375 23.2047 19.7 23.1438L20.9984 21.8969C21.1234 21.7766 21.3203 21.7766 21.4453 21.8969L22.7422 23.1438C22.8062 23.2047 22.8422 23.2906 22.8422 23.3781V24.7844C22.8422 24.9641 22.6969 25.1094 22.5187 25.1094Z" fill="#84888C"/>
<path d="M3.71406 22.2342C3.53438 22.2342 3.39062 22.0889 3.39062 21.9092V10.6951C3.39062 10.517 3.53438 10.3701 3.71406 10.3701C3.89219 10.3701 4.03594 10.517 4.03594 10.6951V21.9092C4.03594 22.0889 3.89219 22.2342 3.71406 22.2342Z" fill="#84888C"/>
<path d="M19.7546 9.02012H10.1781C9.99995 9.02012 9.8562 8.8748 9.8562 8.69512C9.8562 8.51543 9.99995 8.37012 10.1781 8.37012H19.7546C19.9343 8.37012 20.0781 8.51543 20.0781 8.69512C20.0781 8.8748 19.9343 9.02012 19.7546 9.02012Z" fill="#84888C"/>
<path d="M7.25615 9.02012H5.80147C5.62178 9.02012 5.47803 8.8748 5.47803 8.69512C5.47803 8.51543 5.62178 8.37012 5.80147 8.37012H7.25615C7.43428 8.37012 7.57959 8.51543 7.57959 8.69512C7.57959 8.8748 7.43428 9.02012 7.25615 9.02012Z" fill="#84888C"/>
<path d="M24.2249 9.02012H22.7702C22.5921 9.02012 22.4468 8.8748 22.4468 8.69512C22.4468 8.51543 22.5921 8.37012 22.7702 8.37012H24.2249C24.4046 8.37012 24.5483 8.51543 24.5483 8.69512C24.5483 8.8748 24.4046 9.02012 24.2249 9.02012Z" fill="#84888C"/>
<path d="M19.789 24.2955H10.1452C9.96553 24.2955 9.82178 24.1502 9.82178 23.9705C9.82178 23.7924 9.96553 23.6455 10.1452 23.6455H19.789C19.9671 23.6455 20.1124 23.7924 20.1124 23.9705C20.1124 24.1502 19.9671 24.2955 19.789 24.2955Z" fill="#84888C"/>
<path d="M7.25615 24.2955H5.80147C5.62178 24.2955 5.47803 24.1502 5.47803 23.9705C5.47803 23.7924 5.62178 23.6455 5.80147 23.6455H7.25615C7.43428 23.6455 7.57959 23.7924 7.57959 23.9705C7.57959 24.1502 7.43428 24.2955 7.25615 24.2955Z" fill="#84888C"/>
<path d="M24.2249 24.2955H22.7702C22.5921 24.2955 22.4468 24.1502 22.4468 23.9705C22.4468 23.7924 22.5921 23.6455 22.7702 23.6455H24.2249C24.4046 23.6455 24.5483 23.7924 24.5483 23.9705C24.5483 24.1502 24.4046 24.2955 24.2249 24.2955Z" fill="#84888C"/>
<path d="M26.3032 22.2893C26.125 22.2893 25.9797 22.1439 25.9797 21.9643V10.7361C25.9797 10.5564 26.125 10.4111 26.3032 10.4111C26.4813 10.4111 26.6266 10.5564 26.6266 10.7361V21.9643C26.6266 22.1439 26.4813 22.2893 26.3032 22.2893Z" fill="#84888C"/>
<path d="M8.05 23.114C7.87188 23.114 7.72656 22.9687 7.72656 22.789V10.0062C7.72656 9.82646 7.87188 9.68115 8.05 9.68115C8.22812 9.68115 8.37344 9.82646 8.37344 10.0062V22.789C8.37344 22.9687 8.22812 23.114 8.05 23.114Z" fill="#84888C"/>
<path d="M9.6125 23.1826C9.43438 23.1826 9.28906 23.0373 9.28906 22.8576V9.88262C9.28906 9.70449 9.43438 9.55762 9.6125 9.55762C9.79219 9.55762 9.93594 9.70449 9.93594 9.88262V22.8576C9.93594 23.0373 9.79219 23.1826 9.6125 23.1826Z" fill="#84888C"/>
<path d="M21.9812 23.114C21.8015 23.114 21.6577 22.9687 21.6577 22.789V10.0062C21.6577 9.82646 21.8015 9.68115 21.9812 9.68115C22.1593 9.68115 22.303 9.82646 22.303 10.0062V22.789C22.303 22.9687 22.1593 23.114 21.9812 23.114Z" fill="#84888C"/>
<path d="M20.4171 23.1826C20.2405 23.1826 20.0952 23.0373 20.0952 22.8576V9.88262C20.0952 9.70449 20.2405 9.55762 20.4171 9.55762C20.5968 9.55762 20.7405 9.70449 20.7405 9.88262V22.8576C20.7405 23.0373 20.5968 23.1826 20.4171 23.1826Z" fill="#84888C"/>
<path d="M12.0688 8.91699H12.0672C11.8891 8.91699 11.7454 8.77012 11.7454 8.59043L11.7516 7.09199C11.7532 6.9123 11.8969 6.76855 12.075 6.76855H12.0766C12.2547 6.77012 12.3985 6.91543 12.3985 7.09512L12.3922 8.59355C12.3907 8.77324 12.2469 8.91699 12.0688 8.91699Z" fill="#84888C"/>
<path d="M17.9609 8.91699C17.7828 8.91699 17.6391 8.77324 17.6375 8.59355L17.6328 7.09512C17.6313 6.91543 17.7766 6.77012 17.9547 6.76855H17.9563C18.1328 6.76855 18.2781 6.9123 18.2781 7.09199L18.2859 8.59043C18.2859 8.77012 18.1406 8.91699 17.9625 8.91699C17.9625 8.91699 17.9625 8.91699 17.9609 8.91699Z" fill="#84888C"/>
</svg>
