<svg width="23" height="23" viewBox="0 0 23 23" fill="none" xmlns="http://www.w3.org/2000/svg">
<path d="M7.1042 12.7122C7.72131 12.7122 8.22158 12.2119 8.22158 11.5948C8.22158 10.9777 7.72131 10.4774 7.1042 10.4774C6.48709 10.4774 5.98682 10.9777 5.98682 11.5948C5.98682 12.2119 6.48709 12.7122 7.1042 12.7122Z" fill="#F18BAD"/>
<path d="M14.926 12.7122C15.5431 12.7122 16.0434 12.2119 16.0434 11.5948C16.0434 10.9777 15.5431 10.4774 14.926 10.4774C14.3089 10.4774 13.8086 10.9777 13.8086 11.5948C13.8086 12.2119 14.3089 12.7122 14.926 12.7122Z" fill="#F18BAD"/>
<path d="M11.0148 12.7122C11.632 12.7122 12.1322 12.2119 12.1322 11.5948C12.1322 10.9777 11.632 10.4774 11.0148 10.4774C10.3977 10.4774 9.89746 10.9777 9.89746 11.5948C9.89746 12.2119 10.3977 12.7122 11.0148 12.7122Z" fill="#F18BAD"/>
<circle cx="11.2258" cy="11.2259" r="8.04516" stroke="#DDAFE7" stroke-opacity="0.3" stroke-width="1.87097"/>
</svg>
