<svg width="30" height="30" viewBox="0 0 30 30" fill="none" xmlns="http://www.w3.org/2000/svg">
<path d="M14.8874 8.93301C11.2358 8.93301 8.26553 11.9033 8.26553 15.5549C8.26553 19.2049 11.2358 22.1752 14.8874 22.1752C18.539 22.1752 21.5077 19.2049 21.5077 15.5549C21.5077 11.9033 18.539 8.93301 14.8874 8.93301ZM14.8874 22.7439C10.9233 22.7439 7.69678 19.5189 7.69678 15.5549C7.69678 11.5893 10.9233 8.36426 14.8874 8.36426C18.8515 8.36426 22.0765 11.5893 22.0765 15.5549C22.0765 19.5189 18.8515 22.7439 14.8874 22.7439Z" fill="#84888C"/>
<path d="M14.8874 10.1518C11.9077 10.1518 9.48428 12.5752 9.48428 15.5533C9.48428 18.533 11.9077 20.9564 14.8874 20.9564C17.8655 20.9564 20.289 18.533 20.289 15.5533C20.289 12.5752 17.8655 10.1518 14.8874 10.1518ZM14.8874 21.5252C11.5952 21.5252 8.91553 18.8471 8.91553 15.5533C8.91553 12.2627 11.5952 9.58301 14.8874 9.58301C18.1796 9.58301 20.8577 12.2627 20.8577 15.5533C20.8577 18.8471 18.1796 21.5252 14.8874 21.5252Z" fill="#84888C"/>
<path d="M14.8875 12.1889C13.0313 12.1889 11.5219 13.6982 11.5219 15.5545C11.5219 17.4092 13.0313 18.9201 14.8875 18.9201C16.7422 18.9201 18.2531 17.4092 18.2531 15.5545C18.2531 13.6982 16.7422 12.1889 14.8875 12.1889ZM14.8875 19.4873C12.7172 19.4873 10.9531 17.7232 10.9531 15.5545C10.9531 13.3842 12.7172 11.6201 14.8875 11.6201C17.0563 11.6201 18.8203 13.3842 18.8203 15.5545C18.8203 17.7232 17.0563 19.4873 14.8875 19.4873Z" fill="#84888C"/>
<path d="M5.20319 24.7468C4.30944 24.7468 3.70788 23.9718 3.70788 22.8187C3.70788 22.4812 3.80006 21.7312 3.91569 20.7812C4.17506 18.6405 4.65788 14.6546 4.11569 13.9921C3.65006 13.4265 2.9485 12.5702 3.04694 11.1843C3.12663 10.0718 3.34694 7.89211 3.35006 7.87023C3.36569 7.71398 3.50475 7.59992 3.661 7.61555C3.81725 7.63117 3.93131 7.7718 3.91413 7.92648C3.91256 7.94992 3.69381 10.1202 3.61413 11.2249C3.53756 12.2952 4.01569 12.9749 4.55475 13.6327C5.20006 14.4187 4.90163 17.3655 4.47975 20.8499C4.37038 21.7437 4.27819 22.5155 4.27819 22.8187C4.27819 23.6452 4.64069 24.178 5.20319 24.178C5.76569 24.178 6.12975 23.6452 6.12975 22.8187C6.12975 22.5155 6.036 21.7437 5.92663 20.8499C5.50475 17.3655 5.20631 14.4187 5.85163 13.6327C6.38288 12.9859 6.86256 12.2468 6.79225 11.2249C6.71413 10.103 6.49069 7.92805 6.48913 7.90773C6.4735 7.75305 6.58444 7.61398 6.73913 7.59523C6.89381 7.57961 7.03444 7.68898 7.05319 7.84367C7.05475 7.85773 7.27975 10.0452 7.35944 11.1859C7.45631 12.5734 6.66881 13.5327 6.29069 13.9921C5.74694 14.6546 6.23131 18.6405 6.49069 20.7812C6.60631 21.7312 6.69694 22.4812 6.69694 22.8187C6.69694 23.9718 6.09694 24.7468 5.20319 24.7468Z" fill="#84888C"/>
<path d="M24.1358 5.91412C24.1452 7.25162 24.1702 11.8516 24.1327 15.8172C24.1327 15.8235 24.1327 15.8297 24.1327 15.836C23.9733 17.9422 23.803 19.8063 23.6905 21.0391C23.6062 21.9626 23.5452 22.6313 23.5452 22.7891C23.5452 23.5563 24.003 24.1594 24.5858 24.1594C25.1702 24.1594 25.6265 23.5563 25.6265 22.7891C25.6265 22.4438 25.4983 21.6813 25.3499 20.7969C25.1233 19.4454 24.8124 17.5954 24.728 15.8954C24.7249 15.8126 24.7577 15.7313 24.8187 15.6735C24.8796 15.6172 24.964 15.5907 25.0468 15.6001C25.0952 15.6063 25.1437 15.6094 25.1905 15.6094C26.2171 15.6094 26.3858 14.036 26.3952 13.0985C26.4218 10.3204 25.1905 6.55787 24.1358 5.91412ZM24.5858 24.7282C23.6843 24.7282 22.978 23.8751 22.978 22.7891C22.978 22.6047 23.0327 21.9954 23.1249 20.986C23.2374 19.7579 23.4062 17.9016 23.564 15.8032C23.6093 11.136 23.5655 5.59225 23.564 5.536C23.564 5.45943 23.5937 5.386 23.6483 5.33131C23.703 5.27818 23.7702 5.2485 23.8546 5.25006C25.5499 5.28287 26.9921 10.1688 26.964 13.1032C26.939 15.6141 25.9702 16.1204 25.314 16.1719C25.4155 17.7532 25.6999 19.4454 25.9108 20.7032C26.0687 21.6485 26.1952 22.3969 26.1952 22.7891C26.1952 23.8751 25.489 24.7282 24.5858 24.7282Z" fill="#84888C"/>
<path d="M4.94541 11.3701H4.6501C4.49229 11.3701 4.36572 11.2436 4.36572 11.0857V7.88887C4.36572 7.73262 4.49229 7.60449 4.6501 7.60449C4.80635 7.60449 4.93447 7.73262 4.93447 7.88887V10.8014H4.94541C5.10322 10.8014 5.22979 10.9295 5.22979 11.0857C5.22979 11.2436 5.10322 11.3701 4.94541 11.3701Z" fill="#84888C"/>
<path d="M6.00312 11.3701H5.70625C5.55 11.3701 5.42188 11.2436 5.42188 11.0857V7.88887C5.42188 7.73262 5.55 7.60449 5.70625 7.60449C5.86406 7.60449 5.99062 7.73262 5.99062 7.88887V10.8014H6.00312C6.15937 10.8014 6.2875 10.9295 6.2875 11.0857C6.2875 11.2436 6.15937 11.3701 6.00312 11.3701Z" fill="#84888C"/>
</svg>
