<svg width="31" height="31" viewBox="0 0 31 31" fill="none" xmlns="http://www.w3.org/2000/svg">
<rect width="31" height="31" rx="15.5" fill="#F0FFEB"/>
<path d="M17.5697 10.6485H19.4182V19.5213C19.4182 19.7174 19.3403 19.9054 19.2016 20.0441C19.0629 20.1828 18.8749 20.2607 18.6788 20.2607H11.2848C11.0887 20.2607 10.9006 20.1828 10.762 20.0441C10.6233 19.9054 10.5454 19.7174 10.5454 19.5213V10.6485H12.3939M13.1333 15.8243L14.6121 17.3031L17.2 14.3455M12.7636 9.90912H17.2V11.3879C17.2 11.584 17.1221 11.7721 16.9834 11.9107C16.8448 12.0494 16.6567 12.1273 16.4606 12.1273H13.503C13.3069 12.1273 13.1188 12.0494 12.9802 11.9107C12.8415 11.7721 12.7636 11.584 12.7636 11.3879V9.90912Z" stroke="#2FA706" stroke-width="1.08182"/>
</svg>
