<svg width="31" height="31" viewBox="0 0 31 31" fill="none" xmlns="http://www.w3.org/2000/svg">
<rect width="31" height="31" rx="15.5" fill="#E7F5FF"/>
<path d="M8.3335 19.6666V18.3332H21.6668V19.6666H8.3335ZM9.00016 17.6666V16.9999C9.00016 15.5777 9.43638 14.3221 10.3088 13.2332C11.1808 12.1443 12.3002 11.4555 13.6668 11.1666V9.66656H16.3335V11.1666C17.7113 11.4555 18.8335 12.1443 19.7002 13.2332C20.5668 14.3221 21.0002 15.5777 21.0002 16.9999V17.6666H9.00016ZM10.3668 16.3332H19.6335C19.4779 15.1777 18.9613 14.2221 18.0835 13.4666C17.2057 12.711 16.1779 12.3332 15.0002 12.3332C13.8224 12.3332 12.7975 12.711 11.9255 13.4666C11.0531 14.2221 10.5335 15.1777 10.3668 16.3332Z" fill="#55ACEE"/>
</svg>
