<svg width="101" height="84" viewBox="0 0 101 84" fill="none" xmlns="http://www.w3.org/2000/svg">
<rect x="53" y="44" width="8" height="30" fill="#FFD8E8"/>
<path d="M53.5 44V50.5L57 50.6V55H60.5V49.5V44H53.5Z" fill="#EBA6C2" stroke="#EBA6C2" stroke-width="1.02618"/>
<path d="M68.9092 6.01228H33.6729V45.5757H84.3638V18.9941C84.3638 8.1141 74.0607 5.80622 68.9092 6.01228Z" fill="#FFD8E8" stroke="#FFD8E8" stroke-width="1.23636"/>
<path d="M59.374 25.1636H67.6726" stroke="#EBA6C2" stroke-width="0.618182"/>
<circle cx="57.7818" cy="25.1636" r="1.66909" stroke="#EBA6C2" stroke-width="0.370909"/>
<path d="M73.2365 24.5454H67.0547V29.8441L70.1456 27.1948L73.2365 29.8441V24.5454Z" fill="#461952" stroke="#461952" stroke-width="0.732987"/>
<path d="M18.8364 18.9818V45.5636H49.1273V18.9818C48.7152 14.6545 45.171 6 34.291 6C23.411 6 19.4546 14.6545 18.8364 18.9818Z" fill="#EBA6C2" stroke="#EBA6C2" stroke-width="1.23636"/>
<rect x="4" y="43.0909" width="45.7455" height="3.70909" fill="#F5D0FF"/>
</svg>
