<svg width="31" height="31" viewBox="0 0 31 31" fill="none" xmlns="http://www.w3.org/2000/svg">
<rect width="31" height="31" rx="15.5" fill="#FFEDCB"/>
<path d="M14.875 17.9999H16.125V15.4062L17.125 16.3906L18.0156 15.4999L15.5 12.9999L13 15.4999L13.8906 16.3749L14.875 15.3906V17.9999ZM10.5 20.4999C10.1563 20.4999 9.86208 20.3776 9.6175 20.1331C9.3725 19.8881 9.25 19.5937 9.25 19.2499V11.7499C9.25 11.4062 9.3725 11.112 9.6175 10.8674C9.86208 10.6224 10.1563 10.4999 10.5 10.4999H20.5C20.8438 10.4999 21.1381 10.6224 21.3831 10.8674C21.6277 11.112 21.75 11.4062 21.75 11.7499V19.2499C21.75 19.5937 21.6277 19.8881 21.3831 20.1331C21.1381 20.3776 20.8438 20.4999 20.5 20.4999H10.5ZM10.5 19.2499H20.5V11.7499H10.5V19.2499ZM10.5 19.2499V11.7499V19.2499Z" fill="#F5B842"/>
</svg>
