<svg width="30" height="30" viewBox="0 0 30 30" fill="none" xmlns="http://www.w3.org/2000/svg">
<path d="M25.4437 18.3344H16.0765C15.9125 18.3344 15.7781 18.1984 15.7781 18.0328V16.1422C15.7781 15.9766 15.9125 15.8406 16.0765 15.8406C16.2421 15.8406 16.375 15.9766 16.375 16.1422V17.7312H25.4437C26.1343 17.7312 26.6953 17.1641 26.6953 16.4656V10.7109C26.6953 10.0141 26.1343 9.44688 25.4437 9.44688H16.375V11.0531C16.375 11.2188 16.2421 11.3531 16.0765 11.3531C15.9125 11.3531 15.7781 11.2188 15.7781 11.0531V9.14531C15.7781 8.97812 15.9125 8.84375 16.0765 8.84375H25.4437C26.4625 8.84375 27.2921 9.68125 27.2921 10.7109V16.4656C27.2921 17.4953 26.4625 18.3344 25.4437 18.3344Z" fill="#84888C"/>
<path d="M20.4923 16.3455H15.2501C15.0845 16.3455 14.9517 16.2096 14.9517 16.0439V15.2486C14.9517 15.0814 15.0845 14.9471 15.2501 14.9471C15.4142 14.9471 15.547 15.0814 15.547 15.2486V15.7439H20.4923C20.9595 15.7439 21.3392 15.3596 21.3392 14.8861V12.2924C21.3392 11.8189 20.9595 11.4346 20.4923 11.4346H15.547V11.8768C15.547 12.0424 15.4142 12.1768 15.2501 12.1768C15.0845 12.1768 14.9517 12.0424 14.9517 11.8768V11.1346C14.9517 10.9674 15.0845 10.833 15.2501 10.833H20.4923C21.2892 10.833 21.936 11.4877 21.936 12.2924V14.8861C21.936 15.6908 21.2892 16.3455 20.4923 16.3455Z" fill="#84888C"/>
<path d="M15.8219 15.4984H14.45C14.286 15.4984 14.1516 15.3625 14.1516 15.1969C14.1516 15.0297 14.286 14.8953 14.45 14.8953H15.8219C15.8547 14.8953 15.8829 14.8672 15.8829 14.8344V12.3438C15.8829 12.3109 15.8547 12.2828 15.8219 12.2828H14.45C14.286 12.2828 14.1516 12.1469 14.1516 11.9813C14.1516 11.8141 14.286 11.6797 14.45 11.6797H15.8219C16.1844 11.6797 16.4782 11.9766 16.4782 12.3438V14.8344C16.4782 15.2 16.1844 15.4984 15.8219 15.4984Z" fill="#84888C"/>
<path d="M10.9124 25.553H7.04834C5.4374 25.553 4.12646 24.228 4.12646 22.5999V17.2562C4.12646 17.089 4.25928 16.9546 4.4249 16.9546C4.58896 16.9546 4.72178 17.089 4.72178 17.2562V22.5999C4.72178 23.8952 5.76553 24.9499 7.04834 24.9499H10.9124C12.1952 24.9499 13.2374 23.8952 13.2374 22.5999V17.2562C13.2374 17.089 13.3718 16.9546 13.5358 16.9546C13.7015 16.9546 13.8343 17.089 13.8343 17.2562V22.5999C13.8343 24.228 12.5233 25.553 10.9124 25.553Z" fill="#84888C"/>
<path d="M4.4249 10.4017C4.25928 10.4017 4.12646 10.2657 4.12646 10.1001V8.55322C4.12646 6.9251 5.4374 5.6001 7.04834 5.6001H10.9124C12.5233 5.6001 13.8343 6.9251 13.8343 8.55322V9.94541C13.8343 10.111 13.7015 10.247 13.5358 10.247C13.3718 10.247 13.2374 10.111 13.2374 9.94541V8.55322C13.2374 7.25635 12.1952 6.20322 10.9124 6.20322H7.04834C5.76553 6.20322 4.72178 7.25635 4.72178 8.55322V10.1001C4.72178 10.2657 4.58896 10.4017 4.4249 10.4017Z" fill="#84888C"/>
<path d="M8.97969 8.15C6.01094 8.15 3.59688 10.5891 3.59688 13.5891C3.59688 16.5891 6.01094 19.0281 8.97969 19.0281C11.9484 19.0281 14.3641 16.5891 14.3641 13.5891C14.3641 10.5891 11.9484 8.15 8.97969 8.15ZM8.97969 19.6313C5.68281 19.6313 3 16.9203 3 13.5891C3 10.2578 5.68281 7.54688 8.97969 7.54688C12.2781 7.54688 14.9609 10.2578 14.9609 13.5891C14.9609 16.9203 12.2781 19.6313 8.97969 19.6313Z" fill="#84888C"/>
<path d="M8.97978 9.30771C6.64385 9.30771 4.74228 11.228 4.74228 13.589C4.74228 15.9499 6.64385 17.8702 8.97978 17.8702C11.3173 17.8702 13.2173 15.9499 13.2173 13.589C13.2173 11.228 11.3173 9.30771 8.97978 9.30771ZM8.97978 18.4718C6.31572 18.4718 4.14697 16.2812 4.14697 13.589C4.14697 10.8952 6.31572 8.70459 8.97978 8.70459C11.6454 8.70459 13.8142 10.8952 13.8142 13.589C13.8142 16.2812 11.6454 18.4718 8.97978 18.4718Z" fill="#84888C"/>
<path d="M7.44854 15.3607H10.511C11.0204 14.9123 11.3095 14.2732 11.3095 13.5889C11.3095 12.9045 11.0204 12.2639 10.511 11.8154H7.44854C6.93916 12.2639 6.6501 12.9045 6.6501 13.5889C6.6501 14.2732 6.93916 14.9123 7.44854 15.3607ZM10.6204 15.9639H7.34072C7.27197 15.9639 7.20635 15.9404 7.15322 15.8982C6.45479 15.3326 6.05322 14.492 6.05322 13.5889C6.05322 12.6857 6.45479 11.8436 7.15479 11.2795C7.20635 11.2373 7.27197 11.2139 7.34072 11.2139H10.6204C10.6876 11.2139 10.7532 11.2373 10.8063 11.2795C11.5048 11.8436 11.9063 12.6857 11.9063 13.5889C11.9063 14.492 11.5048 15.3326 10.8063 15.8982C10.7532 15.9404 10.6876 15.9639 10.6204 15.9639Z" fill="#84888C"/>
<path d="M9.00152 14.636C8.84684 14.636 8.6984 14.6017 8.55777 14.5345C8.32027 14.4188 8.13746 14.2188 8.04215 13.972C7.9859 13.8251 8.05934 13.6595 8.20308 13.6032C8.2359 13.5907 8.27027 13.5845 8.30621 13.5845C8.42183 13.5845 8.52652 13.6563 8.56871 13.7657C8.6109 13.8782 8.69371 13.9688 8.80152 14.0204C8.86402 14.0501 8.93121 14.0657 9.00152 14.0657C9.17965 14.0657 9.34527 13.961 9.42183 13.7985C9.53277 13.5657 9.43434 13.2845 9.20308 13.172C9.13434 13.1392 9.08433 13.0829 9.05933 13.011C9.03277 12.9392 9.03746 12.861 9.07027 12.7923C9.11715 12.6938 9.21715 12.6313 9.32496 12.6313C9.36715 12.6313 9.40777 12.6407 9.44683 12.6595C9.81871 12.8376 10.0484 13.2251 10.0296 13.6423C10.025 13.7813 9.99058 13.9173 9.92965 14.0454C9.75933 14.4048 9.39527 14.636 9.00152 14.636Z" fill="#84888C"/>
</svg>
