<svg width="23" height="23" viewBox="0 0 23 23" fill="none" xmlns="http://www.w3.org/2000/svg">
<path d="M18.7093 5.61288H16.67C16.7729 5.32288 16.8383 5.00481 16.8383 4.6774C16.8394 4.07384 16.6455 3.48609 16.2856 3.00156C15.9258 2.51704 15.4191 2.16163 14.841 1.9882C14.2629 1.81477 13.6443 1.83259 13.0771 2.039C12.5099 2.24542 12.0246 2.62941 11.6932 3.13385L11.2254 3.76062L10.7577 3.12449C10.2525 2.3761 9.40125 1.87094 8.41899 1.87094C6.86609 1.87094 5.61254 3.12449 5.61254 4.6774C5.61254 5.00481 5.67802 5.32288 5.78093 5.61288H3.74157C2.70319 5.61288 1.87996 6.44546 1.87996 7.48385L1.87061 17.7742C1.87061 18.8126 2.70319 19.6451 3.74157 19.6451H18.7093C19.7477 19.6451 20.5803 18.8126 20.5803 17.7742V7.48385C20.5803 6.44546 19.7477 5.61288 18.7093 5.61288ZM14.0319 3.74191C14.5464 3.74191 14.9674 4.16288 14.9674 4.6774C14.9674 5.19191 14.5464 5.61288 14.0319 5.61288C13.5174 5.61288 13.0964 5.19191 13.0964 4.6774C13.0964 4.16288 13.5174 3.74191 14.0319 3.74191ZM8.41899 3.74191C8.93351 3.74191 9.35448 4.16288 9.35448 4.6774C9.35448 5.19191 8.93351 5.61288 8.41899 5.61288C7.90448 5.61288 7.48351 5.19191 7.48351 4.6774C7.48351 4.16288 7.90448 3.74191 8.41899 3.74191ZM18.7093 17.7742H3.74157V15.9032H18.7093V17.7742ZM18.7093 13.0968H3.74157V7.48385H8.49383L6.54802 10.1313L8.06351 11.2258L10.29 8.19482L11.2254 6.92256L12.1609 8.19482L14.3874 11.2258L15.9029 10.1313L13.9571 7.48385H18.7093V13.0968Z" fill="#DDAFE7" fill-opacity="0.3"/>
<path d="M3 14H19" stroke="#F18BAD" stroke-width="2.5"/>
</svg>
