<svg width="30" height="30" viewBox="0 0 30 30" fill="none" xmlns="http://www.w3.org/2000/svg">
<path d="M4.21411 8.31543L8.65942 13.8342L13.0657 8.28887L12.0782 6.83418H5.20004L4.21411 8.31543ZM8.66098 14.6217C8.56879 14.6217 8.48285 14.5795 8.42504 14.5092L3.60161 8.52168C3.51879 8.41855 3.51254 8.27481 3.58598 8.16543L4.78286 6.36543C4.83911 6.28105 4.93442 6.22949 5.03598 6.22949H12.2391C12.3391 6.22949 12.4329 6.27949 12.4907 6.3623L13.6938 8.13262C13.7688 8.24199 13.7625 8.38574 13.6813 8.48887L8.90004 14.5061C8.84223 14.5795 8.75473 14.6217 8.66254 14.6217C8.66254 14.6217 8.66254 14.6217 8.66098 14.6217Z" fill="#84888C"/>
<path d="M4.62032 12.9125C4.53439 12.9125 4.44845 12.875 4.38751 12.8046C4.01407 12.3625 3.83595 11.8031 3.88595 11.2265C3.93595 10.6515 4.20782 10.1296 4.65157 9.75777C4.7797 9.65152 4.97032 9.66714 5.0797 9.79527C5.18751 9.92339 5.17032 10.114 5.0422 10.2203C4.38282 10.7734 4.29689 11.7578 4.85314 12.4156C4.96095 12.5437 4.94376 12.7343 4.81564 12.8406C4.75939 12.889 4.68907 12.9125 4.62032 12.9125Z" fill="#84888C"/>
<path d="M12.6609 12.9126C12.5922 12.9126 12.5218 12.8892 12.4656 12.8407C12.3375 12.7345 12.3203 12.5439 12.4281 12.4157C12.9843 11.7579 12.8984 10.7735 12.239 10.2204C12.1109 10.1142 12.0937 9.92355 12.2015 9.79542C12.3109 9.6673 12.5015 9.65011 12.6297 9.75792C13.0734 10.1298 13.3453 10.6517 13.3953 11.2267C13.4453 11.8032 13.2672 12.3626 12.8937 12.8048C12.8328 12.8751 12.7468 12.9126 12.6609 12.9126Z" fill="#84888C"/>
<path d="M13.389 8.63145H3.87183C3.70308 8.63145 3.56714 8.49707 3.56714 8.32988C3.56714 8.1627 3.70308 8.02832 3.87183 8.02832H13.389C13.5562 8.02832 13.6921 8.1627 13.6921 8.32988C13.6921 8.49707 13.5562 8.63145 13.389 8.63145Z" fill="#84888C"/>
<path d="M8.64055 14.4674C8.51712 14.4674 8.39993 14.3908 8.35618 14.2689L6.20149 8.40957C6.14368 8.25331 6.22493 8.07988 6.38274 8.02207C6.53899 7.96425 6.71399 8.0455 6.77024 8.20175L8.92493 14.0611C8.98274 14.2174 8.90149 14.3924 8.74524 14.4486C8.71087 14.4611 8.67493 14.4674 8.64055 14.4674Z" fill="#84888C"/>
<path d="M8.64067 14.4671C8.6063 14.4671 8.57036 14.4608 8.53755 14.4483C8.37973 14.3921 8.29848 14.2171 8.35473 14.0608L10.4938 8.2374C10.5516 8.08115 10.7266 7.9999 10.8829 8.05771C11.0407 8.11552 11.1219 8.28896 11.0641 8.44521L8.92661 14.2686C8.87973 14.3905 8.76411 14.4671 8.64067 14.4671Z" fill="#84888C"/>
<path d="M6.48589 8.60762C6.39527 8.60762 6.30621 8.567 6.24527 8.49044L4.91089 6.77012C4.80933 6.63887 4.83433 6.44981 4.96558 6.34669C5.09839 6.24512 5.28902 6.27012 5.39214 6.40137L6.72652 8.12012C6.82964 8.25293 6.80464 8.442 6.67183 8.54356C6.61558 8.58731 6.55152 8.60762 6.48589 8.60762Z" fill="#84888C"/>
<path d="M6.48599 8.60777C6.39849 8.60777 6.30943 8.56871 6.25006 8.49527C6.14537 8.36558 6.16568 8.17496 6.29537 8.07027L8.45006 6.33746C8.57974 6.23277 8.77037 6.25308 8.87662 6.38277C8.98131 6.51246 8.96099 6.70308 8.83131 6.80777L6.67662 8.54058C6.62037 8.5859 6.55318 8.60777 6.48599 8.60777Z" fill="#84888C"/>
<path d="M10.7891 8.62325C10.7219 8.62325 10.6532 8.60137 10.5985 8.5545L8.44848 6.80606C8.3188 6.70137 8.30005 6.51075 8.40473 6.38106C8.51098 6.25137 8.70317 6.23262 8.83286 6.33887L10.9813 8.08731C11.1125 8.192 11.1313 8.38262 11.025 8.51231C10.9641 8.58575 10.8782 8.62325 10.7891 8.62325Z" fill="#84888C"/>
<path d="M10.7891 8.62339C10.7204 8.62339 10.6501 8.59995 10.5938 8.55152C10.4657 8.44214 10.4501 8.25152 10.5594 8.12495L11.961 6.48745C12.0688 6.35933 12.261 6.34527 12.3891 6.45308C12.5157 6.56089 12.5313 6.75152 12.4235 6.87808L11.0219 8.51714C10.961 8.58745 10.8751 8.62339 10.7891 8.62339Z" fill="#84888C"/>
<path d="M8.64058 23.6233C5.17495 23.6233 2.3562 20.8171 2.3562 17.3686C2.3562 15.2452 3.42495 13.2842 5.21558 12.1233C5.3562 12.0327 5.5437 12.0733 5.63433 12.2124C5.72651 12.353 5.68745 12.5389 5.54526 12.6296C3.92964 13.6796 2.96401 15.4499 2.96401 17.3686C2.96401 20.4842 5.51089 23.0186 8.64058 23.0186C11.7703 23.0186 14.3171 20.4842 14.3171 17.3686C14.3171 15.4405 13.3453 13.6655 11.7156 12.6186C11.575 12.528 11.5343 12.3405 11.625 12.2014C11.7171 12.0608 11.9046 12.0202 12.0453 12.1108C13.8484 13.2702 14.925 15.2342 14.925 17.3686C14.925 20.8171 12.1062 23.6233 8.64058 23.6233Z" fill="#84888C"/>
<path d="M8.64062 22.0314C6.06406 22.0314 3.96875 19.9454 3.96875 17.3814C3.96875 15.7611 4.79375 14.2829 6.17812 13.4283C6.32031 13.3392 6.50781 13.3829 6.59687 13.5251C6.68594 13.6673 6.64062 13.8533 6.49844 13.9408C5.29375 14.6861 4.575 15.972 4.575 17.3814C4.575 19.6126 6.39844 21.4267 8.64062 21.4267C10.8828 21.4267 12.7063 19.6126 12.7063 17.3814C12.7063 15.8486 11.8516 14.4658 10.4781 13.772C10.3297 13.6954 10.2703 13.5142 10.3453 13.3658C10.4219 13.2158 10.6047 13.1579 10.7531 13.2329C12.3328 14.0298 13.3125 15.6204 13.3125 17.3814C13.3125 19.9454 11.2172 22.0314 8.64062 22.0314Z" fill="#84888C"/>
<path d="M19.7702 23.6236C17.7499 23.6236 15.8359 22.8564 14.3796 21.4627C14.2593 21.3471 14.2546 21.1549 14.3702 21.0346C14.4874 20.9158 14.6796 20.9111 14.7999 21.0268C16.1421 22.3111 17.9077 23.0189 19.7702 23.0189C23.7265 23.0189 26.9437 19.8174 26.9437 15.8799C26.9437 11.9439 23.7265 8.74238 19.7702 8.74238C17.7359 8.74238 15.7874 9.60801 14.4281 11.1189C14.3171 11.2424 14.1249 11.2533 13.9999 11.1424C13.8749 11.0299 13.864 10.8393 13.9765 10.7158C15.4499 9.07676 17.5624 8.1377 19.7702 8.1377C24.0609 8.1377 27.5515 11.6111 27.5515 15.8799C27.5515 20.1502 24.0609 23.6236 19.7702 23.6236Z" fill="#84888C"/>
<path d="M19.7798 21.9764C18.1095 21.9764 16.5501 21.3201 15.386 20.1279C15.2704 20.0076 15.2735 19.817 15.3923 19.6998C15.5126 19.5842 15.7048 19.5873 15.822 19.7061C16.8704 20.7795 18.2751 21.3717 19.7798 21.3717C22.822 21.3717 25.297 18.9092 25.297 15.8795C25.297 12.8529 22.822 10.3889 19.7798 10.3889C17.6626 10.3889 15.7657 11.5639 14.8282 13.4561C14.7548 13.6045 14.572 13.667 14.422 13.592C14.272 13.5186 14.2095 13.3373 14.2845 13.1889C15.3235 11.0889 17.4298 9.78418 19.7798 9.78418C23.1563 9.78418 25.9032 12.5186 25.9032 15.8795C25.9032 19.2404 23.1563 21.9764 19.7798 21.9764Z" fill="#84888C"/>
</svg>
