<svg width="30" height="30" viewBox="0 0 30 30" fill="none" xmlns="http://www.w3.org/2000/svg">
<path d="M6.14229 23.4719H5.40322C4.59385 23.4719 3.93604 22.8234 3.93604 22.0266V19.3859C3.93604 19.2328 4.06104 19.1094 4.21572 19.1094C4.37041 19.1094 4.49541 19.2328 4.49541 19.3859V22.0266C4.49541 22.5188 4.90166 22.9203 5.40322 22.9203H6.14229C6.64229 22.9203 7.04854 22.5188 7.04854 22.0266V20.8641C7.04854 20.7109 7.1751 20.5875 7.32822 20.5875C7.48291 20.5875 7.60947 20.7109 7.60947 20.8641V22.0266C7.60947 22.8234 6.9501 23.4719 6.14229 23.4719Z" fill="#84888C"/>
<path d="M24.8171 23.4719H24.078C23.2687 23.4719 22.6108 22.8234 22.6108 22.0266V20.8641C22.6108 20.7109 22.7358 20.5875 22.8921 20.5875C23.0452 20.5875 23.1702 20.7109 23.1702 20.8641V22.0266C23.1702 22.5188 23.578 22.9203 24.078 22.9203H24.8171C25.3171 22.9203 25.7233 22.5188 25.7233 22.0266V19.3859C25.7233 19.2328 25.8483 19.1094 26.003 19.1094C26.1577 19.1094 26.2827 19.2328 26.2827 19.3859V22.0266C26.2827 22.8234 25.6249 23.4719 24.8171 23.4719Z" fill="#84888C"/>
<path d="M2.9249 11.2406C3.08115 11.3344 3.7124 11.4531 4.60302 11.4531C4.99833 11.4531 5.24833 11.4266 5.34833 11.4047C5.46396 11.1609 5.54208 10.2203 5.50458 9.86875C5.47958 9.86562 5.44833 9.86406 5.41083 9.86406C4.77177 9.86406 3.45458 10.4234 3.0374 10.9734C2.97958 11.0469 2.91865 11.15 2.9249 11.2406ZM4.60302 12.0047C3.67177 12.0047 2.53427 11.9047 2.39365 11.4297C2.34208 11.2547 2.33427 10.9766 2.58896 10.6422C3.1249 9.9375 4.6124 9.3125 5.41083 9.3125C5.58896 9.3125 5.7374 9.34219 5.85458 9.40156C6.02958 9.49062 6.05302 9.69531 6.06552 9.91406C6.06552 9.93125 6.10771 11.5859 5.67177 11.8672C5.62021 11.9016 5.45927 12.0047 4.60302 12.0047Z" fill="#84888C"/>
<path d="M5.02034 20.3016C5.41878 20.4859 9.07659 20.6813 15.1094 20.6813C21.1422 20.6813 24.8016 20.4859 25.2 20.3016C25.7578 19.8844 26.2766 17.1094 25.9407 16.3203C25.1157 14.3688 23.4657 12.5625 23.45 12.5438C23.4219 12.5156 23.4016 12.4797 23.3907 12.4422C22.6735 10.2094 21.675 7.66875 21.3125 7.45469C20.8594 7.24062 18.4219 6.92813 15.6407 6.92813C15.4657 6.92813 15.2907 6.92812 15.1141 6.93125C14.9485 6.92969 14.7922 6.92813 14.6375 6.92813C11.7235 6.92813 9.32972 7.30781 8.91722 7.50156C8.55628 7.7125 7.55159 10.2313 6.82972 12.4437C6.81722 12.4813 6.7969 12.5156 6.77034 12.5438C6.75315 12.5625 5.10315 14.3719 4.27815 16.3203C3.94378 17.1094 4.46253 19.8844 5.02034 20.3016ZM15.1094 21.2328C12.825 21.2328 5.3219 21.1984 4.69847 20.7547C3.86878 20.1625 3.35003 17.0797 3.76097 16.1062C4.56097 14.2203 6.04378 12.5203 6.31409 12.2188C6.80784 10.7141 7.98284 7.33125 8.67503 7.00469C9.30315 6.70781 11.986 6.375 14.6375 6.375C14.7953 6.375 14.9547 6.37812 15.1141 6.37969C15.2844 6.37656 15.4641 6.375 15.6407 6.375C18.4 6.375 20.9735 6.68281 21.5578 6.95781C22.25 7.28594 23.4172 10.7016 23.9063 12.2203C24.1782 12.5234 25.6594 14.2219 26.4578 16.1062C26.8703 17.0797 26.3516 20.1625 25.5203 20.7547C24.8985 21.1984 17.3953 21.2328 15.1094 21.2328Z" fill="#84888C"/>
<path d="M15.111 17.3125C11.236 17.3125 7.47978 17.0719 3.94541 16.5938C3.79228 16.5735 3.68603 16.4344 3.70635 16.2844C3.72822 16.1329 3.86728 16.0266 4.02197 16.0469C7.52978 16.5204 11.2595 16.761 15.111 16.761C18.9595 16.761 22.6907 16.5204 26.1985 16.0469C26.3517 16.0266 26.4923 16.1329 26.5126 16.2844C26.5345 16.4344 26.4267 16.5735 26.2735 16.5938C22.7407 17.0719 18.986 17.3125 15.111 17.3125Z" fill="#84888C"/>
<path d="M7.94074 19.2658C8.86261 19.3689 11.3423 19.4736 14.9439 19.4736C18.547 19.4736 21.0251 19.3689 21.947 19.2658C22.0157 19.047 22.0845 18.7392 22.1345 18.4173C19.6564 18.6189 17.2267 18.6377 14.9439 18.6377C12.1689 18.6377 9.97199 18.6002 7.75324 18.4173C7.80323 18.7392 7.87199 19.047 7.94074 19.2658ZM14.9439 20.0252C11.0485 20.0252 8.49699 19.908 7.69386 19.7908C7.59699 19.7767 7.51261 19.7127 7.47511 19.622C7.32511 19.258 7.2048 18.6158 7.15167 18.1423C7.1423 18.0595 7.17042 17.9783 7.2298 17.9189C7.28761 17.8595 7.37199 17.8298 7.4548 17.8377C9.77199 18.0439 12.0392 18.0845 14.9439 18.0845C17.322 18.0845 19.8579 18.0658 22.4329 17.8377C22.5189 17.8314 22.6001 17.8595 22.6595 17.9189C22.7173 17.9783 22.7454 18.0611 22.7376 18.1423C22.6829 18.6173 22.5626 19.258 22.4126 19.622C22.3751 19.7127 22.2923 19.7767 22.1939 19.7908C21.3907 19.908 18.8392 20.0252 14.9439 20.0252Z" fill="#84888C"/>
<path d="M8.75145 12.6346C10.239 13.5408 13.414 15.3424 15.1108 15.3424C16.8077 15.3424 19.9811 13.5408 21.4686 12.6346H8.75145ZM15.1108 15.8955C12.6874 15.8955 7.84052 12.7236 7.63427 12.5893C7.5327 12.5221 7.48583 12.3955 7.52177 12.2799C7.5577 12.1627 7.66708 12.083 7.79052 12.083H22.4296C22.553 12.083 22.6624 12.1627 22.6968 12.2799C22.7327 12.3955 22.6874 12.5221 22.5843 12.5893C22.3796 12.7236 17.5327 15.8955 15.1108 15.8955Z" fill="#84888C"/>
<path d="M6.62823 14.3266C6.60323 14.3266 6.58916 14.3281 6.58291 14.3297C6.54385 14.3375 6.51729 14.3844 6.50166 14.4672C6.44698 14.7844 6.6376 15.2547 6.81573 15.3625C7.06885 15.5156 8.56416 15.6859 9.38604 15.6859C9.46573 15.6859 9.52198 15.6844 9.55791 15.6812C8.7126 15.0578 7.13604 14.3266 6.62823 14.3266ZM9.38604 16.1844C8.75479 16.1844 6.97823 16.0438 6.55166 15.7859C6.14854 15.5422 5.92666 14.8313 6.00479 14.3828C6.05635 14.0922 6.22823 13.8953 6.47823 13.8422C6.52354 13.8328 6.57354 13.8281 6.62823 13.8281C7.36729 13.8281 9.15948 14.7438 9.93604 15.3406C10.072 15.4438 10.1392 15.5938 10.1204 15.75C10.0985 15.9172 9.98448 16.0609 9.8126 16.1359C9.74698 16.1641 9.6501 16.1844 9.38604 16.1844Z" fill="#84888C"/>
<path d="M20.6609 15.6812C20.6984 15.6844 20.7531 15.6859 20.8344 15.6859C21.6563 15.6859 23.1516 15.5156 23.4047 15.3625C23.5828 15.2547 23.7734 14.7844 23.7172 14.4672C23.7031 14.3844 23.6766 14.3375 23.6375 14.3297C23.6313 14.3281 23.6172 14.3266 23.5922 14.3266C23.0844 14.3266 21.5078 15.0578 20.6609 15.6812ZM20.4078 16.1359C20.2359 16.0609 20.1203 15.9172 20.1 15.75C20.0797 15.5938 20.1469 15.4438 20.2828 15.3406C21.0609 14.7438 22.8531 13.8281 23.5922 13.8281C23.6469 13.8281 23.6953 13.8328 23.7406 13.8422C23.9906 13.8953 24.1641 14.0922 24.2156 14.3828C24.2938 14.8313 24.0719 15.5422 23.6688 15.7859C23.2406 16.0438 21.4656 16.1844 20.8344 16.1844C20.5703 16.1844 20.4734 16.1641 20.4078 16.1359Z" fill="#84888C"/>
<path d="M8.77493 10.7032H21.4515C21.0734 9.55631 20.6202 8.57194 20.4156 8.47194C20.0984 8.37037 17.9327 8.21725 15.6031 8.21725C15.439 8.21725 15.2749 8.21725 15.1124 8.21881C14.9765 8.21881 14.8452 8.21725 14.7156 8.21725C12.5312 8.21725 10.1937 8.3985 9.82493 8.51569C9.62337 8.61256 9.164 9.57662 8.77493 10.7032ZM21.8234 11.2547H8.39525C8.30931 11.2547 8.22806 11.2126 8.1765 11.1407C8.12493 11.0688 8.11087 10.9766 8.139 10.8922C8.39993 10.0829 9.07025 8.17819 9.66243 7.98912C10.1484 7.83444 12.7656 7.64225 15.1124 7.66725C15.2718 7.66569 15.4374 7.66569 15.6031 7.66569C17.7484 7.66569 20.1218 7.7985 20.5827 7.94694C21.1562 8.12975 21.7687 9.8735 22.0827 10.8969C22.1077 10.9797 22.0937 11.0719 22.0421 11.1422C21.9906 11.2126 21.9093 11.2547 21.8234 11.2547Z" fill="#84888C"/>
<path d="M6.39371 12.7268C6.37965 12.7268 6.36715 12.7268 6.35153 12.7253C6.19996 12.7018 6.09371 12.5612 6.11715 12.4112C6.23278 11.644 5.70621 11.0721 5.62809 11.0174C5.50153 10.9315 5.47028 10.7581 5.55934 10.6331C5.64684 10.5096 5.82184 10.4784 5.9484 10.5659C6.19371 10.7346 6.81871 11.5049 6.67028 12.4924C6.64996 12.6284 6.52965 12.7268 6.39371 12.7268Z" fill="#84888C"/>
<path d="M24.8125 11.3983C24.9125 11.4202 25.1625 11.4468 25.5578 11.4468C26.4484 11.4468 27.0781 11.328 27.2344 11.2343C27.2406 11.1437 27.1812 11.0405 27.1234 10.9671C26.7047 10.4171 25.389 9.85771 24.75 9.85771C24.7125 9.85771 24.6812 9.85928 24.6562 9.8624C24.6187 10.214 24.6969 11.1546 24.8125 11.3983ZM25.5578 11.9983C24.7015 11.9983 24.5406 11.8952 24.4875 11.8608C24.0453 11.5749 24.0937 9.9249 24.0953 9.90771C24.1062 9.68896 24.1312 9.48428 24.3062 9.39521C24.4219 9.33584 24.5719 9.30615 24.75 9.30615C25.5469 9.30615 27.0359 9.93271 27.5719 10.6358C27.8265 10.9702 27.8172 11.2483 27.7656 11.4233C27.6265 11.8983 26.4875 11.9983 25.5578 11.9983Z" fill="#84888C"/>
<path d="M23.7 12.6705C23.5641 12.6705 23.4437 12.572 23.4234 12.4345C23.275 11.4517 23.9594 10.733 24.2125 10.5595C24.3391 10.472 24.5141 10.5033 24.6016 10.6267C24.6906 10.7517 24.6594 10.9252 24.5328 11.0111C24.3969 11.1064 23.8687 11.6408 23.9766 12.3533C24 12.5033 23.8937 12.6439 23.7406 12.6674C23.7281 12.6689 23.7141 12.6705 23.7 12.6705Z" fill="#84888C"/>
<path d="M5.23428 23.3501C5.08115 23.3501 4.95459 23.2267 4.95459 23.0735V20.8204C4.95459 20.6688 5.08115 20.5454 5.23428 20.5454C5.38896 20.5454 5.51553 20.6688 5.51553 20.8204V23.0735C5.51553 23.2267 5.38896 23.3501 5.23428 23.3501Z" fill="#84888C"/>
<path d="M6.22964 23.3501C6.07651 23.3501 5.94995 23.2267 5.94995 23.0735V20.8204C5.94995 20.6688 6.07651 20.5454 6.22964 20.5454C6.38433 20.5454 6.51089 20.6688 6.51089 20.8204V23.0735C6.51089 23.2267 6.38433 23.3501 6.22964 23.3501Z" fill="#84888C"/>
<path d="M24.9843 23.3501C24.8296 23.3501 24.7046 23.2267 24.7046 23.0735V20.8204C24.7046 20.6688 24.8296 20.5454 24.9843 20.5454C25.139 20.5454 25.264 20.6688 25.264 20.8204V23.0735C25.264 23.2267 25.139 23.3501 24.9843 23.3501Z" fill="#84888C"/>
<path d="M23.9892 23.3501C23.8345 23.3501 23.7095 23.2267 23.7095 23.0735V20.8204C23.7095 20.6688 23.8345 20.5454 23.9892 20.5454C24.1438 20.5454 24.2688 20.6688 24.2688 20.8204V23.0735C24.2688 23.2267 24.1438 23.3501 23.9892 23.3501Z" fill="#84888C"/>
</svg>
