<svg width="23" height="23" viewBox="0 0 23 23" fill="none" xmlns="http://www.w3.org/2000/svg">
<g clip-path="url(#clip0_1384_1731)">
<path d="M1.87097 11.2259C1.87097 8.61587 3.40516 6.36136 5.6129 5.31362V3.27426C2.33871 4.45297 0 7.56813 0 11.2259C0 14.8836 2.33871 17.9988 5.6129 19.1775V17.1381C3.40516 16.0904 1.87097 13.8359 1.87097 11.2259ZM14.0323 2.80652C9.39226 2.80652 5.6129 6.58587 5.6129 11.2259C5.6129 15.8659 9.39226 19.6452 14.0323 19.6452C18.6723 19.6452 22.4516 15.8659 22.4516 11.2259C22.4516 6.58587 18.6723 2.80652 14.0323 2.80652ZM14.0323 17.7743C10.4213 17.7743 7.48387 14.8368 7.48387 11.2259C7.48387 7.61491 10.4213 4.67749 14.0323 4.67749C17.6432 4.67749 20.5806 7.61491 20.5806 11.2259C20.5806 14.8368 17.6432 17.7743 14.0323 17.7743Z" fill="#DDAFE7" fill-opacity="0.3"/>
<path d="M17.6139 9.19647L16.2855 7.87744L14.3023 9.86067L12.319 7.87744L11 9.19647L12.9832 11.1797L11 13.1629L12.319 14.4913L14.3023 12.4987L16.2855 14.4913L17.6139 13.1629L15.6213 11.1797" fill="#F18BAD"/>
</g>
<defs>
<clipPath id="clip0_1384_1731">
<rect width="22.4516" height="22.4516" fill="white"/>
</clipPath>
</defs>
</svg>
