<svg width="23" height="23" viewBox="0 0 23 23" fill="none" xmlns="http://www.w3.org/2000/svg">
<path d="M17.7739 2.80651H13.8636C13.4707 1.72135 12.4416 0.935547 11.2255 0.935547C10.0094 0.935547 8.98035 1.72135 8.58744 2.80651H4.67712C4.18091 2.80651 3.70502 3.00363 3.35415 3.35451C3.00327 3.70538 2.80615 4.18127 2.80615 4.67748V17.7743C2.80615 18.2705 3.00327 18.7464 3.35415 19.0972C3.70502 19.4481 4.18091 19.6452 4.67712 19.6452H17.7739C18.2701 19.6452 18.746 19.4481 19.0969 19.0972C19.4477 18.7464 19.6449 18.2705 19.6449 17.7743V4.67748C19.6449 4.18127 19.4477 3.70538 19.0969 3.35451C18.746 3.00363 18.2701 2.80651 17.7739 2.80651ZM11.2255 2.80651C11.4736 2.80651 11.7116 2.90507 11.887 3.08051C12.0624 3.25595 12.161 3.49389 12.161 3.742C12.161 3.9901 12.0624 4.22805 11.887 4.40349C11.7116 4.57892 11.4736 4.67748 11.2255 4.67748C10.9774 4.67748 10.7395 4.57892 10.564 4.40349C10.3886 4.22805 10.29 3.9901 10.29 3.742C10.29 3.49389 10.3886 3.25595 10.564 3.08051C10.7395 2.90507 10.9774 2.80651 11.2255 2.80651ZM6.54809 6.54845H15.9029V4.67748H17.7739V17.7743H4.67712V4.67748H6.54809V6.54845Z" fill="#DDAFE7" fill-opacity="0.3"/>
<path d="M7.20968 12.1387L8.6129 10.7355L10.4839 12.6065L14.6935 8.39681L16.0968 9.80003L10.4839 15.4129L7.20968 12.1387Z" fill="#F18BAD"/>
</svg>
