<svg width="30" height="30" viewBox="0 0 30 30" fill="none" xmlns="http://www.w3.org/2000/svg">
<path d="M8.73428 27.6422C6.86865 27.6422 5.44522 27.0281 5.42022 26.4781L5.41709 26.4328C5.41709 26.4234 5.41553 26.4141 5.41553 26.4047V11.6344C5.41553 10.4313 6.17803 9.36094 7.3124 8.97344L7.48897 8.91406V4.91719C7.48897 4.74219 7.62803 4.60156 7.80147 4.60156C7.97334 4.60156 8.11397 4.74219 8.11397 4.91719V9.14063C8.11397 9.27656 8.02803 9.39688 7.90147 9.43906L7.5124 9.57188C6.63272 9.87344 6.04053 10.7016 6.04053 11.6344V26.3797C6.22334 26.5516 7.12646 27.0109 8.73428 27.0109C10.3249 27.0109 11.2343 26.5578 11.4265 26.3859V11.6344C11.4265 10.7016 10.8343 9.87344 9.95303 9.57188L9.56709 9.43906C9.44053 9.39688 9.35459 9.27656 9.35459 9.14063V4.91719C9.35459 4.74219 9.49365 4.60156 9.66709 4.60156C9.83896 4.60156 9.97803 4.74219 9.97803 4.91719V8.91406L10.153 8.97344C11.289 9.36094 12.0515 10.4313 12.0515 11.6344V26.4047C12.0515 26.4109 12.0515 26.4172 12.0499 26.4219L12.0468 26.4906C12.0202 27.0344 10.5983 27.6422 8.73428 27.6422Z" fill="#84888C"/>
<path d="M8.73447 12.7562C7.00478 12.7562 6.06104 13.3124 6.06104 13.5983C6.06104 13.8827 7.00478 14.439 8.73447 14.439C10.4642 14.439 11.4063 13.8827 11.4063 13.5983C11.4063 13.3124 10.4642 12.7562 8.73447 12.7562ZM8.73447 15.0702C7.09541 15.0702 5.43604 14.564 5.43604 13.5983C5.43604 12.6312 7.09541 12.1265 8.73447 12.1265C10.372 12.1265 12.0313 12.6312 12.0313 13.5983C12.0313 14.564 10.372 15.0702 8.73447 15.0702Z" fill="#84888C"/>
<path d="M10.7704 26.261C10.6282 26.261 10.5032 26.1642 10.4673 26.0251C10.3766 25.8157 9.56413 24.6688 8.73444 24.6688C7.89538 24.6688 7.24069 25.6282 6.9985 26.0407C6.90944 26.1907 6.71882 26.2392 6.57038 26.1501C6.42194 26.061 6.3735 25.8688 6.461 25.7188C6.83132 25.0907 7.61725 24.0376 8.73444 24.0376C9.97819 24.0376 11.0329 25.5798 11.0798 25.9001C11.1032 26.0735 10.986 26.2329 10.8141 26.2579C10.8001 26.2595 10.7844 26.261 10.7704 26.261Z" fill="#84888C"/>
<path d="M8.67808 21.7578C8.16558 21.7578 7.6687 21.7171 7.20308 21.6375C7.05308 21.6125 6.94214 21.4797 6.94214 21.3265V16.6937C6.94214 16.6015 6.98276 16.514 7.05308 16.4531C7.12339 16.3937 7.21558 16.3672 7.3062 16.3828C7.73901 16.4562 8.20151 16.4937 8.67808 16.4937C10.0937 16.4937 11.1218 16.1843 11.4078 15.8765C11.5265 15.75 11.7234 15.7437 11.8484 15.8625C11.975 15.9828 11.9812 16.1828 11.8625 16.3093C11.4015 16.8046 10.1515 17.125 8.67808 17.125C8.29683 17.125 7.92495 17.1031 7.56714 17.0593V21.0546C7.92183 21.1031 8.29526 21.1265 8.67808 21.1265C10.0593 21.1265 11.0906 20.8234 11.3937 20.5234C11.5171 20.4015 11.714 20.4031 11.8359 20.5281C11.9562 20.6531 11.9531 20.8531 11.8296 20.975C11.3484 21.45 10.1109 21.7578 8.67808 21.7578Z" fill="#84888C"/>
<path d="M8.73428 5.2502C7.89678 5.2502 7.04834 4.9377 7.04834 4.34395C7.04834 4.32207 7.05771 2.77832 7.05771 2.77832L7.68115 2.78301C7.68115 2.78301 7.67334 4.18145 7.67334 4.33145C7.7249 4.41738 8.09521 4.61895 8.73428 4.61895C9.37178 4.61895 9.74209 4.41738 9.79365 4.33145C9.79365 4.18301 9.78584 2.78301 9.78584 2.78301L10.4093 2.77832C10.4093 2.77832 10.4187 4.32207 10.4187 4.34395C10.4187 4.9377 9.57178 5.2502 8.73428 5.2502Z" fill="#84888C"/>
<path d="M7.68115 2.74551C7.75771 2.8377 8.12334 3.02051 8.73428 3.02051C9.34365 3.02051 9.70928 2.8377 9.78584 2.74551C9.70928 2.65488 9.34365 2.47207 8.73428 2.47207C8.12334 2.47207 7.75771 2.65488 7.68115 2.74551ZM8.73428 3.65176C7.89678 3.65176 7.04834 3.34082 7.04834 2.74551C7.04834 2.15176 7.89678 1.84082 8.73428 1.84082C9.57021 1.84082 10.4187 2.15176 10.4187 2.74551C10.4187 3.34082 9.57021 3.65176 8.73428 3.65176Z" fill="#84888C"/>
<path d="M21.0546 12.2768C19.6327 12.2768 18.7593 12.8127 18.7593 13.1955C18.7593 13.5799 19.6327 14.1158 21.0546 14.1158C22.4749 14.1158 23.3483 13.5799 23.3483 13.1955C23.3483 12.8127 22.4749 12.2768 21.0546 12.2768ZM21.0546 14.7471C19.389 14.7471 18.1343 14.0799 18.1343 13.1955C18.1343 12.3127 19.389 11.6455 21.0546 11.6455C22.7171 11.6455 23.9718 12.3127 23.9718 13.1955C23.9718 14.0799 22.7171 14.7471 21.0546 14.7471Z" fill="#84888C"/>
<path d="M21.0546 20.4548C20.4124 20.4548 19.8624 20.2204 19.4171 19.7548C17.9624 18.2298 18.0874 14.6345 18.1281 13.4517C18.1312 13.3361 18.1343 13.2486 18.1343 13.1954C18.1343 13.022 18.2749 12.8814 18.4468 12.8814C18.6202 12.8814 18.7593 13.022 18.7593 13.1954C18.7593 13.2533 18.7562 13.3486 18.7515 13.4736C18.6468 16.4673 19.0234 18.4329 19.8671 19.3173C20.1937 19.6579 20.5812 19.8236 21.0546 19.8236C21.5265 19.8236 21.914 19.6579 22.2406 19.3173C23.0843 18.4329 23.4593 16.4673 23.3562 13.4736C23.3515 13.3486 23.3484 13.2533 23.3484 13.1954C23.3484 13.1767 23.3452 13.1579 23.3421 13.1392C23.3062 12.9689 23.414 12.8001 23.5827 12.7642C23.7515 12.7298 23.9171 12.8376 23.9531 13.0095C23.9656 13.0704 23.9718 13.1329 23.9718 13.1954C23.9718 13.2486 23.9749 13.3361 23.9796 13.4517C24.0202 14.6345 24.1452 18.2298 22.689 19.7548C22.2452 20.2204 21.6952 20.4548 21.0546 20.4548Z" fill="#84888C"/>
<path d="M21.0547 26.1955C21.05 26.1955 21.0469 26.1955 21.0437 26.1955C20.8719 26.1892 20.7359 26.0439 20.7422 25.8705C20.8062 23.758 20.2641 21.4205 19.2875 19.6158C19.2047 19.4627 19.2609 19.2705 19.4125 19.1877C19.5641 19.1033 19.7531 19.1596 19.8359 19.3127C20.8625 21.2127 21.4344 23.6705 21.3656 25.8892C21.3609 26.0596 21.2219 26.1955 21.0547 26.1955Z" fill="#84888C"/>
<path d="M21.053 26.1955C20.8858 26.1955 20.7468 26.0611 20.7421 25.8892C20.703 24.6189 20.8718 23.2533 21.2327 21.9377C21.4937 20.9908 21.8421 20.1064 22.2718 19.3127C22.3546 19.1596 22.5437 19.1033 22.6952 19.1877C22.8452 19.2705 22.9015 19.4627 22.8202 19.6158C22.4124 20.3674 22.0812 21.2049 21.8343 22.1064C21.4905 23.3611 21.328 24.6627 21.3655 25.8705C21.3718 26.0439 21.2358 26.1892 21.064 26.1955C21.0608 26.1955 21.0562 26.1955 21.053 26.1955Z" fill="#84888C"/>
<path d="M21.0546 27.4267C19.8546 27.4267 18.95 26.8923 18.95 26.1845C18.95 25.6517 19.4343 25.2205 20.1296 25.1345C20.2984 25.1142 20.4546 25.2361 20.4765 25.4095C20.4968 25.583 20.375 25.7392 20.2046 25.7611C19.8093 25.8095 19.5734 26.0142 19.5734 26.1845C19.5734 26.4345 20.15 26.7955 21.0546 26.7955C21.9578 26.7955 22.5343 26.4345 22.5343 26.1845C22.5343 26.047 22.3421 25.8658 21.9765 25.7877C21.8078 25.7533 21.7 25.5861 21.7359 25.4142C21.7703 25.2439 21.9375 25.1345 22.1062 25.1705C22.7453 25.3064 23.1578 25.7048 23.1578 26.1845C23.1578 26.8923 22.2531 27.4267 21.0546 27.4267Z" fill="#84888C"/>
<path d="M16.6954 10.6924C15.275 10.6924 14.4016 11.2268 14.4016 11.6111C14.4016 11.9955 15.275 12.5314 16.6954 12.5314C18.1172 12.5314 18.9907 11.9955 18.9907 11.6111C18.9907 11.2268 18.1172 10.6924 16.6954 10.6924ZM16.6954 13.1611C15.0313 13.1611 13.7766 12.4955 13.7766 11.6111C13.7766 10.7268 15.0313 10.0596 16.6954 10.0596C18.3594 10.0596 19.6141 10.7268 19.6141 11.6111C19.6141 12.4955 18.3594 13.1611 16.6954 13.1611Z" fill="#84888C"/>
<path d="M16.6954 18.8704C16.0548 18.8704 15.5048 18.6345 15.0611 18.1704C13.6032 16.6454 13.7282 13.0485 13.7704 11.8673C13.7751 11.7517 13.7767 11.6642 13.7767 11.611C13.7767 11.4376 13.9173 11.2954 14.0892 11.2954C14.2611 11.2954 14.4017 11.4376 14.4017 11.611C14.4017 11.6688 14.3986 11.7626 14.3939 11.8892C14.2892 14.8813 14.6657 16.847 15.5095 17.7313C15.8361 18.0735 16.2236 18.2392 16.6954 18.2392C17.3954 18.2392 17.9251 17.8688 18.3142 17.1048C18.3939 16.9501 18.5814 16.8892 18.7345 16.9688C18.8876 17.0485 18.9486 17.2392 18.8689 17.3938C18.3689 18.3735 17.6376 18.8704 16.6954 18.8704Z" fill="#84888C"/>
<path d="M16.6952 24.6095C16.6921 24.6095 16.689 24.6095 16.6858 24.6095C16.514 24.6048 16.378 24.4579 16.3843 24.2845C16.4499 22.1735 15.9046 19.836 14.9296 18.0298C14.8468 17.8767 14.903 17.686 15.0546 17.6017C15.2062 17.5188 15.3952 17.5751 15.478 17.7282C16.5046 19.6282 17.0765 22.086 17.0077 24.3048C17.003 24.4751 16.864 24.6095 16.6952 24.6095Z" fill="#84888C"/>
<path d="M16.6952 24.6095C16.5281 24.6095 16.389 24.4751 16.3843 24.3048C16.3437 23.0345 16.514 21.6673 16.8749 20.3532C17.1343 19.4048 17.4843 18.522 17.914 17.7282C17.9952 17.5751 18.1859 17.5188 18.3374 17.6017C18.489 17.686 18.5437 17.8767 18.4609 18.0298C18.0546 18.7829 17.7234 19.6204 17.4765 20.522C17.1327 21.7767 16.9702 23.0767 17.0077 24.2845C17.0124 24.4579 16.8781 24.6048 16.7046 24.6095C16.7015 24.6095 16.6984 24.6095 16.6952 24.6095Z" fill="#84888C"/>
<path d="M16.6954 25.8421C15.4954 25.8421 14.5923 25.3077 14.5923 24.5999C14.5923 24.0671 15.0767 23.6358 15.7704 23.5499C15.9423 23.528 16.0985 23.6514 16.1188 23.8233C16.1392 23.9968 16.0188 24.1546 15.847 24.1764C15.4517 24.2249 15.2157 24.4296 15.2157 24.5999C15.2157 24.8483 15.7923 25.2108 16.6954 25.2108C17.5985 25.2108 18.1751 24.8483 18.1751 24.5999C18.1751 24.4608 17.9845 24.2811 17.6188 24.203C17.4501 24.1671 17.3423 23.9999 17.3782 23.8296C17.4142 23.6593 17.5782 23.5499 17.747 23.5858C18.386 23.7218 18.8001 24.1202 18.8001 24.5999C18.8001 25.3077 17.8954 25.8421 16.6954 25.8421Z" fill="#84888C"/>
</svg>
