<svg width="30" height="30" viewBox="0 0 30 30" fill="none" xmlns="http://www.w3.org/2000/svg">
<path d="M15.2766 24.267C15.1328 24.267 15.0156 24.1498 15.0156 24.0061V21.3092C15.0156 21.1654 15.1328 21.0498 15.2766 21.0498C15.4203 21.0498 15.5375 21.1654 15.5375 21.3092V24.0061C15.5375 24.1498 15.4203 24.267 15.2766 24.267Z" fill="#84888C"/>
<path d="M11.7126 5.77344C11.6704 5.77344 11.6297 5.76406 11.5922 5.74375C11.4641 5.67812 11.4141 5.52031 11.4813 5.39219C12.2547 3.90625 13.7219 2.99687 15.2938 3.02812C16.8063 3.05469 18.186 3.91406 18.9844 5.32656C19.0547 5.45156 19.011 5.61094 18.886 5.68125C18.761 5.75312 18.6016 5.70781 18.5313 5.58281C17.8251 4.33281 16.611 3.57344 15.2844 3.55C13.9 3.52812 12.625 4.32344 11.9422 5.63281C11.8969 5.72344 11.8063 5.77344 11.7126 5.77344Z" fill="#84888C"/>
<path d="M7.87662 10.3499C7.75944 10.3499 7.65319 10.2717 7.6235 10.153C7.3485 9.05456 7.42975 7.93581 7.85162 6.99831C8.28287 6.04206 9.01725 5.39049 9.92037 5.16237C11.1532 4.85143 12.4922 5.40456 13.4126 6.60612C13.5016 6.72018 13.4797 6.88424 13.3657 6.97174C13.2516 7.05924 13.0876 7.03893 13.0001 6.92487C12.2079 5.89049 11.0751 5.40924 10.0485 5.66862C9.30162 5.85612 8.69069 6.40456 8.32506 7.21393C7.95162 8.04362 7.88131 9.04206 8.12975 10.0264C8.16412 10.1655 8.07975 10.3077 7.94069 10.3421C7.91881 10.3483 7.89694 10.3499 7.87662 10.3499Z" fill="#84888C"/>
<path d="M22.839 10.8891C22.8109 10.8891 22.7828 10.8844 22.7562 10.875C22.6203 10.8282 22.5468 10.6813 22.5922 10.5438C22.6468 10.3782 22.6906 10.211 22.7203 10.05C22.914 8.9938 22.7718 7.9438 22.3203 7.09224C21.8781 6.26255 21.1937 5.72349 20.3906 5.57661C19.3812 5.38911 18.3187 5.86099 17.55 6.83599C17.4609 6.94849 17.2968 6.96724 17.1843 6.87974C17.0718 6.79067 17.0531 6.62661 17.1422 6.51255C18.0312 5.38286 19.2812 4.84067 20.4859 5.06255C21.4468 5.23911 22.2625 5.87349 22.7797 6.84692C23.2859 7.80161 23.4484 8.97192 23.2328 10.1438C23.1984 10.3297 23.15 10.5204 23.0859 10.711C23.05 10.8188 22.9484 10.8891 22.839 10.8891Z" fill="#84888C"/>
<path d="M18.7109 9.30322C18.5906 9.30322 18.4828 9.22041 18.4562 9.09697C18.0922 7.38603 16.7468 6.1501 15.2562 6.17041C13.95 6.18291 12.7687 7.24853 12.3156 8.82197C12.2765 8.96103 12.1328 9.04072 11.9937 9.00166C11.8562 8.96104 11.7765 8.81729 11.8156 8.67822C12.3312 6.87979 13.7125 5.6626 15.2515 5.64853C15.2609 5.64697 15.2718 5.64697 15.2828 5.64697C17.0047 5.64697 18.5515 7.04697 18.9656 8.9876C18.9968 9.12978 18.9078 9.26728 18.7656 9.29853C18.7468 9.30166 18.7297 9.30322 18.7109 9.30322Z" fill="#84888C"/>
<path d="M12.0813 18.3718C10.6907 18.3718 7.84535 16.1921 7.25316 13.8468C6.60941 11.2984 7.75316 8.80306 9.79848 8.28431C11.3907 7.88119 12.9813 8.64994 13.9547 10.2874C14.0282 10.4109 13.9875 10.5718 13.8641 10.6453C13.7391 10.7187 13.5797 10.6781 13.5063 10.5531C12.6563 9.12181 11.2844 8.44681 9.9266 8.79056C8.15941 9.23744 7.18598 11.4484 7.75785 13.7187C8.32504 15.964 11.3047 18.0671 12.2094 17.8359C12.3485 17.8015 12.4907 17.8859 12.5266 18.0249C12.561 18.1656 12.4766 18.3078 12.3375 18.3421C12.2594 18.3624 12.1735 18.3718 12.0813 18.3718Z" fill="#84888C"/>
<path d="M18.0423 18.5828C17.9095 18.5828 17.7907 18.5672 17.686 18.5328C17.5485 18.4875 17.4751 18.3406 17.5204 18.2031C17.5641 18.0656 17.711 17.9922 17.8485 18.036C18.736 18.3281 21.8563 16.4406 22.5782 14.2422C23.3095 12.0188 22.4938 9.74533 20.761 9.17346C19.4673 8.7469 17.9438 9.40002 16.972 10.8C16.8891 10.9188 16.7266 10.9485 16.6095 10.8656C16.4907 10.7828 16.4626 10.6219 16.5438 10.5031C17.6501 8.91252 19.411 8.17815 20.9235 8.67815C22.9298 9.34065 23.8938 11.9094 23.0735 14.4047C22.336 16.6485 19.4673 18.5828 18.0423 18.5828Z" fill="#84888C"/>
<path d="M15.0611 10.5297H15.0345C13.1079 10.5484 11.5595 12.5734 11.5829 15.0438C11.6064 17.5297 14.1126 20.3766 15.1251 20.3766H15.1298C15.5407 20.3719 16.3876 19.7719 17.2111 18.6313C18.0861 17.4172 18.5829 16.0859 18.572 14.9766C18.5486 12.5234 16.9736 10.5297 15.0611 10.5297ZM15.1251 20.8969C13.7657 20.8969 11.0876 17.7406 11.0611 15.0484C11.0361 12.2906 12.8157 10.0297 15.0298 10.0078H15.0611C17.2595 10.0078 19.0673 12.2344 19.0923 14.9719C19.1048 16.1891 18.5736 17.6344 17.6329 18.9359C16.7782 20.1219 15.797 20.8922 15.1345 20.8969C15.1329 20.8969 15.1267 20.8969 15.1251 20.8969Z" fill="#84888C"/>
<path d="M12.3437 15.4092C12.2 15.4092 12.0828 15.2921 12.0828 15.1483C12.0828 13.6827 12.6875 12.2889 13.6609 11.5077C13.7718 11.4171 13.9359 11.4358 14.0265 11.5483C14.1156 11.6608 14.0984 11.8249 13.9859 11.9155C13.1343 12.5983 12.6031 13.8374 12.6046 15.1483C12.6046 15.2921 12.4875 15.4092 12.3437 15.4092Z" fill="#84888C"/>
<path d="M17.5452 11.5639C17.4952 11.5639 17.4437 11.5482 17.3984 11.517C17.2796 11.4357 17.2499 11.2732 17.3312 11.1545C17.789 10.4857 18.3718 9.97948 19.0171 9.68886C19.1484 9.62948 19.303 9.68729 19.3624 9.81854C19.4202 9.95136 19.3624 10.1045 19.2312 10.1639C18.6734 10.4154 18.164 10.8607 17.7609 11.4498C17.7109 11.5232 17.628 11.5639 17.5452 11.5639Z" fill="#84888C"/>
<path d="M12.7735 16.1065C12.7751 16.2752 12.6391 16.4143 12.4688 16.4174C12.3001 16.4174 12.161 16.283 12.1594 16.1127C12.1579 15.9424 12.2938 15.8033 12.4626 15.8018C12.6329 15.8002 12.7719 15.9361 12.7735 16.1065Z" fill="#84888C"/>
<path d="M8.52495 14.2422C8.41714 14.2422 8.31714 14.175 8.27964 14.0672C7.79683 12.6844 7.90776 11.1688 8.5687 10.1094C8.64526 9.9875 8.8062 9.95 8.92808 10.0266C9.04995 10.1031 9.08745 10.2641 9.01089 10.3859C8.4312 11.3141 8.33901 12.6578 8.77026 13.8953C8.8187 14.0313 8.74683 14.1797 8.61089 14.2281C8.58276 14.2375 8.55308 14.2422 8.52495 14.2422Z" fill="#84888C"/>
<path d="M9.24531 14.7438C9.30312 14.9032 9.22031 15.0798 9.06093 15.1376C8.90156 15.1954 8.72499 15.1126 8.66874 14.9516C8.61093 14.7923 8.69218 14.6157 8.85312 14.5594C9.01249 14.5016 9.18749 14.5844 9.24531 14.7438Z" fill="#84888C"/>
<path d="M15.1343 20.5205C14.7233 20.5252 14.3921 20.8846 14.3921 21.3221C14.3921 21.3237 14.3921 21.3252 14.3921 21.3252C14.3968 21.4487 14.7312 21.5471 15.1437 21.5424C15.5562 21.5377 15.889 21.4346 15.889 21.3112C15.889 21.3096 15.889 21.3096 15.889 21.308C15.8812 20.8705 15.5452 20.5174 15.1343 20.5205Z" fill="#84888C"/>
<path d="M14.5391 26.4846C14.5095 26.4846 14.4782 26.4799 14.4485 26.4689C14.3126 26.4174 14.2454 26.2674 14.2954 26.133L15.0095 24.2127L10.997 18.0455C10.9188 17.9252 10.9532 17.7627 11.0735 17.6846C11.1938 17.6049 11.3563 17.6393 11.4345 17.7611L15.5173 24.0377C15.5626 24.108 15.572 24.1939 15.5423 24.2705L14.7829 26.3143C14.7438 26.4205 14.6454 26.4846 14.5391 26.4846Z" fill="#84888C"/>
<path d="M15.9032 26.9908C15.7798 26.9908 15.6704 26.9017 15.647 26.7751L15.1938 24.1814C15.1829 24.122 15.1938 24.0611 15.2235 24.008L18.5657 18.0939C18.6376 17.9689 18.7954 17.9251 18.9204 17.9955C19.047 18.0673 19.0907 18.2267 19.0204 18.3517L15.7235 24.183L16.161 26.6845C16.186 26.8267 16.0907 26.9611 15.9485 26.9861C15.9345 26.9892 15.9188 26.9908 15.9032 26.9908Z" fill="#84888C"/>
<path d="M13.0171 23.994C12.9374 24.2502 12.9734 24.6205 13.1234 24.9737C13.2202 25.2018 13.3406 25.3627 13.4437 25.4455L14.4984 24.2877L13.0171 23.994ZM13.5077 26.0237C13.4906 26.0237 13.4749 26.0221 13.4577 26.019C13.1406 25.9565 12.8437 25.6502 12.6437 25.1768C12.4437 24.7049 12.3406 24.0315 12.6499 23.5549C12.7077 23.4658 12.814 23.4221 12.9187 23.4424L15.0531 23.8658C15.1452 23.8846 15.2202 23.9502 15.2499 24.0393C15.2796 24.1299 15.2577 24.2283 15.1952 24.2971L13.6999 25.9393C13.6499 25.994 13.5796 26.0237 13.5077 26.0237Z" fill="#84888C"/>
<path d="M15.9251 24.2873L16.9782 25.4451C17.0829 25.3623 17.2032 25.2013 17.3001 24.9717C17.4501 24.6201 17.486 24.2498 17.4063 23.9935L15.9251 24.2873ZM16.9157 26.0232C16.8438 26.0232 16.7735 25.9935 16.7235 25.9388L15.2282 24.2967C15.1657 24.2279 15.1438 24.1295 15.1735 24.0388C15.2032 23.9498 15.2782 23.8842 15.3704 23.8654L17.5047 23.442C17.6094 23.4201 17.7157 23.4654 17.7735 23.5545C18.0829 24.031 17.9797 24.7045 17.7797 25.1763C17.5797 25.6498 17.2829 25.956 16.9657 26.0185C16.9485 26.0217 16.9313 26.0232 16.9157 26.0232Z" fill="#84888C"/>
</svg>
