<svg width="30" height="30" viewBox="0 0 30 30" fill="none" xmlns="http://www.w3.org/2000/svg">
<path d="M8.07343 21.1126C8.06874 21.1126 8.06405 21.1126 8.05936 21.1126C7.89999 21.1048 7.7703 20.9829 7.75468 20.8235C7.53749 18.647 7.8453 16.361 8.64686 14.2126C8.69218 14.0938 8.73905 13.9735 8.78749 13.8548C9.57811 11.8876 10.7922 10.0501 12.3 8.54072C13.9 6.93291 15.8578 5.66728 17.9594 4.87978C20.1 4.07509 22.3828 3.76572 24.5547 3.98603C24.7312 4.00478 24.8578 4.16103 24.8406 4.33759C24.8234 4.51416 24.6687 4.64228 24.4906 4.62509C22.4141 4.41416 20.2344 4.70947 18.1828 5.47978C16.1656 6.23603 14.2875 7.45166 12.75 8.99384C11.3047 10.4438 10.1391 12.2079 9.37968 14.0938C9.33436 14.2079 9.28905 14.3235 9.2453 14.4376C8.64687 16.0407 8.33593 17.722 8.32655 19.3704C8.65311 18.8532 9.1578 18.3063 9.9203 17.9579C10.1391 17.0173 9.75624 15.8485 9.75311 15.836C9.69687 15.6688 9.78593 15.486 9.95468 15.4298C10.1203 15.3735 10.3016 15.4642 10.3578 15.6313C10.3781 15.6923 10.85 17.1267 10.4937 18.286C10.4656 18.3782 10.3984 18.4517 10.3094 18.4892C8.73436 19.1267 8.39061 20.8345 8.38593 20.8517C8.3578 21.0032 8.22499 21.1126 8.07343 21.1126Z" fill="#84888C"/>
<path d="M3.1625 24.5108C3.31719 25.5499 4.21406 26.3499 5.29531 26.3499H17.7844C17.2406 25.8999 16.8688 25.2483 16.7844 24.5108H3.1625ZM19.5656 26.9921C19.5641 26.9921 19.5641 26.9921 19.5625 26.9921H5.29531C3.75313 26.9921 2.5 25.7343 2.5 24.189C2.5 24.0124 2.64219 23.8687 2.81875 23.8687H17.0859C17.2625 23.8687 17.4063 24.0124 17.4063 24.189C17.4063 25.3812 18.3734 26.3499 19.5625 26.3499H19.5641H19.5656C19.7422 26.3499 19.8844 26.4937 19.8844 26.6702C19.8844 26.8483 19.7422 26.9921 19.5656 26.9921Z" fill="#84888C"/>
<path d="M5.29541 24.3078C5.11885 24.3078 4.9751 24.1656 4.9751 23.9875V13.0984C4.9751 11.1906 5.99541 9.69683 7.70479 9.10308C7.87197 9.04527 8.05322 9.13433 8.11104 9.30152C8.16885 9.46871 8.07979 9.65152 7.91416 9.70933C6.45322 10.2171 5.61416 11.4531 5.61416 13.0984V23.9875C5.61416 24.1656 5.47197 24.3078 5.29541 24.3078Z" fill="#84888C"/>
<path d="M24.5 9.45176H20.7047C20.5282 9.45176 20.386 9.30801 20.386 9.12988C20.386 8.95332 20.5282 8.80957 20.7047 8.80957H24.5C24.6766 8.80957 24.8188 8.95332 24.8188 9.12988C24.8188 9.30801 24.6766 9.45176 24.5 9.45176Z" fill="#84888C"/>
<path d="M19.5625 26.9924C19.3859 26.9924 19.2422 26.8486 19.2422 26.6705C19.2422 26.4939 19.3859 26.3502 19.5625 26.3502C20.0953 26.3502 21.7188 26.3502 21.7188 21.6752V11.6814C21.7188 10.2549 23.0938 8.83145 24.4938 8.80957C24.4969 8.80957 24.4984 8.80957 24.5 8.80957C24.6734 8.80957 24.8172 8.9502 24.8187 9.1252C24.8219 9.30176 24.6813 9.44863 24.5047 9.45176C23.4406 9.46895 22.3563 10.5939 22.3563 11.6814V21.6752C22.3563 25.2033 21.4172 26.9924 19.5625 26.9924Z" fill="#84888C"/>
<path d="M27.0859 12.0018H22.0375C21.8609 12.0018 21.7188 11.858 21.7188 11.6815C21.7188 11.5033 21.8609 11.3612 22.0375 11.3612H26.7422C26.7203 11.2143 26.6844 11.069 26.6328 10.9268L26.5203 10.6643C26.1516 9.94709 25.4266 9.48303 24.6266 9.45178C24.45 9.44553 24.3125 9.29709 24.3188 9.12053C24.3266 8.9424 24.475 8.80647 24.65 8.81115C25.6859 8.85178 26.6219 9.45334 27.0938 10.3815C27.0969 10.3877 27.1 10.394 27.1031 10.4002L27.2234 10.683C27.225 10.6877 27.2281 10.694 27.2297 10.6987C27.3469 11.0174 27.4047 11.3487 27.4047 11.6815C27.4047 11.858 27.2625 12.0018 27.0859 12.0018Z" fill="#84888C"/>
<path d="M9.08279 14.2952C8.94997 14.2952 8.82497 14.2108 8.77966 14.0765C7.31716 9.70616 10.5172 6.39835 14 4.75772L14.3765 4.58741C16.9547 3.49991 21.9937 3.00928 24.6359 4.0046C24.8 4.0671 24.8843 4.25147 24.8218 4.41866C24.7593 4.58272 24.5765 4.66866 24.4109 4.6046C21.9453 3.67491 17.0437 4.15772 14.6312 5.17647L14.2672 5.34053C11.0375 6.86085 8.05466 9.90147 9.38591 13.8718C9.44216 14.039 9.3531 14.2218 9.18591 14.278C9.15154 14.289 9.11716 14.2952 9.08279 14.2952Z" fill="#84888C"/>
<path d="M10.1937 14.8158C9.90774 14.8158 9.6343 14.7861 9.37024 14.7268C9.19836 14.6877 9.09055 14.5158 9.12805 14.3439C9.16711 14.1705 9.33742 14.0627 9.51086 14.1002C10.6187 14.3518 11.9984 13.9705 13.7109 12.9346L11.9749 12.1752C11.8359 12.1143 11.7577 11.9643 11.789 11.8158C11.8202 11.6658 11.9499 11.5596 12.1015 11.5596H15.6937C17.414 10.233 19.1093 8.62832 20.6077 7.20957C22.2452 5.65645 23.5124 4.44863 24.3577 4.03457C24.5155 3.95645 24.7077 4.02363 24.7843 4.18301C24.8624 4.34238 24.7952 4.53301 24.6374 4.61113C23.8812 4.98145 22.5812 6.22051 21.0452 7.6752C19.5109 9.12832 17.7734 10.7768 15.9968 12.1361C15.9405 12.1783 15.8734 12.2018 15.803 12.2018H13.6359L14.5218 12.5893C14.6296 12.6361 14.703 12.7393 14.7124 12.8564C14.7218 12.9736 14.6671 13.0877 14.5687 13.1518C12.8624 14.2674 11.4218 14.8158 10.1937 14.8158Z" fill="#84888C"/>
</svg>
