<svg width="145" height="145" viewBox="0 0 145 145" fill="none" xmlns="http://www.w3.org/2000/svg">
<path d="M43.1228 94.8014C41.6577 94.2123 39.3769 92.7699 38.954 92.1355C38.9314 92.1128 38.9238 92.0675 38.9238 92.0146C38.5085 92.211 37.9345 92.2714 37.5342 92.3243C36.6506 92.4451 35.7595 92.4527 34.891 92.6566C34.672 92.7094 34.604 92.9285 34.6342 93.1173C34.74 93.812 35.7066 94.0235 36.2655 94.1594C36.5827 94.235 36.8923 94.2501 37.1944 94.2199C36.2353 95.6774 35.7897 96.9839 36.0918 97.6938C36.3183 98.5245 38.0629 98.9701 38.6746 99.1514C39.2561 99.3175 40.4644 99.5063 41.0157 99.0532C41.0686 99.0154 41.3556 98.736 41.4462 98.6001C41.4689 98.5623 41.4991 98.5245 41.5217 98.4868C41.5746 98.4339 41.6879 98.2904 41.8238 98.1016C41.9144 97.9732 42.0126 97.8222 42.1032 97.6712C42.1259 97.641 42.1561 97.6107 42.1788 97.573C42.3374 97.354 42.5488 97.0745 42.6848 96.7876C42.8207 96.5761 42.934 96.3873 42.9868 96.2514C43.153 95.8209 43.1454 95.2469 43.1152 94.892C43.1152 94.8618 43.1228 94.8316 43.1228 94.8014Z" fill="#F6C1A1"/>
<path d="M119.353 91.2745C119.187 91.2066 119.02 91.1386 118.854 91.0782C118.326 90.8894 117.789 90.761 117.253 90.6024C117.155 90.5193 117.042 90.4514 116.913 90.3834C116.324 90.0511 115.697 89.7792 115.078 89.5225C115.071 89.5376 115.063 89.5527 115.056 89.5753C114.965 89.8094 114.791 89.9378 114.497 90.0889C114.331 90.1644 114.119 90.255 113.855 90.3683C112.805 90.8214 111.891 91.199 110.804 91.3199C111.053 91.9844 111.438 92.6037 111.816 92.8907C112.178 93.1701 112.926 93.3287 113.439 93.593C113.454 93.5855 113.477 93.5779 113.492 93.5704C114.444 93.155 115.388 92.7245 116.324 92.279C116.687 92.4527 117.079 92.5433 117.51 92.5433C117.555 92.5433 117.616 92.5433 117.669 92.5433C117.759 92.5357 117.857 92.5357 117.971 92.5282C116.649 93.1324 115.312 93.7063 113.991 94.2652C114.104 95.1488 113.734 95.5188 114.059 96.4024C114.587 97.3842 116.022 96.712 116.709 96.0852C117.057 95.768 117.336 95.4282 117.57 95.0657C117.827 94.5068 118.031 93.9253 118.107 93.2985C118.144 93.0342 118.152 92.7699 118.144 92.5131C118.696 92.4602 119.338 92.3167 119.519 91.7956C119.519 91.7956 119.519 91.7956 119.519 91.7881C119.587 91.5993 119.557 91.3727 119.353 91.2745Z" fill="#F6C1A1"/>
<path d="M83.3752 39.1274C83.345 37.9946 83.3073 36.8618 83.2771 35.7214C82.4765 31.0391 81.0643 27.5652 74.3052 27.4368C73.7161 27.4821 73.1271 27.5274 72.5304 27.5727C72.5304 27.5727 65.8091 29.861 67.4554 37.4735C67.6065 38.1834 67.6518 38.0474 67.7726 38.6818C68.0672 40.1998 68.2031 41.461 68.5203 42.3521C68.9206 43.4623 69.2 44.6857 69.6153 45.3654C70.9898 47.6235 72.4172 47.5933 73.0213 47.4498C72.8778 47.699 72.7646 47.9482 72.825 48.4618C73.1346 50.9162 73.414 52.3209 73.4367 53.7784C73.4367 53.9823 72.9156 54.798 73.0666 54.9792C73.1799 55.1303 73.4216 55.0849 73.6179 55.0849C75.8458 55.0849 77.6357 54.0881 79.5388 53.0081C80.6187 52.4115 81.6987 51.7696 82.8693 51.324C83.2922 51.1428 83.3148 51.1881 83.2922 50.7954C83.2393 49.9873 82.9523 49.2396 82.7484 48.4693C82.5445 47.6764 82.5068 46.8532 82.4765 46.0375C82.4388 45.154 82.3028 44.2779 82.2877 43.3943C82.2877 43.0243 82.2953 42.6542 82.3104 42.2842C82.907 41.2722 83.2922 40.1998 83.3752 39.1274Z" fill="#F6C1A1"/>
<path d="M93.6919 76.2007C93.7221 76.3744 93.7448 76.5405 93.775 76.7142C93.7825 76.5254 93.775 76.3442 93.6919 76.2007Z" fill="#F4A545"/>
<path d="M80.5811 53.0004C82.4616 51.9506 83.1715 51.354 84.5157 50.1835C83.9267 49.904 83.5944 49.4207 82.9675 49.2697C82.2954 49.1111 81.359 49.5868 80.7246 49.7681C79.841 50.0173 78.9649 50.2665 78.0965 50.5535C77.598 50.7197 76.873 50.8556 76.4652 51.2181C75.8686 51.7467 75.5816 53.4913 75.5816 53.4913L74.9548 51.2181L73.1498 50.8254L69.6079 52.434L75.2871 55.0923C75.2871 55.0923 78.4287 54.2012 80.5811 53.0004Z" fill="#F4A545"/>
<path d="M99.9214 118.847C100.125 118.809 100.322 118.772 100.518 118.734C100.518 118.734 100.518 118.734 100.526 118.734L102.625 113.825L104.724 108.909L105.366 98.683C102.542 96.3192 99.2492 94.0461 95.6091 92.007C95.1937 87.2869 94.7029 82.6726 93.9854 78.0356C93.7589 76.5554 93.5021 75.0677 93.2227 73.5799C93.0641 72.7718 92.9432 71.9336 92.8451 71.0651C92.4297 67.425 92.4297 63.3242 92.3013 59.3971C92.2182 56.6028 92.0596 53.8916 91.6443 51.4976C91.531 50.8859 90.7003 50.5989 89.7789 50.463C89.2729 50.3799 88.7443 50.3497 88.2836 50.3346C87.838 50.3195 87.468 50.3195 87.2641 50.3119C86.3578 50.2666 84.8172 49.5794 84.4698 50.3875C81.7586 56.7237 81.6529 71.4125 82.3703 86.2825C82.1362 86.207 81.9096 86.1466 81.6831 86.0786C81.4112 85.9955 81.1393 85.9125 80.8674 85.8294C80.3237 85.6784 79.7724 85.5198 79.2135 85.3763C76.2758 84.6211 73.0737 84.4398 69.8792 84.5002C69.275 84.5078 68.6708 84.5304 68.0742 84.5531C68.7086 72.2432 68.7539 60.039 67.0773 52.7739C66.9112 52.8494 66.7526 52.9325 66.6091 53.0005C66.5714 53.0231 66.5336 53.0383 66.4958 53.0609C66.3674 53.1213 66.2466 53.1817 66.156 53.2271C65.9521 53.3177 65.7633 53.4159 65.5745 53.5291C64.6909 54.0653 64.0187 54.8356 63.8299 55.8854C63.2182 59.3971 62.7198 62.3198 62.1987 65.2877C61.7456 67.8781 61.2698 70.5062 60.6807 73.5799C59.9935 77.2125 59.4799 80.8148 59.057 84.4323C58.0602 84.3945 57.0708 84.3718 56.0815 84.4021C55.0091 84.4247 53.9292 84.5078 52.8341 84.6815C52.8039 84.689 52.7812 84.689 52.751 84.6966L46.8906 104.725C47.6232 105.299 48.4086 105.842 49.2242 106.379C51.3841 107.798 53.7781 109.105 56.1646 110.427C55.9909 111.461 55.8096 112.503 55.6057 113.553C55.5831 113.719 55.5453 113.878 55.5151 114.036C55.4849 114.195 55.4547 114.354 55.4245 114.505C55.3716 114.754 55.3112 115.003 55.2583 115.252C55.2508 115.283 55.2432 115.32 55.2357 115.35C55.1828 115.585 55.1299 115.819 55.0695 116.045C55.0544 116.106 55.0393 116.166 55.0242 116.234C54.9638 116.483 54.9034 116.74 54.8354 116.997C54.8354 117.012 54.8279 117.035 54.8279 117.05C54.7448 117.382 54.6617 117.722 54.5786 118.054C54.5409 118.19 54.5107 118.326 54.4805 118.462C54.4352 118.628 54.3974 118.794 54.3596 118.96C54.3219 119.104 54.2917 119.24 54.2615 119.383C54.2161 119.572 54.1784 119.753 54.1331 119.942C54.1104 120.055 54.0878 120.169 54.0576 120.282C53.9971 120.584 53.9367 120.879 53.8839 121.181C53.6497 122.329 53.5138 123.59 53.3401 124.843C54.5409 124.791 55.2357 125.176 56.5271 125.478C56.5573 125.485 56.5875 125.493 56.6102 125.493C56.7083 125.516 56.8065 125.538 56.8971 125.553C56.9349 125.561 56.9802 125.576 57.018 125.584C57.1312 125.599 57.2445 125.614 57.3503 125.629C57.388 125.636 57.4182 125.636 57.4484 125.644C57.5617 125.652 57.675 125.667 57.7807 125.674C57.7958 125.674 57.8034 125.674 57.8185 125.674C57.9318 125.682 58.0451 125.682 58.1508 125.689C58.1734 125.689 58.1961 125.689 58.2112 125.689C58.332 125.689 58.4378 125.682 58.551 125.682C58.5661 125.674 58.5888 125.674 58.6039 125.674C58.838 125.659 59.0797 125.636 59.3138 125.599C59.3214 125.599 59.3289 125.599 59.3365 125.599C59.4573 125.584 59.5706 125.561 59.6914 125.538C59.699 125.538 59.699 125.538 59.699 125.538C59.8651 131.051 60.1068 135.394 60.1068 135.394C61.4435 135.409 62.7802 135.431 64.1169 135.454C66.2919 135.484 68.4594 135.522 70.6268 135.552C71.4727 135.567 72.3185 135.575 73.1568 135.59C73.5042 135.598 74.0706 135.711 74.3349 135.454C74.7654 135.039 74.6974 133.589 74.7729 133.015C74.9617 131.64 75.0826 130.243 75.1883 128.861C75.3318 127.162 75.7396 125.576 75.7169 123.877C75.7018 122.933 75.8227 121.959 75.9737 120.984C76.3135 123.409 76.676 125.833 76.812 128.265C76.8724 129.254 76.9102 130.251 76.9932 131.233C77.0612 132.169 77.1367 133.113 77.2576 134.034C77.3482 134.737 77.3331 135.507 78.126 135.598C79.1909 135.726 80.369 135.567 81.4414 135.552C83.5862 135.515 85.731 135.484 87.8682 135.454C88.7367 135.439 89.6052 135.424 90.4737 135.416C90.806 135.409 91.1458 135.431 91.4781 135.401C92.3164 135.318 92.1125 134.691 92.1125 133.981C92.1125 132.849 92.2107 131.723 92.2635 130.598C92.3013 129.866 92.3391 129.133 92.3844 128.408C92.8526 128.461 93.3284 128.453 93.7966 128.34C95.2995 128 95.9867 127.532 97.6029 127.766C98.8716 128 100.14 128.34 101.288 128.574C100.956 127.464 100.76 126.248 100.586 125.025C100.563 124.813 100.533 124.609 100.503 124.398C100.48 124.209 100.458 124.013 100.427 123.824C100.397 123.575 100.367 123.333 100.329 123.099C100.314 122.948 100.284 122.797 100.269 122.646C100.239 122.472 100.216 122.291 100.186 122.11C100.155 121.898 100.118 121.702 100.08 121.498C100.057 121.392 100.042 121.286 100.02 121.181C99.9214 120.645 99.8081 120.108 99.6872 119.565C99.6344 119.353 99.5891 119.134 99.5362 118.915C99.6646 118.892 99.793 118.87 99.9214 118.847Z" fill="#F4A545"/>
<path d="M116.325 92.2791C115.389 92.7246 114.445 93.1551 113.493 93.5705C113.478 93.578 113.455 93.5856 113.44 93.5931C110.774 94.7637 108.108 96.04 105.359 97.052C105.654 97.1728 106.016 97.3012 106.371 97.4522C108.652 96.6064 110.88 95.5944 113.1 94.6429C113.395 94.522 113.697 94.3936 113.991 94.2653C115.313 93.7064 116.65 93.1324 117.971 92.5283C117.858 92.5358 117.76 92.5358 117.669 92.5434C117.178 92.566 116.733 92.4679 116.325 92.2791Z" fill="#FBD998"/>
<path d="M123.582 88.8426C121.996 89.5676 120.425 90.3228 118.854 91.078C119.021 91.1384 119.187 91.2064 119.353 91.2819C119.557 91.3725 119.587 91.5991 119.519 91.7879C121.022 91.0553 122.487 90.2548 123.869 89.341C124.186 89.1295 123.914 88.6915 123.582 88.8426Z" fill="#FBD998"/>
<path d="M52.7512 84.6966C52.9476 84.6664 53.1439 84.6362 53.3478 84.606C53.3629 84.606 53.3856 84.606 53.4082 84.5984C53.597 84.5758 53.7858 84.5531 53.9671 84.5305C54.171 84.5078 54.3749 84.4927 54.5713 84.4776C54.7752 84.4625 54.9715 84.4474 55.1679 84.4323H55.1754C56.7765 82.6047 58.0075 81.1094 58.3775 80.5732C58.8986 79.8331 59.3819 79.176 59.8426 78.5492C60.0918 76.9029 60.3637 75.2414 60.6809 73.5799C61.9496 66.9945 62.6746 62.4708 63.8301 55.8854C64.0567 54.6167 64.9931 53.7557 66.1562 53.2195C66.3223 53.144 66.5489 53.0307 66.8056 52.9023C63.1806 53.7255 59.5103 54.3674 57.222 57.2146C54.0049 61.0359 52.1621 69.9927 49.8437 74.4635C48.1444 77.7638 38.9536 90.4513 38.9233 92.0146C38.9233 92.0674 38.9309 92.1128 38.9535 92.1354C39.3765 92.7698 41.6572 94.2122 43.1223 94.8013C43.5981 94.9901 43.9832 95.0958 44.2022 95.0581C45.2595 94.9448 48.5371 91.7125 51.6864 88.3141L52.7512 84.6966Z" fill="#FBD998"/>
<path d="M110.495 91.35C110.601 91.3425 110.699 91.3349 110.805 91.3198C111.892 91.199 112.806 90.8214 113.856 90.3682C114.12 90.255 114.331 90.1643 114.497 90.0888C114.792 89.9378 114.966 89.8094 115.056 89.5753C115.064 89.5526 115.071 89.5375 115.079 89.5224C115.147 89.3034 115.17 89.0089 115.17 88.5633C115.003 84.2813 113.448 79.2742 111.892 75.4906C110.48 72.0922 99.7936 56.2177 91.6978 51.83C92.5285 56.9201 92.234 63.3242 92.6493 68.9656C92.8608 69.1242 93.0798 69.3432 93.3215 69.6529C94.5524 71.2917 101.576 77.0992 102.724 78.2471C104.529 80.0596 104.332 81.8495 105.239 84.1529C105.563 85.0516 108.116 89.5451 108.607 90.4513C109.098 91.4331 109.264 91.4331 110.495 91.35Z" fill="#FBD998"/>
<path d="M100.08 96.7422C98.4865 96.6893 96.893 96.576 95.3071 96.4628C91.7425 96.206 88.1704 95.9945 84.6435 95.3828C79.493 94.4841 74.5993 93.0039 69.6753 91.2518C67.1302 90.3531 64.7589 89.2958 62.3573 88.0497C61.2774 87.4833 60.1597 86.9925 59.0646 86.4638C58.8532 86.3581 58.6342 86.2523 58.4151 86.1391C58.4 86.1391 58.3849 86.124 58.3698 86.1164C58.2717 86.1089 58.1961 86.1315 58.1508 86.1768C58.1961 86.1315 58.2717 86.1089 58.3698 86.1164C58.1433 86.0031 57.9167 85.8823 57.6977 85.7615C57.4032 85.6029 57.1086 85.4292 56.8292 85.2555C59.2006 85.5576 61.6399 85.2932 64.0112 85.1875C66.9868 85.0667 70.0227 85.1724 72.9982 85.3083C77.5295 85.5198 81.5094 86.7885 85.6404 88.5708C89.4844 90.2323 93.2227 92.1279 96.9383 94.0612C98.6678 94.9599 100.39 96.0021 102.187 96.7875C101.477 96.8177 100.752 96.7648 100.08 96.7422ZM92.6789 101.19C94.5141 101.787 96.3266 102.384 98.1391 103.048C98.781 103.282 101.183 103.977 101.59 104.853C100.948 105.08 100.08 104.944 99.4683 104.891C98.3581 104.8 97.2404 104.747 96.1303 104.649C94.1063 104.476 92.0748 104.385 90.0584 104.151C86.6071 103.751 83.1709 103.169 79.7573 102.55C76.2985 101.93 73.0209 101.009 69.7131 99.7857C66.9414 98.7586 64.2302 97.5654 61.5795 96.2589C59.0193 95.0052 56.5951 93.3891 53.9896 92.226C54.7826 91.4331 56.8594 91.788 57.811 91.8182C60.2805 91.9089 62.6896 92.1656 65.1289 92.5659C69.8943 93.3589 74.856 93.9404 79.4552 95.4734C84.0243 96.999 88.1024 99.6951 92.6789 101.19ZM82.9141 113.84C85.3987 114.897 87.9891 115.698 90.5266 116.604C91.9237 117.103 93.3209 117.609 94.7105 118.145C94.9521 118.235 95.2693 118.334 95.6016 118.447C94.1441 118.432 92.6789 118.477 91.2214 118.432C89.137 118.356 87.0677 118.356 84.9758 118.394C80.4748 118.477 76.1474 118.19 71.7748 117.065C69.6451 116.514 67.455 115.917 65.4537 114.996C63.6865 114.195 62.0855 113.062 60.4542 112.02C58.7852 110.948 57.0331 109.989 55.3263 108.969C53.9745 108.168 52.2829 107.7 50.9688 106.809C51.0065 106.802 51.0443 106.794 51.0896 106.794C51.2935 106.771 51.5125 106.764 51.7315 106.756C51.8373 106.756 51.9506 106.756 52.0563 106.756C52.2451 106.764 52.4263 106.764 52.6151 106.779C54.5032 106.892 56.4667 107.436 58.2112 107.723C61.081 108.206 63.9584 108.584 66.8357 109.022C69.4865 109.422 72.2581 109.785 74.8183 110.585C77.5823 111.446 80.2558 112.715 82.9141 113.84ZM103.773 96.7346C103.735 96.6138 103.652 96.5005 103.509 96.4477C102.814 96.1984 102.028 95.6698 101.341 95.3148C99.8685 94.5521 98.4034 93.7742 96.9308 93.0115C93.1925 91.0781 89.424 89.1977 85.5573 87.5362C84.417 87.0529 83.2917 86.6073 82.1513 86.2146C82.3175 86.2675 82.4836 86.3128 82.6422 86.3656C83.05 86.494 83.4579 86.63 83.8581 86.7659C84.6284 87.0227 85.3836 87.2945 86.1313 87.5815C85.3459 73.7234 85.1571 59.4273 86.9998 51.3617C86.0935 50.9313 85.2401 50.5234 84.5076 50.1836C83.1709 51.3542 82.461 51.9508 80.5805 53.0005C78.4282 54.2013 75.2865 55.0924 75.2865 55.0924L69.6149 52.4341H69.6073C68.9276 52.6682 68.2555 52.9326 67.606 53.2497L67.7722 52.6758C67.5456 52.7362 67.319 52.7815 67.0849 52.8419C68.7388 60.0617 68.7086 72.1224 68.0818 84.319C66.9943 84.3115 65.9144 84.3266 64.842 84.3417C61.723 84.4021 58.6568 84.757 55.5302 84.5229C55.2659 84.5003 55.2131 84.893 55.4245 84.9987C55.4396 85.0365 55.4698 85.0818 55.5076 85.1195C56.1118 85.6482 56.7612 86.0862 57.4485 86.4789C57.6222 86.5846 57.7959 86.6828 57.9771 86.7734C58.0602 86.8188 58.1433 86.8641 58.2263 86.9094C58.4378 87.0227 58.6568 87.1284 58.8758 87.2341C59.767 87.6721 60.6808 88.0724 61.5644 88.5255C63.898 89.7112 66.156 90.8591 68.6331 91.7276C69.7735 92.1203 70.9063 92.5206 72.0467 92.9057C69.2146 92.4073 66.375 91.9013 63.5279 91.4859C61.2698 91.1537 59.0042 91.063 56.7235 91.0479C55.6737 91.0404 53.8537 91.0781 53.3401 92.2185C53.242 92.4375 53.4383 92.6339 53.612 92.6112C53.6347 92.649 53.6649 92.6867 53.7026 92.7169C55.9532 94.4162 58.687 95.6698 61.1943 96.9385C63.762 98.2451 66.3901 99.4232 69.0787 100.465C69.0938 100.473 69.1013 100.473 69.1089 100.48C68.3537 100.337 67.5985 100.201 66.8357 100.065C63.9659 99.5516 61.0886 99.0456 58.2037 98.6453C57.7732 98.5849 57.3427 98.5245 56.9047 98.4716C56.7008 98.449 56.4969 98.4188 56.293 98.3961C56.2855 98.3961 56.2779 98.3961 56.2704 98.3961C56.225 98.5547 56.1344 98.9247 56.0815 99.1513C56.0967 99.1589 56.1118 99.1589 56.1269 99.1589C56.3383 99.1891 56.5498 99.2117 56.7612 99.2419C57.7883 99.3703 58.823 99.4987 59.8576 99.6648C62.2743 100.05 64.6758 100.533 67.0849 100.971C69.1844 101.349 71.2763 101.742 73.3607 102.195C74.35 102.406 75.3318 102.64 76.306 102.905C76.7894 103.033 77.2651 103.252 77.756 103.373C79.0399 103.894 80.3842 104.309 81.668 104.763C83.6391 105.465 85.6178 106.099 87.5813 106.824C91.2138 108.176 94.9521 109.407 98.5243 110.91C98.2071 110.902 97.8823 110.865 97.6029 110.849C96.8024 110.797 96.0245 110.782 95.2316 110.797C93.0037 110.834 90.7834 110.925 88.5631 110.97C83.911 111.053 79.4779 110.623 74.9618 109.49C70.7099 108.433 66.6469 106.832 62.6519 105.049C60.7034 104.181 58.7852 103.26 56.9198 102.233C55.13 101.251 53.4987 100.05 51.7542 99.0078C52.7435 98.6 54.0198 98.8945 55.0318 99.0229C55.1602 99.038 55.281 99.0607 55.4094 99.0758C55.636 99.0984 55.855 99.1287 56.0815 99.1513C56.1344 98.9247 56.225 98.5547 56.2704 98.3961C56.0513 98.3659 55.8248 98.3432 55.6058 98.3206C55.0696 98.2602 54.5334 98.2148 53.9972 98.1771C53.106 98.1091 52.0185 98.0638 51.3162 98.6906C51.218 98.7813 51.2256 98.8945 51.2784 98.9776C51.1802 99.0758 51.15 99.2495 51.2709 99.3703C52.6831 100.73 54.4654 101.749 56.142 102.731C58.1055 103.871 60.1446 104.891 62.2138 105.82C64.3133 106.771 66.443 107.647 68.5954 108.44C67.7722 108.32 66.949 108.214 66.1409 108.093C63.256 107.678 60.3636 107.277 57.4862 106.832C56.006 106.598 54.3295 106.19 52.7058 106.099C52.5094 106.092 52.3055 106.084 52.1092 106.084C52.0638 106.084 52.011 106.084 51.9657 106.084C51.7089 106.084 51.4597 106.099 51.2105 106.129C50.9008 106.16 50.5912 106.213 50.2967 106.288C50.1305 106.197 49.9568 106.28 49.8813 106.424C49.6547 106.583 49.7982 106.99 50.1078 106.945C51.1953 108.017 52.887 108.486 54.1935 109.211C56.0513 110.245 57.894 111.386 59.6914 112.511C61.4586 113.621 63.1579 114.814 65.0383 115.728C65.212 115.819 65.3857 115.894 65.567 115.977C65.4763 116.921 65.3933 117.805 65.3177 118.621C69.3279 119.013 73.8667 119.096 78.2016 119.059C78.194 119.059 78.1865 119.059 78.1789 119.059C80.2709 119.255 82.3779 119.315 84.5303 119.293C86.7732 119.263 89.0011 119.255 91.2441 119.323C93.1925 119.383 95.2618 119.565 97.2026 119.232C97.5954 119.482 98.1013 118.923 97.7237 118.56C97.1951 118.062 96.3568 117.835 95.6922 117.571C94.2196 116.982 92.7318 116.446 91.2365 115.902C88.3365 114.86 85.3912 113.923 82.5516 112.722C81.3735 112.224 80.1802 111.718 78.987 111.235C82.1438 111.733 85.3157 111.914 88.5782 111.861C90.942 111.824 93.3058 111.718 95.6696 111.68C96.8553 111.658 98.4487 112.111 99.5664 111.658C99.7477 111.59 99.8383 111.439 99.861 111.288C100.171 111.136 100.299 110.676 99.9063 110.479C98.4563 109.77 96.9081 109.324 95.3977 108.773C93.0415 107.912 90.7003 107.028 88.3365 106.167C86.3579 105.45 84.3566 104.808 82.3553 104.143C81.9248 103.992 81.4868 103.841 81.0563 103.683C84.3112 104.257 87.5888 104.785 90.874 105.133C93.2076 105.374 95.5563 105.518 97.8974 105.676C99.1058 105.759 101.152 106.25 102.308 105.488C102.353 105.465 102.398 105.435 102.436 105.389C102.542 105.306 102.64 105.223 102.723 105.11C102.988 104.77 102.67 104.324 102.346 104.385C101.923 103.705 100.933 103.267 100.299 102.965C98.7659 102.24 97.0969 101.636 95.4883 101.115C92.7847 100.231 90.1943 99.3477 87.6191 98.1242C86.2068 97.4445 84.8021 96.7497 83.3748 96.1003C83.7222 96.1682 84.062 96.2362 84.4094 96.2966C87.9287 96.931 91.4933 97.1198 95.0428 97.3841C96.7269 97.505 98.411 97.6182 100.095 97.6711C101.243 97.7164 102.497 97.807 103.622 97.5276C104.037 97.4294 104.022 96.9461 103.773 96.7346Z" fill="#FBD998"/>
<path d="M58.9668 24.9447C60.6736 25.7981 62.8334 26.7572 64.6611 27.9429C64.5855 28.4489 64.5478 28.9549 64.5402 29.4533C64.51 31.4319 64.8876 33.2293 65.9298 34.921C66.2923 35.5025 66.6926 36.0614 67.0928 36.6202C67.2892 36.4918 67.5006 36.3937 67.7272 36.3332C68.0595 34.9512 68.4673 33.6221 68.8902 32.2627C69.1017 31.6056 69.4415 31.3489 69.8569 31.3187C70.7556 31.2356 71.828 31.9455 72.6058 32.3155C73.5725 32.7762 74.5392 33.252 75.5058 33.7278C76.1704 34.0525 76.8501 34.3622 77.5223 34.6944C77.7866 34.8228 78.0433 34.9512 78.3077 35.0947C78.6249 35.2684 78.9345 35.4497 79.2366 35.6385C80.3845 36.3635 81.2228 37.3679 81.9402 38.4554C82.4009 39.1502 82.8163 39.8827 83.2316 40.6002C83.292 40.6984 83.3525 40.7965 83.4053 40.9023C83.3827 40.8494 83.5413 40.7059 83.8207 40.502C84.6816 39.0898 85.822 37.8512 86.5696 36.3635C87.6269 34.2564 87.8913 31.8247 87.8082 29.4986C87.8082 29.4306 87.8006 29.3627 87.7931 29.2947C86.8944 27.5653 86.2525 26.4023 84.5986 25.1486C82.484 23.4721 79.667 22.2335 76.9936 21.7879C76.903 21.7728 76.8048 21.7577 76.7142 21.7351C77.0993 20.9572 77.492 20.1869 77.8999 19.4468C78.6173 18.2536 80.3996 15.7463 79.5689 14.1981C78.3756 12.1666 75.9967 13.7223 74.9243 14.7947C73.8519 9.65929 69.6832 14.7947 68.0142 16.5846C65.3936 15.1497 63.8454 13.9564 62.184 17.302C61.4665 18.4952 61.4665 20.1642 60.0392 20.5267C59.0876 20.7609 57.7736 19.3335 56.5879 19.6885C52.7741 20.8817 57.6603 24.2273 58.9668 24.9447Z" fill="#FBD998"/>
<path d="M53.3709 103.267C53.167 103.464 52.9706 103.66 52.7592 103.856C52.5326 104.068 52.8498 104.483 53.099 104.287C53.2425 104.173 53.3785 104.06 53.5144 103.939C53.3331 104.166 53.1821 104.415 53.2425 104.702C53.2652 104.815 53.4011 104.868 53.5068 104.846C53.7183 104.8 53.8844 104.634 54.0355 104.43C53.9675 104.642 53.9298 104.846 53.9751 105.072C53.9977 105.223 54.2016 105.291 54.3225 105.216C54.4584 105.125 54.5566 105.019 54.6321 104.898C54.6246 104.997 54.617 105.095 54.6094 105.193C54.6019 105.329 54.7001 105.457 54.8058 105.525C54.9266 105.601 54.9795 105.616 55.1079 105.563C55.2891 105.488 55.3722 105.374 55.3949 105.178C55.4024 105.08 55.41 104.982 55.4175 104.883C55.4704 104.966 55.5459 105.042 55.6441 105.095C55.7347 105.133 55.8329 105.125 55.9009 105.057C56.2256 104.725 56.0292 104.143 55.9688 103.728C55.9613 103.683 55.9462 103.637 55.9386 103.592C55.9613 103.645 55.9915 103.69 56.0141 103.743C56.1652 104.06 56.2709 104.619 56.6032 104.808C56.7316 104.883 56.8751 104.876 56.9884 104.808C56.6107 107.7 56.1652 110.593 55.6063 113.553C55.5459 113.87 55.4855 114.188 55.4251 114.505C55.493 114.188 55.5535 113.87 55.6139 113.553C56.1727 110.593 56.6183 107.7 56.9884 104.808C57.0714 104.755 57.1318 104.679 57.1621 104.574C57.1998 104.4 57.1621 104.211 57.0941 104.022C57.1092 103.909 57.1243 103.781 57.1394 103.667C57.1243 103.781 57.1092 103.902 57.0941 104.022C57.0261 103.856 56.943 103.698 56.8751 103.562C56.7014 103.192 56.4824 102.852 56.218 102.535C56.1878 102.489 56.0141 102.301 55.8178 102.127C56.2105 101.243 56.4144 100.262 56.6485 99.3477L56.6787 99.2193C56.4446 99.1891 56.2936 99.174 56.0821 99.1513C56.0217 99.4081 55.9839 99.68 55.9084 99.9368C55.9462 99.7329 55.9915 99.5214 56.0368 99.3175C56.0443 99.2873 56.0594 99.2269 56.0746 99.1513C56.135 98.9248 56.2256 98.5547 56.2709 98.3961C56.2936 98.3055 56.3087 98.2829 56.286 98.3961C56.4975 98.4188 56.7014 98.4415 56.9053 98.4717C56.9128 98.1318 56.8147 97.8297 56.4371 97.6409C56.0594 97.4521 55.7951 97.7693 55.5988 98.3206C55.5232 98.5396 55.4628 98.7964 55.41 99.0683C55.2363 99.9443 55.1759 100.994 55.1759 101.651C54.7907 101.696 54.3829 101.991 54.0732 102.157C53.5673 102.421 53.0386 102.648 52.5251 102.92C52.2985 103.033 52.4193 103.388 52.661 103.388C52.9027 103.381 53.1368 103.335 53.3709 103.267Z" fill="#323232"/>
<path d="M103.411 97.0291V97.0215C103.411 97.014 103.419 97.014 103.419 97.014C103.419 97.0215 103.419 97.0215 103.411 97.0291ZM107.527 98.4036C107.399 97.9806 106.908 97.6861 106.372 97.452C106.017 97.301 105.654 97.1726 105.36 97.0517C105.292 97.0215 105.224 96.9913 105.163 96.9611C104.967 96.8705 104.687 96.9611 104.604 97.1499C104.431 97.0819 104.257 97.014 104.083 96.9762C104.061 96.5986 103.577 96.4174 103.23 96.5231C102.799 96.6515 102.679 97.2481 103.041 97.52C103.185 97.6332 103.358 97.6937 103.517 97.6861C103.524 97.6861 103.524 97.6861 103.524 97.6861C103.638 97.6786 103.743 97.6484 103.842 97.5879C103.842 97.5879 103.842 97.5879 103.842 97.5804C103.872 97.5577 103.91 97.5351 103.932 97.5049C103.947 97.5124 103.97 97.5275 103.985 97.5351C104.212 97.6861 104.484 97.7843 104.733 97.8749C104.74 97.9202 104.748 97.9655 104.755 98.0184C104.876 99.0908 104.446 100.465 104.325 101.447C104.166 102.701 103.894 103.947 103.608 105.193C103.343 105.012 103.064 104.853 102.777 104.702C102.565 104.589 102.354 104.46 102.135 104.339C102.112 104.279 102.09 104.226 102.052 104.173C101.908 103.985 101.727 103.894 101.493 103.864C101.38 103.849 101.266 103.879 101.176 103.932C101.146 103.924 101.108 103.917 101.078 103.909C100.889 103.871 100.783 104.075 100.904 104.219C100.911 104.226 100.919 104.234 100.927 104.241C100.896 104.309 100.874 104.377 100.874 104.453C100.859 104.883 101.289 105.117 101.674 105.057C101.765 105.042 101.855 105.004 101.923 104.944C102.044 105.004 102.165 105.057 102.278 105.117C102.679 105.321 103.079 105.518 103.494 105.676C103.351 106.288 103.207 106.907 103.064 107.519C102.807 108.674 102.558 109.86 102.286 111.046C101.606 110.872 100.927 110.721 100.239 110.676C100.149 110.457 99.9448 110.26 99.7333 110.207C99.6653 110.192 99.5974 110.192 99.5369 110.207C99.2047 110.14 98.9177 110.351 98.7968 110.661C98.676 110.97 98.8875 111.318 99.1669 111.446C99.4916 111.597 99.9221 111.544 100.149 111.272C100.798 111.454 101.463 111.589 102.127 111.733C101.553 114.104 100.828 116.461 99.6049 118.53C99.4388 118.515 99.2726 118.507 99.1065 118.5C98.7968 118.492 98.457 118.462 98.1247 118.469C97.9661 118.273 97.6791 118.115 97.4601 118.13C97.3922 118.137 97.3393 118.152 97.294 118.175C97.1203 118.213 96.9919 118.356 96.9466 118.53C96.856 118.824 97.0674 119.202 97.3393 119.315C97.5507 119.406 97.7924 119.413 97.9888 119.278C98.0643 119.232 98.1172 119.172 98.1625 119.104C98.4117 119.104 98.6534 119.096 98.895 119.096C99.0461 119.096 99.1971 119.096 99.3481 119.096C99.3784 119.247 99.5294 119.376 99.688 119.383C100.511 119.459 101.349 119.398 102.173 119.466C102.256 119.474 102.309 119.436 102.339 119.383C104.046 117.676 104.665 115.071 105.269 112.82C106.002 110.072 106.621 107.27 107.21 104.483C107.61 102.603 108.116 100.307 107.527 98.4036Z" fill="#323232"/>
<path d="M76.1473 44.0815C76.0189 44.3005 75.2864 45.388 73.1567 45.2445C72.9452 45.2294 72.7338 45.2294 72.5374 45.169C72.2731 45.0935 71.9861 44.95 71.7671 44.7687C71.7218 44.731 71.684 44.6932 71.6463 44.6555C71.2989 44.3005 71.2611 43.4471 71.7671 43.1904C72.0616 43.0469 72.3939 43.0091 72.7187 42.9789C73.0509 42.9487 73.3757 42.9109 73.7004 42.843C73.927 42.8052 74.146 42.7523 74.3726 42.707C74.7653 42.6315 75.158 42.5635 75.5582 42.5484C75.8528 42.5333 76.0265 42.4956 76.2455 42.707C76.6759 43.1224 76.3965 43.6661 76.1473 44.0815ZM83.2312 40.6C82.8158 39.8825 82.4004 39.15 81.9397 38.4552C81.6226 39.1726 81.4715 39.9958 81.2601 40.8341C80.9957 41.9367 80.5275 43.0091 79.8327 43.9154C79.3116 44.5799 78.7377 45.0331 77.9749 44.4667C77.5218 44.1344 77.2726 43.5906 77.1366 43.0544C77.0158 42.5937 76.9629 42.118 76.4267 41.982C75.7546 41.8159 74.9314 42.0953 74.2744 42.201C74.0176 42.2463 73.7684 42.2766 73.5116 42.3219C73.066 42.4049 72.6356 42.5107 72.2051 42.6466C71.9785 42.7146 71.752 42.7674 71.533 42.843C70.3171 43.2281 71.1629 44.2174 70.8306 45.0633C70.7173 45.3427 70.3624 45.5391 70.0679 45.5013C69.9093 45.4786 69.7658 45.4333 69.6147 45.3654C69.7658 45.6825 69.9244 45.9922 70.083 46.2867C70.2642 46.6341 70.453 46.9588 70.6343 47.2987C71.2384 47.9331 71.9408 48.424 72.696 48.5901C74.8257 49.0583 76.7666 48.22 78.496 46.9891C80.1499 45.8034 81.6905 44.1872 82.5741 42.3294C82.846 41.763 83.0575 41.1891 83.2312 40.6Z" fill="#323232"/>
<path d="M71.7597 38.1229C71.6691 37.8661 71.5256 37.632 71.3594 37.413C71.586 37.5716 71.7748 37.7755 71.9183 38.0247C71.8654 38.0549 71.8126 38.0851 71.7597 38.1229ZM67.7647 27.8143C67.7798 27.8294 67.8024 27.8369 67.8175 27.8445C66.3524 28.9773 65.5594 31.1749 64.7816 32.6929C64.7363 32.7835 64.7287 32.8666 64.7438 32.9421C64.7514 33.9012 65.348 34.9887 66.1938 35.4645C66.3222 35.54 66.5035 35.5023 66.579 35.3663C67.2436 34.1051 67.5532 32.6929 68.2555 31.4544C69.5167 29.2038 72.4092 30.9408 74.1084 31.7338C76.9706 33.0705 80.0443 34.7773 82.4232 37.0429C82.2042 37.0354 81.9852 37.0429 81.7738 37.0429C81.011 37.0505 80.2634 37.058 79.5308 36.9221C79.4326 36.1895 78.8511 35.4947 78.1337 35.17C78.1035 35.1549 78.0732 35.1398 78.043 35.1322C78.1337 35.1171 78.2167 35.102 78.3074 35.0945C78.043 34.951 77.7863 34.8226 77.5219 34.6942C77.2501 34.7244 76.9631 34.7773 76.6761 34.8603C75.649 34.8301 74.5691 35.17 74.0631 36.0007C74.0027 36.0989 73.8969 36.5067 73.8516 36.6049C73.7157 36.9145 73.6855 37.2468 73.7384 37.5791C73.4136 37.5715 73.0662 37.6395 72.8094 37.6924C72.6886 37.715 72.5678 37.7528 72.4545 37.7906C72.3639 37.6093 72.2506 37.4205 72.0996 37.2393C71.586 36.6049 70.7251 36.4538 69.9548 36.4765C69.2449 36.2197 68.4292 36.1291 67.7269 36.333C67.4248 36.4161 67.1454 36.5596 66.9037 36.7635C66.8735 36.7937 66.8433 36.8239 66.8055 36.8541C66.7225 36.9372 66.511 37.2997 66.443 37.3827C65.786 38.221 66.1863 39.452 66.9037 40.2525C68.0214 41.4911 69.8415 40.97 71.0649 40.2752C71.6842 39.9202 71.9183 39.3689 71.9032 38.8025C71.9787 38.7421 72.0542 38.6893 72.1373 38.6439C72.16 38.7572 72.1826 38.8705 72.1902 38.9913C72.243 39.9656 71.9636 40.8869 72.5376 41.7554C72.9378 42.3596 74.0178 42.133 74.5011 41.7705C74.5691 41.7176 74.554 41.5968 74.4482 41.5968C74.0102 41.5968 73.5647 41.8007 73.1342 41.7327C72.6584 41.6572 72.7037 40.4867 72.7113 40.1695C72.7339 39.5351 72.7717 38.9687 72.666 38.4325C72.7717 38.3947 72.8774 38.3645 72.9831 38.3419C73.3003 38.2663 73.6628 38.3192 74.0027 38.3117C74.1839 38.6288 74.4407 38.9158 74.7503 39.1273C76.2532 40.1544 77.8316 39.4218 79.0173 38.3041C79.2514 38.0851 79.3949 37.8434 79.4704 37.6018C79.9084 37.7075 80.354 37.7603 80.8147 37.783C81.5397 37.8208 82.4761 37.9718 83.2464 37.8736C83.6316 38.2965 83.9941 38.7346 84.3264 39.1952C84.5454 39.4973 84.9834 39.4671 85.1042 39.0971C85.361 38.3419 86.5542 37.5489 86.3126 36.6351C85.9954 35.457 85.1798 34.4223 84.3868 33.5236C82.4761 31.3637 79.7951 29.8231 77.1972 28.6601C75.4829 27.8973 73.4665 27.059 71.4954 26.9382C72.1449 25.4656 72.6282 23.9325 73.1115 22.3994C73.7157 20.4812 74.5238 18.5932 75.0373 16.6523C75.1053 16.3804 74.7428 16.2369 74.5993 16.4635C73.6628 17.9361 73.2173 19.7411 72.7113 21.395C72.1449 23.2452 71.5785 25.088 70.9592 26.9231C70.8006 26.9231 70.6496 26.9307 70.491 26.9382C70.5061 26.9156 70.5136 26.8854 70.5061 26.8476C70.4381 25.4807 69.8037 24.1062 69.411 22.8072C68.9277 21.2439 68.5274 19.6505 68.399 18.0192C68.3764 17.6794 67.8553 17.6718 67.8704 18.0192C67.9384 19.5749 68.2706 21.0702 68.686 22.558C69.0787 24.0005 69.4035 25.6317 70.0831 26.9684C70.0831 26.976 70.0907 26.976 70.0907 26.9835C69.5847 27.0515 69.0863 27.1799 68.6029 27.3838C68.4217 27.4593 68.2555 27.5575 68.0894 27.6557C68.0818 27.6406 68.0743 27.6179 68.0592 27.5952C66.224 25.171 63.3996 23.7135 61.5115 21.3195C61.3529 21.1156 60.998 21.3874 61.1566 21.5913C62.9842 23.9854 65.5443 25.813 67.7647 27.8143Z" fill="#323232"/>
<path d="M86.1314 87.5512C86.0559 86.222 85.9879 84.8853 85.92 83.5562C85.92 83.526 85.92 83.4957 85.92 83.4655C85.8973 83.0426 85.8822 82.6197 85.8596 82.2043C85.8596 82.159 85.8596 82.1137 85.852 82.0684C85.8369 81.653 85.8218 81.2301 85.7991 80.8072C85.7991 80.7845 85.7991 80.7619 85.7991 80.7392C85.7689 79.8707 85.7312 79.0174 85.7085 78.1564C85.7085 78.1187 85.701 78.0809 85.701 78.0431C85.6934 77.6429 85.6783 77.2351 85.6708 76.8273C85.6632 76.7744 85.6632 76.7215 85.6632 76.6762C85.6556 76.2684 85.6405 75.8681 85.633 75.4679C85.633 75.4226 85.633 75.3848 85.633 75.3395C85.6103 74.5012 85.5952 73.6705 85.5877 72.8473C85.5801 72.8171 85.5801 72.7869 85.5801 72.7567C85.5801 72.364 85.5726 71.9713 85.5726 71.5786C85.5726 71.5257 85.5726 71.4728 85.5726 71.42C85.565 71.0348 85.565 70.6497 85.565 70.272C85.565 70.2192 85.565 70.1663 85.565 70.121C85.565 69.7283 85.565 69.3431 85.565 68.958C85.565 68.9353 85.565 68.9127 85.565 68.89C85.565 68.4973 85.5726 68.1122 85.5726 67.7194C85.5726 67.7043 85.5726 67.6892 85.5726 67.6666C85.5801 67.289 85.5877 66.9189 85.5952 66.5413C85.5952 66.4885 85.5952 66.4431 85.5952 66.3903C85.6028 66.0278 85.6103 65.6728 85.6179 65.3179C85.6179 65.265 85.6254 65.2046 85.6254 65.1517C85.633 64.7968 85.6405 64.4343 85.6556 64.0869C85.6556 64.0416 85.6556 64.0038 85.6632 63.9661C85.6859 63.2335 85.7161 62.5161 85.7538 61.8062C85.7538 61.7684 85.7538 61.7231 85.7614 61.6853C85.7765 61.3455 85.7916 61.0207 85.8142 60.6885C85.8218 60.6356 85.8218 60.5827 85.8218 60.5223C85.8444 60.1976 85.8671 59.8804 85.8898 59.5632C85.8973 59.5179 85.8973 59.4726 85.9049 59.4273C85.9275 59.095 85.9502 58.7702 85.9804 58.453C85.9804 58.4379 85.9804 58.4228 85.9804 58.4153C86.0106 58.0905 86.0408 57.7733 86.071 57.4637C86.071 57.4335 86.0786 57.4033 86.0786 57.3731C86.1088 57.071 86.139 56.7689 86.1692 56.4744C86.1767 56.4291 86.1843 56.3762 86.1843 56.3309C86.2221 56.0439 86.2523 55.7569 86.29 55.4775C86.2976 55.4322 86.3051 55.3869 86.3051 55.3416C86.3429 55.0546 86.3882 54.7752 86.426 54.4957C86.426 54.4731 86.4335 54.4429 86.4411 54.4202C86.4788 54.1408 86.5166 53.8689 86.5619 53.6046C86.5694 53.5819 86.5694 53.5668 86.5694 53.5517C86.6148 53.2874 86.6601 53.0231 86.7129 52.7663C86.7205 52.7286 86.728 52.6832 86.7356 52.6455C86.7809 52.3963 86.8262 52.1621 86.8791 51.9205C86.8866 51.8752 86.8942 51.8374 86.9017 51.7921C86.9546 51.558 87.0075 51.3239 87.0603 51.0973C87.0679 51.0671 87.0754 51.0369 87.083 50.9991C87.1434 50.765 87.1963 50.5309 87.2642 50.3043C86.6827 50.2741 85.8218 49.9796 85.2025 49.9947C84.8853 50.0023 84.6286 50.0853 84.5002 50.3345C84.4851 50.3497 84.4775 50.3648 84.47 50.3874C84.0999 51.2559 83.7752 52.2905 83.4958 53.4536V53.4611C83.3674 53.9973 83.2465 54.5637 83.1333 55.1603C83.1181 55.2585 83.103 55.3642 83.0804 55.4624C83.0275 55.7645 82.9822 56.0666 82.9293 56.3838C82.9293 56.3838 82.9293 56.3838 82.9293 56.3913C82.8085 57.1239 82.7103 57.8942 82.6197 58.6947V58.7023C82.5971 58.9288 82.5668 59.1554 82.5442 59.3895C82.5442 59.3895 82.5442 59.3895 82.5442 59.397C82.5064 59.7444 82.4762 60.0994 82.4385 60.4619C82.4309 60.5827 82.4158 60.7111 82.4083 60.8319C82.378 61.1944 82.3478 61.5645 82.3176 61.9421C82.295 62.3197 82.2648 62.7049 82.2421 63.09C82.2195 63.4752 82.1968 63.8603 82.1741 64.253C82.1741 64.389 82.1666 64.5249 82.159 64.6608C82.1364 65.0536 82.1213 65.4538 82.1062 65.8616C81.8721 72.0241 82.0231 79.1306 82.3629 86.2825C83.6392 86.6827 84.9004 87.1132 86.1314 87.5814C86.1314 87.5663 86.1314 87.5588 86.1314 87.5512Z" fill="#323232"/>
<path d="M101.107 127.902C101.001 127.464 100.903 127.011 100.828 126.558C100.805 126.429 100.782 126.294 100.76 126.165C100.714 125.886 100.669 125.606 100.631 125.327C99.3853 125.259 97.8674 124.806 96.5457 125.115C93.6684 125.803 91.6369 126.241 88.9559 124.911C88.9634 124.896 88.9634 124.881 88.9634 124.859C88.971 124.776 88.9785 124.64 88.9785 124.458C88.971 123.545 88.82 121.558 88.5783 118.787C87.3322 118.802 86.071 118.825 84.8022 118.84C85.2176 123.529 85.4819 126.671 85.3838 127.305C86.7129 126.513 88.1705 127.034 89.6733 127.6C89.8621 127.668 90.0509 127.744 90.2397 127.811C90.3681 127.864 90.4965 127.91 90.6249 127.955C90.6929 127.978 90.7608 128 90.8213 128.023C91.8106 128.363 92.8075 128.582 93.7968 128.34C93.9705 128.302 94.1291 128.265 94.2877 128.219C94.3858 128.197 94.4765 128.166 94.5671 128.136C94.6728 128.114 94.771 128.083 94.8616 128.053C95.0127 128.015 95.1486 127.97 95.2921 127.932C95.4884 127.879 95.6848 127.827 95.8812 127.789C95.9718 127.774 96.07 127.759 96.1606 127.744C96.3569 127.721 96.5608 127.706 96.7799 127.706C96.9007 127.706 97.0291 127.706 97.165 127.721C97.2405 127.721 97.3085 127.728 97.3765 127.736C97.452 127.744 97.52 127.751 97.603 127.766C97.9202 127.819 98.2299 127.887 98.547 127.955C99.1814 128.098 99.8007 128.242 100.405 128.385C100.624 128.431 100.85 128.484 101.062 128.529C101.137 128.544 101.213 128.559 101.288 128.574C101.251 128.446 101.213 128.317 101.183 128.189C101.153 128.091 101.13 127.993 101.107 127.902Z" fill="#323232"/>
<path d="M28.094 90.406C27.1198 90.3003 25.8964 90.761 24.9524 90.9649C23.7214 91.2367 22.4753 91.5011 21.3425 92.075C21.0631 92.211 21.1839 92.7245 21.5086 92.6867C23.7214 92.3922 25.8511 91.3953 28.094 91.2519C29.1438 91.1839 30.3219 92.075 31.2433 92.5055C32.3308 93.0115 33.4107 93.5401 34.4831 94.0839C35.5631 94.6276 36.6279 95.2016 37.6852 95.7831C37.8891 95.5565 38.1006 95.3904 38.3347 95.2771C36.8016 94.4162 35.2459 93.593 33.675 92.8C31.9758 91.9466 30.0198 90.625 28.094 90.406ZM56.1425 78.3076C55.9084 78.6625 55.4326 78.5266 55.1532 78.3C54.6849 77.9224 54.9493 77.3258 55.2815 76.918C55.6289 76.9784 55.9386 77.0388 56.2331 77.0464C56.2709 77.0992 56.3011 77.1521 56.3237 77.2352C56.437 77.5901 56.3464 78.0055 56.1425 78.3076ZM69.6078 52.3209C69.4719 51.9961 69.0037 52.0188 68.4524 52.1925C68.4146 52.0867 68.3315 51.9961 68.2107 51.9659C66.2245 51.4675 65.0841 52.7136 64.0118 54.1636C62.5618 56.1271 61.5422 58.4456 60.5378 60.6584C58.2193 65.756 55.6667 70.967 54.6849 76.5177C54.6849 76.5328 54.6849 76.5404 54.6849 76.5555C54.6774 76.6084 54.6849 76.6537 54.7 76.7065C54.2469 77.1144 54.1487 77.9602 54.4357 78.5039C54.5792 78.7758 54.7982 78.9722 55.055 79.1005C53.8995 80.392 53.0688 82.0912 52.3513 83.6922C51.8605 83.662 51.3922 83.7073 51.1052 83.9716C49.6552 85.3537 49.0133 87.5891 48.4167 89.4318C47.5558 92.1505 46.7628 94.9071 46.0453 97.656C45.8943 98.2451 45.7357 98.8492 45.5922 99.4685C44.8823 99.0758 44.1951 98.6227 43.5003 98.2375C43.0698 97.9883 42.6394 97.7466 42.2013 97.505C42.0956 97.7164 41.9521 97.9279 41.8237 98.1016C42.5336 98.4867 43.2435 98.8568 43.9534 99.242C44.4594 99.5138 44.9503 99.8235 45.4487 100.11C45.1315 101.689 44.9729 103.313 45.4034 104.815C45.4034 104.876 45.4261 104.929 45.5016 104.966C46.2568 105.306 46.9591 105.775 47.7144 106.114C47.8578 106.182 48.0315 106.152 48.1297 106.046C48.5602 106.22 49.0133 106.432 49.4815 106.53C49.5495 106.711 49.6854 106.885 49.8516 106.953C50.0631 107.036 50.3047 107.051 50.5011 106.915C50.7125 106.771 50.8032 106.537 50.7352 106.296C50.6597 106.009 50.2594 105.737 49.9724 105.767C49.912 105.775 49.8516 105.79 49.8063 105.812C49.7006 105.835 49.6175 105.895 49.5495 105.971C49.2248 105.797 48.8547 105.676 48.5073 105.548C48.4091 105.51 48.3034 105.472 48.1977 105.435C48.1448 103.026 48.6584 100.632 49.3229 98.2828C49.7987 98.4263 50.2821 98.5547 50.7654 98.668C50.7956 98.8946 50.9618 99.0985 51.1657 99.1966C51.5508 99.3779 52.1248 99.2646 52.2607 98.8115C52.374 98.4641 52.0568 98.0412 51.7321 97.9505C51.6565 97.9354 51.5886 97.9354 51.5282 97.9505C51.3091 97.9128 51.1128 97.9883 50.9693 98.1318C50.5086 97.9128 50.0177 97.7391 49.5193 97.588C49.8138 96.561 50.131 95.549 50.4256 94.5446C50.6521 93.7742 50.8787 92.9964 51.1052 92.2261C51.2412 92.2336 51.3847 92.2563 51.5206 92.2638C51.9662 92.3167 52.4344 92.3922 52.88 92.3469C52.9555 92.6792 53.3331 92.8604 53.6654 92.8C54.0506 92.7396 54.2922 92.2487 54.043 91.9164C53.8995 91.7276 53.7258 91.637 53.4841 91.6068C53.2953 91.5841 53.1065 91.6823 53.0084 91.8409C52.5326 91.705 51.9964 91.705 51.5055 91.6672C51.43 91.6597 51.3545 91.6521 51.2789 91.6521C51.5433 90.7685 51.8151 89.8849 52.1172 89.0164C52.3891 88.2386 52.7365 87.4985 53.0159 86.7206C53.1972 86.2222 53.3709 85.5274 53.7032 85.0214C53.8315 85.0289 53.9675 85.044 54.1034 85.0516C54.3602 85.0742 54.6245 85.0969 54.8888 85.0894C54.9266 85.1573 54.9719 85.2177 55.0323 85.2706C55.3495 85.5123 55.7951 85.4896 56.0216 85.1422C56.0896 85.0289 56.1047 84.893 56.0821 84.7722C56.0972 84.3568 55.5836 84.1604 55.2287 84.2662C55.1003 84.3039 55.0097 84.3795 54.9417 84.4701C54.6925 84.455 54.4433 84.4625 54.194 84.455C54.3375 84.2133 54.2167 83.8961 53.8769 83.8735C53.6654 83.8659 53.386 83.8206 53.0914 83.7753C53.469 83.0578 53.8315 82.3253 54.2394 81.6229C54.7 80.8224 55.5308 80.1427 55.8102 79.2516C56.0972 79.2365 56.3766 79.1383 56.5956 78.942C57.1469 78.4737 57.2602 77.6128 57.0336 76.9482C57.4112 76.8198 57.7662 76.5328 58.1287 75.9966C59.692 73.663 60.7039 70.8084 61.7839 68.2255C63.6946 63.6188 65.2276 58.9063 67.4102 54.443C67.4404 54.5789 67.4631 54.7149 67.4857 54.8584C67.4933 54.9037 67.5008 54.949 67.5084 54.9867C67.5461 55.2133 67.5839 55.4399 67.6141 55.6664C67.6216 55.7117 67.6292 55.7571 67.6367 55.8099C67.667 56.0214 67.6972 56.2328 67.7274 56.4519C67.7349 56.4821 67.7349 56.5123 67.7425 56.5425C67.7727 56.7841 67.8029 57.0258 67.8331 57.275C67.8407 57.3279 67.8482 57.3808 67.8558 57.4336C67.8784 57.6828 67.9086 57.9396 67.9388 58.1964V58.2039C67.969 58.4607 67.9917 58.7175 68.0144 58.9818C68.0219 59.0347 68.0295 59.0875 68.037 59.1479C68.0597 59.4047 68.0823 59.669 68.105 59.9334C68.105 59.9711 68.1125 60.0089 68.1125 60.0466C68.1352 60.2959 68.1503 60.5451 68.1654 60.7943C68.173 60.8396 68.173 60.8849 68.1805 60.9302C68.1956 61.2021 68.2183 61.4815 68.2334 61.761C68.2409 61.8138 68.2409 61.8591 68.2485 61.912C68.2636 62.1839 68.2787 62.4482 68.2938 62.7201C68.2938 62.7427 68.2938 62.7654 68.2938 62.7956C68.3089 63.0826 68.324 63.3771 68.3391 63.6716C68.3391 63.7245 68.3466 63.7774 68.3466 63.8378C68.3769 64.4344 68.392 65.0461 68.4146 65.6654C68.4146 65.7107 68.4146 65.7636 68.4146 65.8164C68.4222 66.1185 68.4373 66.4357 68.4373 66.7453C68.4448 66.7755 68.4448 66.8058 68.4448 66.8284C68.4524 67.1305 68.4524 67.4326 68.4599 67.7422C68.4599 67.7724 68.4599 67.8102 68.4599 67.8479C68.4675 68.1651 68.4675 68.4899 68.4675 68.8146C68.475 68.8524 68.475 68.8977 68.475 68.9354C68.475 69.5925 68.4826 70.2646 68.475 70.9367V71.0727C68.475 71.7524 68.4675 72.4396 68.4599 73.1344V73.2326C68.4599 73.5875 68.4524 73.9349 68.4448 74.2899V74.3276C68.4373 74.6826 68.4297 75.0375 68.4222 75.4C68.4222 75.4076 68.4222 75.4151 68.4222 75.4227C68.4146 75.7852 68.4071 76.1477 68.392 76.5102C68.392 76.5328 68.392 76.563 68.392 76.5857C68.3769 77.3107 68.3542 78.0357 68.324 78.7683C68.324 78.7985 68.324 78.8287 68.324 78.8513C68.2938 79.5839 68.2711 80.3315 68.2334 81.0716C68.2334 81.0867 68.2334 81.1019 68.2334 81.1245C68.1881 82.2573 68.1352 83.3901 68.0748 84.5305C68.0748 84.538 68.0748 84.5456 68.0748 84.5532C69.3058 84.5003 70.5519 84.4776 71.7828 84.4927C72.3719 71.0727 72.1378 58.2341 69.6078 52.3209Z" fill="#323232"/>
<path d="M65.5902 115.758C65.5071 116.657 65.4241 117.495 65.3561 118.281C65.3561 118.281 65.3561 118.288 65.3485 118.288C65.341 118.409 65.3334 118.53 65.3183 118.651C65.3183 118.658 65.3183 118.666 65.3183 118.681C65.3108 118.787 65.2957 118.9 65.2881 119.006C65.2881 119.028 65.2806 119.051 65.2806 119.066C65.273 119.157 65.2655 119.24 65.2579 119.331C65.2504 119.376 65.2504 119.421 65.2428 119.466C65.2353 119.534 65.2353 119.61 65.2277 119.678C65.2202 119.731 65.2201 119.784 65.2126 119.844C65.205 119.905 65.1975 119.972 65.1975 120.033C65.1899 120.086 65.1899 120.139 65.1824 120.191C65.1748 120.252 65.1673 120.32 65.1673 120.388C65.1597 120.433 65.1597 120.471 65.1522 120.516C65.1446 120.584 65.1446 120.652 65.1371 120.713C65.1295 120.765 65.1295 120.818 65.122 120.864C65.1144 120.924 65.1144 120.977 65.1069 121.03C65.1069 121.083 65.0993 121.136 65.0993 121.188C65.0918 121.241 65.0918 121.287 65.0842 121.339C65.0767 121.392 65.0767 121.445 65.0691 121.498C65.0691 121.543 65.0616 121.596 65.0616 121.641C65.054 121.687 65.054 121.74 65.0465 121.785C65.0465 121.83 65.0389 121.876 65.0389 121.921C65.0313 122.012 65.0238 122.102 65.0162 122.193C65.0162 122.208 65.0162 122.223 65.0162 122.238C65.0087 122.306 65.0087 122.382 65.0011 122.45C65.0011 122.48 64.9936 122.502 64.9936 122.533C64.9936 122.586 64.986 122.638 64.986 122.691C64.9785 122.721 64.9785 122.752 64.9785 122.782C64.9785 122.827 64.9709 122.872 64.9709 122.918C64.9709 122.948 64.9634 122.986 64.9634 123.016C64.9634 123.054 64.9634 123.091 64.9558 123.129C64.9558 123.167 64.9558 123.197 64.9558 123.227C64.9483 123.265 64.9483 123.303 64.9483 123.333C64.9483 123.363 64.9407 123.394 64.9407 123.424C64.9407 123.454 64.9407 123.492 64.9407 123.522C64.9332 123.552 64.9332 123.575 64.9332 123.605C64.9332 123.635 64.9332 123.665 64.9332 123.696C64.9332 123.718 64.9332 123.749 64.9256 123.771C64.9256 123.801 64.9256 123.824 64.9256 123.854C64.9256 123.877 64.9256 123.9 64.9256 123.915C64.9256 123.945 64.9256 123.975 64.9256 123.998C64.9256 124.02 64.9256 124.036 64.9256 124.051C64.9256 124.081 64.9256 124.103 64.9256 124.126C64.9256 124.141 64.9256 124.156 64.9256 124.171C64.9256 124.194 64.9256 124.217 64.9256 124.239C64.9332 124.255 64.9332 124.27 64.9332 124.277C64.9332 124.3 64.9332 124.315 64.9332 124.338C64.9332 124.345 64.9332 124.36 64.9332 124.368C64.9407 124.39 64.9407 124.421 64.9483 124.436C60.9079 124.957 59.4126 126.173 56.5277 125.478C55.2363 125.176 54.5415 124.798 53.3407 124.844C53.167 126.127 52.9631 127.411 52.6157 128.574C53.7636 128.34 55.0324 128 56.3011 127.766C57.9097 127.532 58.6045 128 60.1074 128.34C62.9847 129.035 65.9829 125.803 68.5204 127.306C68.4071 126.581 68.7696 122.744 69.3058 117.118C68.0446 116.763 66.791 116.34 65.5902 115.758Z" fill="#323232"/>
<path d="M75.8156 43.0772C75.219 43.0017 74.2976 42.8733 73.8671 43.4095C73.3763 43.0394 72.4096 43.3264 71.9489 43.5907C71.9338 43.5983 71.9187 43.6134 71.9111 43.636C71.896 43.6436 71.8734 43.6511 71.8658 43.6663C71.8205 43.7191 71.8054 43.7871 71.8432 43.8475C72.3265 44.6027 73.2705 44.6933 74.0786 44.6178C74.7507 44.5574 75.7778 43.8777 75.8911 43.1754C75.8986 43.115 75.8609 43.0772 75.8156 43.0772Z" fill="#B02243"/>
<path d="M59.0643 86.4637C59.1474 85.9502 59.1021 85.4216 58.6716 85.1648C58.2563 84.9231 57.9391 85.2176 57.6974 85.7614C57.5992 85.9653 57.5162 86.2145 57.4482 86.4788C57.1839 87.4153 57.0555 88.6085 57.0026 89.3335C56.6401 89.4015 56.2625 89.6734 55.9755 89.832C55.462 90.0963 54.9333 90.3229 54.4274 90.5872C54.2008 90.708 54.3141 91.063 54.5557 91.0554C54.805 91.0479 55.0391 91.0025 55.2732 90.9421C55.0693 91.1385 54.8654 91.3348 54.6615 91.5312C54.4349 91.7426 54.7521 92.158 55.0013 91.9617C55.1373 91.8559 55.2656 91.7426 55.4016 91.6369C55.2279 91.8559 55.0844 92.0976 55.1448 92.377C55.1675 92.4903 55.3034 92.5432 55.4091 92.5205C55.613 92.4752 55.7867 92.3015 55.9302 92.1051C55.8698 92.3091 55.832 92.5205 55.8774 92.7471C55.9 92.8981 56.1039 92.9661 56.2248 92.883C56.3531 92.7999 56.4513 92.6942 56.5344 92.5734C56.5268 92.6716 56.5193 92.7697 56.5117 92.8679C56.5042 93.0038 56.6024 93.1322 56.7081 93.2002C56.8214 93.2682 56.8818 93.2908 57.0102 93.238C57.1914 93.1624 57.2745 93.0492 57.2896 92.8528C57.3047 92.7546 57.3123 92.6564 57.3198 92.5583C57.3727 92.6413 57.4482 92.7169 57.5464 92.7622C57.637 92.8075 57.7276 92.7999 57.8031 92.732C58.1279 92.3997 57.9315 91.8182 57.8636 91.4028C57.856 91.3575 57.8484 91.3122 57.8409 91.2669C57.8636 91.3122 57.8938 91.365 57.9164 91.4104C58.0675 91.7351 58.1732 92.2939 58.5055 92.4827C58.7245 92.6111 58.9964 92.4979 59.0568 92.2411C59.1399 91.9163 58.9133 91.5236 58.7774 91.2367C58.6037 90.8591 58.3771 90.5268 58.1203 90.2096C58.0901 90.1643 57.9466 90.0057 57.7729 89.8471C58.2563 89.0994 58.581 88.1176 58.8529 87.2945C58.8604 87.2718 58.868 87.2567 58.8755 87.2341C58.6565 87.1283 58.4375 87.0226 58.2261 86.9093C58.0901 87.3473 57.9013 87.7778 57.7201 88.1705C57.6899 88.2309 57.6596 88.2913 57.6294 88.3518C57.6445 88.2536 57.6596 88.1554 57.6823 88.0648C57.7503 87.6872 57.8409 87.3171 57.9315 86.9471C57.9466 86.8867 57.9617 86.8338 57.9768 86.7734C58.0146 86.6601 58.0448 86.5393 58.0826 86.4184C58.075 86.1994 58.1732 86.1012 58.3695 86.1163C58.3846 86.1163 58.4073 86.1239 58.4224 86.1239C58.4224 86.1314 58.4224 86.1314 58.4224 86.139C58.6339 86.2523 58.8529 86.358 59.0643 86.4637Z" fill="#B02243"/>
<path d="M51.9659 106.084C52.0036 106.069 52.0565 106.054 52.1093 106.046C52.1093 106.062 52.1093 106.069 52.1093 106.084C52.3057 106.084 52.5096 106.092 52.706 106.099C52.7135 105.699 52.5927 105.337 52.2302 105.125C51.6336 104.785 51.3466 105.548 51.2106 106.129C51.1578 106.341 51.1276 106.53 51.1125 106.628L51.0898 106.794C50.8557 108.274 50.5083 109.822 50.4403 111.333C50.0778 111.401 49.7002 111.68 49.4057 111.831C48.8922 112.096 48.3711 112.33 47.8575 112.594C47.6234 112.707 47.7442 113.062 47.9935 113.062C48.2351 113.055 48.4692 113.009 48.7034 112.941C48.4994 113.138 48.2955 113.334 48.0916 113.531C47.8651 113.742 48.1823 114.157 48.4315 113.961C48.5674 113.855 48.6958 113.75 48.8317 113.636C48.658 113.855 48.5145 114.097 48.575 114.376C48.5976 114.497 48.7336 114.55 48.8393 114.52C49.0432 114.475 49.2169 114.308 49.3604 114.112C49.3 114.316 49.2622 114.52 49.3075 114.754C49.3302 114.897 49.5341 114.965 49.6549 114.89C49.7833 114.807 49.8815 114.694 49.9645 114.58C49.957 114.678 49.9494 114.769 49.9419 114.867C49.9343 115.003 50.025 115.139 50.1382 115.2C50.2515 115.275 50.3119 115.29 50.4403 115.237C50.6216 115.162 50.7047 115.048 50.7273 114.852C50.7349 114.754 50.7424 114.656 50.75 114.558C50.8028 114.648 50.8783 114.716 50.9765 114.769C51.0596 114.807 51.1578 114.807 51.2333 114.731C51.558 114.399 51.3617 113.818 51.2937 113.41C51.2862 113.357 51.2786 113.312 51.2711 113.266C51.2937 113.319 51.3239 113.364 51.3466 113.417C51.4976 113.734 51.5958 114.293 51.9356 114.482C52.1622 114.61 52.4265 114.497 52.4869 114.248C52.57 113.916 52.3435 113.523 52.2075 113.244C52.0338 112.866 51.8148 112.534 51.5505 112.209C51.5127 112.164 51.3013 111.929 51.0747 111.733C51.558 110.434 51.9507 109.105 52.3284 107.761C52.4039 107.496 52.5323 107.149 52.6153 106.779C52.4265 106.764 52.2453 106.764 52.0565 106.756C51.9432 107.338 51.6789 107.965 51.4523 108.539C51.5203 108.04 51.6109 107.542 51.694 107.043C51.7015 106.945 51.7166 106.854 51.7317 106.756C51.7468 106.673 51.7544 106.583 51.7695 106.492C51.7468 106.288 51.8148 106.152 51.9659 106.084Z" fill="#B02243"/>
</svg>
